<?xml version="1.0" standalone="yes"?>

<svg version="1.1" viewBox="0.0 0.0 724.0944881889764 273.7769028871391" fill="none" stroke="none" stroke-linecap="square" stroke-miterlimit="10" xmlns="http://www.w3.org/2000/svg" xmlns:xlink="http://www.w3.org/1999/xlink"><clipPath id="p.0"><path d="m0 0l724.0945 0l0 273.77692l-724.0945 0l0 -273.77692z" clip-rule="nonzero"></path></clipPath><g clip-path="url(#p.0)"><path fill="#000000" fill-opacity="0.0" d="m0 0l724.0945 0l0 273.77692l-724.0945 0z" fill-rule="evenodd"></path><path fill="#000000" fill-opacity="0.0" d="m284.4987 73.49213l-106.61417 28.566925" fill-rule="evenodd"></path><path stroke="#666666" stroke-width="4.0" stroke-linejoin="round" stroke-linecap="butt" d="m284.4987 73.49213l-106.61417 28.566925" fill-rule="evenodd"></path><path fill="#000000" fill-opacity="0.0" d="m284.4987 176.43701l-106.61417 -28.56694" fill-rule="evenodd"></path><path stroke="#666666" stroke-width="4.0" stroke-linejoin="round" stroke-linecap="butt" d="m284.4987 176.43701l-106.61417 -28.56694" fill-rule="evenodd"></path><path fill="#000000" fill-opacity="0.0" d="m433.88452 73.49213l106.614136 28.566925" fill-rule="evenodd"></path><path stroke="#666666" stroke-width="4.0" stroke-linejoin="round" stroke-linecap="butt" d="m433.88452 73.49213l106.614136 28.566925" fill-rule="evenodd"></path><path fill="#000000" fill-opacity="0.0" d="m433.88452 176.43701l106.614136 -28.56694" fill-rule="evenodd"></path><path stroke="#666666" stroke-width="4.0" stroke-linejoin="round" stroke-linecap="butt" d="m433.88452 176.43701l106.614136 -28.56694" fill-rule="evenodd"></path><path fill="#134f5c" d="m22.89239 91.0l154.99213 0l0 65.98425l-154.99213 0z" fill-rule="evenodd"></path><path fill="#ffffff" d="m73.86995 127.1465q0 0.90625 -0.3125 1.640625q-0.3125 0.71875 -0.921875 1.234375q-0.59375 0.515625 -1.46875 0.796875q-0.859375 0.28125 -1.96875 0.28125q-0.984375 0 -1.90625 -0.203125q-0.90625 -0.203125 -1.6875 -0.609375l0 -2.671875q0.4375 0.203125 0.890625 0.40625q0.46875 0.203125 0.921875 0.359375q0.46875 0.15625 0.9375 0.25q0.46875 0.09375 0.9375 0.09375q0.46875 0 0.8125 -0.109375q0.34375 -0.109375 0.546875 -0.296875q0.203125 -0.1875 0.296875 -0.453125q0.109375 -0.265625 0.109375 -0.578125q0 -0.390625 -0.171875 -0.671875q-0.15625 -0.296875 -0.453125 -0.546875q-0.28125 -0.265625 -0.703125 -0.5q-0.40625 -0.234375 -0.921875 -0.515625q-0.421875 -0.21875 -0.953125 -0.53125q-0.53125 -0.3125 -1.0 -0.78125q-0.46875 -0.46875 -0.78125 -1.125q-0.3125 -0.671875 -0.3125 -1.609375q0 -0.90625 0.296875 -1.625q0.3125 -0.71875 0.859375 -1.203125q0.5625 -0.5 1.34375 -0.765625q0.796875 -0.265625 1.78125 -0.265625q0.5 0 0.96875 0.078125q0.46875 0.0625 0.921875 0.1875q0.453125 0.109375 0.921875 0.296875q0.46875 0.171875 0.953125 0.40625l-0.921875 2.234375q-0.421875 -0.203125 -0.78125 -0.34375q-0.359375 -0.15625 -0.703125 -0.25q-0.34375 -0.109375 -0.671875 -0.15625q-0.328125 -0.046875 -0.671875 -0.046875q-0.71875 0 -1.109375 0.390625q-0.375 0.375 -0.375 1.015625q0 0.34375 0.109375 0.609375q0.125 0.265625 0.375 0.5q0.25 0.21875 0.65625 0.46875q0.40625 0.234375 0.984375 0.546875q0.6875 0.375 1.265625 0.765625q0.59375 0.375 1.015625 0.84375q0.421875 0.46875 0.65625 1.0625q0.234375 0.59375 0.234375 1.390625zm13.89949 -3.03125q0 1.5625 -0.375 2.859375q-0.359375 1.28125 -1.109375 2.203125q-0.75 0.921875 -1.90625 1.421875q-1.140625 0.5 -2.6875 0.5q-1.5625 0 -2.71875 -0.5q-1.140625 -0.5 -1.890625 -1.421875q-0.734375 -0.921875 -1.109375 -2.203125q-0.359375 -1.296875 -0.359375 -2.875q0 -1.578125 0.359375 -2.859375q0.375 -1.296875 1.125 -2.203125q0.75 -0.90625 1.890625 -1.40625q1.140625 -0.5 2.71875 -0.5q1.5625 0 2.703125 0.5q1.140625 0.5 1.875 1.421875q0.75 0.90625 1.109375 2.1875q0.375 1.28125 0.375 2.875zm-9.203125 0q0 1.0625 0.1875 1.921875q0.1875 0.84375 0.5625 1.4375q0.390625 0.578125 0.96875 0.890625q0.59375 0.3125 1.40625 0.3125q0.8125 0 1.40625 -0.3125q0.59375 -0.3125 0.96875 -0.890625q0.375 -0.59375 0.546875 -1.4375q0.1875 -0.859375 0.1875 -1.921875q0 -1.078125 -0.1875 -1.921875q-0.171875 -0.84375 -0.546875 -1.4375q-0.375 -0.59375 -0.96875 -0.90625q-0.578125 -0.328125 -1.390625 -0.328125q-0.8125 0 -1.40625 0.328125q-0.59375 0.3125 -0.984375 0.90625q-0.375 0.59375 -0.5625 1.4375q-0.1875 0.84375 -0.1875 1.921875zm22.023376 -6.765625l0 8.78125q0 1.046875 -0.328125 1.96875q-0.3125 0.90625 -0.96875 1.578125q-0.65625 0.65625 -1.640625 1.046875q-0.96875 0.375 -2.296875 0.375q-1.25 0 -2.21875 -0.359375q-0.953125 -0.359375 -1.609375 -1.015625q-0.640625 -0.65625 -0.984375 -1.578125q-0.328125 -0.921875 -0.328125 -2.0625l0 -8.734375l2.875 0l0 8.53125q0 0.75 0.140625 1.28125q0.15625 0.53125 0.4375 0.875q0.296875 0.328125 0.734375 0.484375q0.4375 0.15625 1.015625 0.15625q1.21875 0 1.765625 -0.703125q0.546875 -0.703125 0.546875 -2.125l0 -8.5l2.859375 0zm5.9482727 6.015625l0.78125 0q1.203125 0 1.71875 -0.46875q0.515625 -0.484375 0.515625 -1.40625q0 -0.96875 -0.5625 -1.375q-0.546875 -0.40625 -1.71875 -0.40625l-0.734375 0l0 3.65625zm0 2.34375l0 5.203125l-2.875 0l0 -13.5625l3.71875 0q2.609375 0 3.84375 1.015625q1.25 1.0 1.25 3.046875q0 0.703125 -0.1875 1.265625q-0.1875 0.5625 -0.5 1.0q-0.3125 0.4375 -0.71875 0.78125q-0.390625 0.328125 -0.84375 0.546875q1.03125 1.640625 1.84375 2.953125q0.359375 0.546875 0.6875 1.078125q0.328125 0.53125 0.578125 0.953125q0.265625 0.40625 0.4375 0.65625l0.15625 0.265625l-3.1875 0l-2.953125 -5.203125l-1.25 0zm14.641876 -6.15625q-0.828125 0 -1.46875 0.328125q-0.625 0.3125 -1.0625 0.90625q-0.421875 0.59375 -0.65625 1.453125q-0.21875 0.859375 -0.21875 1.921875q0 1.09375 0.203125 1.9375q0.203125 0.84375 0.609375 1.421875q0.40625 0.578125 1.046875 0.890625q0.65625 0.296875 1.546875 0.296875q0.828125 0 1.65625 -0.1875q0.828125 -0.1875 1.796875 -0.53125l0 2.40625q-0.4375 0.1875 -0.875 0.328125q-0.4375 0.125 -0.890625 0.203125q-0.453125 0.09375 -0.9375 0.125q-0.46875 0.046875 -1.015625 0.046875q-1.578125 0 -2.734375 -0.5q-1.140625 -0.5 -1.890625 -1.40625q-0.75 -0.921875 -1.109375 -2.203125q-0.359375 -1.28125 -0.359375 -2.84375q0 -1.53125 0.40625 -2.8125q0.421875 -1.296875 1.21875 -2.21875q0.8125 -0.9375 2.0 -1.453125q1.1875 -0.515625 2.734375 -0.515625q1.015625 0 2.03125 0.265625q1.015625 0.25 1.9375 0.703125l-0.921875 2.328125q-0.765625 -0.359375 -1.546875 -0.625q-0.765625 -0.265625 -1.5 -0.265625zm13.934769 11.359375l-7.8125 0l0 -13.5625l7.8125 0l0 2.359375l-4.9375 0l0 2.96875l4.59375 0l0 2.359375l-4.59375 0l0 3.5l4.9375 0l0 2.375z" fill-rule="nonzero"></path><path fill="#134f5c" d="m284.4987 40.5l154.99213 0l0 65.98425l-154.99213 0z" fill-rule="evenodd"></path><path fill="#ffffff" d="m330.4856 72.86525l0.78125 0q1.203125 0 1.71875 -0.46875q0.515625 -0.484375 0.515625 -1.40625q0 -0.96875 -0.5625 -1.375q-0.546875 -0.40625 -1.71875 -0.40625l-0.734375 0l0 3.65625zm0 2.34375l0 5.203125l-2.875 0l0 -13.5625l3.71875 0q2.609375 0 3.84375 1.015625q1.25 1.0 1.25 3.046875q0 0.703125 -0.1875 1.265625q-0.1875 0.5625 -0.5 1.0q-0.3125 0.4375 -0.71875 0.78125q-0.390625 0.328125 -0.84375 0.546875q1.03125 1.640625 1.84375 2.953125q0.359375 0.546875 0.6875 1.078125q0.328125 0.53125 0.578125 0.953125q0.265625 0.40625 0.4375 0.65625l0.15625 0.265625l-3.1875 0l-2.953125 -5.203125l-1.25 0zm16.688751 5.203125l-7.8125 0l0 -13.5625l7.8125 0l0 2.359375l-4.9375 0l0 2.96875l4.59375 0l0 2.359375l-4.59375 0l0 3.5l4.9375 0l0 2.375zm2.6361084 0l0 -13.5625l2.875 0l0 11.1875l4.9375 0l0 2.375l-7.8125 0zm17.718384 0l-0.921875 -3.234375l-4.671875 0l-0.9375 3.234375l-2.90625 0l4.40625 -13.625l3.515625 0l4.421875 13.625l-2.90625 0zm-1.59375 -5.640625l-0.859375 -2.96875q-0.0625 -0.171875 -0.171875 -0.546875q-0.109375 -0.375 -0.234375 -0.828125q-0.125 -0.46875 -0.25 -0.9375q-0.109375 -0.46875 -0.15625 -0.78125q-0.03125 0.203125 -0.09375 0.484375q-0.0625 0.265625 -0.140625 0.578125q-0.078125 0.3125 -0.15625 0.640625q-0.078125 0.3125 -0.15625 0.59375q-0.078125 0.265625 -0.140625 0.484375q-0.0625 0.203125 -0.078125 0.3125l-0.875 2.96875l3.3125 0zm9.82785 -2.34375l2.453125 -5.578125l3.09375 0l-4.109375 8.28125l0 5.28125l-2.859375 0l0 -5.1875l-4.125 -8.375l3.125 0l2.421875 5.578125zm19.631836 7.984375l-0.921875 -3.234375l-4.671875 0l-0.9375 3.234375l-2.90625 0l4.40625 -13.625l3.515625 0l4.421875 13.625l-2.90625 0zm-1.59375 -5.640625l-0.859375 -2.96875q-0.0625 -0.171875 -0.171875 -0.546875q-0.109375 -0.375 -0.234375 -0.828125q-0.125 -0.46875 -0.25 -0.9375q-0.109375 -0.46875 -0.15625 -0.78125q-0.03125 0.203125 -0.09375 0.484375q-0.0625 0.265625 -0.140625 0.578125q-0.078125 0.3125 -0.15625 0.640625q-0.078125 0.3125 -0.15625 0.59375q-0.078125 0.265625 -0.140625 0.484375q-0.0625 0.203125 -0.078125 0.3125l-0.875 2.96875l3.3125 0z" fill-rule="nonzero"></path><path fill="#134f5c" d="m284.4987 141.5l154.99213 0l0 65.98425l-154.99213 0z" fill-rule="evenodd"></path><path fill="#ffffff" d="m330.55847 173.86525l0.78125 0q1.203125 0 1.71875 -0.46875q0.515625 -0.484375 0.515625 -1.40625q0 -0.96875 -0.5625 -1.375q-0.546875 -0.40625 -1.71875 -0.40625l-0.734375 0l0 3.65625zm0 2.34375l0 5.203125l-2.875 0l0 -13.5625l3.71875 0q2.609375 0 3.84375 1.015625q1.25 1.0 1.25 3.046875q0 0.703125 -0.1875 1.265625q-0.1875 0.5625 -0.5 1.0q-0.3125 0.4375 -0.71875 0.78125q-0.390625 0.328125 -0.84375 0.546875q1.03125 1.640625 1.84375 2.953125q0.359375 0.546875 0.6875 1.078125q0.328125 0.53125 0.578125 0.953125q0.265625 0.40625 0.4375 0.65625l0.15625 0.265625l-3.1875 0l-2.953125 -5.203125l-1.25 0zm16.688751 5.203125l-7.8125 0l0 -13.5625l7.8125 0l0 2.359375l-4.9375 0l0 2.96875l4.59375 0l0 2.359375l-4.59375 0l0 3.5l4.9375 0l0 2.375zm2.6361084 0l0 -13.5625l2.875 0l0 11.1875l4.9375 0l0 2.375l-7.8125 0zm17.718384 0l-0.921875 -3.234375l-4.671875 0l-0.9375 3.234375l-2.90625 0l4.40625 -13.625l3.515625 0l4.421875 13.625l-2.90625 0zm-1.59375 -5.640625l-0.859375 -2.96875q-0.0625 -0.171875 -0.171875 -0.546875q-0.109375 -0.375 -0.234375 -0.828125q-0.125 -0.46875 -0.25 -0.9375q-0.109375 -0.46875 -0.15625 -0.78125q-0.03125 0.203125 -0.09375 0.484375q-0.0625 0.265625 -0.140625 0.578125q-0.078125 0.3125 -0.15625 0.640625q-0.078125 0.3125 -0.15625 0.59375q-0.078125 0.265625 -0.140625 0.484375q-0.0625 0.203125 -0.078125 0.3125l-0.875 2.96875l3.3125 0zm9.82785 -2.34375l2.453125 -5.578125l3.09375 0l-4.109375 8.28125l0 5.28125l-2.859375 0l0 -5.1875l-4.125 -8.375l3.125 0l2.421875 5.578125zm11.897461 -5.578125l3.96875 0q1.28125 0 2.25 0.1875q0.96875 0.171875 1.609375 0.578125q0.65625 0.40625 0.984375 1.0625q0.328125 0.640625 0.328125 1.609375q0 0.5625 -0.140625 1.078125q-0.140625 0.5 -0.40625 0.875q-0.265625 0.375 -0.65625 0.640625q-0.375 0.25 -0.875 0.328125l0 0.09375q0.5 0.109375 0.9375 0.328125q0.453125 0.203125 0.78125 0.578125q0.328125 0.359375 0.515625 0.921875q0.1875 0.546875 0.1875 1.34375q0 0.9375 -0.328125 1.671875q-0.3125 0.71875 -0.921875 1.234375q-0.609375 0.5 -1.484375 0.765625q-0.859375 0.265625 -1.953125 0.265625l-4.796875 0l0 -13.5625zm2.875 5.375l1.5 0q0.53125 0 0.890625 -0.09375q0.375 -0.109375 0.59375 -0.296875q0.21875 -0.203125 0.3125 -0.484375q0.109375 -0.296875 0.109375 -0.6875q0 -0.78125 -0.5 -1.109375q-0.484375 -0.34375 -1.53125 -0.34375l-1.375 0l0 3.015625zm0 2.28125l0 3.53125l1.6875 0q0.578125 0 0.953125 -0.125q0.390625 -0.140625 0.625 -0.375q0.234375 -0.25 0.328125 -0.578125q0.109375 -0.34375 0.109375 -0.765625q0 -0.390625 -0.109375 -0.6875q-0.09375 -0.3125 -0.34375 -0.53125q-0.234375 -0.234375 -0.640625 -0.34375q-0.390625 -0.125 -0.984375 -0.125l-1.625 0z" fill-rule="nonzero"></path><path fill="#134f5c" d="m541.0 91.0l154.99213 0l0 65.98425l-154.99213 0z" fill-rule="evenodd"></path><path fill="#ffffff" d="m568.83203 124.005875q0 1.703125 -0.46875 3.0q-0.46875 1.296875 -1.359375 2.171875q-0.890625 0.859375 -2.171875 1.296875q-1.28125 0.4375 -2.921875 0.4375l-3.578125 0l0 -13.5625l3.96875 0q1.5 0 2.703125 0.4375q1.203125 0.421875 2.046875 1.265625q0.859375 0.828125 1.3125 2.078125q0.46875 1.234375 0.46875 2.875zm-2.921875 0.0625q0 -1.125 -0.234375 -1.9375q-0.21875 -0.828125 -0.65625 -1.359375q-0.421875 -0.546875 -1.046875 -0.796875q-0.625 -0.265625 -1.4375 -0.265625l-1.328125 0l0 8.828125l1.0625 0q1.8125 0 2.71875 -1.109375q0.921875 -1.125 0.921875 -3.359375zm13.297424 6.84375l-7.8125 0l0 -13.5625l7.8125 0l0 2.359375l-4.9375 0l0 2.96875l4.59375 0l0 2.359375l-4.59375 0l0 3.5l4.9375 0l0 2.375zm10.073547 -3.765625q0 0.90625 -0.3125 1.640625q-0.3125 0.71875 -0.921875 1.234375q-0.59375 0.515625 -1.46875 0.796875q-0.859375 0.28125 -1.96875 0.28125q-0.984375 0 -1.90625 -0.203125q-0.90625 -0.203125 -1.6875 -0.609375l0 -2.671875q0.4375 0.203125 0.890625 0.40625q0.46875 0.203125 0.921875 0.359375q0.46875 0.15625 0.9375 0.25q0.46875 0.09375 0.9375 0.09375q0.46875 0 0.8125 -0.109375q0.34375 -0.109375 0.546875 -0.296875q0.203125 -0.1875 0.296875 -0.453125q0.109375 -0.265625 0.109375 -0.578125q0 -0.390625 -0.171875 -0.671875q-0.15625 -0.296875 -0.453125 -0.546875q-0.28125 -0.265625 -0.703125 -0.5q-0.40625 -0.234375 -0.921875 -0.515625q-0.421875 -0.21875 -0.953125 -0.53125q-0.53125 -0.3125 -1.0 -0.78125q-0.46875 -0.46875 -0.78125 -1.125q-0.3125 -0.671875 -0.3125 -1.609375q0 -0.90625 0.296875 -1.625q0.3125 -0.71875 0.859375 -1.203125q0.5625 -0.5 1.34375 -0.765625q0.796875 -0.265625 1.78125 -0.265625q0.5 0 0.96875 0.078125q0.46875 0.0625 0.921875 0.1875q0.453125 0.109375 0.921875 0.296875q0.46875 0.171875 0.953125 0.40625l-0.921875 2.234375q-0.421875 -0.203125 -0.78125 -0.34375q-0.359375 -0.15625 -0.703125 -0.25q-0.34375 -0.109375 -0.671875 -0.15625q-0.328125 -0.046875 -0.671875 -0.046875q-0.71875 0 -1.109375 0.390625q-0.375 0.375 -0.375 1.015625q0 0.34375 0.109375 0.609375q0.125 0.265625 0.375 0.5q0.25 0.21875 0.65625 0.46875q0.40625 0.234375 0.984375 0.546875q0.6875 0.375 1.265625 0.765625q0.59375 0.375 1.015625 0.84375q0.421875 0.46875 0.65625 1.0625q0.234375 0.59375 0.234375 1.390625zm7.290161 3.765625l-2.875 0l0 -11.171875l-3.40625 0l0 -2.390625l9.671875 0l0 2.390625l-3.390625 0l0 11.171875zm10.364075 0l-6.171875 0l0 -1.640625l1.65625 -0.75l0 -8.78125l-1.65625 -0.765625l0 -1.625l6.171875 0l0 1.625l-1.65625 0.765625l0 8.78125l1.65625 0.75l0 1.640625zm13.650879 0l-3.65625 0l-5.328125 -10.265625l-0.09375 0q0.0625 0.71875 0.09375 1.421875q0.046875 0.609375 0.0625 1.28125q0.03125 0.65625 0.03125 1.171875l0 6.390625l-2.578125 0l0 -13.5625l3.625 0l5.328125 10.15625l0.0625 0q-0.03125 -0.703125 -0.0625 -1.390625q-0.015625 -0.296875 -0.03125 -0.609375q-0.015625 -0.3125 -0.03125 -0.625q0 -0.3125 -0.015625 -0.59375q0 -0.28125 0 -0.515625l0 -6.421875l2.59375 0l0 13.5625zm10.877258 0l-0.921875 -3.234375l-4.671875 0l-0.9375 3.234375l-2.90625 0l4.40625 -13.625l3.515625 0l4.421875 13.625l-2.90625 0zm-1.59375 -5.640625l-0.859375 -2.96875q-0.0625 -0.171875 -0.171875 -0.546875q-0.109375 -0.375 -0.234375 -0.828125q-0.125 -0.46875 -0.25 -0.9375q-0.109375 -0.46875 -0.15625 -0.78125q-0.03125 0.203125 -0.09375 0.484375q-0.0625 0.265625 -0.140625 0.578125q-0.078125 0.3125 -0.15625 0.640625q-0.078125 0.3125 -0.15625 0.59375q-0.078125 0.265625 -0.140625 0.484375q-0.0625 0.203125 -0.078125 0.3125l-0.875 2.96875l3.3125 0zm10.937256 5.640625l-2.875 0l0 -11.171875l-3.40625 0l0 -2.390625l9.671875 0l0 2.390625l-3.390625 0l0 11.171875zm10.364075 0l-6.171875 0l0 -1.640625l1.65625 -0.75l0 -8.78125l-1.65625 -0.765625l0 -1.625l6.171875 0l0 1.625l-1.65625 0.765625l0 8.78125l1.65625 0.75l0 1.640625zm13.744629 -6.796875q0 1.5625 -0.375 2.859375q-0.359375 1.28125 -1.109375 2.203125q-0.75 0.921875 -1.90625 1.421875q-1.140625 0.5 -2.6875 0.5q-1.5625 0 -2.71875 -0.5q-1.140625 -0.5 -1.890625 -1.421875q-0.734375 -0.921875 -1.109375 -2.203125q-0.359375 -1.296875 -0.359375 -2.875q0 -1.578125 0.359375 -2.859375q0.375 -1.296875 1.125 -2.203125q0.75 -0.90625 1.890625 -1.40625q1.140625 -0.5 2.71875 -0.5q1.5625 0 2.703125 0.5q1.140625 0.5 1.875 1.421875q0.75 0.90625 1.109375 2.1875q0.375 1.28125 0.375 2.875zm-9.203125 0q0 1.0625 0.1875 1.921875q0.1875 0.84375 0.5625 1.4375q0.390625 0.578125 0.96875 0.890625q0.59375 0.3125 1.40625 0.3125q0.8125 0 1.40625 -0.3125q0.59375 -0.3125 0.96875 -0.890625q0.375 -0.59375 0.546875 -1.4375q0.1875 -0.859375 0.1875 -1.921875q0 -1.078125 -0.1875 -1.921875q-0.171875 -0.84375 -0.546875 -1.4375q-0.375 -0.59375 -0.96875 -0.90625q-0.578125 -0.328125 -1.390625 -0.328125q-0.8125 0 -1.40625 0.328125q-0.59375 0.3125 -0.984375 0.90625q-0.375 0.59375 -0.5625 1.4375q-0.1875 0.84375 -0.1875 1.921875zm23.210876 6.796875l-3.65625 0l-5.328125 -10.265625l-0.09375 0q0.0625 0.71875 0.09375 1.421875q0.046875 0.609375 0.0625 1.28125q0.03125 0.65625 0.03125 1.171875l0 6.390625l-2.578125 0l0 -13.5625l3.625 0l5.328125 10.15625l0.0625 0q-0.03125 -0.703125 -0.0625 -1.390625q-0.015625 -0.296875 -0.03125 -0.609375q-0.015625 -0.3125 -0.03125 -0.625q0 -0.3125 -0.015625 -0.59375q0 -0.28125 0 -0.515625l0 -6.421875l2.59375 0l0 13.5625z" fill-rule="nonzero"></path></g></svg>

