<?xml version="1.0" encoding="UTF-8" standalone="no"?>
<svg
   xmlns:dc="http://purl.org/dc/elements/1.1/"
   xmlns:cc="http://creativecommons.org/ns#"
   xmlns:rdf="http://www.w3.org/1999/02/22-rdf-syntax-ns#"
   xmlns:svg="http://www.w3.org/2000/svg"
   xmlns="http://www.w3.org/2000/svg"
   viewBox="0 0 438.39377 200.59488"
   height="200.59488"
   width="438.39377"
   xml:space="preserve"
   version="1.1"
   id="svg4155"><metadata
     id="metadata4161"><rdf:RDF><cc:Work
         rdf:about=""><dc:format>image/svg+xml</dc:format><dc:type
           rdf:resource="http://purl.org/dc/dcmitype/StillImage" /><dc:title></dc:title></cc:Work></rdf:RDF></metadata><defs
     id="defs4159"><clipPath
       id="clipPath4169"
       clipPathUnits="userSpaceOnUse"><path
         id="path4171"
         d="m -53.28,702.01 576,0 0,-738 -576,0 0,738 z" /></clipPath><clipPath
       id="clipPath4177"
       clipPathUnits="userSpaceOnUse"><path
         id="path4179"
         d="m -26.28,675 522,0 0,-684 -522,0 0,684 z" /></clipPath><clipPath
       id="clipPath4185"
       clipPathUnits="userSpaceOnUse"><path
         id="path4187"
         d="m 0.03,666 469.02,0 0,-665.97 -469.02,0 0,665.97 z" /></clipPath><clipPath
       id="clipPath4305"
       clipPathUnits="userSpaceOnUse"><path
         id="path4307"
         d="m -53.28,702.01 576,0 0,-738 -576,0 0,738 z" /></clipPath><clipPath
       id="clipPath4313"
       clipPathUnits="userSpaceOnUse"><path
         id="path4315"
         d="m -26.28,675 522,0 0,-684 -522,0 0,684 z" /></clipPath><clipPath
       id="clipPath4321"
       clipPathUnits="userSpaceOnUse"><path
         style="clip-rule:evenodd"
         id="path4323"
         d="m 75.52,224.15 355.35,0 0,-165.92 -355.35,0 0,165.92 z" /></clipPath><clipPath
       id="clipPath4329"
       clipPathUnits="userSpaceOnUse"><path
         id="path4331"
         d="m 0.03,666 469.02,0 0,-665.97 -469.02,0 0,665.97 z" /></clipPath><clipPath
       id="clipPath4631"
       clipPathUnits="userSpaceOnUse"><path
         id="path4633"
         d="m -53.28,702.01 576,0 0,-738 -576,0 0,738 z" /></clipPath><clipPath
       id="clipPath4639"
       clipPathUnits="userSpaceOnUse"><path
         id="path4641"
         d="m -26.28,675 522,0 0,-684 -522,0 0,684 z" /></clipPath><clipPath
       id="clipPath4647"
       clipPathUnits="userSpaceOnUse"><path
         id="path4649"
         d="m 0.03,666 469.02,0 0,-665.97 -469.02,0 0,665.97 z" /></clipPath><clipPath
       id="clipPath4663"
       clipPathUnits="userSpaceOnUse"><path
         id="path4665"
         d="m 0.03,666 469.02,0 0,-665.97 -469.02,0 0,665.97 z" /></clipPath></defs><g
     transform="matrix(1.25,0,0,-1.25,-95.428402,276.81035)"
     id="g4163"><g
       id="g4301"><g
         clip-path="url(#clipPath4305)"
         id="g4303"><g
           id="g4309"><g
             clip-path="url(#clipPath4313)"
             id="g4311"><g
               id="g4317"><g
                 clip-path="url(#clipPath4321)"
                 id="g4319"><g
                   id="g4325"><g
                     clip-path="url(#clipPath4329)"
                     id="g4327"><g
                       transform="translate(227.01,89.364)"
                       id="g4333"><path
                         id="path4335"
                         style="fill:none;stroke:#000000;stroke-width:0.5;stroke-linecap:butt;stroke-linejoin:miter;stroke-miterlimit:4;stroke-dasharray:none;stroke-opacity:1"
                         d="m 0,0 -138.402,0 0,86.396" /></g><g
                       transform="translate(88.608,175.25)"
                       id="g4337"><path
                         id="path4339"
                         style="fill:#000000;fill-opacity:1;fill-rule:nonzero;stroke:none"
                         d="m 0,0 -1.801,-1.09 -0.041,0.06 1.167,2.94 C -0.45,2.93 -0.225,3.95 0,4.98 0.225,3.95 0.451,2.93 0.676,1.91 L 1.843,-1.03 1.812,-1.09 0,0" /></g><g
                       transform="translate(226.5,89.364)"
                       id="g4341"><path
                         id="path4343"
                         style="fill:#000000;fill-opacity:1;fill-rule:nonzero;stroke:none"
                         d="M 0,0 -1.1,1.802 -1.04,1.843 1.9,0.676 C 2.93,0.45 3.95,0.226 4.97,0 3.95,-0.226 2.93,-0.45 1.9,-0.676 L -1.04,-1.843 -1.1,-1.812 0,0" /></g><path
                       id="path4345"
                       style="fill:#b9e5fb;fill-opacity:1;fill-rule:nonzero;stroke:#00aeef;stroke-width:0.5;stroke-linecap:butt;stroke-linejoin:miter;stroke-miterlimit:4;stroke-dasharray:none;stroke-opacity:1"
                       d="m 119.43,89.365 -12.96,0 0,75.601 12.96,0 0,-75.601 z" /><g
                       transform="translate(112.95,89.364)"
                       id="g4347"><path
                         id="path4349"
                         style="fill:none;stroke:#000000;stroke-width:0.5;stroke-linecap:butt;stroke-linejoin:miter;stroke-miterlimit:4;stroke-dasharray:none;stroke-opacity:1"
                         d="M 0,0 0,6" /></g><text
                       id="text4351"
                       style="font-style:italic;font-variant:normal;font-weight:bold;font-size:8px;font-family:'Times New Roman';-inkscape-font-specification:Times-BoldItalic;writing-mode:lr-tb;fill:#000000;fill-opacity:1;fill-rule:nonzero;stroke:none"
                       transform="matrix(1,0,0,-1,110.21,80.609)"><tspan
                         id="tspan4353"
                         y="0"
                         x="0">f</tspan></text>
<text
                       id="text4355"
                       style="font-variant:normal;font-weight:bold;font-size:5.5999999px;font-family:'Times New Roman';-inkscape-font-specification:Times-Bold;writing-mode:lr-tb;fill:#000000;fill-opacity:1;fill-rule:nonzero;stroke:none"
                       transform="matrix(1,0,0,-1,112.88,78.969)"><tspan
                         id="tspan4357"
                         y="0"
                         x="0">1</tspan></text>
<text
                       id="text4359"
                       style="font-variant:normal;font-weight:bold;font-size:8px;font-family:'Times New Roman';-inkscape-font-specification:Times-Bold;writing-mode:lr-tb;fill:#000000;fill-opacity:1;fill-rule:nonzero;stroke:none"
                       transform="matrix(1,0,0,-1,110.95,167.97)"><tspan
                         id="tspan4361"
                         y="0"
                         x="0">5</tspan></text>
<path
                       id="path4363"
                       style="fill:#b9e5fb;fill-opacity:1;fill-rule:nonzero;stroke:#00aeef;stroke-width:0.5;stroke-linecap:butt;stroke-linejoin:miter;stroke-miterlimit:4;stroke-dasharray:none;stroke-opacity:1"
                       d="m 132.39,89.365 -12.96,0 0,75.601 12.96,0 0,-75.601 z" /><g
                       transform="translate(125.91,89.364)"
                       id="g4365"><path
                         id="path4367"
                         style="fill:none;stroke:#000000;stroke-width:0.5;stroke-linecap:butt;stroke-linejoin:miter;stroke-miterlimit:4;stroke-dasharray:none;stroke-opacity:1"
                         d="M 0,0 0,6" /></g><text
                       id="text4369"
                       style="font-style:italic;font-variant:normal;font-weight:bold;font-size:8px;font-family:'Times New Roman';-inkscape-font-specification:Times-BoldItalic;writing-mode:lr-tb;fill:#000000;fill-opacity:1;fill-rule:nonzero;stroke:none"
                       transform="matrix(1,0,0,-1,123.17,80.609)"><tspan
                         id="tspan4371"
                         y="0"
                         x="0">f</tspan></text>
<text
                       id="text4373"
                       style="font-variant:normal;font-weight:bold;font-size:5.5999999px;font-family:'Times New Roman';-inkscape-font-specification:Times-Bold;writing-mode:lr-tb;fill:#000000;fill-opacity:1;fill-rule:nonzero;stroke:none"
                       transform="matrix(1,0,0,-1,125.84,78.969)"><tspan
                         id="tspan4375"
                         y="0"
                         x="0">2</tspan></text>
<text
                       id="text4377"
                       style="font-variant:normal;font-weight:bold;font-size:8px;font-family:'Times New Roman';-inkscape-font-specification:Times-Bold;writing-mode:lr-tb;fill:#000000;fill-opacity:1;fill-rule:nonzero;stroke:none"
                       transform="matrix(1,0,0,-1,123.91,167.97)"><tspan
                         id="tspan4379"
                         y="0"
                         x="0">8</tspan></text>
<path
                       id="path4381"
                       style="fill:#b9e5fb;fill-opacity:1;fill-rule:nonzero;stroke:#00aeef;stroke-width:0.5;stroke-linecap:butt;stroke-linejoin:miter;stroke-miterlimit:4;stroke-dasharray:none;stroke-opacity:1"
                       d="m 145.35,89.365 -12.96,0 0,75.601 12.96,0 0,-75.601 z" /><g
                       transform="translate(138.87,89.364)"
                       id="g4383"><path
                         id="path4385"
                         style="fill:none;stroke:#000000;stroke-width:0.5;stroke-linecap:butt;stroke-linejoin:miter;stroke-miterlimit:4;stroke-dasharray:none;stroke-opacity:1"
                         d="M 0,0 0,6" /></g><text
                       id="text4387"
                       style="font-style:italic;font-variant:normal;font-weight:bold;font-size:8px;font-family:'Times New Roman';-inkscape-font-specification:Times-BoldItalic;writing-mode:lr-tb;fill:#000000;fill-opacity:1;fill-rule:nonzero;stroke:none"
                       transform="matrix(1,0,0,-1,136.13,80.609)"><tspan
                         id="tspan4389"
                         y="0"
                         x="0">f</tspan></text>
<text
                       id="text4391"
                       style="font-variant:normal;font-weight:bold;font-size:5.5999999px;font-family:'Times New Roman';-inkscape-font-specification:Times-Bold;writing-mode:lr-tb;fill:#000000;fill-opacity:1;fill-rule:nonzero;stroke:none"
                       transform="matrix(1,0,0,-1,138.8,78.969)"><tspan
                         id="tspan4393"
                         y="0"
                         x="0">3</tspan></text>
<text
                       id="text4395"
                       style="font-variant:normal;font-weight:bold;font-size:8px;font-family:'Times New Roman';-inkscape-font-specification:Times-Bold;writing-mode:lr-tb;fill:#000000;fill-opacity:1;fill-rule:nonzero;stroke:none"
                       transform="matrix(1,0,0,-1,136.87,167.97)"><tspan
                         id="tspan4397"
                         y="0"
                         x="0">3</tspan></text>
<path
                       id="path4399"
                       style="fill:#b9e5fb;fill-opacity:1;fill-rule:nonzero;stroke:#00aeef;stroke-width:0.5;stroke-linecap:butt;stroke-linejoin:miter;stroke-miterlimit:4;stroke-dasharray:none;stroke-opacity:1"
                       d="m 158.31,89.365 -12.96,0 0,75.601 12.96,0 0,-75.601 z" /><g
                       transform="translate(151.83,89.364)"
                       id="g4401"><path
                         id="path4403"
                         style="fill:none;stroke:#000000;stroke-width:0.5;stroke-linecap:butt;stroke-linejoin:miter;stroke-miterlimit:4;stroke-dasharray:none;stroke-opacity:1"
                         d="M 0,0 0,6" /></g><text
                       id="text4405"
                       style="font-style:italic;font-variant:normal;font-weight:bold;font-size:8px;font-family:'Times New Roman';-inkscape-font-specification:Times-BoldItalic;writing-mode:lr-tb;fill:#000000;fill-opacity:1;fill-rule:nonzero;stroke:none"
                       transform="matrix(1,0,0,-1,149.09,80.609)"><tspan
                         id="tspan4407"
                         y="0"
                         x="0">f</tspan></text>
<text
                       id="text4409"
                       style="font-variant:normal;font-weight:bold;font-size:5.5999999px;font-family:'Times New Roman';-inkscape-font-specification:Times-Bold;writing-mode:lr-tb;fill:#000000;fill-opacity:1;fill-rule:nonzero;stroke:none"
                       transform="matrix(1,0,0,-1,151.76,78.969)"><tspan
                         id="tspan4411"
                         y="0"
                         x="0">4</tspan></text>
<text
                       id="text4413"
                       style="font-variant:normal;font-weight:bold;font-size:8px;font-family:'Times New Roman';-inkscape-font-specification:Times-Bold;writing-mode:lr-tb;fill:#000000;fill-opacity:1;fill-rule:nonzero;stroke:none"
                       transform="matrix(1,0,0,-1,149.83,167.97)"><tspan
                         id="tspan4415"
                         y="0"
                         x="0">7</tspan></text>
<path
                       id="path4417"
                       style="fill:#b9e5fb;fill-opacity:1;fill-rule:nonzero;stroke:#00aeef;stroke-width:0.5;stroke-linecap:butt;stroke-linejoin:miter;stroke-miterlimit:4;stroke-dasharray:none;stroke-opacity:1"
                       d="m 171.27,89.365 -12.959,0 0,75.601 12.959,0 0,-75.601 z" /><g
                       transform="translate(164.79,89.364)"
                       id="g4419"><path
                         id="path4421"
                         style="fill:none;stroke:#000000;stroke-width:0.5;stroke-linecap:butt;stroke-linejoin:miter;stroke-miterlimit:4;stroke-dasharray:none;stroke-opacity:1"
                         d="M 0,0 0,6" /></g><text
                       id="text4423"
                       style="font-style:italic;font-variant:normal;font-weight:bold;font-size:8px;font-family:'Times New Roman';-inkscape-font-specification:Times-BoldItalic;writing-mode:lr-tb;fill:#000000;fill-opacity:1;fill-rule:nonzero;stroke:none"
                       transform="matrix(1,0,0,-1,162.06,80.609)"><tspan
                         id="tspan4425"
                         y="0"
                         x="0">f</tspan></text>
<text
                       id="text4427"
                       style="font-variant:normal;font-weight:bold;font-size:5.5999999px;font-family:'Times New Roman';-inkscape-font-specification:Times-Bold;writing-mode:lr-tb;fill:#000000;fill-opacity:1;fill-rule:nonzero;stroke:none"
                       transform="matrix(1,0,0,-1,164.72,78.969)"><tspan
                         id="tspan4429"
                         y="0"
                         x="0">5</tspan></text>
<text
                       id="text4431"
                       style="font-variant:normal;font-weight:bold;font-size:8px;font-family:'Times New Roman';-inkscape-font-specification:Times-Bold;writing-mode:lr-tb;fill:#000000;fill-opacity:1;fill-rule:nonzero;stroke:none"
                       transform="matrix(1,0,0,-1,162.79,167.97)"><tspan
                         id="tspan4433"
                         y="0"
                         x="0">1</tspan></text>
<path
                       id="path4435"
                       style="fill:#b9e5fb;fill-opacity:1;fill-rule:nonzero;stroke:#00aeef;stroke-width:0.5;stroke-linecap:butt;stroke-linejoin:miter;stroke-miterlimit:4;stroke-dasharray:none;stroke-opacity:1"
                       d="m 184.23,89.365 -12.96,0 0,75.601 12.96,0 0,-75.601 z" /><g
                       transform="translate(177.75,89.364)"
                       id="g4437"><path
                         id="path4439"
                         style="fill:none;stroke:#000000;stroke-width:0.5;stroke-linecap:butt;stroke-linejoin:miter;stroke-miterlimit:4;stroke-dasharray:none;stroke-opacity:1"
                         d="M 0,0 0,6" /></g><text
                       id="text4441"
                       style="font-style:italic;font-variant:normal;font-weight:bold;font-size:8px;font-family:'Times New Roman';-inkscape-font-specification:Times-BoldItalic;writing-mode:lr-tb;fill:#000000;fill-opacity:1;fill-rule:nonzero;stroke:none"
                       transform="matrix(1,0,0,-1,175.01,80.609)"><tspan
                         id="tspan4443"
                         y="0"
                         x="0">f</tspan></text>
<text
                       id="text4445"
                       style="font-variant:normal;font-weight:bold;font-size:5.5999999px;font-family:'Times New Roman';-inkscape-font-specification:Times-Bold;writing-mode:lr-tb;fill:#000000;fill-opacity:1;fill-rule:nonzero;stroke:none"
                       transform="matrix(1,0,0,-1,177.68,78.969)"><tspan
                         id="tspan4447"
                         y="0"
                         x="0">6</tspan></text>
<text
                       id="text4449"
                       style="font-variant:normal;font-weight:bold;font-size:8px;font-family:'Times New Roman';-inkscape-font-specification:Times-Bold;writing-mode:lr-tb;fill:#000000;fill-opacity:1;fill-rule:nonzero;stroke:none"
                       transform="matrix(1,0,0,-1,175.75,167.97)"><tspan
                         id="tspan4451"
                         y="0"
                         x="0">4</tspan></text>
<path
                       id="path4453"
                       style="fill:#b9e5fb;fill-opacity:1;fill-rule:nonzero;stroke:#00aeef;stroke-width:0.5;stroke-linecap:butt;stroke-linejoin:miter;stroke-miterlimit:4;stroke-dasharray:none;stroke-opacity:1"
                       d="m 197.19,89.365 -12.96,0 0,75.601 12.96,0 0,-75.601 z" /><g
                       transform="translate(190.71,89.364)"
                       id="g4455"><path
                         id="path4457"
                         style="fill:none;stroke:#000000;stroke-width:0.5;stroke-linecap:butt;stroke-linejoin:miter;stroke-miterlimit:4;stroke-dasharray:none;stroke-opacity:1"
                         d="M 0,0 0,6" /></g><text
                       id="text4459"
                       style="font-style:italic;font-variant:normal;font-weight:bold;font-size:8px;font-family:'Times New Roman';-inkscape-font-specification:Times-BoldItalic;writing-mode:lr-tb;fill:#000000;fill-opacity:1;fill-rule:nonzero;stroke:none"
                       transform="matrix(1,0,0,-1,187.97,80.609)"><tspan
                         id="tspan4461"
                         y="0"
                         x="0">f</tspan></text>
<text
                       id="text4463"
                       style="font-variant:normal;font-weight:bold;font-size:5.5999999px;font-family:'Times New Roman';-inkscape-font-specification:Times-Bold;writing-mode:lr-tb;fill:#000000;fill-opacity:1;fill-rule:nonzero;stroke:none"
                       transform="matrix(1,0,0,-1,190.64,78.969)"><tspan
                         id="tspan4465"
                         y="0"
                         x="0">7</tspan></text>
<text
                       id="text4467"
                       style="font-variant:normal;font-weight:bold;font-size:8px;font-family:'Times New Roman';-inkscape-font-specification:Times-Bold;writing-mode:lr-tb;fill:#000000;fill-opacity:1;fill-rule:nonzero;stroke:none"
                       transform="matrix(1,0,0,-1,188.71,167.97)"><tspan
                         id="tspan4469"
                         y="0"
                         x="0">6</tspan></text>
<path
                       id="path4471"
                       style="fill:#b9e5fb;fill-opacity:1;fill-rule:nonzero;stroke:#00aeef;stroke-width:0.5;stroke-linecap:butt;stroke-linejoin:miter;stroke-miterlimit:4;stroke-dasharray:none;stroke-opacity:1"
                       d="m 210.15,89.365 -12.96,0 0,75.601 12.96,0 0,-75.601 z" /><g
                       transform="translate(203.67,89.364)"
                       id="g4473"><path
                         id="path4475"
                         style="fill:none;stroke:#000000;stroke-width:0.5;stroke-linecap:butt;stroke-linejoin:miter;stroke-miterlimit:4;stroke-dasharray:none;stroke-opacity:1"
                         d="M 0,0 0,6" /></g><text
                       id="text4477"
                       style="font-style:italic;font-variant:normal;font-weight:bold;font-size:8px;font-family:'Times New Roman';-inkscape-font-specification:Times-BoldItalic;writing-mode:lr-tb;fill:#000000;fill-opacity:1;fill-rule:nonzero;stroke:none"
                       transform="matrix(1,0,0,-1,200.94,80.609)"><tspan
                         id="tspan4479"
                         y="0"
                         x="0">f</tspan></text>
<text
                       id="text4481"
                       style="font-variant:normal;font-weight:bold;font-size:5.5999999px;font-family:'Times New Roman';-inkscape-font-specification:Times-Bold;writing-mode:lr-tb;fill:#000000;fill-opacity:1;fill-rule:nonzero;stroke:none"
                       transform="matrix(1,0,0,-1,203.6,78.969)"><tspan
                         id="tspan4483"
                         y="0"
                         x="0">8</tspan></text>
<text
                       id="text4485"
                       style="font-variant:normal;font-weight:bold;font-size:8px;font-family:'Times New Roman';-inkscape-font-specification:Times-Bold;writing-mode:lr-tb;fill:#000000;fill-opacity:1;fill-rule:nonzero;stroke:none"
                       transform="matrix(1,0,0,-1,201.67,167.97)"><tspan
                         id="tspan4487"
                         y="0"
                         x="0">2</tspan><tspan
                         id="tspan4489"
                         y="-17.264"
                         x="-125.464 -120.128 -115.68 -112.128 -108.656 -104.656">Energy</tspan><tspan
                         id="tspan4491"
                         y="91.848"
                         x="12.928 17.816 21.224001 24.775999 29.224001 33.672001 37.223999 41.672001 45.223999">Frequency</tspan><tspan
                         id="tspan4493"
                         y="105.232"
                         x="-82.776001 -80.112 -76.112 -73.447998 -71.447998 -65.671997 -61.223999 -57.223999 -52.776001 -48.327999 -44.776001 -42.551998 -40.551998 -36.551998 -33.439999 -30.327999 -28.104 -24.104 -19.656 -12.992 -9.4399996 -4.9920001">(a) Channel assignment</tspan></text>
<g
                       transform="translate(421.28,89.364)"
                       id="g4495"><path
                         id="path4497"
                         style="fill:none;stroke:#000000;stroke-width:0.5;stroke-linecap:butt;stroke-linejoin:miter;stroke-miterlimit:4;stroke-dasharray:none;stroke-opacity:1"
                         d="m 0,0 -140.4,0 0,117.386" /></g><g
                       transform="translate(280.88,206.24)"
                       id="g4499"><path
                         id="path4501"
                         style="fill:#000000;fill-opacity:1;fill-rule:nonzero;stroke:none"
                         d="m 0,0 -1.8,-1.1 -0.04,0.07 1.16,2.93 C -0.45,2.93 -0.23,3.95 0,4.97 0.22,3.95 0.45,2.93 0.67,1.9 L 1.84,-1.03 1.81,-1.1 0,0" /></g><g
                       transform="translate(420.77,89.364)"
                       id="g4503"><path
                         id="path4505"
                         style="fill:#000000;fill-opacity:1;fill-rule:nonzero;stroke:none"
                         d="M 0,0 -1.1,1.802 -1.03,1.843 1.9,0.676 C 2.93,0.45 3.95,0.226 4.97,0 3.95,-0.226 2.93,-0.45 1.9,-0.676 L -1.03,-1.843 -1.1,-1.812 0,0" /></g><g
                       transform="translate(286.88,102.08)"
                       id="g4507"><path
                         id="path4509"
                         style="fill:none;stroke:#000000;stroke-width:0.5;stroke-linecap:butt;stroke-linejoin:miter;stroke-miterlimit:4;stroke-dasharray:none;stroke-opacity:1"
                         d="M 0,0 -6,0" /></g><text
                       id="text4511"
                       style="font-style:italic;font-variant:normal;font-weight:bold;font-size:8px;font-family:'Times New Roman';-inkscape-font-specification:Times-BoldItalic;writing-mode:lr-tb;fill:#000000;fill-opacity:1;fill-rule:nonzero;stroke:none"
                       transform="matrix(1,0,0,-1,272.23,100.26)"><tspan
                         id="tspan4513"
                         y="0"
                         x="0">f</tspan></text>
<text
                       id="text4515"
                       style="font-variant:normal;font-weight:bold;font-size:5.5999999px;font-family:'Times New Roman';-inkscape-font-specification:Times-Bold;writing-mode:lr-tb;fill:#000000;fill-opacity:1;fill-rule:nonzero;stroke:none"
                       transform="matrix(1,0,0,-1,274.9,98.623)"><tspan
                         id="tspan4517"
                         y="0"
                         x="0">1</tspan></text>
<g
                       transform="translate(286.88,115.04)"
                       id="g4519"><path
                         id="path4521"
                         style="fill:none;stroke:#000000;stroke-width:0.5;stroke-linecap:butt;stroke-linejoin:miter;stroke-miterlimit:4;stroke-dasharray:none;stroke-opacity:1"
                         d="M 0,0 -6,0" /></g><text
                       id="text4523"
                       style="font-style:italic;font-variant:normal;font-weight:bold;font-size:8px;font-family:'Times New Roman';-inkscape-font-specification:Times-BoldItalic;writing-mode:lr-tb;fill:#000000;fill-opacity:1;fill-rule:nonzero;stroke:none"
                       transform="matrix(1,0,0,-1,272.23,113.22)"><tspan
                         id="tspan4525"
                         y="0"
                         x="0">f</tspan></text>
<text
                       id="text4527"
                       style="font-variant:normal;font-weight:bold;font-size:5.5999999px;font-family:'Times New Roman';-inkscape-font-specification:Times-Bold;writing-mode:lr-tb;fill:#000000;fill-opacity:1;fill-rule:nonzero;stroke:none"
                       transform="matrix(1,0,0,-1,274.9,111.58)"><tspan
                         id="tspan4529"
                         y="0"
                         x="0">2</tspan></text>
<g
                       transform="translate(286.88,128)"
                       id="g4531"><path
                         id="path4533"
                         style="fill:none;stroke:#000000;stroke-width:0.5;stroke-linecap:butt;stroke-linejoin:miter;stroke-miterlimit:4;stroke-dasharray:none;stroke-opacity:1"
                         d="M 0,0 -6,0" /></g><text
                       id="text4535"
                       style="font-style:italic;font-variant:normal;font-weight:bold;font-size:8px;font-family:'Times New Roman';-inkscape-font-specification:Times-BoldItalic;writing-mode:lr-tb;fill:#000000;fill-opacity:1;fill-rule:nonzero;stroke:none"
                       transform="matrix(1,0,0,-1,272.23,126.18)"><tspan
                         id="tspan4537"
                         y="0"
                         x="0">f</tspan></text>
<text
                       id="text4539"
                       style="font-variant:normal;font-weight:bold;font-size:5.5999999px;font-family:'Times New Roman';-inkscape-font-specification:Times-Bold;writing-mode:lr-tb;fill:#000000;fill-opacity:1;fill-rule:nonzero;stroke:none"
                       transform="matrix(1,0,0,-1,274.9,124.54)"><tspan
                         id="tspan4541"
                         y="0"
                         x="0">3</tspan></text>
<g
                       transform="translate(286.88,140.96)"
                       id="g4543"><path
                         id="path4545"
                         style="fill:none;stroke:#000000;stroke-width:0.5;stroke-linecap:butt;stroke-linejoin:miter;stroke-miterlimit:4;stroke-dasharray:none;stroke-opacity:1"
                         d="M 0,0 -6,0" /></g><text
                       id="text4547"
                       style="font-style:italic;font-variant:normal;font-weight:bold;font-size:8px;font-family:'Times New Roman';-inkscape-font-specification:Times-BoldItalic;writing-mode:lr-tb;fill:#000000;fill-opacity:1;fill-rule:nonzero;stroke:none"
                       transform="matrix(1,0,0,-1,272.23,139.14)"><tspan
                         id="tspan4549"
                         y="0"
                         x="0">f</tspan></text>
<text
                       id="text4551"
                       style="font-variant:normal;font-weight:bold;font-size:5.5999999px;font-family:'Times New Roman';-inkscape-font-specification:Times-Bold;writing-mode:lr-tb;fill:#000000;fill-opacity:1;fill-rule:nonzero;stroke:none"
                       transform="matrix(1,0,0,-1,274.9,137.5)"><tspan
                         id="tspan4553"
                         y="0"
                         x="0">4</tspan></text>
<g
                       transform="translate(286.88,153.92)"
                       id="g4555"><path
                         id="path4557"
                         style="fill:none;stroke:#000000;stroke-width:0.5;stroke-linecap:butt;stroke-linejoin:miter;stroke-miterlimit:4;stroke-dasharray:none;stroke-opacity:1"
                         d="M 0,0 -6,0" /></g><text
                       id="text4559"
                       style="font-style:italic;font-variant:normal;font-weight:bold;font-size:8px;font-family:'Times New Roman';-inkscape-font-specification:Times-BoldItalic;writing-mode:lr-tb;fill:#000000;fill-opacity:1;fill-rule:nonzero;stroke:none"
                       transform="matrix(1,0,0,-1,272.23,152.1)"><tspan
                         id="tspan4561"
                         y="0"
                         x="0">f</tspan></text>
<text
                       id="text4563"
                       style="font-variant:normal;font-weight:bold;font-size:5.5999999px;font-family:'Times New Roman';-inkscape-font-specification:Times-Bold;writing-mode:lr-tb;fill:#000000;fill-opacity:1;fill-rule:nonzero;stroke:none"
                       transform="matrix(1,0,0,-1,274.9,150.46)"><tspan
                         id="tspan4565"
                         y="0"
                         x="0">5</tspan></text>
<g
                       transform="translate(286.88,166.88)"
                       id="g4567"><path
                         id="path4569"
                         style="fill:none;stroke:#000000;stroke-width:0.5;stroke-linecap:butt;stroke-linejoin:miter;stroke-miterlimit:4;stroke-dasharray:none;stroke-opacity:1"
                         d="M 0,0 -6,0" /></g><text
                       id="text4571"
                       style="font-style:italic;font-variant:normal;font-weight:bold;font-size:8px;font-family:'Times New Roman';-inkscape-font-specification:Times-BoldItalic;writing-mode:lr-tb;fill:#000000;fill-opacity:1;fill-rule:nonzero;stroke:none"
                       transform="matrix(1,0,0,-1,272.23,165.06)"><tspan
                         id="tspan4573"
                         y="0"
                         x="0">f</tspan></text>
<text
                       id="text4575"
                       style="font-variant:normal;font-weight:bold;font-size:5.5999999px;font-family:'Times New Roman';-inkscape-font-specification:Times-Bold;writing-mode:lr-tb;fill:#000000;fill-opacity:1;fill-rule:nonzero;stroke:none"
                       transform="matrix(1,0,0,-1,274.9,163.42)"><tspan
                         id="tspan4577"
                         y="0"
                         x="0">6</tspan></text>
<g
                       transform="translate(286.88,179.84)"
                       id="g4579"><path
                         id="path4581"
                         style="fill:none;stroke:#000000;stroke-width:0.5;stroke-linecap:butt;stroke-linejoin:miter;stroke-miterlimit:4;stroke-dasharray:none;stroke-opacity:1"
                         d="M 0,0 -6,0" /></g><text
                       id="text4583"
                       style="font-style:italic;font-variant:normal;font-weight:bold;font-size:8px;font-family:'Times New Roman';-inkscape-font-specification:Times-BoldItalic;writing-mode:lr-tb;fill:#000000;fill-opacity:1;fill-rule:nonzero;stroke:none"
                       transform="matrix(1,0,0,-1,272.23,178.02)"><tspan
                         id="tspan4585"
                         y="0"
                         x="0">f</tspan></text>
<text
                       id="text4587"
                       style="font-variant:normal;font-weight:bold;font-size:5.5999999px;font-family:'Times New Roman';-inkscape-font-specification:Times-Bold;writing-mode:lr-tb;fill:#000000;fill-opacity:1;fill-rule:nonzero;stroke:none"
                       transform="matrix(1,0,0,-1,274.9,176.38)"><tspan
                         id="tspan4589"
                         y="0"
                         x="0">7</tspan></text>
<g
                       transform="translate(286.88,192.8)"
                       id="g4591"><path
                         id="path4593"
                         style="fill:none;stroke:#000000;stroke-width:0.5;stroke-linecap:butt;stroke-linejoin:miter;stroke-miterlimit:4;stroke-dasharray:none;stroke-opacity:1"
                         d="M 0,0 -6,0" /></g><text
                       id="text4595"
                       style="font-style:italic;font-variant:normal;font-weight:bold;font-size:8px;font-family:'Times New Roman';-inkscape-font-specification:Times-BoldItalic;writing-mode:lr-tb;fill:#000000;fill-opacity:1;fill-rule:nonzero;stroke:none"
                       transform="matrix(1,0,0,-1,272.23,190.98)"><tspan
                         id="tspan4597"
                         y="0"
                         x="0">f</tspan></text>
<text
                       id="text4599"
                       style="font-variant:normal;font-weight:bold;font-size:5.5999999px;font-family:'Times New Roman';-inkscape-font-specification:Times-Bold;writing-mode:lr-tb;fill:#000000;fill-opacity:1;fill-rule:nonzero;stroke:none"
                       transform="matrix(1,0,0,-1,274.9,189.34)"><tspan
                         id="tspan4601"
                         y="0"
                         x="0">8</tspan></text>
<text
                       id="text4603"
                       style="font-variant:normal;font-weight:bold;font-size:8px;font-family:'Times New Roman';-inkscape-font-specification:Times-Bold;writing-mode:lr-tb;fill:#000000;fill-opacity:1;fill-rule:nonzero;stroke:none"
                       transform="matrix(1,0,0,-1,262.73,216.21)"><tspan
                         id="tspan4605"
                         y="0"
                         x="0 4.888 8.2959995 11.848 16.296 20.743999 24.296 28.743999 32.296001">Frequency</tspan><tspan
                         id="tspan4607"
                         y="140.09599"
                         x="146.90401 152.09599 154.32001 160.98399">Time</tspan><tspan
                         id="tspan4609"
                         y="153.48"
                         x="62.768002 65.431999 69.879997 72.543999 74.543999 80.32 84.767998 88.767998 93.216003 97.664001 101.216 103.44 105.44 109.888 113">(b) Channel use</tspan></text>
<path
                       id="path4611"
                       style="fill:#b9e5fb;fill-opacity:1;fill-rule:nonzero;stroke:#00aeef;stroke-width:0.5;stroke-linecap:butt;stroke-linejoin:miter;stroke-miterlimit:4;stroke-dasharray:none;stroke-opacity:1"
                       d="m 298.16,147.43 -17.279,0 0,12.961 17.279,0 0,-12.961 z" /><path
                       id="path4613"
                       style="fill:#b9e5fb;fill-opacity:1;fill-rule:nonzero;stroke:#00aeef;stroke-width:0.5;stroke-linecap:butt;stroke-linejoin:miter;stroke-miterlimit:4;stroke-dasharray:none;stroke-opacity:1"
                       d="m 315.43,186.31 -17.28,0 0,12.961 17.28,0 0,-12.961 z" /><path
                       id="path4615"
                       style="fill:#b9e5fb;fill-opacity:1;fill-rule:nonzero;stroke:#00aeef;stroke-width:0.5;stroke-linecap:butt;stroke-linejoin:miter;stroke-miterlimit:4;stroke-dasharray:none;stroke-opacity:1"
                       d="m 332.7,121.51 -17.279,0 0,12.96 17.279,0 0,-12.96 z" /><path
                       id="path4617"
                       style="fill:#b9e5fb;fill-opacity:1;fill-rule:nonzero;stroke:#00aeef;stroke-width:0.5;stroke-linecap:butt;stroke-linejoin:miter;stroke-miterlimit:4;stroke-dasharray:none;stroke-opacity:1"
                       d="m 349.99,173.35 -17.28,0 0,12.96 17.28,0 0,-12.96 z" /><path
                       id="path4619"
                       style="fill:#b9e5fb;fill-opacity:1;fill-rule:nonzero;stroke:#00aeef;stroke-width:0.5;stroke-linecap:butt;stroke-linejoin:miter;stroke-miterlimit:4;stroke-dasharray:none;stroke-opacity:1"
                       d="m 367.27,95.592 -17.28,0 0,12.96 17.28,0 0,-12.96 z" /><path
                       id="path4621"
                       style="fill:#b9e5fb;fill-opacity:1;fill-rule:nonzero;stroke:#00aeef;stroke-width:0.5;stroke-linecap:butt;stroke-linejoin:miter;stroke-miterlimit:4;stroke-dasharray:none;stroke-opacity:1"
                       d="m 384.55,134.47 -17.279,0 0,12.96 17.279,0 0,-12.96 z" /><path
                       id="path4623"
                       style="fill:#b9e5fb;fill-opacity:1;fill-rule:nonzero;stroke:#00aeef;stroke-width:0.5;stroke-linecap:butt;stroke-linejoin:miter;stroke-miterlimit:4;stroke-dasharray:none;stroke-opacity:1"
                       d="m 401.83,160.39 -17.28,0 0,12.959 17.28,0 0,-12.959 z" /><path
                       id="path4625"
                       style="fill:#b9e5fb;fill-opacity:1;fill-rule:nonzero;stroke:#00aeef;stroke-width:0.5;stroke-linecap:butt;stroke-linejoin:miter;stroke-miterlimit:4;stroke-dasharray:none;stroke-opacity:1"
                       d="m 419.11,108.55 -17.279,0 0,12.96 17.279,0 0,-12.96 z" /></g></g></g></g></g></g></g></g><g
       id="g4659"><g
         clip-path="url(#clipPath4663)"
         id="g4661"><g
           transform="translate(-17.28,702)"
           id="g4667"><path
             id="path4669"
             style="fill:none;stroke:#ffffff;stroke-width:0.5;stroke-linecap:butt;stroke-linejoin:miter;stroke-miterlimit:10;stroke-dasharray:none;stroke-opacity:1"
             d="m 0,0 0,-24 m -36,-12 24,0 m 516,36 0,-24 m 36,-12 -24,0 M 0,-738 l 0,24 m -36,12 24,0 m 516,-36 0,24 m 36,12 -24,0" /></g><g
           transform="translate(-17.28,702)"
           id="g4671"><path
             id="path4673"
             style="fill:none;stroke:#000000;stroke-width:0.25;stroke-linecap:butt;stroke-linejoin:miter;stroke-miterlimit:10;stroke-dasharray:none;stroke-opacity:1"
             d="m 0,0 0,-24 m -36,-12 24,0 m 516,36 0,-24 m 36,-12 -24,0 M 0,-738 l 0,24 m -36,12 24,0 m 516,-36 0,24 m 36,12 -24,0" /></g><g
           transform="translate(210.72,690)"
           id="g4675"><path
             id="path4677"
             style="fill:none;stroke:#ffffff;stroke-width:0.5;stroke-linecap:butt;stroke-linejoin:miter;stroke-miterlimit:10;stroke-dasharray:none;stroke-opacity:1"
             d="m 0,0 48,0 m -48,-714 48,0 m -300,381 0,-48 m 552,48 0,-48 M 24,12 24,-12 m 0,-690 0,-24 m -288,369 24,0 m 528,0 24,0 M 24,0 30,0 c 0,-3.31 -2.69,-6 -6,-6 -3.31,0 -6,2.69 -6,6 0,3.31 2.69,6 6,6 3.31,0 6,-2.69 6,-6 m -6,-714 6,0 c 0,-3.312 -2.69,-6 -6,-6 -3.31,0 -6,2.688 -6,6 0,3.312 2.69,6 6,6 3.31,0 6,-2.688 6,-6 m -282,357 6,0 c 0,-3.31 -2.688,-6 -6,-6 -3.312,0 -6,2.69 -6,6 0,3.31 2.688,6 6,6 3.312,0 6,-2.69 6,-6 m 546,0 6,0 c 0,-3.31 -2.69,-6 -6,-6 -3.31,0 -6,2.69 -6,6 0,3.31 2.69,6 6,6 3.31,0 6,-2.69 6,-6" /></g><g
           transform="translate(210.72,690)"
           id="g4679"><path
             id="path4681"
             style="fill:none;stroke:#000000;stroke-width:0.25;stroke-linecap:butt;stroke-linejoin:miter;stroke-miterlimit:10;stroke-dasharray:none;stroke-opacity:1"
             d="m 0,0 48,0 m -48,-714 48,0 m -300,381 0,-48 m 552,48 0,-48 M 24,12 24,-12 m 0,-690 0,-24 m -288,369 24,0 m 528,0 24,0 M 24,0 30,0 c 0,-3.31 -2.69,-6 -6,-6 -3.31,0 -6,2.69 -6,6 0,3.31 2.69,6 6,6 3.31,0 6,-2.69 6,-6 m -6,-714 6,0 c 0,-3.312 -2.69,-6 -6,-6 -3.31,0 -6,2.688 -6,6 0,3.312 2.69,6 6,6 3.31,0 6,-2.688 6,-6 m -282,357 6,0 c 0,-3.31 -2.688,-6 -6,-6 -3.312,0 -6,2.69 -6,6 0,3.31 2.688,6 6,6 3.312,0 6,-2.69 6,-6 m 546,0 6,0 c 0,-3.31 -2.69,-6 -6,-6 -3.31,0 -6,2.69 -6,6 0,3.31 2.69,6 6,6 3.31,0 6,-2.69 6,-6" /></g></g></g></g></svg>