<?xml version="1.0" standalone="yes"?>

<svg version="1.1" viewBox="0.0 0.0 927.5826771653543 927.6062992125984" fill="none" stroke="none" stroke-linecap="square" stroke-miterlimit="10" xmlns="http://www.w3.org/2000/svg" xmlns:xlink="http://www.w3.org/1999/xlink"><clipPath id="p.0"><path d="m0 0l927.5827 0l0 927.6063l-927.5827 0l0 -927.6063z" clip-rule="nonzero"></path></clipPath><g clip-path="url(#p.0)"><path fill="#000000" fill-opacity="0.0" d="m0 0l927.5827 0l0 927.6063l-927.5827 0z" fill-rule="nonzero"></path><path fill="#cfe2f3" d="m84.973755 106.38976l79.46457 0l0 72.125984l-79.46457 0z" fill-rule="nonzero"></path><path stroke="#000000" stroke-width="1.0" stroke-linejoin="round" stroke-linecap="butt" d="m84.973755 106.38976l79.46457 0l0 72.125984l-79.46457 0z" fill-rule="nonzero"></path><path fill="#1c4587" d="m115.534164 129.41463l0 7.078125l-2.1875 0l0 -17.140625l4.171875 0q3.125 0 4.609375 1.21875q1.484375 1.203125 1.484375 3.65625q0 1.015625 -0.28125 1.78125q-0.28125 0.75 -0.765625 1.296875q-0.46875 0.546875 -1.078125 0.921875q-0.609375 0.359375 -1.25 0.59375l4.65625 7.671875l-2.5625 0l-4.109375 -7.078125l-2.6875 0zm0 -1.859375l1.921875 0q1.046875 0 1.78125 -0.203125q0.75 -0.203125 1.21875 -0.609375q0.484375 -0.40625 0.6875 -1.0q0.21875 -0.609375 0.21875 -1.421875q0 -0.84375 -0.234375 -1.421875q-0.234375 -0.59375 -0.734375 -0.96875q-0.484375 -0.375 -1.234375 -0.53125q-0.734375 -0.171875 -1.75 -0.171875l-1.875 0l0 6.328125zm21.734375 0.34375q0 2.078125 -0.296875 3.71875q-0.296875 1.640625 -0.96875 2.78125q-0.65625 1.125 -1.703125 1.734375q-1.03125 0.59375 -2.53125 0.59375q-1.375 0 -2.40625 -0.59375q-1.015625 -0.609375 -1.703125 -1.734375q-0.671875 -1.140625 -1.0 -2.78125q-0.328125 -1.640625 -0.328125 -3.71875q0 -2.078125 0.296875 -3.71875q0.296875 -1.640625 0.9375 -2.765625q0.65625 -1.125 1.6875 -1.71875q1.046875 -0.609375 2.515625 -0.609375q1.40625 0 2.4375 0.59375q1.03125 0.59375 1.703125 1.734375q0.6875 1.125 1.015625 2.765625q0.34375 1.640625 0.34375 3.71875zm-8.78125 0q0 1.765625 0.171875 3.078125q0.1875 1.3125 0.5625 2.1875q0.390625 0.859375 1.015625 1.3125q0.640625 0.4375 1.53125 0.4375q0.90625 0 1.53125 -0.4375q0.640625 -0.4375 1.046875 -1.296875q0.40625 -0.875 0.578125 -2.1875q0.1875 -1.328125 0.1875 -3.09375q0 -1.75 -0.1875 -3.0625q-0.171875 -1.3125 -0.578125 -2.171875q-0.40625 -0.875 -1.046875 -1.3125q-0.625 -0.4375 -1.53125 -0.4375q-0.890625 0 -1.53125 0.4375q-0.625 0.4375 -1.015625 1.3125q-0.375 0.859375 -0.5625 2.171875q-0.171875 1.3125 -0.171875 3.0625z" fill-rule="nonzero"></path><path fill="#1c4587" d="m126.42479 165.49275l-2.0625 0l0 -10.703125q0 -0.5 0 -1.078125q0.015625 -0.578125 0.03125 -1.140625q0.015625 -0.5625 0.03125 -1.078125q0.03125 -0.53125 0.03125 -0.9375q-0.1875 0.21875 -0.34375 0.375q-0.15625 0.140625 -0.3125 0.28125q-0.15625 0.140625 -0.34375 0.3125q-0.171875 0.15625 -0.40625 0.359375l-1.734375 1.421875l-1.125 -1.4375l4.484375 -3.515625l1.75 0l0 17.140625z" fill-rule="nonzero"></path><path fill="#cfe2f3" d="m293.9553 106.38976l79.46457 0l0 72.125984l-79.46457 0z" fill-rule="nonzero"></path><path stroke="#000000" stroke-width="1.0" stroke-linejoin="round" stroke-linecap="butt" d="m293.9553 106.38976l79.46457 0l0 72.125984l-79.46457 0z" fill-rule="nonzero"></path><path fill="#1c4587" d="m324.51572 129.41463l0 7.078125l-2.1875 0l0 -17.140625l4.171875 0q3.125 0 4.609375 1.21875q1.484375 1.203125 1.484375 3.65625q0 1.015625 -0.28125 1.78125q-0.28125 0.75 -0.765625 1.296875q-0.46875 0.546875 -1.078125 0.921875q-0.609375 0.359375 -1.25 0.59375l4.65625 7.671875l-2.5625 0l-4.109375 -7.078125l-2.6875 0zm0 -1.859375l1.921875 0q1.046875 0 1.78125 -0.203125q0.75 -0.203125 1.21875 -0.609375q0.484375 -0.40625 0.6875 -1.0q0.21875 -0.609375 0.21875 -1.421875q0 -0.84375 -0.234375 -1.421875q-0.234375 -0.59375 -0.734375 -0.96875q-0.484375 -0.375 -1.234375 -0.53125q-0.734375 -0.171875 -1.75 -0.171875l-1.875 0l0 6.328125zm17.96875 8.9375l-2.0625 0l0 -10.703125q0 -0.5 0 -1.078125q0.015625 -0.578125 0.03125 -1.140625q0.015625 -0.5625 0.03125 -1.078125q0.03125 -0.53125 0.03125 -0.9375q-0.1875 0.21875 -0.34375 0.375q-0.15625 0.140625 -0.3125 0.28125q-0.15625 0.140625 -0.34375 0.3125q-0.171875 0.15625 -0.40625 0.359375l-1.734375 1.421875l-1.125 -1.4375l4.484375 -3.515625l1.75 0l0 17.140625z" fill-rule="nonzero"></path><path fill="#1c4587" d="m335.40634 165.49275l-2.0625 0l0 -10.703125q0 -0.5 0 -1.078125q0.015625 -0.578125 0.03125 -1.140625q0.015625 -0.5625 0.03125 -1.078125q0.03125 -0.53125 0.03125 -0.9375q-0.1875 0.21875 -0.34375 0.375q-0.15625 0.140625 -0.3125 0.28125q-0.15625 0.140625 -0.34375 0.3125q-0.171875 0.15625 -0.40625 0.359375l-1.734375 1.421875l-1.125 -1.4375l4.484375 -3.515625l1.75 0l0 17.140625z" fill-rule="nonzero"></path><path fill="#cfe2f3" d="m502.9371 106.38976l70.456696 0l0 72.125984l-70.456696 0z" fill-rule="nonzero"></path><path stroke="#000000" stroke-width="1.0" stroke-linejoin="round" stroke-linecap="butt" d="m502.9371 106.38976l70.456696 0l0 72.125984l-70.456696 0z" fill-rule="nonzero"></path><path fill="#1c4587" d="m528.9936 129.41463l0 7.078125l-2.1875 0l0 -17.140625l4.171875 0q3.125 0 4.609375 1.21875q1.484375 1.203125 1.484375 3.65625q0 1.015625 -0.28125 1.78125q-0.28125 0.75 -0.765625 1.296875q-0.46875 0.546875 -1.078125 0.921875q-0.609375 0.359375 -1.25 0.59375l4.65625 7.671875l-2.5625 0l-4.109375 -7.078125l-2.6875 0zm0 -1.859375l1.921875 0q1.046875 0 1.78125 -0.203125q0.75 -0.203125 1.21875 -0.609375q0.484375 -0.40625 0.6875 -1.0q0.21875 -0.609375 0.21875 -1.421875q0 -0.84375 -0.234375 -1.421875q-0.234375 -0.59375 -0.734375 -0.96875q-0.484375 -0.375 -1.234375 -0.53125q-0.734375 -0.171875 -1.75 -0.171875l-1.875 0l0 6.328125zm21.453125 8.9375l-10.6875 0l0 -1.828125l4.109375 -4.46875q0.875 -0.953125 1.5625 -1.734375q0.6875 -0.78125 1.171875 -1.53125q0.5 -0.75 0.75 -1.5q0.265625 -0.765625 0.265625 -1.65625q0 -0.6875 -0.203125 -1.21875q-0.203125 -0.53125 -0.578125 -0.890625q-0.359375 -0.375 -0.875 -0.5625q-0.5 -0.1875 -1.109375 -0.1875q-1.125 0 -2.015625 0.453125q-0.890625 0.453125 -1.703125 1.15625l-1.203125 -1.390625q0.46875 -0.421875 1.0 -0.796875q0.546875 -0.375 1.171875 -0.640625q0.625 -0.265625 1.3125 -0.421875q0.6875 -0.15625 1.453125 -0.15625q1.125 0 2.03125 0.3125q0.90625 0.3125 1.53125 0.90625q0.640625 0.59375 0.984375 1.453125q0.359375 0.84375 0.359375 1.90625q0 1.0 -0.3125 1.90625q-0.3125 0.890625 -0.859375 1.765625q-0.546875 0.875 -1.3125 1.75q-0.75 0.875 -1.625 1.828125l-3.296875 3.5l0 0.09375l8.078125 0l0 1.953125z" fill-rule="nonzero"></path><path fill="#1c4587" d="m539.8842 165.49275l-2.0625 0l0 -10.703125q0 -0.5 0 -1.078125q0.015625 -0.578125 0.03125 -1.140625q0.015625 -0.5625 0.03125 -1.078125q0.03125 -0.53125 0.03125 -0.9375q-0.1875 0.21875 -0.34375 0.375q-0.15625 0.140625 -0.3125 0.28125q-0.15625 0.140625 -0.34375 0.3125q-0.171875 0.15625 -0.40625 0.359375l-1.734375 1.421875l-1.125 -1.4375l4.484375 -3.515625l1.75 0l0 17.140625z" fill-rule="nonzero"></path><path fill="#cfe2f3" d="m702.39105 106.38976l70.456726 0l0 72.125984l-70.456726 0z" fill-rule="nonzero"></path><path stroke="#000000" stroke-width="1.0" stroke-linejoin="round" stroke-linecap="butt" d="m702.39105 106.38976l70.456726 0l0 72.125984l-70.456726 0z" fill-rule="nonzero"></path><path fill="#1c4587" d="m728.4476 129.41463l0 7.078125l-2.1875 0l0 -17.140625l4.171875 0q3.125 0 4.609375 1.21875q1.484375 1.203125 1.484375 3.65625q0 1.015625 -0.28125 1.78125q-0.28125 0.75 -0.765625 1.296875q-0.46875 0.546875 -1.078125 0.921875q-0.609375 0.359375 -1.25 0.59375l4.65625 7.671875l-2.5625 0l-4.109375 -7.078125l-2.6875 0zm0 -1.859375l1.921875 0q1.046875 0 1.78125 -0.203125q0.75 -0.203125 1.21875 -0.609375q0.484375 -0.40625 0.6875 -1.0q0.21875 -0.609375 0.21875 -1.421875q0 -0.84375 -0.234375 -1.421875q-0.234375 -0.59375 -0.734375 -0.96875q-0.484375 -0.375 -1.234375 -0.53125q-0.734375 -0.171875 -1.75 -0.171875l-1.875 0l0 6.328125zm20.90625 -4.1875q0 0.859375 -0.28125 1.5625q-0.265625 0.703125 -0.75 1.21875q-0.484375 0.515625 -1.171875 0.84375q-0.671875 0.328125 -1.5 0.46875l0 0.078125q2.078125 0.25 3.15625 1.3125q1.078125 1.0625 1.078125 2.765625q0 1.125 -0.390625 2.0625q-0.375 0.9375 -1.15625 1.625q-0.765625 0.671875 -1.953125 1.046875q-1.1875 0.375 -2.796875 0.375q-1.28125 0 -2.421875 -0.203125q-1.125 -0.203125 -2.109375 -0.71875l0 -2.0q1.015625 0.546875 2.203125 0.84375q1.1875 0.28125 2.28125 0.28125q1.078125 0 1.859375 -0.234375q0.78125 -0.234375 1.296875 -0.65625q0.515625 -0.4375 0.75 -1.0625q0.234375 -0.640625 0.234375 -1.4375q0 -0.796875 -0.3125 -1.359375q-0.296875 -0.5625 -0.875 -0.9375q-0.578125 -0.375 -1.40625 -0.546875q-0.828125 -0.171875 -1.859375 -0.171875l-1.5625 0l0 -1.765625l1.5625 0q0.9375 0 1.671875 -0.234375q0.75 -0.234375 1.25 -0.671875q0.5 -0.4375 0.75 -1.03125q0.265625 -0.59375 0.265625 -1.3125q0 -0.609375 -0.21875 -1.09375q-0.203125 -0.484375 -0.59375 -0.8125q-0.390625 -0.328125 -0.9375 -0.5q-0.53125 -0.1875 -1.1875 -0.1875q-1.25 0 -2.203125 0.390625q-0.953125 0.390625 -1.828125 1.03125l-1.078125 -1.46875q0.453125 -0.359375 0.984375 -0.671875q0.546875 -0.328125 1.1875 -0.5625q0.65625 -0.234375 1.390625 -0.375q0.734375 -0.140625 1.546875 -0.140625q1.265625 0 2.21875 0.3125q0.953125 0.3125 1.59375 0.890625q0.65625 0.5625 0.984375 1.34375q0.328125 0.78125 0.328125 1.703125z" fill-rule="nonzero"></path><path fill="#1c4587" d="m739.3382 165.49275l-2.0625 0l0 -10.703125q0 -0.5 0 -1.078125q0.015625 -0.578125 0.03125 -1.140625q0.015625 -0.5625 0.03125 -1.078125q0.03125 -0.53125 0.03125 -0.9375q-0.1875 0.21875 -0.34375 0.375q-0.15625 0.140625 -0.3125 0.28125q-0.15625 0.140625 -0.34375 0.3125q-0.171875 0.15625 -0.40625 0.359375l-1.734375 1.421875l-1.125 -1.4375l4.484375 -3.515625l1.75 0l0 17.140625z" fill-rule="nonzero"></path><path fill="#000000" fill-opacity="0.0" d="m164.43832 142.45276l129.51181 0" fill-rule="nonzero"></path><path stroke="#000000" stroke-width="2.0" stroke-linejoin="round" stroke-linecap="butt" d="m164.43832 142.45276l117.51181 0" fill-rule="evenodd"></path><path fill="#000000" stroke="#000000" stroke-width="2.0" stroke-linecap="butt" d="m281.95013 145.75623l9.076202 -3.3034668l-9.076202 -3.3034668z" fill-rule="evenodd"></path><path fill="#000000" fill-opacity="0.0" d="m373.41986 142.45276l129.51181 0" fill-rule="nonzero"></path><path stroke="#000000" stroke-width="2.0" stroke-linejoin="round" stroke-linecap="butt" d="m373.41986 142.45276l117.51181 0" fill-rule="evenodd"></path><path fill="#000000" stroke="#000000" stroke-width="2.0" stroke-linecap="butt" d="m490.93167 145.75623l9.076202 -3.3034668l-9.076202 -3.3034668z" fill-rule="evenodd"></path><path fill="#000000" fill-opacity="0.0" d="m573.3938 142.45276l129.00787 0" fill-rule="nonzero"></path><path stroke="#000000" stroke-width="2.0" stroke-linejoin="round" stroke-linecap="butt" d="m573.3938 142.45276l117.00787 0" fill-rule="evenodd"></path><path fill="#000000" stroke="#000000" stroke-width="2.0" stroke-linecap="butt" d="m690.4017 145.75623l9.076172 -3.3034668l-9.076172 -3.3034668z" fill-rule="evenodd"></path><path fill="#000000" fill-opacity="0.0" d="m772.8478 142.45276l53.51178 0" fill-rule="nonzero"></path><path stroke="#000000" stroke-width="2.0" stroke-linejoin="round" stroke-linecap="butt" d="m772.8478 142.45276l53.51178 0" fill-rule="nonzero"></path><path fill="#000000" fill-opacity="0.0" d="m827.00494 144.99606l0 -121.921265" fill-rule="nonzero"></path><path stroke="#000000" stroke-width="2.0" stroke-linejoin="round" stroke-linecap="butt" d="m827.00494 144.99606l0 -121.921265" fill-rule="nonzero"></path><path fill="#000000" fill-opacity="0.0" d="m629.1417 24.32021l-616.34644 0" fill-rule="nonzero"></path><path stroke="#000000" stroke-width="2.0" stroke-linejoin="round" stroke-linecap="butt" d="m629.1417 24.32021l-616.34644 0" fill-rule="nonzero"></path><path fill="#000000" fill-opacity="0.0" d="m13.549888 23.893702l0 120.28347" fill-rule="nonzero"></path><path stroke="#000000" stroke-width="2.0" stroke-linejoin="round" stroke-linecap="butt" d="m13.549888 23.893702l0 120.28347" fill-rule="nonzero"></path><path fill="#000000" fill-opacity="0.0" d="m14.51706 142.0433l70.456696 0.40945435" fill-rule="nonzero"></path><path stroke="#000000" stroke-width="2.0" stroke-linejoin="round" stroke-linecap="butt" d="m14.51706 142.0433l58.4569 0.33970642" fill-rule="evenodd"></path><path fill="#000000" stroke="#000000" stroke-width="2.0" stroke-linecap="butt" d="m72.95476 145.68643l9.095238 -3.2506714l-9.056839 -3.3561554z" fill-rule="evenodd"></path><path fill="#000000" fill-opacity="0.0" d="m828.56433 23.922573l-199.65356 0" fill-rule="nonzero"></path><path stroke="#000000" stroke-width="2.0" stroke-linejoin="round" stroke-linecap="butt" d="m828.56433 23.922573l-187.65356 0" fill-rule="evenodd"></path><path fill="#000000" stroke="#000000" stroke-width="2.0" stroke-linecap="butt" d="m640.91077 20.619108l-9.076172 3.303465l9.076172 3.303465z" fill-rule="evenodd"></path><path fill="#cfe2f3" d="m607.9029 142.25328l0 0c0 11.602325 9.405518 21.007874 21.007874 21.007874l0 0c5.5716553 0 10.915039 -2.2133179 14.854797 -6.153061c3.9397583 -3.939743 6.153076 -9.283173 6.153076 -14.854813l0 0c0 -11.602325 -9.405579 -21.007874 -21.007874 -21.007874l0 0c-11.602356 0 -21.007874 9.405548 -21.007874 21.007874z" fill-rule="nonzero"></path><path fill="#000000" fill-opacity="0.0" d="m628.91077 163.26115l0 -42.015747m-21.007874 21.007874l42.015747 0" fill-rule="nonzero"></path><path fill="#000000" fill-opacity="0.0" d="m607.9029 142.25328l0 0c0 11.602325 9.405518 21.007874 21.007874 21.007874l0 0c5.5716553 0 10.915039 -2.2133179 14.854797 -6.153061c3.9397583 -3.939743 6.153076 -9.283173 6.153076 -14.854813l0 0c0 -11.602325 -9.405579 -21.007874 -21.007874 -21.007874l0 0c-11.602356 0 -21.007874 9.405548 -21.007874 21.007874z" fill-rule="nonzero"></path><path stroke="#000000" stroke-width="1.0" stroke-linejoin="round" stroke-linecap="butt" d="m628.91077 163.26115l0 -42.015747m-21.007874 21.007874l42.015747 0" fill-rule="nonzero"></path><path stroke="#000000" stroke-width="1.0" stroke-linejoin="round" stroke-linecap="butt" d="m607.9029 142.25328l0 0c0 11.602325 9.405518 21.007874 21.007874 21.007874l0 0c5.5716553 0 10.915039 -2.2133179 14.854797 -6.153061c3.9397583 -3.939743 6.153076 -9.283173 6.153076 -14.854813l0 0c0 -11.602325 -9.405579 -21.007874 -21.007874 -21.007874l0 0c-11.602356 0 -21.007874 9.405548 -21.007874 21.007874z" fill-rule="nonzero"></path><path fill="#000000" fill-opacity="0.0" d="m628.91077 121.24541l0 -98.17323" fill-rule="nonzero"></path><path stroke="#000000" stroke-width="2.0" stroke-linejoin="round" stroke-linecap="butt" d="m628.91077 109.24541l0 -86.17323" fill-rule="evenodd"></path><path fill="#000000" stroke="#000000" stroke-width="2.0" stroke-linecap="butt" d="m625.6073 109.24541l3.3034668 9.076195l3.3034668 -9.076195z" fill-rule="evenodd"></path><path fill="#cfe2f3" d="m86.69554 343.9042l79.46457 0l0 72.12598l-79.46457 0z" fill-rule="nonzero"></path><path stroke="#000000" stroke-width="1.0" stroke-linejoin="round" stroke-linecap="butt" d="m86.69554 343.9042l79.46457 0l0 72.12598l-79.46457 0z" fill-rule="nonzero"></path><path fill="#1c4587" d="m117.25594 366.92908l0 7.078125l-2.1875 0l0 -17.140625l4.1718826 0q3.125 0 4.609375 1.21875q1.484375 1.203125 1.484375 3.65625q0 1.015625 -0.28125 1.78125q-0.28125 0.75 -0.765625 1.296875q-0.46875 0.546875 -1.078125 0.921875q-0.609375 0.359375 -1.25 0.59375l4.65625 7.671875l-2.5625 0l-4.109375 -7.078125l-2.6875076 0zm0 -1.859375l1.9218826 0q1.046875 0 1.78125 -0.203125q0.75 -0.203125 1.21875 -0.609375q0.484375 -0.40625 0.6875 -1.0q0.21875 -0.609375 0.21875 -1.421875q0 -0.84375 -0.234375 -1.421875q-0.234375 -0.59375 -0.734375 -0.96875q-0.484375 -0.375 -1.234375 -0.53125q-0.734375 -0.171875 -1.75 -0.171875l-1.8750076 0l0 6.328125zm21.734383 0.34375q0 2.078125 -0.296875 3.71875q-0.296875 1.640625 -0.96875 2.78125q-0.65625 1.125 -1.703125 1.734375q-1.03125 0.59375 -2.53125 0.59375q-1.375 0 -2.40625 -0.59375q-1.015625 -0.609375 -1.703125 -1.734375q-0.671875 -1.140625 -1.0 -2.78125q-0.328125 -1.640625 -0.328125 -3.71875q0 -2.078125 0.296875 -3.71875q0.296875 -1.640625 0.9375 -2.765625q0.65625 -1.125 1.6875 -1.71875q1.046875 -0.609375 2.515625 -0.609375q1.40625 0 2.4375 0.59375q1.03125 0.59375 1.703125 1.734375q0.6875 1.125 1.015625 2.765625q0.34375 1.640625 0.34375 3.71875zm-8.78125 0q0 1.765625 0.171875 3.078125q0.1875 1.3125 0.5625 2.1875q0.390625 0.859375 1.015625 1.3125q0.640625 0.4375 1.53125 0.4375q0.90625 0 1.53125 -0.4375q0.640625 -0.4375 1.046875 -1.296875q0.40625 -0.875 0.578125 -2.1875q0.1875 -1.328125 0.1875 -3.09375q0 -1.75 -0.1875 -3.0625q-0.171875 -1.3125 -0.578125 -2.171875q-0.40625 -0.875 -1.046875 -1.3125q-0.625 -0.4375 -1.53125 -0.4375q-0.890625 0 -1.53125 0.4375q-0.625 0.4375 -1.015625 1.3125q-0.375 0.859375 -0.5625 2.171875q-0.171875 1.3125 -0.171875 3.0625z" fill-rule="nonzero"></path><path fill="#1c4587" d="m128.14658 403.0072l-2.0625 0l0 -10.703125q0 -0.5 0 -1.078125q0.015625 -0.578125 0.03125 -1.140625q0.015625 -0.5625 0.03125 -1.078125q0.03125 -0.53125 0.03125 -0.9375q-0.1875 0.21875 -0.34375 0.375q-0.15625 0.140625 -0.3125 0.28125q-0.15625 0.140625 -0.34375 0.3125q-0.171875 0.15625 -0.40625 0.359375l-1.734375 1.421875l-1.125 -1.4375l4.484375 -3.515625l1.75 0l0 17.140625z" fill-rule="nonzero"></path><path fill="#cfe2f3" d="m295.6771 343.9042l79.46457 0l0 72.12598l-79.46457 0z" fill-rule="nonzero"></path><path stroke="#000000" stroke-width="1.0" stroke-linejoin="round" stroke-linecap="butt" d="m295.6771 343.9042l79.46457 0l0 72.12598l-79.46457 0z" fill-rule="nonzero"></path><path fill="#1c4587" d="m326.2375 366.92908l0 7.078125l-2.1875 0l0 -17.140625l4.171875 0q3.125 0 4.609375 1.21875q1.484375 1.203125 1.484375 3.65625q0 1.015625 -0.28125 1.78125q-0.28125 0.75 -0.765625 1.296875q-0.46875 0.546875 -1.078125 0.921875q-0.609375 0.359375 -1.25 0.59375l4.65625 7.671875l-2.5625 0l-4.109375 -7.078125l-2.6875 0zm0 -1.859375l1.921875 0q1.046875 0 1.78125 -0.203125q0.75 -0.203125 1.21875 -0.609375q0.484375 -0.40625 0.6875 -1.0q0.21875 -0.609375 0.21875 -1.421875q0 -0.84375 -0.234375 -1.421875q-0.234375 -0.59375 -0.734375 -0.96875q-0.484375 -0.375 -1.234375 -0.53125q-0.734375 -0.171875 -1.75 -0.171875l-1.875 0l0 6.328125zm17.96875 8.9375l-2.0625 0l0 -10.703125q0 -0.5 0 -1.078125q0.015625 -0.578125 0.03125 -1.140625q0.015625 -0.5625 0.03125 -1.078125q0.03125 -0.53125 0.03125 -0.9375q-0.1875 0.21875 -0.34375 0.375q-0.15625 0.140625 -0.3125 0.28125q-0.15625 0.140625 -0.34375 0.3125q-0.171875 0.15625 -0.40625 0.359375l-1.734375 1.421875l-1.125 -1.4375l4.484375 -3.515625l1.75 0l0 17.140625z" fill-rule="nonzero"></path><path fill="#1c4587" d="m337.1281 403.0072l-2.0625 0l0 -10.703125q0 -0.5 0 -1.078125q0.015625 -0.578125 0.03125 -1.140625q0.015625 -0.5625 0.03125 -1.078125q0.03125 -0.53125 0.03125 -0.9375q-0.1875 0.21875 -0.34375 0.375q-0.15625 0.140625 -0.3125 0.28125q-0.15625 0.140625 -0.34375 0.3125q-0.171875 0.15625 -0.40625 0.359375l-1.734375 1.421875l-1.125 -1.4375l4.484375 -3.515625l1.75 0l0 17.140625z" fill-rule="nonzero"></path><path fill="#cfe2f3" d="m504.6589 343.9042l70.456696 0l0 72.12598l-70.456696 0z" fill-rule="nonzero"></path><path stroke="#000000" stroke-width="1.0" stroke-linejoin="round" stroke-linecap="butt" d="m504.6589 343.9042l70.456696 0l0 72.12598l-70.456696 0z" fill-rule="nonzero"></path><path fill="#1c4587" d="m530.7154 366.92908l0 7.078125l-2.1875 0l0 -17.140625l4.171875 0q3.125 0 4.609375 1.21875q1.484375 1.203125 1.484375 3.65625q0 1.015625 -0.28125 1.78125q-0.28125 0.75 -0.765625 1.296875q-0.46875 0.546875 -1.078125 0.921875q-0.609375 0.359375 -1.25 0.59375l4.65625 7.671875l-2.5625 0l-4.109375 -7.078125l-2.6875 0zm0 -1.859375l1.921875 0q1.046875 0 1.78125 -0.203125q0.75 -0.203125 1.21875 -0.609375q0.484375 -0.40625 0.6875 -1.0q0.21875 -0.609375 0.21875 -1.421875q0 -0.84375 -0.234375 -1.421875q-0.234375 -0.59375 -0.734375 -0.96875q-0.484375 -0.375 -1.234375 -0.53125q-0.734375 -0.171875 -1.75 -0.171875l-1.875 0l0 6.328125zm21.453125 8.9375l-10.6875 0l0 -1.828125l4.109375 -4.46875q0.875 -0.953125 1.5625 -1.734375q0.6875 -0.78125 1.171875 -1.53125q0.5 -0.75 0.75 -1.5q0.265625 -0.765625 0.265625 -1.65625q0 -0.6875 -0.203125 -1.21875q-0.203125 -0.53125 -0.578125 -0.890625q-0.359375 -0.375 -0.875 -0.5625q-0.5 -0.1875 -1.109375 -0.1875q-1.125 0 -2.015625 0.453125q-0.890625 0.453125 -1.703125 1.15625l-1.203125 -1.390625q0.46875 -0.421875 1.0 -0.796875q0.546875 -0.375 1.171875 -0.640625q0.625 -0.265625 1.3125 -0.421875q0.6875 -0.15625 1.453125 -0.15625q1.125 0 2.03125 0.3125q0.90625 0.3125 1.53125 0.90625q0.640625 0.59375 0.984375 1.453125q0.359375 0.84375 0.359375 1.90625q0 1.0 -0.3125 1.90625q-0.3125 0.890625 -0.859375 1.765625q-0.546875 0.875 -1.3125 1.75q-0.75 0.875 -1.625 1.828125l-3.296875 3.5l0 0.09375l8.078125 0l0 1.953125z" fill-rule="nonzero"></path><path fill="#1c4587" d="m541.606 403.0072l-2.0625 0l0 -10.703125q0 -0.5 0 -1.078125q0.015625 -0.578125 0.03125 -1.140625q0.015625 -0.5625 0.03125 -1.078125q0.03125 -0.53125 0.03125 -0.9375q-0.1875 0.21875 -0.34375 0.375q-0.15625 0.140625 -0.3125 0.28125q-0.15625 0.140625 -0.34375 0.3125q-0.171875 0.15625 -0.40625 0.359375l-1.734375 1.421875l-1.125 -1.4375l4.484375 -3.515625l1.75 0l0 17.140625z" fill-rule="nonzero"></path><path fill="#cfe2f3" d="m704.11285 343.9042l70.456726 0l0 72.12598l-70.456726 0z" fill-rule="nonzero"></path><path stroke="#000000" stroke-width="1.0" stroke-linejoin="round" stroke-linecap="butt" d="m704.11285 343.9042l70.456726 0l0 72.12598l-70.456726 0z" fill-rule="nonzero"></path><path fill="#1c4587" d="m730.1693 366.92908l0 7.078125l-2.1875 0l0 -17.140625l4.171875 0q3.125 0 4.609375 1.21875q1.484375 1.203125 1.484375 3.65625q0 1.015625 -0.28125 1.78125q-0.28125 0.75 -0.765625 1.296875q-0.46875 0.546875 -1.078125 0.921875q-0.609375 0.359375 -1.25 0.59375l4.65625 7.671875l-2.5625 0l-4.109375 -7.078125l-2.6875 0zm0 -1.859375l1.921875 0q1.046875 0 1.78125 -0.203125q0.75 -0.203125 1.21875 -0.609375q0.484375 -0.40625 0.6875 -1.0q0.21875 -0.609375 0.21875 -1.421875q0 -0.84375 -0.234375 -1.421875q-0.234375 -0.59375 -0.734375 -0.96875q-0.484375 -0.375 -1.234375 -0.53125q-0.734375 -0.171875 -1.75 -0.171875l-1.875 0l0 6.328125zm20.90625 -4.1875q0 0.859375 -0.28125 1.5625q-0.265625 0.703125 -0.75 1.21875q-0.484375 0.515625 -1.171875 0.84375q-0.671875 0.328125 -1.5 0.46875l0 0.078125q2.078125 0.25 3.15625 1.3125q1.078125 1.0625 1.078125 2.765625q0 1.125 -0.390625 2.0625q-0.375 0.9375 -1.15625 1.625q-0.765625 0.671875 -1.953125 1.046875q-1.1875 0.375 -2.796875 0.375q-1.28125 0 -2.421875 -0.203125q-1.125 -0.203125 -2.109375 -0.71875l0 -2.0q1.015625 0.546875 2.203125 0.84375q1.1875 0.28125 2.28125 0.28125q1.078125 0 1.859375 -0.234375q0.78125 -0.234375 1.296875 -0.65625q0.515625 -0.4375 0.75 -1.0625q0.234375 -0.640625 0.234375 -1.4375q0 -0.796875 -0.3125 -1.359375q-0.296875 -0.5625 -0.875 -0.9375q-0.578125 -0.375 -1.40625 -0.546875q-0.828125 -0.171875 -1.859375 -0.171875l-1.5625 0l0 -1.765625l1.5625 0q0.9375 0 1.671875 -0.234375q0.75 -0.234375 1.25 -0.671875q0.5 -0.4375 0.75 -1.03125q0.265625 -0.59375 0.265625 -1.3125q0 -0.609375 -0.21875 -1.09375q-0.203125 -0.484375 -0.59375 -0.8125q-0.390625 -0.328125 -0.9375 -0.5q-0.53125 -0.1875 -1.1875 -0.1875q-1.25 0 -2.203125 0.390625q-0.953125 0.390625 -1.828125 1.03125l-1.078125 -1.46875q0.453125 -0.359375 0.984375 -0.671875q0.546875 -0.328125 1.1875 -0.5625q0.65625 -0.234375 1.390625 -0.375q0.734375 -0.140625 1.546875 -0.140625q1.265625 0 2.21875 0.3125q0.953125 0.3125 1.59375 0.890625q0.65625 0.5625 0.984375 1.34375q0.328125 0.78125 0.328125 1.703125z" fill-rule="nonzero"></path><path fill="#1c4587" d="m744.82556 394.41345q0 2.078125 -0.296875 3.71875q-0.296875 1.640625 -0.96875 2.78125q-0.65625 1.125 -1.703125 1.734375q-1.03125 0.59375 -2.53125 0.59375q-1.375 0 -2.40625 -0.59375q-1.015625 -0.609375 -1.703125 -1.734375q-0.671875 -1.140625 -1.0 -2.78125q-0.328125 -1.640625 -0.328125 -3.71875q0 -2.078125 0.296875 -3.71875q0.296875 -1.640625 0.9375 -2.765625q0.65625 -1.125 1.6875 -1.71875q1.046875 -0.609375 2.515625 -0.609375q1.40625 0 2.4375 0.59375q1.03125 0.59375 1.703125 1.734375q0.6875 1.125 1.015625 2.765625q0.34375 1.640625 0.34375 3.71875zm-8.78125 0q0 1.765625 0.171875 3.078125q0.1875 1.3125 0.5625 2.1875q0.390625 0.859375 1.015625 1.3125q0.640625 0.4375 1.53125 0.4375q0.90625 0 1.53125 -0.4375q0.640625 -0.4375 1.046875 -1.296875q0.40625 -0.875 0.578125 -2.1875q0.1875 -1.328125 0.1875 -3.09375q0 -1.75 -0.1875 -3.0625q-0.171875 -1.3125 -0.578125 -2.171875q-0.40625 -0.875 -1.046875 -1.3125q-0.625 -0.4375 -1.53125 -0.4375q-0.890625 0 -1.53125 0.4375q-0.625 0.4375 -1.015625 1.3125q-0.375 0.859375 -0.5625 2.171875q-0.171875 1.3125 -0.171875 3.0625z" fill-rule="nonzero"></path><path fill="#000000" fill-opacity="0.0" d="m166.16011 379.9672l129.5118 0" fill-rule="nonzero"></path><path stroke="#000000" stroke-width="2.0" stroke-linejoin="round" stroke-linecap="butt" d="m166.16011 379.9672l117.511795 0" fill-rule="evenodd"></path><path fill="#000000" stroke="#000000" stroke-width="2.0" stroke-linecap="butt" d="m283.6719 383.27066l9.076202 -3.3034668l-9.076202 -3.3034668z" fill-rule="evenodd"></path><path fill="#000000" fill-opacity="0.0" d="m375.14166 379.9672l129.51181 0" fill-rule="nonzero"></path><path stroke="#000000" stroke-width="2.0" stroke-linejoin="round" stroke-linecap="butt" d="m375.14166 379.9672l117.51181 0" fill-rule="evenodd"></path><path fill="#000000" stroke="#000000" stroke-width="2.0" stroke-linecap="butt" d="m492.65347 383.27066l9.076172 -3.3034668l-9.076172 -3.3034668z" fill-rule="evenodd"></path><path fill="#000000" fill-opacity="0.0" d="m575.1156 379.9672l129.00787 0" fill-rule="nonzero"></path><path stroke="#000000" stroke-width="2.0" stroke-linejoin="round" stroke-linecap="butt" d="m575.1156 379.9672l117.00781 0" fill-rule="evenodd"></path><path fill="#000000" stroke="#000000" stroke-width="2.0" stroke-linecap="butt" d="m692.1234 383.27066l9.076233 -3.3034668l-9.076233 -3.3034668z" fill-rule="evenodd"></path><path fill="#000000" fill-opacity="0.0" d="m774.5696 379.9672l55.370056 0" fill-rule="nonzero"></path><path stroke="#000000" stroke-width="2.0" stroke-linejoin="round" stroke-linecap="butt" d="m774.5696 379.9672l55.370056 0" fill-rule="nonzero"></path><path fill="#000000" fill-opacity="0.0" d="m828.72675 382.5105l0 -121.921265" fill-rule="nonzero"></path><path stroke="#000000" stroke-width="2.0" stroke-linejoin="round" stroke-linecap="butt" d="m828.72675 382.5105l0 -121.921265" fill-rule="nonzero"></path><path fill="#000000" fill-opacity="0.0" d="m630.8635 261.83466l-616.34644 0" fill-rule="nonzero"></path><path stroke="#000000" stroke-width="2.0" stroke-linejoin="round" stroke-linecap="butt" d="m630.8635 261.83466l-616.34644 0" fill-rule="nonzero"></path><path fill="#000000" fill-opacity="0.0" d="m15.271672 261.40814l0 120.28345" fill-rule="nonzero"></path><path stroke="#000000" stroke-width="2.0" stroke-linejoin="round" stroke-linecap="butt" d="m15.271672 261.40814l0 120.28345" fill-rule="nonzero"></path><path fill="#000000" fill-opacity="0.0" d="m16.238846 379.55774l70.456696 0.40945435" fill-rule="nonzero"></path><path stroke="#000000" stroke-width="2.0" stroke-linejoin="round" stroke-linecap="butt" d="m16.238846 379.55774l58.456894 0.33972168" fill-rule="evenodd"></path><path fill="#000000" stroke="#000000" stroke-width="2.0" stroke-linecap="butt" d="m74.676544 383.20087l9.095238 -3.2506714l-9.056847 -3.3561401z" fill-rule="evenodd"></path><path fill="#000000" fill-opacity="0.0" d="m830.2861 261.437l-199.6535 0" fill-rule="nonzero"></path><path stroke="#000000" stroke-width="2.0" stroke-linejoin="round" stroke-linecap="butt" d="m830.2861 261.437l-187.6535 0" fill-rule="evenodd"></path><path fill="#000000" stroke="#000000" stroke-width="2.0" stroke-linecap="butt" d="m642.63257 258.13354l-9.076233 3.3034668l9.076233 3.3034668z" fill-rule="evenodd"></path><path fill="#cfe2f3" d="m609.6247 379.76773l0 0c0 11.602325 9.405518 21.007874 21.007874 21.007874l0 0c5.571594 0 10.915039 -2.2133484 14.854797 -6.153076c3.9397583 -3.9397278 6.153076 -9.283173 6.153076 -14.854797l0 0c0 -11.602356 -9.405579 -21.007874 -21.007874 -21.007874l0 0c-11.602356 0 -21.007874 9.405518 -21.007874 21.007874z" fill-rule="nonzero"></path><path fill="#000000" fill-opacity="0.0" d="m630.63257 400.7756l0 -42.015747m-21.007874 21.007874l42.015747 0" fill-rule="nonzero"></path><path fill="#000000" fill-opacity="0.0" d="m609.6247 379.76773l0 0c0 11.602325 9.405518 21.007874 21.007874 21.007874l0 0c5.571594 0 10.915039 -2.2133484 14.854797 -6.153076c3.9397583 -3.9397278 6.153076 -9.283173 6.153076 -14.854797l0 0c0 -11.602356 -9.405579 -21.007874 -21.007874 -21.007874l0 0c-11.602356 0 -21.007874 9.405518 -21.007874 21.007874z" fill-rule="nonzero"></path><path stroke="#000000" stroke-width="1.0" stroke-linejoin="round" stroke-linecap="butt" d="m630.63257 400.7756l0 -42.015747m-21.007874 21.007874l42.015747 0" fill-rule="nonzero"></path><path stroke="#000000" stroke-width="1.0" stroke-linejoin="round" stroke-linecap="butt" d="m609.6247 379.76773l0 0c0 11.602325 9.405518 21.007874 21.007874 21.007874l0 0c5.571594 0 10.915039 -2.2133484 14.854797 -6.153076c3.9397583 -3.9397278 6.153076 -9.283173 6.153076 -14.854797l0 0c0 -11.602356 -9.405579 -21.007874 -21.007874 -21.007874l0 0c-11.602356 0 -21.007874 9.405518 -21.007874 21.007874z" fill-rule="nonzero"></path><path fill="#000000" fill-opacity="0.0" d="m630.63257 358.75986l0 -98.17325" fill-rule="nonzero"></path><path stroke="#000000" stroke-width="2.0" stroke-linejoin="round" stroke-linecap="butt" d="m630.63257 346.75986l0 -86.17325" fill-rule="evenodd"></path><path fill="#000000" stroke="#000000" stroke-width="2.0" stroke-linecap="butt" d="m627.3291 346.75986l3.3034668 9.076172l3.3034668 -9.076172z" fill-rule="evenodd"></path><path fill="#000000" fill-opacity="0.0" d="m737.61945 178.51575l-611.18115 165.38583" fill-rule="nonzero"></path><path stroke="#cc0000" stroke-width="1.0" stroke-linejoin="round" stroke-linecap="butt" stroke-dasharray="4.0,3.0" d="m737.61945 178.51575l-605.3894 163.8186" fill-rule="evenodd"></path><path fill="#cc0000" stroke="#cc0000" stroke-width="1.0" stroke-linecap="butt" d="m131.79857 340.73996l-3.9490967 2.7797546l4.8119965 0.4090271z" fill-rule="evenodd"></path><path fill="#000000" fill-opacity="0.0" d="m124.70604 178.51575l210.70866 165.38583" fill-rule="nonzero"></path><path stroke="#cc0000" stroke-width="1.0" stroke-linejoin="round" stroke-linecap="butt" stroke-dasharray="4.0,3.0" d="m124.70604 178.51575l205.98888 161.68127" fill-rule="evenodd"></path><path fill="#cc0000" stroke="#cc0000" stroke-width="1.0" stroke-linecap="butt" d="m329.6751 341.4963l4.5895996 1.502655l-2.5499573 -4.1012573z" fill-rule="evenodd"></path><path fill="#000000" fill-opacity="0.0" d="m333.6876 178.51575l206.20474 165.38583" fill-rule="nonzero"></path><path stroke="#cc0000" stroke-width="1.0" stroke-linejoin="round" stroke-linecap="butt" stroke-dasharray="4.0,3.0" d="m333.6876 178.51575l201.5242 161.63184" fill-rule="evenodd"></path><path fill="#cc0000" stroke="#cc0000" stroke-width="1.0" stroke-linecap="butt" d="m534.17834 341.43607l4.5735474 1.5508423l-2.5067139 -4.127838z" fill-rule="evenodd"></path><path fill="#000000" fill-opacity="0.0" d="m538.16547 178.51575l178.45667 47.02362" fill-rule="nonzero"></path><path stroke="#cc0000" stroke-width="1.0" stroke-linejoin="round" stroke-linecap="butt" stroke-dasharray="4.0,3.0" d="m538.16547 178.51575l172.65472 45.494797" fill-rule="evenodd"></path><path fill="#cc0000" stroke="#cc0000" stroke-width="1.0" stroke-linecap="butt" d="m710.3993 225.60776l4.809204 -0.44088745l-3.9674683 -2.75354z" fill-rule="evenodd"></path><path fill="#cc4125" d="m716.6116 225.53937l0 0c0 11.602325 9.405518 21.007874 21.007874 21.007874l0 0c5.571594 0 10.915039 -2.2133179 14.854797 -6.153061c3.9397583 -3.939743 6.153076 -9.283173 6.153076 -14.854813l0 0c0 -11.602325 -9.405579 -21.007874 -21.007874 -21.007874l0 0c-11.602356 0 -21.007874 9.405548 -21.007874 21.007874z" fill-rule="nonzero"></path><path fill="#000000" fill-opacity="0.0" d="m737.61945 246.54724l0 -42.015747m-21.007874 21.007874l42.015747 0" fill-rule="nonzero"></path><path fill="#000000" fill-opacity="0.0" d="m716.6116 225.53937l0 0c0 11.602325 9.405518 21.007874 21.007874 21.007874l0 0c5.571594 0 10.915039 -2.2133179 14.854797 -6.153061c3.9397583 -3.939743 6.153076 -9.283173 6.153076 -14.854813l0 0c0 -11.602325 -9.405579 -21.007874 -21.007874 -21.007874l0 0c-11.602356 0 -21.007874 9.405548 -21.007874 21.007874z" fill-rule="nonzero"></path><path stroke="#000000" stroke-width="1.0" stroke-linejoin="round" stroke-linecap="butt" d="m737.61945 246.54724l0 -42.015747m-21.007874 21.007874l42.015747 0" fill-rule="nonzero"></path><path stroke="#000000" stroke-width="1.0" stroke-linejoin="round" stroke-linecap="butt" d="m716.6116 225.53937l0 0c0 11.602325 9.405518 21.007874 21.007874 21.007874l0 0c5.571594 0 10.915039 -2.2133179 14.854797 -6.153061c3.9397583 -3.939743 6.153076 -9.283173 6.153076 -14.854813l0 0c0 -11.602325 -9.405579 -21.007874 -21.007874 -21.007874l0 0c-11.602356 0 -21.007874 9.405548 -21.007874 21.007874z" fill-rule="nonzero"></path><path fill="#000000" fill-opacity="0.0" d="m737.61945 178.51575l0 26.015747" fill-rule="nonzero"></path><path stroke="#cc0000" stroke-width="1.0" stroke-linejoin="round" stroke-linecap="butt" stroke-dasharray="4.0,3.0" d="m737.61945 178.51575l0 20.015747" fill-rule="evenodd"></path><path fill="#cc0000" stroke="#cc0000" stroke-width="1.0" stroke-linecap="butt" d="m735.9677 198.5315l1.6517334 4.538101l1.6517334 -4.538101z" fill-rule="evenodd"></path><path fill="#000000" fill-opacity="0.0" d="m737.61945 246.54724l1.7322388 97.35434" fill-rule="nonzero"></path><path stroke="#cc0000" stroke-width="1.0" stroke-linejoin="round" stroke-linecap="butt" stroke-dasharray="4.0,3.0" d="m737.61945 246.54724l1.6255493 91.355286" fill-rule="evenodd"></path><path fill="#cc0000" stroke="#cc0000" stroke-width="1.0" stroke-linecap="butt" d="m737.5935 337.93192l1.7321777 4.5079956l1.5707397 -4.5667725z" fill-rule="evenodd"></path><path fill="#fff2cc" d="m844.97375 106.38714l79.46454 0l0 72.125984l-79.46454 0z" fill-rule="nonzero"></path><path stroke="#000000" stroke-width="1.0" stroke-linejoin="round" stroke-linecap="butt" d="m844.97375 106.38714l79.46454 0l0 72.125984l-79.46454 0z" fill-rule="nonzero"></path><path fill="#000000" d="m866.5967 136.49013l-2.0625 0l0 -10.703125q0 -0.5 0 -1.078125q0.015625 -0.578125 0.03125 -1.140625q0.015625 -0.5625 0.03125 -1.078125q0.03125 -0.53125 0.03125 -0.9375q-0.1875 0.21875 -0.34375 0.375q-0.15625 0.140625 -0.3125 0.28125q-0.15625 0.140625 -0.34375 0.3125q-0.171875 0.15625 -0.40625 0.359375l-1.734375 1.421875l-1.125 -1.4375l4.484375 -3.515625l1.75 0l0 17.140625zm13.21875 0l-2.0625 0l0 -10.703125q0 -0.5 0 -1.078125q0.015625 -0.578125 0.03125 -1.140625q0.015625 -0.5625 0.03125 -1.078125q0.03125 -0.53125 0.03125 -0.9375q-0.1875 0.21875 -0.34375 0.375q-0.15625 0.140625 -0.3125 0.28125q-0.15625 0.140625 -0.34375 0.3125q-0.171875 0.15625 -0.40625 0.359375l-1.734375 1.421875l-1.125 -1.4375l4.484375 -3.515625l1.75 0l0 17.140625zm13.21875 0l-2.0625 0l0 -10.703125q0 -0.5 0 -1.078125q0.015625 -0.578125 0.03125 -1.140625q0.015625 -0.5625 0.03125 -1.078125q0.03125 -0.53125 0.03125 -0.9375q-0.1875 0.21875 -0.34375 0.375q-0.15625 0.140625 -0.3125 0.28125q-0.15625 0.140625 -0.34375 0.3125q-0.171875 0.15625 -0.40625 0.359375l-1.734375 1.421875l-1.125 -1.4375l4.484375 -3.515625l1.75 0l0 17.140625zm13.21875 0l-2.0625 0l0 -10.703125q0 -0.5 0 -1.078125q0.015625 -0.578125 0.03125 -1.140625q0.015625 -0.5625 0.03125 -1.078125q0.03125 -0.53125 0.03125 -0.9375q-0.1875 0.21875 -0.34375 0.375q-0.15625 0.140625 -0.3125 0.28125q-0.15625 0.140625 -0.34375 0.3125q-0.171875 0.15625 -0.40625 0.359375l-1.734375 1.421875l-1.125 -1.4375l4.484375 -3.515625l1.75 0l0 17.140625z" fill-rule="nonzero"></path><path fill="#000000" d="m879.8154 165.49013l-2.0625 0l0 -10.703125q0 -0.5 0 -1.078125q0.015625 -0.578125 0.03125 -1.140625q0.015625 -0.5625 0.03125 -1.078125q0.03125 -0.53125 0.03125 -0.9375q-0.1875 0.21875 -0.34375 0.375q-0.15625 0.140625 -0.3125 0.28125q-0.15625 0.140625 -0.34375 0.3125q-0.171875 0.15625 -0.40625 0.359375l-1.734375 1.421875l-1.125 -1.4375l4.484375 -3.515625l1.75 0l0 17.140625zm11.28125 -10.515625q1.15625 0 2.15625 0.328125q1.0 0.3125 1.75 0.953125q0.75 0.625 1.171875 1.5625q0.421875 0.9375 0.421875 2.171875q0 1.34375 -0.40625 2.40625q-0.390625 1.0625 -1.1875 1.8125q-0.78125 0.734375 -1.9375 1.125q-1.15625 0.390625 -2.65625 0.390625q-0.59375 0 -1.171875 -0.0625q-0.578125 -0.046875 -1.109375 -0.171875q-0.53125 -0.109375 -1.015625 -0.28125q-0.484375 -0.171875 -0.875 -0.40625l0 -2.015625q0.390625 0.265625 0.90625 0.484375q0.53125 0.203125 1.09375 0.34375q0.578125 0.140625 1.15625 0.21875q0.59375 0.078125 1.078125 0.078125q0.921875 0 1.640625 -0.21875q0.734375 -0.21875 1.234375 -0.671875q0.515625 -0.46875 0.78125 -1.15625q0.265625 -0.6875 0.265625 -1.640625q0 -1.671875 -1.03125 -2.546875q-1.03125 -0.890625 -3.0 -0.890625q-0.3125 0 -0.6875 0.03125q-0.359375 0.015625 -0.734375 0.0625q-0.359375 0.046875 -0.703125 0.109375q-0.328125 0.046875 -0.578125 0.09375l-1.046875 -0.671875l0.640625 -8.0625l8.078125 0l0 1.953125l-6.234375 0l-0.453125 4.90625q0.375 -0.0625 0.984375 -0.140625q0.625 -0.09375 1.46875 -0.09375z" fill-rule="nonzero"></path><path fill="#fff2cc" d="m844.97375 343.60367l79.46454 0l0 72.12598l-79.46454 0z" fill-rule="nonzero"></path><path stroke="#000000" stroke-width="1.0" stroke-linejoin="round" stroke-linecap="butt" d="m844.97375 343.60367l79.46454 0l0 72.12598l-79.46454 0z" fill-rule="nonzero"></path><path fill="#000000" d="m870.3623 365.1129q0 2.078125 -0.296875 3.71875q-0.296875 1.640625 -0.96875 2.78125q-0.65625 1.125 -1.703125 1.734375q-1.03125 0.59375 -2.53125 0.59375q-1.375 0 -2.40625 -0.59375q-1.015625 -0.609375 -1.703125 -1.734375q-0.671875 -1.140625 -1.0 -2.78125q-0.328125 -1.640625 -0.328125 -3.71875q0 -2.078125 0.296875 -3.71875q0.296875 -1.640625 0.9375 -2.765625q0.65625 -1.125 1.6875 -1.71875q1.046875 -0.609375 2.515625 -0.609375q1.40625 0 2.4375 0.59375q1.03125 0.59375 1.703125 1.734375q0.6875 1.125 1.015625 2.765625q0.34375 1.640625 0.34375 3.71875zm-8.78125 0q0 1.765625 0.171875 3.078125q0.1875 1.3125 0.5625 2.1875q0.390625 0.859375 1.015625 1.3125q0.640625 0.4375 1.53125 0.4375q0.90625 0 1.53125 -0.4375q0.640625 -0.4375 1.046875 -1.296875q0.40625 -0.875 0.578125 -2.1875q0.1875 -1.328125 0.1875 -3.09375q0 -1.75 -0.1875 -3.0625q-0.171875 -1.3125 -0.578125 -2.171875q-0.40625 -0.875 -1.046875 -1.3125q-0.625 -0.4375 -1.53125 -0.4375q-0.890625 0 -1.53125 0.4375q-0.625 0.4375 -1.015625 1.3125q-0.375 0.859375 -0.5625 2.171875q-0.171875 1.3125 -0.171875 3.0625zm18.234375 8.59375l-2.0625 0l0 -10.703125q0 -0.5 0 -1.078125q0.015625 -0.578125 0.03125 -1.140625q0.015625 -0.5625 0.03125 -1.078125q0.03125 -0.53125 0.03125 -0.9375q-0.1875 0.21875 -0.34375 0.375q-0.15625 0.140625 -0.3125 0.28125q-0.15625 0.140625 -0.34375 0.3125q-0.171875 0.15625 -0.40625 0.359375l-1.734375 1.421875l-1.125 -1.4375l4.484375 -3.515625l1.75 0l0 17.140625zm13.21875 0l-2.0625 0l0 -10.703125q0 -0.5 0 -1.078125q0.015625 -0.578125 0.03125 -1.140625q0.015625 -0.5625 0.03125 -1.078125q0.03125 -0.53125 0.03125 -0.9375q-0.1875 0.21875 -0.34375 0.375q-0.15625 0.140625 -0.3125 0.28125q-0.15625 0.140625 -0.34375 0.3125q-0.171875 0.15625 -0.40625 0.359375l-1.734375 1.421875l-1.125 -1.4375l4.484375 -3.515625l1.75 0l0 17.140625zm13.21875 0l-2.0625 0l0 -10.703125q0 -0.5 0 -1.078125q0.015625 -0.578125 0.03125 -1.140625q0.015625 -0.5625 0.03125 -1.078125q0.03125 -0.53125 0.03125 -0.9375q-0.1875 0.21875 -0.34375 0.375q-0.15625 0.140625 -0.3125 0.28125q-0.15625 0.140625 -0.34375 0.3125q-0.171875 0.15625 -0.40625 0.359375l-1.734375 1.421875l-1.125 -1.4375l4.484375 -3.515625l1.75 0l0 17.140625z" fill-rule="nonzero"></path><path fill="#000000" d="m881.39355 402.70667l6.59375 -15.1875l-8.828125 0l0 -1.953125l11.015625 0l0 1.703125l-6.515625 15.4375l-2.265625 0z" fill-rule="nonzero"></path><path fill="#cfe2f3" d="m88.41732 581.02234l79.46458 0l0 72.12598l-79.46458 0z" fill-rule="nonzero"></path><path stroke="#000000" stroke-width="1.0" stroke-linejoin="round" stroke-linecap="butt" d="m88.41732 581.02234l79.46458 0l0 72.12598l-79.46458 0z" fill-rule="nonzero"></path><path fill="#1c4587" d="m118.97773 604.0472l0 7.078125l-2.1875 0l0 -17.140625l4.171875 0q3.125 0 4.609375 1.21875q1.484375 1.203125 1.484375 3.65625q0 1.015625 -0.28125 1.78125q-0.28125 0.75 -0.765625 1.296875q-0.46875 0.546875 -1.078125 0.921875q-0.609375 0.359375 -1.25 0.59375l4.6562576 7.671875l-2.5625076 0l-4.109375 -7.078125l-2.6875 0zm0 -1.859375l1.921875 0q1.046875 0 1.78125 -0.203125q0.75 -0.203125 1.21875 -0.609375q0.484375 -0.40625 0.6875 -1.0q0.21875 -0.609375 0.21875 -1.421875q0 -0.84375 -0.234375 -1.421875q-0.234375 -0.59375 -0.734375 -0.96875q-0.484375 -0.375 -1.234375 -0.53125q-0.734375 -0.171875 -1.75 -0.171875l-1.875 0l0 6.328125zm21.734383 0.34375q0 2.078125 -0.296875 3.71875q-0.296875 1.640625 -0.96875 2.78125q-0.65625 1.125 -1.703125 1.734375q-1.03125 0.59375 -2.53125 0.59375q-1.375 0 -2.40625 -0.59375q-1.015625 -0.609375 -1.703125 -1.734375q-0.671875 -1.140625 -1.0 -2.78125q-0.328125 -1.640625 -0.328125 -3.71875q0 -2.078125 0.296875 -3.71875q0.296875 -1.640625 0.9375 -2.765625q0.65625 -1.125 1.6875 -1.71875q1.046875 -0.609375 2.515625 -0.609375q1.40625 0 2.4375 0.59375q1.03125 0.59375 1.703125 1.734375q0.6875 1.125 1.015625 2.765625q0.34375 1.640625 0.34375 3.71875zm-8.78125 0q0 1.765625 0.171875 3.078125q0.1875 1.3125 0.5625 2.1875q0.390625 0.859375 1.015625 1.3125q0.640625 0.4375 1.53125 0.4375q0.90625 0 1.53125 -0.4375q0.640625 -0.4375 1.046875 -1.296875q0.40625 -0.875 0.578125 -2.1875q0.1875 -1.328125 0.1875 -3.09375q0 -1.75 -0.1875 -3.0625q-0.171875 -1.3125 -0.578125 -2.171875q-0.40625 -0.875 -1.046875 -1.3125q-0.625 -0.4375 -1.53125 -0.4375q-0.890625 0 -1.53125 0.4375q-0.625 0.4375 -1.015625 1.3125q-0.375 0.859375 -0.5625 2.171875q-0.171875 1.3125 -0.171875 3.0625z" fill-rule="nonzero"></path><path fill="#1c4587" d="m133.63399 631.53156q0 2.078125 -0.296875 3.71875q-0.296875 1.640625 -0.96875 2.78125q-0.65625 1.125 -1.703125 1.734375q-1.03125 0.59375 -2.53125 0.59375q-1.3750076 0 -2.4062576 -0.59375q-1.015625 -0.609375 -1.703125 -1.734375q-0.671875 -1.140625 -1.0 -2.78125q-0.328125 -1.640625 -0.328125 -3.71875q0 -2.078125 0.296875 -3.71875q0.296875 -1.640625 0.9375 -2.765625q0.65625 -1.125 1.6875 -1.71875q1.046875 -0.609375 2.5156326 -0.609375q1.40625 0 2.4375 0.59375q1.03125 0.59375 1.703125 1.734375q0.6875 1.125 1.015625 2.765625q0.34375 1.640625 0.34375 3.71875zm-8.781258 0q0 1.765625 0.171875 3.078125q0.1875 1.3125 0.5625 2.1875q0.390625 0.859375 1.015625 1.3125q0.640625 0.4375 1.5312576 0.4375q0.90625 0 1.53125 -0.4375q0.640625 -0.4375 1.046875 -1.296875q0.40625 -0.875 0.578125 -2.1875q0.1875 -1.328125 0.1875 -3.09375q0 -1.75 -0.1875 -3.0625q-0.171875 -1.3125 -0.578125 -2.171875q-0.40625 -0.875 -1.046875 -1.3125q-0.625 -0.4375 -1.53125 -0.4375q-0.8906326 0 -1.5312576 0.4375q-0.625 0.4375 -1.015625 1.3125q-0.375 0.859375 -0.5625 2.171875q-0.171875 1.3125 -0.171875 3.0625z" fill-rule="nonzero"></path><path fill="#cfe2f3" d="m297.39886 581.02234l79.46457 0l0 72.12598l-79.46457 0z" fill-rule="nonzero"></path><path stroke="#000000" stroke-width="1.0" stroke-linejoin="round" stroke-linecap="butt" d="m297.39886 581.02234l79.46457 0l0 72.12598l-79.46457 0z" fill-rule="nonzero"></path><path fill="#1c4587" d="m327.9593 604.0472l0 7.078125l-2.1875 0l0 -17.140625l4.171875 0q3.125 0 4.609375 1.21875q1.484375 1.203125 1.484375 3.65625q0 1.015625 -0.28125 1.78125q-0.28125 0.75 -0.765625 1.296875q-0.46875 0.546875 -1.078125 0.921875q-0.609375 0.359375 -1.25 0.59375l4.65625 7.671875l-2.5625 0l-4.109375 -7.078125l-2.6875 0zm0 -1.859375l1.921875 0q1.046875 0 1.78125 -0.203125q0.75 -0.203125 1.21875 -0.609375q0.484375 -0.40625 0.6875 -1.0q0.21875 -0.609375 0.21875 -1.421875q0 -0.84375 -0.234375 -1.421875q-0.234375 -0.59375 -0.734375 -0.96875q-0.484375 -0.375 -1.234375 -0.53125q-0.734375 -0.171875 -1.75 -0.171875l-1.875 0l0 6.328125zm17.96875 8.9375l-2.0625 0l0 -10.703125q0 -0.5 0 -1.078125q0.015625 -0.578125 0.03125 -1.140625q0.015625 -0.5625 0.03125 -1.078125q0.03125 -0.53125 0.03125 -0.9375q-0.1875 0.21875 -0.34375 0.375q-0.15625 0.140625 -0.3125 0.28125q-0.15625 0.140625 -0.34375 0.3125q-0.171875 0.15625 -0.40625 0.359375l-1.734375 1.421875l-1.125 -1.4375l4.484375 -3.515625l1.75 0l0 17.140625z" fill-rule="nonzero"></path><path fill="#1c4587" d="m338.8499 640.1253l-2.0625 0l0 -10.703125q0 -0.5 0 -1.078125q0.015625 -0.578125 0.03125 -1.140625q0.015625 -0.5625 0.03125 -1.078125q0.03125 -0.53125 0.03125 -0.9375q-0.1875 0.21875 -0.34375 0.375q-0.15625 0.140625 -0.3125 0.28125q-0.15625 0.140625 -0.34375 0.3125q-0.171875 0.15625 -0.40625 0.359375l-1.734375 1.421875l-1.125 -1.4375l4.484375 -3.515625l1.75 0l0 17.140625z" fill-rule="nonzero"></path><path fill="#cfe2f3" d="m506.38068 581.02234l70.456726 0l0 72.12598l-70.456726 0z" fill-rule="nonzero"></path><path stroke="#000000" stroke-width="1.0" stroke-linejoin="round" stroke-linecap="butt" d="m506.38068 581.02234l70.456726 0l0 72.12598l-70.456726 0z" fill-rule="nonzero"></path><path fill="#1c4587" d="m532.43713 604.0472l0 7.078125l-2.1875 0l0 -17.140625l4.171875 0q3.125 0 4.609375 1.21875q1.484375 1.203125 1.484375 3.65625q0 1.015625 -0.28125 1.78125q-0.28125 0.75 -0.765625 1.296875q-0.46875 0.546875 -1.078125 0.921875q-0.609375 0.359375 -1.25 0.59375l4.65625 7.671875l-2.5625 0l-4.109375 -7.078125l-2.6875 0zm0 -1.859375l1.921875 0q1.046875 0 1.78125 -0.203125q0.75 -0.203125 1.21875 -0.609375q0.484375 -0.40625 0.6875 -1.0q0.21875 -0.609375 0.21875 -1.421875q0 -0.84375 -0.234375 -1.421875q-0.234375 -0.59375 -0.734375 -0.96875q-0.484375 -0.375 -1.234375 -0.53125q-0.734375 -0.171875 -1.75 -0.171875l-1.875 0l0 6.328125zm21.453125 8.9375l-10.6875 0l0 -1.828125l4.109375 -4.46875q0.875 -0.953125 1.5625 -1.734375q0.6875 -0.78125 1.171875 -1.53125q0.5 -0.75 0.75 -1.5q0.265625 -0.765625 0.265625 -1.65625q0 -0.6875 -0.203125 -1.21875q-0.203125 -0.53125 -0.578125 -0.890625q-0.359375 -0.375 -0.875 -0.5625q-0.5 -0.1875 -1.109375 -0.1875q-1.125 0 -2.015625 0.453125q-0.890625 0.453125 -1.703125 1.15625l-1.203125 -1.390625q0.46875 -0.421875 1.0 -0.796875q0.546875 -0.375 1.171875 -0.640625q0.625 -0.265625 1.3125 -0.421875q0.6875 -0.15625 1.453125 -0.15625q1.125 0 2.03125 0.3125q0.90625 0.3125 1.53125 0.90625q0.640625 0.59375 0.984375 1.453125q0.359375 0.84375 0.359375 1.90625q0 1.0 -0.3125 1.90625q-0.3125 0.890625 -0.859375 1.765625q-0.546875 0.875 -1.3125 1.75q-0.75 0.875 -1.625 1.828125l-3.296875 3.5l0 0.09375l8.078125 0l0 1.953125z" fill-rule="nonzero"></path><path fill="#1c4587" d="m543.32776 640.1253l-2.0625 0l0 -10.703125q0 -0.5 0 -1.078125q0.015625 -0.578125 0.03125 -1.140625q0.015625 -0.5625 0.03125 -1.078125q0.03125 -0.53125 0.03125 -0.9375q-0.1875 0.21875 -0.34375 0.375q-0.15625 0.140625 -0.3125 0.28125q-0.15625 0.140625 -0.34375 0.3125q-0.171875 0.15625 -0.40625 0.359375l-1.734375 1.421875l-1.125 -1.4375l4.484375 -3.515625l1.75 0l0 17.140625z" fill-rule="nonzero"></path><path fill="#cfe2f3" d="m705.83466 581.02234l70.456665 0l0 72.12598l-70.456665 0z" fill-rule="nonzero"></path><path stroke="#000000" stroke-width="1.0" stroke-linejoin="round" stroke-linecap="butt" d="m705.83466 581.02234l70.456665 0l0 72.12598l-70.456665 0z" fill-rule="nonzero"></path><path fill="#1c4587" d="m731.8911 604.0472l0 7.078125l-2.1875 0l0 -17.140625l4.171875 0q3.125 0 4.609375 1.21875q1.484375 1.203125 1.484375 3.65625q0 1.015625 -0.28125 1.78125q-0.28125 0.75 -0.765625 1.296875q-0.46875 0.546875 -1.078125 0.921875q-0.609375 0.359375 -1.25 0.59375l4.65625 7.671875l-2.5625 0l-4.109375 -7.078125l-2.6875 0zm0 -1.859375l1.921875 0q1.046875 0 1.78125 -0.203125q0.75 -0.203125 1.21875 -0.609375q0.484375 -0.40625 0.6875 -1.0q0.21875 -0.609375 0.21875 -1.421875q0 -0.84375 -0.234375 -1.421875q-0.234375 -0.59375 -0.734375 -0.96875q-0.484375 -0.375 -1.234375 -0.53125q-0.734375 -0.171875 -1.75 -0.171875l-1.875 0l0 6.328125zm20.90625 -4.1875q0 0.859375 -0.28125 1.5625q-0.265625 0.703125 -0.75 1.21875q-0.484375 0.515625 -1.171875 0.84375q-0.671875 0.328125 -1.5 0.46875l0 0.078125q2.078125 0.25 3.15625 1.3125q1.078125 1.0625 1.078125 2.765625q0 1.125 -0.390625 2.0625q-0.375 0.9375 -1.15625 1.625q-0.765625 0.671875 -1.953125 1.046875q-1.1875 0.375 -2.796875 0.375q-1.28125 0 -2.421875 -0.203125q-1.125 -0.203125 -2.109375 -0.71875l0 -2.0q1.015625 0.546875 2.203125 0.84375q1.1875 0.28125 2.28125 0.28125q1.078125 0 1.859375 -0.234375q0.78125 -0.234375 1.296875 -0.65625q0.515625 -0.4375 0.75 -1.0625q0.234375 -0.640625 0.234375 -1.4375q0 -0.796875 -0.3125 -1.359375q-0.296875 -0.5625 -0.875 -0.9375q-0.578125 -0.375 -1.40625 -0.546875q-0.828125 -0.171875 -1.859375 -0.171875l-1.5625 0l0 -1.765625l1.5625 0q0.9375 0 1.671875 -0.234375q0.75 -0.234375 1.25 -0.671875q0.5 -0.4375 0.75 -1.03125q0.265625 -0.59375 0.265625 -1.3125q0 -0.609375 -0.21875 -1.09375q-0.203125 -0.484375 -0.59375 -0.8125q-0.390625 -0.328125 -0.9375 -0.5q-0.53125 -0.1875 -1.1875 -0.1875q-1.25 0 -2.203125 0.390625q-0.953125 0.390625 -1.828125 1.03125l-1.078125 -1.46875q0.453125 -0.359375 0.984375 -0.671875q0.546875 -0.328125 1.1875 -0.5625q0.65625 -0.234375 1.390625 -0.375q0.734375 -0.140625 1.546875 -0.140625q1.265625 0 2.21875 0.3125q0.953125 0.3125 1.59375 0.890625q0.65625 0.5625 0.984375 1.34375q0.328125 0.78125 0.328125 1.703125z" fill-rule="nonzero"></path><path fill="#1c4587" d="m742.78174 640.1253l-2.0625 0l0 -10.703125q0 -0.5 0 -1.078125q0.015625 -0.578125 0.03125 -1.140625q0.015625 -0.5625 0.03125 -1.078125q0.03125 -0.53125 0.03125 -0.9375q-0.1875 0.21875 -0.34375 0.375q-0.15625 0.140625 -0.3125 0.28125q-0.15625 0.140625 -0.34375 0.3125q-0.171875 0.15625 -0.40625 0.359375l-1.734375 1.421875l-1.125 -1.4375l4.484375 -3.515625l1.75 0l0 17.140625z" fill-rule="nonzero"></path><path fill="#000000" fill-opacity="0.0" d="m167.8819 617.0853l129.51181 0" fill-rule="nonzero"></path><path stroke="#000000" stroke-width="2.0" stroke-linejoin="round" stroke-linecap="butt" d="m167.8819 617.0853l117.51181 0" fill-rule="evenodd"></path><path fill="#000000" stroke="#000000" stroke-width="2.0" stroke-linecap="butt" d="m285.3937 620.3888l9.076202 -3.3034668l-9.076202 -3.3034668z" fill-rule="evenodd"></path><path fill="#000000" fill-opacity="0.0" d="m376.86343 617.0853l129.51181 0" fill-rule="nonzero"></path><path stroke="#000000" stroke-width="2.0" stroke-linejoin="round" stroke-linecap="butt" d="m376.86343 617.0853l117.51181 0" fill-rule="evenodd"></path><path fill="#000000" stroke="#000000" stroke-width="2.0" stroke-linecap="butt" d="m494.37524 620.3888l9.076202 -3.3034668l-9.076202 -3.3034668z" fill-rule="evenodd"></path><path fill="#000000" fill-opacity="0.0" d="m576.8374 617.0853l129.00787 0" fill-rule="nonzero"></path><path stroke="#000000" stroke-width="2.0" stroke-linejoin="round" stroke-linecap="butt" d="m576.8374 617.0853l117.00781 0" fill-rule="evenodd"></path><path fill="#000000" stroke="#000000" stroke-width="2.0" stroke-linecap="butt" d="m693.8452 620.3888l9.076233 -3.3034668l-9.076233 -3.3034668z" fill-rule="evenodd"></path><path fill="#000000" fill-opacity="0.0" d="m776.2913 617.0853l55.370117 0" fill-rule="nonzero"></path><path stroke="#000000" stroke-width="2.0" stroke-linejoin="round" stroke-linecap="butt" d="m776.2913 617.0853l55.370117 0" fill-rule="nonzero"></path><path fill="#000000" fill-opacity="0.0" d="m830.44855 619.6286l0 -121.921265" fill-rule="nonzero"></path><path stroke="#000000" stroke-width="2.0" stroke-linejoin="round" stroke-linecap="butt" d="m830.44855 619.6286l0 -121.921265" fill-rule="nonzero"></path><path fill="#000000" fill-opacity="0.0" d="m632.5853 498.95276l-616.3465 0" fill-rule="nonzero"></path><path stroke="#000000" stroke-width="2.0" stroke-linejoin="round" stroke-linecap="butt" d="m632.5853 498.95276l-616.3465 0" fill-rule="nonzero"></path><path fill="#000000" fill-opacity="0.0" d="m16.993458 498.52625l0 120.28345" fill-rule="nonzero"></path><path stroke="#000000" stroke-width="2.0" stroke-linejoin="round" stroke-linecap="butt" d="m16.993458 498.52625l0 120.28345" fill-rule="nonzero"></path><path fill="#000000" fill-opacity="0.0" d="m17.96063 616.67584l70.45669 0.40948486" fill-rule="nonzero"></path><path stroke="#000000" stroke-width="2.0" stroke-linejoin="round" stroke-linecap="butt" d="m17.96063 616.67584l58.456894 0.33972168" fill-rule="evenodd"></path><path fill="#000000" stroke="#000000" stroke-width="2.0" stroke-linecap="butt" d="m76.39833 620.319l9.095238 -3.2506714l-9.056847 -3.3561401z" fill-rule="evenodd"></path><path fill="#000000" fill-opacity="0.0" d="m832.0079 498.5551l-199.65356 0" fill-rule="nonzero"></path><path stroke="#000000" stroke-width="2.0" stroke-linejoin="round" stroke-linecap="butt" d="m832.0079 498.5551l-187.65356 0" fill-rule="evenodd"></path><path fill="#000000" stroke="#000000" stroke-width="2.0" stroke-linecap="butt" d="m644.3543 495.25165l-9.076172 3.3034668l9.076172 3.3034668z" fill-rule="evenodd"></path><path fill="#cfe2f3" d="m611.34644 616.8858l0 0c0 11.602356 9.405579 21.007874 21.007874 21.007874l0 0c5.5716553 0 10.9151 -2.2133179 14.854858 -6.153015c3.9396973 -3.9397583 6.153015 -9.283203 6.153015 -14.854858l0 0c0 -11.602295 -9.405518 -21.007874 -21.007874 -21.007874l0 0c-11.602295 0 -21.007874 9.405579 -21.007874 21.007874z" fill-rule="nonzero"></path><path fill="#000000" fill-opacity="0.0" d="m632.3543 637.8937l0 -42.015747m-21.007874 21.007874l42.015747 0" fill-rule="nonzero"></path><path fill="#000000" fill-opacity="0.0" d="m611.34644 616.8858l0 0c0 11.602356 9.405579 21.007874 21.007874 21.007874l0 0c5.5716553 0 10.9151 -2.2133179 14.854858 -6.153015c3.9396973 -3.9397583 6.153015 -9.283203 6.153015 -14.854858l0 0c0 -11.602295 -9.405518 -21.007874 -21.007874 -21.007874l0 0c-11.602295 0 -21.007874 9.405579 -21.007874 21.007874z" fill-rule="nonzero"></path><path stroke="#000000" stroke-width="1.0" stroke-linejoin="round" stroke-linecap="butt" d="m632.3543 637.8937l0 -42.015747m-21.007874 21.007874l42.015747 0" fill-rule="nonzero"></path><path stroke="#000000" stroke-width="1.0" stroke-linejoin="round" stroke-linecap="butt" d="m611.34644 616.8858l0 0c0 11.602356 9.405579 21.007874 21.007874 21.007874l0 0c5.5716553 0 10.9151 -2.2133179 14.854858 -6.153015c3.9396973 -3.9397583 6.153015 -9.283203 6.153015 -14.854858l0 0c0 -11.602295 -9.405518 -21.007874 -21.007874 -21.007874l0 0c-11.602295 0 -21.007874 9.405579 -21.007874 21.007874z" fill-rule="nonzero"></path><path fill="#000000" fill-opacity="0.0" d="m632.3543 595.8779l0 -98.17322" fill-rule="nonzero"></path><path stroke="#000000" stroke-width="2.0" stroke-linejoin="round" stroke-linecap="butt" d="m632.3543 583.8779l0 -86.17322" fill-rule="evenodd"></path><path fill="#000000" stroke="#000000" stroke-width="2.0" stroke-linecap="butt" d="m629.05084 583.8779l3.3034668 9.076233l3.3034668 -9.076233z" fill-rule="evenodd"></path><path fill="#000000" fill-opacity="0.0" d="m739.3307 415.63647l-611.1811 165.38586" fill-rule="nonzero"></path><path stroke="#cc0000" stroke-width="1.0" stroke-linejoin="round" stroke-linecap="butt" stroke-dasharray="4.0,3.0" d="m739.3307 415.63647l-605.3894 163.8186" fill-rule="evenodd"></path><path fill="#cc0000" stroke="#cc0000" stroke-width="1.0" stroke-linecap="butt" d="m133.50986 577.86066l-3.9490967 2.7797852l4.811981 0.40899658z" fill-rule="evenodd"></path><path fill="#000000" fill-opacity="0.0" d="m126.42249 415.63647l210.70868 165.38586" fill-rule="nonzero"></path><path stroke="#cc0000" stroke-width="1.0" stroke-linejoin="round" stroke-linecap="butt" stroke-dasharray="4.0,3.0" d="m126.42249 415.63647l205.98889 161.68127" fill-rule="evenodd"></path><path fill="#cc0000" stroke="#cc0000" stroke-width="1.0" stroke-linecap="butt" d="m331.39157 578.61707l4.5895996 1.5026245l-2.5499573 -4.1012573z" fill-rule="evenodd"></path><path fill="#000000" fill-opacity="0.0" d="m335.4043 415.63647l206.20471 165.38586" fill-rule="nonzero"></path><path stroke="#cc0000" stroke-width="1.0" stroke-linejoin="round" stroke-linecap="butt" stroke-dasharray="4.0,3.0" d="m335.4043 415.63647l201.52423 161.63184" fill-rule="evenodd"></path><path fill="#cc0000" stroke="#cc0000" stroke-width="1.0" stroke-linecap="butt" d="m535.8951 578.5568l4.5735474 1.5508423l-2.5066528 -4.1278687z" fill-rule="evenodd"></path><path fill="#000000" fill-opacity="0.0" d="m539.87665 415.63385l178.45667 47.02362" fill-rule="nonzero"></path><path stroke="#cc0000" stroke-width="1.0" stroke-linejoin="round" stroke-linecap="butt" stroke-dasharray="4.0,3.0" d="m539.87665 415.63385l172.65479 45.494812" fill-rule="evenodd"></path><path fill="#cc0000" stroke="#cc0000" stroke-width="1.0" stroke-linecap="butt" d="m712.11053 462.72586l4.809143 -0.44088745l-3.9674072 -2.75354z" fill-rule="evenodd"></path><path fill="#cc4125" d="m718.3333 462.65747l0 0c0 11.602325 9.405579 21.007874 21.007874 21.007874l0 0c5.5716553 0 10.9151 -2.2133179 14.854858 -6.1530457c3.9396973 -3.9397583 6.153015 -9.283173 6.153015 -14.854828l0 0c0 -11.602325 -9.405518 -21.007874 -21.007874 -21.007874l0 0c-11.602295 0 -21.007874 9.405548 -21.007874 21.007874z" fill-rule="nonzero"></path><path fill="#000000" fill-opacity="0.0" d="m739.3412 483.66534l0 -42.015747m-21.007874 21.007874l42.015747 0" fill-rule="nonzero"></path><path fill="#000000" fill-opacity="0.0" d="m718.3333 462.65747l0 0c0 11.602325 9.405579 21.007874 21.007874 21.007874l0 0c5.5716553 0 10.9151 -2.2133179 14.854858 -6.1530457c3.9396973 -3.9397583 6.153015 -9.283173 6.153015 -14.854828l0 0c0 -11.602325 -9.405518 -21.007874 -21.007874 -21.007874l0 0c-11.602295 0 -21.007874 9.405548 -21.007874 21.007874z" fill-rule="nonzero"></path><path stroke="#000000" stroke-width="1.0" stroke-linejoin="round" stroke-linecap="butt" d="m739.3412 483.66534l0 -42.015747m-21.007874 21.007874l42.015747 0" fill-rule="nonzero"></path><path stroke="#000000" stroke-width="1.0" stroke-linejoin="round" stroke-linecap="butt" d="m718.3333 462.65747l0 0c0 11.602325 9.405579 21.007874 21.007874 21.007874l0 0c5.5716553 0 10.9151 -2.2133179 14.854858 -6.1530457c3.9396973 -3.9397583 6.153015 -9.283173 6.153015 -14.854828l0 0c0 -11.602325 -9.405518 -21.007874 -21.007874 -21.007874l0 0c-11.602295 0 -21.007874 9.405548 -21.007874 21.007874z" fill-rule="nonzero"></path><path fill="#000000" fill-opacity="0.0" d="m739.3412 415.63385l0 26.015747" fill-rule="nonzero"></path><path stroke="#cc0000" stroke-width="1.0" stroke-linejoin="round" stroke-linecap="butt" stroke-dasharray="4.0,3.0" d="m739.3412 415.63385l0 20.015747" fill-rule="evenodd"></path><path fill="#cc0000" stroke="#cc0000" stroke-width="1.0" stroke-linecap="butt" d="m737.68945 435.6496l1.6517334 4.5381165l1.6517334 -4.5381165z" fill-rule="evenodd"></path><path fill="#000000" fill-opacity="0.0" d="m739.3412 483.66534l1.7322998 97.35437" fill-rule="nonzero"></path><path stroke="#cc0000" stroke-width="1.0" stroke-linejoin="round" stroke-linecap="butt" stroke-dasharray="4.0,3.0" d="m739.3412 483.66534l1.6256104 91.355286" fill-rule="evenodd"></path><path fill="#cc0000" stroke="#cc0000" stroke-width="1.0" stroke-linecap="butt" d="m739.31525 575.05005l1.7322388 4.5079956l1.5707397 -4.5667725z" fill-rule="evenodd"></path><path fill="#fff2cc" d="m844.97375 580.81757l79.46454 0l0 72.12598l-79.46454 0z" fill-rule="nonzero"></path><path stroke="#000000" stroke-width="1.0" stroke-linejoin="round" stroke-linecap="butt" d="m844.97375 580.81757l79.46454 0l0 72.12598l-79.46454 0z" fill-rule="nonzero"></path><path fill="#000000" d="m866.5967 610.9206l-2.0625 0l0 -10.703125q0 -0.5 0 -1.078125q0.015625 -0.578125 0.03125 -1.140625q0.015625 -0.5625 0.03125 -1.078125q0.03125 -0.53125 0.03125 -0.9375q-0.1875 0.21875 -0.34375 0.375q-0.15625 0.140625 -0.3125 0.28125q-0.15625 0.140625 -0.34375 0.3125q-0.171875 0.15625 -0.40625 0.359375l-1.734375 1.421875l-1.125 -1.4375l4.484375 -3.515625l1.75 0l0 17.140625zm13.21875 0l-2.0625 0l0 -10.703125q0 -0.5 0 -1.078125q0.015625 -0.578125 0.03125 -1.140625q0.015625 -0.5625 0.03125 -1.078125q0.03125 -0.53125 0.03125 -0.9375q-0.1875 0.21875 -0.34375 0.375q-0.15625 0.140625 -0.3125 0.28125q-0.15625 0.140625 -0.34375 0.3125q-0.171875 0.15625 -0.40625 0.359375l-1.734375 1.421875l-1.125 -1.4375l4.484375 -3.515625l1.75 0l0 17.140625zm13.21875 0l-2.0625 0l0 -10.703125q0 -0.5 0 -1.078125q0.015625 -0.578125 0.03125 -1.140625q0.015625 -0.5625 0.03125 -1.078125q0.03125 -0.53125 0.03125 -0.9375q-0.1875 0.21875 -0.34375 0.375q-0.15625 0.140625 -0.3125 0.28125q-0.15625 0.140625 -0.34375 0.3125q-0.171875 0.15625 -0.40625 0.359375l-1.734375 1.421875l-1.125 -1.4375l4.484375 -3.515625l1.75 0l0 17.140625zm16.984375 -8.59375q0 2.078125 -0.296875 3.71875q-0.296875 1.640625 -0.96875 2.78125q-0.65625 1.125 -1.703125 1.734375q-1.03125 0.59375 -2.53125 0.59375q-1.375 0 -2.40625 -0.59375q-1.015625 -0.609375 -1.703125 -1.734375q-0.671875 -1.140625 -1.0 -2.78125q-0.328125 -1.640625 -0.328125 -3.71875q0 -2.078125 0.296875 -3.71875q0.296875 -1.640625 0.9375 -2.765625q0.65625 -1.125 1.6875 -1.71875q1.046875 -0.609375 2.515625 -0.609375q1.40625 0 2.4375 0.59375q1.03125 0.59375 1.703125 1.734375q0.6875 1.125 1.015625 2.765625q0.34375 1.640625 0.34375 3.71875zm-8.78125 0q0 1.765625 0.171875 3.078125q0.1875 1.3125 0.5625 2.1875q0.390625 0.859375 1.015625 1.3125q0.640625 0.4375 1.53125 0.4375q0.90625 0 1.53125 -0.4375q0.640625 -0.4375 1.046875 -1.296875q0.40625 -0.875 0.578125 -2.1875q0.1875 -1.328125 0.1875 -3.09375q0 -1.75 -0.1875 -3.0625q-0.171875 -1.3125 -0.578125 -2.171875q-0.40625 -0.875 -1.046875 -1.3125q-0.625 -0.4375 -1.53125 -0.4375q-0.890625 0 -1.53125 0.4375q-0.625 0.4375 -1.015625 1.3125q-0.375 0.859375 -0.5625 2.171875q-0.171875 1.3125 -0.171875 3.0625z" fill-rule="nonzero"></path><path fill="#000000" d="m879.8154 639.9206l-2.0625 0l0 -10.703125q0 -0.5 0 -1.078125q0.015625 -0.578125 0.03125 -1.140625q0.015625 -0.5625 0.03125 -1.078125q0.03125 -0.53125 0.03125 -0.9375q-0.1875 0.21875 -0.34375 0.375q-0.15625 0.140625 -0.3125 0.28125q-0.15625 0.140625 -0.34375 0.3125q-0.171875 0.15625 -0.40625 0.359375l-1.734375 1.421875l-1.125 -1.4375l4.484375 -3.515625l1.75 0l0 17.140625zm17.625 -3.84375l-2.484375 0l0 3.84375l-2.0625 0l0 -3.84375l-7.921875 0l0 -1.859375l7.78125 -11.53125l2.203125 0l0 11.4375l2.484375 0l0 1.953125zm-4.546875 -1.953125l0 -4.171875q0 -0.65625 0.015625 -1.375q0.015625 -0.71875 0.03125 -1.40625q0.03125 -0.6875 0.0625 -1.28125q0.03125 -0.59375 0.03125 -1.0l-0.09375 0q-0.09375 0.234375 -0.21875 0.53125q-0.109375 0.28125 -0.265625 0.578125q-0.140625 0.28125 -0.296875 0.546875q-0.15625 0.265625 -0.28125 0.453125l-4.8125 7.125l5.828125 0z" fill-rule="nonzero"></path><path fill="#cfe2f3" d="m89.173225 818.1378l79.46458 0l0 72.12598l-79.46458 0z" fill-rule="nonzero"></path><path stroke="#000000" stroke-width="1.0" stroke-linejoin="round" stroke-linecap="butt" d="m89.173225 818.1378l79.46458 0l0 72.12598l-79.46458 0z" fill-rule="nonzero"></path><path fill="#1c4587" d="m119.733635 841.16266l0 7.078125l-2.1875 0l0 -17.140625l4.171875 0q3.125 0 4.609375 1.21875q1.484375 1.203125 1.484375 3.65625q0 1.015625 -0.28125 1.78125q-0.28125 0.75 -0.765625 1.296875q-0.46875 0.546875 -1.078125 0.921875q-0.609375 0.359375 -1.25 0.59375l4.6562576 7.671875l-2.5625076 0l-4.109375 -7.078125l-2.6875 0zm0 -1.859375l1.921875 0q1.046875 0 1.78125 -0.203125q0.75 -0.203125 1.21875 -0.609375q0.484375 -0.40625 0.6875 -1.0q0.21875 -0.609375 0.21875 -1.421875q0 -0.84375 -0.234375 -1.421875q-0.234375 -0.59375 -0.734375 -0.96875q-0.484375 -0.375 -1.234375 -0.53125q-0.734375 -0.171875 -1.75 -0.171875l-1.875 0l0 6.328125zm21.734383 0.34375q0 2.078125 -0.296875 3.71875q-0.296875 1.640625 -0.96875 2.78125q-0.65625 1.125 -1.703125 1.734375q-1.03125 0.59375 -2.53125 0.59375q-1.375 0 -2.40625 -0.59375q-1.015625 -0.609375 -1.703125 -1.734375q-0.671875 -1.140625 -1.0 -2.78125q-0.328125 -1.640625 -0.328125 -3.71875q0 -2.078125 0.296875 -3.71875q0.296875 -1.640625 0.9375 -2.765625q0.65625 -1.125 1.6875 -1.71875q1.046875 -0.609375 2.515625 -0.609375q1.40625 0 2.4375 0.59375q1.03125 0.59375 1.703125 1.734375q0.6875 1.125 1.015625 2.765625q0.34375 1.640625 0.34375 3.71875zm-8.78125 0q0 1.765625 0.171875 3.078125q0.1875 1.3125 0.5625 2.1875q0.390625 0.859375 1.015625 1.3125q0.640625 0.4375 1.53125 0.4375q0.90625 0 1.53125 -0.4375q0.640625 -0.4375 1.046875 -1.296875q0.40625 -0.875 0.578125 -2.1875q0.1875 -1.328125 0.1875 -3.09375q0 -1.75 -0.1875 -3.0625q-0.171875 -1.3125 -0.578125 -2.171875q-0.40625 -0.875 -1.046875 -1.3125q-0.625 -0.4375 -1.53125 -0.4375q-0.890625 0 -1.53125 0.4375q-0.625 0.4375 -1.015625 1.3125q-0.375 0.859375 -0.5625 2.171875q-0.171875 1.3125 -0.171875 3.0625z" fill-rule="nonzero"></path><path fill="#1c4587" d="m130.62427 877.2408l-2.0625 0l0 -10.703125q0 -0.5 0 -1.078125q0.015625 -0.578125 0.03125 -1.140625q0.015625 -0.5625 0.03125 -1.078125q0.03125 -0.53125 0.03125 -0.9375q-0.1875 0.21875 -0.34375 0.375q-0.15625 0.140625 -0.31250763 0.28125q-0.15625 0.140625 -0.34375 0.3125q-0.171875 0.15625 -0.40625 0.359375l-1.734375 1.421875l-1.125 -1.4375l4.4843826 -3.515625l1.75 0l0 17.140625z" fill-rule="nonzero"></path><path fill="#cfe2f3" d="m298.1548 818.1378l79.46457 0l0 72.12598l-79.46457 0z" fill-rule="nonzero"></path><path stroke="#000000" stroke-width="1.0" stroke-linejoin="round" stroke-linecap="butt" d="m298.1548 818.1378l79.46457 0l0 72.12598l-79.46457 0z" fill-rule="nonzero"></path><path fill="#1c4587" d="m328.71518 841.16266l0 7.078125l-2.1875 0l0 -17.140625l4.171875 0q3.125 0 4.609375 1.21875q1.484375 1.203125 1.484375 3.65625q0 1.015625 -0.28125 1.78125q-0.28125 0.75 -0.765625 1.296875q-0.46875 0.546875 -1.078125 0.921875q-0.609375 0.359375 -1.25 0.59375l4.65625 7.671875l-2.5625 0l-4.109375 -7.078125l-2.6875 0zm0 -1.859375l1.921875 0q1.046875 0 1.78125 -0.203125q0.75 -0.203125 1.21875 -0.609375q0.484375 -0.40625 0.6875 -1.0q0.21875 -0.609375 0.21875 -1.421875q0 -0.84375 -0.234375 -1.421875q-0.234375 -0.59375 -0.734375 -0.96875q-0.484375 -0.375 -1.234375 -0.53125q-0.734375 -0.171875 -1.75 -0.171875l-1.875 0l0 6.328125zm17.96875 8.9375l-2.0625 0l0 -10.703125q0 -0.5 0 -1.078125q0.015625 -0.578125 0.03125 -1.140625q0.015625 -0.5625 0.03125 -1.078125q0.03125 -0.53125 0.03125 -0.9375q-0.1875 0.21875 -0.34375 0.375q-0.15625 0.140625 -0.3125 0.28125q-0.15625 0.140625 -0.34375 0.3125q-0.171875 0.15625 -0.40625 0.359375l-1.734375 1.421875l-1.125 -1.4375l4.484375 -3.515625l1.75 0l0 17.140625z" fill-rule="nonzero"></path><path fill="#1c4587" d="m343.37143 868.64703q0 2.078125 -0.296875 3.71875q-0.296875 1.640625 -0.96875 2.78125q-0.65625 1.125 -1.703125 1.734375q-1.03125 0.59375 -2.53125 0.59375q-1.375 0 -2.40625 -0.59375q-1.015625 -0.609375 -1.703125 -1.734375q-0.671875 -1.140625 -1.0 -2.78125q-0.328125 -1.640625 -0.328125 -3.71875q0 -2.078125 0.296875 -3.71875q0.296875 -1.640625 0.9375 -2.765625q0.65625 -1.125 1.6875 -1.71875q1.046875 -0.609375 2.515625 -0.609375q1.40625 0 2.4375 0.59375q1.03125 0.59375 1.703125 1.734375q0.6875 1.125 1.015625 2.765625q0.34375 1.640625 0.34375 3.71875zm-8.78125 0q0 1.765625 0.171875 3.078125q0.1875 1.3125 0.5625 2.1875q0.390625 0.859375 1.015625 1.3125q0.640625 0.4375 1.53125 0.4375q0.90625 0 1.53125 -0.4375q0.640625 -0.4375 1.046875 -1.296875q0.40625 -0.875 0.578125 -2.1875q0.1875 -1.328125 0.1875 -3.09375q0 -1.75 -0.1875 -3.0625q-0.171875 -1.3125 -0.578125 -2.171875q-0.40625 -0.875 -1.046875 -1.3125q-0.625 -0.4375 -1.53125 -0.4375q-0.890625 0 -1.53125 0.4375q-0.625 0.4375 -1.015625 1.3125q-0.375 0.859375 -0.5625 2.171875q-0.171875 1.3125 -0.171875 3.0625z" fill-rule="nonzero"></path><path fill="#cfe2f3" d="m507.1366 818.1378l70.456665 0l0 72.12598l-70.456665 0z" fill-rule="nonzero"></path><path stroke="#000000" stroke-width="1.0" stroke-linejoin="round" stroke-linecap="butt" d="m507.1366 818.1378l70.456665 0l0 72.12598l-70.456665 0z" fill-rule="nonzero"></path><path fill="#1c4587" d="m533.19305 841.16266l0 7.078125l-2.1875 0l0 -17.140625l4.171875 0q3.125 0 4.609375 1.21875q1.484375 1.203125 1.484375 3.65625q0 1.015625 -0.28125 1.78125q-0.28125 0.75 -0.765625 1.296875q-0.46875 0.546875 -1.078125 0.921875q-0.609375 0.359375 -1.25 0.59375l4.65625 7.671875l-2.5625 0l-4.109375 -7.078125l-2.6875 0zm0 -1.859375l1.921875 0q1.046875 0 1.78125 -0.203125q0.75 -0.203125 1.21875 -0.609375q0.484375 -0.40625 0.6875 -1.0q0.21875 -0.609375 0.21875 -1.421875q0 -0.84375 -0.234375 -1.421875q-0.234375 -0.59375 -0.734375 -0.96875q-0.484375 -0.375 -1.234375 -0.53125q-0.734375 -0.171875 -1.75 -0.171875l-1.875 0l0 6.328125zm21.453125 8.9375l-10.6875 0l0 -1.828125l4.109375 -4.46875q0.875 -0.953125 1.5625 -1.734375q0.6875 -0.78125 1.171875 -1.53125q0.5 -0.75 0.75 -1.5q0.265625 -0.765625 0.265625 -1.65625q0 -0.6875 -0.203125 -1.21875q-0.203125 -0.53125 -0.578125 -0.890625q-0.359375 -0.375 -0.875 -0.5625q-0.5 -0.1875 -1.109375 -0.1875q-1.125 0 -2.015625 0.453125q-0.890625 0.453125 -1.703125 1.15625l-1.203125 -1.390625q0.46875 -0.421875 1.0 -0.796875q0.546875 -0.375 1.171875 -0.640625q0.625 -0.265625 1.3125 -0.421875q0.6875 -0.15625 1.453125 -0.15625q1.125 0 2.03125 0.3125q0.90625 0.3125 1.53125 0.90625q0.640625 0.59375 0.984375 1.453125q0.359375 0.84375 0.359375 1.90625q0 1.0 -0.3125 1.90625q-0.3125 0.890625 -0.859375 1.765625q-0.546875 0.875 -1.3125 1.75q-0.75 0.875 -1.625 1.828125l-3.296875 3.5l0 0.09375l8.078125 0l0 1.953125z" fill-rule="nonzero"></path><path fill="#1c4587" d="m544.0837 877.2408l-2.0625 0l0 -10.703125q0 -0.5 0 -1.078125q0.015625 -0.578125 0.03125 -1.140625q0.015625 -0.5625 0.03125 -1.078125q0.03125 -0.53125 0.03125 -0.9375q-0.1875 0.21875 -0.34375 0.375q-0.15625 0.140625 -0.3125 0.28125q-0.15625 0.140625 -0.34375 0.3125q-0.171875 0.15625 -0.40625 0.359375l-1.734375 1.421875l-1.125 -1.4375l4.484375 -3.515625l1.75 0l0 17.140625z" fill-rule="nonzero"></path><path fill="#cfe2f3" d="m706.5906 818.1378l70.456665 0l0 72.12598l-70.456665 0z" fill-rule="nonzero"></path><path stroke="#000000" stroke-width="1.0" stroke-linejoin="round" stroke-linecap="butt" d="m706.5906 818.1378l70.456665 0l0 72.12598l-70.456665 0z" fill-rule="nonzero"></path><path fill="#1c4587" d="m732.64703 841.16266l0 7.078125l-2.1875 0l0 -17.140625l4.171875 0q3.125 0 4.609375 1.21875q1.484375 1.203125 1.484375 3.65625q0 1.015625 -0.28125 1.78125q-0.28125 0.75 -0.765625 1.296875q-0.46875 0.546875 -1.078125 0.921875q-0.609375 0.359375 -1.25 0.59375l4.65625 7.671875l-2.5625 0l-4.109375 -7.078125l-2.6875 0zm0 -1.859375l1.921875 0q1.046875 0 1.78125 -0.203125q0.75 -0.203125 1.21875 -0.609375q0.484375 -0.40625 0.6875 -1.0q0.21875 -0.609375 0.21875 -1.421875q0 -0.84375 -0.234375 -1.421875q-0.234375 -0.59375 -0.734375 -0.96875q-0.484375 -0.375 -1.234375 -0.53125q-0.734375 -0.171875 -1.75 -0.171875l-1.875 0l0 6.328125zm20.90625 -4.1875q0 0.859375 -0.28125 1.5625q-0.265625 0.703125 -0.75 1.21875q-0.484375 0.515625 -1.171875 0.84375q-0.671875 0.328125 -1.5 0.46875l0 0.078125q2.078125 0.25 3.15625 1.3125q1.078125 1.0625 1.078125 2.765625q0 1.125 -0.390625 2.0625q-0.375 0.9375 -1.15625 1.625q-0.765625 0.671875 -1.953125 1.046875q-1.1875 0.375 -2.796875 0.375q-1.28125 0 -2.421875 -0.203125q-1.125 -0.203125 -2.109375 -0.71875l0 -2.0q1.015625 0.546875 2.203125 0.84375q1.1875 0.28125 2.28125 0.28125q1.078125 0 1.859375 -0.234375q0.78125 -0.234375 1.296875 -0.65625q0.515625 -0.4375 0.75 -1.0625q0.234375 -0.640625 0.234375 -1.4375q0 -0.796875 -0.3125 -1.359375q-0.296875 -0.5625 -0.875 -0.9375q-0.578125 -0.375 -1.40625 -0.546875q-0.828125 -0.171875 -1.859375 -0.171875l-1.5625 0l0 -1.765625l1.5625 0q0.9375 0 1.671875 -0.234375q0.75 -0.234375 1.25 -0.671875q0.5 -0.4375 0.75 -1.03125q0.265625 -0.59375 0.265625 -1.3125q0 -0.609375 -0.21875 -1.09375q-0.203125 -0.484375 -0.59375 -0.8125q-0.390625 -0.328125 -0.9375 -0.5q-0.53125 -0.1875 -1.1875 -0.1875q-1.25 0 -2.203125 0.390625q-0.953125 0.390625 -1.828125 1.03125l-1.078125 -1.46875q0.453125 -0.359375 0.984375 -0.671875q0.546875 -0.328125 1.1875 -0.5625q0.65625 -0.234375 1.390625 -0.375q0.734375 -0.140625 1.546875 -0.140625q1.265625 0 2.21875 0.3125q0.953125 0.3125 1.59375 0.890625q0.65625 0.5625 0.984375 1.34375q0.328125 0.78125 0.328125 1.703125z" fill-rule="nonzero"></path><path fill="#1c4587" d="m747.3033 868.64703q0 2.078125 -0.296875 3.71875q-0.296875 1.640625 -0.96875 2.78125q-0.65625 1.125 -1.703125 1.734375q-1.03125 0.59375 -2.53125 0.59375q-1.375 0 -2.40625 -0.59375q-1.015625 -0.609375 -1.703125 -1.734375q-0.671875 -1.140625 -1.0 -2.78125q-0.328125 -1.640625 -0.328125 -3.71875q0 -2.078125 0.296875 -3.71875q0.296875 -1.640625 0.9375 -2.765625q0.65625 -1.125 1.6875 -1.71875q1.046875 -0.609375 2.515625 -0.609375q1.40625 0 2.4375 0.59375q1.03125 0.59375 1.703125 1.734375q0.6875 1.125 1.015625 2.765625q0.34375 1.640625 0.34375 3.71875zm-8.78125 0q0 1.765625 0.171875 3.078125q0.1875 1.3125 0.5625 2.1875q0.390625 0.859375 1.015625 1.3125q0.640625 0.4375 1.53125 0.4375q0.90625 0 1.53125 -0.4375q0.640625 -0.4375 1.046875 -1.296875q0.40625 -0.875 0.578125 -2.1875q0.1875 -1.328125 0.1875 -3.09375q0 -1.75 -0.1875 -3.0625q-0.171875 -1.3125 -0.578125 -2.171875q-0.40625 -0.875 -1.046875 -1.3125q-0.625 -0.4375 -1.53125 -0.4375q-0.890625 0 -1.53125 0.4375q-0.625 0.4375 -1.015625 1.3125q-0.375 0.859375 -0.5625 2.171875q-0.171875 1.3125 -0.171875 3.0625z" fill-rule="nonzero"></path><path fill="#000000" fill-opacity="0.0" d="m168.6378 854.2008l129.5118 0" fill-rule="nonzero"></path><path stroke="#000000" stroke-width="2.0" stroke-linejoin="round" stroke-linecap="butt" d="m168.6378 854.2008l117.511795 0" fill-rule="evenodd"></path><path fill="#000000" stroke="#000000" stroke-width="2.0" stroke-linecap="butt" d="m286.1496 857.5043l9.076202 -3.3034668l-9.076202 -3.3034668z" fill-rule="evenodd"></path><path fill="#000000" fill-opacity="0.0" d="m377.61935 854.2008l129.51181 0" fill-rule="nonzero"></path><path stroke="#000000" stroke-width="2.0" stroke-linejoin="round" stroke-linecap="butt" d="m377.61935 854.2008l117.51181 0" fill-rule="evenodd"></path><path fill="#000000" stroke="#000000" stroke-width="2.0" stroke-linecap="butt" d="m495.13116 857.5043l9.076172 -3.3034668l-9.076172 -3.3034668z" fill-rule="evenodd"></path><path fill="#000000" fill-opacity="0.0" d="m577.59326 854.2008l129.00787 0" fill-rule="nonzero"></path><path stroke="#000000" stroke-width="2.0" stroke-linejoin="round" stroke-linecap="butt" d="m577.5933 854.2008l117.00781 0" fill-rule="evenodd"></path><path fill="#000000" stroke="#000000" stroke-width="2.0" stroke-linecap="butt" d="m694.60114 857.5043l9.076172 -3.3034668l-9.076172 -3.3034668z" fill-rule="evenodd"></path><path fill="#000000" fill-opacity="0.0" d="m777.04724 854.2008l55.370056 0" fill-rule="nonzero"></path><path stroke="#000000" stroke-width="2.0" stroke-linejoin="round" stroke-linecap="butt" d="m777.04724 854.2008l55.370056 0" fill-rule="nonzero"></path><path fill="#000000" fill-opacity="0.0" d="m831.20447 856.7441l0 -121.921265" fill-rule="nonzero"></path><path stroke="#000000" stroke-width="2.0" stroke-linejoin="round" stroke-linecap="butt" d="m831.20447 856.7441l0 -121.921265" fill-rule="nonzero"></path><path fill="#000000" fill-opacity="0.0" d="m633.3412 736.06824l-616.34644 0" fill-rule="nonzero"></path><path stroke="#000000" stroke-width="2.0" stroke-linejoin="round" stroke-linecap="butt" d="m633.3412 736.06824l-616.34644 0" fill-rule="nonzero"></path><path fill="#000000" fill-opacity="0.0" d="m17.749363 735.6417l0 120.28345" fill-rule="nonzero"></path><path stroke="#000000" stroke-width="2.0" stroke-linejoin="round" stroke-linecap="butt" d="m17.749363 735.6417l0 120.28345" fill-rule="nonzero"></path><path fill="#000000" fill-opacity="0.0" d="m18.716536 853.7913l70.45669 0.40948486" fill-rule="nonzero"></path><path stroke="#000000" stroke-width="2.0" stroke-linejoin="round" stroke-linecap="butt" d="m18.716536 853.7913l58.456894 0.33972168" fill-rule="evenodd"></path><path fill="#000000" stroke="#000000" stroke-width="2.0" stroke-linecap="butt" d="m77.154236 857.43445l9.095238 -3.2506714l-9.056847 -3.3561401z" fill-rule="evenodd"></path><path fill="#000000" fill-opacity="0.0" d="m832.7638 735.6706l-199.65356 0" fill-rule="nonzero"></path><path stroke="#000000" stroke-width="2.0" stroke-linejoin="round" stroke-linecap="butt" d="m832.7638 735.6706l-187.65356 0" fill-rule="evenodd"></path><path fill="#000000" stroke="#000000" stroke-width="2.0" stroke-linecap="butt" d="m645.1102 732.3671l-9.076172 3.3034668l9.076172 3.3034668z" fill-rule="evenodd"></path><path fill="#cfe2f3" d="m612.10236 854.00134l0 0c0 11.602295 9.405579 21.007874 21.007874 21.007874l0 0c5.5716553 0 10.9151 -2.213379 14.854797 -6.153076c3.9397583 -3.9397583 6.153076 -9.283203 6.153076 -14.854797l0 0c0 -11.602356 -9.405518 -21.007935 -21.007874 -21.007935l0 0c-11.602295 0 -21.007874 9.405579 -21.007874 21.007935z" fill-rule="nonzero"></path><path fill="#000000" fill-opacity="0.0" d="m633.1102 875.0092l0 -42.01581m-21.007874 21.007935l42.015747 0" fill-rule="nonzero"></path><path fill="#000000" fill-opacity="0.0" d="m612.10236 854.00134l0 0c0 11.602295 9.405579 21.007874 21.007874 21.007874l0 0c5.5716553 0 10.9151 -2.213379 14.854797 -6.153076c3.9397583 -3.9397583 6.153076 -9.283203 6.153076 -14.854797l0 0c0 -11.602356 -9.405518 -21.007935 -21.007874 -21.007935l0 0c-11.602295 0 -21.007874 9.405579 -21.007874 21.007935z" fill-rule="nonzero"></path><path stroke="#000000" stroke-width="1.0" stroke-linejoin="round" stroke-linecap="butt" d="m633.1102 875.0092l0 -42.01581m-21.007874 21.007935l42.015747 0" fill-rule="nonzero"></path><path stroke="#000000" stroke-width="1.0" stroke-linejoin="round" stroke-linecap="butt" d="m612.10236 854.00134l0 0c0 11.602295 9.405579 21.007874 21.007874 21.007874l0 0c5.5716553 0 10.9151 -2.213379 14.854797 -6.153076c3.9397583 -3.9397583 6.153076 -9.283203 6.153076 -14.854797l0 0c0 -11.602356 -9.405518 -21.007935 -21.007874 -21.007935l0 0c-11.602295 0 -21.007874 9.405579 -21.007874 21.007935z" fill-rule="nonzero"></path><path fill="#000000" fill-opacity="0.0" d="m633.1102 832.9934l0 -98.17322" fill-rule="nonzero"></path><path stroke="#000000" stroke-width="2.0" stroke-linejoin="round" stroke-linecap="butt" d="m633.1102 820.9934l0 -86.17322" fill-rule="evenodd"></path><path fill="#000000" stroke="#000000" stroke-width="2.0" stroke-linecap="butt" d="m629.80676 820.99347l3.3034668 9.076172l3.3034668 -9.076172z" fill-rule="evenodd"></path><path fill="#000000" fill-opacity="0.0" d="m740.0866 652.75195l-611.1811 165.38586" fill-rule="nonzero"></path><path stroke="#cc0000" stroke-width="1.0" stroke-linejoin="round" stroke-linecap="butt" stroke-dasharray="4.0,3.0" d="m740.0866 652.75195l-605.3894 163.8186" fill-rule="evenodd"></path><path fill="#cc0000" stroke="#cc0000" stroke-width="1.0" stroke-linecap="butt" d="m134.26576 814.9762l-3.9490967 2.7797241l4.811981 0.40905762z" fill-rule="evenodd"></path><path fill="#000000" fill-opacity="0.0" d="m127.1784 652.75195l210.70865 165.38586" fill-rule="nonzero"></path><path stroke="#cc0000" stroke-width="1.0" stroke-linejoin="round" stroke-linecap="butt" stroke-dasharray="4.0,3.0" d="m127.1784 652.75195l205.98886 161.68127" fill-rule="evenodd"></path><path fill="#cc0000" stroke="#cc0000" stroke-width="1.0" stroke-linecap="butt" d="m332.14746 815.73254l4.58963 1.5026245l-2.5499878 -4.1012573z" fill-rule="evenodd"></path><path fill="#000000" fill-opacity="0.0" d="m336.16022 652.75195l206.20471 165.38586" fill-rule="nonzero"></path><path stroke="#cc0000" stroke-width="1.0" stroke-linejoin="round" stroke-linecap="butt" stroke-dasharray="4.0,3.0" d="m336.16022 652.75195l201.52423 161.63184" fill-rule="evenodd"></path><path fill="#cc0000" stroke="#cc0000" stroke-width="1.0" stroke-linecap="butt" d="m536.651 815.6723l4.5735474 1.5508423l-2.5067139 -4.1278687z" fill-rule="evenodd"></path><path fill="#000000" fill-opacity="0.0" d="m540.63257 652.7493l178.45667 47.02362" fill-rule="nonzero"></path><path stroke="#cc0000" stroke-width="1.0" stroke-linejoin="round" stroke-linecap="butt" stroke-dasharray="4.0,3.0" d="m540.63257 652.7493l172.65472 45.494873" fill-rule="evenodd"></path><path fill="#cc0000" stroke="#cc0000" stroke-width="1.0" stroke-linecap="butt" d="m712.8664 699.8414l4.809204 -0.44091797l-3.9674683 -2.75354z" fill-rule="evenodd"></path><path fill="#cc4125" d="m719.08923 699.77295l0 0c0 11.602356 9.405579 21.007874 21.007874 21.007874l0 0c5.5716553 0 10.9151 -2.2133179 14.854797 -6.153076c3.9397583 -3.9396973 6.153076 -9.283142 6.153076 -14.854797l0 0c0 -11.602295 -9.405518 -21.007874 -21.007874 -21.007874l0 0c-11.602295 0 -21.007874 9.405579 -21.007874 21.007874z" fill-rule="nonzero"></path><path fill="#000000" fill-opacity="0.0" d="m740.0971 720.7808l0 -42.015747m-21.007874 21.007874l42.015747 0" fill-rule="nonzero"></path><path fill="#000000" fill-opacity="0.0" d="m719.08923 699.77295l0 0c0 11.602356 9.405579 21.007874 21.007874 21.007874l0 0c5.5716553 0 10.9151 -2.2133179 14.854797 -6.153076c3.9397583 -3.9396973 6.153076 -9.283142 6.153076 -14.854797l0 0c0 -11.602295 -9.405518 -21.007874 -21.007874 -21.007874l0 0c-11.602295 0 -21.007874 9.405579 -21.007874 21.007874z" fill-rule="nonzero"></path><path stroke="#000000" stroke-width="1.0" stroke-linejoin="round" stroke-linecap="butt" d="m740.0971 720.7808l0 -42.015747m-21.007874 21.007874l42.015747 0" fill-rule="nonzero"></path><path stroke="#000000" stroke-width="1.0" stroke-linejoin="round" stroke-linecap="butt" d="m719.08923 699.77295l0 0c0 11.602356 9.405579 21.007874 21.007874 21.007874l0 0c5.5716553 0 10.9151 -2.2133179 14.854797 -6.153076c3.9397583 -3.9396973 6.153076 -9.283142 6.153076 -14.854797l0 0c0 -11.602295 -9.405518 -21.007874 -21.007874 -21.007874l0 0c-11.602295 0 -21.007874 9.405579 -21.007874 21.007874z" fill-rule="nonzero"></path><path fill="#000000" fill-opacity="0.0" d="m740.0971 720.7808l1.7322998 97.35437" fill-rule="nonzero"></path><path stroke="#cc0000" stroke-width="1.0" stroke-linejoin="round" stroke-linecap="butt" stroke-dasharray="4.0,3.0" d="m740.0971 720.7808l1.6256104 91.35535" fill-rule="evenodd"></path><path fill="#cc0000" stroke="#cc0000" stroke-width="1.0" stroke-linecap="butt" d="m740.07117 812.1655l1.7322388 4.5079956l1.5707397 -4.5667725z" fill-rule="evenodd"></path><path fill="#fff2cc" d="m844.97375 817.93567l79.46454 0l0 72.12604l-79.46454 0z" fill-rule="nonzero"></path><path stroke="#000000" stroke-width="1.0" stroke-linejoin="round" stroke-linecap="butt" d="m844.97375 817.93567l79.46454 0l0 72.12604l-79.46454 0z" fill-rule="nonzero"></path><path fill="#000000" d="m870.3623 839.44495q0 2.078125 -0.296875 3.71875q-0.296875 1.640625 -0.96875 2.78125q-0.65625 1.125 -1.703125 1.734375q-1.03125 0.59375 -2.53125 0.59375q-1.375 0 -2.40625 -0.59375q-1.015625 -0.609375 -1.703125 -1.734375q-0.671875 -1.140625 -1.0 -2.78125q-0.328125 -1.640625 -0.328125 -3.71875q0 -2.078125 0.296875 -3.71875q0.296875 -1.640625 0.9375 -2.765625q0.65625 -1.125 1.6875 -1.71875q1.046875 -0.609375 2.515625 -0.609375q1.40625 0 2.4375 0.59375q1.03125 0.59375 1.703125 1.734375q0.6875 1.125 1.015625 2.765625q0.34375 1.640625 0.34375 3.71875zm-8.78125 0q0 1.765625 0.171875 3.078125q0.1875 1.3125 0.5625 2.1875q0.390625 0.859375 1.015625 1.3125q0.640625 0.4375 1.53125 0.4375q0.90625 0 1.53125 -0.4375q0.640625 -0.4375 1.046875 -1.296875q0.40625 -0.875 0.578125 -2.1875q0.1875 -1.328125 0.1875 -3.09375q0 -1.75 -0.1875 -3.0625q-0.171875 -1.3125 -0.578125 -2.171875q-0.40625 -0.875 -1.046875 -1.3125q-0.625 -0.4375 -1.53125 -0.4375q-0.890625 0 -1.53125 0.4375q-0.625 0.4375 -1.015625 1.3125q-0.375 0.859375 -0.5625 2.171875q-0.171875 1.3125 -0.171875 3.0625zm18.234375 8.59375l-2.0625 0l0 -10.703125q0 -0.5 0 -1.078125q0.015625 -0.578125 0.03125 -1.140625q0.015625 -0.5625 0.03125 -1.078125q0.03125 -0.53125 0.03125 -0.9375q-0.1875 0.21875 -0.34375 0.375q-0.15625 0.140625 -0.3125 0.28125q-0.15625 0.140625 -0.34375 0.3125q-0.171875 0.15625 -0.40625 0.359375l-1.734375 1.421875l-1.125 -1.4375l4.484375 -3.515625l1.75 0l0 17.140625zm16.984375 -8.59375q0 2.078125 -0.296875 3.71875q-0.296875 1.640625 -0.96875 2.78125q-0.65625 1.125 -1.703125 1.734375q-1.03125 0.59375 -2.53125 0.59375q-1.375 0 -2.40625 -0.59375q-1.015625 -0.609375 -1.703125 -1.734375q-0.671875 -1.140625 -1.0 -2.78125q-0.328125 -1.640625 -0.328125 -3.71875q0 -2.078125 0.296875 -3.71875q0.296875 -1.640625 0.9375 -2.765625q0.65625 -1.125 1.6875 -1.71875q1.046875 -0.609375 2.515625 -0.609375q1.40625 0 2.4375 0.59375q1.03125 0.59375 1.703125 1.734375q0.6875 1.125 1.015625 2.765625q0.34375 1.640625 0.34375 3.71875zm-8.78125 0q0 1.765625 0.171875 3.078125q0.1875 1.3125 0.5625 2.1875q0.390625 0.859375 1.015625 1.3125q0.640625 0.4375 1.53125 0.4375q0.90625 0 1.53125 -0.4375q0.640625 -0.4375 1.046875 -1.296875q0.40625 -0.875 0.578125 -2.1875q0.1875 -1.328125 0.1875 -3.09375q0 -1.75 -0.1875 -3.0625q-0.171875 -1.3125 -0.578125 -2.171875q-0.40625 -0.875 -1.046875 -1.3125q-0.625 -0.4375 -1.53125 -0.4375q-0.890625 0 -1.53125 0.4375q-0.625 0.4375 -1.015625 1.3125q-0.375 0.859375 -0.5625 2.171875q-0.171875 1.3125 -0.171875 3.0625zm18.234375 8.59375l-2.0625 0l0 -10.703125q0 -0.5 0 -1.078125q0.015625 -0.578125 0.03125 -1.140625q0.015625 -0.5625 0.03125 -1.078125q0.03125 -0.53125 0.03125 -0.9375q-0.1875 0.21875 -0.34375 0.375q-0.15625 0.140625 -0.3125 0.28125q-0.15625 0.140625 -0.34375 0.3125q-0.171875 0.15625 -0.40625 0.359375l-1.734375 1.421875l-1.125 -1.4375l4.484375 -3.515625l1.75 0l0 17.140625z" fill-rule="nonzero"></path><path fill="#000000" d="m884.4873 866.5231q1.15625 0 2.15625 0.328125q1.0 0.3125 1.75 0.953125q0.75 0.625 1.171875 1.5625q0.421875 0.9375 0.421875 2.171875q0 1.34375 -0.40625 2.40625q-0.390625 1.0625 -1.1875 1.8125q-0.78125 0.734375 -1.9375 1.125q-1.15625 0.390625 -2.65625 0.390625q-0.59375 0 -1.171875 -0.0625q-0.578125 -0.046875 -1.109375 -0.171875q-0.53125 -0.109375 -1.015625 -0.28125q-0.484375 -0.171875 -0.875 -0.40625l0 -2.015625q0.390625 0.265625 0.90625 0.484375q0.53125 0.203125 1.09375 0.34375q0.578125 0.140625 1.15625 0.21875q0.59375 0.078125 1.078125 0.078125q0.921875 0 1.640625 -0.21875q0.734375 -0.21875 1.234375 -0.671875q0.515625 -0.46875 0.78125 -1.15625q0.265625 -0.6875 0.265625 -1.640625q0 -1.671875 -1.03125 -2.546875q-1.03125 -0.890625 -3.0 -0.890625q-0.3125 0 -0.6875 0.03125q-0.359375 0.015625 -0.734375 0.0625q-0.359375 0.046875 -0.703125 0.109375q-0.328125 0.046875 -0.578125 0.09375l-1.046875 -0.671875l0.640625 -8.0625l8.078125 0l0 1.953125l-6.234375 0l-0.453125 4.90625q0.375 -0.0625 0.984375 -0.140625q0.625 -0.09375 1.46875 -0.09375z" fill-rule="nonzero"></path><path fill="#000000" fill-opacity="0.0" d="m741.8189 652.75195l0 26.015747" fill-rule="nonzero"></path><path stroke="#cc0000" stroke-width="1.0" stroke-linejoin="round" stroke-linecap="butt" stroke-dasharray="4.0,3.0" d="m741.8189 652.75195l0 20.015747" fill-rule="evenodd"></path><path fill="#cc0000" stroke="#cc0000" stroke-width="1.0" stroke-linecap="butt" d="m740.1672 672.7677l1.6517334 4.538086l1.6517334 -4.538086z" fill-rule="evenodd"></path></g></svg>

