<?xml version="1.0" standalone="yes"?>

<svg version="1.1" viewBox="0.0 0.0 925.7480314960629 230.36482939632546" fill="none" stroke="none" stroke-linecap="square" stroke-miterlimit="10" xmlns="http://www.w3.org/2000/svg" xmlns:xlink="http://www.w3.org/1999/xlink"><clipPath id="p.0"><path d="m0 0l925.74805 0l0 230.36482l-925.74805 0l0 -230.36482z" clip-rule="nonzero"></path></clipPath><g clip-path="url(#p.0)"><path fill="#000000" fill-opacity="0.0" d="m0 0l925.74805 0l0 230.36482l-925.74805 0z" fill-rule="nonzero"></path><path fill="#cfe2f3" d="m108.973755 106.38976l79.46457 0l0 72.125984l-79.46457 0z" fill-rule="nonzero"></path><path stroke="#000000" stroke-width="1.0" stroke-linejoin="round" stroke-linecap="butt" d="m108.973755 106.38976l79.46457 0l0 72.125984l-79.46457 0z" fill-rule="nonzero"></path><path fill="#1c4587" d="m150.42479 150.99275l-2.0625 0l0 -10.703125q0 -0.5 0 -1.078125q0.015625 -0.578125 0.03125 -1.140625q0.015625 -0.5625 0.03125 -1.078125q0.03125 -0.53125 0.03125 -0.9375q-0.1875 0.21875 -0.34375 0.375q-0.15625 0.140625 -0.3125 0.28125q-0.15625 0.140625 -0.34375 0.3125q-0.171875 0.15625 -0.40625 0.359375l-1.734375 1.421875l-1.125 -1.4375l4.484375 -3.515625l1.75 0l0 17.140625z" fill-rule="nonzero"></path><path fill="#cfe2f3" d="m317.9553 106.38976l79.46457 0l0 72.125984l-79.46457 0z" fill-rule="nonzero"></path><path stroke="#000000" stroke-width="1.0" stroke-linejoin="round" stroke-linecap="butt" d="m317.9553 106.38976l79.46457 0l0 72.125984l-79.46457 0z" fill-rule="nonzero"></path><path fill="#1c4587" d="m362.89072 150.99275l-10.6875 0l0 -1.828125l4.109375 -4.46875q0.875 -0.953125 1.5625 -1.734375q0.6875 -0.78125 1.171875 -1.53125q0.5 -0.75 0.75 -1.5q0.265625 -0.765625 0.265625 -1.65625q0 -0.6875 -0.203125 -1.21875q-0.203125 -0.53125 -0.578125 -0.890625q-0.359375 -0.375 -0.875 -0.5625q-0.5 -0.1875 -1.109375 -0.1875q-1.125 0 -2.015625 0.453125q-0.890625 0.453125 -1.703125 1.15625l-1.203125 -1.390625q0.46875 -0.421875 1.0 -0.796875q0.546875 -0.375 1.171875 -0.640625q0.625 -0.265625 1.3125 -0.421875q0.6875 -0.15625 1.453125 -0.15625q1.125 0 2.03125 0.3125q0.90625 0.3125 1.53125 0.90625q0.640625 0.59375 0.984375 1.453125q0.359375 0.84375 0.359375 1.90625q0 1.0 -0.3125 1.90625q-0.3125 0.890625 -0.859375 1.765625q-0.546875 0.875 -1.3125 1.75q-0.75 0.875 -1.625 1.828125l-3.296875 3.5l0 0.09375l8.078125 0l0 1.953125z" fill-rule="nonzero"></path><path fill="#cfe2f3" d="m526.93713 106.38976l70.456665 0l0 72.125984l-70.456665 0z" fill-rule="nonzero"></path><path stroke="#000000" stroke-width="1.0" stroke-linejoin="round" stroke-linecap="butt" d="m526.93713 106.38976l70.456665 0l0 72.125984l-70.456665 0z" fill-rule="nonzero"></path><path fill="#1c4587" d="m566.8217 137.86775q0 0.859375 -0.28125 1.5625q-0.265625 0.703125 -0.75 1.21875q-0.484375 0.515625 -1.171875 0.84375q-0.671875 0.328125 -1.5 0.46875l0 0.078125q2.078125 0.25 3.15625 1.3125q1.078125 1.0625 1.078125 2.765625q0 1.125 -0.390625 2.0625q-0.375 0.9375 -1.15625 1.625q-0.765625 0.671875 -1.953125 1.046875q-1.1875 0.375 -2.796875 0.375q-1.28125 0 -2.421875 -0.203125q-1.125 -0.203125 -2.109375 -0.71875l0 -2.0q1.015625 0.546875 2.203125 0.84375q1.1875 0.28125 2.28125 0.28125q1.078125 0 1.859375 -0.234375q0.78125 -0.234375 1.296875 -0.65625q0.515625 -0.4375 0.75 -1.0625q0.234375 -0.640625 0.234375 -1.4375q0 -0.796875 -0.3125 -1.359375q-0.296875 -0.5625 -0.875 -0.9375q-0.578125 -0.375 -1.40625 -0.546875q-0.828125 -0.171875 -1.859375 -0.171875l-1.5625 0l0 -1.765625l1.5625 0q0.9375 0 1.671875 -0.234375q0.75 -0.234375 1.25 -0.671875q0.5 -0.4375 0.75 -1.03125q0.265625 -0.59375 0.265625 -1.3125q0 -0.609375 -0.21875 -1.09375q-0.203125 -0.484375 -0.59375 -0.8125q-0.390625 -0.328125 -0.9375 -0.5q-0.53125 -0.1875 -1.1875 -0.1875q-1.25 0 -2.203125 0.390625q-0.953125 0.390625 -1.828125 1.03125l-1.078125 -1.46875q0.453125 -0.359375 0.984375 -0.671875q0.546875 -0.328125 1.1875 -0.5625q0.65625 -0.234375 1.390625 -0.375q0.734375 -0.140625 1.546875 -0.140625q1.265625 0 2.21875 0.3125q0.953125 0.3125 1.59375 0.890625q0.65625 0.5625 0.984375 1.34375q0.328125 0.78125 0.328125 1.703125z" fill-rule="nonzero"></path><path fill="#cfe2f3" d="m726.39105 106.38976l70.456726 0l0 72.125984l-70.456726 0z" fill-rule="nonzero"></path><path stroke="#000000" stroke-width="1.0" stroke-linejoin="round" stroke-linecap="butt" d="m726.39105 106.38976l70.456726 0l0 72.125984l-70.456726 0z" fill-rule="nonzero"></path><path fill="#1c4587" d="m767.74445 147.149l-2.484375 0l0 3.84375l-2.0625 0l0 -3.84375l-7.921875 0l0 -1.859375l7.78125 -11.53125l2.203125 0l0 11.4375l2.484375 0l0 1.953125zm-4.546875 -1.953125l0 -4.171875q0 -0.65625 0.015625 -1.375q0.015625 -0.71875 0.03125 -1.40625q0.03125 -0.6875 0.0625 -1.28125q0.03125 -0.59375 0.03125 -1.0l-0.09375 0q-0.09375 0.234375 -0.21875 0.53125q-0.109375 0.28125 -0.265625 0.578125q-0.140625 0.28125 -0.296875 0.546875q-0.15625 0.265625 -0.28125 0.453125l-4.8125 7.125l5.828125 0z" fill-rule="nonzero"></path><path fill="#000000" fill-opacity="0.0" d="m188.43832 142.45276l129.51181 0" fill-rule="nonzero"></path><path stroke="#000000" stroke-width="2.0" stroke-linejoin="round" stroke-linecap="butt" d="m188.43832 142.45276l117.51181 0" fill-rule="evenodd"></path><path fill="#000000" stroke="#000000" stroke-width="2.0" stroke-linecap="butt" d="m305.95013 145.75623l9.076202 -3.3034668l-9.076202 -3.3034668z" fill-rule="evenodd"></path><path fill="#000000" fill-opacity="0.0" d="m397.41986 142.45276l129.51184 0" fill-rule="nonzero"></path><path stroke="#000000" stroke-width="2.0" stroke-linejoin="round" stroke-linecap="butt" d="m397.41986 142.45276l117.51184 0" fill-rule="evenodd"></path><path fill="#000000" stroke="#000000" stroke-width="2.0" stroke-linecap="butt" d="m514.9317 145.75623l9.076172 -3.3034668l-9.076172 -3.3034668z" fill-rule="evenodd"></path><path fill="#000000" fill-opacity="0.0" d="m597.3938 142.45276l129.00787 0" fill-rule="nonzero"></path><path stroke="#000000" stroke-width="2.0" stroke-linejoin="round" stroke-linecap="butt" d="m597.3938 142.45276l117.00787 0" fill-rule="evenodd"></path><path fill="#000000" stroke="#000000" stroke-width="2.0" stroke-linecap="butt" d="m714.4017 145.75623l9.076172 -3.3034668l-9.076172 -3.3034668z" fill-rule="evenodd"></path><path fill="#000000" fill-opacity="0.0" d="m796.8478 142.45276l108.31494 0" fill-rule="nonzero"></path><path stroke="#000000" stroke-width="2.0" stroke-linejoin="round" stroke-linecap="butt" d="m796.8478 142.45276l96.31494 0" fill-rule="evenodd"></path><path fill="#000000" stroke="#000000" stroke-width="2.0" stroke-linecap="butt" d="m893.1627 145.75623l9.076233 -3.3034668l-9.076233 -3.3034668z" fill-rule="evenodd"></path><path fill="#000000" fill-opacity="0.0" d="m851.00494 144.99606l0 -121.921265" fill-rule="nonzero"></path><path stroke="#000000" stroke-width="2.0" stroke-linejoin="round" stroke-linecap="butt" d="m851.00494 144.99606l0 -121.921265" fill-rule="nonzero"></path><path fill="#000000" fill-opacity="0.0" d="m653.1417 24.32021l-616.34644 0" fill-rule="nonzero"></path><path stroke="#000000" stroke-width="2.0" stroke-linejoin="round" stroke-linecap="butt" d="m653.1417 24.32021l-616.34644 0" fill-rule="nonzero"></path><path fill="#000000" fill-opacity="0.0" d="m37.54989 23.893702l0 120.28347" fill-rule="nonzero"></path><path stroke="#000000" stroke-width="2.0" stroke-linejoin="round" stroke-linecap="butt" d="m37.54989 23.893702l0 120.28347" fill-rule="nonzero"></path><path fill="#000000" fill-opacity="0.0" d="m38.51706 142.0433l70.456696 0.40945435" fill-rule="nonzero"></path><path stroke="#000000" stroke-width="2.0" stroke-linejoin="round" stroke-linecap="butt" d="m38.51706 142.0433l58.4569 0.33970642" fill-rule="evenodd"></path><path fill="#000000" stroke="#000000" stroke-width="2.0" stroke-linecap="butt" d="m96.95476 145.68643l9.095238 -3.2506714l-9.056839 -3.3561554z" fill-rule="evenodd"></path><path fill="#000000" fill-opacity="0.0" d="m852.56433 23.922573l-199.65356 0" fill-rule="nonzero"></path><path stroke="#000000" stroke-width="2.0" stroke-linejoin="round" stroke-linecap="butt" d="m852.56433 23.922573l-187.65356 0" fill-rule="evenodd"></path><path fill="#000000" stroke="#000000" stroke-width="2.0" stroke-linecap="butt" d="m664.91077 20.619108l-9.076172 3.303465l9.076172 3.303465z" fill-rule="evenodd"></path><path fill="#cfe2f3" d="m631.9029 142.25328l0 0c0 11.602325 9.405518 21.007874 21.007874 21.007874l0 0c5.5716553 0 10.915039 -2.2133179 14.854797 -6.153061c3.9397583 -3.939743 6.153076 -9.283173 6.153076 -14.854813l0 0c0 -11.602325 -9.405579 -21.007874 -21.007874 -21.007874l0 0c-11.602356 0 -21.007874 9.405548 -21.007874 21.007874z" fill-rule="nonzero"></path><path fill="#000000" fill-opacity="0.0" d="m652.91077 163.26115l0 -42.015747m-21.007874 21.007874l42.015747 0" fill-rule="nonzero"></path><path fill="#000000" fill-opacity="0.0" d="m631.9029 142.25328l0 0c0 11.602325 9.405518 21.007874 21.007874 21.007874l0 0c5.5716553 0 10.915039 -2.2133179 14.854797 -6.153061c3.9397583 -3.939743 6.153076 -9.283173 6.153076 -14.854813l0 0c0 -11.602325 -9.405579 -21.007874 -21.007874 -21.007874l0 0c-11.602356 0 -21.007874 9.405548 -21.007874 21.007874z" fill-rule="nonzero"></path><path stroke="#000000" stroke-width="1.0" stroke-linejoin="round" stroke-linecap="butt" d="m652.91077 163.26115l0 -42.015747m-21.007874 21.007874l42.015747 0" fill-rule="nonzero"></path><path stroke="#000000" stroke-width="1.0" stroke-linejoin="round" stroke-linecap="butt" d="m631.9029 142.25328l0 0c0 11.602325 9.405518 21.007874 21.007874 21.007874l0 0c5.5716553 0 10.915039 -2.2133179 14.854797 -6.153061c3.9397583 -3.939743 6.153076 -9.283173 6.153076 -14.854813l0 0c0 -11.602325 -9.405579 -21.007874 -21.007874 -21.007874l0 0c-11.602356 0 -21.007874 9.405548 -21.007874 21.007874z" fill-rule="nonzero"></path><path fill="#000000" fill-opacity="0.0" d="m652.91077 121.24541l0 -98.17323" fill-rule="nonzero"></path><path stroke="#000000" stroke-width="2.0" stroke-linejoin="round" stroke-linecap="butt" d="m652.91077 109.24541l0 -86.17323" fill-rule="evenodd"></path><path fill="#000000" stroke="#000000" stroke-width="2.0" stroke-linecap="butt" d="m649.6073 109.24541l3.3034668 9.076195l3.3034668 -9.076195z" fill-rule="evenodd"></path></g></svg>

