<?xml version="1.0" encoding="UTF-8" standalone="no"?>
<svg
   xmlns:dc="http://purl.org/dc/elements/1.1/"
   xmlns:cc="http://creativecommons.org/ns#"
   xmlns:rdf="http://www.w3.org/1999/02/22-rdf-syntax-ns#"
   xmlns:svg="http://www.w3.org/2000/svg"
   xmlns="http://www.w3.org/2000/svg"
   viewBox="0 0 433.30316 214.54735"
   height="214.54735"
   width="433.30316"
   xml:space="preserve"
   version="1.1"
   id="svg4740"><metadata
     id="metadata4746"><rdf:RDF><cc:Work
         rdf:about=""><dc:format>image/svg+xml</dc:format><dc:type
           rdf:resource="http://purl.org/dc/dcmitype/StillImage" /><dc:title></dc:title></cc:Work></rdf:RDF></metadata><defs
     id="defs4744"><clipPath
       id="clipPath4754"
       clipPathUnits="userSpaceOnUse"><path
         id="path4756"
         d="m -53.28,702.01 576,0 0,-738 -576,0 0,738 z" /></clipPath><clipPath
       id="clipPath4762"
       clipPathUnits="userSpaceOnUse"><path
         id="path4764"
         d="m -26.28,675 522,0 0,-684 -522,0 0,684 z" /></clipPath><clipPath
       id="clipPath4770"
       clipPathUnits="userSpaceOnUse"><path
         id="path4772"
         d="m 0.03,666 469.02,0 0,-665.97 -469.02,0 0,665.97 z" /></clipPath><clipPath
       id="clipPath4786"
       clipPathUnits="userSpaceOnUse"><path
         id="path4788"
         d="m -53.28,702.01 576,0 0,-738 -576,0 0,738 z" /></clipPath><clipPath
       id="clipPath4794"
       clipPathUnits="userSpaceOnUse"><path
         id="path4796"
         d="m -26.28,675 522,0 0,-684 -522,0 0,684 z" /></clipPath><clipPath
       id="clipPath4802"
       clipPathUnits="userSpaceOnUse"><path
         style="clip-rule:evenodd"
         id="path4804"
         d="m 76.67,606 352.05,0 0,-359.91 -352.05,0 0,359.91 z" /></clipPath><clipPath
       id="clipPath4810"
       clipPathUnits="userSpaceOnUse"><path
         id="path4812"
         d="m 0.03,666 469.02,0 0,-665.97 -469.02,0 0,665.97 z" /></clipPath><clipPath
       id="clipPath5198"
       clipPathUnits="userSpaceOnUse"><path
         id="path5200"
         d="m -53.28,702.01 576,0 0,-738 -576,0 0,738 z" /></clipPath><clipPath
       id="clipPath5206"
       clipPathUnits="userSpaceOnUse"><path
         id="path5208"
         d="m -26.28,675 522,0 0,-684 -522,0 0,684 z" /></clipPath><clipPath
       id="clipPath5214"
       clipPathUnits="userSpaceOnUse"><path
         id="path5216"
         d="m 0.03,666 469.02,0 0,-665.97 -469.02,0 0,665.97 z" /></clipPath><clipPath
       id="clipPath5518"
       clipPathUnits="userSpaceOnUse"><path
         id="path5520"
         d="m 0.03,666 469.02,0 0,-665.97 -469.02,0 0,665.97 z" /></clipPath></defs><g
     transform="matrix(1.25,0,0,-1.25,-71.829656,693.09813)"
     id="g4748"><g
       id="g4782"><g
         clip-path="url(#clipPath4786)"
         id="g4784"><g
           id="g4798"><g
             transform="translate(-20.395093,-48.526254)"
             clip-path="url(#clipPath4802)"
             id="g4800"><text
               y="-433.07001"
               x="217.50999"
               id="text4814"
               style="font-variant:normal;font-weight:bold;font-size:8px;font-family:'Times New Roman';-inkscape-font-specification:Times-Bold;writing-mode:lr-tb;fill:#000000;fill-opacity:1;fill-rule:nonzero;stroke:none"
               transform="scale(1,-1)"><tspan
                 id="tspan4816"
                 y="-433.07001"
                 x="217.50999 220.174 224.174 226.838 228.59801 233.342 236.894 240.894 245.342 248.45399 255.118 257.34201 260.00601 262.67001 266.22202">(a) Transmitter</tspan></text>
<g
               transform="translate(113.04,480.14)"
               id="g4818"><path
                 id="path4820"
                 style="fill:#e1f4fd;fill-opacity:1;fill-rule:nonzero;stroke:none"
                 d="m 0,0 100.75,0 0,112.78 59.56,0 0,-148.26 L 0,-35.48 0,0" /></g><g
               transform="translate(113.04,480.14)"
               id="g4822"><path
                 id="path4824"
                 style="fill:none;stroke:#000000;stroke-width:1;stroke-linecap:butt;stroke-linejoin:miter;stroke-miterlimit:10;stroke-dasharray:4, 2;stroke-dashoffset:0;stroke-opacity:1"
                 d="m 0,0 100.75,0 0,112.78 59.56,0 0,-148.26 L 0,-35.48 0,0 Z" /></g><path
               id="path4826"
               style="fill:#ffffff;fill-opacity:1;fill-rule:nonzero;stroke:none"
               d="m 118.91,450.52 53.38,0 0,23.761 -53.38,0 0,-23.761 z" /><path
               id="path4828"
               style="fill:none;stroke:#000000;stroke-width:1;stroke-linecap:butt;stroke-linejoin:miter;stroke-miterlimit:10;stroke-dasharray:none;stroke-opacity:1"
               d="m 118.91,474.28 53.38,0 0,-23.761 -53.38,0 0,23.761 z" /><path
               id="path4830"
               style="fill:#ffffff;fill-opacity:1;fill-rule:nonzero;stroke:none"
               d="m 219.81,497.56 47.521,0 0,23.76 -47.521,0 0,-23.76 z" /><path
               id="path4832"
               style="fill:none;stroke:#000000;stroke-width:1;stroke-linecap:butt;stroke-linejoin:miter;stroke-miterlimit:10;stroke-dasharray:none;stroke-opacity:1"
               d="m 219.81,521.32 47.521,0 0,-23.76 -47.521,0 0,23.76 z" /><text
               y="-464.03"
               x="124.7"
               id="text4834"
               style="font-variant:normal;font-weight:bold;font-size:8px;font-family:'Times New Roman';-inkscape-font-specification:Times-Bold;writing-mode:lr-tb;fill:#000000;fill-opacity:1;fill-rule:nonzero;stroke:none"
               transform="scale(1,-1)"><tspan
                 id="tspan4836"
                 y="-464.03"
                 x="124.7 129.588 132.7 136.252 140.7 145.14799 149.14799 153.59599 157.59599 159.81999 162.93199">Pseudonoise</tspan><tspan
                 id="tspan4838"
                 y="-455.03"
                 x="128.884 133.332 135.556 138.22 140.22 143.332 147.332 151.78 155.188 158.74001">bit source</tspan><tspan
                 id="tspan4840"
                 y="-511.07001"
                 x="225.412 230.3 233.70801 237.25999 241.70801 246.15601 249.70801 254.15599 257.70801">Frequency</tspan><tspan
                 id="tspan4842"
                 y="-502.07001"
                 x="224.452 227.564 231.564 236.01199 238.67599 243.12401 246.67599 249.78799 252.01199 255.564 259.116">synthesizer</tspan></text>
<path
               id="path4844"
               style="fill:#e1f4fd;fill-opacity:1;fill-rule:nonzero;stroke:none"
               d="m 124.77,545.72 47.52,0 0,47.52 -47.52,0 0,-47.52 z" /><path
               id="path4846"
               style="fill:none;stroke:#000000;stroke-width:1;stroke-linecap:butt;stroke-linejoin:miter;stroke-miterlimit:10;stroke-dasharray:none;stroke-opacity:1"
               d="m 124.77,593.24 47.52,0 0,-47.52 -47.52,0 0,47.52 z" /><text
               y="-575.60999"
               x="130.08"
               id="text4848"
               style="font-variant:normal;font-weight:bold;font-size:8px;font-family:'Times New Roman';-inkscape-font-specification:Times-Bold;writing-mode:lr-tb;fill:#000000;fill-opacity:1;fill-rule:nonzero;stroke:none"
               transform="scale(1,-1)"><tspan
                 id="tspan4850"
                 y="-575.60999"
                 x="130.08 137.632 141.632 146.08 150.528 152.752 156.752 159.416 163.416">Modulator</tspan><tspan
                 id="tspan4852"
                 y="-566.60999"
                 x="134.632 137.29601 142.18401 146.632 152.856 154.856 158.856">(FSK or</tspan><tspan
                 id="tspan4854"
                 y="-557.60999"
                 x="136.744 142.08 146.968 151.416 157.64">BPSK)</tspan></text>
<path
               id="path4856"
               style="fill:#e1f4fd;fill-opacity:1;fill-rule:nonzero;stroke:none"
               d="m 314.85,545.72 47.52,0 0,47.52 -47.52,0 0,-47.52 z" /><path
               id="path4858"
               style="fill:none;stroke:#000000;stroke-width:1;stroke-linecap:butt;stroke-linejoin:miter;stroke-miterlimit:10;stroke-dasharray:none;stroke-opacity:1"
               d="m 314.85,593.24 47.52,0 0,-47.52 -47.52,0 0,47.52 z" /><text
               y="-580.10999"
               x="322.14999"
               id="text4860"
               style="font-variant:normal;font-weight:bold;font-size:8px;font-family:'Times New Roman';-inkscape-font-specification:Times-Bold;writing-mode:lr-tb;fill:#000000;fill-opacity:1;fill-rule:nonzero;stroke:none"
               transform="scale(1,-1)"><tspan
                 id="tspan4862"
                 y="-580.10999"
                 x="322.14999 327.48599 331.48599 335.93399 340.38199 344.82999 348.82999 351.94199">Bandpass</tspan><tspan
                 id="tspan4864"
                 y="-571.10999"
                 x="318.14999 320.61401 322.83801 325.06201 327.72601 331.27802 334.82999 336.82999 339.49399 343.49399 347.94199 351.94199 356.39001">filter (about</tspan><tspan
                 id="tspan4866"
                 y="-562.10999"
                 x="331.48599 334.59799 339.04599">sum</tspan><tspan
                 id="tspan4868"
                 y="-553.10999"
                 x="320.23001 322.89401 326.302 329.854 334.302 338.75 342.302 346.75 350.302 354.302">frequency)</tspan><tspan
                 id="tspan4870"
                 y="-574.50201"
                 x="77.726006 83.062004 85.286003 89.734001 93.734001 97.286003 101.286 103.286 107.734 111.734 114.398">Binary data</tspan><tspan
                 id="tspan4872"
                 y="-583.66998"
                 x="366.34201 370.79001 375.23801 378.646 382.198 386.198 390.646 392.646 395.758 400.20599 403.758 407.31 409.974 413.526 417.974">Spread spectrum</tspan><tspan
                 id="tspan4874"
                 y="-574.66998"
                 x="385.48599 388.59799 390.82199 394.82199 399.26999 403.26999">signal</tspan><tspan
                 id="tspan4876"
                 y="-597.45398"
                 x="221.966 226.854 233.078 235.078 238.19 242.638 246.04601 249.59799 253.59799 258.04599 261.59799">FH spreader</tspan></text>
<text
               y="-538.91803"
               x="247.614"
               id="text4878"
               style="font-style:italic;font-variant:normal;font-weight:bold;font-size:8px;font-family:'Times New Roman';-inkscape-font-specification:Times-BoldItalic;writing-mode:lr-tb;fill:#000000;fill-opacity:1;fill-rule:nonzero;stroke:none"
               transform="scale(1,-1)"><tspan
                 id="tspan4880"
                 y="-538.91803"
                 x="247.614">c</tspan></text>
<text
               y="-538.91803"
               x="251.166"
               id="text4882"
               style="font-variant:normal;font-weight:bold;font-size:8px;font-family:'Times New Roman';-inkscape-font-specification:Times-Bold;writing-mode:lr-tb;fill:#000000;fill-opacity:1;fill-rule:nonzero;stroke:none"
               transform="scale(1,-1)"><tspan
                 id="tspan4884"
                 y="-538.91803"
                 x="251.166">(</tspan></text>
<text
               y="-538.91803"
               x="253.83"
               id="text4886"
               style="font-style:italic;font-variant:normal;font-weight:bold;font-size:8px;font-family:'Times New Roman';-inkscape-font-specification:Times-BoldItalic;writing-mode:lr-tb;fill:#000000;fill-opacity:1;fill-rule:nonzero;stroke:none"
               transform="scale(1,-1)"><tspan
                 id="tspan4888"
                 y="-538.91803"
                 x="253.83">t</tspan></text>
<text
               y="-538.91803"
               x="256.05399"
               id="text4890"
               style="font-variant:normal;font-weight:bold;font-size:8px;font-family:'Times New Roman';-inkscape-font-specification:Times-Bold;writing-mode:lr-tb;fill:#000000;fill-opacity:1;fill-rule:nonzero;stroke:none"
               transform="scale(1,-1)"><tspan
                 id="tspan4892"
                 y="-538.91803"
                 x="256.05399">)</tspan></text>
<text
               y="-558.89398"
               x="380.78201"
               id="text4894"
               style="font-style:italic;font-variant:normal;font-weight:bold;font-size:8px;font-family:'Times New Roman';-inkscape-font-specification:Times-BoldItalic;writing-mode:lr-tb;fill:#000000;fill-opacity:1;fill-rule:nonzero;stroke:none"
               transform="scale(1,-1)"><tspan
                 id="tspan4896"
                 y="-558.89398"
                 x="380.78201">s</tspan></text>
<text
               y="-558.89398"
               x="383.89401"
               id="text4898"
               style="font-variant:normal;font-weight:bold;font-size:8px;font-family:'Times New Roman';-inkscape-font-specification:Times-Bold;writing-mode:lr-tb;fill:#000000;fill-opacity:1;fill-rule:nonzero;stroke:none"
               transform="scale(1,-1)"><tspan
                 id="tspan4900"
                 y="-558.89398"
                 x="383.89401">(</tspan></text>
<text
               y="-558.89398"
               x="386.55801"
               id="text4902"
               style="font-style:italic;font-variant:normal;font-weight:bold;font-size:8px;font-family:'Times New Roman';-inkscape-font-specification:Times-BoldItalic;writing-mode:lr-tb;fill:#000000;fill-opacity:1;fill-rule:nonzero;stroke:none"
               transform="scale(1,-1)"><tspan
                 id="tspan4904"
                 y="-558.89398"
                 x="386.55801">t</tspan></text>
<text
               y="-558.89398"
               x="388.78201"
               id="text4906"
               style="font-variant:normal;font-weight:bold;font-size:8px;font-family:'Times New Roman';-inkscape-font-specification:Times-Bold;writing-mode:lr-tb;fill:#000000;fill-opacity:1;fill-rule:nonzero;stroke:none"
               transform="scale(1,-1)"><tspan
                 id="tspan4908"
                 y="-558.89398"
                 x="388.78201">)</tspan></text>
<g
               transform="translate(79.931,569.48)"
               id="g4910"><path
                 id="path4912"
                 style="fill:none;stroke:#000000;stroke-width:1;stroke-linecap:butt;stroke-linejoin:miter;stroke-miterlimit:4;stroke-dasharray:none;stroke-opacity:1"
                 d="M 0,0 39.929,0" /></g><g
               transform="translate(119.29,569.48)"
               id="g4914"><path
                 id="path4916"
                 style="fill:#000000;fill-opacity:1;fill-rule:nonzero;stroke:none"
                 d="M 0,0 -1.2,1.98 -1.13,2.02 2.1,0.74 C 3.22,0.49 4.35,0.25 5.48,0 4.35,-0.25 3.22,-0.5 2.1,-0.74 L -1.13,-2.03 -1.2,-1.99 0,0" /></g><g
               transform="translate(172.29,462.4)"
               id="g4918"><path
                 id="path4920"
                 style="fill:none;stroke:#000000;stroke-width:1;stroke-linecap:butt;stroke-linejoin:miter;stroke-miterlimit:4;stroke-dasharray:none;stroke-opacity:1"
                 d="M 0,0 42.61,0" /></g><g
               transform="translate(214.33,462.4)"
               id="g4922"><path
                 id="path4924"
                 style="fill:#000000;fill-opacity:1;fill-rule:nonzero;stroke:none"
                 d="M 0,0 -1.2,1.98 -1.13,2.03 2.1,0.74 C 3.22,0.5 4.35,0.25 5.48,0 4.35,-0.25 3.22,-0.5 2.1,-0.74 L -1.13,-2.03 -1.2,-1.99 0,0" /></g><g
               transform="translate(243.57,521.32)"
               id="g4926"><path
                 id="path4928"
                 style="fill:none;stroke:#000000;stroke-width:1;stroke-linecap:butt;stroke-linejoin:miter;stroke-miterlimit:4;stroke-dasharray:none;stroke-opacity:1"
                 d="M 0,0 0,34.29" /></g><g
               transform="translate(243.57,555.05)"
               id="g4930"><path
                 id="path4932"
                 style="fill:#000000;fill-opacity:1;fill-rule:nonzero;stroke:none"
                 d="m 0,0 -1.99,-1.2 -0.04,0.06 1.28,3.23 C -0.5,3.22 -0.25,4.34 0,5.47 0.24,4.34 0.49,3.22 0.74,2.09 L 2.02,-1.14 1.99,-1.2 0,0" /></g><g
               transform="translate(243.57,474.44)"
               id="g4934"><path
                 id="path4936"
                 style="fill:none;stroke:#000000;stroke-width:1;stroke-linecap:butt;stroke-linejoin:miter;stroke-miterlimit:4;stroke-dasharray:none;stroke-opacity:1"
                 d="M 0,0 0,18.21" /></g><g
               transform="translate(243.57,492.09)"
               id="g4938"><path
                 id="path4940"
                 style="fill:#000000;fill-opacity:1;fill-rule:nonzero;stroke:none"
                 d="m 0,0 -1.99,-1.2 -0.04,0.07 1.28,3.23 C -0.5,3.22 -0.25,4.35 0,5.47 0.24,4.35 0.49,3.22 0.74,2.1 L 2.02,-1.13 1.99,-1.2 0,0" /></g><g
               transform="translate(172.29,569.48)"
               id="g4942"><path
                 id="path4944"
                 style="fill:none;stroke:#000000;stroke-width:1;stroke-linecap:butt;stroke-linejoin:miter;stroke-miterlimit:4;stroke-dasharray:none;stroke-opacity:1"
                 d="M 0,0 57.41,0" /></g><g
               transform="translate(229.14,569.48)"
               id="g4946"><path
                 id="path4948"
                 style="fill:#000000;fill-opacity:1;fill-rule:nonzero;stroke:none"
                 d="M 0,0 -1.21,1.98 -1.14,2.02 2.09,0.74 C 3.22,0.49 4.34,0.25 5.47,0 4.34,-0.25 3.22,-0.5 2.09,-0.74 L -1.14,-2.03 -1.21,-1.99 0,0" /></g><g
               transform="translate(252.52,569.48)"
               id="g4950"><path
                 id="path4952"
                 style="fill:none;stroke:#000000;stroke-width:1;stroke-linecap:butt;stroke-linejoin:miter;stroke-miterlimit:4;stroke-dasharray:none;stroke-opacity:1"
                 d="M 0,0 57.41,0" /></g><g
               transform="translate(309.37,569.48)"
               id="g4954"><path
                 id="path4956"
                 style="fill:#000000;fill-opacity:1;fill-rule:nonzero;stroke:none"
                 d="M 0,0 -1.2,1.98 -1.13,2.02 2.1,0.74 C 3.22,0.49 4.35,0.25 5.48,0 4.35,-0.25 3.22,-0.5 2.1,-0.74 L -1.13,-2.03 -1.2,-1.99 0,0" /></g><g
               transform="translate(362.37,569.48)"
               id="g4958"><path
                 id="path4960"
                 style="fill:none;stroke:#000000;stroke-width:1;stroke-linecap:butt;stroke-linejoin:miter;stroke-miterlimit:4;stroke-dasharray:none;stroke-opacity:1"
                 d="M 0,0 42.61,0" /></g><g
               transform="translate(404.41,569.48)"
               id="g4962"><path
                 id="path4964"
                 style="fill:#000000;fill-opacity:1;fill-rule:nonzero;stroke:none"
                 d="M 0,0 -1.2,1.98 -1.13,2.02 2.1,0.74 C 3.22,0.49 4.35,0.25 5.48,0 4.35,-0.25 3.22,-0.5 2.1,-0.74 L -1.13,-2.03 -1.2,-1.99 0,0" /></g><path
               id="path4966"
               style="fill:#ffffff;fill-opacity:1;fill-rule:nonzero;stroke:none"
               d="m 219.81,450.52 47.521,0 0,23.76 -47.521,0 0,-23.76 z" /><path
               id="path4968"
               style="fill:none;stroke:#000000;stroke-width:1;stroke-linecap:butt;stroke-linejoin:miter;stroke-miterlimit:10;stroke-dasharray:none;stroke-opacity:1"
               d="m 219.81,474.28 47.521,0 0,-23.76 -47.521,0 0,23.76 z" /><text
               y="-464.03"
               x="229.12"
               id="text4970"
               style="font-variant:normal;font-weight:bold;font-size:8px;font-family:'Times New Roman';-inkscape-font-specification:Times-Bold;writing-mode:lr-tb;fill:#000000;fill-opacity:1;fill-rule:nonzero;stroke:none"
               transform="scale(1,-1)"><tspan
                 id="tspan4972"
                 y="-464.03"
                 x="229.12 234.896 239.34399 243.34399 247.79201 252.24001 255.79201">Channel</tspan><tspan
                 id="tspan4974"
                 y="-455.03"
                 x="235.12 237.784 241.784 246.23199 248.45599">table</tspan></text>
<g
               transform="translate(243.57,560.52)"
               id="g4976"><path
                 id="path4978"
                 style="fill:#ffffff;fill-opacity:1;fill-rule:nonzero;stroke:none"
                 d="M 0,0 C 4.94,0 8.95,4.01 8.95,8.96 8.95,13.9 4.94,17.92 0,17.92 -4.95,17.92 -8.96,13.9 -8.96,8.96 -8.96,4.01 -4.95,0 0,0" /></g><g
               transform="translate(243.57,560.52)"
               id="g4980"><path
                 id="path4982"
                 style="fill:none;stroke:#000000;stroke-width:0.75;stroke-linecap:butt;stroke-linejoin:miter;stroke-miterlimit:4;stroke-dasharray:none;stroke-opacity:1"
                 d="M 0,0 C 4.94,0 8.95,4.01 8.95,8.96 8.95,13.9 4.94,17.92 0,17.92 -4.95,17.92 -8.96,13.9 -8.96,8.96 -8.96,4.01 -4.95,0 0,0 Z M -6.34,15.29 6.33,2.62 m -12.67,0 12.67,12.67" /></g><text
               y="-574.46002"
               x="186.3"
               id="text4984"
               style="font-style:italic;font-variant:normal;font-weight:bold;font-size:8px;font-family:'Times New Roman';-inkscape-font-specification:Times-BoldItalic;writing-mode:lr-tb;fill:#000000;fill-opacity:1;fill-rule:nonzero;stroke:none"
               transform="scale(1,-1)"><tspan
                 id="tspan4986"
                 y="-574.46002"
                 x="186.3">s</tspan></text>
<text
               y="-572.82001"
               x="189.42"
               id="text4988"
               style="font-style:italic;font-variant:normal;font-weight:bold;font-size:5.5999999px;font-family:'Times New Roman';-inkscape-font-specification:Times-BoldItalic;writing-mode:lr-tb;fill:#000000;fill-opacity:1;fill-rule:nonzero;stroke:none"
               transform="scale(1,-1)"><tspan
                 id="tspan4990"
                 y="-572.82001"
                 x="189.42">d</tspan></text>
<text
               y="-574.46002"
               x="192.22"
               id="text4992"
               style="font-variant:normal;font-weight:bold;font-size:8px;font-family:'Times New Roman';-inkscape-font-specification:Times-Bold;writing-mode:lr-tb;fill:#000000;fill-opacity:1;fill-rule:nonzero;stroke:none"
               transform="scale(1,-1)"><tspan
                 id="tspan4994"
                 y="-574.46002"
                 x="192.22">(</tspan></text>
<text
               y="-574.46002"
               x="194.884"
               id="text4996"
               style="font-style:italic;font-variant:normal;font-weight:bold;font-size:8px;font-family:'Times New Roman';-inkscape-font-specification:Times-BoldItalic;writing-mode:lr-tb;fill:#000000;fill-opacity:1;fill-rule:nonzero;stroke:none"
               transform="scale(1,-1)"><tspan
                 id="tspan4998"
                 y="-574.46002"
                 x="194.884">t</tspan></text>
</g></g></g></g><g
       id="g5514"><g
         clip-path="url(#clipPath5518)"
         id="g5516"><g
           transform="translate(-17.28,702)"
           id="g5522"><path
             id="path5524"
             style="fill:none;stroke:#ffffff;stroke-width:0.5;stroke-linecap:butt;stroke-linejoin:miter;stroke-miterlimit:10;stroke-dasharray:none;stroke-opacity:1"
             d="m 0,0 0,-24 m -36,-12 24,0 m 516,36 0,-24 m 36,-12 -24,0 M 0,-738 l 0,24 m -36,12 24,0 m 516,-36 0,24 m 36,12 -24,0" /></g><g
           transform="translate(-17.28,702)"
           id="g5526"><path
             id="path5528"
             style="fill:none;stroke:#000000;stroke-width:0.25;stroke-linecap:butt;stroke-linejoin:miter;stroke-miterlimit:10;stroke-dasharray:none;stroke-opacity:1"
             d="m 0,0 0,-24 m -36,-12 24,0 m 516,36 0,-24 m 36,-12 -24,0 M 0,-738 l 0,24 m -36,12 24,0 m 516,-36 0,24 m 36,12 -24,0" /></g><g
           transform="translate(210.72,690)"
           id="g5530"><path
             id="path5532"
             style="fill:none;stroke:#ffffff;stroke-width:0.5;stroke-linecap:butt;stroke-linejoin:miter;stroke-miterlimit:10;stroke-dasharray:none;stroke-opacity:1"
             d="m 0,0 48,0 m -48,-714 48,0 m -300,381 0,-48 m 552,48 0,-48 M 24,12 24,-12 m 0,-690 0,-24 m -288,369 24,0 m 528,0 24,0 M 24,0 30,0 c 0,-3.31 -2.69,-6 -6,-6 -3.31,0 -6,2.69 -6,6 0,3.31 2.69,6 6,6 3.31,0 6,-2.69 6,-6 m -6,-714 6,0 c 0,-3.312 -2.69,-6 -6,-6 -3.31,0 -6,2.688 -6,6 0,3.312 2.69,6 6,6 3.31,0 6,-2.688 6,-6 m -282,357 6,0 c 0,-3.31 -2.688,-6 -6,-6 -3.312,0 -6,2.69 -6,6 0,3.31 2.688,6 6,6 3.312,0 6,-2.69 6,-6 m 546,0 6,0 c 0,-3.31 -2.69,-6 -6,-6 -3.31,0 -6,2.69 -6,6 0,3.31 2.69,6 6,6 3.31,0 6,-2.69 6,-6" /></g><g
           transform="translate(210.72,690)"
           id="g5534"><path
             id="path5536"
             style="fill:none;stroke:#000000;stroke-width:0.25;stroke-linecap:butt;stroke-linejoin:miter;stroke-miterlimit:10;stroke-dasharray:none;stroke-opacity:1"
             d="m 0,0 48,0 m -48,-714 48,0 m -300,381 0,-48 m 552,48 0,-48 M 24,12 24,-12 m 0,-690 0,-24 m -288,369 24,0 m 528,0 24,0 M 24,0 30,0 c 0,-3.31 -2.69,-6 -6,-6 -3.31,0 -6,2.69 -6,6 0,3.31 2.69,6 6,6 3.31,0 6,-2.69 6,-6 m -6,-714 6,0 c 0,-3.312 -2.69,-6 -6,-6 -3.31,0 -6,2.688 -6,6 0,3.312 2.69,6 6,6 3.31,0 6,-2.688 6,-6 m -282,357 6,0 c 0,-3.31 -2.688,-6 -6,-6 -3.312,0 -6,2.69 -6,6 0,3.31 2.688,6 6,6 3.312,0 6,-2.69 6,-6 m 546,0 6,0 c 0,-3.31 -2.69,-6 -6,-6 -3.31,0 -6,2.69 -6,6 0,3.31 2.69,6 6,6 3.31,0 6,-2.69 6,-6" /></g></g></g></g></svg>