<?xml version="1.0" standalone="yes"?>

<svg version="1.1" viewBox="0.0 0.0 925.7480314960629 230.36482939632546" fill="none" stroke="none" stroke-linecap="square" stroke-miterlimit="10" xmlns="http://www.w3.org/2000/svg" xmlns:xlink="http://www.w3.org/1999/xlink"><clipPath id="p.0"><path d="m0 0l925.74805 0l0 230.36482l-925.74805 0l0 -230.36482z" clip-rule="nonzero"></path></clipPath><g clip-path="url(#p.0)"><path fill="#000000" fill-opacity="0.0" d="m0 0l925.74805 0l0 230.36482l-925.74805 0z" fill-rule="nonzero"></path><path fill="#cfe2f3" d="m127.16798 132.58923l79.46458 0l0 72.12599l-79.46458 0z" fill-rule="nonzero"></path><path stroke="#000000" stroke-width="1.0" stroke-linejoin="round" stroke-linecap="butt" d="m127.16798 132.58923l79.46458 0l0 72.12599l-79.46458 0z" fill-rule="nonzero"></path><path fill="#1c4587" d="m157.7284 155.6141l0 7.078125l-2.1875 0l0 -17.140625l4.171875 0q3.125 0 4.609375 1.21875q1.484375 1.203125 1.484375 3.65625q0 1.015625 -0.28125 1.78125q-0.28125 0.75 -0.765625 1.296875q-0.46875 0.546875 -1.078125 0.921875q-0.609375 0.359375 -1.25 0.59375l4.65625 7.671875l-2.5625 0l-4.109375 -7.078125l-2.6875 0zm0 -1.859375l1.921875 0q1.046875 0 1.78125 -0.203125q0.75 -0.203125 1.21875 -0.609375q0.484375 -0.40625 0.6875 -1.0q0.21875 -0.609375 0.21875 -1.421875q0 -0.84375 -0.234375 -1.421875q-0.234375 -0.59375 -0.734375 -0.96875q-0.484375 -0.375 -1.234375 -0.53125q-0.734375 -0.171875 -1.75 -0.171875l-1.875 0l0 6.328125zm21.734375 0.34375q0 2.078125 -0.296875 3.71875q-0.296875 1.640625 -0.96875 2.78125q-0.65625 1.125 -1.703125 1.734375q-1.03125 0.59375 -2.53125 0.59375q-1.375 0 -2.40625 -0.59375q-1.015625 -0.609375 -1.703125 -1.734375q-0.671875 -1.140625 -1.0 -2.78125q-0.328125 -1.640625 -0.328125 -3.71875q0 -2.078125 0.296875 -3.71875q0.296875 -1.640625 0.9375 -2.765625q0.65625 -1.125 1.6875 -1.71875q1.046875 -0.609375 2.515625 -0.609375q1.40625 0 2.4375 0.59375q1.03125 0.59375 1.703125 1.734375q0.6875 1.125 1.015625 2.765625q0.34375 1.640625 0.34375 3.71875zm-8.78125 0q0 1.765625 0.171875 3.078125q0.1875 1.3125 0.5625 2.1875q0.390625 0.859375 1.015625 1.3125q0.640625 0.4375 1.53125 0.4375q0.90625 0 1.53125 -0.4375q0.640625 -0.4375 1.046875 -1.296875q0.40625 -0.875 0.578125 -2.1875q0.1875 -1.328125 0.1875 -3.09375q0 -1.75 -0.1875 -3.0625q-0.171875 -1.3125 -0.578125 -2.171875q-0.40625 -0.875 -1.046875 -1.3125q-0.625 -0.4375 -1.53125 -0.4375q-0.890625 0 -1.53125 0.4375q-0.625 0.4375 -1.015625 1.3125q-0.375 0.859375 -0.5625 2.171875q-0.171875 1.3125 -0.171875 3.0625z" fill-rule="nonzero"></path><path fill="#cfe2f3" d="m336.14954 132.58923l79.46457 0l0 72.12599l-79.46457 0z" fill-rule="nonzero"></path><path stroke="#000000" stroke-width="1.0" stroke-linejoin="round" stroke-linecap="butt" d="m336.14954 132.58923l79.46457 0l0 72.12599l-79.46457 0z" fill-rule="nonzero"></path><path fill="#1c4587" d="m366.70993 155.6141l0 7.078125l-2.1875 0l0 -17.140625l4.171875 0q3.125 0 4.609375 1.21875q1.484375 1.203125 1.484375 3.65625q0 1.015625 -0.28125 1.78125q-0.28125 0.75 -0.765625 1.296875q-0.46875 0.546875 -1.078125 0.921875q-0.609375 0.359375 -1.25 0.59375l4.65625 7.671875l-2.5625 0l-4.109375 -7.078125l-2.6875 0zm0 -1.859375l1.921875 0q1.046875 0 1.78125 -0.203125q0.75 -0.203125 1.21875 -0.609375q0.484375 -0.40625 0.6875 -1.0q0.21875 -0.609375 0.21875 -1.421875q0 -0.84375 -0.234375 -1.421875q-0.234375 -0.59375 -0.734375 -0.96875q-0.484375 -0.375 -1.234375 -0.53125q-0.734375 -0.171875 -1.75 -0.171875l-1.875 0l0 6.328125zm17.96875 8.9375l-2.0625 0l0 -10.703125q0 -0.5 0 -1.078125q0.015625 -0.578125 0.03125 -1.140625q0.015625 -0.5625 0.03125 -1.078125q0.03125 -0.53125 0.03125 -0.9375q-0.1875 0.21875 -0.34375 0.375q-0.15625 0.140625 -0.3125 0.28125q-0.15625 0.140625 -0.34375 0.3125q-0.171875 0.15625 -0.40625 0.359375l-1.734375 1.421875l-1.125 -1.4375l4.484375 -3.515625l1.75 0l0 17.140625z" fill-rule="nonzero"></path><path fill="#cfe2f3" d="m545.13135 132.58923l70.456665 0l0 72.12599l-70.456665 0z" fill-rule="nonzero"></path><path stroke="#000000" stroke-width="1.0" stroke-linejoin="round" stroke-linecap="butt" d="m545.13135 132.58923l70.456665 0l0 72.12599l-70.456665 0z" fill-rule="nonzero"></path><path fill="#1c4587" d="m571.1878 155.6141l0 7.078125l-2.1875 0l0 -17.140625l4.171875 0q3.125 0 4.609375 1.21875q1.484375 1.203125 1.484375 3.65625q0 1.015625 -0.28125 1.78125q-0.28125 0.75 -0.765625 1.296875q-0.46875 0.546875 -1.078125 0.921875q-0.609375 0.359375 -1.25 0.59375l4.65625 7.671875l-2.5625 0l-4.109375 -7.078125l-2.6875 0zm0 -1.859375l1.921875 0q1.046875 0 1.78125 -0.203125q0.75 -0.203125 1.21875 -0.609375q0.484375 -0.40625 0.6875 -1.0q0.21875 -0.609375 0.21875 -1.421875q0 -0.84375 -0.234375 -1.421875q-0.234375 -0.59375 -0.734375 -0.96875q-0.484375 -0.375 -1.234375 -0.53125q-0.734375 -0.171875 -1.75 -0.171875l-1.875 0l0 6.328125zm21.453125 8.9375l-10.6875 0l0 -1.828125l4.109375 -4.46875q0.875 -0.953125 1.5625 -1.734375q0.6875 -0.78125 1.171875 -1.53125q0.5 -0.75 0.75 -1.5q0.265625 -0.765625 0.265625 -1.65625q0 -0.6875 -0.203125 -1.21875q-0.203125 -0.53125 -0.578125 -0.890625q-0.359375 -0.375 -0.875 -0.5625q-0.5 -0.1875 -1.109375 -0.1875q-1.125 0 -2.015625 0.453125q-0.890625 0.453125 -1.703125 1.15625l-1.203125 -1.390625q0.46875 -0.421875 1.0 -0.796875q0.546875 -0.375 1.171875 -0.640625q0.625 -0.265625 1.3125 -0.421875q0.6875 -0.15625 1.453125 -0.15625q1.125 0 2.03125 0.3125q0.90625 0.3125 1.53125 0.90625q0.640625 0.59375 0.984375 1.453125q0.359375 0.84375 0.359375 1.90625q0 1.0 -0.3125 1.90625q-0.3125 0.890625 -0.859375 1.765625q-0.546875 0.875 -1.3125 1.75q-0.75 0.875 -1.625 1.828125l-3.296875 3.5l0 0.09375l8.078125 0l0 1.953125z" fill-rule="nonzero"></path><path fill="#cfe2f3" d="m744.5853 132.58923l70.456665 0l0 72.12599l-70.456665 0z" fill-rule="nonzero"></path><path stroke="#000000" stroke-width="1.0" stroke-linejoin="round" stroke-linecap="butt" d="m744.5853 132.58923l70.456665 0l0 72.12599l-70.456665 0z" fill-rule="nonzero"></path><path fill="#1c4587" d="m770.6418 155.6141l0 7.078125l-2.1875 0l0 -17.140625l4.171875 0q3.125 0 4.609375 1.21875q1.484375 1.203125 1.484375 3.65625q0 1.015625 -0.28125 1.78125q-0.28125 0.75 -0.765625 1.296875q-0.46875 0.546875 -1.078125 0.921875q-0.609375 0.359375 -1.25 0.59375l4.65625 7.671875l-2.5625 0l-4.109375 -7.078125l-2.6875 0zm0 -1.859375l1.921875 0q1.046875 0 1.78125 -0.203125q0.75 -0.203125 1.21875 -0.609375q0.484375 -0.40625 0.6875 -1.0q0.21875 -0.609375 0.21875 -1.421875q0 -0.84375 -0.234375 -1.421875q-0.234375 -0.59375 -0.734375 -0.96875q-0.484375 -0.375 -1.234375 -0.53125q-0.734375 -0.171875 -1.75 -0.171875l-1.875 0l0 6.328125zm20.90625 -4.1875q0 0.859375 -0.28125 1.5625q-0.265625 0.703125 -0.75 1.21875q-0.484375 0.515625 -1.171875 0.84375q-0.671875 0.328125 -1.5 0.46875l0 0.078125q2.078125 0.25 3.15625 1.3125q1.078125 1.0625 1.078125 2.765625q0 1.125 -0.390625 2.0625q-0.375 0.9375 -1.15625 1.625q-0.765625 0.671875 -1.953125 1.046875q-1.1875 0.375 -2.796875 0.375q-1.28125 0 -2.421875 -0.203125q-1.125 -0.203125 -2.109375 -0.71875l0 -2.0q1.015625 0.546875 2.203125 0.84375q1.1875 0.28125 2.28125 0.28125q1.078125 0 1.859375 -0.234375q0.78125 -0.234375 1.296875 -0.65625q0.515625 -0.4375 0.75 -1.0625q0.234375 -0.640625 0.234375 -1.4375q0 -0.796875 -0.3125 -1.359375q-0.296875 -0.5625 -0.875 -0.9375q-0.578125 -0.375 -1.40625 -0.546875q-0.828125 -0.171875 -1.859375 -0.171875l-1.5625 0l0 -1.765625l1.5625 0q0.9375 0 1.671875 -0.234375q0.75 -0.234375 1.25 -0.671875q0.5 -0.4375 0.75 -1.03125q0.265625 -0.59375 0.265625 -1.3125q0 -0.609375 -0.21875 -1.09375q-0.203125 -0.484375 -0.59375 -0.8125q-0.390625 -0.328125 -0.9375 -0.5q-0.53125 -0.1875 -1.1875 -0.1875q-1.25 0 -2.203125 0.390625q-0.953125 0.390625 -1.828125 1.03125l-1.078125 -1.46875q0.453125 -0.359375 0.984375 -0.671875q0.546875 -0.328125 1.1875 -0.5625q0.65625 -0.234375 1.390625 -0.375q0.734375 -0.140625 1.546875 -0.140625q1.265625 0 2.21875 0.3125q0.953125 0.3125 1.59375 0.890625q0.65625 0.5625 0.984375 1.34375q0.328125 0.78125 0.328125 1.703125z" fill-rule="nonzero"></path><path fill="#000000" fill-opacity="0.0" d="m206.63255 168.65224l129.5118 0" fill-rule="nonzero"></path><path stroke="#000000" stroke-width="2.0" stroke-linejoin="round" stroke-linecap="butt" d="m206.63255 168.65224l117.511795 0" fill-rule="evenodd"></path><path fill="#000000" stroke="#000000" stroke-width="2.0" stroke-linecap="butt" d="m324.14435 171.95569l9.076202 -3.3034515l-9.076202 -3.3034668z" fill-rule="evenodd"></path><path fill="#000000" fill-opacity="0.0" d="m415.6141 168.65224l129.51181 0" fill-rule="nonzero"></path><path stroke="#000000" stroke-width="2.0" stroke-linejoin="round" stroke-linecap="butt" d="m415.6141 168.65224l117.51181 0" fill-rule="evenodd"></path><path fill="#000000" stroke="#000000" stroke-width="2.0" stroke-linecap="butt" d="m533.1259 171.95569l9.076172 -3.3034515l-9.076172 -3.3034668z" fill-rule="evenodd"></path><path fill="#000000" fill-opacity="0.0" d="m615.588 168.65224l129.00787 0" fill-rule="nonzero"></path><path stroke="#000000" stroke-width="2.0" stroke-linejoin="round" stroke-linecap="butt" d="m615.5881 168.65224l117.00781 0" fill-rule="evenodd"></path><path fill="#000000" stroke="#000000" stroke-width="2.0" stroke-linecap="butt" d="m732.5959 171.95569l9.076172 -3.3034515l-9.076172 -3.3034668z" fill-rule="evenodd"></path><path fill="#000000" fill-opacity="0.0" d="m815.042 168.65224l53.51184 0" fill-rule="nonzero"></path><path stroke="#000000" stroke-width="2.0" stroke-linejoin="round" stroke-linecap="butt" d="m815.042 168.65224l53.51184 0" fill-rule="nonzero"></path><path fill="#000000" fill-opacity="0.0" d="m869.1992 171.19554l0 -121.921265" fill-rule="nonzero"></path><path stroke="#000000" stroke-width="2.0" stroke-linejoin="round" stroke-linecap="butt" d="m869.1992 171.19554l0 -121.921265" fill-rule="nonzero"></path><path fill="#000000" fill-opacity="0.0" d="m671.33594 50.519684l-616.34644 0" fill-rule="nonzero"></path><path stroke="#000000" stroke-width="2.0" stroke-linejoin="round" stroke-linecap="butt" d="m671.33594 50.519684l-616.34644 0" fill-rule="nonzero"></path><path fill="#000000" fill-opacity="0.0" d="m55.744114 50.093174l0 120.28348" fill-rule="nonzero"></path><path stroke="#000000" stroke-width="2.0" stroke-linejoin="round" stroke-linecap="butt" d="m55.744114 50.093174l0 120.28348" fill-rule="nonzero"></path><path fill="#000000" fill-opacity="0.0" d="m56.711285 168.24278l70.456696 0.40945435" fill-rule="nonzero"></path><path stroke="#000000" stroke-width="2.0" stroke-linejoin="round" stroke-linecap="butt" d="m56.711285 168.24278l58.456898 0.33970642" fill-rule="evenodd"></path><path fill="#000000" stroke="#000000" stroke-width="2.0" stroke-linecap="butt" d="m115.14899 171.88591l9.095238 -3.2506714l-9.056847 -3.3561554z" fill-rule="evenodd"></path><path fill="#000000" fill-opacity="0.0" d="m870.75854 50.122047l-199.65356 0" fill-rule="nonzero"></path><path stroke="#000000" stroke-width="2.0" stroke-linejoin="round" stroke-linecap="butt" d="m870.75854 50.122047l-187.65356 0" fill-rule="evenodd"></path><path fill="#000000" stroke="#000000" stroke-width="2.0" stroke-linecap="butt" d="m683.105 46.81858l-9.076172 3.3034668l9.076172 3.303463z" fill-rule="evenodd"></path><path fill="#cfe2f3" d="m650.0971 168.45276l0 0c0 11.602325 9.405579 21.007874 21.007874 21.007874l0 0c5.5716553 0 10.9151 -2.2133331 14.854797 -6.153061c3.9397583 -3.939743 6.153076 -9.283188 6.153076 -14.854813l0 0c0 -11.602325 -9.405518 -21.007874 -21.007874 -21.007874l0 0c-11.602295 0 -21.007874 9.405548 -21.007874 21.007874z" fill-rule="nonzero"></path><path fill="#000000" fill-opacity="0.0" d="m671.105 189.46063l0 -42.015747m-21.007874 21.007874l42.015747 0" fill-rule="nonzero"></path><path fill="#000000" fill-opacity="0.0" d="m650.0971 168.45276l0 0c0 11.602325 9.405579 21.007874 21.007874 21.007874l0 0c5.5716553 0 10.9151 -2.2133331 14.854797 -6.153061c3.9397583 -3.939743 6.153076 -9.283188 6.153076 -14.854813l0 0c0 -11.602325 -9.405518 -21.007874 -21.007874 -21.007874l0 0c-11.602295 0 -21.007874 9.405548 -21.007874 21.007874z" fill-rule="nonzero"></path><path stroke="#000000" stroke-width="1.0" stroke-linejoin="round" stroke-linecap="butt" d="m671.105 189.46063l0 -42.015747m-21.007874 21.007874l42.015747 0" fill-rule="nonzero"></path><path stroke="#000000" stroke-width="1.0" stroke-linejoin="round" stroke-linecap="butt" d="m650.0971 168.45276l0 0c0 11.602325 9.405579 21.007874 21.007874 21.007874l0 0c5.5716553 0 10.9151 -2.2133331 14.854797 -6.153061c3.9397583 -3.939743 6.153076 -9.283188 6.153076 -14.854813l0 0c0 -11.602325 -9.405518 -21.007874 -21.007874 -21.007874l0 0c-11.602295 0 -21.007874 9.405548 -21.007874 21.007874z" fill-rule="nonzero"></path><path fill="#000000" fill-opacity="0.0" d="m671.105 147.44489l0 -98.17323" fill-rule="nonzero"></path><path stroke="#000000" stroke-width="2.0" stroke-linejoin="round" stroke-linecap="butt" d="m671.105 135.44489l0 -86.17323" fill-rule="evenodd"></path><path fill="#000000" stroke="#000000" stroke-width="2.0" stroke-linecap="butt" d="m667.8015 135.44489l3.3034668 9.076187l3.3034668 -9.076187z" fill-rule="evenodd"></path><path fill="#000000" fill-opacity="0.0" d="m41.71391 0l28.062992 0l0 19.338583l-28.062992 0z" fill-rule="nonzero"></path><path fill="#000000" d="m59.96391 26.919998l-7.609375 0l0 -1.5l3.109375 0l0 -8.859375l-2.90625 1.578125l-0.59375 -1.375l3.859375 -2.03125l1.4375 0l0 10.6875l2.703125 0l0 1.5z" fill-rule="nonzero"></path><path fill="#000000" fill-opacity="0.0" d="m241.71391 0l28.063004 0l0 19.338583l-28.063004 0z" fill-rule="nonzero"></path><path fill="#999999" d="m260.3389 20.857498q0 1.390625 -0.28125 2.546875q-0.265625 1.140625 -0.84375 1.96875q-0.5625 0.8125 -1.40625 1.265625q-0.828125 0.453125 -1.9687347 0.453125q-0.96875 0 -1.765625 -0.359375q-0.796875 -0.375 -1.375 -1.140625q-0.5625 -0.765625 -0.875 -1.9375q-0.296875 -1.171875 -0.296875 -2.796875q0 -1.390625 0.28125 -2.53125q0.28125 -1.15625 0.84375 -1.96875q0.5625 -0.828125 1.40625 -1.28125q0.84375 -0.453125 1.9687347 -0.453125q0.984375 0 1.78125 0.375q0.796875 0.359375 1.359375 1.125q0.5625 0.765625 0.859375 1.953125q0.3125 1.171875 0.3125 2.78125zm-1.625 0.0625q0 -0.3125 -0.03125 -0.625q-0.015625 -0.3125 -0.046875 -0.609375l-5.1249847 3.8125q0.140625 0.484375 0.34375 0.890625q0.21875 0.40625 0.515625 0.703125q0.3125 0.28125 0.6875 0.453125q0.390625 0.15625 0.875 0.15625q0.64060974 0 1.1562347 -0.296875q0.515625 -0.3125 0.875 -0.90625q0.359375 -0.609375 0.546875 -1.5q0.203125 -0.90625 0.203125 -2.078125zm-5.5468597 -0.109375q0 0.28125 0 0.578125q0 0.28125 0.03125 0.546875l5.1249847 -3.796875q-0.125 -0.46875 -0.34375 -0.859375q-0.21875 -0.390625 -0.515625 -0.671875q-0.296875 -0.28125 -0.671875 -0.4375q-0.375 -0.15625 -0.85935974 -0.15625q-0.625 0 -1.140625 0.3125q-0.515625 0.296875 -0.875 0.90625q-0.359375 0.609375 -0.5625 1.5q-0.1875 0.890625 -0.1875 2.078125z" fill-rule="nonzero"></path><path fill="#000000" fill-opacity="0.0" d="m457.7139 0l28.063019 0l0 19.338583l-28.063019 0z" fill-rule="nonzero"></path><path fill="#999999" d="m476.3389 20.857498q0 1.390625 -0.28125 2.546875q-0.265625 1.140625 -0.84375 1.96875q-0.5625 0.8125 -1.40625 1.265625q-0.828125 0.453125 -1.96875 0.453125q-0.96875 0 -1.765625 -0.359375q-0.796875 -0.375 -1.375 -1.140625q-0.5625 -0.765625 -0.875 -1.9375q-0.296875 -1.171875 -0.296875 -2.796875q0 -1.390625 0.28125 -2.53125q0.28125 -1.15625 0.84375 -1.96875q0.5625 -0.828125 1.40625 -1.28125q0.84375 -0.453125 1.96875 -0.453125q0.984375 0 1.78125 0.375q0.796875 0.359375 1.359375 1.125q0.5625 0.765625 0.859375 1.953125q0.3125 1.171875 0.3125 2.78125zm-1.625 0.0625q0 -0.3125 -0.03125 -0.625q-0.015625 -0.3125 -0.046875 -0.609375l-5.125 3.8125q0.140625 0.484375 0.34375 0.890625q0.21875 0.40625 0.515625 0.703125q0.3125 0.28125 0.6875 0.453125q0.390625 0.15625 0.875 0.15625q0.640625 0 1.15625 -0.296875q0.515625 -0.3125 0.875 -0.90625q0.359375 -0.609375 0.546875 -1.5q0.203125 -0.90625 0.203125 -2.078125zm-5.546875 -0.109375q0 0.28125 0 0.578125q0 0.28125 0.03125 0.546875l5.125 -3.796875q-0.125 -0.46875 -0.34375 -0.859375q-0.21875 -0.390625 -0.515625 -0.671875q-0.296875 -0.28125 -0.671875 -0.4375q-0.375 -0.15625 -0.859375 -0.15625q-0.625 0 -1.140625 0.3125q-0.515625 0.296875 -0.875 0.90625q-0.359375 0.609375 -0.5625 1.5q-0.1875 0.890625 -0.1875 2.078125z" fill-rule="nonzero"></path><path fill="#000000" fill-opacity="0.0" d="m657.7139 0l28.062988 0l0 19.338583l-28.062988 0z" fill-rule="nonzero"></path><path fill="#000000" d="m675.9639 26.919998l-7.609375 0l0 -1.5l3.109375 0l0 -8.859375l-2.90625 1.578125l-0.59375 -1.375l3.859375 -2.03125l1.4375 0l0 10.6875l2.703125 0l0 1.5z" fill-rule="nonzero"></path><path fill="#000000" fill-opacity="0.0" d="m849.7139 0l28.062988 0l0 19.338583l-28.062988 0z" fill-rule="nonzero"></path><path fill="#000000" d="m867.9639 26.919998l-7.609375 0l0 -1.5l3.109375 0l0 -8.859375l-2.90625 1.578125l-0.59375 -1.375l3.859375 -2.03125l1.4375 0l0 10.6875l2.703125 0l0 1.5z" fill-rule="nonzero"></path></g></svg>

