<?xml version="1.0" encoding="UTF-8" standalone="no"?>
<!-- Created with Inkscape (http://www.inkscape.org/) -->

<svg
   xmlns:dc="http://purl.org/dc/elements/1.1/"
   xmlns:cc="http://creativecommons.org/ns#"
   xmlns:rdf="http://www.w3.org/1999/02/22-rdf-syntax-ns#"
   xmlns:svg="http://www.w3.org/2000/svg"
   xmlns="http://www.w3.org/2000/svg"
   xmlns:sodipodi="http://sodipodi.sourceforge.net/DTD/sodipodi-0.dtd"
   xmlns:inkscape="http://www.inkscape.org/namespaces/inkscape"
   id="svg4740"
   version="1.1"
   inkscape:version="0.91 r13725"
   xml:space="preserve"
   width="433.30316"
   height="214.54735"
   viewBox="0 0 433.30316 214.54735"
   sodipodi:docname="fhss-tx.svg"><metadata
     id="metadata4746"><rdf:RDF><cc:Work
         rdf:about=""><dc:format>image/svg+xml</dc:format><dc:type
           rdf:resource="http://purl.org/dc/dcmitype/StillImage" /><dc:title></dc:title></cc:Work></rdf:RDF></metadata><defs
     id="defs4744"><clipPath
       clipPathUnits="userSpaceOnUse"
       id="clipPath4754"><path
         d="m -53.28,702.01 576,0 0,-738 -576,0 0,738 z"
         id="path4756"
         inkscape:connector-curvature="0" /></clipPath><clipPath
       clipPathUnits="userSpaceOnUse"
       id="clipPath4762"><path
         d="m -26.28,675 522,0 0,-684 -522,0 0,684 z"
         id="path4764"
         inkscape:connector-curvature="0" /></clipPath><clipPath
       clipPathUnits="userSpaceOnUse"
       id="clipPath4770"><path
         d="m 0.03,666 469.02,0 0,-665.97 -469.02,0 0,665.97 z"
         id="path4772"
         inkscape:connector-curvature="0" /></clipPath><clipPath
       clipPathUnits="userSpaceOnUse"
       id="clipPath4786"><path
         d="m -53.28,702.01 576,0 0,-738 -576,0 0,738 z"
         id="path4788"
         inkscape:connector-curvature="0" /></clipPath><clipPath
       clipPathUnits="userSpaceOnUse"
       id="clipPath4794"><path
         d="m -26.28,675 522,0 0,-684 -522,0 0,684 z"
         id="path4796"
         inkscape:connector-curvature="0" /></clipPath><clipPath
       clipPathUnits="userSpaceOnUse"
       id="clipPath4802"><path
         d="m 76.67,606 352.05,0 0,-359.91 -352.05,0 0,359.91 z"
         id="path4804"
         inkscape:connector-curvature="0"
         style="clip-rule:evenodd" /></clipPath><clipPath
       clipPathUnits="userSpaceOnUse"
       id="clipPath4810"><path
         d="m 0.03,666 469.02,0 0,-665.97 -469.02,0 0,665.97 z"
         id="path4812"
         inkscape:connector-curvature="0" /></clipPath><clipPath
       clipPathUnits="userSpaceOnUse"
       id="clipPath5198"><path
         d="m -53.28,702.01 576,0 0,-738 -576,0 0,738 z"
         id="path5200"
         inkscape:connector-curvature="0" /></clipPath><clipPath
       clipPathUnits="userSpaceOnUse"
       id="clipPath5206"><path
         d="m -26.28,675 522,0 0,-684 -522,0 0,684 z"
         id="path5208"
         inkscape:connector-curvature="0" /></clipPath><clipPath
       clipPathUnits="userSpaceOnUse"
       id="clipPath5214"><path
         d="m 0.03,666 469.02,0 0,-665.97 -469.02,0 0,665.97 z"
         id="path5216"
         inkscape:connector-curvature="0" /></clipPath><clipPath
       clipPathUnits="userSpaceOnUse"
       id="clipPath5518"><path
         d="m 0.03,666 469.02,0 0,-665.97 -469.02,0 0,665.97 z"
         id="path5520"
         inkscape:connector-curvature="0" /></clipPath></defs><sodipodi:namedview
     pagecolor="#ffffff"
     bordercolor="#666666"
     borderopacity="1"
     objecttolerance="10"
     gridtolerance="10"
     guidetolerance="10"
     inkscape:pageopacity="0"
     inkscape:pageshadow="2"
     inkscape:window-width="1280"
     inkscape:window-height="971"
     id="namedview4742"
     showgrid="false"
     fit-margin-top="0"
     fit-margin-left="0"
     fit-margin-right="0"
     fit-margin-bottom="0"
     inkscape:zoom="1.1375285"
     inkscape:cx="172.4212"
     inkscape:cy="78.35498"
     inkscape:window-x="1366"
     inkscape:window-y="27"
     inkscape:window-maximized="1"
     inkscape:current-layer="g4800" /><g
     id="g4748"
     inkscape:groupmode="layer"
     inkscape:label="Data.And.Computer.Communications.8e.WilliamStallings"
     transform="matrix(1.25,0,0,-1.25,-71.829656,693.09813)"><g
       id="g4782"><g
         id="g4784"
         clip-path="url(#clipPath4786)"><g
           id="g4798"><g
             id="g4800"
             clip-path="url(#clipPath4802)"
             transform="translate(-20.395093,-48.526254)"><text
               transform="scale(1,-1)"
               style="font-variant:normal;font-weight:bold;font-size:8px;font-family:'Times New Roman';-inkscape-font-specification:Times-Bold;writing-mode:lr-tb;fill:#000000;fill-opacity:1;fill-rule:nonzero;stroke:none"
               id="text4814"
               x="217.50999"
               y="-433.07001"><tspan
                 x="217.50999 220.174 224.174 226.838 228.59801 233.342 236.894 240.894 245.342 248.45399 255.118 257.34201 260.00601 262.67001 266.22202"
                 y="-433.07001"
                 sodipodi:role="line"
                 id="tspan4816">(a) Transmitter</tspan></text>
<g
               id="g4818"
               transform="translate(113.04,480.14)"><path
                 d="m 0,0 100.75,0 0,112.78 59.56,0 0,-148.26 L 0,-35.48 0,0"
                 style="fill:#e1f4fd;fill-opacity:1;fill-rule:nonzero;stroke:none"
                 id="path4820"
                 inkscape:connector-curvature="0" /></g><g
               id="g4822"
               transform="translate(113.04,480.14)"><path
                 d="m 0,0 100.75,0 0,112.78 59.56,0 0,-148.26 L 0,-35.48 0,0 Z"
                 style="fill:none;stroke:#000000;stroke-width:1;stroke-linecap:butt;stroke-linejoin:miter;stroke-miterlimit:10;stroke-dasharray:4, 2;stroke-dashoffset:0;stroke-opacity:1"
                 id="path4824"
                 inkscape:connector-curvature="0" /></g><path
               d="m 118.91,450.52 53.38,0 0,23.761 -53.38,0 0,-23.761 z"
               style="fill:#ffffff;fill-opacity:1;fill-rule:nonzero;stroke:none"
               id="path4826"
               inkscape:connector-curvature="0" /><path
               d="m 118.91,474.28 53.38,0 0,-23.761 -53.38,0 0,23.761 z"
               style="fill:none;stroke:#000000;stroke-width:1;stroke-linecap:butt;stroke-linejoin:miter;stroke-miterlimit:10;stroke-dasharray:none;stroke-opacity:1"
               id="path4828"
               inkscape:connector-curvature="0" /><path
               d="m 219.81,497.56 47.521,0 0,23.76 -47.521,0 0,-23.76 z"
               style="fill:#ffffff;fill-opacity:1;fill-rule:nonzero;stroke:none"
               id="path4830"
               inkscape:connector-curvature="0" /><path
               d="m 219.81,521.32 47.521,0 0,-23.76 -47.521,0 0,23.76 z"
               style="fill:none;stroke:#000000;stroke-width:1;stroke-linecap:butt;stroke-linejoin:miter;stroke-miterlimit:10;stroke-dasharray:none;stroke-opacity:1"
               id="path4832"
               inkscape:connector-curvature="0" /><text
               transform="scale(1,-1)"
               style="font-variant:normal;font-weight:bold;font-size:8px;font-family:'Times New Roman';-inkscape-font-specification:Times-Bold;writing-mode:lr-tb;fill:#000000;fill-opacity:1;fill-rule:nonzero;stroke:none"
               id="text4834"
               x="124.7"
               y="-464.03"><tspan
                 x="124.7 129.588 132.7 136.252 140.7 145.14799 149.14799 153.59599 157.59599 159.81999 162.93199"
                 y="-464.03"
                 sodipodi:role="line"
                 id="tspan4836">Pseudonoise</tspan><tspan
                 x="128.884 133.332 135.556 138.22 140.22 143.332 147.332 151.78 155.188 158.74001"
                 y="-455.03"
                 sodipodi:role="line"
                 id="tspan4838">bit source</tspan><tspan
                 x="225.412 230.3 233.70801 237.25999 241.70801 246.15601 249.70801 254.15599 257.70801"
                 y="-511.07001"
                 sodipodi:role="line"
                 id="tspan4840">Frequency</tspan><tspan
                 x="224.452 227.564 231.564 236.01199 238.67599 243.12401 246.67599 249.78799 252.01199 255.564 259.116"
                 y="-502.07001"
                 sodipodi:role="line"
                 id="tspan4842">synthesizer</tspan></text>
<path
               d="m 124.77,545.72 47.52,0 0,47.52 -47.52,0 0,-47.52 z"
               style="fill:#e1f4fd;fill-opacity:1;fill-rule:nonzero;stroke:none"
               id="path4844"
               inkscape:connector-curvature="0" /><path
               d="m 124.77,593.24 47.52,0 0,-47.52 -47.52,0 0,47.52 z"
               style="fill:none;stroke:#000000;stroke-width:1;stroke-linecap:butt;stroke-linejoin:miter;stroke-miterlimit:10;stroke-dasharray:none;stroke-opacity:1"
               id="path4846"
               inkscape:connector-curvature="0" /><text
               transform="scale(1,-1)"
               style="font-variant:normal;font-weight:bold;font-size:8px;font-family:'Times New Roman';-inkscape-font-specification:Times-Bold;writing-mode:lr-tb;fill:#000000;fill-opacity:1;fill-rule:nonzero;stroke:none"
               id="text4848"
               x="130.08"
               y="-575.60999"><tspan
                 x="130.08 137.632 141.632 146.08 150.528 152.752 156.752 159.416 163.416"
                 y="-575.60999"
                 sodipodi:role="line"
                 id="tspan4850">Modulator</tspan><tspan
                 x="134.632 137.29601 142.18401 146.632 152.856 154.856 158.856"
                 y="-566.60999"
                 sodipodi:role="line"
                 id="tspan4852">(FSK or</tspan><tspan
                 x="136.744 142.08 146.968 151.416 157.64"
                 y="-557.60999"
                 sodipodi:role="line"
                 id="tspan4854">BPSK)</tspan></text>
<path
               d="m 314.85,545.72 47.52,0 0,47.52 -47.52,0 0,-47.52 z"
               style="fill:#e1f4fd;fill-opacity:1;fill-rule:nonzero;stroke:none"
               id="path4856"
               inkscape:connector-curvature="0" /><path
               d="m 314.85,593.24 47.52,0 0,-47.52 -47.52,0 0,47.52 z"
               style="fill:none;stroke:#000000;stroke-width:1;stroke-linecap:butt;stroke-linejoin:miter;stroke-miterlimit:10;stroke-dasharray:none;stroke-opacity:1"
               id="path4858"
               inkscape:connector-curvature="0" /><text
               transform="scale(1,-1)"
               style="font-variant:normal;font-weight:bold;font-size:8px;font-family:'Times New Roman';-inkscape-font-specification:Times-Bold;writing-mode:lr-tb;fill:#000000;fill-opacity:1;fill-rule:nonzero;stroke:none"
               id="text4860"
               x="322.14999"
               y="-580.10999"><tspan
                 x="322.14999 327.48599 331.48599 335.93399 340.38199 344.82999 348.82999 351.94199"
                 y="-580.10999"
                 sodipodi:role="line"
                 id="tspan4862">Bandpass</tspan><tspan
                 x="318.14999 320.61401 322.83801 325.06201 327.72601 331.27802 334.82999 336.82999 339.49399 343.49399 347.94199 351.94199 356.39001"
                 y="-571.10999"
                 sodipodi:role="line"
                 id="tspan4864">filter (about</tspan><tspan
                 x="331.48599 334.59799 339.04599"
                 y="-562.10999"
                 sodipodi:role="line"
                 id="tspan4866">sum</tspan><tspan
                 x="320.23001 322.89401 326.302 329.854 334.302 338.75 342.302 346.75 350.302 354.302"
                 y="-553.10999"
                 sodipodi:role="line"
                 id="tspan4868">frequency)</tspan><tspan
                 x="77.726006 83.062004 85.286003 89.734001 93.734001 97.286003 101.286 103.286 107.734 111.734 114.398"
                 y="-574.50201"
                 sodipodi:role="line"
                 id="tspan4870">Binary data</tspan><tspan
                 x="366.34201 370.79001 375.23801 378.646 382.198 386.198 390.646 392.646 395.758 400.20599 403.758 407.31 409.974 413.526 417.974"
                 y="-583.66998"
                 sodipodi:role="line"
                 id="tspan4872">Spread spectrum</tspan><tspan
                 x="385.48599 388.59799 390.82199 394.82199 399.26999 403.26999"
                 y="-574.66998"
                 sodipodi:role="line"
                 id="tspan4874">signal</tspan><tspan
                 x="221.966 226.854 233.078 235.078 238.19 242.638 246.04601 249.59799 253.59799 258.04599 261.59799"
                 y="-597.45398"
                 sodipodi:role="line"
                 id="tspan4876">FH spreader</tspan></text>
<text
               transform="scale(1,-1)"
               style="font-style:italic;font-variant:normal;font-weight:bold;font-size:8px;font-family:'Times New Roman';-inkscape-font-specification:Times-BoldItalic;writing-mode:lr-tb;fill:#000000;fill-opacity:1;fill-rule:nonzero;stroke:none"
               id="text4878"
               x="247.614"
               y="-538.91803"><tspan
                 x="247.614"
                 y="-538.91803"
                 id="tspan4880">c</tspan></text>
<text
               transform="scale(1,-1)"
               style="font-variant:normal;font-weight:bold;font-size:8px;font-family:'Times New Roman';-inkscape-font-specification:Times-Bold;writing-mode:lr-tb;fill:#000000;fill-opacity:1;fill-rule:nonzero;stroke:none"
               id="text4882"
               x="251.166"
               y="-538.91803"><tspan
                 x="251.166"
                 y="-538.91803"
                 id="tspan4884">(</tspan></text>
<text
               transform="scale(1,-1)"
               style="font-style:italic;font-variant:normal;font-weight:bold;font-size:8px;font-family:'Times New Roman';-inkscape-font-specification:Times-BoldItalic;writing-mode:lr-tb;fill:#000000;fill-opacity:1;fill-rule:nonzero;stroke:none"
               id="text4886"
               x="253.83"
               y="-538.91803"><tspan
                 x="253.83"
                 y="-538.91803"
                 id="tspan4888">t</tspan></text>
<text
               transform="scale(1,-1)"
               style="font-variant:normal;font-weight:bold;font-size:8px;font-family:'Times New Roman';-inkscape-font-specification:Times-Bold;writing-mode:lr-tb;fill:#000000;fill-opacity:1;fill-rule:nonzero;stroke:none"
               id="text4890"
               x="256.05399"
               y="-538.91803"><tspan
                 x="256.05399"
                 y="-538.91803"
                 id="tspan4892">)</tspan></text>
<text
               transform="scale(1,-1)"
               style="font-style:italic;font-variant:normal;font-weight:bold;font-size:8px;font-family:'Times New Roman';-inkscape-font-specification:Times-BoldItalic;writing-mode:lr-tb;fill:#000000;fill-opacity:1;fill-rule:nonzero;stroke:none"
               id="text4894"
               x="380.78201"
               y="-558.89398"><tspan
                 x="380.78201"
                 y="-558.89398"
                 id="tspan4896">s</tspan></text>
<text
               transform="scale(1,-1)"
               style="font-variant:normal;font-weight:bold;font-size:8px;font-family:'Times New Roman';-inkscape-font-specification:Times-Bold;writing-mode:lr-tb;fill:#000000;fill-opacity:1;fill-rule:nonzero;stroke:none"
               id="text4898"
               x="383.89401"
               y="-558.89398"><tspan
                 x="383.89401"
                 y="-558.89398"
                 id="tspan4900">(</tspan></text>
<text
               transform="scale(1,-1)"
               style="font-style:italic;font-variant:normal;font-weight:bold;font-size:8px;font-family:'Times New Roman';-inkscape-font-specification:Times-BoldItalic;writing-mode:lr-tb;fill:#000000;fill-opacity:1;fill-rule:nonzero;stroke:none"
               id="text4902"
               x="386.55801"
               y="-558.89398"><tspan
                 x="386.55801"
                 y="-558.89398"
                 id="tspan4904">t</tspan></text>
<text
               transform="scale(1,-1)"
               style="font-variant:normal;font-weight:bold;font-size:8px;font-family:'Times New Roman';-inkscape-font-specification:Times-Bold;writing-mode:lr-tb;fill:#000000;fill-opacity:1;fill-rule:nonzero;stroke:none"
               id="text4906"
               x="388.78201"
               y="-558.89398"><tspan
                 x="388.78201"
                 y="-558.89398"
                 id="tspan4908">)</tspan></text>
<g
               id="g4910"
               transform="translate(79.931,569.48)"><path
                 d="M 0,0 39.929,0"
                 style="fill:none;stroke:#000000;stroke-width:1;stroke-linecap:butt;stroke-linejoin:miter;stroke-miterlimit:4;stroke-dasharray:none;stroke-opacity:1"
                 id="path4912"
                 inkscape:connector-curvature="0" /></g><g
               id="g4914"
               transform="translate(119.29,569.48)"><path
                 d="M 0,0 -1.2,1.98 -1.13,2.02 2.1,0.74 C 3.22,0.49 4.35,0.25 5.48,0 4.35,-0.25 3.22,-0.5 2.1,-0.74 L -1.13,-2.03 -1.2,-1.99 0,0"
                 style="fill:#000000;fill-opacity:1;fill-rule:nonzero;stroke:none"
                 id="path4916"
                 inkscape:connector-curvature="0" /></g><g
               id="g4918"
               transform="translate(172.29,462.4)"><path
                 d="M 0,0 42.61,0"
                 style="fill:none;stroke:#000000;stroke-width:1;stroke-linecap:butt;stroke-linejoin:miter;stroke-miterlimit:4;stroke-dasharray:none;stroke-opacity:1"
                 id="path4920"
                 inkscape:connector-curvature="0" /></g><g
               id="g4922"
               transform="translate(214.33,462.4)"><path
                 d="M 0,0 -1.2,1.98 -1.13,2.03 2.1,0.74 C 3.22,0.5 4.35,0.25 5.48,0 4.35,-0.25 3.22,-0.5 2.1,-0.74 L -1.13,-2.03 -1.2,-1.99 0,0"
                 style="fill:#000000;fill-opacity:1;fill-rule:nonzero;stroke:none"
                 id="path4924"
                 inkscape:connector-curvature="0" /></g><g
               id="g4926"
               transform="translate(243.57,521.32)"><path
                 d="M 0,0 0,34.29"
                 style="fill:none;stroke:#000000;stroke-width:1;stroke-linecap:butt;stroke-linejoin:miter;stroke-miterlimit:4;stroke-dasharray:none;stroke-opacity:1"
                 id="path4928"
                 inkscape:connector-curvature="0" /></g><g
               id="g4930"
               transform="translate(243.57,555.05)"><path
                 d="m 0,0 -1.99,-1.2 -0.04,0.06 1.28,3.23 C -0.5,3.22 -0.25,4.34 0,5.47 0.24,4.34 0.49,3.22 0.74,2.09 L 2.02,-1.14 1.99,-1.2 0,0"
                 style="fill:#000000;fill-opacity:1;fill-rule:nonzero;stroke:none"
                 id="path4932"
                 inkscape:connector-curvature="0" /></g><g
               id="g4934"
               transform="translate(243.57,474.44)"><path
                 d="M 0,0 0,18.21"
                 style="fill:none;stroke:#000000;stroke-width:1;stroke-linecap:butt;stroke-linejoin:miter;stroke-miterlimit:4;stroke-dasharray:none;stroke-opacity:1"
                 id="path4936"
                 inkscape:connector-curvature="0" /></g><g
               id="g4938"
               transform="translate(243.57,492.09)"><path
                 d="m 0,0 -1.99,-1.2 -0.04,0.07 1.28,3.23 C -0.5,3.22 -0.25,4.35 0,5.47 0.24,4.35 0.49,3.22 0.74,2.1 L 2.02,-1.13 1.99,-1.2 0,0"
                 style="fill:#000000;fill-opacity:1;fill-rule:nonzero;stroke:none"
                 id="path4940"
                 inkscape:connector-curvature="0" /></g><g
               id="g4942"
               transform="translate(172.29,569.48)"><path
                 d="M 0,0 57.41,0"
                 style="fill:none;stroke:#000000;stroke-width:1;stroke-linecap:butt;stroke-linejoin:miter;stroke-miterlimit:4;stroke-dasharray:none;stroke-opacity:1"
                 id="path4944"
                 inkscape:connector-curvature="0" /></g><g
               id="g4946"
               transform="translate(229.14,569.48)"><path
                 d="M 0,0 -1.21,1.98 -1.14,2.02 2.09,0.74 C 3.22,0.49 4.34,0.25 5.47,0 4.34,-0.25 3.22,-0.5 2.09,-0.74 L -1.14,-2.03 -1.21,-1.99 0,0"
                 style="fill:#000000;fill-opacity:1;fill-rule:nonzero;stroke:none"
                 id="path4948"
                 inkscape:connector-curvature="0" /></g><g
               id="g4950"
               transform="translate(252.52,569.48)"><path
                 d="M 0,0 57.41,0"
                 style="fill:none;stroke:#000000;stroke-width:1;stroke-linecap:butt;stroke-linejoin:miter;stroke-miterlimit:4;stroke-dasharray:none;stroke-opacity:1"
                 id="path4952"
                 inkscape:connector-curvature="0" /></g><g
               id="g4954"
               transform="translate(309.37,569.48)"><path
                 d="M 0,0 -1.2,1.98 -1.13,2.02 2.1,0.74 C 3.22,0.49 4.35,0.25 5.48,0 4.35,-0.25 3.22,-0.5 2.1,-0.74 L -1.13,-2.03 -1.2,-1.99 0,0"
                 style="fill:#000000;fill-opacity:1;fill-rule:nonzero;stroke:none"
                 id="path4956"
                 inkscape:connector-curvature="0" /></g><g
               id="g4958"
               transform="translate(362.37,569.48)"><path
                 d="M 0,0 42.61,0"
                 style="fill:none;stroke:#000000;stroke-width:1;stroke-linecap:butt;stroke-linejoin:miter;stroke-miterlimit:4;stroke-dasharray:none;stroke-opacity:1"
                 id="path4960"
                 inkscape:connector-curvature="0" /></g><g
               id="g4962"
               transform="translate(404.41,569.48)"><path
                 d="M 0,0 -1.2,1.98 -1.13,2.02 2.1,0.74 C 3.22,0.49 4.35,0.25 5.48,0 4.35,-0.25 3.22,-0.5 2.1,-0.74 L -1.13,-2.03 -1.2,-1.99 0,0"
                 style="fill:#000000;fill-opacity:1;fill-rule:nonzero;stroke:none"
                 id="path4964"
                 inkscape:connector-curvature="0" /></g><path
               d="m 219.81,450.52 47.521,0 0,23.76 -47.521,0 0,-23.76 z"
               style="fill:#ffffff;fill-opacity:1;fill-rule:nonzero;stroke:none"
               id="path4966"
               inkscape:connector-curvature="0" /><path
               d="m 219.81,474.28 47.521,0 0,-23.76 -47.521,0 0,23.76 z"
               style="fill:none;stroke:#000000;stroke-width:1;stroke-linecap:butt;stroke-linejoin:miter;stroke-miterlimit:10;stroke-dasharray:none;stroke-opacity:1"
               id="path4968"
               inkscape:connector-curvature="0" /><text
               transform="scale(1,-1)"
               style="font-variant:normal;font-weight:bold;font-size:8px;font-family:'Times New Roman';-inkscape-font-specification:Times-Bold;writing-mode:lr-tb;fill:#000000;fill-opacity:1;fill-rule:nonzero;stroke:none"
               id="text4970"
               x="229.12"
               y="-464.03"><tspan
                 x="229.12 234.896 239.34399 243.34399 247.79201 252.24001 255.79201"
                 y="-464.03"
                 sodipodi:role="line"
                 id="tspan4972">Channel</tspan><tspan
                 x="235.12 237.784 241.784 246.23199 248.45599"
                 y="-455.03"
                 sodipodi:role="line"
                 id="tspan4974">table</tspan></text>
<g
               id="g4976"
               transform="translate(243.57,560.52)"><path
                 d="M 0,0 C 4.94,0 8.95,4.01 8.95,8.96 8.95,13.9 4.94,17.92 0,17.92 -4.95,17.92 -8.96,13.9 -8.96,8.96 -8.96,4.01 -4.95,0 0,0"
                 style="fill:#ffffff;fill-opacity:1;fill-rule:nonzero;stroke:none"
                 id="path4978"
                 inkscape:connector-curvature="0" /></g><g
               id="g4980"
               transform="translate(243.57,560.52)"><path
                 d="M 0,0 C 4.94,0 8.95,4.01 8.95,8.96 8.95,13.9 4.94,17.92 0,17.92 -4.95,17.92 -8.96,13.9 -8.96,8.96 -8.96,4.01 -4.95,0 0,0 Z M -6.34,15.29 6.33,2.62 m -12.67,0 12.67,12.67"
                 style="fill:none;stroke:#000000;stroke-width:0.75;stroke-linecap:butt;stroke-linejoin:miter;stroke-miterlimit:4;stroke-dasharray:none;stroke-opacity:1"
                 id="path4982"
                 inkscape:connector-curvature="0" /></g><text
               transform="scale(1,-1)"
               style="font-style:italic;font-variant:normal;font-weight:bold;font-size:8px;font-family:'Times New Roman';-inkscape-font-specification:Times-BoldItalic;writing-mode:lr-tb;fill:#000000;fill-opacity:1;fill-rule:nonzero;stroke:none"
               id="text4984"
               x="186.3"
               y="-574.46002"><tspan
                 x="186.3"
                 y="-574.46002"
                 id="tspan4986">s</tspan></text>
<text
               transform="scale(1,-1)"
               style="font-style:italic;font-variant:normal;font-weight:bold;font-size:5.5999999px;font-family:'Times New Roman';-inkscape-font-specification:Times-BoldItalic;writing-mode:lr-tb;fill:#000000;fill-opacity:1;fill-rule:nonzero;stroke:none"
               id="text4988"
               x="189.42"
               y="-572.82001"><tspan
                 x="189.42"
                 y="-572.82001"
                 id="tspan4990">d</tspan></text>
<text
               transform="scale(1,-1)"
               style="font-variant:normal;font-weight:bold;font-size:8px;font-family:'Times New Roman';-inkscape-font-specification:Times-Bold;writing-mode:lr-tb;fill:#000000;fill-opacity:1;fill-rule:nonzero;stroke:none"
               id="text4992"
               x="192.22"
               y="-574.46002"><tspan
                 x="192.22"
                 y="-574.46002"
                 id="tspan4994">(</tspan></text>
<text
               transform="scale(1,-1)"
               style="font-style:italic;font-variant:normal;font-weight:bold;font-size:8px;font-family:'Times New Roman';-inkscape-font-specification:Times-BoldItalic;writing-mode:lr-tb;fill:#000000;fill-opacity:1;fill-rule:nonzero;stroke:none"
               id="text4996"
               x="194.884"
               y="-574.46002"><tspan
                 x="194.884"
                 y="-574.46002"
                 id="tspan4998">t</tspan></text>
<text
               style="font-variant:normal;font-weight:bold;font-size:8px;font-family:'Times New Roman';-inkscape-font-specification:Times-Bold;writing-mode:lr-tb;fill:#000000;fill-opacity:1;fill-rule:nonzero;stroke:none"
               id="text4906-3"
               x="198.75076"
               y="-575.02179"
               transform="scale(1,-1)"><tspan
                 x="198.75076"
                 y="-575.02179"
                 id="tspan4908-6">)</tspan></text>
</g></g></g></g><g
       id="g5514"><g
         id="g5516"
         clip-path="url(#clipPath5518)"><g
           id="g5522"
           transform="translate(-17.28,702)"><path
             d="m 0,0 0,-24 m -36,-12 24,0 m 516,36 0,-24 m 36,-12 -24,0 M 0,-738 l 0,24 m -36,12 24,0 m 516,-36 0,24 m 36,12 -24,0"
             style="fill:none;stroke:#ffffff;stroke-width:0.5;stroke-linecap:butt;stroke-linejoin:miter;stroke-miterlimit:10;stroke-dasharray:none;stroke-opacity:1"
             id="path5524"
             inkscape:connector-curvature="0" /></g><g
           id="g5526"
           transform="translate(-17.28,702)"><path
             d="m 0,0 0,-24 m -36,-12 24,0 m 516,36 0,-24 m 36,-12 -24,0 M 0,-738 l 0,24 m -36,12 24,0 m 516,-36 0,24 m 36,12 -24,0"
             style="fill:none;stroke:#000000;stroke-width:0.25;stroke-linecap:butt;stroke-linejoin:miter;stroke-miterlimit:10;stroke-dasharray:none;stroke-opacity:1"
             id="path5528"
             inkscape:connector-curvature="0" /></g><g
           id="g5530"
           transform="translate(210.72,690)"><path
             d="m 0,0 48,0 m -48,-714 48,0 m -300,381 0,-48 m 552,48 0,-48 M 24,12 24,-12 m 0,-690 0,-24 m -288,369 24,0 m 528,0 24,0 M 24,0 30,0 c 0,-3.31 -2.69,-6 -6,-6 -3.31,0 -6,2.69 -6,6 0,3.31 2.69,6 6,6 3.31,0 6,-2.69 6,-6 m -6,-714 6,0 c 0,-3.312 -2.69,-6 -6,-6 -3.31,0 -6,2.688 -6,6 0,3.312 2.69,6 6,6 3.31,0 6,-2.688 6,-6 m -282,357 6,0 c 0,-3.31 -2.688,-6 -6,-6 -3.312,0 -6,2.69 -6,6 0,3.31 2.688,6 6,6 3.312,0 6,-2.69 6,-6 m 546,0 6,0 c 0,-3.31 -2.69,-6 -6,-6 -3.31,0 -6,2.69 -6,6 0,3.31 2.69,6 6,6 3.31,0 6,-2.69 6,-6"
             style="fill:none;stroke:#ffffff;stroke-width:0.5;stroke-linecap:butt;stroke-linejoin:miter;stroke-miterlimit:10;stroke-dasharray:none;stroke-opacity:1"
             id="path5532"
             inkscape:connector-curvature="0" /></g><g
           id="g5534"
           transform="translate(210.72,690)"><path
             d="m 0,0 48,0 m -48,-714 48,0 m -300,381 0,-48 m 552,48 0,-48 M 24,12 24,-12 m 0,-690 0,-24 m -288,369 24,0 m 528,0 24,0 M 24,0 30,0 c 0,-3.31 -2.69,-6 -6,-6 -3.31,0 -6,2.69 -6,6 0,3.31 2.69,6 6,6 3.31,0 6,-2.69 6,-6 m -6,-714 6,0 c 0,-3.312 -2.69,-6 -6,-6 -3.31,0 -6,2.688 -6,6 0,3.312 2.69,6 6,6 3.31,0 6,-2.688 6,-6 m -282,357 6,0 c 0,-3.31 -2.688,-6 -6,-6 -3.312,0 -6,2.69 -6,6 0,3.31 2.688,6 6,6 3.312,0 6,-2.69 6,-6 m 546,0 6,0 c 0,-3.31 -2.69,-6 -6,-6 -3.31,0 -6,2.69 -6,6 0,3.31 2.69,6 6,6 3.31,0 6,-2.69 6,-6"
             style="fill:none;stroke:#000000;stroke-width:0.25;stroke-linecap:butt;stroke-linejoin:miter;stroke-miterlimit:10;stroke-dasharray:none;stroke-opacity:1"
             id="path5536"
             inkscape:connector-curvature="0" /></g></g></g></g></svg>