<?xml version="1.0" encoding="UTF-8" standalone="no"?>
<svg
   xmlns:dc="http://purl.org/dc/elements/1.1/"
   xmlns:cc="http://creativecommons.org/ns#"
   xmlns:rdf="http://www.w3.org/1999/02/22-rdf-syntax-ns#"
   xmlns:svg="http://www.w3.org/2000/svg"
   xmlns="http://www.w3.org/2000/svg"
   xmlns:xlink="http://www.w3.org/1999/xlink"
   xmlns:sodipodi="http://sodipodi.sourceforge.net/DTD/sodipodi-0.dtd"
   xmlns:inkscape="http://www.inkscape.org/namespaces/inkscape"
   width="260"
   height="90"
   id="svg4155"
   version="1.1"
   inkscape:version="0.91 r"
   sodipodi:docname="Blockchain.svg">
  <metadata
     id="metadata4189">
    <rdf:RDF>
      <cc:Work
         rdf:about="">
        <dc:format>image/svg+xml</dc:format>
        <dc:type
           rdf:resource="http://purl.org/dc/dcmitype/StillImage" />
        <dc:title></dc:title>
      </cc:Work>
    </rdf:RDF>
  </metadata>
  <defs
     id="defs4187" />
  <sodipodi:namedview
     pagecolor="#ffffff"
     bordercolor="#666666"
     borderopacity="1"
     objecttolerance="10"
     gridtolerance="10"
     guidetolerance="10"
     inkscape:pageopacity="0"
     inkscape:pageshadow="2"
     inkscape:window-width="1366"
     inkscape:window-height="716"
     id="namedview4185"
     showgrid="false"
     fit-margin-top="0"
     fit-margin-left="0"
     fit-margin-right="0"
     fit-margin-bottom="0"
     inkscape:zoom="2.1328413"
     inkscape:cx="130.25"
     inkscape:cy="45.25"
     inkscape:window-x="0"
     inkscape:window-y="27"
     inkscape:window-maximized="1"
     inkscape:current-layer="svg4155" />
  <g
     id="g4191"
     transform="matrix(0,1,-1,0,266,-6)">
    <rect
       id="r"
       y="6"
       x="26"
       height="20"
       width="20" />
    <use
       id="use4158"
       xlink:href="#r"
       y="30"
       x="0"
       width="100%"
       height="100%" />
    <use
       id="use4160"
       xlink:href="#r"
       y="60"
       x="0"
       width="100%"
       height="100%" />
    <use
       id="use4162"
       xlink:href="#r"
       y="90"
       x="20"
       width="100%"
       height="100%" />
    <use
       id="use4164"
       xlink:href="#r"
       y="120"
       x="20"
       width="100%"
       height="100%" />
    <use
       id="use4166"
       xlink:href="#r"
       y="150"
       x="20"
       width="100%"
       height="100%" />
    <use
       id="use4168"
       xlink:href="#r"
       y="180"
       x="20"
       width="100%"
       height="100%" />
    <use
       id="use4170"
       xlink:href="#r"
       y="210"
       x="0"
       width="100%"
       height="100%" />
    <rect
       id="t"
       y="66.5"
       x="66.5"
       height="19"
       width="19"
       style="fill:#9865c3;stroke:#000000" />
    <use
       id="use4173"
       xlink:href="#t"
       y="-30"
       x="0"
       width="100%"
       height="100%" />
    <use
       id="use4175"
       xlink:href="#t"
       y="30"
       x="10"
       width="100%"
       height="100%" />
    <use
       id="use4177"
       xlink:href="#t"
       y="60"
       x="10"
       width="100%"
       height="100%" />
    <use
       id="use4179"
       xlink:href="#t"
       y="120"
       x="-60"
       width="100%"
       height="100%" />
    <rect
       id="rect4181"
       y="246.5"
       x="26.5"
       height="19"
       width="19"
       style="fill:#448e73;stroke:#000000" />
    <path
       id="path4183"
       d="m 66,136 10,0 m -40,100 0,10 m 20,-70 0,10 m 0,-40 0,10 m 30,-40 0,10 m -30,-10 0,10 M 76,56 76,66 M 36,56 36,66 m 0,-40 0,10 M 14.813189,205.34165 37.464028,217.91519 M 57.070035,205.22195 36.077544,217.0773 M 34.788331,85.490793 57.43917,98.064333 m 19.606007,-12.69324 -20.992491,11.85535"
       inkscape:connector-curvature="0"
       style="fill:none;stroke:#000000" />
  </g>
</svg>
