<?xml version="1.0" encoding="UTF-8" standalone="no"?>
<!-- Created with Inkscape (http://www.inkscape.org/) -->

<svg
   version="1.1"
   id="svg2"
   xml:space="preserve"
   width="1171.9747"
   height="269.19351"
   viewBox="0 0 1171.9747 269.19351"
   sodipodi:docname="split-ran.svg"
   inkscape:version="1.1.2 (0a00cf5339, 2022-02-04)"
   xmlns:inkscape="http://www.inkscape.org/namespaces/inkscape"
   xmlns:sodipodi="http://sodipodi.sourceforge.net/DTD/sodipodi-0.dtd"
   xmlns="http://www.w3.org/2000/svg"
   xmlns:svg="http://www.w3.org/2000/svg"><defs
     id="defs6"><clipPath
       clipPathUnits="userSpaceOnUse"
       id="clipPath16"><path
         d="M 0,0.028 H 959.981 V 539.999 H 0 Z"
         clip-rule="evenodd"
         id="path14" /></clipPath><clipPath
       clipPathUnits="userSpaceOnUse"
       id="clipPath454"><path
         d="m 237.628,105.618 h 19.446 v 4.706 l 9.439,-9.411 -9.439,-9.439 v 4.733 h -19.446 z"
         clip-rule="evenodd"
         id="path452" /></clipPath><clipPath
       clipPathUnits="userSpaceOnUse"
       id="clipPath498"><path
         d="M 0,0.028 H 959.981 V 539.999 H 0 Z"
         clip-rule="evenodd"
         id="path496" /></clipPath></defs><sodipodi:namedview
     id="namedview4"
     pagecolor="#ffffff"
     bordercolor="#666666"
     borderopacity="1.0"
     inkscape:pageshadow="2"
     inkscape:pageopacity="0.0"
     inkscape:pagecheckerboard="0"
     showgrid="false"
     fit-margin-top="0"
     fit-margin-left="0"
     fit-margin-right="0"
     fit-margin-bottom="0"
     inkscape:zoom="0.75337416"
     inkscape:cx="595.9854"
     inkscape:cy="148.66451"
     inkscape:window-width="1920"
     inkscape:window-height="1163"
     inkscape:window-x="0"
     inkscape:window-y="0"
     inkscape:window-maximized="1"
     inkscape:current-layer="g12" /><g
     id="g8"
     inkscape:groupmode="layer"
     inkscape:label="RAN"
     transform="matrix(1.3333333,0,0,-1.3333333,-83.829331,329.09921)"><g
       id="g10"><g
         id="g12"
         clip-path="url(#clipPath16)"><path
           d="M 388.942,51.874 H 64.517 v 76.394 H 713.339 V 51.874 Z"
           style="fill:#e2f0d9;fill-opacity:1;fill-rule:evenodd;stroke:none"
           id="path86" /><path
           d="M 387.298,134.646 H 62.872 v 76.393 h 648.822 v -76.393 z"
           style="fill:#dae3f3;fill-opacity:1;fill-rule:evenodd;stroke:none"
           id="path88" /><path
           d="m 254.069,139.521 h -46.488 v 65.962 h 92.976 v -65.962 z"
           style="fill:#0000a3;fill-opacity:1;fill-rule:evenodd;stroke:none"
           id="path90" /><g
           id="g92"><path
             d="m 254.069,139.521 h -46.488 v 65.962 h 92.976 v -65.962 z"
             style="fill:none;stroke:#325490;stroke-width:0.99211;stroke-linecap:butt;stroke-linejoin:miter;stroke-miterlimit:3.8637;stroke-dasharray:none;stroke-opacity:1"
             id="path94" /></g><g
           id="g96"><text
             transform="matrix(1,0,0,-1,237.203,164.409)"
             style="font-variant:normal;font-weight:normal;font-size:20.013px;font-family:Carlito;-inkscape-font-specification:Carlito;writing-mode:lr-tb;fill:#ffffff;fill-opacity:1;fill-rule:nonzero;stroke:none"
             id="text100"><tspan
               x="0 10.887072 21.594027"
               y="0"
               sodipodi:role="line"
               id="tspan98">RRC</tspan></text></g><path
           d="m 372.671,61.143 h -32.882 v 65.197 h 65.735 V 61.143 Z"
           style="fill:#00b050;fill-opacity:1;fill-rule:evenodd;stroke:none"
           id="path102" /><g
           id="g104"><path
             d="m 372.671,61.143 h -32.882 v 65.197 h 65.735 V 61.143 Z"
             style="fill:none;stroke:#325490;stroke-width:0.99211;stroke-linecap:butt;stroke-linejoin:miter;stroke-miterlimit:3.8637;stroke-dasharray:none;stroke-opacity:1"
             id="path106" /></g><g
           id="g108"><text
             transform="matrix(1,0,0,-1,350.901,85.209)"
             style="font-variant:normal;font-weight:normal;font-size:20.013px;font-family:Carlito;-inkscape-font-specification:Carlito;writing-mode:lr-tb;fill:#ffffff;fill-opacity:1;fill-rule:nonzero;stroke:none"
             id="text112"><tspan
               x="0 10.306695 22.614691 33.301632"
               y="0"
               sodipodi:role="line"
               id="tspan110">PDCP</tspan></text></g><g
           id="g114"><path
             d="M 304.866,47.055 H 189.581 V 215.887 H 420.123 V 47.055 Z"
             style="fill:none;stroke:#c00000;stroke-width:1.75745;stroke-linecap:butt;stroke-linejoin:miter;stroke-miterlimit:10;stroke-dasharray:7.0298, 5.27235;stroke-dashoffset:0;stroke-opacity:1"
             id="path116" /></g><path
           d="m 470.891,61.143 h -32.882 v 65.197 h 65.736 V 61.143 Z"
           style="fill:#00b050;fill-opacity:1;fill-rule:evenodd;stroke:none"
           id="path118" /><g
           id="g120"><path
             d="m 470.891,61.143 h -32.882 v 65.197 h 65.736 V 61.143 Z"
             style="fill:none;stroke:#325490;stroke-width:0.99211;stroke-linecap:butt;stroke-linejoin:miter;stroke-miterlimit:3.8637;stroke-dasharray:none;stroke-opacity:1"
             id="path122" /></g><g
           id="g124"><text
             transform="matrix(1,0,0,-1,450.794,84.586)"
             style="font-variant:normal;font-weight:normal;font-size:20.013px;font-family:Carlito;-inkscape-font-specification:Carlito;writing-mode:lr-tb;fill:#ffffff;fill-opacity:1;fill-rule:nonzero;stroke:none"
             id="text128"><tspan
               x="0 10.887072 19.092402"
               y="0"
               sodipodi:role="line"
               id="tspan126">RLC</tspan></text></g><path
           d="m 567.921,61.143 h -31.804 v 65.197 h 63.609 V 61.143 Z"
           style="fill:#00b050;fill-opacity:1;fill-rule:evenodd;stroke:none"
           id="path130" /><g
           id="g132"><path
             d="m 567.921,61.143 h -31.804 v 65.197 h 63.609 V 61.143 Z"
             style="fill:none;stroke:#325490;stroke-width:0.99211;stroke-linecap:butt;stroke-linejoin:miter;stroke-miterlimit:3.8637;stroke-dasharray:none;stroke-opacity:1"
             id="path134" /></g><g
           id="g136"><text
             transform="matrix(1,0,0,-1,548.107,84.586)"
             style="font-variant:normal;font-weight:normal;font-size:20.013px;font-family:Carlito;-inkscape-font-specification:Carlito;writing-mode:lr-tb;fill:#ffffff;fill-opacity:1;fill-rule:nonzero;stroke:none"
             id="text140"><tspan
               x="0 17.091103 28.498512"
               y="0"
               sodipodi:role="line"
               id="tspan138">MAC</tspan></text></g><path
           d="m 758.58,60.973 h -31.805 v 65.197 h 63.609 V 60.973 Z"
           style="fill:#595959;fill-opacity:1;fill-rule:evenodd;stroke:none"
           id="path142" /><g
           id="g144"><path
             d="m 758.58,60.973 h -31.805 v 65.197 h 63.609 V 60.973 Z"
             style="fill:none;stroke:#325490;stroke-width:0.99211;stroke-linecap:butt;stroke-linejoin:miter;stroke-miterlimit:3.8637;stroke-dasharray:none;stroke-opacity:1"
             id="path146" /></g><g
           id="g148"><text
             transform="matrix(1,0,0,-1,742.989,94.394)"
             style="font-variant:normal;font-weight:normal;font-size:20.013px;font-family:Carlito;-inkscape-font-specification:Carlito;writing-mode:lr-tb;fill:#ffffff;fill-opacity:1;fill-rule:nonzero;stroke:none"
             id="text152"><tspan
               x="0 12.388047 19.392597"
               y="0"
               sodipodi:role="line"
               id="tspan150">D/A</tspan></text></g><g
           id="g154"><text
             transform="matrix(1,0,0,-1,727.597,78.009)"
             style="font-variant:normal;font-weight:normal;font-size:14.003px;font-family:Carlito;-inkscape-font-specification:Carlito;writing-mode:lr-tb;fill:#ffffff;fill-opacity:1;fill-rule:nonzero;stroke:none"
             id="text158"><tspan
               x="0 5.7972422 13.288847 20.486389 26.689718 33.677216 38.382221 43.871399 47.078087 54.569691"
               y="0"
               sodipodi:role="line"
               id="tspan156">conversion</tspan></text></g><path
           d="m 855.581,59.698 h -33.165 v 65.196 h 66.302 V 59.698 Z"
           style="fill:#595959;fill-opacity:1;fill-rule:evenodd;stroke:none"
           id="path160" /><g
           id="g162"><path
             d="m 855.581,59.698 h -33.165 v 65.196 h 66.302 V 59.698 Z"
             style="fill:none;stroke:#325490;stroke-width:0.99211;stroke-linecap:butt;stroke-linejoin:miter;stroke-miterlimit:3.8637;stroke-dasharray:none;stroke-opacity:1"
             id="path164" /></g><g
           id="g166"><text
             transform="matrix(1,0,0,-1,846.113,93.6)"
             style="font-variant:normal;font-weight:normal;font-size:20.013px;font-family:Carlito;-inkscape-font-specification:Carlito;writing-mode:lr-tb;fill:#ffffff;fill-opacity:1;fill-rule:nonzero;stroke:none"
             id="text170"><tspan
               x="0 10.887072"
               y="0"
               sodipodi:role="line"
               id="tspan168">RF</tspan></text></g><g
           id="g172"><text
             transform="matrix(1,0,0,-1,829.701,77.187)"
             style="font-variant:normal;font-weight:normal;font-size:14.003px;font-family:Carlito;-inkscape-font-specification:Carlito;writing-mode:lr-tb;fill:#ffffff;fill-opacity:1;fill-rule:nonzero;stroke:none"
             id="text176"><tspan
               x="0 4.2849178 8.9899263 16.383511 23.581053 28.272057 31.36672 38.354218 45.64978"
               y="0"
               sodipodi:role="line"
               id="tspan174">front end</tspan></text></g><path
           d="m 663.024,62.05 h -31.805 v 65.197 h 63.609 V 62.05 Z"
           style="fill:#00b050;fill-opacity:1;fill-rule:evenodd;stroke:none"
           id="path178" /><g
           id="g180"><path
             d="m 663.024,62.05 h -31.805 v 65.197 h 63.609 V 62.05 Z"
             style="fill:none;stroke:#325490;stroke-width:0.99211;stroke-linecap:butt;stroke-linejoin:miter;stroke-miterlimit:3.8637;stroke-dasharray:none;stroke-opacity:1"
             id="path182" /></g><g
           id="g184"><text
             transform="matrix(1,0,0,-1,648,84.586)"
             style="font-variant:normal;font-weight:normal;font-size:20.013px;font-family:Carlito;-inkscape-font-specification:Carlito;writing-mode:lr-tb;fill:#ffffff;fill-opacity:1;fill-rule:nonzero;stroke:none"
             id="text188"><tspan
               x="0 10.306695 22.714754"
               y="0"
               sodipodi:role="line"
               id="tspan186">PHY</tspan></text></g><g
           id="g190"><path
             d="m 414.709,90.794 h 14.258"
             style="fill:none;stroke:#00b050;stroke-width:3.25978;stroke-linecap:butt;stroke-linejoin:miter;stroke-miterlimit:10;stroke-dasharray:none;stroke-opacity:1"
             id="path192" /></g><path
           d="m 405.581,90.822 9.78,4.876 v -9.78 z"
           style="fill:#00b050;fill-opacity:1;fill-rule:evenodd;stroke:none"
           id="path194" /><path
           d="m 438.094,90.765 -9.779,-4.875 v 9.779 z"
           style="fill:#00b050;fill-opacity:1;fill-rule:evenodd;stroke:none"
           id="path196" /><g
           id="g198"><path
             d="m 512.929,90.794 h 14.258"
             style="fill:none;stroke:#00b050;stroke-width:3.25978;stroke-linecap:butt;stroke-linejoin:miter;stroke-miterlimit:10;stroke-dasharray:none;stroke-opacity:1"
             id="path200" /></g><path
           d="m 503.802,90.822 9.779,4.876 v -9.78 z"
           style="fill:#00b050;fill-opacity:1;fill-rule:evenodd;stroke:none"
           id="path202" /><path
           d="m 536.315,90.765 -9.78,-4.875 v 9.779 z"
           style="fill:#00b050;fill-opacity:1;fill-rule:evenodd;stroke:none"
           id="path204" /><g
           id="g206"><path
             d="m 608.854,91.276 h 14.258"
             style="fill:none;stroke:#00b050;stroke-width:3.25978;stroke-linecap:butt;stroke-linejoin:miter;stroke-miterlimit:10;stroke-dasharray:none;stroke-opacity:1"
             id="path208" /></g><path
           d="m 599.726,91.304 9.78,4.876 V 86.4 Z"
           style="fill:#00b050;fill-opacity:1;fill-rule:evenodd;stroke:none"
           id="path210" /><path
           d="m 632.239,91.247 -9.779,-4.875 v 9.779 z"
           style="fill:#00b050;fill-opacity:1;fill-rule:evenodd;stroke:none"
           id="path212" /><g
           id="g214"><path
             d="m 703.984,91.928 h 14.259"
             style="fill:none;stroke:#404040;stroke-width:3.25978;stroke-linecap:butt;stroke-linejoin:miter;stroke-miterlimit:10;stroke-dasharray:none;stroke-opacity:1"
             id="path216" /></g><path
           d="m 694.857,91.956 9.779,4.875 v -9.779 z"
           style="fill:#404040;fill-opacity:1;fill-rule:evenodd;stroke:none"
           id="path218" /><path
           d="m 727.37,91.899 -9.779,-4.875 v 9.779 z"
           style="fill:#404040;fill-opacity:1;fill-rule:evenodd;stroke:none"
           id="path220" /><g
           id="g222"><path
             d="m 799.54,91.502 h 14.258"
             style="fill:none;stroke:#404040;stroke-width:3.25978;stroke-linecap:butt;stroke-linejoin:miter;stroke-miterlimit:10;stroke-dasharray:none;stroke-opacity:1"
             id="path224" /></g><path
           d="m 790.413,91.531 9.779,4.875 v -9.779 z"
           style="fill:#404040;fill-opacity:1;fill-rule:evenodd;stroke:none"
           id="path226" /><path
           d="m 822.926,91.474 -9.78,-4.876 v 9.78 z"
           style="fill:#404040;fill-opacity:1;fill-rule:evenodd;stroke:none"
           id="path228" /><g
           id="g230"><path
             d="m 897.874,92.268 h 14.258"
             style="fill:none;stroke:#404040;stroke-width:3.25978;stroke-linecap:butt;stroke-linejoin:miter;stroke-miterlimit:10;stroke-dasharray:none;stroke-opacity:1"
             id="path232" /></g><path
           d="m 888.746,92.296 9.78,4.876 v -9.78 z"
           style="fill:#404040;fill-opacity:1;fill-rule:evenodd;stroke:none"
           id="path234" /><path
           d="m 921.26,92.239 -9.78,-4.875 v 9.779 z"
           style="fill:#404040;fill-opacity:1;fill-rule:evenodd;stroke:none"
           id="path236" /><g
           id="g238"><text
             transform="matrix(1,0,0,-1,215.405,231.109)"
             style="font-variant:normal;font-weight:normal;font-size:20.013px;font-family:Carlito;-inkscape-font-specification:Carlito;writing-mode:lr-tb;fill:#c00000;fill-opacity:1;fill-rule:nonzero;stroke:none"
             id="text242"><tspan
               x="0 10.686942 20.593376 30.900072 37.684479 44.288769 53.874996 58.377922 62.960899 75.769218 86.356094 90.859016 97.643425 102.14635 108.2303 118.91724 131.72557"
               y="0"
               sodipodi:role="line"
               id="tspan240">Central Unit (CU)</tspan></text></g><g
           id="g244"><path
             d="m 309.969,172.46 343.672,-0.029"
             style="fill:none;stroke:#0000a3;stroke-width:2.01256;stroke-linecap:butt;stroke-linejoin:miter;stroke-miterlimit:10;stroke-dasharray:8.05026, 6.03769;stroke-dashoffset:0;stroke-opacity:1"
             id="path246" /></g><path
           d="m 300.586,172.46 10.063,5.017 v -10.063 z"
           style="fill:#0000a3;fill-opacity:1;fill-rule:evenodd;stroke:none"
           id="path248" /><path
           d="m 663.024,172.431 -10.063,-5.017 v 10.063 z"
           style="fill:#0000a3;fill-opacity:1;fill-rule:evenodd;stroke:none"
           id="path250" /><g
           id="g252"><path
             d="m 372.671,172.488 0.057,-36.822"
             style="fill:none;stroke:#0000a3;stroke-width:1.75745;stroke-linecap:butt;stroke-linejoin:miter;stroke-miterlimit:10;stroke-dasharray:7.0298, 5.27235;stroke-dashoffset:0;stroke-opacity:1"
             id="path254" /></g><path
           d="m 372.728,126.397 -4.961,9.921 h 9.921 z"
           style="fill:#0000a3;fill-opacity:1;fill-rule:evenodd;stroke:none"
           id="path256" /><g
           id="g258"><path
             d="m 470.891,172.488 0.057,-36.822"
             style="fill:none;stroke:#0000a3;stroke-width:1.75745;stroke-linecap:butt;stroke-linejoin:miter;stroke-miterlimit:10;stroke-dasharray:7.0298, 5.27235;stroke-dashoffset:0;stroke-opacity:1"
             id="path260" /></g><path
           d="m 470.948,126.397 -4.961,9.921 h 9.922 z"
           style="fill:#0000a3;fill-opacity:1;fill-rule:evenodd;stroke:none"
           id="path262" /><g
           id="g264"><path
             d="m 567.468,172.488 0.056,-36.822"
             style="fill:none;stroke:#0000a3;stroke-width:1.75745;stroke-linecap:butt;stroke-linejoin:miter;stroke-miterlimit:10;stroke-dasharray:7.0298, 5.27235;stroke-dashoffset:0;stroke-opacity:1"
             id="path266" /></g><path
           d="m 567.524,126.397 -4.96,9.921 h 9.921 z"
           style="fill:#0000a3;fill-opacity:1;fill-rule:evenodd;stroke:none"
           id="path268" /><g
           id="g270"><path
             d="m 662.655,172.346 0.057,-36.822"
             style="fill:none;stroke:#0000a3;stroke-width:1.75745;stroke-linecap:butt;stroke-linejoin:miter;stroke-miterlimit:10;stroke-dasharray:7.0298, 5.27235;stroke-dashoffset:0;stroke-opacity:1"
             id="path272" /></g><path
           d="m 662.712,126.255 -4.961,9.921 h 9.921 z"
           style="fill:#0000a3;fill-opacity:1;fill-rule:evenodd;stroke:none"
           id="path274" /><g
           id="g276"><text
             transform="matrix(1,0,0,-1,122.003,176.003)"
             style="font-variant:normal;font-weight:normal;font-size:18px;font-family:Carlito;-inkscape-font-specification:Carlito;writing-mode:lr-tb;fill:#0000a3;fill-opacity:1;fill-rule:nonzero;stroke:none"
             id="text280"><tspan
               x="0 7.3979998 16.884001 26.190001 32.183998 38.178001 47.664001 51.66"
               y="0"
               sodipodi:role="line"
               id="tspan278">control </tspan></text></g><g
           id="g282"><text
             transform="matrix(1,0,0,-1,129.487,154.403)"
             style="font-variant:normal;font-weight:normal;font-size:18px;font-family:Carlito;-inkscape-font-specification:Carlito;writing-mode:lr-tb;fill:#0000a3;fill-opacity:1;fill-rule:nonzero;stroke:none"
             id="text286"><tspan
               x="0 9.3959999 13.5 22.176001 31.662001"
               y="0"
               sodipodi:role="line"
               id="tspan284">plane</tspan></text></g><g
           id="g288"><text
             transform="matrix(1,0,0,-1,128.098,94.507)"
             style="font-variant:normal;font-weight:normal;font-size:18px;font-family:Carlito;-inkscape-font-specification:Carlito;writing-mode:lr-tb;fill:#548235;fill-opacity:1;fill-rule:nonzero;stroke:none"
             id="text292"><tspan
               x="0 9.3959999 16.469999 25.452 31.733999"
               y="0"
               sodipodi:role="line"
               id="tspan290">user </tspan></text></g><g
           id="g294"><text
             transform="matrix(1,0,0,-1,125.688,72.907)"
             style="font-variant:normal;font-weight:normal;font-size:18px;font-family:Carlito;-inkscape-font-specification:Carlito;writing-mode:lr-tb;fill:#548235;fill-opacity:1;fill-rule:nonzero;stroke:none"
             id="text298"><tspan
               x="0 9.3959999 13.5 22.176001 31.662001"
               y="0"
               sodipodi:role="line"
               id="tspan296">plane</tspan></text></g><g
           id="g300"><path
             d="m 311.329,153.411 h 10.148 v -45.156 h 10.148"
             style="fill:none;stroke:#0000a3;stroke-width:2.01256;stroke-linecap:butt;stroke-linejoin:miter;stroke-miterlimit:10;stroke-dasharray:none;stroke-opacity:1"
             id="path302" /></g><path
           d="m 301.946,153.411 10.063,5.017 v -10.063 z"
           style="fill:#0000a3;fill-opacity:1;fill-rule:evenodd;stroke:none"
           id="path304" /><path
           d="m 341.008,108.255 -10.063,-5.046 v 10.063 z"
           style="fill:#0000a3;fill-opacity:1;fill-rule:evenodd;stroke:none"
           id="path306" /><g
           id="g308"><path
             d="M 540.51,46.431 H 425.225 V 215.263 H 655.767 V 46.431 Z"
             style="fill:none;stroke:#c00000;stroke-width:1.75745;stroke-linecap:butt;stroke-linejoin:miter;stroke-miterlimit:10;stroke-dasharray:7.0298, 5.27235;stroke-dashoffset:0;stroke-opacity:1"
             id="path310" /></g><g
           id="g312"><path
             d="M 776.154,45.808 H 660.869 V 214.639 H 891.411 V 45.808 Z"
             style="fill:none;stroke:#c00000;stroke-width:1.75745;stroke-linecap:butt;stroke-linejoin:miter;stroke-miterlimit:10;stroke-dasharray:7.0298, 5.27235;stroke-dashoffset:0;stroke-opacity:1"
             id="path314" /></g><g
           id="g316"><text
             transform="matrix(1,0,0,-1,451.814,232.186)"
             style="font-variant:normal;font-weight:normal;font-size:20.013px;font-family:Carlito;-inkscape-font-specification:Carlito;writing-mode:lr-tb;fill:#c00000;fill-opacity:1;fill-rule:nonzero;stroke:none"
             id="text320"><tspan
               x="0 12.307995 16.890972 24.495913 31.180254 38.08474 42.667717 53.254593 63.761417 70.26564 80.172081 90.758957 95.341934 108.15025 118.73713 123.24005 129.92439 134.50737 140.59132 152.97937 165.78769"
               y="0"
               sodipodi:role="line"
               id="tspan318">Distributed Unit (DU)</tspan></text></g><g
           id="g322"><text
             transform="matrix(1,0,0,-1,713.112,231.194)"
             style="font-variant:normal;font-weight:normal;font-size:20.013px;font-family:Carlito;-inkscape-font-specification:Carlito;writing-mode:lr-tb;fill:#c00000;fill-opacity:1;fill-rule:nonzero;stroke:none"
             id="text326"><tspan
               x="0 10.887072 20.473299 31.060177 35.563103 46.149979 50.732956 63.541275 74.048103 78.631081 85.315422 89.898399 95.982346 106.86942 119.75779"
               y="0"
               sodipodi:role="line"
               id="tspan324">Radio Unit (RU)</tspan></text></g><g
           id="g370"><path
             d="m 196.781,172.488 -104.06,0.284"
             style="fill:none;stroke:#0000a3;stroke-width:2.01256;stroke-linecap:butt;stroke-linejoin:miter;stroke-miterlimit:10;stroke-dasharray:none;stroke-opacity:1"
             id="path372" /></g><path
           d="m 206.164,172.46 -10.063,-5.017 v 10.063 z"
           style="fill:#0000a3;fill-opacity:1;fill-rule:evenodd;stroke:none"
           id="path374" /><path
           d="m 83.339,172.8 10.063,5.017 v -10.063 z"
           style="fill:#0000a3;fill-opacity:1;fill-rule:evenodd;stroke:none"
           id="path376" /><g
           id="g378"><path
             d="M 328.989,89.518 102.557,89.49"
             style="fill:none;stroke:#00b050;stroke-width:2.01256;stroke-linecap:butt;stroke-linejoin:miter;stroke-miterlimit:10;stroke-dasharray:none;stroke-opacity:1"
             id="path380" /></g><path
           d="M 338.372,89.518 328.309,84.472 V 94.535 Z"
           style="fill:#00b050;fill-opacity:1;fill-rule:evenodd;stroke:none"
           id="path382" /><path
           d="m 93.175,89.49 10.063,5.045 V 84.472 Z"
           style="fill:#00b050;fill-opacity:1;fill-rule:evenodd;stroke:none"
           id="path384" /><g
           id="g386"><path
             d="m 904.649,138.416 v 0 c 0,2.721 0.85,5.386 2.466,7.71 1.616,2.353 3.912,4.309 6.718,5.669 2.778,1.361 5.953,2.07 9.184,2.07 v 0 c 3.203,0 6.378,-0.709 9.156,-2.07 2.807,-1.36 5.103,-3.316 6.718,-5.669 1.616,-2.324 2.466,-4.989 2.466,-7.71 v 0 0 c 0,-2.722 -0.85,-5.386 -2.466,-7.739 -1.615,-2.324 -3.911,-4.28 -6.718,-5.641 -2.778,-1.36 -5.953,-2.069 -9.156,-2.069 v 0 c -3.231,0 -6.406,0.709 -9.184,2.069 -2.806,1.361 -5.102,3.317 -6.718,5.641 -1.616,2.353 -2.466,5.017 -2.466,7.739 z"
             style="fill:none;stroke:#011199;stroke-width:0.99211;stroke-linecap:butt;stroke-linejoin:round;stroke-miterlimit:10;stroke-dasharray:none;stroke-opacity:1"
             id="path388" /></g><g
           id="g390"><path
             d="m 917.036,138.246 v 0 c 0,0.85 0.284,1.7 0.794,2.466 0.539,0.737 1.304,1.36 2.211,1.786 0.935,0.425 1.956,0.652 3.005,0.652 v 0 c 1.077,0 2.097,-0.227 3.033,-0.652 0.907,-0.426 1.672,-1.049 2.211,-1.786 0.51,-0.766 0.793,-1.616 0.793,-2.466 v 0 0 c 0,-0.851 -0.283,-1.701 -0.793,-2.466 -0.539,-0.737 -1.304,-1.361 -2.211,-1.786 -0.936,-0.425 -1.956,-0.681 -3.033,-0.681 v 0 c -1.049,0 -2.07,0.256 -3.005,0.681 -0.907,0.425 -1.672,1.049 -2.211,1.786 -0.51,0.765 -0.794,1.615 -0.794,2.466 z"
             style="fill:none;stroke:#011199;stroke-width:0.99211;stroke-linecap:butt;stroke-linejoin:round;stroke-miterlimit:10;stroke-dasharray:none;stroke-opacity:1"
             id="path392" /></g><g
           id="g394"><path
             d="m 914.315,138.331 v 0 c 0,1.219 0.397,2.438 1.162,3.486 0.766,1.077 1.843,1.956 3.175,2.58 1.332,0.623 2.806,0.935 4.337,0.935 v 0 c 1.531,0 3.005,-0.312 4.337,-0.935 1.332,-0.624 2.409,-1.503 3.175,-2.58 0.765,-1.048 1.162,-2.267 1.162,-3.486 v 0 0 c 0,-1.219 -0.397,-2.438 -1.162,-3.515 -0.766,-1.049 -1.843,-1.928 -3.175,-2.551 -1.332,-0.624 -2.806,-0.936 -4.337,-0.936 v 0 c -1.531,0 -3.005,0.312 -4.337,0.936 -1.332,0.623 -2.409,1.502 -3.175,2.551 -0.765,1.077 -1.162,2.296 -1.162,3.515 z"
             style="fill:none;stroke:#011199;stroke-width:0.99211;stroke-linecap:butt;stroke-linejoin:round;stroke-miterlimit:10;stroke-dasharray:none;stroke-opacity:1"
             id="path396" /></g><g
           id="g398"><path
             d="m 911.707,138.302 v 0 c 0,1.673 0.539,3.317 1.531,4.791 0.992,1.446 2.438,2.664 4.195,3.487 1.729,0.85 3.685,1.275 5.698,1.275 v 0 c 2.012,0 3.968,-0.425 5.726,-1.275 1.729,-0.823 3.174,-2.041 4.167,-3.487 0.992,-1.474 1.53,-3.118 1.53,-4.791 v 0 0 c 0,-1.672 -0.538,-3.316 -1.53,-4.79 -0.993,-1.446 -2.438,-2.665 -4.167,-3.487 -1.758,-0.85 -3.714,-1.304 -5.726,-1.304 v 0 c -2.013,0 -3.969,0.454 -5.698,1.304 -1.757,0.822 -3.203,2.041 -4.195,3.487 -0.992,1.474 -1.531,3.118 -1.531,4.79 z"
             style="fill:none;stroke:#011199;stroke-width:0.99211;stroke-linecap:butt;stroke-linejoin:round;stroke-miterlimit:10;stroke-dasharray:none;stroke-opacity:1"
             id="path400" /></g><g
           id="g402"><path
             d="m 907.909,138.387 v 0 c 0,2.126 0.68,4.252 2.012,6.095 1.304,1.842 3.175,3.401 5.443,4.45 2.267,1.077 4.847,1.644 7.483,1.644 v 0 c 2.608,0 5.188,-0.567 7.455,-1.644 2.268,-1.049 4.139,-2.608 5.443,-4.45 1.332,-1.843 2.012,-3.969 2.012,-6.095 v 0 0 c 0,-2.126 -0.68,-4.252 -2.012,-6.094 -1.304,-1.843 -3.175,-3.402 -5.443,-4.45 -2.267,-1.078 -4.847,-1.645 -7.455,-1.645 v 0 c -2.636,0 -5.216,0.567 -7.483,1.645 -2.268,1.048 -4.139,2.607 -5.443,4.45 -1.332,1.842 -2.012,3.968 -2.012,6.094 z"
             style="fill:none;stroke:#011199;stroke-width:0.99211;stroke-linecap:butt;stroke-linejoin:round;stroke-miterlimit:10;stroke-dasharray:none;stroke-opacity:1"
             id="path404" /></g><path
           d="m 921.912,140.939 -9.751,12.359 2.608,1.672 4.535,0.567 3.288,0.595 5.754,-0.113 5.245,-1.588 1.644,-0.793 -10.035,-12.784 z"
           style="fill:#ffffff;fill-opacity:1;fill-rule:evenodd;stroke:none"
           id="path406" /><path
           d="m 922.791,60.945 h -1.786 v 78.123 h 3.571 V 60.945 Z"
           style="fill:#000000;fill-opacity:1;fill-rule:evenodd;stroke:none"
           id="path408" /><path
           d="m 905.754,129.118 v 1.049 h 34.413 v -2.069 h -34.413 z"
           style="fill:#000000;fill-opacity:1;fill-rule:evenodd;stroke:none"
           id="path410" /><path
           d="m 913.323,124.186 h -3.572 v 7.738 h 7.115 v -7.738 z"
           style="fill:#000000;fill-opacity:1;fill-rule:evenodd;stroke:none"
           id="path412" /><g
           id="g414"><path
             d="m 913.323,124.186 h -3.572 v 7.738 h 7.115 v -7.738 z"
             style="fill:none;stroke:#000000;stroke-width:0.99211;stroke-linecap:butt;stroke-linejoin:miter;stroke-miterlimit:3.8637;stroke-dasharray:none;stroke-opacity:1"
             id="path416" /></g><path
           d="m 933.591,118.403 h -1.673 v 13.947 h 3.345 v -13.947 z"
           style="fill:#000000;fill-opacity:1;fill-rule:evenodd;stroke:none"
           id="path418" /><g
           id="g420"><path
             d="m 933.591,118.403 h -1.673 v 13.947 h 3.345 v -13.947 z"
             style="fill:none;stroke:#000000;stroke-width:0.99211;stroke-linecap:butt;stroke-linejoin:miter;stroke-miterlimit:3.8637;stroke-dasharray:none;stroke-opacity:1"
             id="path422" /></g><g
           id="g430" /><path
           d="M 216.312,113.074 V 92.013 l 15.59,-16.81 c -0.028,8.249 -0.056,16.498 -0.085,24.718 z"
           style="fill:#00b050;fill-opacity:1;fill-rule:evenodd;stroke:none"
           id="path436" /><path
           d="m 220.224,112.876 c -1.304,0 -0.114,-0.114 -3.884,0 l 15.449,-13.55 c 2.438,-0.113 1.304,0.028 4.592,-0.113 z"
           style="fill:#a9d18e;fill-opacity:1;fill-rule:evenodd;stroke:none"
           id="path438" /><path
           d="m 234.028,75.09 h -2.381 v 24.094 h 4.734 V 75.09 Z"
           style="fill:#e2f0d9;fill-opacity:1;fill-rule:evenodd;stroke:none"
           id="path440" /><path
           d="M 204.151,112.649 V 91.502 l 15.591,-16.837 c -0.029,8.277 -0.057,16.526 -0.085,24.803 z"
           style="fill:#00b050;fill-opacity:1;fill-rule:evenodd;stroke:none"
           id="path442" /><path
           d="m 208.063,112.45 c -1.304,0 -0.113,-0.113 -3.883,0 l 15.448,-13.549 c 2.438,-0.114 1.304,0.028 4.592,-0.114 z"
           style="fill:#a9d18e;fill-opacity:1;fill-rule:evenodd;stroke:none"
           id="path444" /><path
           d="m 221.868,74.806 h -2.381 v 24.18 h 4.733 v -24.18 z"
           style="fill:#e2f0d9;fill-opacity:1;fill-rule:evenodd;stroke:none"
           id="path446" /></g></g><g
       id="g448"><g
         id="g450"
         clip-path="url(#clipPath454)"><path
           d="m 237.628,110.324 h 28.885 v -18.85 h -28.885 z"
           style="fill:#e2f0d9;fill-opacity:1;fill-rule:evenodd;stroke:none"
           id="path456" /><path
           d="m 239.244,91.474 v 18.85 h 27.241 v -18.85 z"
           style="fill:#e0efd7;fill-opacity:1;fill-rule:evenodd;stroke:none"
           id="path458" /><path
           d="m 240.831,91.474 v 18.85 h 25.654 v -18.85 z"
           style="fill:#dfeed5;fill-opacity:1;fill-rule:evenodd;stroke:none"
           id="path460" /><path
           d="m 242.447,91.474 v 18.85 h 24.038 v -18.85 z"
           style="fill:#ddedd2;fill-opacity:1;fill-rule:evenodd;stroke:none"
           id="path462" /><path
           d="m 244.035,91.474 v 18.85 h 22.45 v -18.85 z"
           style="fill:#dbecd0;fill-opacity:1;fill-rule:evenodd;stroke:none"
           id="path464" /><path
           d="m 245.65,91.474 v 18.85 h 20.835 v -18.85 z"
           style="fill:#d9ebce;fill-opacity:1;fill-rule:evenodd;stroke:none"
           id="path466" /><path
           d="m 247.238,91.474 v 18.85 h 19.247 v -18.85 z"
           style="fill:#d8eacc;fill-opacity:1;fill-rule:evenodd;stroke:none"
           id="path468" /><path
           d="m 248.854,91.474 v 18.85 h 17.631 v -18.85 z"
           style="fill:#d6e9ca;fill-opacity:1;fill-rule:evenodd;stroke:none"
           id="path470" /><path
           d="m 250.441,91.474 v 18.85 h 16.044 v -18.85 z"
           style="fill:#d4e8c8;fill-opacity:1;fill-rule:evenodd;stroke:none"
           id="path472" /><path
           d="m 252.057,91.474 v 18.85 h 14.428 v -18.85 z"
           style="fill:#d3e8c5;fill-opacity:1;fill-rule:evenodd;stroke:none"
           id="path474" /><path
           d="m 253.672,91.474 v 18.85 h 12.813 v -18.85 z"
           style="fill:#d1e7c3;fill-opacity:1;fill-rule:evenodd;stroke:none"
           id="path476" /><path
           d="m 255.26,91.474 v 18.85 h 11.225 v -18.85 z"
           style="fill:#cfe6c1;fill-opacity:1;fill-rule:evenodd;stroke:none"
           id="path478" /><path
           d="m 256.876,91.474 v 18.85 h 9.609 v -18.85 z"
           style="fill:#cee5bf;fill-opacity:1;fill-rule:evenodd;stroke:none"
           id="path480" /><path
           d="m 258.463,91.474 v 18.85 h 8.022 v -18.85 z"
           style="fill:#cce4bd;fill-opacity:1;fill-rule:evenodd;stroke:none"
           id="path482" /><path
           d="m 260.079,91.474 v 18.85 h 6.406 v -18.85 z"
           style="fill:#cae3bb;fill-opacity:1;fill-rule:evenodd;stroke:none"
           id="path484" /><path
           d="m 261.666,91.474 v 18.85 h 4.819 v -18.85 z"
           style="fill:#c8e2b8;fill-opacity:1;fill-rule:evenodd;stroke:none"
           id="path486" /><path
           d="m 263.282,91.474 v 18.85 h 3.203 v -18.85 z"
           style="fill:#c7e1b6;fill-opacity:1;fill-rule:evenodd;stroke:none"
           id="path488" /><path
           d="m 264.869,91.474 v 18.85 h 1.644 v -18.85 z"
           style="fill:#c5e0b4;fill-opacity:1;fill-rule:evenodd;stroke:none"
           id="path490" /></g></g><g
       id="g492"><g
         id="g494"
         clip-path="url(#clipPath498)"><g
           id="g500"><text
             transform="matrix(1,0,0,-1,201.09,66.501)"
             style="font-variant:normal;font-weight:normal;font-size:11.991px;font-family:Carlito;-inkscape-font-specification:Carlito;writing-mode:lr-tb;fill:#000000;fill-opacity:1;fill-rule:nonzero;stroke:none"
             id="text504"><tspan
               x="0 6.2952752 11.991 15.792147 21.57181 27.171606 31.16461 36.944271 46.525082"
               y="0"
               sodipodi:role="line"
               id="tspan502">datagrams</tspan></text></g></g></g></g></svg>
