<?xml version="1.0" standalone="yes"?>

<svg version="1.1" viewBox="0.0 0.0 977.5354330708661 340.0787401574803" fill="none" stroke="none" stroke-linecap="square" stroke-miterlimit="10" xmlns="http://www.w3.org/2000/svg" xmlns:xlink="http://www.w3.org/1999/xlink"><clipPath id="p.0"><path d="m0 0l977.53546 0l0 340.07874l-977.53546 0l0 -340.07874z" clip-rule="nonzero"></path></clipPath><g clip-path="url(#p.0)"><path fill="#000000" fill-opacity="0.0" d="m0 0l977.53546 0l0 340.07874l-977.53546 0z" fill-rule="evenodd"></path><path fill="#000000" fill-opacity="0.0" d="m81.32284 82.23097l0 42.83465" fill-rule="evenodd"></path><path stroke="#999999" stroke-width="1.0" stroke-linejoin="round" stroke-linecap="butt" d="m81.32284 82.23097l0 42.83465" fill-rule="evenodd"></path><path fill="#000000" fill-opacity="0.0" d="m217.52231 82.23097l0 34.992126" fill-rule="evenodd"></path><path stroke="#999999" stroke-width="1.0" stroke-linejoin="round" stroke-linecap="butt" d="m217.52231 82.23097l0 34.992126" fill-rule="evenodd"></path><path fill="#000000" fill-opacity="0.0" d="m485.01837 36.278214l0 306.99213" fill-rule="evenodd"></path><path stroke="#b7b7b7" stroke-width="1.0" stroke-linejoin="round" stroke-linecap="butt" stroke-dasharray="4.0,3.0" d="m485.01837 36.278214l0 306.99213" fill-rule="evenodd"></path><path fill="#a4c2f4" d="m691.7442 183.39545l0 0c-2.4450073 -16.163284 5.5825195 -32.16397 20.67633 -41.212357c15.09375 -9.048386 34.60663 -9.557587 50.258545 -1.3115387l0 0c5.5443726 -9.39801 15.6922 -15.886681 27.374023 -17.503326c11.681763 -1.6166458 23.52539 1.8286209 31.948425 9.293671l0 0c4.7231445 -8.520836 13.997009 -14.24575 24.530884 -15.143242c10.533813 -0.8974991 20.836792 3.1594467 27.252869 10.731209l0 0c8.532959 -9.032059 22.109192 -12.834938 34.854065 -9.763092c12.744934 3.0718384 22.369446 12.46666 24.708984 24.119278l0 0c10.454346 2.565155 19.162598 9.08609 23.874817 17.878021c4.712219 8.791931 4.9661865 18.992386 0.696228 27.965881l0 0c10.294434 12.052399 12.702576 28.112076 6.3257446 42.185852c-6.376892 14.073761 -20.58075 24.047195 -37.310974 26.198395c-0.11791992 13.20874 -8.170959 25.328888 -21.055115 31.688873c-12.884155 6.3599854 -28.587524 5.966614 -41.057373 -1.0284729c-5.3115234 15.819733 -20.261597 27.459747 -38.391235 29.891144c-18.129639 2.431366 -36.188843 -4.781769 -46.375244 -18.523102c-12.48645 6.7731323 -27.469116 8.724274 -41.5683 5.4132385c-14.099121 -3.3110046 -26.127075 -11.605286 -33.370605 -23.01175l0 0c-12.7595215 1.3431396 -25.096313 -4.603546 -30.887512 -14.888763c-5.79126 -10.285187 -3.8041382 -22.719421 4.9750977 -31.131622l0 0c-11.381897 -6.026108 -17.189575 -17.983902 -14.394653 -29.637863c2.7949219 -11.653961 13.559143 -20.36325 26.679565 -21.586334z" fill-rule="evenodd"></path><path fill="#000000" fill-opacity="0.0" d="m679.2071 235.24258l0 0c5.3710938 2.8437347 11.57605 4.133728 17.781616 3.696762m8.127991 42.32466c2.6686401 -0.2809143 5.284424 -0.87579346 7.779846 -1.7692871m67.155334 19.367065c-1.8769531 -2.531952 -3.4484253 -5.2375793 -4.687683 -8.07077m89.4574 -3.29776l0 0c0.96832275 -2.8841553 1.5957642 -5.8526 1.8717651 -8.855804m60.238403 -21.803497c0.12554932 -14.062729 -8.753723 -26.938705 -22.823914 -33.09732m53.808777 -35.285416c-2.2786255 4.78862 -5.757202 9.036545 -10.162964 12.410706m-14.405945 -58.255875l0 0c0.38830566 1.9337616 0.5679321 3.896576 0.53656006 5.861252m-60.09857 -20.216843l0 0c-2.12854 2.2530518 -3.8822021 4.7707977 -5.20636 7.474869m-46.57782 -3.0638275l0 0c-1.1343384 2.0464325 -1.9813843 4.211899 -2.5216675 6.446533m-56.801697 1.7632904l0 0c3.3118896 1.7448578 6.3759155 3.844986 9.124634 6.254242m-80.05859 36.269882l0 0c0.33703613 2.2277222 0.8694458 4.4279785 1.5924072 6.5801697" fill-rule="evenodd"></path><path fill="#000000" d="m775.1191 219.20753l0 -12.671875l1.578125 0l0 12.671875l-1.578125 0zm10.599487 0l0 -6.0q0 -1.21875 -0.5625 -1.671875q-0.5625 -0.453125 -1.5 -0.453125q-0.796875 0 -1.5625 0.421875q-0.765625 0.421875 -1.15625 1.0l0 6.703125l-1.421875 0l0 -9.171875l1.421875 0l0 1.328125q0.59375 -0.6875 1.453125 -1.125q0.875 -0.4375 1.828125 -0.4375q2.921875 0 2.921875 2.96875l0 6.4375l-1.421875 0zm6.404602 0.234375q-2.046875 0 -2.046875 -2.15625l0 -6.0l-1.515625 0l0 -1.25l1.515625 0l0 -2.515625l1.4375 0l0 2.515625l1.859375 0l0 1.25l-1.859375 0l0 5.703125q0 0.515625 0.21875 0.84375q0.234375 0.328125 0.703125 0.328125q0.59375 0 0.96875 -0.375l0.421875 1.0625q-0.59375 0.59375 -1.703125 0.59375zm7.2974243 0q-2.0625 0 -3.375 -1.34375q-1.296875 -1.359375 -1.296875 -3.484375q0 -2.03125 1.296875 -3.421875q1.296875 -1.390625 3.234375 -1.390625q1.96875 0 3.1875 1.375q1.21875 1.359375 1.21875 3.546875l0 0.359375l-7.4375 0q0.078125 1.40625 1.015625 2.296875q0.9375 0.875 2.296875 0.875q1.671875 0 2.828125 -1.15625l0.6875 0.9375q-1.40625 1.40625 -3.65625 1.40625zm2.859375 -5.40625q0 -1.265625 -0.84375 -2.15625q-0.828125 -0.90625 -2.1875 -0.90625q-1.265625 0 -2.109375 0.90625q-0.84375 0.890625 -0.890625 2.15625l6.03125 0zm3.503479 5.171875l0 -9.171875l1.421875 0l0 1.484375q1.28125 -1.671875 3.0625 -1.671875l0 1.453125l-0.5625 -0.0625q-0.65625 0 -1.4375 0.46875q-0.765625 0.46875 -1.0625 1.0l0 6.5l-1.421875 0zm12.35968 0l0 -6.0q0 -1.21875 -0.5625 -1.671875q-0.5625 -0.453125 -1.5 -0.453125q-0.796875 0 -1.5625 0.421875q-0.765625 0.421875 -1.15625 1.0l0 6.703125l-1.421875 0l0 -9.171875l1.421875 0l0 1.328125q0.59375 -0.6875 1.453125 -1.125q0.875 -0.4375 1.828125 -0.4375q2.921875 0 2.921875 2.96875l0 6.4375l-1.421875 0zm8.217102 0.234375q-2.0625 0 -3.375 -1.34375q-1.296875 -1.359375 -1.296875 -3.484375q0 -2.03125 1.296875 -3.421875q1.296875 -1.390625 3.234375 -1.390625q1.96875 0 3.1875 1.375q1.21875 1.359375 1.21875 3.546875l0 0.359375l-7.4375 0q0.078125 1.40625 1.015625 2.296875q0.9375 0.875 2.296875 0.875q1.671875 0 2.828125 -1.15625l0.6875 0.9375q-1.40625 1.40625 -3.65625 1.40625zm2.859375 -5.40625q0 -1.265625 -0.84375 -2.15625q-0.828125 -0.90625 -2.1875 -0.90625q-1.265625 0 -2.109375 0.90625q-0.84375 0.890625 -0.890625 2.15625l6.03125 0zm5.831604 5.40625q-2.046875 0 -2.046875 -2.15625l0 -6.0l-1.515625 0l0 -1.25l1.515625 0l0 -2.515625l1.4375 0l0 2.515625l1.859375 0l0 1.25l-1.859375 0l0 5.703125q0 0.515625 0.21875 0.84375q0.234375 0.328125 0.703125 0.328125q0.59375 0 0.96875 -0.375l0.421875 1.0625q-0.59375 0.59375 -1.703125 0.59375z" fill-rule="nonzero"></path><path fill="#000000" fill-opacity="0.0" d="m485.01837 8.186352l71.433044 0l0 37.19685l-71.433044 0z" fill-rule="evenodd"></path><path fill="#1155cc" d="m509.92856 35.10635l-2.21875 -8.703125l-2.203125 8.703125l-2.875 0l-3.625 -12.671875l3.03125 0l2.21875 9.15625l2.40625 -9.15625l2.109375 0l2.390625 9.15625l2.2187195 -9.15625l3.03125 0l-3.609375 12.671875l-2.8749695 0zm16.188934 0l-0.78125 -2.140625l-5.4375 0l-0.796875 2.140625l-3.078125 0l4.90625 -12.671875l3.375 0l4.890625 12.671875l-3.078125 0zm-3.5 -9.96875l-1.984375 5.453125l3.953125 0l-1.96875 -5.453125zm16.260864 9.96875l-6.046875 -8.265625l0 8.265625l-2.703125 0l0 -12.671875l2.78125 0l5.875 7.953125l0 -7.953125l2.6875 0l0 12.671875l-2.59375 0z" fill-rule="nonzero"></path><path fill="#000000" fill-opacity="0.0" d="m367.18634 8.186352l117.82678 0l0 37.19685l-117.82678 0z" fill-rule="evenodd"></path><path fill="#990000" d="m401.17993 35.10635l-2.21875 -8.703125l-2.203125 8.703125l-2.875 0l-3.625 -12.671875l3.03125 0l2.21875 9.15625l2.40625 -9.15625l2.109375 0l2.390625 9.15625l2.21875 -9.15625l3.03125 0l-3.609375 12.671875l-2.875 0zm8.579559 -10.171875q-0.578125 0 -1.015625 -0.40625q-0.421875 -0.421875 -0.421875 -1.03125q0 -0.609375 0.421875 -1.015625q0.4375 -0.40625 1.015625 -0.40625q0.609375 0 1.03125 0.40625q0.421875 0.40625 0.421875 1.015625q0 0.609375 -0.421875 1.03125q-0.421875 0.40625 -1.03125 0.40625zm-1.1875 10.171875l0 -9.171875l2.40625 0l0 9.171875l-2.40625 0zm4.7200317 0l0 -9.171875l2.40625 0l0 1.25q0.5 -0.609375 1.28125 -1.046875q0.796875 -0.4375 1.640625 -0.4375l0 2.359375l-0.65625 -0.0625q-0.65625 0 -1.3125 0.3125q-0.65625 0.296875 -0.953125 0.734375l0 6.0625l-2.40625 0zm11.028748 0.234375q-2.171875 0 -3.546875 -1.34375q-1.359375 -1.34375 -1.359375 -3.484375q0 -2.0625 1.359375 -3.4375q1.359375 -1.375 3.390625 -1.375q2.03125 0 3.3125 1.40625q1.28125 1.390625 1.28125 3.65625l0 0.53125l-6.8125 0q0.109375 0.875 0.78125 1.5q0.671875 0.625 1.859375 0.625q0.5625 0 1.265625 -0.234375q0.703125 -0.25 1.1875 -0.6875l1.0625 1.5625q-0.6875 0.625 -1.703125 0.953125q-1.0 0.328125 -2.078125 0.328125zm2.109375 -5.6875q-0.0625 -0.90625 -0.6875 -1.46875q-0.625 -0.5625 -1.578125 -0.5625q-0.953125 0 -1.5625 0.578125q-0.609375 0.578125 -0.703125 1.453125l4.53125 0zm3.8950195 5.453125l0 -12.671875l2.40625 0l0 12.671875l-2.40625 0zm9.032532 0.234375q-2.171875 0 -3.546875 -1.34375q-1.359375 -1.34375 -1.359375 -3.484375q0 -2.0625 1.359375 -3.4375q1.359375 -1.375 3.390625 -1.375q2.03125 0 3.3125 1.40625q1.28125 1.390625 1.28125 3.65625l0 0.53125l-6.8125 0q0.109375 0.875 0.78125 1.5q0.671875 0.625 1.859375 0.625q0.5625 0 1.265625 -0.234375q0.703125 -0.25 1.1875 -0.6875l1.0625 1.5625q-0.6875 0.625 -1.703125 0.953125q-1.0 0.328125 -2.078125 0.328125zm2.109375 -5.6875q-0.0625 -0.90625 -0.6875 -1.46875q-0.625 -0.5625 -1.578125 -0.5625q-0.953125 0 -1.5625 0.578125q-0.609375 0.578125 -0.703125 1.453125l4.53125 0zm7.191925 5.6875q-1.1875 0 -2.28125 -0.375q-1.09375 -0.390625 -1.8125 -1.0625l1.03125 -1.6875q0.5625 0.515625 1.46875 0.890625q0.90625 0.359375 1.703125 0.359375q1.546875 0 1.546875 -0.984375q0 -0.375 -0.40625 -0.5625q-0.40625 -0.1875 -1.0 -0.328125l-1.3125 -0.265625q-2.734375 -0.59375 -2.734375 -2.734375q0 -1.28125 1.046875 -2.078125q1.0625 -0.8125 2.71875 -0.8125q2.140625 0 3.703125 1.25l-0.96875 1.65625q-0.421875 -0.4375 -1.140625 -0.75q-0.71875 -0.3125 -1.578125 -0.3125q-0.671875 0 -1.0625 0.265625q-0.375 0.265625 -0.375 0.640625q0 0.34375 0.390625 0.515625q0.40625 0.171875 1.0 0.296875q0.609375 0.125 1.3125 0.296875q0.703125 0.15625 1.3125 0.484375q0.609375 0.3125 1.0 0.875q0.40625 0.546875 0.40625 1.46875q0 1.328125 -1.078125 2.140625q-1.078125 0.8125 -2.890625 0.8125zm8.899017 0q-1.1875 0 -2.28125 -0.375q-1.09375 -0.390625 -1.8125 -1.0625l1.03125 -1.6875q0.5625 0.515625 1.46875 0.890625q0.90625 0.359375 1.703125 0.359375q1.546875 0 1.546875 -0.984375q0 -0.375 -0.40625 -0.5625q-0.40625 -0.1875 -1.0 -0.328125l-1.3125 -0.265625q-2.734375 -0.59375 -2.734375 -2.734375q0 -1.28125 1.046875 -2.078125q1.0625 -0.8125 2.71875 -0.8125q2.140625 0 3.703125 1.25l-0.96875 1.65625q-0.421875 -0.4375 -1.140625 -0.75q-0.71875 -0.3125 -1.578125 -0.3125q-0.671875 0 -1.0625 0.265625q-0.375 0.265625 -0.375 0.640625q0 0.34375 0.390625 0.515625q0.40625 0.171875 1.0 0.296875q0.609375 0.125 1.3125 0.296875q0.703125 0.15625 1.3125 0.484375q0.609375 0.3125 1.0 0.875q0.40625 0.546875 0.40625 1.46875q0 1.328125 -1.078125 2.140625q-1.078125 0.8125 -2.890625 0.8125z" fill-rule="nonzero"></path><path fill="#990000" d="m409.2905 57.10635l0 -12.671875l2.703125 0l0 10.296875l5.359375 0l0 2.375l-8.0625 0zm18.507202 0l-0.78125 -2.140625l-5.4375 0l-0.796875 2.140625l-3.078125 0l4.90625 -12.671875l3.375 0l4.890625 12.671875l-3.078125 0zm-3.5 -9.96875l-1.984375 5.453125l3.953125 0l-1.96875 -5.453125zm16.260895 9.96875l-6.046875 -8.265625l0 8.265625l-2.703125 0l0 -12.671875l2.78125 0l5.875 7.953125l0 -7.953125l2.6875 0l0 12.671875l-2.59375 0z" fill-rule="nonzero"></path><path fill="#000000" fill-opacity="0.0" d="m525.75854 216.31758l139.55902 0.59843445" fill-rule="evenodd"></path><path stroke="#999999" stroke-width="1.0" stroke-linejoin="round" stroke-linecap="butt" d="m525.75854 216.31758l139.55902 0.59843445" fill-rule="evenodd"></path><path fill="#000000" fill-opacity="0.0" d="m431.6509 216.31758l-147.49606 0" fill-rule="evenodd"></path><path stroke="#999999" stroke-width="1.0" stroke-linejoin="round" stroke-linecap="butt" d="m431.6509 216.31758l-147.49606 0" fill-rule="evenodd"></path><path fill="#ea9999" d="m160.78215 28.278215l113.48033 0l0 53.95276l-113.48033 0z" fill-rule="evenodd"></path><path fill="#000000" d="m194.23119 51.17459l0 -12.671875l4.328125 0q2.890625 0 4.6875 1.796875q1.8125 1.796875 1.8125 4.546875q0 2.78125 -1.8125 4.5625q-1.8125 1.765625 -4.6875 1.765625l-4.328125 0zm4.328125 -1.40625q2.171875 0 3.515625 -1.359375q1.34375 -1.359375 1.34375 -3.5625q0 -2.203125 -1.328125 -3.5625q-1.328125 -1.375 -3.53125 -1.375l-2.75 0l0 9.859375l2.75 0zm17.778122 1.40625l-1.125 -2.8125l-6.3125 0l-1.125 2.8125l-1.796875 0l5.09375 -12.671875l1.953125 0l5.109375 12.671875l-1.796875 0zm-4.28125 -11.03125l-2.703125 6.8125l5.390625 0l-2.6875 -6.8125zm11.619568 11.265625q-3.0625 0 -4.875 -2.015625l0.9375 -1.203125q0.78125 0.875 1.8125 1.34375q1.046875 0.46875 2.171875 0.46875q1.375 0 2.171875 -0.609375q0.8125 -0.609375 0.8125 -1.578125q0 -1.5 -2.359375 -2.15625q-2.78125 -0.734375 -3.5625 -1.171875q-0.765625 -0.4375 -1.171875 -1.09375q-0.40625 -0.65625 -0.40625 -1.5625q0 -1.53125 1.21875 -2.515625q1.234375 -1.0 3.125 -1.0q2.859375 0 4.5 1.765625l-0.9375 1.15625q-1.375 -1.515625 -3.671875 -1.515625q-1.140625 0 -1.875 0.546875q-0.734375 0.546875 -0.734375 1.46875q0 0.65625 0.609375 1.125q0.609375 0.46875 1.765625 0.75q2.703125 0.734375 3.484375 1.21875q0.796875 0.46875 1.21875 1.171875q0.4375 0.6875 0.4375 1.671875q0 1.75 -1.28125 2.75q-1.265625 0.984375 -3.390625 0.984375zm15.807571 -0.234375l0 -5.8125l-7.40625 0l0 5.8125l-1.578125 0l0 -12.671875l1.578125 0l0 5.453125l7.40625 0l0 -5.453125l1.578125 0l0 12.671875l-1.578125 0z" fill-rule="nonzero"></path><path fill="#000000" d="m201.04198 73.408966q-2.015625 0 -3.296875 -1.375q-1.28125 -1.375 -1.28125 -3.453125q0 -2.078125 1.28125 -3.4375q1.28125 -1.375 3.296875 -1.375q2.125 0 3.359375 1.59375l-0.9375 0.875q-0.875 -1.1875 -2.34375 -1.1875q-1.40625 0 -2.296875 0.984375q-0.875 0.96875 -0.875 2.546875q0 1.59375 0.875 2.578125q0.875 0.96875 2.296875 0.96875q1.4375 0 2.34375 -1.1875l0.9375 0.859375q-1.234375 1.609375 -3.359375 1.609375zm5.187973 -0.234375l0 -12.671875l1.421875 0l0 12.671875l-1.421875 0zm4.9007874 -10.484375q-0.375 0 -0.671875 -0.265625q-0.28125 -0.28125 -0.28125 -0.6875q0 -0.40625 0.28125 -0.6875q0.296875 -0.28125 0.671875 -0.28125q0.40625 0 0.6875 0.28125q0.28125 0.28125 0.28125 0.6875q0 0.40625 -0.28125 0.6875q-0.28125 0.265625 -0.6875 0.265625zm-0.703125 10.484375l0 -9.171875l1.421875 0l0 9.171875l-1.421875 0zm8.338287 0.234375q-2.0625 0 -3.375 -1.34375q-1.296875 -1.359375 -1.296875 -3.484375q0 -2.03125 1.296875 -3.421875q1.296875 -1.390625 3.234375 -1.390625q1.96875 0 3.1875 1.375q1.21875 1.359375 1.21875 3.546875l0 0.359375l-7.4375 0q0.078125 1.40625 1.015625 2.296875q0.9375 0.875 2.296875 0.875q1.671875 0 2.828125 -1.15625l0.6875 0.9375q-1.40625 1.40625 -3.65625 1.40625zm2.859375 -5.40625q0 -1.265625 -0.84375 -2.15625q-0.828125 -0.90625 -2.1875 -0.90625q-1.265625 0 -2.109375 0.90625q-0.84375 0.890625 -0.890625 2.15625l6.03125 0zm9.706589 5.171875l0 -6.0q0 -1.21875 -0.5625 -1.671875q-0.5625 -0.453125 -1.5 -0.453125q-0.796875 0 -1.5625 0.421875q-0.765625 0.421875 -1.15625 1.0l0 6.703125l-1.421875 0l0 -9.171875l1.421875 0l0 1.328125q0.59375 -0.6875 1.453125 -1.125q0.875 -0.4375 1.828125 -0.4375q2.921875 0 2.921875 2.96875l0 6.4375l-1.421875 0zm6.404602 0.234375q-2.046875 0 -2.046875 -2.15625l0 -6.0l-1.515625 0l0 -1.25l1.515625 0l0 -2.515625l1.4375 0l0 2.515625l1.859375 0l0 1.25l-1.859375 0l0 5.703125q0 0.515625 0.21875 0.84375q0.234375 0.328125 0.703125 0.328125q0.59375 0 0.96875 -0.375l0.421875 1.0625q-0.59375 0.59375 -1.703125 0.59375z" fill-rule="nonzero"></path><path fill="#000000" fill-opacity="0.0" d="m324.30447 189.95538l113.480316 0l0 37.196854l-113.480316 0z" fill-rule="evenodd"></path><path fill="#000000" d="m339.6326 211.75539l-5.203125 0l0 -1.03125l2.125 0l0 -6.046875l-1.984375 1.078125l-0.40625 -0.9375l2.640625 -1.390625l0.96875 0l0 7.296875l1.859375 0l0 1.03125zm7.3591003 -4.609375q0 1.203125 -0.296875 2.078125q-0.296875 0.875 -0.875 1.4375q-0.5625 0.5625 -1.40625 0.828125q-0.84375 0.265625 -1.953125 0.265625l-0.6875 0l0 -0.96875l0.765625 0q0.828125 0 1.421875 -0.15625q0.59375 -0.171875 0.984375 -0.484375q0.40625 -0.328125 0.609375 -0.78125q0.21875 -0.46875 0.265625 -1.0625l0.03125 -0.25q-0.40625 0.234375 -0.9375 0.375q-0.515625 0.140625 -1.125 0.140625q-0.625 0 -1.109375 -0.1875q-0.46875 -0.1875 -0.78125 -0.515625q-0.3125 -0.328125 -0.46875 -0.78125q-0.15625 -0.453125 -0.15625 -0.984375q0 -0.578125 0.203125 -1.078125q0.203125 -0.5 0.578125 -0.875q0.390625 -0.375 0.90625 -0.578125q0.53125 -0.21875 1.171875 -0.21875q0.609375 0 1.125 0.203125q0.53125 0.203125 0.90625 0.65625q0.390625 0.453125 0.609375 1.171875q0.21875 0.71875 0.21875 1.765625zm-2.90625 -2.890625q-0.359375 0 -0.671875 0.125q-0.296875 0.109375 -0.515625 0.34375q-0.21875 0.21875 -0.34375 0.546875q-0.125 0.328125 -0.125 0.75q0 0.390625 0.09375 0.703125q0.09375 0.296875 0.28125 0.515625q0.203125 0.203125 0.5 0.328125q0.3125 0.109375 0.71875 0.109375q0.234375 0 0.484375 -0.046875q0.25 -0.046875 0.484375 -0.125q0.25 -0.078125 0.46875 -0.171875q0.21875 -0.109375 0.390625 -0.21875q0 -0.8125 -0.125 -1.359375q-0.125 -0.5625 -0.359375 -0.890625q-0.21875 -0.328125 -0.546875 -0.46875q-0.328125 -0.140625 -0.734375 -0.140625zm10.281006 7.5l-5.46875 0l0 -0.984375l2.140625 -2.140625q0.53125 -0.515625 0.859375 -0.890625q0.328125 -0.390625 0.515625 -0.703125q0.1875 -0.3125 0.25 -0.59375q0.0625 -0.28125 0.0625 -0.609375q0 -0.296875 -0.09375 -0.5625q-0.078125 -0.28125 -0.25 -0.484375q-0.171875 -0.21875 -0.453125 -0.34375q-0.265625 -0.125 -0.640625 -0.125q-0.53125 0 -0.96875 0.234375q-0.421875 0.234375 -0.78125 0.609375l-0.609375 -0.71875q0.46875 -0.5 1.078125 -0.796875q0.609375 -0.296875 1.421875 -0.296875q0.5625 0 1.015625 0.171875q0.453125 0.15625 0.78125 0.46875q0.328125 0.3125 0.5 0.765625q0.1875 0.4375 0.1875 1.0q0 0.484375 -0.125 0.890625q-0.125 0.40625 -0.390625 0.8125q-0.25 0.40625 -0.640625 0.84375q-0.390625 0.421875 -0.921875 0.9375l-1.5 1.46875l4.03125 0l0 1.046875zm4.4372253 -2.0q0.21875 0 0.40625 0.09375q0.203125 0.078125 0.34375 0.21875q0.140625 0.140625 0.21875 0.34375q0.09375 0.1875 0.09375 0.40625q0 0.21875 -0.09375 0.40625q-0.078125 0.1875 -0.21875 0.34375q-0.140625 0.140625 -0.34375 0.21875q-0.1875 0.078125 -0.40625 0.078125q-0.21875 0 -0.40625 -0.078125q-0.1875 -0.078125 -0.328125 -0.21875q-0.140625 -0.15625 -0.234375 -0.34375q-0.078125 -0.1875 -0.078125 -0.40625q0 -0.21875 0.078125 -0.40625q0.09375 -0.203125 0.234375 -0.34375q0.140625 -0.140625 0.328125 -0.21875q0.1875 -0.09375 0.40625 -0.09375zm10.140381 2.0l-5.203125 0l0 -1.03125l2.125 0l0 -6.046875l-1.984375 1.078125l-0.40625 -0.9375l2.640625 -1.390625l0.96875 0l0 7.296875l1.859375 0l0 1.03125zm7.4997253 -2.625q0 0.5625 -0.203125 1.078125q-0.203125 0.5 -0.59375 0.875q-0.375 0.359375 -0.921875 0.578125q-0.53125 0.203125 -1.1875 0.203125q-0.6875 0 -1.21875 -0.21875q-0.515625 -0.21875 -0.875 -0.671875q-0.34375 -0.453125 -0.53125 -1.140625q-0.1875 -0.6875 -0.1875 -1.640625q0 -0.640625 0.078125 -1.234375q0.09375 -0.59375 0.28125 -1.109375q0.1875 -0.53125 0.5 -0.96875q0.328125 -0.4375 0.796875 -0.75q0.46875 -0.328125 1.109375 -0.5q0.640625 -0.171875 1.484375 -0.171875l0.828125 0l0 0.96875l-0.890625 0q-0.75 0 -1.296875 0.1875q-0.546875 0.171875 -0.921875 0.5q-0.359375 0.3125 -0.5625 0.765625q-0.1875 0.453125 -0.234375 1.03125l-0.03125 0.25q0.40625 -0.234375 0.921875 -0.375q0.53125 -0.140625 1.140625 -0.140625q0.625 0 1.09375 0.1875q0.46875 0.1875 0.78125 0.515625q0.328125 0.3125 0.484375 0.78125q0.15625 0.453125 0.15625 1.0zm-1.15625 0.0625q0 -0.375 -0.09375 -0.6875q-0.09375 -0.3125 -0.296875 -0.515625q-0.1875 -0.21875 -0.484375 -0.328125q-0.296875 -0.125 -0.71875 -0.125q-0.25 0 -0.5 0.046875q-0.234375 0.046875 -0.484375 0.125q-0.234375 0.078125 -0.453125 0.1875q-0.21875 0.09375 -0.390625 0.203125q0 0.828125 0.109375 1.375q0.125 0.546875 0.34375 0.875q0.234375 0.328125 0.5625 0.46875q0.328125 0.140625 0.75 0.140625q0.375 0 0.671875 -0.109375q0.296875 -0.125 0.515625 -0.34375q0.21875 -0.234375 0.34375 -0.5625q0.125 -0.328125 0.125 -0.75zm8.390381 0.484375q0 0.515625 -0.21875 0.9375q-0.21875 0.40625 -0.609375 0.6875q-0.390625 0.28125 -0.921875 0.421875q-0.515625 0.140625 -1.140625 0.140625q-0.671875 0 -1.1875 -0.140625q-0.515625 -0.15625 -0.875 -0.421875q-0.34375 -0.28125 -0.53125 -0.65625q-0.171875 -0.375 -0.171875 -0.828125q0 -0.765625 0.421875 -1.3125q0.4375 -0.546875 1.328125 -1.0q-0.8125 -0.421875 -1.1875 -0.921875q-0.375 -0.5 -0.375 -1.15625q0 -0.40625 0.15625 -0.78125q0.171875 -0.375 0.5 -0.65625q0.34375 -0.296875 0.84375 -0.46875q0.5 -0.171875 1.171875 -0.171875q0.640625 0 1.125 0.140625q0.484375 0.125 0.8125 0.390625q0.34375 0.25 0.5 0.609375q0.171875 0.359375 0.171875 0.796875q0 0.734375 -0.40625 1.25q-0.40625 0.5 -1.140625 0.875q0.359375 0.1875 0.671875 0.40625q0.328125 0.21875 0.5625 0.5q0.234375 0.265625 0.359375 0.609375q0.140625 0.328125 0.140625 0.75zm-1.328125 -4.296875q0 -0.5625 -0.390625 -0.828125q-0.390625 -0.28125 -1.109375 -0.28125q-0.71875 0 -1.125 0.28125q-0.390625 0.265625 -0.390625 0.796875q0 0.25 0.09375 0.46875q0.109375 0.203125 0.296875 0.390625q0.203125 0.1875 0.5 0.359375q0.296875 0.171875 0.71875 0.359375q0.71875 -0.328125 1.0625 -0.6875q0.34375 -0.375 0.34375 -0.859375zm0.125 4.375q0 -0.234375 -0.078125 -0.453125q-0.078125 -0.21875 -0.28125 -0.4375q-0.1875 -0.21875 -0.515625 -0.4375q-0.328125 -0.21875 -0.84375 -0.4375q-0.4375 0.203125 -0.734375 0.40625q-0.28125 0.203125 -0.46875 0.421875q-0.1875 0.21875 -0.265625 0.453125q-0.0625 0.21875 -0.0625 0.46875q0 0.28125 0.125 0.515625q0.125 0.21875 0.328125 0.375q0.21875 0.140625 0.515625 0.21875q0.296875 0.078125 0.65625 0.078125q0.328125 0 0.625 -0.0625q0.296875 -0.078125 0.515625 -0.21875q0.21875 -0.140625 0.34375 -0.359375q0.140625 -0.21875 0.140625 -0.53125zm5.6403503 0q0.21875 0 0.40625 0.09375q0.203125 0.078125 0.34375 0.21875q0.140625 0.140625 0.21875 0.34375q0.09375 0.1875 0.09375 0.40625q0 0.21875 -0.09375 0.40625q-0.078125 0.1875 -0.21875 0.34375q-0.140625 0.140625 -0.34375 0.21875q-0.1875 0.078125 -0.40625 0.078125q-0.21875 0 -0.40625 -0.078125q-0.1875 -0.078125 -0.328125 -0.21875q-0.140625 -0.15625 -0.234375 -0.34375q-0.078125 -0.1875 -0.078125 -0.40625q0 -0.21875 0.078125 -0.40625q0.09375 -0.203125 0.234375 -0.34375q0.140625 -0.140625 0.328125 -0.21875q0.1875 -0.09375 0.40625 -0.09375zm10.140381 2.0l-5.203125 0l0 -1.03125l2.125 0l0 -6.046875l-1.984375 1.078125l-0.40625 -0.9375l2.640625 -1.390625l0.96875 0l0 7.296875l1.859375 0l0 1.03125zm7.4059753 0l-5.46875 0l0 -0.984375l2.140625 -2.140625q0.53125 -0.515625 0.859375 -0.890625q0.328125 -0.390625 0.515625 -0.703125q0.1875 -0.3125 0.25 -0.59375q0.0625 -0.28125 0.0625 -0.609375q0 -0.296875 -0.09375 -0.5625q-0.078125 -0.28125 -0.25 -0.484375q-0.171875 -0.21875 -0.453125 -0.34375q-0.265625 -0.125 -0.640625 -0.125q-0.53125 0 -0.96875 0.234375q-0.421875 0.234375 -0.78125 0.609375l-0.609375 -0.71875q0.46875 -0.5 1.078125 -0.796875q0.609375 -0.296875 1.421875 -0.296875q0.5625 0 1.015625 0.171875q0.453125 0.15625 0.78125 0.46875q0.328125 0.3125 0.5 0.765625q0.1875 0.4375 0.1875 1.0q0 0.484375 -0.125 0.890625q-0.125 0.40625 -0.390625 0.8125q-0.25 0.40625 -0.640625 0.84375q-0.390625 0.421875 -0.921875 0.9375l-1.5 1.46875l4.03125 0l0 1.046875zm4.437256 -2.0q0.21875 0 0.40625 0.09375q0.203125 0.078125 0.34375 0.21875q0.140625 0.140625 0.21875 0.34375q0.09375 0.1875 0.09375 0.40625q0 0.21875 -0.09375 0.40625q-0.078125 0.1875 -0.21875 0.34375q-0.140625 0.140625 -0.34375 0.21875q-0.1875 0.078125 -0.40625 0.078125q-0.21875 0 -0.40625 -0.078125q-0.1875 -0.078125 -0.328125 -0.21875q-0.140625 -0.15625 -0.234375 -0.34375q-0.078125 -0.1875 -0.078125 -0.40625q0 -0.21875 0.078125 -0.40625q0.09375 -0.203125 0.234375 -0.34375q0.140625 -0.140625 0.328125 -0.21875q0.1875 -0.09375 0.40625 -0.09375zm10.14035 2.0l-5.203125 0l0 -1.03125l2.125 0l0 -6.046875l-1.984375 1.078125l-0.40625 -0.9375l2.640625 -1.390625l0.96875 0l0 7.296875l1.859375 0l0 1.03125z" fill-rule="nonzero"></path><path fill="#000000" fill-opacity="0.0" d="m536.46063 189.95538l126.51965 0l0 37.196854l-126.51965 0z" fill-rule="evenodd"></path><path fill="#000000" d="m551.78876 211.75539l-5.203125 0l0 -1.03125l2.125 0l0 -6.046875l-1.984375 1.078125l-0.40625 -0.9375l2.640625 -1.390625l0.96875 0l0 7.296875l1.859375 0l0 1.03125zm7.359131 -4.609375q0 1.203125 -0.296875 2.078125q-0.296875 0.875 -0.875 1.4375q-0.5625 0.5625 -1.40625 0.828125q-0.84375 0.265625 -1.953125 0.265625l-0.6875 0l0 -0.96875l0.765625 0q0.828125 0 1.421875 -0.15625q0.59375 -0.171875 0.984375 -0.484375q0.40625 -0.328125 0.609375 -0.78125q0.21875 -0.46875 0.265625 -1.0625l0.03125 -0.25q-0.40625 0.234375 -0.9375 0.375q-0.515625 0.140625 -1.125 0.140625q-0.625 0 -1.109375 -0.1875q-0.46875 -0.1875 -0.78125 -0.515625q-0.3125 -0.328125 -0.46875 -0.78125q-0.15625 -0.453125 -0.15625 -0.984375q0 -0.578125 0.203125 -1.078125q0.203125 -0.5 0.578125 -0.875q0.390625 -0.375 0.90625 -0.578125q0.53125 -0.21875 1.171875 -0.21875q0.609375 0 1.125 0.203125q0.53125 0.203125 0.90625 0.65625q0.390625 0.453125 0.609375 1.171875q0.21875 0.71875 0.21875 1.765625zm-2.90625 -2.890625q-0.359375 0 -0.671875 0.125q-0.296875 0.109375 -0.515625 0.34375q-0.21875 0.21875 -0.34375 0.546875q-0.125 0.328125 -0.125 0.75q0 0.390625 0.09375 0.703125q0.09375 0.296875 0.28125 0.515625q0.203125 0.203125 0.5 0.328125q0.3125 0.109375 0.71875 0.109375q0.234375 0 0.484375 -0.046875q0.25 -0.046875 0.484375 -0.125q0.25 -0.078125 0.46875 -0.171875q0.21875 -0.109375 0.390625 -0.21875q0 -0.8125 -0.125 -1.359375q-0.125 -0.5625 -0.359375 -0.890625q-0.21875 -0.328125 -0.546875 -0.46875q-0.328125 -0.140625 -0.734375 -0.140625zm10.280945 7.5l-5.46875 0l0 -0.984375l2.140625 -2.140625q0.53125 -0.515625 0.859375 -0.890625q0.328125 -0.390625 0.515625 -0.703125q0.1875 -0.3125 0.25 -0.59375q0.0625 -0.28125 0.0625 -0.609375q0 -0.296875 -0.09375 -0.5625q-0.078125 -0.28125 -0.25 -0.484375q-0.171875 -0.21875 -0.453125 -0.34375q-0.265625 -0.125 -0.640625 -0.125q-0.53125 0 -0.96875 0.234375q-0.421875 0.234375 -0.78125 0.609375l-0.609375 -0.71875q0.46875 -0.5 1.078125 -0.796875q0.609375 -0.296875 1.421875 -0.296875q0.5625 0 1.015625 0.171875q0.453125 0.15625 0.78125 0.46875q0.328125 0.3125 0.5 0.765625q0.1875 0.4375 0.1875 1.0q0 0.484375 -0.125 0.890625q-0.125 0.40625 -0.390625 0.8125q-0.25 0.40625 -0.640625 0.84375q-0.390625 0.421875 -0.921875 0.9375l-1.5 1.46875l4.03125 0l0 1.046875zm4.437256 -2.0q0.21875 0 0.40625 0.09375q0.203125 0.078125 0.34375 0.21875q0.140625 0.140625 0.21875 0.34375q0.09375 0.1875 0.09375 0.40625q0 0.21875 -0.09375 0.40625q-0.078125 0.1875 -0.21875 0.34375q-0.140625 0.140625 -0.34375 0.21875q-0.1875 0.078125 -0.40625 0.078125q-0.21875 0 -0.40625 -0.078125q-0.1875 -0.078125 -0.328125 -0.21875q-0.140625 -0.15625 -0.234375 -0.34375q-0.078125 -0.1875 -0.078125 -0.40625q0 -0.21875 0.078125 -0.40625q0.09375 -0.203125 0.234375 -0.34375q0.140625 -0.140625 0.328125 -0.21875q0.1875 -0.09375 0.40625 -0.09375zm10.140381 2.0l-5.203125 0l0 -1.03125l2.125 0l0 -6.046875l-1.984375 1.078125l-0.40625 -0.9375l2.640625 -1.390625l0.96875 0l0 7.296875l1.859375 0l0 1.03125zm7.499756 -2.625q0 0.5625 -0.203125 1.078125q-0.203125 0.5 -0.59375 0.875q-0.375 0.359375 -0.921875 0.578125q-0.53125 0.203125 -1.1875 0.203125q-0.6875 0 -1.21875 -0.21875q-0.515625 -0.21875 -0.875 -0.671875q-0.34375 -0.453125 -0.53125 -1.140625q-0.1875 -0.6875 -0.1875 -1.640625q0 -0.640625 0.078125 -1.234375q0.09375 -0.59375 0.28125 -1.109375q0.1875 -0.53125 0.5 -0.96875q0.328125 -0.4375 0.796875 -0.75q0.46875 -0.328125 1.109375 -0.5q0.640625 -0.171875 1.484375 -0.171875l0.828125 0l0 0.96875l-0.890625 0q-0.75 0 -1.296875 0.1875q-0.546875 0.171875 -0.921875 0.5q-0.359375 0.3125 -0.5625 0.765625q-0.1875 0.453125 -0.234375 1.03125l-0.03125 0.25q0.40625 -0.234375 0.921875 -0.375q0.53125 -0.140625 1.140625 -0.140625q0.625 0 1.09375 0.1875q0.46875 0.1875 0.78125 0.515625q0.328125 0.3125 0.484375 0.78125q0.15625 0.453125 0.15625 1.0zm-1.15625 0.0625q0 -0.375 -0.09375 -0.6875q-0.09375 -0.3125 -0.296875 -0.515625q-0.1875 -0.21875 -0.484375 -0.328125q-0.296875 -0.125 -0.71875 -0.125q-0.25 0 -0.5 0.046875q-0.234375 0.046875 -0.484375 0.125q-0.234375 0.078125 -0.453125 0.1875q-0.21875 0.09375 -0.390625 0.203125q0 0.828125 0.109375 1.375q0.125 0.546875 0.34375 0.875q0.234375 0.328125 0.5625 0.46875q0.328125 0.140625 0.75 0.140625q0.375 0 0.671875 -0.109375q0.296875 -0.125 0.515625 -0.34375q0.21875 -0.234375 0.34375 -0.5625q0.125 -0.328125 0.125 -0.75zm8.39032 0.484375q0 0.515625 -0.21875 0.9375q-0.21875 0.40625 -0.609375 0.6875q-0.390625 0.28125 -0.921875 0.421875q-0.515625 0.140625 -1.140625 0.140625q-0.671875 0 -1.1875 -0.140625q-0.515625 -0.15625 -0.875 -0.421875q-0.34375 -0.28125 -0.53125 -0.65625q-0.171875 -0.375 -0.171875 -0.828125q0 -0.765625 0.421875 -1.3125q0.4375 -0.546875 1.328125 -1.0q-0.8125 -0.421875 -1.1875 -0.921875q-0.375 -0.5 -0.375 -1.15625q0 -0.40625 0.15625 -0.78125q0.171875 -0.375 0.5 -0.65625q0.34375 -0.296875 0.84375 -0.46875q0.5 -0.171875 1.171875 -0.171875q0.640625 0 1.125 0.140625q0.484375 0.125 0.8125 0.390625q0.34375 0.25 0.5 0.609375q0.171875 0.359375 0.171875 0.796875q0 0.734375 -0.40625 1.25q-0.40625 0.5 -1.140625 0.875q0.359375 0.1875 0.671875 0.40625q0.328125 0.21875 0.5625 0.5q0.234375 0.265625 0.359375 0.609375q0.140625 0.328125 0.140625 0.75zm-1.328125 -4.296875q0 -0.5625 -0.390625 -0.828125q-0.390625 -0.28125 -1.109375 -0.28125q-0.71875 0 -1.125 0.28125q-0.390625 0.265625 -0.390625 0.796875q0 0.25 0.09375 0.46875q0.109375 0.203125 0.296875 0.390625q0.203125 0.1875 0.5 0.359375q0.296875 0.171875 0.71875 0.359375q0.71875 -0.328125 1.0625 -0.6875q0.34375 -0.375 0.34375 -0.859375zm0.125 4.375q0 -0.234375 -0.078125 -0.453125q-0.078125 -0.21875 -0.28125 -0.4375q-0.1875 -0.21875 -0.515625 -0.4375q-0.328125 -0.21875 -0.84375 -0.4375q-0.4375 0.203125 -0.734375 0.40625q-0.28125 0.203125 -0.46875 0.421875q-0.1875 0.21875 -0.265625 0.453125q-0.0625 0.21875 -0.0625 0.46875q0 0.28125 0.125 0.515625q0.125 0.21875 0.328125 0.375q0.21875 0.140625 0.515625 0.21875q0.296875 0.078125 0.65625 0.078125q0.328125 0 0.625 -0.0625q0.296875 -0.078125 0.515625 -0.21875q0.21875 -0.140625 0.34375 -0.359375q0.140625 -0.21875 0.140625 -0.53125zm5.640381 0q0.21875 0 0.40625 0.09375q0.203125 0.078125 0.34375 0.21875q0.140625 0.140625 0.21875 0.34375q0.09375 0.1875 0.09375 0.40625q0 0.21875 -0.09375 0.40625q-0.078125 0.1875 -0.21875 0.34375q-0.140625 0.140625 -0.34375 0.21875q-0.1875 0.078125 -0.40625 0.078125q-0.21875 0 -0.40625 -0.078125q-0.1875 -0.078125 -0.328125 -0.21875q-0.140625 -0.15625 -0.234375 -0.34375q-0.078125 -0.1875 -0.078125 -0.40625q0 -0.21875 0.078125 -0.40625q0.09375 -0.203125 0.234375 -0.34375q0.140625 -0.140625 0.328125 -0.21875q0.1875 -0.09375 0.40625 -0.09375zm10.140381 2.0l-5.203125 0l0 -1.03125l2.125 0l0 -6.046875l-1.984375 1.078125l-0.40625 -0.9375l2.640625 -1.390625l0.96875 0l0 7.296875l1.859375 0l0 1.03125zm4.515381 -2.0q0.21875 0 0.40625 0.09375q0.203125 0.078125 0.34375 0.21875q0.140625 0.140625 0.21875 0.34375q0.09375 0.1875 0.09375 0.40625q0 0.21875 -0.09375 0.40625q-0.078125 0.1875 -0.21875 0.34375q-0.140625 0.140625 -0.34375 0.21875q-0.1875 0.078125 -0.40625 0.078125q-0.21875 0 -0.40625 -0.078125q-0.1875 -0.078125 -0.328125 -0.21875q-0.140625 -0.15625 -0.234375 -0.34375q-0.078125 -0.1875 -0.078125 -0.40625q0 -0.21875 0.078125 -0.40625q0.09375 -0.203125 0.234375 -0.34375q0.140625 -0.140625 0.328125 -0.21875q0.1875 -0.09375 0.40625 -0.09375zm10.14032 2.0l-5.203125 0l0 -1.03125l2.125 0l0 -6.046875l-1.984375 1.078125l-0.40625 -0.9375l2.640625 -1.390625l0.96875 0l0 7.296875l1.859375 0l0 1.03125z" fill-rule="nonzero"></path><path fill="#a4c2f4" d="m765.8583 36.278214l113.480286 0l0 53.95276l-113.480286 0z" fill-rule="evenodd"></path><path stroke="#ffffff" stroke-width="1.0" stroke-linejoin="round" stroke-linecap="butt" d="m765.8583 36.278214l113.480286 0l0 53.95276l-113.480286 0z" fill-rule="evenodd"></path><path fill="#000000" d="m799.3073 59.17459l0 -12.671875l4.328125 0q2.890625 0 4.6875 1.796875q1.8125 1.796875 1.8125 4.546875q0 2.78125 -1.8125 4.5625q-1.8125 1.765625 -4.6875 1.765625l-4.328125 0zm4.328125 -1.40625q2.171875 0 3.515625 -1.359375q1.34375 -1.359375 1.34375 -3.5625q0 -2.203125 -1.328125 -3.5625q-1.328125 -1.375 -3.53125 -1.375l-2.75 0l0 9.859375l2.75 0zm17.778076 1.40625l-1.125 -2.8125l-6.3125 0l-1.125 2.8125l-1.796875 0l5.09375 -12.671875l1.953125 0l5.109375 12.671875l-1.796875 0zm-4.28125 -11.03125l-2.703125 6.8125l5.390625 0l-2.6875 -6.8125zm11.619568 11.265625q-3.0625 0 -4.875 -2.015625l0.9375 -1.203125q0.78125 0.875 1.8125 1.34375q1.046875 0.46875 2.171875 0.46875q1.375 0 2.171875 -0.609375q0.8125 -0.609375 0.8125 -1.578125q0 -1.5 -2.359375 -2.15625q-2.78125 -0.734375 -3.5625 -1.171875q-0.765625 -0.4375 -1.171875 -1.09375q-0.40625 -0.65625 -0.40625 -1.5625q0 -1.53125 1.21875 -2.515625q1.234375 -1.0 3.125 -1.0q2.859375 0 4.5 1.765625l-0.9375 1.15625q-1.375 -1.515625 -3.671875 -1.515625q-1.140625 0 -1.875 0.546875q-0.734375 0.546875 -0.734375 1.46875q0 0.65625 0.609375 1.125q0.609375 0.46875 1.765625 0.75q2.703125 0.734375 3.484375 1.21875q0.796875 0.46875 1.21875 1.171875q0.4375 0.6875 0.4375 1.671875q0 1.75 -1.28125 2.75q-1.265625 0.984375 -3.390625 0.984375zm15.807617 -0.234375l0 -5.8125l-7.40625 0l0 5.8125l-1.578125 0l0 -12.671875l1.578125 0l0 5.453125l7.40625 0l0 -5.453125l1.578125 0l0 12.671875l-1.578125 0z" fill-rule="nonzero"></path><path fill="#000000" d="m801.35815 81.408966q-2.328125 0 -3.703125 -1.453125l0.75 -1.015625q0.453125 0.53125 1.25 0.921875q0.8125 0.375 1.765625 0.375q1.0625 0 1.609375 -0.4375q0.5625 -0.453125 0.5625 -1.140625q0 -0.59375 -0.609375 -0.9375q-0.59375 -0.359375 -2.234375 -0.75q-1.375 -0.28125 -2.109375 -0.890625q-0.734375 -0.625 -0.734375 -1.671875q0 -1.15625 0.921875 -1.890625q0.9375 -0.75 2.5 -0.75q2.0625 0 3.390625 1.328125l-0.65625 0.984375q-0.421875 -0.484375 -1.140625 -0.8125q-0.703125 -0.34375 -1.59375 -0.34375q-0.953125 0 -1.5 0.421875q-0.53125 0.421875 -0.53125 1.03125q0 0.546875 0.609375 0.875q0.609375 0.3125 2.234375 0.65625q1.390625 0.328125 2.109375 0.984375q0.71875 0.65625 0.71875 1.734375q0 1.28125 -0.984375 2.03125q-0.984375 0.75 -2.625 0.75zm9.909546 0q-2.0625 0 -3.375 -1.34375q-1.296875 -1.359375 -1.296875 -3.484375q0 -2.03125 1.296875 -3.421875q1.296875 -1.390625 3.234375 -1.390625q1.96875 0 3.1875 1.375q1.21875 1.359375 1.21875 3.546875l0 0.359375l-7.4375 0q0.078125 1.40625 1.015625 2.296875q0.9375 0.875 2.296875 0.875q1.671875 0 2.828125 -1.15625l0.6875 0.9375q-1.40625 1.40625 -3.65625 1.40625zm2.859375 -5.40625q0 -1.265625 -0.84375 -2.15625q-0.828125 -0.90625 -2.1875 -0.90625q-1.265625 0 -2.109375 0.90625q-0.84375 0.890625 -0.890625 2.15625l6.03125 0zm3.503418 5.171875l0 -9.171875l1.421875 0l0 1.484375q1.28125 -1.671875 3.0625 -1.671875l0 1.453125l-0.5625 -0.0625q-0.65625 0 -1.4375 0.46875q-0.765625 0.46875 -1.0625 1.0l0 6.5l-1.421875 0zm8.609741 0l-3.8125 -9.171875l1.53125 0l3.0625 7.515625l3.03125 -7.515625l1.5625 0l-3.8125 9.171875l-1.5625 0zm10.829041 0.234375q-2.0625 0 -3.375 -1.34375q-1.296875 -1.359375 -1.296875 -3.484375q0 -2.03125 1.296875 -3.421875q1.296875 -1.390625 3.234375 -1.390625q1.96875 0 3.1875 1.375q1.21875 1.359375 1.21875 3.546875l0 0.359375l-7.4375 0q0.078125 1.40625 1.015625 2.296875q0.9375 0.875 2.296875 0.875q1.671875 0 2.828125 -1.15625l0.6875 0.9375q-1.40625 1.40625 -3.65625 1.40625zm2.859375 -5.40625q0 -1.265625 -0.84375 -2.15625q-0.828125 -0.90625 -2.1875 -0.90625q-1.265625 0 -2.109375 0.90625q-0.84375 0.890625 -0.890625 2.15625l6.03125 0zm3.503479 5.171875l0 -9.171875l1.421875 0l0 1.484375q1.28125 -1.671875 3.0625 -1.671875l0 1.453125l-0.5625 -0.0625q-0.65625 0 -1.4375 0.46875q-0.765625 0.46875 -1.0625 1.0l0 6.5l-1.421875 0z" fill-rule="nonzero"></path><path fill="#000000" fill-opacity="0.0" d="m822.59845 90.23097l-6.614197 37.95276" fill-rule="evenodd"></path><path stroke="#999999" stroke-width="1.0" stroke-linejoin="round" stroke-linecap="butt" d="m822.59845 90.23097l-6.614197 37.95276" fill-rule="evenodd"></path><path fill="#000000" fill-opacity="0.0" d="m705.69946 90.608925l126.519714 0l0 37.196846l-126.519714 0z" fill-rule="evenodd"></path><path fill="#000000" d="m721.0276 112.40892l-5.203125 0l0 -1.03125l2.125 0l0 -6.046875l-1.984375 1.078125l-0.40625 -0.9375l2.640625 -1.390625l0.96875 0l0 7.296875l1.859375 0l0 1.03125zm7.359131 -4.609375q0 1.203125 -0.296875 2.078125q-0.296875 0.875 -0.875 1.4375q-0.5625 0.5625 -1.40625 0.828125q-0.84375 0.265625 -1.953125 0.265625l-0.6875 0l0 -0.96875l0.765625 0q0.828125 0 1.421875 -0.15625q0.59375 -0.171875 0.984375 -0.484375q0.40625 -0.328125 0.609375 -0.78125q0.21875 -0.46875 0.265625 -1.0625l0.03125 -0.25q-0.40625 0.234375 -0.9375 0.375q-0.515625 0.140625 -1.125 0.140625q-0.625 0 -1.109375 -0.1875q-0.46875 -0.1875 -0.78125 -0.515625q-0.3125 -0.328125 -0.46875 -0.78125q-0.15625 -0.453125 -0.15625 -0.984375q0 -0.578125 0.203125 -1.078125q0.203125 -0.5 0.578125 -0.875q0.390625 -0.375 0.90625 -0.578125q0.53125 -0.21875 1.171875 -0.21875q0.609375 0 1.125 0.203125q0.53125 0.203125 0.90625 0.65625q0.390625 0.453125 0.609375 1.171875q0.21875 0.71875 0.21875 1.765625zm-2.90625 -2.890625q-0.359375 0 -0.671875 0.125q-0.296875 0.109375 -0.515625 0.34375q-0.21875 0.21875 -0.34375 0.546875q-0.125 0.328125 -0.125 0.75q0 0.390625 0.09375 0.703125q0.09375 0.296875 0.28125 0.515625q0.203125 0.203125 0.5 0.328125q0.3125 0.109375 0.71875 0.109375q0.234375 0 0.484375 -0.046875q0.25 -0.046875 0.484375 -0.125q0.25 -0.078125 0.46875 -0.171875q0.21875 -0.109375 0.390625 -0.21875q0 -0.8125 -0.125 -1.359375q-0.125 -0.5625 -0.359375 -0.890625q-0.21875 -0.328125 -0.546875 -0.46875q-0.328125 -0.140625 -0.734375 -0.140625zm10.281006 7.5l-5.46875 0l0 -0.984375l2.140625 -2.140625q0.53125 -0.515625 0.859375 -0.890625q0.328125 -0.390625 0.515625 -0.703125q0.1875 -0.3125 0.25 -0.59375q0.0625 -0.28125 0.0625 -0.609375q0 -0.296875 -0.09375 -0.5625q-0.078125 -0.28125 -0.25 -0.484375q-0.171875 -0.21875 -0.453125 -0.34375q-0.265625 -0.125 -0.640625 -0.125q-0.53125 0 -0.96875 0.234375q-0.421875 0.234375 -0.78125 0.609375l-0.609375 -0.71875q0.46875 -0.5 1.078125 -0.796875q0.609375 -0.296875 1.421875 -0.296875q0.5625 0 1.015625 0.171875q0.453125 0.15625 0.78125 0.46875q0.328125 0.3125 0.5 0.765625q0.1875 0.4375 0.1875 1.0q0 0.484375 -0.125 0.890625q-0.125 0.40625 -0.390625 0.8125q-0.25 0.40625 -0.640625 0.84375q-0.390625 0.421875 -0.921875 0.9375l-1.5 1.46875l4.03125 0l0 1.046875zm4.437195 -2.0q0.21875 0 0.40625 0.09375q0.203125 0.078125 0.34375 0.21875q0.140625 0.140625 0.21875 0.34375q0.09375 0.1875 0.09375 0.40625q0 0.21875 -0.09375 0.40625q-0.078125 0.1875 -0.21875 0.34375q-0.140625 0.140625 -0.34375 0.21875q-0.1875 0.078125 -0.40625 0.078125q-0.21875 0 -0.40625 -0.078125q-0.1875 -0.078125 -0.328125 -0.21875q-0.140625 -0.15625 -0.234375 -0.34375q-0.078125 -0.1875 -0.078125 -0.40625q0 -0.21875 0.078125 -0.40625q0.09375 -0.203125 0.234375 -0.34375q0.140625 -0.140625 0.328125 -0.21875q0.1875 -0.09375 0.40625 -0.09375zm10.140381 2.0l-5.203125 0l0 -1.03125l2.125 0l0 -6.046875l-1.984375 1.078125l-0.40625 -0.9375l2.640625 -1.390625l0.96875 0l0 7.296875l1.859375 0l0 1.03125zm7.499756 -2.625q0 0.5625 -0.203125 1.078125q-0.203125 0.5 -0.59375 0.875q-0.375 0.359375 -0.921875 0.578125q-0.53125 0.203125 -1.1875 0.203125q-0.6875 0 -1.21875 -0.21875q-0.515625 -0.21875 -0.875 -0.671875q-0.34375 -0.453125 -0.53125 -1.140625q-0.1875 -0.6875 -0.1875 -1.640625q0 -0.640625 0.078125 -1.234375q0.09375 -0.59375 0.28125 -1.109375q0.1875 -0.53125 0.5 -0.96875q0.328125 -0.4375 0.796875 -0.75q0.46875 -0.328125 1.109375 -0.5q0.640625 -0.171875 1.484375 -0.171875l0.828125 0l0 0.96875l-0.890625 0q-0.75 0 -1.296875 0.1875q-0.546875 0.171875 -0.921875 0.5q-0.359375 0.3125 -0.5625 0.765625q-0.1875 0.453125 -0.234375 1.03125l-0.03125 0.25q0.40625 -0.234375 0.921875 -0.375q0.53125 -0.140625 1.140625 -0.140625q0.625 0 1.09375 0.1875q0.46875 0.1875 0.78125 0.515625q0.328125 0.3125 0.484375 0.78125q0.15625 0.453125 0.15625 1.0zm-1.15625 0.0625q0 -0.375 -0.09375 -0.6875q-0.09375 -0.3125 -0.296875 -0.515625q-0.1875 -0.21875 -0.484375 -0.328125q-0.296875 -0.125 -0.71875 -0.125q-0.25 0 -0.5 0.046875q-0.234375 0.046875 -0.484375 0.125q-0.234375 0.078125 -0.453125 0.1875q-0.21875 0.09375 -0.390625 0.203125q0 0.828125 0.109375 1.375q0.125 0.546875 0.34375 0.875q0.234375 0.328125 0.5625 0.46875q0.328125 0.140625 0.75 0.140625q0.375 0 0.671875 -0.109375q0.296875 -0.125 0.515625 -0.34375q0.21875 -0.234375 0.34375 -0.5625q0.125 -0.328125 0.125 -0.75zm8.390381 0.484375q0 0.515625 -0.21875 0.9375q-0.21875 0.40625 -0.609375 0.6875q-0.390625 0.28125 -0.921875 0.421875q-0.515625 0.140625 -1.140625 0.140625q-0.671875 0 -1.1875 -0.140625q-0.515625 -0.15625 -0.875 -0.421875q-0.34375 -0.28125 -0.53125 -0.65625q-0.171875 -0.375 -0.171875 -0.828125q0 -0.765625 0.421875 -1.3125q0.4375 -0.546875 1.328125 -1.0q-0.8125 -0.421875 -1.1875 -0.921875q-0.375 -0.5 -0.375 -1.15625q0 -0.40625 0.15625 -0.78125q0.171875 -0.375 0.5 -0.65625q0.34375 -0.296875 0.84375 -0.46875q0.5 -0.171875 1.171875 -0.171875q0.640625 0 1.125 0.140625q0.484375 0.125 0.8125 0.390625q0.34375 0.25 0.5 0.609375q0.171875 0.359375 0.171875 0.796875q0 0.734375 -0.40625 1.25q-0.40625 0.5 -1.140625 0.875q0.359375 0.1875 0.671875 0.40625q0.328125 0.21875 0.5625 0.5q0.234375 0.265625 0.359375 0.609375q0.140625 0.328125 0.140625 0.75zm-1.328125 -4.296875q0 -0.5625 -0.390625 -0.828125q-0.390625 -0.28125 -1.109375 -0.28125q-0.71875 0 -1.125 0.28125q-0.390625 0.265625 -0.390625 0.796875q0 0.25 0.09375 0.46875q0.109375 0.203125 0.296875 0.390625q0.203125 0.1875 0.5 0.359375q0.296875 0.171875 0.71875 0.359375q0.71875 -0.328125 1.0625 -0.6875q0.34375 -0.375 0.34375 -0.859375zm0.125 4.375q0 -0.234375 -0.078125 -0.453125q-0.078125 -0.21875 -0.28125 -0.4375q-0.1875 -0.21875 -0.515625 -0.4375q-0.328125 -0.21875 -0.84375 -0.4375q-0.4375 0.203125 -0.734375 0.40625q-0.28125 0.203125 -0.46875 0.421875q-0.1875 0.21875 -0.265625 0.453125q-0.0625 0.21875 -0.0625 0.46875q0 0.28125 0.125 0.515625q0.125 0.21875 0.328125 0.375q0.21875 0.140625 0.515625 0.21875q0.296875 0.078125 0.65625 0.078125q0.328125 0 0.625 -0.0625q0.296875 -0.078125 0.515625 -0.21875q0.21875 -0.140625 0.34375 -0.359375q0.140625 -0.21875 0.140625 -0.53125zm5.64032 0q0.21875 0 0.40625 0.09375q0.203125 0.078125 0.34375 0.21875q0.140625 0.140625 0.21875 0.34375q0.09375 0.1875 0.09375 0.40625q0 0.21875 -0.09375 0.40625q-0.078125 0.1875 -0.21875 0.34375q-0.140625 0.140625 -0.34375 0.21875q-0.1875 0.078125 -0.40625 0.078125q-0.21875 0 -0.40625 -0.078125q-0.1875 -0.078125 -0.328125 -0.21875q-0.140625 -0.15625 -0.234375 -0.34375q-0.078125 -0.1875 -0.078125 -0.40625q0 -0.21875 0.078125 -0.40625q0.09375 -0.203125 0.234375 -0.34375q0.140625 -0.140625 0.328125 -0.21875q0.1875 -0.09375 0.40625 -0.09375zm10.140381 2.0l-5.203125 0l0 -1.03125l2.125 0l0 -6.046875l-1.984375 1.078125l-0.40625 -0.9375l2.640625 -1.390625l0.96875 0l0 7.296875l1.859375 0l0 1.03125zm4.515381 -2.0q0.21875 0 0.40625 0.09375q0.203125 0.078125 0.34375 0.21875q0.140625 0.140625 0.21875 0.34375q0.09375 0.1875 0.09375 0.40625q0 0.21875 -0.09375 0.40625q-0.078125 0.1875 -0.21875 0.34375q-0.140625 0.140625 -0.34375 0.21875q-0.1875 0.078125 -0.40625 0.078125q-0.21875 0 -0.40625 -0.078125q-0.1875 -0.078125 -0.328125 -0.21875q-0.140625 -0.15625 -0.234375 -0.34375q-0.078125 -0.1875 -0.078125 -0.40625q0 -0.21875 0.078125 -0.40625q0.09375 -0.203125 0.234375 -0.34375q0.140625 -0.140625 0.328125 -0.21875q0.1875 -0.09375 0.40625 -0.09375zm10.218506 2.0l-5.46875 0l0 -0.984375l2.140625 -2.140625q0.53125 -0.515625 0.859375 -0.890625q0.328125 -0.390625 0.515625 -0.703125q0.1875 -0.3125 0.25 -0.59375q0.0625 -0.28125 0.0625 -0.609375q0 -0.296875 -0.09375 -0.5625q-0.078125 -0.28125 -0.25 -0.484375q-0.171875 -0.21875 -0.453125 -0.34375q-0.265625 -0.125 -0.640625 -0.125q-0.53125 0 -0.96875 0.234375q-0.421875 0.234375 -0.78125 0.609375l-0.609375 -0.71875q0.46875 -0.5 1.078125 -0.796875q0.609375 -0.296875 1.421875 -0.296875q0.5625 0 1.015625 0.171875q0.453125 0.15625 0.78125 0.46875q0.328125 0.3125 0.5 0.765625q0.1875 0.4375 0.1875 1.0q0 0.484375 -0.125 0.890625q-0.125 0.40625 -0.390625 0.8125q-0.25 0.40625 -0.640625 0.84375q-0.390625 0.421875 -0.921875 0.9375l-1.5 1.46875l4.03125 0l0 1.046875zm7.51532 -4.140625q0 0.953125 -0.203125 1.734375q-0.1875 0.78125 -0.578125 1.34375q-0.375 0.5625 -0.953125 0.875q-0.578125 0.296875 -1.34375 0.296875q-0.671875 0 -1.21875 -0.25q-0.546875 -0.25 -0.9375 -0.765625q-0.375 -0.515625 -0.59375 -1.328125q-0.203125 -0.8125 -0.203125 -1.90625q0 -0.953125 0.1875 -1.734375q0.203125 -0.796875 0.578125 -1.359375q0.390625 -0.5625 0.96875 -0.859375q0.578125 -0.3125 1.34375 -0.3125q0.65625 0 1.203125 0.25q0.546875 0.25 0.9375 0.78125q0.390625 0.515625 0.59375 1.328125q0.21875 0.796875 0.21875 1.90625zm-1.125 0.03125q0 -0.21875 -0.015625 -0.421875q-0.015625 -0.21875 -0.03125 -0.421875l-3.515625 2.609375q0.09375 0.328125 0.234375 0.609375q0.15625 0.28125 0.359375 0.484375q0.203125 0.203125 0.46875 0.3125q0.265625 0.109375 0.609375 0.109375q0.421875 0 0.765625 -0.203125q0.359375 -0.21875 0.609375 -0.625q0.25 -0.421875 0.375 -1.03125q0.140625 -0.609375 0.140625 -1.421875zm-3.796875 -0.078125q0 0.203125 0 0.40625q0.015625 0.1875 0.03125 0.375l3.515625 -2.59375q-0.109375 -0.328125 -0.25 -0.59375q-0.140625 -0.265625 -0.34375 -0.453125q-0.203125 -0.203125 -0.46875 -0.3125q-0.265625 -0.109375 -0.578125 -0.109375q-0.4375 0 -0.796875 0.21875q-0.34375 0.203125 -0.59375 0.625q-0.25 0.40625 -0.390625 1.03125q-0.125 0.609375 -0.125 1.40625zm12.249756 0.046875q0 0.953125 -0.203125 1.734375q-0.1875 0.78125 -0.578125 1.34375q-0.375 0.5625 -0.953125 0.875q-0.578125 0.296875 -1.34375 0.296875q-0.671875 0 -1.21875 -0.25q-0.546875 -0.25 -0.9375 -0.765625q-0.375 -0.515625 -0.59375 -1.328125q-0.203125 -0.8125 -0.203125 -1.90625q0 -0.953125 0.1875 -1.734375q0.203125 -0.796875 0.578125 -1.359375q0.390625 -0.5625 0.96875 -0.859375q0.578125 -0.3125 1.34375 -0.3125q0.65625 0 1.203125 0.25q0.546875 0.25 0.9375 0.78125q0.390625 0.515625 0.59375 1.328125q0.21875 0.796875 0.21875 1.90625zm-1.125 0.03125q0 -0.21875 -0.015625 -0.421875q-0.015625 -0.21875 -0.03125 -0.421875l-3.515625 2.609375q0.09375 0.328125 0.234375 0.609375q0.15625 0.28125 0.359375 0.484375q0.203125 0.203125 0.46875 0.3125q0.265625 0.109375 0.609375 0.109375q0.421875 0 0.765625 -0.203125q0.359375 -0.21875 0.609375 -0.625q0.25 -0.421875 0.375 -1.03125q0.140625 -0.609375 0.140625 -1.421875zm-3.796875 -0.078125q0 0.203125 0 0.40625q0.015625 0.1875 0.03125 0.375l3.515625 -2.59375q-0.109375 -0.328125 -0.25 -0.59375q-0.140625 -0.265625 -0.34375 -0.453125q-0.203125 -0.203125 -0.46875 -0.3125q-0.265625 -0.109375 -0.578125 -0.109375q-0.4375 0 -0.796875 0.21875q-0.34375 0.203125 -0.59375 0.625q-0.25 0.40625 -0.390625 1.03125q-0.125 0.609375 -0.125 1.40625z" fill-rule="nonzero"></path><path fill="#ea9999" d="m35.37677 175.01749l0 0c-2.4450417 -16.163284 5.5825157 -32.163956 20.676285 -41.21234c15.093765 -9.048393 34.60663 -9.557594 50.258553 -1.311554l0 0c5.544388 -9.398003 15.692238 -15.886673 27.374016 -17.503319c11.681793 -1.6166458 23.525436 1.8286209 31.948471 9.293671l0 0c4.723114 -8.520836 13.997009 -14.24575 24.530838 -15.1432495c10.533844 -0.89749146 20.836807 3.1594543 27.252884 10.731224l0 0c8.5329895 -9.032066 22.109177 -12.834946 34.85408 -9.7631c12.744888 3.0718384 22.36943 12.466667 24.70897 24.119286l0 0c10.454346 2.5651398 19.162598 9.086075 23.874817 17.878006c4.7122498 8.791931 4.9661865 18.992386 0.6961975 27.965897l0 0c10.294495 12.052399 12.702637 28.112076 6.3257446 42.185837c-6.3768616 14.073761 -20.580719 24.047195 -37.310913 26.198395c-0.11791992 13.20874 -8.170959 25.328918 -21.05513 31.688873c-12.884171 6.3599854 -28.587555 5.966614 -41.05739 -1.0284729c-5.311493 15.819763 -20.261566 27.459778 -38.39122 29.891144c-18.12967 2.431366 -36.188828 -4.781769 -46.37526 -18.523102c-12.486435 6.773163 -27.469124 8.724274 -41.56826 5.413269c-14.099144 -3.3110352 -26.127102 -11.605286 -33.37061 -23.01178l0 0c-12.759571 1.3431396 -25.096312 -4.603546 -30.887543 -14.888733c-5.791231 -10.285202 -3.8041391 -22.719437 4.975092 -31.131653l0 0c-11.381868 -6.026108 -17.189583 -17.983887 -14.3946495 -29.637848c2.7949333 -11.653961 13.559172 -20.363266 26.679586 -21.586334z" fill-rule="evenodd"></path><path fill="#000000" fill-opacity="0.0" d="m22.839615 226.86464l0 0c5.3711376 2.8437347 11.576061 4.133713 17.781658 3.6967468m8.127998 42.32466c2.6686363 -0.2809143 5.2844048 -0.87579346 7.77985 -1.7692871m67.15529 19.367065c-1.8769455 -2.531952 -3.4484177 -5.2375793 -4.687645 -8.07077m89.45737 -3.2977295l0 0c0.9683533 -2.8841858 1.5957794 -5.8526306 1.8717804 -8.855804m60.238388 -21.803513c0.12554932 -14.062729 -8.753723 -26.93872 -22.823929 -33.097336m53.808823 -35.285416c-2.2786255 4.7886353 -5.757202 9.03656 -10.162994 12.410706m-14.405914 -58.25586l0 0c0.38824463 1.9337616 0.5679321 3.896576 0.53656006 5.861252m-60.098587 -20.21685l0 0c-2.1285553 2.2530518 -3.8822021 4.7708054 -5.2063446 7.474869m-46.577866 -3.0638275l0 0c-1.1343384 2.0464249 -1.9813843 4.2119064 -2.521637 6.446541m-56.80172 1.7632904l0 0c3.3119354 1.7448578 6.375923 3.8449707 9.124664 6.2542267m-80.058586 36.269882l0 0c0.33699036 2.2277222 0.86945343 4.4279785 1.5924034 6.580185" fill-rule="evenodd"></path><path fill="#000000" d="m106.853836 210.82959l-2.796875 -10.21875l-2.78125 10.21875l-1.71875 0l-3.609375 -12.671875l1.75 0l2.8125 10.5625l2.90625 -10.5625l1.3125 0l2.90625 10.5625l2.796875 -10.5625l1.734375 0l-3.609375 12.671875l-1.703125 0zm7.42659 -10.484375q-0.375 0 -0.671875 -0.265625q-0.28125 -0.28125 -0.28125 -0.6875q0 -0.40625 0.28125 -0.6875q0.296875 -0.28125 0.671875 -0.28125q0.40625 0 0.6875 0.28125q0.28125 0.28125 0.28125 0.6875q0 0.40625 -0.28125 0.6875q-0.28125 0.265625 -0.6875 0.265625zm-0.703125 10.484375l0 -9.171875l1.421875 0l0 9.171875l-1.421875 0zm4.2601624 0l0 -12.671875l8.296875 0l0 1.40625l-6.71875 0l0 4.078125l6.59375 0l0 1.40625l-6.59375 0l0 5.78125l-1.578125 0zm10.901566 -10.484375q-0.375 0 -0.671875 -0.265625q-0.28125 -0.28125 -0.28125 -0.6875q0 -0.40625 0.28125 -0.6875q0.296875 -0.28125 0.671875 -0.28125q0.40625 0 0.6875 0.28125q0.28125 0.28125 0.28125 0.6875q0 0.40625 -0.28125 0.6875q-0.28125 0.265625 -0.6875 0.265625zm-0.703125 10.484375l0 -9.171875l1.421875 0l0 9.171875l-1.421875 0zm15.214096 0l0 -6.0q0 -1.21875 -0.5625 -1.671875q-0.5625 -0.453125 -1.5 -0.453125q-0.796875 0 -1.5625 0.421875q-0.765625 0.421875 -1.15625 1.0l0 6.703125l-1.421875 0l0 -9.171875l1.421875 0l0 1.328125q0.59375 -0.6875 1.453125 -1.125q0.875 -0.4375 1.828125 -0.4375q2.921875 0 2.921875 2.96875l0 6.4375l-1.421875 0zm8.217102 0.234375q-2.0625 0 -3.375 -1.34375q-1.296875 -1.359375 -1.296875 -3.484375q0 -2.03125 1.296875 -3.421875q1.296875 -1.390625 3.234375 -1.390625q1.96875 0 3.1875 1.375q1.21875 1.359375 1.21875 3.546875l0 0.359375l-7.4375 0q0.078125 1.40625 1.015625 2.296875q0.9375 0.875 2.296875 0.875q1.671875 0 2.828125 -1.15625l0.6875 0.9375q-1.40625 1.40625 -3.65625 1.40625zm2.859375 -5.40625q0 -1.265625 -0.84375 -2.15625q-0.828125 -0.90625 -2.1875 -0.90625q-1.265625 0 -2.109375 0.90625q-0.84375 0.890625 -0.890625 2.15625l6.03125 0zm5.8315887 5.40625q-2.046875 0 -2.046875 -2.15625l0 -6.0l-1.515625 0l0 -1.25l1.515625 0l0 -2.515625l1.4375 0l0 2.515625l1.859375 0l0 1.25l-1.859375 0l0 5.703125q0 0.515625 0.21875 0.84375q0.234375 0.328125 0.703125 0.328125q0.59375 0 0.96875 -0.375l0.421875 1.0625q-0.59375 0.59375 -1.703125 0.59375zm11.094315 -0.234375l-2.390625 -7.375l-2.390625 7.375l-1.421875 0l-2.921875 -9.171875l1.46875 0l2.25 7.3125l2.40625 -7.3125l1.21875 0l2.421875 7.3125l2.234375 -7.3125l1.484375 0l-2.921875 9.171875l-1.4375 0zm9.771835 0.234375q-2.0 0 -3.2812653 -1.359375q-1.265625 -1.359375 -1.265625 -3.46875q0 -2.125 1.265625 -3.46875q1.2812653 -1.34375 3.2812653 -1.34375q1.984375 0 3.25 1.34375q1.28125 1.34375 1.28125 3.46875q0 2.109375 -1.28125 3.46875q-1.265625 1.359375 -3.25 1.359375zm0 -1.28125q1.328125 0 2.171875 -1.0q0.859375 -1.0 0.859375 -2.546875q0 -1.546875 -0.859375 -2.53125q-0.84375 -1.0 -2.171875 -1.0q-1.328125 0 -2.203125 0.984375q-0.859375 0.984375 -0.859375 2.546875q0 1.578125 0.84375 2.5625q0.859375 0.984375 2.21875 0.984375zm6.655731 1.046875l0 -9.171875l1.421875 0l0 1.484375q1.28125 -1.671875 3.0625 -1.671875l0 1.453125l-0.5625 -0.0625q-0.65625 0 -1.4375 0.46875q-0.765625 0.46875 -1.0625 1.0l0 6.5l-1.421875 0zm12.406586 0l-3.296875 -4.125l-1.53125 1.5l0 2.625l-1.421875 0l0 -12.671875l1.421875 0l0 8.375l4.828125 -4.875l1.8125 0l-4.0625 4.15625l4.078125 5.015625l-1.828125 0z" fill-rule="nonzero"></path><path fill="#ea9999" d="m24.582678 28.278215l113.48031 0l0 53.95276l-113.48031 0z" fill-rule="evenodd"></path><path fill="#000000" d="m40.875088 62.408966q-2.796875 0 -4.546875 -1.859375q-1.75 -1.875 -1.75 -4.703125q0 -2.84375 1.75 -4.6875q1.765625 -1.859375 4.546875 -1.859375q2.78125 0 4.53125 1.859375q1.75 1.859375 1.75 4.6875q0 2.84375 -1.765625 4.703125q-1.75 1.859375 -4.515625 1.859375zm0 -1.40625q2.0625 0 3.34375 -1.453125q1.296875 -1.453125 1.296875 -3.703125q0 -2.28125 -1.296875 -3.703125q-1.28125 -1.4375 -3.34375 -1.4375q-2.0625 0 -3.359375 1.40625q-1.296875 1.40625 -1.296875 3.734375q0 2.28125 1.28125 3.71875q1.28125 1.4375 3.375 1.4375zm10.756409 1.40625q-2.046875 0 -2.046875 -2.15625l0 -6.0l-1.515625 0l0 -1.25l1.515625 0l0 -2.515625l1.4375 0l0 2.515625l1.859375 0l0 1.25l-1.859375 0l0 5.703125q0 0.515625 0.21875 0.84375q0.234375 0.328125 0.703125 0.328125q0.59375 0 0.96875 -0.375l0.421875 1.0625q-0.59375 0.59375 -1.703125 0.59375zm9.375565 -0.234375l0 -6.046875q0 -1.015625 -0.484375 -1.546875q-0.484375 -0.53125 -1.59375 -0.53125q-0.78125 0 -1.515625 0.40625q-0.71875 0.390625 -1.203125 1.015625l0 6.703125l-1.421875 0l0 -12.671875l1.421875 0l0 4.828125q0.609375 -0.703125 1.484375 -1.125q0.875 -0.4375 1.8125 -0.4375q2.921875 0 2.921875 2.921875l0 6.484375l-1.421875 0zm8.220127 0.234375q-2.0625 0 -3.375 -1.34375q-1.296875 -1.359375 -1.296875 -3.484375q0 -2.03125 1.296875 -3.421875q1.296875 -1.390625 3.234375 -1.390625q1.96875 0 3.1875 1.375q1.21875 1.359375 1.21875 3.546875l0 0.359375l-7.4375 0q0.078125 1.40625 1.015625 2.296875q0.9375 0.875 2.296875 0.875q1.671875 0 2.828125 -1.15625l0.6875 0.9375q-1.40625 1.40625 -3.65625 1.40625zm2.859375 -5.40625q0 -1.265625 -0.84375 -2.15625q-0.828125 -0.90625 -2.1875 -0.90625q-1.265625 0 -2.109375 0.90625q-0.84375 0.890625 -0.890625 2.15625l6.03125 0zm3.5034637 5.171875l0 -9.171875l1.421875 0l0 1.484375q1.28125 -1.671875 3.0625 -1.671875l0 1.453125l-0.5625 -0.0625q-0.65625 0 -1.4375 0.46875q-0.765625 0.46875 -1.0625 1.0l0 6.5l-1.421875 0zm15.016754 0.234375q-2.015625 0 -3.296875 -1.375q-1.28125 -1.375 -1.28125 -3.453125q0 -2.078125 1.28125 -3.4375q1.28125 -1.375 3.296875 -1.375q2.125 0 3.359375 1.59375l-0.9375 0.875q-0.875 -1.1875 -2.34375 -1.1875q-1.40625 0 -2.296875 0.984375q-0.875 0.96875 -0.875 2.546875q0 1.59375 0.875 2.578125q0.875 0.96875 2.296875 0.96875q1.4375 0 2.34375 -1.1875l0.9375 0.859375q-1.234375 1.609375 -3.359375 1.609375zm5.187973 -0.234375l0 -12.671875l1.421875 0l0 12.671875l-1.421875 0zm4.9007874 -10.484375q-0.375 0 -0.671875 -0.265625q-0.28125 -0.28125 -0.28125 -0.6875q0 -0.40625 0.28125 -0.6875q0.296875 -0.28125 0.671875 -0.28125q0.40625 0 0.6875 0.28125q0.28125 0.28125 0.28125 0.6875q0 0.40625 -0.28125 0.6875q-0.28125 0.265625 -0.6875 0.265625zm-0.703125 10.484375l0 -9.171875l1.421875 0l0 9.171875l-1.421875 0zm8.338287 0.234375q-2.0625 0 -3.375 -1.34375q-1.296875 -1.359375 -1.296875 -3.484375q0 -2.03125 1.296875 -3.421875q1.296875 -1.390625 3.234375 -1.390625q1.96875 0 3.1875 1.375q1.21875 1.359375 1.21875 3.546875l0 0.359375l-7.4375 0q0.078125 1.40625 1.015625 2.296875q0.9375 0.875 2.296875 0.875q1.671875 0 2.828125 -1.15625l0.6875 0.9375q-1.40625 1.40625 -3.65625 1.40625zm2.859375 -5.40625q0 -1.265625 -0.84375 -2.15625q-0.828125 -0.90625 -2.1875 -0.90625q-1.265625 0 -2.109375 0.90625q-0.84375 0.890625 -0.890625 2.15625l6.03125 0zm9.706589 5.171875l0 -6.0q0 -1.21875 -0.5625 -1.671875q-0.5625 -0.453125 -1.5 -0.453125q-0.796875 0 -1.5625 0.421875q-0.765625 0.421875 -1.15625 1.0l0 6.703125l-1.421875 0l0 -9.171875l1.421875 0l0 1.328125q0.59375 -0.6875 1.453125 -1.125q0.875 -0.4375 1.828125 -0.4375q2.921875 0 2.921875 2.96875l0 6.4375l-1.421875 0zm6.404602 0.234375q-2.046875 0 -2.046875 -2.15625l0 -6.0l-1.515625 0l0 -1.25l1.515625 0l0 -2.515625l1.4375 0l0 2.515625l1.859375 0l0 1.25l-1.859375 0l0 5.703125q0 0.515625 0.21875 0.84375q0.234375 0.328125 0.703125 0.328125q0.59375 0 0.96875 -0.375l0.421875 1.0625q-0.59375 0.59375 -1.703125 0.59375z" fill-rule="nonzero"></path><path fill="#b4a7d6" d="m428.27823 177.49869l113.480316 0l0 77.6378l-113.480316 0z" fill-rule="evenodd"></path><path fill="#000000" d="m461.49896 201.23758l-2.796875 -10.21875l-2.78125 10.21875l-1.71875 0l-3.609375 -12.671875l1.75 0l2.8125 10.5625l2.90625 -10.5625l1.3125 0l2.90625 10.5625l2.796875 -10.5625l1.734375 0l-3.609375 12.671875l-1.703125 0zm7.4265747 -10.484375q-0.375 0 -0.671875 -0.265625q-0.28125 -0.28125 -0.28125 -0.6875q0 -0.40625 0.28125 -0.6875q0.296875 -0.28125 0.671875 -0.28125q0.40625 0 0.6875 0.28125q0.28125 0.28125 0.28125 0.6875q0 0.40625 -0.28125 0.6875q-0.28125 0.265625 -0.6875 0.265625zm-0.703125 10.484375l0 -9.171875l1.421875 0l0 9.171875l-1.421875 0zm4.1976624 0l0 -9.171875l1.421875 0l0 1.484375q1.28125 -1.671875 3.0625 -1.671875l0 1.453125l-0.5625 -0.0625q-0.65625 0 -1.4375 0.46875q-0.765625 0.46875 -1.0625 1.0l0 6.5l-1.421875 0zm10.297211 0.234375q-2.0625 0 -3.375 -1.34375q-1.296875 -1.359375 -1.296875 -3.484375q0 -2.03125 1.296875 -3.421875q1.296875 -1.390625 3.234375 -1.390625q1.96875 0 3.1875 1.375q1.21875 1.359375 1.21875 3.546875l0 0.359375l-7.4375 0q0.078125 1.40625 1.015625 2.296875q0.9375 0.875 2.296875 0.875q1.671875 0 2.828125 -1.15625l0.6875 0.9375q-1.40625 1.40625 -3.65625 1.40625zm2.859375 -5.40625q0 -1.265625 -0.84375 -2.15625q-0.828125 -0.90625 -2.1875 -0.90625q-1.265625 0 -2.109375 0.90625q-0.84375 0.890625 -0.890625 2.15625l6.03125 0zm3.5034485 5.171875l0 -12.671875l1.421875 0l0 12.671875l-1.421875 0zm8.338287 0.234375q-2.0625 0 -3.375 -1.34375q-1.296875 -1.359375 -1.296875 -3.484375q0 -2.03125 1.296875 -3.421875q1.296875 -1.390625 3.234375 -1.390625q1.96875 0 3.1875 1.375q1.21875 1.359375 1.21875 3.546875l0 0.359375l-7.4375 0q0.078125 1.40625 1.015625 2.296875q0.9375 0.875 2.296875 0.875q1.671875 0 2.828125 -1.15625l0.6875 0.9375q-1.40625 1.40625 -3.65625 1.40625zm2.859375 -5.40625q0 -1.265625 -0.84375 -2.15625q-0.828125 -0.90625 -2.1875 -0.90625q-1.265625 0 -2.109375 0.90625q-0.84375 0.890625 -0.890625 2.15625l6.03125 0zm6.409729 5.40625q-2.328125 0 -3.703125 -1.453125l0.75 -1.015625q0.453125 0.53125 1.25 0.921875q0.8125 0.375 1.765625 0.375q1.0625 0 1.609375 -0.4375q0.5625 -0.453125 0.5625 -1.140625q0 -0.59375 -0.609375 -0.9375q-0.59375 -0.359375 -2.234375 -0.75q-1.375 -0.28125 -2.109375 -0.890625q-0.734375 -0.625 -0.734375 -1.671875q0 -1.15625 0.921875 -1.890625q0.9375 -0.75 2.5 -0.75q2.0625 0 3.390625 1.328125l-0.65625 0.984375q-0.421875 -0.484375 -1.140625 -0.8125q-0.703125 -0.34375 -1.59375 -0.34375q-0.953125 0 -1.5 0.421875q-0.53125 0.421875 -0.53125 1.03125q0 0.546875 0.609375 0.875q0.609375 0.3125 2.234375 0.65625q1.390625 0.328125 2.109375 0.984375q0.71875 0.65625 0.71875 1.734375q0 1.28125 -0.984375 2.03125q-0.984375 0.75 -2.625 0.75zm8.675171 0q-2.328125 0 -3.7031555 -1.453125l0.7500305 -1.015625q0.453125 0.53125 1.25 0.921875q0.8125 0.375 1.765625 0.375q1.0625 0 1.609375 -0.4375q0.5625 -0.453125 0.5625 -1.140625q0 -0.59375 -0.609375 -0.9375q-0.59375 -0.359375 -2.234375 -0.75q-1.375 -0.28125 -2.109375 -0.890625q-0.7344055 -0.625 -0.7344055 -1.671875q0 -1.15625 0.9219055 -1.890625q0.9375 -0.75 2.5 -0.75q2.0625 0 3.390625 1.328125l-0.65625 0.984375q-0.421875 -0.484375 -1.140625 -0.8125q-0.703125 -0.34375 -1.59375 -0.34375q-0.953125 0 -1.5 0.421875q-0.53125 0.421875 -0.53125 1.03125q0 0.546875 0.609375 0.875q0.609375 0.3125 2.234375 0.65625q1.390625 0.328125 2.109375 0.984375q0.71875 0.65625 0.71875 1.734375q0 1.28125 -0.984375 2.03125q-0.984375 0.75 -2.625 0.75z" fill-rule="nonzero"></path><path fill="#000000" d="m466.11005 223.23758l-1.125 -2.8125l-6.3125 0l-1.125 2.8125l-1.796875 0l5.09375 -12.671875l1.953125 0l5.109375 12.671875l-1.796875 0zm-4.28125 -11.03125l-2.703125 6.8125l5.390625 0l-2.6875 -6.8125zm7.510193 11.03125l0 -12.671875l5.09375 0q1.796875 0 2.875 1.09375q1.09375 1.078125 1.09375 2.71875q0 1.671875 -1.109375 2.75q-1.09375 1.078125 -2.859375 1.078125l-3.515625 0l0 5.03125l-1.578125 0zm4.90625 -6.4375q1.140625 0 1.828125 -0.65625q0.6875 -0.671875 0.6875 -1.765625q0 -1.078125 -0.6875 -1.734375q-0.6875 -0.671875 -1.828125 -0.671875l-3.328125 0l0 4.828125l3.328125 0zm16.530151 6.4375l0 -1.046875q-1.15625 1.28125 -3.03125 1.28125q-1.390625 0 -2.3125 -0.875q-0.90625 -0.875 -0.90625 -2.171875q0 -1.328125 0.90625 -2.171875q0.90625 -0.84375 2.3125 -0.84375q1.96875 0 3.03125 1.25l0 -1.65625q0 -0.921875 -0.65625 -1.421875q-0.640625 -0.515625 -1.65625 -0.515625q-1.609375 0 -2.8125 1.28125l-0.65625 -1.0q1.453125 -1.515625 3.65625 -1.515625q1.6875 0 2.625 0.828125q0.9375 0.8125 0.9375 2.265625l0 6.3125l-1.4375 0zm-2.515625 -0.796875q1.6875 0 2.515625 -1.140625l0 -1.734375q-0.828125 -1.140625 -2.515625 -1.140625q-1.015625 0 -1.640625 0.5625q-0.625 0.5625 -0.625 1.453125q0 0.875 0.625 1.4375q0.625 0.5625 1.640625 0.5625zm12.816223 0.796875l0 -6.0q0 -1.21875 -0.5625 -1.671875q-0.5625 -0.453125 -1.5 -0.453125q-0.796875 0 -1.5625 0.421875q-0.765625 0.421875 -1.15625 1.0l0 6.703125l-1.421875 0l0 -9.171875l1.421875 0l0 1.328125q0.59375 -0.6875 1.453125 -1.125q0.875 -0.4375 1.828125 -0.4375q2.921875 0 2.921875 2.96875l0 6.4375l-1.421875 0zm10.732727 0l0 -1.375q-0.515625 0.703125 -1.328125 1.15625q-0.796875 0.453125 -1.765625 0.453125q-1.84375 0 -2.96875 -1.3125q-1.125 -1.3125 -1.125 -3.5q0 -2.203125 1.125 -3.515625q1.140625 -1.3125 2.96875 -1.3125q0.921875 0 1.734375 0.4375q0.8125 0.421875 1.359375 1.171875l0 -4.875l1.421875 0l0 12.671875l-1.421875 0zm-2.765625 -1.046875q0.859375 0 1.609375 -0.40625q0.765625 -0.421875 1.15625 -1.03125l0 -4.171875q-0.390625 -0.609375 -1.15625 -1.03125q-0.75 -0.4375 -1.609375 -0.4375q-1.328125 0 -2.140625 0.96875q-0.796875 0.96875 -0.796875 2.578125q0 1.578125 0.796875 2.5625q0.796875 0.96875 2.140625 0.96875z" fill-rule="nonzero"></path><path fill="#000000" d="m461.814 245.23758l0 -9.171875l1.421875 0l0 1.484375q1.28125 -1.671875 3.0625 -1.671875l0 1.453125l-0.5625 -0.0625q-0.65625 0 -1.4375 0.46875q-0.765625 0.46875 -1.0625 1.0l0 6.5l-1.421875 0zm10.17218 0.234375q-2.0 0 -3.28125 -1.359375q-1.265625 -1.359375 -1.265625 -3.46875q0 -2.125 1.265625 -3.46875q1.28125 -1.34375 3.28125 -1.34375q1.984375 0 3.25 1.34375q1.28125 1.34375 1.28125 3.46875q0 2.109375 -1.28125 3.46875q-1.265625 1.359375 -3.25 1.359375zm0 -1.28125q1.328125 0 2.171875 -1.0q0.859375 -1.0 0.859375 -2.546875q0 -1.546875 -0.859375 -2.53125q-0.84375 -1.0 -2.171875 -1.0q-1.328125 0 -2.203125 0.984375q-0.859375 0.984375 -0.859375 2.546875q0 1.578125 0.84375 2.5625q0.859375 0.984375 2.21875 0.984375zm12.858887 1.046875l0 -1.296875q-0.53125 0.609375 -1.390625 1.078125q-0.859375 0.453125 -1.890625 0.453125q-2.921875 0 -2.921875 -2.9375l0 -6.46875l1.421875 0l0 6.03125q0 1.09375 0.5 1.59375q0.5 0.5 1.5625 0.5q0.828125 0 1.5625 -0.40625q0.75 -0.421875 1.15625 -0.984375l0 -6.734375l1.421875 0l0 9.171875l-1.421875 0zm6.404602 0.234375q-2.046875 0 -2.046875 -2.15625l0 -6.0l-1.515625 0l0 -1.25l1.515625 0l0 -2.515625l1.4375 0l0 2.515625l1.859375 0l0 1.25l-1.859375 0l0 5.703125q0 0.515625 0.21875 0.84375q0.234375 0.328125 0.703125 0.328125q0.59375 0 0.96875 -0.375l0.421875 1.0625q-0.59375 0.59375 -1.703125 0.59375zm7.2974243 0q-2.0625 0 -3.375 -1.34375q-1.296875 -1.359375 -1.296875 -3.484375q0 -2.03125 1.296875 -3.421875q1.296875 -1.390625 3.234375 -1.390625q1.96875 0 3.1875 1.375q1.21875 1.359375 1.21875 3.546875l0 0.359375l-7.4375 0q0.078125 1.40625 1.015625 2.296875q0.9375 0.875 2.296875 0.875q1.671875 0 2.828125 -1.15625l0.6875 0.9375q-1.40625 1.40625 -3.65625 1.40625zm2.859375 -5.40625q0 -1.265625 -0.84375 -2.15625q-0.828125 -0.90625 -2.1875 -0.90625q-1.265625 0 -2.109375 0.90625q-0.84375 0.890625 -0.890625 2.15625l6.03125 0zm3.503479 5.171875l0 -9.171875l1.421875 0l0 1.484375q1.28125 -1.671875 3.0625 -1.671875l0 1.453125l-0.5625 -0.0625q-0.65625 0 -1.4375 0.46875q-0.765625 0.46875 -1.0625 1.0l0 6.5l-1.421875 0z" fill-rule="nonzero"></path><path fill="#000000" fill-opacity="0.0" d="m163.24278 79.16798l126.5197 0l0 37.196854l-126.5197 0z" fill-rule="evenodd"></path><path fill="#000000" d="m178.5709 100.96798l-5.203125 0l0 -1.03125l2.125 0l0 -6.046875l-1.984375 1.078125l-0.40625 -0.9375l2.640625 -1.390625l0.96875 0l0 7.296875l1.859375 0l0 1.03125zm7.3591156 -4.609375q0 1.203125 -0.296875 2.078125q-0.296875 0.875 -0.875 1.4375q-0.5625 0.5625 -1.40625 0.828125q-0.84375 0.265625 -1.953125 0.265625l-0.6875 0l0 -0.96875l0.765625 0q0.828125 0 1.421875 -0.15625q0.59375 -0.171875 0.984375 -0.484375q0.40625 -0.328125 0.609375 -0.78125q0.21875 -0.46875 0.265625 -1.0625l0.03125 -0.25q-0.40625 0.234375 -0.9375 0.375q-0.515625 0.140625 -1.125 0.140625q-0.625 0 -1.109375 -0.1875q-0.46875 -0.1875 -0.78125 -0.515625q-0.3125 -0.328125 -0.46875 -0.78125q-0.15625 -0.453125 -0.15625 -0.984375q0 -0.578125 0.203125 -1.078125q0.203125 -0.5 0.578125 -0.875q0.390625 -0.375 0.90625 -0.578125q0.53125 -0.21875 1.171875 -0.21875q0.609375 0 1.125 0.203125q0.53125 0.203125 0.90625 0.65625q0.390625 0.453125 0.609375 1.171875q0.21875 0.71875 0.21875 1.765625zm-2.90625 -2.890625q-0.359375 0 -0.671875 0.125q-0.296875 0.109375 -0.515625 0.34375q-0.21875 0.21875 -0.34375 0.546875q-0.125 0.328125 -0.125 0.75q0 0.390625 0.09375 0.703125q0.09375 0.296875 0.28125 0.515625q0.203125 0.203125 0.5 0.328125q0.3125 0.109375 0.71875 0.109375q0.234375 0 0.484375 -0.046875q0.25 -0.046875 0.484375 -0.125q0.25 -0.078125 0.46875 -0.171875q0.21875 -0.109375 0.390625 -0.21875q0 -0.8125 -0.125 -1.359375q-0.125 -0.5625 -0.359375 -0.890625q-0.21875 -0.328125 -0.546875 -0.46875q-0.328125 -0.140625 -0.734375 -0.140625zm10.280991 7.5l-5.46875 0l0 -0.984375l2.140625 -2.140625q0.53125 -0.515625 0.859375 -0.890625q0.328125 -0.390625 0.515625 -0.703125q0.1875 -0.3125 0.25 -0.59375q0.0625 -0.28125 0.0625 -0.609375q0 -0.296875 -0.09375 -0.5625q-0.078125 -0.28125 -0.25 -0.484375q-0.171875 -0.21875 -0.453125 -0.34375q-0.265625 -0.125 -0.640625 -0.125q-0.53125 0 -0.96875 0.234375q-0.421875 0.234375 -0.78125 0.609375l-0.609375 -0.71875q0.46875 -0.5 1.078125 -0.796875q0.609375 -0.296875 1.421875 -0.296875q0.5625 0 1.015625 0.171875q0.453125 0.15625 0.78125 0.46875q0.328125 0.3125 0.5 0.765625q0.1875 0.4375 0.1875 1.0q0 0.484375 -0.125 0.890625q-0.125 0.40625 -0.390625 0.8125q-0.25 0.40625 -0.640625 0.84375q-0.390625 0.421875 -0.921875 0.9375l-1.5 1.46875l4.03125 0l0 1.046875zm4.4372406 -2.0q0.21875 0 0.40625 0.09375q0.203125 0.078125 0.34375 0.21875q0.140625 0.140625 0.21875 0.34375q0.09375 0.1875 0.09375 0.40625q0 0.21875 -0.09375 0.40625q-0.078125 0.1875 -0.21875 0.34375q-0.140625 0.140625 -0.34375 0.21875q-0.1875 0.078125 -0.40625 0.078125q-0.21875 0 -0.40625 -0.078125q-0.1875 -0.078125 -0.328125 -0.21875q-0.140625 -0.15625 -0.234375 -0.34375q-0.078125 -0.1875 -0.078125 -0.40625q0 -0.21875 0.078125 -0.40625q0.09375 -0.203125 0.234375 -0.34375q0.140625 -0.140625 0.328125 -0.21875q0.1875 -0.09375 0.40625 -0.09375zm10.140366 2.0l-5.203125 0l0 -1.03125l2.125 0l0 -6.046875l-1.984375 1.078125l-0.40625 -0.9375l2.640625 -1.390625l0.96875 0l0 7.296875l1.859375 0l0 1.03125zm7.4997406 -2.625q0 0.5625 -0.203125 1.078125q-0.203125 0.5 -0.59375 0.875q-0.375 0.359375 -0.921875 0.578125q-0.53125 0.203125 -1.1875 0.203125q-0.6875 0 -1.21875 -0.21875q-0.515625 -0.21875 -0.875 -0.671875q-0.34375 -0.453125 -0.53125 -1.140625q-0.1875 -0.6875 -0.1875 -1.640625q0 -0.640625 0.078125 -1.234375q0.09375 -0.59375 0.28125 -1.109375q0.1875 -0.53125 0.5 -0.96875q0.328125 -0.4375 0.796875 -0.75q0.46875 -0.328125 1.109375 -0.5q0.640625 -0.171875 1.484375 -0.171875l0.828125 0l0 0.96875l-0.890625 0q-0.75 0 -1.296875 0.1875q-0.546875 0.171875 -0.921875 0.5q-0.359375 0.3125 -0.5625 0.765625q-0.1875 0.453125 -0.234375 1.03125l-0.03125 0.25q0.40625 -0.234375 0.921875 -0.375q0.53125 -0.140625 1.140625 -0.140625q0.625 0 1.09375 0.1875q0.46875 0.1875 0.78125 0.515625q0.328125 0.3125 0.484375 0.78125q0.15625 0.453125 0.15625 1.0zm-1.15625 0.0625q0 -0.375 -0.09375 -0.6875q-0.09375 -0.3125 -0.296875 -0.515625q-0.1875 -0.21875 -0.484375 -0.328125q-0.296875 -0.125 -0.71875 -0.125q-0.25 0 -0.5 0.046875q-0.234375 0.046875 -0.484375 0.125q-0.234375 0.078125 -0.453125 0.1875q-0.21875 0.09375 -0.390625 0.203125q0 0.828125 0.109375 1.375q0.125 0.546875 0.34375 0.875q0.234375 0.328125 0.5625 0.46875q0.328125 0.140625 0.75 0.140625q0.375 0 0.671875 -0.109375q0.296875 -0.125 0.515625 -0.34375q0.21875 -0.234375 0.34375 -0.5625q0.125 -0.328125 0.125 -0.75zm8.390366 0.484375q0 0.515625 -0.21875 0.9375q-0.21875 0.40625 -0.609375 0.6875q-0.390625 0.28125 -0.921875 0.421875q-0.515625 0.140625 -1.140625 0.140625q-0.671875 0 -1.1875 -0.140625q-0.515625 -0.15625 -0.875 -0.421875q-0.34375 -0.28125 -0.53125 -0.65625q-0.171875 -0.375 -0.171875 -0.828125q0 -0.765625 0.421875 -1.3125q0.4375 -0.546875 1.328125 -1.0q-0.8125 -0.421875 -1.1875 -0.921875q-0.375 -0.5 -0.375 -1.15625q0 -0.40625 0.15625 -0.78125q0.171875 -0.375 0.5 -0.65625q0.34375 -0.296875 0.84375 -0.46875q0.5 -0.171875 1.171875 -0.171875q0.640625 0 1.125 0.140625q0.484375 0.125 0.8125 0.390625q0.34375 0.25 0.5 0.609375q0.171875 0.359375 0.171875 0.796875q0 0.734375 -0.40625 1.25q-0.40625 0.5 -1.140625 0.875q0.359375 0.1875 0.671875 0.40625q0.328125 0.21875 0.5625 0.5q0.234375 0.265625 0.359375 0.609375q0.140625 0.328125 0.140625 0.75zm-1.328125 -4.296875q0 -0.5625 -0.390625 -0.828125q-0.390625 -0.28125 -1.109375 -0.28125q-0.71875 0 -1.125 0.28125q-0.390625 0.265625 -0.390625 0.796875q0 0.25 0.09375 0.46875q0.109375 0.203125 0.296875 0.390625q0.203125 0.1875 0.5 0.359375q0.296875 0.171875 0.71875 0.359375q0.71875 -0.328125 1.0625 -0.6875q0.34375 -0.375 0.34375 -0.859375zm0.125 4.375q0 -0.234375 -0.078125 -0.453125q-0.078125 -0.21875 -0.28125 -0.4375q-0.1875 -0.21875 -0.515625 -0.4375q-0.328125 -0.21875 -0.84375 -0.4375q-0.4375 0.203125 -0.734375 0.40625q-0.28125 0.203125 -0.46875 0.421875q-0.1875 0.21875 -0.265625 0.453125q-0.0625 0.21875 -0.0625 0.46875q0 0.28125 0.125 0.515625q0.125 0.21875 0.328125 0.375q0.21875 0.140625 0.515625 0.21875q0.296875 0.078125 0.65625 0.078125q0.328125 0 0.625 -0.0625q0.296875 -0.078125 0.515625 -0.21875q0.21875 -0.140625 0.34375 -0.359375q0.140625 -0.21875 0.140625 -0.53125zm5.6403656 0q0.21875 0 0.40625 0.09375q0.203125 0.078125 0.34375 0.21875q0.140625 0.140625 0.21875 0.34375q0.09375 0.1875 0.09375 0.40625q0 0.21875 -0.09375 0.40625q-0.078125 0.1875 -0.21875 0.34375q-0.140625 0.140625 -0.34375 0.21875q-0.1875 0.078125 -0.40625 0.078125q-0.21875 0 -0.40625 -0.078125q-0.1875 -0.078125 -0.328125 -0.21875q-0.140625 -0.15625 -0.234375 -0.34375q-0.078125 -0.1875 -0.078125 -0.40625q0 -0.21875 0.078125 -0.40625q0.09375 -0.203125 0.234375 -0.34375q0.140625 -0.140625 0.328125 -0.21875q0.1875 -0.09375 0.40625 -0.09375zm10.140366 2.0l-5.203125 0l0 -1.03125l2.125 0l0 -6.046875l-1.984375 1.078125l-0.40625 -0.9375l2.640625 -1.390625l0.96875 0l0 7.296875l1.859375 0l0 1.03125zm7.4059906 0l-5.46875 0l0 -0.984375l2.140625 -2.140625q0.53125 -0.515625 0.859375 -0.890625q0.328125 -0.390625 0.515625 -0.703125q0.1875 -0.3125 0.25 -0.59375q0.0625 -0.28125 0.0625 -0.609375q0 -0.296875 -0.09375 -0.5625q-0.078125 -0.28125 -0.25 -0.484375q-0.171875 -0.21875 -0.453125 -0.34375q-0.265625 -0.125 -0.640625 -0.125q-0.53125 0 -0.96875 0.234375q-0.421875 0.234375 -0.78125 0.609375l-0.609375 -0.71875q0.46875 -0.5 1.078125 -0.796875q0.609375 -0.296875 1.421875 -0.296875q0.5625 0 1.015625 0.171875q0.453125 0.15625 0.78125 0.46875q0.328125 0.3125 0.5 0.765625q0.1875 0.4375 0.1875 1.0q0 0.484375 -0.125 0.890625q-0.125 0.40625 -0.390625 0.8125q-0.25 0.40625 -0.640625 0.84375q-0.390625 0.421875 -0.921875 0.9375l-1.5 1.46875l4.03125 0l0 1.046875zm4.4372406 -2.0q0.21875 0 0.40625 0.09375q0.203125 0.078125 0.34375 0.21875q0.140625 0.140625 0.21875 0.34375q0.09375 0.1875 0.09375 0.40625q0 0.21875 -0.09375 0.40625q-0.078125 0.1875 -0.21875 0.34375q-0.140625 0.140625 -0.34375 0.21875q-0.1875 0.078125 -0.40625 0.078125q-0.21875 0 -0.40625 -0.078125q-0.1875 -0.078125 -0.328125 -0.21875q-0.140625 -0.15625 -0.234375 -0.34375q-0.078125 -0.1875 -0.078125 -0.40625q0 -0.21875 0.078125 -0.40625q0.09375 -0.203125 0.234375 -0.34375q0.140625 -0.140625 0.328125 -0.21875q0.1875 -0.09375 0.40625 -0.09375zm10.218491 2.0l-5.46875 0l0 -0.984375l2.140625 -2.140625q0.53125 -0.515625 0.859375 -0.890625q0.328125 -0.390625 0.515625 -0.703125q0.1875 -0.3125 0.25 -0.59375q0.0625 -0.28125 0.0625 -0.609375q0 -0.296875 -0.09375 -0.5625q-0.078125 -0.28125 -0.25 -0.484375q-0.171875 -0.21875 -0.453125 -0.34375q-0.265625 -0.125 -0.640625 -0.125q-0.53125 0 -0.96875 0.234375q-0.421875 0.234375 -0.78125 0.609375l-0.609375 -0.71875q0.46875 -0.5 1.078125 -0.796875q0.609375 -0.296875 1.421875 -0.296875q0.5625 0 1.015625 0.171875q0.453125 0.15625 0.78125 0.46875q0.328125 0.3125 0.5 0.765625q0.1875 0.4375 0.1875 1.0q0 0.484375 -0.125 0.890625q-0.125 0.40625 -0.390625 0.8125q-0.25 0.40625 -0.640625 0.84375q-0.390625 0.421875 -0.921875 0.9375l-1.5 1.46875l4.03125 0l0 1.046875z" fill-rule="nonzero"></path><path fill="#000000" fill-opacity="0.0" d="m27.29265 79.54593l126.519684 0l0 37.196854l-126.519684 0z" fill-rule="evenodd"></path><path fill="#000000" d="m42.620777 101.34593l-5.203125 0l0 -1.03125l2.125 0l0 -6.046875l-1.984375 1.078125l-0.40625 -0.9375l2.640625 -1.390625l0.96875 0l0 7.296875l1.859375 0l0 1.03125zm7.3591156 -4.609375q0 1.203125 -0.296875 2.078125q-0.296875 0.875 -0.875 1.4375q-0.5625 0.5625 -1.40625 0.828125q-0.84375 0.265625 -1.953125 0.265625l-0.6875 0l0 -0.96875l0.765625 0q0.828125 0 1.421875 -0.15625q0.59375 -0.171875 0.984375 -0.484375q0.40625 -0.328125 0.609375 -0.78125q0.21875 -0.46875 0.265625 -1.0625l0.03125 -0.25q-0.40625 0.234375 -0.9375 0.375q-0.515625 0.140625 -1.125 0.140625q-0.625 0 -1.109375 -0.1875q-0.46875 -0.1875 -0.78125 -0.515625q-0.3125 -0.328125 -0.46875 -0.78125q-0.15625 -0.453125 -0.15625 -0.984375q0 -0.578125 0.203125 -1.078125q0.203125 -0.5 0.578125 -0.875q0.390625 -0.375 0.90625 -0.578125q0.53125 -0.21875 1.171875 -0.21875q0.609375 0 1.125 0.203125q0.53125 0.203125 0.90625 0.65625q0.390625 0.453125 0.609375 1.171875q0.21875 0.71875 0.21875 1.765625zm-2.90625 -2.890625q-0.359375 0 -0.671875 0.125q-0.296875 0.109375 -0.515625 0.34375q-0.21875 0.21875 -0.34375 0.546875q-0.125 0.328125 -0.125 0.75q0 0.390625 0.09375 0.703125q0.09375 0.296875 0.28125 0.515625q0.203125 0.203125 0.5 0.328125q0.3125 0.109375 0.71875 0.109375q0.234375 0 0.484375 -0.046875q0.25 -0.046875 0.484375 -0.125q0.25 -0.078125 0.46875 -0.171875q0.21875 -0.109375 0.390625 -0.21875q0 -0.8125 -0.125 -1.359375q-0.125 -0.5625 -0.359375 -0.890625q-0.21875 -0.328125 -0.546875 -0.46875q-0.328125 -0.140625 -0.734375 -0.140625zm10.280991 7.5l-5.46875 0l0 -0.984375l2.140625 -2.140625q0.53125 -0.515625 0.859375 -0.890625q0.328125 -0.390625 0.515625 -0.703125q0.1875 -0.3125 0.25 -0.59375q0.0625 -0.28125 0.0625 -0.609375q0 -0.296875 -0.09375 -0.5625q-0.078125 -0.28125 -0.25 -0.484375q-0.171875 -0.21875 -0.453125 -0.34375q-0.265625 -0.125 -0.640625 -0.125q-0.53125 0 -0.96875 0.234375q-0.421875 0.234375 -0.78125 0.609375l-0.609375 -0.71875q0.46875 -0.5 1.078125 -0.796875q0.609375 -0.296875 1.421875 -0.296875q0.5625 0 1.015625 0.171875q0.453125 0.15625 0.78125 0.46875q0.328125 0.3125 0.5 0.765625q0.1875 0.4375 0.1875 1.0q0 0.484375 -0.125 0.890625q-0.125 0.40625 -0.390625 0.8125q-0.25 0.40625 -0.640625 0.84375q-0.390625 0.421875 -0.921875 0.9375l-1.5 1.46875l4.03125 0l0 1.046875zm4.4372406 -2.0q0.21875 0 0.40625 0.09375q0.203125 0.078125 0.34375 0.21875q0.140625 0.140625 0.21875 0.34375q0.09375 0.1875 0.09375 0.40625q0 0.21875 -0.09375 0.40625q-0.078125 0.1875 -0.21875 0.34375q-0.140625 0.140625 -0.34375 0.21875q-0.1875 0.078125 -0.40625 0.078125q-0.21875 0 -0.40625 -0.078125q-0.1875 -0.078125 -0.328125 -0.21875q-0.140625 -0.15625 -0.234375 -0.34375q-0.078125 -0.1875 -0.078125 -0.40625q0 -0.21875 0.078125 -0.40625q0.09375 -0.203125 0.234375 -0.34375q0.140625 -0.140625 0.328125 -0.21875q0.1875 -0.09375 0.40625 -0.09375zm10.140362 2.0l-5.203125 0l0 -1.03125l2.125 0l0 -6.046875l-1.984375 1.078125l-0.40625 -0.9375l2.640625 -1.390625l0.96875 0l0 7.296875l1.859375 0l0 1.03125zm7.4997406 -2.625q0 0.5625 -0.203125 1.078125q-0.203125 0.5 -0.59375 0.875q-0.375 0.359375 -0.921875 0.578125q-0.53125 0.203125 -1.1875 0.203125q-0.6875 0 -1.21875 -0.21875q-0.515625 -0.21875 -0.875 -0.671875q-0.34375 -0.453125 -0.53125 -1.140625q-0.1875 -0.6875 -0.1875 -1.640625q0 -0.640625 0.078125 -1.234375q0.09375 -0.59375 0.28125 -1.109375q0.1875 -0.53125 0.5 -0.96875q0.328125 -0.4375 0.796875 -0.75q0.46875 -0.328125 1.109375 -0.5q0.640625 -0.171875 1.484375 -0.171875l0.828125 0l0 0.96875l-0.890625 0q-0.75 0 -1.296875 0.1875q-0.546875 0.171875 -0.921875 0.5q-0.359375 0.3125 -0.5625 0.765625q-0.1875 0.453125 -0.234375 1.03125l-0.03125 0.25q0.40625 -0.234375 0.921875 -0.375q0.53125 -0.140625 1.140625 -0.140625q0.625 0 1.09375 0.1875q0.46875 0.1875 0.78125 0.515625q0.328125 0.3125 0.484375 0.78125q0.15625 0.453125 0.15625 1.0zm-1.15625 0.0625q0 -0.375 -0.09375 -0.6875q-0.09375 -0.3125 -0.296875 -0.515625q-0.1875 -0.21875 -0.484375 -0.328125q-0.296875 -0.125 -0.71875 -0.125q-0.25 0 -0.5 0.046875q-0.234375 0.046875 -0.484375 0.125q-0.234375 0.078125 -0.453125 0.1875q-0.21875 0.09375 -0.390625 0.203125q0 0.828125 0.109375 1.375q0.125 0.546875 0.34375 0.875q0.234375 0.328125 0.5625 0.46875q0.328125 0.140625 0.75 0.140625q0.375 0 0.671875 -0.109375q0.296875 -0.125 0.515625 -0.34375q0.21875 -0.234375 0.34375 -0.5625q0.125 -0.328125 0.125 -0.75zm8.390366 0.484375q0 0.515625 -0.21875 0.9375q-0.21875 0.40625 -0.609375 0.6875q-0.390625 0.28125 -0.921875 0.421875q-0.515625 0.140625 -1.140625 0.140625q-0.671875 0 -1.1875 -0.140625q-0.515625 -0.15625 -0.875 -0.421875q-0.34375 -0.28125 -0.53125 -0.65625q-0.171875 -0.375 -0.171875 -0.828125q0 -0.765625 0.421875 -1.3125q0.4375 -0.546875 1.328125 -1.0q-0.8125 -0.421875 -1.1875 -0.921875q-0.375 -0.5 -0.375 -1.15625q0 -0.40625 0.15625 -0.78125q0.171875 -0.375 0.5 -0.65625q0.34375 -0.296875 0.84375 -0.46875q0.5 -0.171875 1.171875 -0.171875q0.640625 0 1.125 0.140625q0.484375 0.125 0.8125 0.390625q0.34375 0.25 0.5 0.609375q0.171875 0.359375 0.171875 0.796875q0 0.734375 -0.40625 1.25q-0.40625 0.5 -1.140625 0.875q0.359375 0.1875 0.671875 0.40625q0.328125 0.21875 0.5625 0.5q0.234375 0.265625 0.359375 0.609375q0.140625 0.328125 0.140625 0.75zm-1.328125 -4.296875q0 -0.5625 -0.390625 -0.828125q-0.390625 -0.28125 -1.109375 -0.28125q-0.71875 0 -1.125 0.28125q-0.390625 0.265625 -0.390625 0.796875q0 0.25 0.09375 0.46875q0.109375 0.203125 0.296875 0.390625q0.203125 0.1875 0.5 0.359375q0.296875 0.171875 0.71875 0.359375q0.71875 -0.328125 1.0625 -0.6875q0.34375 -0.375 0.34375 -0.859375zm0.125 4.375q0 -0.234375 -0.078125 -0.453125q-0.078125 -0.21875 -0.28125 -0.4375q-0.1875 -0.21875 -0.515625 -0.4375q-0.328125 -0.21875 -0.84375 -0.4375q-0.4375 0.203125 -0.734375 0.40625q-0.28125 0.203125 -0.46875 0.421875q-0.1875 0.21875 -0.265625 0.453125q-0.0625 0.21875 -0.0625 0.46875q0 0.28125 0.125 0.515625q0.125 0.21875 0.328125 0.375q0.21875 0.140625 0.515625 0.21875q0.296875 0.078125 0.65625 0.078125q0.328125 0 0.625 -0.0625q0.296875 -0.078125 0.515625 -0.21875q0.21875 -0.140625 0.34375 -0.359375q0.140625 -0.21875 0.140625 -0.53125zm5.6403656 0q0.21875 0 0.40625 0.09375q0.203125 0.078125 0.34375 0.21875q0.140625 0.140625 0.21875 0.34375q0.09375 0.1875 0.09375 0.40625q0 0.21875 -0.09375 0.40625q-0.078125 0.1875 -0.21875 0.34375q-0.140625 0.140625 -0.34375 0.21875q-0.1875 0.078125 -0.40625 0.078125q-0.21875 0 -0.40625 -0.078125q-0.1875 -0.078125 -0.328125 -0.21875q-0.140625 -0.15625 -0.234375 -0.34375q-0.078125 -0.1875 -0.078125 -0.40625q0 -0.21875 0.078125 -0.40625q0.09375 -0.203125 0.234375 -0.34375q0.140625 -0.140625 0.328125 -0.21875q0.1875 -0.09375 0.40625 -0.09375zm10.140366 2.0l-5.203125 0l0 -1.03125l2.125 0l0 -6.046875l-1.984375 1.078125l-0.40625 -0.9375l2.640625 -1.390625l0.96875 0l0 7.296875l1.859375 0l0 1.03125zm7.4059906 0l-5.46875 0l0 -0.984375l2.140625 -2.140625q0.53125 -0.515625 0.859375 -0.890625q0.328125 -0.390625 0.515625 -0.703125q0.1875 -0.3125 0.25 -0.59375q0.0625 -0.28125 0.0625 -0.609375q0 -0.296875 -0.09375 -0.5625q-0.078125 -0.28125 -0.25 -0.484375q-0.171875 -0.21875 -0.453125 -0.34375q-0.265625 -0.125 -0.640625 -0.125q-0.53125 0 -0.96875 0.234375q-0.421875 0.234375 -0.78125 0.609375l-0.609375 -0.71875q0.46875 -0.5 1.078125 -0.796875q0.609375 -0.296875 1.421875 -0.296875q0.5625 0 1.015625 0.171875q0.453125 0.15625 0.78125 0.46875q0.328125 0.3125 0.5 0.765625q0.1875 0.4375 0.1875 1.0q0 0.484375 -0.125 0.890625q-0.125 0.40625 -0.390625 0.8125q-0.25 0.40625 -0.640625 0.84375q-0.390625 0.421875 -0.921875 0.9375l-1.5 1.46875l4.03125 0l0 1.046875zm4.4372406 -2.0q0.21875 0 0.40625 0.09375q0.203125 0.078125 0.34375 0.21875q0.140625 0.140625 0.21875 0.34375q0.09375 0.1875 0.09375 0.40625q0 0.21875 -0.09375 0.40625q-0.078125 0.1875 -0.21875 0.34375q-0.140625 0.140625 -0.34375 0.21875q-0.1875 0.078125 -0.40625 0.078125q-0.21875 0 -0.40625 -0.078125q-0.1875 -0.078125 -0.328125 -0.21875q-0.140625 -0.15625 -0.234375 -0.34375q-0.078125 -0.1875 -0.078125 -0.40625q0 -0.21875 0.078125 -0.40625q0.09375 -0.203125 0.234375 -0.34375q0.140625 -0.140625 0.328125 -0.21875q0.1875 -0.09375 0.40625 -0.09375zm10.046616 -0.515625q0 0.546875 -0.21875 1.03125q-0.21875 0.46875 -0.671875 0.828125q-0.4375 0.359375 -1.109375 0.5625q-0.671875 0.203125 -1.5625 0.203125q-0.5 0 -0.890625 -0.03125q-0.390625 -0.03125 -0.734375 -0.078125l0 -0.984375q0.390625 0.0625 0.828125 0.109375q0.4375 0.03125 0.890625 0.03125q0.625 0 1.0625 -0.109375q0.4375 -0.109375 0.71875 -0.3125q0.28125 -0.21875 0.40625 -0.515625q0.125 -0.296875 0.125 -0.671875q0 -0.34375 -0.15625 -0.59375q-0.140625 -0.265625 -0.421875 -0.4375q-0.265625 -0.171875 -0.65625 -0.25q-0.390625 -0.09375 -0.84375 -0.09375l-0.9375 0l0 -0.90625l0.953125 0q0.375 0 0.671875 -0.09375q0.3125 -0.09375 0.53125 -0.28125q0.21875 -0.1875 0.328125 -0.453125q0.125 -0.265625 0.125 -0.609375q0 -0.671875 -0.40625 -0.96875q-0.40625 -0.3125 -1.1875 -0.3125q-0.421875 0 -0.875 0.09375q-0.4375 0.078125 -0.9375 0.234375l0 -0.96875q0.21875 -0.0625 0.453125 -0.125q0.25 -0.0625 0.484375 -0.09375q0.25 -0.046875 0.484375 -0.0625q0.25 -0.03125 0.46875 -0.03125q0.671875 0 1.171875 0.140625q0.5 0.140625 0.828125 0.40625q0.34375 0.265625 0.515625 0.65625q0.171875 0.375 0.171875 0.84375q0 0.71875 -0.375 1.203125q-0.359375 0.484375 -1.0 0.765625q0.328125 0.046875 0.640625 0.203125q0.3125 0.15625 0.5625 0.390625q0.25 0.234375 0.40625 0.5625q0.15625 0.328125 0.15625 0.71875z" fill-rule="nonzero"></path></g></svg>

