<?xml version="1.0" standalone="yes"?>

<svg version="1.1" viewBox="0.0 0.0 882.8661417322835 656.7139107611548" fill="none" stroke="none" stroke-linecap="square" stroke-miterlimit="10" xmlns="http://www.w3.org/2000/svg" xmlns:xlink="http://www.w3.org/1999/xlink"><clipPath id="p.0"><path d="m0 0l882.86615 0l0 656.7139l-882.86615 0l0 -656.7139z" clip-rule="nonzero"></path></clipPath><g clip-path="url(#p.0)"><path fill="#000000" fill-opacity="0.0" d="m0 0l882.86615 0l0 656.7139l-882.86615 0z" fill-rule="evenodd"></path><path fill="#000000" fill-opacity="0.0" d="m77.07612 38.454067l0 607.0552" fill-rule="evenodd"></path><path stroke="#666666" stroke-width="3.0" stroke-linejoin="round" stroke-linecap="butt" d="m77.07612 38.454067l0 607.0552" fill-rule="evenodd"></path><path fill="#000000" fill-opacity="0.0" d="m27.422573 6.8425198l99.30708 0l0 27.811022l-99.30708 0z" fill-rule="evenodd"></path><path fill="#666666" d="m60.923008 27.902405q-2.796875 0 -4.65625 -1.84375q-1.859375 -1.84375 -1.859375 -4.71875q0 -2.875 1.859375 -4.703125q1.859375 -1.84375 4.65625 -1.84375q3.015625 0 4.812496 2.5l-1.328125 0.734375q-0.5624962 -0.796875 -1.4843712 -1.3125q-0.921875 -0.515625 -2.0 -0.515625q-2.109375 0 -3.5 1.46875q-1.375 1.453125 -1.375 3.671875q0 2.25 1.375 3.703125q1.375 1.453125 3.5 1.453125q1.078125 0 2.0 -0.515625q0.921875 -0.515625 1.4843712 -1.328125l1.34375 0.734375q-1.8437462 2.515625 -4.828121 2.515625zm6.5491295 -0.234375l0 -12.671875l1.421875 0l0 12.671875l-1.421875 0zm4.9007874 -10.484375q-0.375 0 -0.671875 -0.265625q-0.28125 -0.28125 -0.28125 -0.6875q0 -0.40625 0.28125 -0.6875q0.296875 -0.28125 0.671875 -0.28125q0.40625 0 0.6875 0.28125q0.28125 0.28125 0.28125 0.6875q0 0.40625 -0.28125 0.6875q-0.28125 0.265625 -0.6875 0.265625zm-0.703125 10.484375l0 -9.171875l1.421875 0l0 9.171875l-1.421875 0zm8.338287 0.234375q-2.0625 0 -3.375 -1.34375q-1.296875 -1.359375 -1.296875 -3.484375q0 -2.03125 1.296875 -3.421875q1.296875 -1.390625 3.234375 -1.390625q1.96875 0 3.1875 1.375q1.21875 1.359375 1.21875 3.546875l0 0.359375l-7.4375 0q0.078125 1.40625 1.015625 2.296875q0.9375 0.875 2.296875 0.875q1.671875 0 2.828125 -1.15625l0.6875 0.9375q-1.40625 1.40625 -3.65625 1.40625zm2.859375 -5.40625q0 -1.265625 -0.84375 -2.15625q-0.828125 -0.90625 -2.1875 -0.90625q-1.265625 0 -2.109375 0.90625q-0.84375 0.890625 -0.890625 2.15625l6.03125 0zm9.706589 5.171875l0 -6.0q0 -1.21875 -0.5625 -1.671875q-0.5625 -0.453125 -1.5 -0.453125q-0.796875 0 -1.5625 0.421875q-0.765625 0.421875 -1.15625 1.0l0 6.703125l-1.421875 0l0 -9.171875l1.421875 0l0 1.328125q0.59375 -0.6875 1.453125 -1.125q0.875 -0.4375 1.828125 -0.4375q2.921875 0 2.921875 2.96875l0 6.4375l-1.421875 0zm6.404602 0.234375q-2.046875 0 -2.046875 -2.15625l0 -6.0l-1.515625 0l0 -1.25l1.515625 0l0 -2.515625l1.4375 0l0 2.515625l1.859375 0l0 1.25l-1.859375 0l0 5.703125q0 0.515625 0.21875 0.84375q0.234375 0.328125 0.703125 0.328125q0.59375 0 0.96875 -0.375l0.421875 1.0625q-0.59375 0.59375 -1.703125 0.59375z" fill-rule="nonzero"></path><path fill="#000000" fill-opacity="0.0" d="m399.83466 6.8425198l136.06299 0l0 27.811022l-136.06299 0z" fill-rule="evenodd"></path><path fill="#666666" d="m416.42273 27.66803l0 -12.671875l4.328125 0q2.890625 0 4.6875 1.796875q1.8125 1.796875 1.8125 4.546875q0 2.78125 -1.8125 4.5625q-1.8125 1.765625 -4.6875 1.765625l-4.328125 0zm4.328125 -1.40625q2.171875 0 3.515625 -1.359375q1.34375 -1.359375 1.34375 -3.5625q0 -2.203125 -1.328125 -3.5625q-1.328125 -1.375 -3.53125 -1.375l-2.75 0l0 9.859375l2.75 0zm17.715637 1.40625l0 -5.8125l-7.40625 0l0 5.8125l-1.578125 0l0 -12.671875l1.578125 0l0 5.453125l7.40625 0l0 -5.453125l1.578125 0l0 12.671875l-1.578125 0zm10.298859 0.234375q-2.796875 0 -4.65625 -1.84375q-1.859375 -1.84375 -1.859375 -4.71875q0 -2.875 1.859375 -4.703125q1.859375 -1.84375 4.65625 -1.84375q3.015625 0 4.8125 2.5l-1.328125 0.734375q-0.5625 -0.796875 -1.484375 -1.3125q-0.921875 -0.515625 -2.0 -0.515625q-2.109375 0 -3.5 1.46875q-1.375 1.453125 -1.375 3.671875q0 2.25 1.375 3.703125q1.375 1.453125 3.5 1.453125q1.078125 0 2.0 -0.515625q0.921875 -0.515625 1.484375 -1.328125l1.34375 0.734375q-1.84375 2.515625 -4.828125 2.515625zm6.6116333 -0.234375l0 -12.671875l5.09375 0q1.796875 0 2.875 1.09375q1.09375 1.078125 1.09375 2.71875q0 1.671875 -1.109375 2.75q-1.09375 1.078125 -2.859375 1.078125l-3.515625 0l0 5.03125l-1.578125 0zm4.90625 -6.4375q1.140625 0 1.828125 -0.65625q0.6875 -0.671875 0.6875 -1.765625q0 -1.078125 -0.6875 -1.734375q-0.6875 -0.671875 -1.828125 -0.671875l-3.328125 0l0 4.828125l3.328125 0zm13.702026 6.671875q-2.328125 0 -3.703125 -1.453125l0.75 -1.015625q0.453125 0.53125 1.25 0.921875q0.8125 0.375 1.765625 0.375q1.0625 0 1.609375 -0.4375q0.5625 -0.453125 0.5625 -1.140625q0 -0.59375 -0.609375 -0.9375q-0.59375 -0.359375 -2.234375 -0.75q-1.375 -0.28125 -2.109375 -0.890625q-0.734375 -0.625 -0.734375 -1.671875q0 -1.15625 0.921875 -1.890625q0.9375 -0.75 2.5 -0.75q2.0625 0 3.390625 1.328125l-0.65625 0.984375q-0.421875 -0.484375 -1.140625 -0.8125q-0.703125 -0.34375 -1.59375 -0.34375q-0.953125 0 -1.5 0.421875q-0.53125 0.421875 -0.53125 1.03125q0 0.546875 0.609375 0.875q0.609375 0.3125 2.234375 0.65625q1.390625 0.328125 2.109375 0.984375q0.71875 0.65625 0.71875 1.734375q0 1.28125 -0.984375 2.03125q-0.984375 0.75 -2.625 0.75zm9.909546 0q-2.0625 0 -3.375 -1.34375q-1.296875 -1.359375 -1.296875 -3.484375q0 -2.03125 1.296875 -3.421875q1.296875 -1.390625 3.234375 -1.390625q1.96875 0 3.1875 1.375q1.21875 1.359375 1.21875 3.546875l0 0.359375l-7.4375 0q0.078125 1.40625 1.015625 2.296875q0.9375 0.875 2.296875 0.875q1.671875 0 2.828125 -1.15625l0.6875 0.9375q-1.40625 1.40625 -3.65625 1.40625zm2.859375 -5.40625q0 -1.265625 -0.84375 -2.15625q-0.828125 -0.90625 -2.1875 -0.90625q-1.265625 0 -2.109375 0.90625q-0.84375 0.890625 -0.890625 2.15625l6.03125 0zm3.5034485 5.171875l0 -9.171875l1.421875 0l0 1.484375q1.28125 -1.671875 3.0625 -1.671875l0 1.453125l-0.5625 -0.0625q-0.65625 0 -1.4375 0.46875q-0.765625 0.46875 -1.0625 1.0l0 6.5l-1.421875 0zm8.609711 0l-3.8125 -9.171875l1.53125 0l3.0625 7.515625l3.03125 -7.515625l1.5625 0l-3.8125 9.171875l-1.5625 0zm10.829071 0.234375q-2.0625 0 -3.375 -1.34375q-1.296875 -1.359375 -1.296875 -3.484375q0 -2.03125 1.296875 -3.421875q1.296875 -1.390625 3.234375 -1.390625q1.96875 0 3.1875 1.375q1.21875 1.359375 1.21875 3.546875l0 0.359375l-7.4375 0q0.078125 1.40625 1.015625 2.296875q0.9375 0.875 2.296875 0.875q1.671875 0 2.828125 -1.15625l0.6875 0.9375q-1.40625 1.40625 -3.65625 1.40625zm2.859375 -5.40625q0 -1.265625 -0.84375 -2.15625q-0.828125 -0.90625 -2.1875 -0.90625q-1.265625 0 -2.109375 0.90625q-0.84375 0.890625 -0.890625 2.15625l6.03125 0zm3.503479 5.171875l0 -9.171875l1.421875 0l0 1.484375q1.28125 -1.671875 3.0625 -1.671875l0 1.453125l-0.5625 -0.0625q-0.65625 0 -1.4375 0.46875q-0.765625 0.46875 -1.0625 1.0l0 6.5l-1.421875 0z" fill-rule="nonzero"></path><path fill="#000000" fill-opacity="0.0" d="m485.0761 38.454067l0 587.9055" fill-rule="evenodd"></path><path stroke="#666666" stroke-width="3.0" stroke-linejoin="round" stroke-linecap="butt" d="m485.0761 38.454067l0 587.9055" fill-rule="evenodd"></path><path fill="#000000" fill-opacity="0.0" d="m79.062996 72.220474l405.7323 108.72441" fill-rule="evenodd"></path><path stroke="#674ea7" stroke-width="4.0" stroke-linejoin="round" stroke-linecap="butt" d="m79.062996 72.220474l382.5502 102.51228" fill-rule="evenodd"></path><path fill="#674ea7" stroke="#674ea7" stroke-width="4.0" stroke-linecap="butt" d="m459.90305 181.11453l19.243896 -1.6832428l-15.823639 -11.080307z" fill-rule="evenodd"></path><path fill="#000000" fill-opacity="0.0" d="m79.062996 360.22046l405.7323 108.72443" fill-rule="evenodd"></path><path stroke="#674ea7" stroke-width="4.0" stroke-linejoin="round" stroke-linecap="butt" d="m79.062996 360.22046l382.5502 102.51233" fill-rule="evenodd"></path><path fill="#674ea7" stroke="#674ea7" stroke-width="4.0" stroke-linecap="butt" d="m459.90305 469.11453l19.243896 -1.6832275l-15.823639 -11.080322z" fill-rule="evenodd"></path><path fill="#000000" fill-opacity="0.0" d="m484.7953 216.22047l-405.7323 108.72441" fill-rule="evenodd"></path><path stroke="#3c78d8" stroke-width="4.0" stroke-linejoin="round" stroke-linecap="butt" d="m484.7953 216.22047l-382.5502 102.51228" fill-rule="evenodd"></path><path fill="#3c78d8" stroke="#3c78d8" stroke-width="4.0" stroke-linecap="butt" d="m100.53496 312.35098l-15.823639 11.080322l19.243896 1.6832275z" fill-rule="evenodd"></path><path fill="#000000" fill-opacity="0.0" d="m484.7953 496.22046l-405.7323 108.72443" fill-rule="evenodd"></path><path stroke="#3c78d8" stroke-width="4.0" stroke-linejoin="round" stroke-linecap="butt" d="m484.7953 496.22046l-382.5502 102.51233" fill-rule="evenodd"></path><path fill="#3c78d8" stroke="#3c78d8" stroke-width="4.0" stroke-linecap="butt" d="m100.53496 592.351l-15.823639 11.080261l19.243896 1.6832275z" fill-rule="evenodd"></path><path fill="#000000" fill-opacity="0.0" d="m178.15764 46.055157l199.59056 53.44882l-11.559082 43.1811l-199.59055 -53.448814z" fill-rule="evenodd"></path><path fill="#674ea7" d="m226.34491 91.694984l3.2767334 -12.2408905l4.8298187 1.2933884q2.8978882 0.7760315 4.241455 2.9474869q1.3586578 2.1755066 0.62332153 4.9225388q-0.731308 2.7319336 -2.9950104 3.9373932q-2.2486115 1.2095032 -5.1464996 0.43347168l-4.8298187 -1.2933884zm5.4439545 -1.0008392q1.7055206 0.45672607 3.0489197 -0.33198547q1.3584747 -0.7846756 1.806961 -2.4600601q0.46463013 -1.7357635 -0.2829132 -3.052063q-0.7284241 -1.3273544 -2.5245056 -1.8083344l-2.2187042 -0.5941467l-2.048462 7.652443l2.2187042 0.5941467zm7.4953003 4.4658737l3.2767487 -12.2408905l2.6111145 0.699234l-3.2767334 12.2408905l-2.6111298 -0.699234zm9.22406 2.7127686q-3.2601166 -0.87303925 -4.6406555 -3.3293839l1.9369965 -1.6164627q0.4671936 0.8530121 1.3149109 1.6138229q0.86686707 0.74975586 2.1346893 1.0892639q1.0867004 0.29101562 1.7089691 0.02091217q0.64138794 -0.28115845 0.7828064 -0.809433q0.14949036 -0.55846405 -0.37342834 -1.0220032q-0.5188904 -0.47864532 -2.6826935 -1.6404114q-3.305542 -1.7910309 -2.5782776 -4.5078735q0.4242401 -1.5848236 1.9789429 -2.3169556q1.5697784 -0.7280884 3.6677399 -0.16627502q2.9129791 0.7800751 4.3128815 2.9827957l-1.9580383 1.5137787q-1.0933838 -1.7162552 -3.2064362 -2.2821121q-0.84521484 -0.22634125 -1.3909454 -4.4250488E-4q-0.541687 0.21080017 -0.6871338 0.75416565q-0.12928772 0.4830017 0.32624817 0.8961487q0.4595642 0.39805603 1.1959381 0.7893524l1.577301 0.8753052q3.259201 1.8433228 2.5400085 4.529976q-0.48887634 1.8263245 -2.0848083 2.5312347q-1.5808411 0.70895386 -3.8750153 0.09459686zm12.397537 3.3199615q-2.837494 -0.7598648 -4.194031 -3.0641937q-1.3565216 -2.3043365 -0.62924194 -5.021179q0.48080444 -1.796135 1.717926 -3.033867q1.2562561 -1.2487869 2.9756775 -1.6294708q1.7234497 -0.39577484 3.5195618 0.08520508q3.3808594 0.9053726 4.3165894 4.3587112l-2.5287476 0.5036392q-0.19039917 -0.8597717 -0.8227844 -1.5790863q-0.63238525 -0.7193146 -1.583252 -0.9739456q-1.6753235 -0.44864655 -3.0691223 0.40745544q-1.3786621 0.86013794 -1.8392639 2.580803q-0.47677612 1.781044 0.3260498 3.1930237q0.8027954 1.4119797 2.4328613 1.8484955q0.9508667 0.25463867 1.8539734 -0.03731537q0.9071045 -0.3070526 1.5055847 -0.9717331l1.9429016 1.6849289q-2.5437927 2.5539017 -5.9246826 1.648529zm12.259888 3.283104q-2.7922363 -0.7477417 -4.1266785 -3.0138092q-1.3193054 -2.2620163 -0.5758972 -5.039238q0.73535156 -2.7470322 3.0082092 -4.0470886q2.2919922 -1.3111191 5.0842285 -0.5633774q2.8073425 0.75177765 4.1226196 3.0288925q1.3193054 2.262024 0.5839844 5.009056q-0.73535156 2.7470322 -3.0122375 4.062187q-2.2769165 1.315155 -5.0842285 0.5633774zm0.6222229 -2.324417q1.6149597 0.43247986 2.9513245 -0.39046478q1.3555298 -0.833992 1.8363342 -2.6301346q0.46463013 -1.7357559 -0.258667 -3.142624q-0.7041931 -1.4179153 -2.3795166 -1.8665543q-1.6904602 -0.45269012 -3.0087585 0.42362213q-1.31427 0.8612137 -1.7789307 2.5969772q-0.4727173 1.7659454 0.25061035 3.1728058q0.72732544 1.391777 2.3876038 1.8363724zm10.855011 5.1552963l-1.4625244 -13.510025l2.9733582 0.79624176l0.8747864 10.327805l5.902069 -8.513023l2.9733276 0.7962494l-8.000885 10.975792l-3.2601318 -0.87303925zm8.885315 2.3794174l3.2767334 -12.2408905l8.663483 2.320015l-0.61413574 2.2942276l-6.052368 -1.620781l-0.69088745 2.5810013l5.93161 1.5884476l-0.61413574 2.29422l-5.93161 -1.58844l-0.7434387 2.777214l6.052368 1.620781l-0.61413574 2.29422l-8.663483 -2.320015zm17.434143 4.6687393l-1.2512817 -4.9936447l-1.9017334 -0.50927734l-1.1636353 4.3469543l-2.6111145 -0.69924164l3.2767334 -12.2408905l5.7354126 1.5359039q1.8715515 0.50118256 2.6894531 1.9172058q0.82196045 1.4009247 0.36135864 3.1215973q-0.38381958 1.4338837 -1.4161987 2.2088318q-1.0132446 0.76390076 -2.24411 0.70926666l1.5135803 5.403572l-2.9884644 -0.8002777zm0.19299316 -7.065567q0.7848511 0.21017456 1.4302673 -0.08607483q0.6494751 -0.31134796 0.8555298 -1.0811157q0.20605469 -0.7697754 -0.20501709 -1.3489532q-0.4111023 -0.57917786 -1.1959534 -0.7893524l-2.7318726 -0.731575l-0.88482666 3.3054962l2.7318726 0.731575z" fill-rule="nonzero"></path><path fill="#000000" fill-opacity="0.0" d="m178.15764 334.05515l199.59056 53.448822l-11.559082 43.18112l-199.59055 -53.448822z" fill-rule="evenodd"></path><path fill="#674ea7" d="m237.46262 382.6722l-1.2512817 -4.993622l-1.9017334 -0.50927734l-1.1636353 4.3469543l-2.6111145 -0.69924927l3.2767334 -12.240875l5.7354126 1.5358887q1.8715515 0.5011902 2.6894531 1.9172058q0.82196045 1.40094 0.36135864 3.121582q-0.38383484 1.4338989 -1.416214 2.2088623q-1.0132446 0.7638855 -2.24411 0.70925903l1.5135803 5.4035645l-2.988449 -0.80029297zm0.1929779 -7.0655518q0.7848511 0.21017456 1.4302826 -0.08609009q0.6494751 -0.31134033 0.8555298 -1.0811157q0.20605469 -0.7697754 -0.20503235 -1.348938q-0.41108704 -0.5791931 -1.1959381 -0.7893677l-2.7318726 -0.7315674l-0.88482666 3.3055115l2.7318573 0.7315674zm4.466934 8.313446l3.2767334 -12.240875l8.663483 2.3200073l-0.61413574 2.29422l-6.052368 -1.6207886l-0.6909027 2.5810242l5.9316254 1.58844l-0.61413574 2.29422l-5.9316254 -1.58844l-0.74342346 2.7772217l6.052368 1.620758l-0.61413574 2.29422l-8.663483 -2.3200073zm16.256653 4.596039q-2.792221 -0.7477417 -4.126648 -3.013794q-1.3193207 -2.262024 -0.5758972 -5.0392456q0.73535156 -2.7470093 3.0082092 -4.0470886q2.2919922 -1.3111267 5.0842285 -0.563385q2.807312 0.75180054 4.1226196 3.0289001q1.3193054 2.262024 0.58395386 5.0090637q-0.7030029 2.6262817 -2.7594604 3.9034119l0.62680054 1.2839661l-2.2262573 1.0052185l-0.6739807 -1.4098511q-1.493866 0.26315308 -3.063568 -0.15719604zm0.6222229 -2.3244019q0.63391113 0.16976929 1.3354492 0.14733887l-0.9190674 -1.9445496l2.192047 -0.99819946l0.93011475 1.9636841q0.8935852 -0.8606262 1.249115 -2.1888733q0.46466064 -1.7357483 -0.258667 -3.1426392q-0.7041626 -1.4179077 -2.3795166 -1.8665466q-1.6904297 -0.45269775 -3.008728 0.4236145q-1.31427 0.8612366 -1.7789307 2.5969849q-0.4727173 1.7659607 0.25057983 3.172821q0.72735596 1.3917542 2.3876038 1.8363647zm12.877289 5.9394836q-2.5960388 -0.69522095 -3.70047 -2.430603q-1.1044617 -1.7353821 -0.4580078 -4.15036l1.9717102 -7.3656616l2.6412964 0.7073364l-1.9433899 7.26001q-0.34747314 1.2980347 0.1628418 2.2919922q0.5143738 0.97888184 1.9482422 1.362854q1.4338379 0.38397217 2.3533325 -0.21090698q0.93859863 -0.60595703 1.2860718 -1.9039917l1.9434204 -7.2600403l2.6564026 0.71136475l-1.963623 7.3354797q-0.6505127 2.4300842 -2.447998 3.4045105q-1.7783508 0.9634094 -4.449829 0.24801636zm7.7460938 1.8316956l3.2767334 -12.240875l8.663483 2.3200073l-0.61413574 2.29422l-6.052368 -1.6207886l-0.69091797 2.5810242l5.9316406 1.58844l-0.61413574 2.29422l-5.9316406 -1.58844l-0.7434082 2.7772217l6.052368 1.620758l-0.61413574 2.29422l-8.663483 -2.3200073zm14.792633 4.2039795q-3.2601318 -0.87301636 -4.6406555 -3.3293762l1.9369812 -1.6164551q0.4671936 0.8529968 1.3149109 1.6138306q0.8668518 0.74975586 2.134674 1.0892639q1.086731 0.29101562 1.7089844 0.020904541q0.64138794 -0.28115845 0.7828064 -0.80944824q0.1494751 -0.55844116 -0.3734436 -1.0220032q-0.51885986 -0.4786377 -2.6826782 -1.6404114q-3.305542 -1.7910156 -2.5782776 -4.5078735q0.42425537 -1.5848083 1.9789429 -2.3169556q1.5697937 -0.7280884 3.6677246 -0.16625977q2.9129944 0.7800598 4.3128967 2.982788l-1.9580383 1.513794q-1.0933838 -1.7162781 -3.206421 -2.282135q-0.84524536 -0.22631836 -1.3909607 -4.272461E-4q-0.541687 0.21078491 -0.6871338 0.7541809q-0.12930298 0.4829712 0.3262329 0.89611816q0.45959473 0.3980713 1.1959534 0.7893677l1.577301 0.8753052q3.2591858 1.8433228 2.5400085 4.5299683q-0.4888916 1.8263245 -2.0848083 2.53125q-1.5808411 0.70895386 -3.875 0.094573975zm9.364044 2.2649841l2.6625977 -9.946655l-3.592163 -0.9619446l0.61413574 -2.2942505l9.765289 2.6150818l-0.61413574 2.29422l-3.5620117 -0.9538574l-2.6625977 9.946655l-2.6111145 -0.69924927z" fill-rule="nonzero"></path><path fill="#000000" fill-opacity="0.0" d="m366.18912 198.05516l-199.59055 53.448807l11.559067 43.18112l199.59056 -53.448837z" fill-rule="evenodd"></path><path fill="#3c78d8" d="m253.41925 261.23233q-2.7922363 0.7477417 -5.080185 -0.5482788q-2.2728424 -1.3000488 -3.0162659 -4.0772705q-0.73535156 -2.7470398 0.5839691 -5.0090485q1.3303833 -2.2811584 4.1226196 -3.0289001q2.8073273 -0.7517853 5.0842285 0.56336975q2.2728577 1.3000641 3.0082092 4.047104q0.73532104 2.7470245 -0.57995605 5.024124q-1.3152771 2.2771301 -4.1226196 3.0289001zm-0.62220764 -2.3244019q1.614975 -0.4324646 2.3614502 -1.8132019q0.75753784 -1.3998413 0.2767334 -3.195984q-0.4646454 -1.7357635 -1.7940063 -2.592926q-1.3183136 -0.87631226 -2.9936523 -0.42767334q-1.690445 0.45269775 -2.3946075 1.8706055q-0.70822144 1.4028168 -0.24357605 3.1385803q0.4727173 1.7659607 1.8020782 2.6231384q1.3253326 0.84207153 2.9855804 0.39746094zm8.537003 -0.037750244l-3.2767334 -12.240875l8.663483 -2.3200226l0.61413574 2.29422l-6.052368 1.6207886l0.69088745 2.5809937l5.9316406 -1.58844l0.61413574 2.29422l-5.9316406 1.58844l1.3575745 5.071457l-2.6111145 0.69921875zm10.290131 -2.7556152l-3.2767334 -12.2408905l8.663483 -2.3200073l0.61413574 2.29422l-6.052368 1.6207733l0.69091797 2.581009l5.93161 -1.58844l0.61413574 2.29422l-5.93161 1.58844l1.3575745 5.0714417l-2.611145 0.699234zm10.290161 -2.7556152l-3.2767334 -12.2408905l8.663483 -2.3200226l0.61413574 2.2942352l-6.052368 1.6207733l0.69088745 2.5809937l5.9316406 -1.58844l0.61413574 2.29422l-5.9316406 1.5884552l0.7434387 2.7772064l6.052368 -1.6207733l0.61413574 2.29422l-8.663483 2.3200226zm17.434174 -4.668747l-3.5785522 -3.7002563l-1.9017334 0.50927734l1.1636353 4.3469543l-2.6111145 0.699234l-3.2767334 -12.2408905l5.735382 -1.5359039q1.871582 -0.5011749 3.287445 0.3166504q1.4118347 0.8027344 1.8724365 2.5233917q0.3838501 1.4338989 -0.123291016 2.621109q-0.49606323 1.1680908 -1.5895386 1.7359009l4.010498 3.9242554l-2.9884338 0.8002777zm-3.3625488 -6.2167816q0.7848511 -0.21017456 1.1959229 -0.7893524q0.40707397 -0.5942688 0.20101929 -1.3640442q-0.2060852 -0.76976013 -0.85150146 -1.0660095q-0.6454468 -0.2962494 -1.4302673 -0.08607483l-2.7318726 0.7315674l0.88482666 3.3054962l2.7318726 -0.73158264z" fill-rule="nonzero"></path><path fill="#000000" fill-opacity="0.0" d="m366.18912 478.05515l-199.59055 53.448822l11.559067 43.18109l199.59056 -53.44879z" fill-rule="evenodd"></path><path fill="#3c78d8" d="m266.14594 537.5816l-1.308197 -1.8657227l-5.252411 1.4065552l-0.21621704 2.2739258l-2.9733582 0.79626465l1.4625244 -13.51001l3.2601013 -0.8730469l8.000916 10.975769l-2.9733582 0.79626465zm-5.958618 -8.724304l-0.5067444 5.780945l3.818573 -1.022583l-3.3118286 -4.758362zm15.825226 6.324707q-2.8375244 0.7598877 -5.1637573 -0.55822754q-2.3262024 -1.3181152 -3.0534668 -4.034973q-0.48080444 -1.7961426 -0.027496338 -3.4865723q0.46435547 -1.7095337 1.7635803 -2.8985596q1.295166 -1.2041626 3.0912476 -1.6851196q3.38089 -0.9053955 5.9165955 1.6182861l-1.9388428 1.7000732q-0.5944519 -0.64959717 -1.5015564 -0.95666504q-0.907135 -0.30706787 -1.8580017 -0.0524292q-1.675354 0.44866943 -2.4549866 1.8867798q-0.7645569 1.434082 -0.30395508 3.1547852q0.47677612 1.7810059 1.8775635 2.6029053q1.4007874 0.8218384 3.0308533 0.38531494q0.9508667 -0.25463867 1.5872803 -0.9588623q0.63238525 -0.7192993 0.8187561 -1.5941772l2.5246887 0.48858643q-0.9276428 3.4835205 -4.308502 4.388855zm13.663269 -3.9015503l-5.0260315 -3.9110718l-0.6437988 1.4017334l1.0060425 3.7583008l-2.6111145 0.69921875l-3.2767334 -12.240906l2.6111145 -0.69921875l1.462616 5.463867l2.8691406 -6.6239014l3.2148438 -0.8609009l-3.3357239 7.0562134l6.944519 5.095764l-3.2148743 0.8609009z" fill-rule="nonzero"></path><path fill="#000000" fill-opacity="0.0" d="m535.89764 72.220474l89.763794 0" fill-rule="evenodd"></path><path stroke="#674ea7" stroke-width="4.0" stroke-linejoin="round" stroke-linecap="butt" d="m535.89764 72.220474l65.763794 0" fill-rule="evenodd"></path><path fill="#674ea7" stroke="#674ea7" stroke-width="4.0" stroke-linecap="butt" d="m601.66144 78.8274l18.152344 -6.606926l-18.152344 -6.6069336z" fill-rule="evenodd"></path><path fill="#000000" fill-opacity="0.0" d="m535.89764 113.10236l89.763794 0" fill-rule="evenodd"></path><path stroke="#3c78d8" stroke-width="4.0" stroke-linejoin="round" stroke-linecap="butt" d="m535.89764 113.10236l65.763794 0" fill-rule="evenodd"></path><path fill="#3c78d8" stroke="#3c78d8" stroke-width="4.0" stroke-linecap="butt" d="m601.66144 119.70929l18.152344 -6.606926l-18.152344 -6.6069336z" fill-rule="evenodd"></path><path fill="#000000" fill-opacity="0.0" d="m635.3097 58.31496l237.63782 0l0 27.811024l-237.63782 0z" fill-rule="evenodd"></path><path fill="#000000" d="m645.79407 79.14047l0 -12.671875l5.640625 0q1.609375 0 2.578125 0.890625q0.96875 0.875 0.96875 2.34375q0 1.109375 -0.625 1.890625q-0.609375 0.78125 -1.59375 1.015625q1.015625 0.140625 1.734375 1.0625q0.734375 0.90625 0.734375 2.046875q0 1.5625 -0.984375 2.5q-0.96875 0.921875 -2.671875 0.921875l-5.78125 0zm5.375 -7.1875q1.078125 0 1.625 -0.578125q0.5625 -0.578125 0.5625 -1.453125q0 -0.84375 -0.5625 -1.4375q-0.546875 -0.609375 -1.625 -0.609375l-3.796875 0l0 4.078125l3.796875 0zm0.078125 5.78125q1.125 0 1.734375 -0.578125q0.625 -0.578125 0.625 -1.609375q0 -0.96875 -0.65625 -1.578125q-0.640625 -0.609375 -1.703125 -0.609375l-3.875 0l0 4.375l3.875 0zm6.2191772 1.40625l0 -9.171875l1.421875 0l0 1.484375q1.28125 -1.671875 3.0625 -1.671875l0 1.453125l-0.5625 -0.0625q-0.65625 0 -1.4375 0.46875q-0.765625 0.46875 -1.0625 1.0l0 6.5l-1.421875 0zm10.17218 0.234375q-2.0 0 -3.28125 -1.359375q-1.265625 -1.359375 -1.265625 -3.46875q0 -2.125 1.265625 -3.46875q1.28125 -1.34375 3.28125 -1.34375q1.984375 0 3.25 1.34375q1.28125 1.34375 1.28125 3.46875q0 2.109375 -1.28125 3.46875q-1.265625 1.359375 -3.25 1.359375zm0 -1.28125q1.328125 0 2.171875 -1.0q0.859375 -1.0 0.859375 -2.546875q0 -1.546875 -0.859375 -2.53125q-0.84375 -1.0 -2.171875 -1.0q-1.328125 0 -2.203125 0.984375q-0.859375 0.984375 -0.859375 2.546875q0 1.578125 0.84375 2.5625q0.859375 0.984375 2.21875 0.984375zm12.390137 1.046875l0 -1.046875q-1.15625 1.28125 -3.03125 1.28125q-1.390625 0 -2.3125 -0.875q-0.90625 -0.875 -0.90625 -2.171875q0 -1.328125 0.90625 -2.171875q0.90625 -0.84375 2.3125 -0.84375q1.96875 0 3.03125 1.25l0 -1.65625q0 -0.921875 -0.65625 -1.421875q-0.640625 -0.515625 -1.65625 -0.515625q-1.609375 0 -2.8125 1.28125l-0.65625 -1.0q1.453125 -1.515625 3.65625 -1.515625q1.6875 0 2.625 0.828125q0.9375 0.8125 0.9375 2.265625l0 6.3125l-1.4375 0zm-2.515625 -0.796875q1.6875 0 2.515625 -1.140625l0 -1.734375q-0.828125 -1.140625 -2.515625 -1.140625q-1.015625 0 -1.640625 0.5625q-0.625 0.5625 -0.625 1.453125q0 0.875 0.625 1.4375q0.625 0.5625 1.640625 0.5625zm13.269348 0.796875l0 -1.375q-0.515625 0.703125 -1.328125 1.15625q-0.796875 0.453125 -1.765625 0.453125q-1.84375 0 -2.96875 -1.3125q-1.125 -1.3125 -1.125 -3.5q0 -2.203125 1.125 -3.515625q1.140625 -1.3125 2.96875 -1.3125q0.921875 0 1.734375 0.4375q0.8125 0.421875 1.359375 1.171875l0 -4.875l1.421875 0l0 12.671875l-1.421875 0zm-2.765625 -1.046875q0.859375 0 1.609375 -0.40625q0.765625 -0.421875 1.15625 -1.03125l0 -4.171875q-0.390625 -0.609375 -1.15625 -1.03125q-0.75 -0.4375 -1.609375 -0.4375q-1.328125 0 -2.140625 0.96875q-0.796875 0.96875 -0.796875 2.578125q0 1.578125 0.796875 2.5625q0.796875 0.96875 2.140625 0.96875zm10.883606 1.28125q-2.015625 0 -3.296875 -1.375q-1.28125 -1.375 -1.28125 -3.453125q0 -2.078125 1.28125 -3.4375q1.28125 -1.375 3.296875 -1.375q2.125 0 3.359375 1.59375l-0.9375 0.875q-0.875 -1.1875 -2.34375 -1.1875q-1.40625 0 -2.296875 0.984375q-0.875 0.96875 -0.875 2.546875q0 1.59375 0.875 2.578125q0.875 0.96875 2.296875 0.96875q1.4375 0 2.34375 -1.1875l0.9375 0.859375q-1.234375 1.609375 -3.359375 1.609375zm10.922363 -0.234375l0 -1.046875q-1.15625 1.28125 -3.03125 1.28125q-1.390625 0 -2.3125 -0.875q-0.90625 -0.875 -0.90625 -2.171875q0 -1.328125 0.90625 -2.171875q0.90625 -0.84375 2.3125 -0.84375q1.96875 0 3.03125 1.25l0 -1.65625q0 -0.921875 -0.65625 -1.421875q-0.640625 -0.515625 -1.65625 -0.515625q-1.609375 0 -2.8125 1.28125l-0.65625 -1.0q1.453125 -1.515625 3.65625 -1.515625q1.6875 0 2.625 0.828125q0.9375 0.8125 0.9375 2.265625l0 6.3125l-1.4375 0zm-2.515625 -0.796875q1.6875 0 2.515625 -1.140625l0 -1.734375q-0.828125 -1.140625 -2.515625 -1.140625q-1.015625 0 -1.640625 0.5625q-0.625 0.5625 -0.625 1.453125q0 0.875 0.625 1.4375q0.625 0.5625 1.640625 0.5625zm9.519348 1.03125q-2.328125 0 -3.703125 -1.453125l0.75 -1.015625q0.453125 0.53125 1.25 0.921875q0.8125 0.375 1.765625 0.375q1.0625 0 1.609375 -0.4375q0.5625 -0.453125 0.5625 -1.140625q0 -0.59375 -0.609375 -0.9375q-0.59375 -0.359375 -2.234375 -0.75q-1.375 -0.28125 -2.109375 -0.890625q-0.734375 -0.625 -0.734375 -1.671875q0 -1.15625 0.921875 -1.890625q0.9375 -0.75 2.5 -0.75q2.0625 0 3.390625 1.328125l-0.65625 0.984375q-0.421875 -0.484375 -1.140625 -0.8125q-0.703125 -0.34375 -1.59375 -0.34375q-0.953125 0 -1.5 0.421875q-0.53125 0.421875 -0.53125 1.03125q0 0.546875 0.609375 0.875q0.609375 0.3125 2.234375 0.65625q1.390625 0.328125 2.109375 0.984375q0.71875 0.65625 0.71875 1.734375q0 1.28125 -0.984375 2.03125q-0.984375 0.75 -2.625 0.75zm8.096985 0q-2.046875 0 -2.046875 -2.15625l0 -6.0l-1.515625 0l0 -1.25l1.515625 0l0 -2.515625l1.4375 0l0 2.515625l1.859375 0l0 1.25l-1.859375 0l0 5.703125q0 0.515625 0.21875 0.84375q0.234375 0.328125 0.703125 0.328125q0.59375 0 0.96875 -0.375l0.421875 1.0625q-0.59375 0.59375 -1.703125 0.59375zm10.298279 0q-2.046875 0 -2.046875 -2.15625l0 -6.0l-1.515625 0l0 -1.25l1.515625 0l0 -2.515625l1.4375 0l0 2.515625l1.859375 0l0 1.25l-1.859375 0l0 5.703125q0 0.515625 0.21875 0.84375q0.234375 0.328125 0.703125 0.328125q0.59375 0 0.96875 -0.375l0.421875 1.0625q-0.59375 0.59375 -1.703125 0.59375zm7.1724243 0q-2.0 0 -3.28125 -1.359375q-1.265625 -1.359375 -1.265625 -3.46875q0 -2.125 1.265625 -3.46875q1.28125 -1.34375 3.28125 -1.34375q1.984375 0 3.25 1.34375q1.28125 1.34375 1.28125 3.46875q0 2.109375 -1.28125 3.46875q-1.265625 1.359375 -3.25 1.359375zm0 -1.28125q1.328125 0 2.171875 -1.0q0.859375 -1.0 0.859375 -2.546875q0 -1.546875 -0.859375 -2.53125q-0.84375 -1.0 -2.171875 -1.0q-1.328125 0 -2.203125 0.984375q-0.859375 0.984375 -0.859375 2.546875q0 1.578125 0.84375 2.5625q0.859375 0.984375 2.21875 0.984375zm15.60968 1.28125q-2.0625 0 -3.375 -1.34375q-1.296875 -1.359375 -1.296875 -3.484375q0 -2.03125 1.296875 -3.421875q1.296875 -1.390625 3.234375 -1.390625q1.96875 0 3.1875 1.375q1.21875 1.359375 1.21875 3.546875l0 0.359375l-7.4375 0q0.078125 1.40625 1.015625 2.296875q0.9375 0.875 2.296875 0.875q1.671875 0 2.828125 -1.15625l0.6875 0.9375q-1.40625 1.40625 -3.65625 1.40625zm2.859375 -5.40625q0 -1.265625 -0.84375 -2.15625q-0.828125 -0.90625 -2.1875 -0.90625q-1.265625 0 -2.109375 0.90625q-0.84375 0.890625 -0.890625 2.15625l6.03125 0zm9.706604 5.171875l0 -6.0q0 -1.21875 -0.5625 -1.671875q-0.5625 -0.453125 -1.5 -0.453125q-0.796875 0 -1.5625 0.421875q-0.765625 0.421875 -1.15625 1.0l0 6.703125l-1.421875 0l0 -9.171875l1.421875 0l0 1.328125q0.59375 -0.6875 1.453125 -1.125q0.875 -0.4375 1.828125 -0.4375q2.921875 0 2.921875 2.96875l0 6.4375l-1.421875 0zm6.404602 0.234375q-2.046875 0 -2.046875 -2.15625l0 -6.0l-1.515625 0l0 -1.25l1.515625 0l0 -2.515625l1.4375 0l0 2.515625l1.859375 0l0 1.25l-1.859375 0l0 5.703125q0 0.515625 0.21875 0.84375q0.234375 0.328125 0.703125 0.328125q0.59375 0 0.96875 -0.375l0.421875 1.0625q-0.59375 0.59375 -1.703125 0.59375zm3.8599243 -10.71875q-0.375 0 -0.671875 -0.265625q-0.28125 -0.28125 -0.28125 -0.6875q0 -0.40625 0.28125 -0.6875q0.296875 -0.28125 0.671875 -0.28125q0.40625 0 0.6875 0.28125q0.28125 0.28125 0.28125 0.6875q0 0.40625 -0.28125 0.6875q-0.28125 0.265625 -0.6875 0.265625zm-0.703125 10.484375l0 -9.171875l1.421875 0l0 9.171875l-1.421875 0zm4.197693 0l0 -9.171875l1.421875 0l0 1.484375q1.28125 -1.671875 3.0625 -1.671875l0 1.453125l-0.5625 -0.0625q-0.65625 0 -1.4375 0.46875q-0.765625 0.46875 -1.0625 1.0l0 6.5l-1.421875 0zm10.29718 0.234375q-2.0625 0 -3.375 -1.34375q-1.296875 -1.359375 -1.296875 -3.484375q0 -2.03125 1.296875 -3.421875q1.296875 -1.390625 3.234375 -1.390625q1.96875 0 3.1875 1.375q1.21875 1.359375 1.21875 3.546875l0 0.359375l-7.4375 0q0.078125 1.40625 1.015625 2.296875q0.9375 0.875 2.296875 0.875q1.671875 0 2.828125 -1.15625l0.6875 0.9375q-1.40625 1.40625 -3.65625 1.40625zm2.859375 -5.40625q0 -1.265625 -0.84375 -2.15625q-0.828125 -0.90625 -2.1875 -0.90625q-1.265625 0 -2.109375 0.90625q-0.84375 0.890625 -0.890625 2.15625l6.03125 0zm8.379272 5.171875l0 -12.671875l1.578125 0l0 11.265625l5.890625 0l0 1.40625l-7.46875 0zm18.561584 0l-1.125 -2.8125l-6.3125 0l-1.125 2.8125l-1.796875 0l5.09375 -12.671875l1.953125 0l5.109375 12.671875l-1.796875 0zm-4.28125 -11.03125l-2.703125 6.8125l5.390625 0l-2.6875 -6.8125zm16.478943 11.03125l-7.390625 -10.109375l0 10.109375l-1.578125 0l0 -12.671875l1.609375 0l7.296875 9.890625l0 -9.890625l1.578125 0l0 12.671875l-1.515625 0z" fill-rule="nonzero"></path><path fill="#000000" fill-opacity="0.0" d="m635.3097 99.19685l237.63782 0l0 27.81102l-237.63782 0z" fill-rule="evenodd"></path><path fill="#000000" d="m650.96594 120.25674q-2.453125 0 -3.8125 -1.34375q-1.359375 -1.34375 -1.359375 -3.8125l0 -7.75l1.578125 0l0 7.71875q0 1.734375 0.90625 2.765625q0.921875 1.015625 2.6875 1.015625q1.765625 0 2.671875 -1.015625q0.90625 -1.03125 0.90625 -2.765625l0 -7.71875l1.578125 0l0 7.734375q0 2.46875 -1.328125 3.828125q-1.328125 1.34375 -3.828125 1.34375zm14.028137 -0.234375l0 -6.0q0 -1.21875 -0.5625 -1.671875q-0.5625 -0.453125 -1.5 -0.453125q-0.796875 0 -1.5625 0.421875q-0.765625 0.421875 -1.15625 1.0l0 6.703125l-1.421875 0l0 -9.171875l1.421875 0l0 1.328125q0.59375 -0.6875 1.453125 -1.125q0.875 -0.4375 1.828125 -0.4375q2.921875 0 2.921875 2.96875l0 6.4375l-1.421875 0zm4.779602 -10.484375q-0.375 0 -0.671875 -0.265625q-0.28125 -0.28125 -0.28125 -0.6875q0 -0.40625 0.28125 -0.6875q0.296875 -0.28125 0.671875 -0.28125q0.40625 0 0.6875 0.28125q0.28125 0.28125 0.28125 0.6875q0 0.40625 -0.28125 0.6875q-0.28125 0.265625 -0.6875 0.265625zm-0.703125 10.484375l0 -9.171875l1.421875 0l0 9.171875l-1.421875 0zm8.244568 0.234375q-2.015625 0 -3.296875 -1.375q-1.28125 -1.375 -1.28125 -3.453125q0 -2.078125 1.28125 -3.4375q1.28125 -1.375 3.296875 -1.375q2.125 0 3.359375 1.59375l-0.9375 0.875q-0.875 -1.1875 -2.34375 -1.1875q-1.40625 0 -2.296875 0.984375q-0.875 0.96875 -0.875 2.546875q0 1.59375 0.875 2.578125q0.875 0.96875 2.296875 0.96875q1.4375 0 2.34375 -1.1875l0.9375 0.859375q-1.234375 1.609375 -3.359375 1.609375zm10.922302 -0.234375l0 -1.046875q-1.15625 1.28125 -3.03125 1.28125q-1.390625 0 -2.3125 -0.875q-0.90625 -0.875 -0.90625 -2.171875q0 -1.328125 0.90625 -2.171875q0.90625 -0.84375 2.3125 -0.84375q1.96875 0 3.03125 1.25l0 -1.65625q0 -0.921875 -0.65625 -1.421875q-0.640625 -0.515625 -1.65625 -0.515625q-1.609375 0 -2.8125 1.28125l-0.65625 -1.0q1.453125 -1.515625 3.65625 -1.515625q1.6875 0 2.625 0.828125q0.9375 0.8125 0.9375 2.265625l0 6.3125l-1.4375 0zm-2.515625 -0.796875q1.6875 0 2.515625 -1.140625l0 -1.734375q-0.828125 -1.140625 -2.515625 -1.140625q-1.015625 0 -1.640625 0.5625q-0.625 0.5625 -0.625 1.453125q0 0.875 0.625 1.4375q0.625 0.5625 1.640625 0.5625zm9.519348 1.03125q-2.328125 0 -3.703125 -1.453125l0.75 -1.015625q0.453125 0.53125 1.25 0.921875q0.8125 0.375 1.765625 0.375q1.0625 0 1.609375 -0.4375q0.5625 -0.453125 0.5625 -1.140625q0 -0.59375 -0.609375 -0.9375q-0.59375 -0.359375 -2.234375 -0.75q-1.375 -0.28125 -2.109375 -0.890625q-0.734375 -0.625 -0.734375 -1.671875q0 -1.15625 0.921875 -1.890625q0.9375 -0.75 2.5 -0.75q2.0625 0 3.390625 1.328125l-0.65625 0.984375q-0.421875 -0.484375 -1.140625 -0.8125q-0.703125 -0.34375 -1.59375 -0.34375q-0.953125 0 -1.5 0.421875q-0.53125 0.421875 -0.53125 1.03125q0 0.546875 0.609375 0.875q0.609375 0.3125 2.234375 0.65625q1.390625 0.328125 2.109375 0.984375q0.71875 0.65625 0.71875 1.734375q0 1.28125 -0.984375 2.03125q-0.984375 0.75 -2.625 0.75zm8.097046 0q-2.046875 0 -2.046875 -2.15625l0 -6.0l-1.515625 0l0 -1.25l1.515625 0l0 -2.515625l1.4375 0l0 2.515625l1.859375 0l0 1.25l-1.859375 0l0 5.703125q0 0.515625 0.21875 0.84375q0.234375 0.328125 0.703125 0.328125q0.59375 0 0.96875 -0.375l0.421875 1.0625q-0.59375 0.59375 -1.703125 0.59375zm10.298279 0q-2.046875 0 -2.046875 -2.15625l0 -6.0l-1.515625 0l0 -1.25l1.515625 0l0 -2.515625l1.4375 0l0 2.515625l1.859375 0l0 1.25l-1.859375 0l0 5.703125q0 0.515625 0.21875 0.84375q0.234375 0.328125 0.703125 0.328125q0.59375 0 0.96875 -0.375l0.421875 1.0625q-0.59375 0.59375 -1.703125 0.59375zm7.1724243 0q-2.0 0 -3.28125 -1.359375q-1.265625 -1.359375 -1.265625 -3.46875q0 -2.125 1.265625 -3.46875q1.28125 -1.34375 3.28125 -1.34375q1.984375 0 3.25 1.34375q1.28125 1.34375 1.28125 3.46875q0 2.109375 -1.28125 3.46875q-1.265625 1.359375 -3.25 1.359375zm0 -1.28125q1.328125 0 2.171875 -1.0q0.859375 -1.0 0.859375 -2.546875q0 -1.546875 -0.859375 -2.53125q-0.84375 -1.0 -2.171875 -1.0q-1.328125 0 -2.203125 0.984375q-0.859375 0.984375 -0.859375 2.546875q0 1.578125 0.84375 2.5625q0.859375 0.984375 2.21875 0.984375zm15.48468 1.28125q-2.0 0 -3.28125 -1.359375q-1.265625 -1.359375 -1.265625 -3.46875q0 -2.125 1.265625 -3.46875q1.28125 -1.34375 3.28125 -1.34375q1.984375 0 3.25 1.34375q1.28125 1.34375 1.28125 3.46875q0 2.109375 -1.28125 3.46875q-1.265625 1.359375 -3.25 1.359375zm0 -1.28125q1.328125 0 2.171875 -1.0q0.859375 -1.0 0.859375 -2.546875q0 -1.546875 -0.859375 -2.53125q-0.84375 -1.0 -2.171875 -1.0q-1.328125 0 -2.203125 0.984375q-0.859375 0.984375 -0.859375 2.546875q0 1.578125 0.84375 2.5625q0.859375 0.984375 2.21875 0.984375zm12.858887 1.046875l0 -6.0q0 -1.21875 -0.5625 -1.671875q-0.5625 -0.453125 -1.5 -0.453125q-0.796875 0 -1.5625 0.421875q-0.765625 0.421875 -1.15625 1.0l0 6.703125l-1.421875 0l0 -9.171875l1.421875 0l0 1.328125q0.59375 -0.6875 1.453125 -1.125q0.875 -0.4375 1.828125 -0.4375q2.921875 0 2.921875 2.96875l0 6.4375l-1.421875 0zm8.217102 0.234375q-2.0625 0 -3.375 -1.34375q-1.296875 -1.359375 -1.296875 -3.484375q0 -2.03125 1.296875 -3.421875q1.296875 -1.390625 3.234375 -1.390625q1.96875 0 3.1875 1.375q1.21875 1.359375 1.21875 3.546875l0 0.359375l-7.4375 0q0.078125 1.40625 1.015625 2.296875q0.9375 0.875 2.296875 0.875q1.671875 0 2.828125 -1.15625l0.6875 0.9375q-1.40625 1.40625 -3.65625 1.40625zm2.859375 -5.40625q0 -1.265625 -0.84375 -2.15625q-0.828125 -0.90625 -2.1875 -0.90625q-1.265625 0 -2.109375 0.90625q-0.84375 0.890625 -0.890625 2.15625l6.03125 0zm14.535522 5.171875l0 -6.046875q0 -1.015625 -0.484375 -1.546875q-0.484375 -0.53125 -1.59375 -0.53125q-0.78125 0 -1.515625 0.40625q-0.71875 0.390625 -1.203125 1.015625l0 6.703125l-1.421875 0l0 -12.671875l1.421875 0l0 4.828125q0.609375 -0.703125 1.484375 -1.125q0.875 -0.4375 1.8125 -0.4375q2.921875 0 2.921875 2.921875l0 6.484375l-1.421875 0zm8.095093 0.234375q-2.0 0 -3.28125 -1.359375q-1.265625 -1.359375 -1.265625 -3.46875q0 -2.125 1.265625 -3.46875q1.28125 -1.34375 3.28125 -1.34375q1.984375 0 3.25 1.34375q1.28125 1.34375 1.28125 3.46875q0 2.109375 -1.28125 3.46875q-1.265625 1.359375 -3.25 1.359375zm0 -1.28125q1.328125 0 2.171875 -1.0q0.859375 -1.0 0.859375 -2.546875q0 -1.546875 -0.859375 -2.53125q-0.84375 -1.0 -2.171875 -1.0q-1.328125 0 -2.203125 0.984375q-0.859375 0.984375 -0.859375 2.546875q0 1.578125 0.84375 2.5625q0.859375 0.984375 2.21875 0.984375zm9.562012 1.28125q-2.328125 0 -3.703125 -1.453125l0.75 -1.015625q0.453125 0.53125 1.25 0.921875q0.8125 0.375 1.765625 0.375q1.0625 0 1.609375 -0.4375q0.5625 -0.453125 0.5625 -1.140625q0 -0.59375 -0.609375 -0.9375q-0.59375 -0.359375 -2.234375 -0.75q-1.375 -0.28125 -2.109375 -0.890625q-0.734375 -0.625 -0.734375 -1.671875q0 -1.15625 0.921875 -1.890625q0.9375 -0.75 2.5 -0.75q2.0625 0 3.390625 1.328125l-0.65625 0.984375q-0.421875 -0.484375 -1.140625 -0.8125q-0.703125 -0.34375 -1.59375 -0.34375q-0.953125 0 -1.5 0.421875q-0.53125 0.421875 -0.53125 1.03125q0 0.546875 0.609375 0.875q0.609375 0.3125 2.234375 0.65625q1.390625 0.328125 2.109375 0.984375q0.71875 0.65625 0.71875 1.734375q0 1.28125 -0.984375 2.03125q-0.984375 0.75 -2.625 0.75zm8.097046 0q-2.046875 0 -2.046875 -2.15625l0 -6.0l-1.515625 0l0 -1.25l1.515625 0l0 -2.515625l1.4375 0l0 2.515625l1.859375 0l0 1.25l-1.859375 0l0 5.703125q0 0.515625 0.21875 0.84375q0.234375 0.328125 0.703125 0.328125q0.59375 0 0.96875 -0.375l0.421875 1.0625q-0.59375 0.59375 -1.703125 0.59375z" fill-rule="nonzero"></path><path fill="#000000" fill-opacity="0.0" d="m151.94489 617.6982l237.63779 0l0 27.811035l-237.63779 0z" fill-rule="evenodd"></path><path fill="#666666" d="m199.34152 638.75806q-2.796875 0 -4.65625 -1.84375q-1.859375 -1.84375 -1.859375 -4.71875q0 -2.875 1.859375 -4.703125q1.859375 -1.84375 4.65625 -1.84375q3.015625 0 4.8125 2.5l-1.328125 0.734375q-0.5625 -0.796875 -1.484375 -1.3125q-0.921875 -0.515625 -2.0 -0.515625q-2.109375 0 -3.5 1.46875q-1.375 1.453125 -1.375 3.671875q0 2.25 1.375 3.703125q1.375 1.453125 3.5 1.453125q1.078125 0 2.0 -0.515625q0.921875 -0.515625 1.484375 -1.328125l1.34375 0.734375q-1.84375 2.515625 -4.828125 2.515625zm6.5491333 -0.234375l0 -12.671875l1.421875 0l0 12.671875l-1.421875 0zm4.9007874 -10.484375q-0.375 0 -0.671875 -0.265625q-0.28125 -0.28125 -0.28125 -0.6875q0 -0.40625 0.28125 -0.6875q0.296875 -0.28125 0.671875 -0.28125q0.40625 0 0.6875 0.28125q0.28125 0.28125 0.28125 0.6875q0 0.40625 -0.28125 0.6875q-0.28125 0.265625 -0.6875 0.265625zm-0.703125 10.484375l0 -9.171875l1.421875 0l0 9.171875l-1.421875 0zm8.338287 0.234375q-2.0625 0 -3.375 -1.34375q-1.296875 -1.359375 -1.296875 -3.484375q0 -2.03125 1.296875 -3.421875q1.296875 -1.390625 3.234375 -1.390625q1.96875 0 3.1875 1.375q1.21875 1.359375 1.21875 3.546875l0 0.359375l-7.4375 0q0.078125 1.40625 1.015625 2.296875q0.9375 0.875 2.296875 0.875q1.671875 0 2.828125 -1.15625l0.6875 0.9375q-1.40625 1.40625 -3.65625 1.40625zm2.859375 -5.40625q0 -1.265625 -0.84375 -2.15625q-0.828125 -0.90625 -2.1875 -0.90625q-1.265625 0 -2.109375 0.90625q-0.84375 0.890625 -0.890625 2.15625l6.03125 0zm9.706589 5.171875l0 -6.0q0 -1.21875 -0.5625 -1.671875q-0.5625 -0.453125 -1.5 -0.453125q-0.796875 0 -1.5625 0.421875q-0.765625 0.421875 -1.15625 1.0l0 6.703125l-1.421875 0l0 -9.171875l1.421875 0l0 1.328125q0.59375 -0.6875 1.453125 -1.125q0.875 -0.4375 1.828125 -0.4375q2.921875 0 2.921875 2.96875l0 6.4375l-1.421875 0zm6.404602 0.234375q-2.046875 0 -2.046875 -2.15625l0 -6.0l-1.515625 0l0 -1.25l1.515625 0l0 -2.515625l1.4375 0l0 2.515625l1.859375 0l0 1.25l-1.859375 0l0 5.703125q0 0.515625 0.21875 0.84375q0.234375 0.328125 0.703125 0.328125q0.59375 0 0.96875 -0.375l0.421875 1.0625q-0.59375 0.59375 -1.703125 0.59375zm8.673248 -10.71875q-0.375 0 -0.671875 -0.265625q-0.28125 -0.28125 -0.28125 -0.6875q0 -0.40625 0.28125 -0.6875q0.296875 -0.28125 0.671875 -0.28125q0.40625 0 0.6875 0.28125q0.28125 0.28125 0.28125 0.6875q0 0.40625 -0.28125 0.6875q-0.28125 0.265625 -0.6875 0.265625zm-0.703125 10.484375l0 -9.171875l1.421875 0l0 9.171875l-1.421875 0zm7.1039124 0.234375q-2.328125 0 -3.703125 -1.453125l0.75 -1.015625q0.453125 0.53125 1.25 0.921875q0.8125 0.375 1.765625 0.375q1.0625 0 1.609375 -0.4375q0.5625 -0.453125 0.5625 -1.140625q0 -0.59375 -0.609375 -0.9375q-0.59375 -0.359375 -2.234375 -0.75q-1.375 -0.28125 -2.109375 -0.890625q-0.734375 -0.625 -0.734375 -1.671875q0 -1.15625 0.921875 -1.890625q0.9375 -0.75 2.5 -0.75q2.0625 0 3.390625 1.328125l-0.65625 0.984375q-0.421875 -0.484375 -1.140625 -0.8125q-0.703125 -0.34375 -1.59375 -0.34375q-0.953125 0 -1.5 0.421875q-0.53125 0.421875 -0.53125 1.03125q0 0.546875 0.609375 0.875q0.609375 0.3125 2.234375 0.65625q1.390625 0.328125 2.109375 0.984375q0.71873474 0.65625 0.71873474 1.734375q0 1.28125 -0.98435974 2.03125q-0.984375 0.75 -2.625 0.75zm14.629074 0q-2.015625 0 -3.296875 -1.375q-1.28125 -1.375 -1.28125 -3.453125q0 -2.078125 1.28125 -3.4375q1.28125 -1.375 3.296875 -1.375q2.125 0 3.359375 1.59375l-0.9375 0.875q-0.875 -1.1875 -2.34375 -1.1875q-1.40625 0 -2.296875 0.984375q-0.875 0.96875 -0.875 2.546875q0 1.59375 0.875 2.578125q0.875 0.96875 2.296875 0.96875q1.4375 0 2.34375 -1.1875l0.9375 0.859375q-1.234375 1.609375 -3.359375 1.609375zm9.203613 0q-2.0 0 -3.28125 -1.359375q-1.265625 -1.359375 -1.265625 -3.46875q0 -2.125 1.265625 -3.46875q1.28125 -1.34375 3.28125 -1.34375q1.984375 0 3.25 1.34375q1.28125 1.34375 1.28125 3.46875q0 2.109375 -1.28125 3.46875q-1.265625 1.359375 -3.25 1.359375zm0 -1.28125q1.328125 0 2.171875 -1.0q0.859375 -1.0 0.859375 -2.546875q0 -1.546875 -0.859375 -2.53125q-0.84375 -1.0 -2.171875 -1.0q-1.328125 0 -2.203125 0.984375q-0.859375 0.984375 -0.859375 2.546875q0 1.578125 0.84375 2.5625q0.859375 0.984375 2.21875 0.984375zm12.858856 1.046875l0 -6.0q0 -1.21875 -0.5625 -1.671875q-0.5625 -0.453125 -1.5 -0.453125q-0.796875 0 -1.5625 0.421875q-0.765625 0.421875 -1.15625 1.0l0 6.703125l-1.421875 0l0 -9.171875l1.421875 0l0 1.328125q0.59375 -0.6875 1.453125 -1.125q0.875 -0.4375 1.828125 -0.4375q2.921875 0 2.921875 2.96875l0 6.4375l-1.421875 0zm4.482727 0l0 -7.921875l-1.53125 0l0 -1.25l1.53125 0l0 -0.703125q0 -1.4375 0.703125 -2.203125q0.71875 -0.78125 1.953125 -0.78125q1.15625 0 1.9375 0.703125l-0.59375 0.921875q-0.484375 -0.453125 -1.140625 -0.453125q-1.4375 0 -1.4375 1.8125l0 0.703125l1.859375 0l0 1.25l-1.859375 0l0 7.921875l-1.421875 0zm5.576599 -10.484375q-0.375 0 -0.671875 -0.265625q-0.28125 -0.28125 -0.28125 -0.6875q0 -0.40625 0.28125 -0.6875q0.296875 -0.28125 0.671875 -0.28125q0.40625 0 0.6875 0.28125q0.28125 0.28125 0.28125 0.6875q0 0.40625 -0.28125 0.6875q-0.28125 0.265625 -0.6875 0.265625zm-0.703125 10.484375l0 -9.171875l1.421875 0l0 9.171875l-1.421875 0zm7.8851624 3.71875q-1.171875 0 -2.03125 -0.28125q-0.859375 -0.28125 -1.671875 -1.078125l0.71875 -1.0625q0.578125 0.671875 1.28125 0.953125q0.71875 0.296875 1.703125 0.296875q1.40625 0 2.171875 -0.734375q0.78125 -0.734375 0.78125 -2.015625l0 -1.3125q-0.5 0.703125 -1.3125 1.171875q-0.796875 0.453125 -1.765625 0.453125q-1.875 0 -2.984375 -1.3125q-1.109375 -1.3125 -1.109375 -3.4375q0 -2.203125 1.125 -3.484375q1.140625 -1.28125 2.96875 -1.28125q1.890625 0 3.078125 1.609375l0 -1.375l1.421875 0l0 8.90625q0 1.9375 -1.140625 2.953125q-1.140625 1.03125 -3.234375 1.03125zm0.203125 -4.859375q0.78125 0 1.546875 -0.40625q0.78125 -0.421875 1.203125 -1.09375l0 -4.015625q-0.421875 -0.65625 -1.203125 -1.0625q-0.78125 -0.40625 -1.546875 -0.40625q-1.34375 0 -2.140625 0.96875q-0.796875 0.96875 -0.796875 2.515625q0 1.578125 0.8125 2.546875q0.828125 0.953125 2.125 0.953125zm13.02121 1.140625l0 -1.296875q-0.53125 0.609375 -1.390625 1.078125q-0.859375 0.453125 -1.890625 0.453125q-2.921875 0 -2.921875 -2.9375l0 -6.46875l1.421875 0l0 6.03125q0 1.09375 0.5 1.59375q0.5 0.5 1.5625 0.5q0.828125 0 1.5625 -0.40625q0.75 -0.421875 1.15625 -0.984375l0 -6.734375l1.421875 0l0 9.171875l-1.421875 0zm4.076477 0l0 -9.171875l1.421875 0l0 1.484375q1.28125 -1.671875 3.0625 -1.671875l0 1.453125l-0.5625 -0.0625q-0.65625 0 -1.4375 0.46875q-0.765625 0.46875 -1.0625 1.0l0 6.5l-1.421875 0zm10.29718 0.234375q-2.0625 0 -3.375 -1.34375q-1.296875 -1.359375 -1.296875 -3.484375q0 -2.03125 1.296875 -3.421875q1.296875 -1.390625 3.234375 -1.390625q1.96875 0 3.1875 1.375q1.21875 1.359375 1.21875 3.546875l0 0.359375l-7.4375 0q0.078125 1.40625 1.015625 2.296875q0.9375 0.875 2.296875 0.875q1.671875 0 2.828125 -1.15625l0.6875 0.9375q-1.40625 1.40625 -3.65625 1.40625zm2.859375 -5.40625q0 -1.265625 -0.84375 -2.15625q-0.828125 -0.90625 -2.1875 -0.90625q-1.265625 0 -2.109375 0.90625q-0.84375 0.890625 -0.890625 2.15625l6.03125 0zm10.159729 5.171875l0 -1.375q-0.515625 0.703125 -1.328125 1.15625q-0.796875 0.453125 -1.765625 0.453125q-1.84375 0 -2.96875 -1.3125q-1.125 -1.3125 -1.125 -3.5q0 -2.203125 1.125 -3.515625q1.140625 -1.3125 2.96875 -1.3125q0.921875 0 1.734375 0.4375q0.8125 0.421875 1.359375 1.171875l0 -4.875l1.421875 0l0 12.671875l-1.421875 0zm-2.765625 -1.046875q0.859375 0 1.609375 -0.40625q0.765625 -0.421875 1.15625 -1.03125l0 -4.171875q-0.390625 -0.609375 -1.15625 -1.03125q-0.75 -0.4375 -1.609375 -0.4375q-1.328125 0 -2.140625 0.96875q-0.796875 0.96875 -0.796875 2.578125q0 1.578125 0.796875 2.5625q0.796875 0.96875 2.140625 0.96875z" fill-rule="nonzero"></path></g></svg>

