<?xml version="1.0" encoding="UTF-8" standalone="no"?>
<!-- Created with Inkscape (http://www.inkscape.org/) -->

<svg
   xmlns:dc="http://purl.org/dc/elements/1.1/"
   xmlns:cc="http://creativecommons.org/ns#"
   xmlns:rdf="http://www.w3.org/1999/02/22-rdf-syntax-ns#"
   xmlns:svg="http://www.w3.org/2000/svg"
   xmlns="http://www.w3.org/2000/svg"
   xmlns:sodipodi="http://sodipodi.sourceforge.net/DTD/sodipodi-0.dtd"
   xmlns:inkscape="http://www.inkscape.org/namespaces/inkscape"
   id="svg4155"
   version="1.1"
   inkscape:version="0.91 r13725"
   xml:space="preserve"
   width="493.57422"
   height="337.27328"
   viewBox="0 0 493.57422 337.27328"
   sodipodi:docname="ipnotation.svg"><metadata
     id="metadata4161"><rdf:RDF><cc:Work
         rdf:about=""><dc:format>image/svg+xml</dc:format><dc:type
           rdf:resource="http://purl.org/dc/dcmitype/StillImage" /><dc:title></dc:title></cc:Work></rdf:RDF></metadata><defs
     id="defs4159"><clipPath
       clipPathUnits="userSpaceOnUse"
       id="clipPath4169"><path
         d="m -53.28,702.01 576,0 0,-738 -576,0 0,738 z"
         id="path4171"
         inkscape:connector-curvature="0" /></clipPath><clipPath
       clipPathUnits="userSpaceOnUse"
       id="clipPath4177"><path
         d="m -26.28,675 522,0 0,-684 -522,0 0,684 z"
         id="path4179"
         inkscape:connector-curvature="0" /></clipPath><clipPath
       clipPathUnits="userSpaceOnUse"
       id="clipPath4185"><path
         d="m 0.03,666 469.02,0 0,-665.97 -469.02,0 0,665.97 z"
         id="path4187"
         inkscape:connector-curvature="0" /></clipPath><clipPath
       clipPathUnits="userSpaceOnUse"
       id="clipPath4283"><path
         d="m 432.8,289.47 0,-102.44 -396.08,0 0,83.89 151.51,0 -0.06,5.23 0,13.32 244.63,0"
         id="path4285"
         inkscape:connector-curvature="0"
         style="clip-rule:evenodd" /></clipPath><clipPath
       clipPathUnits="userSpaceOnUse"
       id="clipPath4295"><path
         d="m -53.28,702.01 576,0 0,-738 -576,0 0,738 z"
         id="path4297"
         inkscape:connector-curvature="0" /></clipPath><clipPath
       clipPathUnits="userSpaceOnUse"
       id="clipPath4303"><path
         d="m -26.28,675 522,0 0,-684 -522,0 0,684 z"
         id="path4305"
         inkscape:connector-curvature="0" /></clipPath><clipPath
       clipPathUnits="userSpaceOnUse"
       id="clipPath4311"><path
         d="m 0.03,666 469.02,0 0,-665.97 -469.02,0 0,665.97 z"
         id="path4313"
         inkscape:connector-curvature="0" /></clipPath><clipPath
       clipPathUnits="userSpaceOnUse"
       id="clipPath4323"><path
         d="m 432.8,148.47 0,-101.64 -396.08,0 0,86.65 151.42,0.03 0.03,14.96 244.63,0"
         id="path4325"
         inkscape:connector-curvature="0"
         style="clip-rule:evenodd" /></clipPath><clipPath
       clipPathUnits="userSpaceOnUse"
       id="clipPath4335"><path
         d="m -53.28,702.01 576,0 0,-738 -576,0 0,738 z"
         id="path4337"
         inkscape:connector-curvature="0" /></clipPath><clipPath
       clipPathUnits="userSpaceOnUse"
       id="clipPath4343"><path
         d="m -26.28,675 522,0 0,-684 -522,0 0,684 z"
         id="path4345"
         inkscape:connector-curvature="0" /></clipPath><clipPath
       clipPathUnits="userSpaceOnUse"
       id="clipPath4351"><path
         d="m 0.03,666 469.02,0 0,-665.97 -469.02,0 0,665.97 z"
         id="path4353"
         inkscape:connector-curvature="0" /></clipPath><clipPath
       clipPathUnits="userSpaceOnUse"
       id="clipPath4521"><path
         d="m 0.03,666 469.02,0 0,-665.97 -469.02,0 0,665.97 z"
         id="path4523"
         inkscape:connector-curvature="0" /></clipPath></defs><sodipodi:namedview
     pagecolor="#ffffff"
     bordercolor="#666666"
     borderopacity="1"
     objecttolerance="10"
     gridtolerance="10"
     guidetolerance="10"
     inkscape:pageopacity="0"
     inkscape:pageshadow="2"
     inkscape:window-width="1366"
     inkscape:window-height="715"
     id="namedview4157"
     showgrid="false"
     fit-margin-top="0"
     fit-margin-left="0"
     fit-margin-right="0"
     fit-margin-bottom="0"
     inkscape:zoom="1"
     inkscape:cx="293.08751"
     inkscape:cy="212.63093"
     inkscape:window-x="0"
     inkscape:window-y="27"
     inkscape:window-maximized="1"
     inkscape:current-layer="g4349" /><g
     id="g4163"
     inkscape:groupmode="layer"
     inkscape:label="Dataandcomputercommunications"
     transform="matrix(1.25,0,0,-1.25,-46.075781,395.39329)"><g
       id="g4165"><g
         id="g4167"
         clip-path="url(#clipPath4169)"><g
           clip-path="url(#clipPath4185)"
           id="g4183"><g
             transform="translate(432.3,288.97)"
             id="g4275"><path
               inkscape:connector-curvature="0"
               id="path4277"
               style="fill:#e1f4fd;fill-opacity:1;fill-rule:evenodd;stroke:none"
               d="m 0,0 0,-101.44 -395.08,0 0,82.89 151.52,0 -0.07,5.73 0,12.82 L 0,0" /></g></g></g></g><g
       id="g4279"><g
         id="g4281"
         clip-path="url(#clipPath4283)"><g
           id="g4287"
           transform="translate(432.8,289.47)"><path
             d="m 0,0 0,-102.44 -396.08,0 0,83.89 151.51,0 -0.06,5.23 0,13.32 L 0,0 Z"
             style="fill:none;stroke:#00aeef;stroke-width:2;stroke-linecap:butt;stroke-linejoin:miter;stroke-miterlimit:10;stroke-dasharray:none;stroke-opacity:1"
             id="path4289"
             inkscape:connector-curvature="0" /></g></g></g><g
       id="g4291"><g
         id="g4293"
         clip-path="url(#clipPath4295)"><g
           id="g4299"><g
             id="g4301"
             clip-path="url(#clipPath4303)"><g
               id="g4307"><g
                 id="g4309"
                 clip-path="url(#clipPath4311)"><g
                   id="g4315"
                   transform="translate(432.3,147.97)"><path
                     d="m 0,0 0,-100.64 -395.08,0 0,85.65 151.42,0.03 L -243.63,0 0,0"
                     style="fill:#e1f4fd;fill-opacity:1;fill-rule:evenodd;stroke:none"
                     id="path4317"
                     inkscape:connector-curvature="0" /></g></g></g></g></g></g></g><g
       id="g4319"><g
         id="g4321"
         clip-path="url(#clipPath4323)"><g
           id="g4327"
           transform="translate(432.8,148.47)"><path
             d="m 0,0 0,-101.64 -396.08,0 0,86.65 151.42,0.03 L -244.63,0 0,0 Z"
             style="fill:none;stroke:#00aeef;stroke-width:2;stroke-linecap:butt;stroke-linejoin:miter;stroke-miterlimit:10;stroke-dasharray:none;stroke-opacity:1"
             id="path4329"
             inkscape:connector-curvature="0" /></g></g></g><g
       id="g4331"><g
         id="g4339"><g
           clip-path="url(#clipPath4343)"
           id="g4341"><g
             id="g4347"><g
               clip-path="url(#clipPath4351)"
               id="g4349"><text
                 id="text4363"
                 style="font-variant:normal;font-weight:normal;font-size:8px;font-family:'Times New Roman';-inkscape-font-specification:TimesTen-Roman;writing-mode:lr-tb;fill:#231f20;fill-opacity:1;fill-rule:nonzero;stroke:none"
                 transform="matrix(1,0,0,-1,42.72,297.07)"><tspan
                   id="tspan4365"
                   sodipodi:role="line"
                   y="0"
                   x="0 3.112 7.112 10.224 12.224 18.888 23.336 26 28.664 32.664001 37.112 39.112 43.560001 47.560001 51.112 53.335999 60 64 66.223999 68.223999 72.223999 76.671997 81.120003 83.120003 87.568001 89.792 94.239998 98.239998 101.352 105.352 107.352 110.464 114.464 118.912 122.024 126.024 129.136 133.136 137.584 140.248 144.248 146.912 149.136 153.584 158.032 161.144 163.144 167.592 170.256 172.256 175.368 180.256 182.256 186.256 190.70399 195.15199 198.26401 202.26401 205.37601 208.48801 210.48801 214.48801 218.936 223.384 225.384 228.496 232.944 237.392 241.84 245.84 248.504 250.504 257.168 261.168 264.28 268.728">(a) Dotted decimal and binary representations of IP address and subnet masks</tspan></text>
<g
                 transform="translate(188.22,270.32)"
                 id="g4367"><path
                   inkscape:connector-curvature="0"
                   id="path4369"
                   style="fill:none;stroke:#231f20;stroke-width:0.5;stroke-linecap:butt;stroke-linejoin:miter;stroke-miterlimit:10;stroke-dasharray:none;stroke-opacity:1"
                   d="M 0,0 243.5,0" /></g><text
                 id="text4371"
                 style="font-variant:normal;font-weight:bold;font-size:9px;font-family:'Times New Roman';-inkscape-font-specification:TimesTen-Bold;writing-mode:lr-tb;fill:#231f20;fill-opacity:1;fill-rule:nonzero;stroke:none"
                 transform="matrix(1,0,0,-1,194.33,277.07)"><tspan
                   id="tspan4373"
                   sodipodi:role="line"
                   y="0"
                   x="0 6.4980001 9 14.004 18.504 22.004999 26.504999 28.754999 35.757 40.257 45.261002 48.672001 53.172001 56.673 61.173 66.177002 69.174004 73.674004 76.670998 79.172997 84.185997 165.96001 173.457 178.47 181.467 184.464 188.964 193.968 196.218 203.715 208.215 212.211 214.713 222.21001 226.71001">Binary RepresentationDotted Decimal</tspan></text>
<g
                 transform="translate(37.72,252.82)"
                 id="g4375"><path
                   inkscape:connector-curvature="0"
                   id="path4377"
                   style="fill:none;stroke:#231f20;stroke-width:0.5;stroke-linecap:butt;stroke-linejoin:miter;stroke-miterlimit:10;stroke-dasharray:none;stroke-opacity:1"
                   d="M 0,0 394,0" /></g><text
                 id="text4379"
                 style="font-variant:normal;font-weight:bold;font-size:8px;font-family:'Times New Roman';-inkscape-font-specification:TimesTen-Bold;writing-mode:lr-tb;fill:#231f20;fill-opacity:1;fill-rule:nonzero;stroke:none"
                 transform="matrix(1,0,0,-1,42.72,258.07)"><tspan
                   id="tspan4381"
                   sodipodi:role="line"
                   y="0"
                   x="0 3.112 8.448 10.448 14.448 18.896 23.344 26.375999 30.375999 33.487999">IP address</tspan></text>
<text
                 id="text4383"
                 style="font-variant:normal;font-weight:normal;font-size:8px;font-family:'Times New Roman';-inkscape-font-specification:TimesTen-Roman;writing-mode:lr-tb;fill:#231f20;fill-opacity:1;fill-rule:nonzero;stroke:none"
                 transform="matrix(1,0,0,-1,194.328,258.07)"><tspan
                   id="tspan4385"
                   sodipodi:role="line"
                   y="0"
                   x="0 4 8 12 16 20 24 28 32 34 38 42 46 50 54 58 62 66 68 72 76 80 84 88 92 96 100 102 106 110 114 118 122 126 130 165.944 169.944 173.944 177.944 179.944 183.944 187.944 191.944 193.944 197.944 201.944 203.944 207.944">11000000.11100100.00010001.00111001192.228.17.57</tspan></text>
<g
                 transform="translate(37.72,239.82)"
                 id="g4387"><path
                   inkscape:connector-curvature="0"
                   id="path4389"
                   style="fill:none;stroke:#231f20;stroke-width:0.5;stroke-linecap:butt;stroke-linejoin:miter;stroke-miterlimit:10;stroke-dasharray:none;stroke-opacity:1"
                   d="M 0,0 394,0" /></g><text
                 id="text4391"
                 style="font-variant:normal;font-weight:bold;font-size:8px;font-family:'Times New Roman';-inkscape-font-specification:TimesTen-Bold;writing-mode:lr-tb;fill:#231f20;fill-opacity:1;fill-rule:nonzero;stroke:none"
                 transform="matrix(1,0,0,-1,42.72,245.07)"><tspan
                   id="tspan4393"
                   sodipodi:role="line"
                   y="0"
                   x="0 4.448 8.8959999 13.344 17.792 21.792 24.455999 26.455999 33.119999 37.119999 40.231998">Subnet mask</tspan></text>
<text
                 id="text4395"
                 style="font-variant:normal;font-weight:normal;font-size:8px;font-family:'Times New Roman';-inkscape-font-specification:TimesTen-Roman;writing-mode:lr-tb;fill:#231f20;fill-opacity:1;fill-rule:nonzero;stroke:none"
                 transform="matrix(1,0,0,-1,194.328,245.07)"><tspan
                   id="tspan4397"
                   sodipodi:role="line"
                   y="0"
                   x="0 4 8 12 16 20 24 28 32 34 38 42 46 50 54 58 62 66 68 72 76 80 84 88 92 96 100 102 106 110 114 118 122 126 130 165.944 169.944 173.944 177.944 179.944 183.944 187.944 191.944 193.944 197.944 201.944 205.944 207.944 211.944 215.944">11111111.11111111.11111111.11100000255.255.255.224</tspan></text>
<text
                 id="text4399"
                 style="font-variant:normal;font-weight:bold;font-size:8px;font-family:'Times New Roman';-inkscape-font-specification:TimesTen-Bold;writing-mode:lr-tb;fill:#231f20;fill-opacity:1;fill-rule:nonzero;stroke:none"
                 transform="matrix(1,0,0,-1,42.72,232.07)"><tspan
                   id="tspan4401"
                   sodipodi:role="line"
                   y="0"
                   x="0 5.776 8 10.664 16.440001 18.664 21.775999 25.775999 27.496 34.16 40.383999 47.048 49.048 53.504002 56.167999 58.167999 62.167999 66.615997 71.064003 74.096001 78.096001 81.208 84.32 86.32 90.32 94.767998 99.216003 101.216 107.88 111.88 114.992 119.44">Bitwise AND of address and mask </tspan></text>
<text
                 id="text4403"
                 style="font-variant:normal;font-weight:normal;font-size:8px;font-family:'Times New Roman';-inkscape-font-specification:TimesTen-Roman;writing-mode:lr-tb;fill:#231f20;fill-opacity:1;fill-rule:nonzero;stroke:none"
                 transform="matrix(1,0,0,-1,194.328,232.07)"><tspan
                   id="tspan4405"
                   sodipodi:role="line"
                   y="0"
                   x="0 4 8 12 16 20 24 28 32 34 38 42 46 50 54 58 62 66 68 72 76 80 84 88 92 96 100 102 106 110 114 118 122 126 130 165.944 169.944 173.944 177.944 179.944 183.944 187.944 191.944 193.944 197.944 201.944 203.944 207.944">11000000.11100100.00010001.00100000192.228.17.32</tspan></text>
<g
                 transform="translate(37.72,216.82)"
                 id="g4407"><path
                   inkscape:connector-curvature="0"
                   id="path4409"
                   style="fill:none;stroke:#231f20;stroke-width:0.5;stroke-linecap:butt;stroke-linejoin:miter;stroke-miterlimit:10;stroke-dasharray:none;stroke-opacity:1"
                   d="M 0,0 394,0" /></g><text
                 id="text4411"
                 style="font-variant:normal;font-weight:bold;font-size:8px;font-family:'Times New Roman';-inkscape-font-specification:TimesTen-Bold;writing-mode:lr-tb;fill:#231f20;fill-opacity:1;fill-rule:nonzero;stroke:none"
                 transform="matrix(1,0,0,-1,42.72,222.07)"><tspan
                   id="tspan4413"
                   sodipodi:role="line"
                   y="0"
                   x="0 3.112 6.1440001 10.144 13.256 17.704 19.927999 22.591999 26.591999 31.040001 33.703999 35.703999 40.152 44.152 46.816002 52.431999 56.888 60 64.447998 66.671997 69.783997 74.232002 78.68 83.127998 87.127998 89.792 91.792 96.239998 100.688 107.352 111.8 115.8 118.912">(resultant network/subnet number)</tspan></text>
<g
                 transform="translate(37.72,203.82)"
                 id="g4415"><path
                   inkscape:connector-curvature="0"
                   id="path4417"
                   style="fill:none;stroke:#231f20;stroke-width:0.5;stroke-linecap:butt;stroke-linejoin:miter;stroke-miterlimit:10;stroke-dasharray:none;stroke-opacity:1"
                   d="M 0,0 394,0" /></g><text
                 id="text4419"
                 style="font-variant:normal;font-weight:bold;font-size:8px;font-family:'Times New Roman';-inkscape-font-specification:TimesTen-Bold;writing-mode:lr-tb;fill:#231f20;fill-opacity:1;fill-rule:nonzero;stroke:none"
                 transform="matrix(1,0,0,-1,42.72,209.07)"><tspan
                   id="tspan4421"
                   sodipodi:role="line"
                   y="0"
                   x="0 4.448 8.8959999 13.344 17.792 21.792 24.455999 26.455999 30.903999 35.352001 42.015999 46.464001 50.464001">Subnet number</tspan></text>
<text
                 id="text4423"
                 style="font-variant:normal;font-weight:normal;font-size:8px;font-family:'Times New Roman';-inkscape-font-specification:TimesTen-Roman;writing-mode:lr-tb;fill:#231f20;fill-opacity:1;fill-rule:nonzero;stroke:none"
                 transform="matrix(1,0,0,-1,194.328,209.07)"><tspan
                   id="tspan4425"
                   sodipodi:role="line"
                   y="0"
                   x="0 4 8 12 16 20 24 28 32 34 38 42 46 50 54 58 62 66 68 72 76 80 84 88 92 96 100 102 106 110 165.944">11000000.11100100.00010001.0011</tspan></text>
<text
                 id="text4427"
                 style="font-variant:normal;font-weight:bold;font-size:8px;font-family:'Times New Roman';-inkscape-font-specification:TimesTen-Bold;writing-mode:lr-tb;fill:#231f20;fill-opacity:1;fill-rule:nonzero;stroke:none"
                 transform="matrix(1,0,0,-1,42.72,196.07)"><tspan
                   id="tspan4429"
                   sodipodi:role="line"
                   y="0"
                   x="0 6.6719999 11.128 14.24 16.903999 18.903999 23.351999 27.799999 34.464001 38.911999 42.911999">Host number</tspan></text>
<text
                 id="text4431"
                 style="font-variant:normal;font-weight:normal;font-size:8px;font-family:'Times New Roman';-inkscape-font-specification:TimesTen-Roman;writing-mode:lr-tb;fill:#231f20;fill-opacity:1;fill-rule:nonzero;stroke:none"
                 transform="matrix(1,0,0,-1,194.328,196.07)"><tspan
                   id="tspan4433"
                   sodipodi:role="line"
                   y="0"
                   x="0 4 8 12 16 20 24 28 32 34 38 42 46 50 54 58 62 66 68 72 76 80 84 88 92 96 100 102 106 110 114 118 122 126 130 165.944 169.944">00000000.00000000.00000000.0001100125</tspan><tspan
                   id="tspan4435"
                   sodipodi:role="line"
                   y="28"
                   x="-3.4960001 -0.384 4.0640001 7.1760001 9.1759996 15.84 19.84 22.504 26.504 30.952 33.175999 35.84 37.84 40.952 45.400002 49.848 54.296001 58.296001 60.959999 62.959999 69.624001 73.624001 76.736 81.183998">(b) Default subnet masks</tspan></text>
<g
                 transform="translate(188.22,132.32)"
                 id="g4437"><path
                   inkscape:connector-curvature="0"
                   id="path4439"
                   style="fill:none;stroke:#231f20;stroke-width:0.5;stroke-linecap:butt;stroke-linejoin:miter;stroke-miterlimit:10;stroke-dasharray:none;stroke-opacity:1"
                   d="M 0,0 243.5,0" /></g><text
                 id="text4441"
                 style="font-variant:normal;font-weight:bold;font-size:9px;font-family:'Times New Roman';-inkscape-font-specification:TimesTen-Bold;writing-mode:lr-tb;fill:#231f20;fill-opacity:1;fill-rule:nonzero;stroke:none"
                 transform="matrix(1,0,0,-1,194.33,139.07)"><tspan
                   id="tspan4443"
                   sodipodi:role="line"
                   y="0"
                   x="0 6.4980001 9 14.004 18.504 22.004999 26.504999 28.754999 35.757 40.257 45.261002 48.672001 53.172001 56.673 61.173 66.177002 69.174004 73.674004 76.670998 79.172997 84.185997 165.96001 173.457 178.47 181.467 184.464 188.964 193.968 196.218 203.715 208.215 212.211 214.713 222.21001 226.71001">Binary RepresentationDotted Decimal</tspan></text>
<g
                 transform="translate(37.72,114.82)"
                 id="g4445"><path
                   inkscape:connector-curvature="0"
                   id="path4447"
                   style="fill:none;stroke:#231f20;stroke-width:0.5;stroke-linecap:butt;stroke-linejoin:miter;stroke-miterlimit:10;stroke-dasharray:none;stroke-opacity:1"
                   d="M 0,0 394,0" /></g><text
                 id="text4449"
                 style="font-variant:normal;font-weight:bold;font-size:8px;font-family:'Times New Roman';-inkscape-font-specification:TimesTen-Bold;writing-mode:lr-tb;fill:#231f20;fill-opacity:1;fill-rule:nonzero;stroke:none"
                 transform="matrix(1,0,0,-1,42.72,120.07)"><tspan
                   id="tspan4451"
                   sodipodi:role="line"
                   y="0"
                   x="0 5.776 8 12 15.112 18.224001 19.944 26.608 28.608 33.056 37.056 39.720001 43.720001 48.167999 50.391998 53.056 55.056 61.720001 65.720001 68.832001">Class A default mask</tspan></text>
<text
                 id="text4453"
                 style="font-variant:normal;font-weight:normal;font-size:8px;font-family:'Times New Roman';-inkscape-font-specification:TimesTen-Roman;writing-mode:lr-tb;fill:#231f20;fill-opacity:1;fill-rule:nonzero;stroke:none"
                 transform="matrix(1,0,0,-1,194.328,120.07)"><tspan
                   id="tspan4455"
                   sodipodi:role="line"
                   y="0"
                   x="0 4 8 12 16 20 24 28 32 34 38 42 46 50 54 58 62 66 68 72 76 80 84 88 92 96 100 102 106 110 114 118 122 126 130 165.944 169.944 173.944 177.944 179.944 183.944 185.944 189.944 191.944">11111111.00000000.00000000.00000000255.0.0.0</tspan></text>
<g
                 transform="translate(37.72,101.82)"
                 id="g4457"><path
                   inkscape:connector-curvature="0"
                   id="path4459"
                   style="fill:none;stroke:#231f20;stroke-width:0.5;stroke-linecap:butt;stroke-linejoin:miter;stroke-miterlimit:10;stroke-dasharray:none;stroke-opacity:1"
                   d="M 0,0 394,0" /></g><text
                 id="text4461"
                 style="font-variant:normal;font-weight:bold;font-size:8px;font-family:'Times New Roman';-inkscape-font-specification:TimesTen-Bold;writing-mode:lr-tb;fill:#231f20;fill-opacity:1;fill-rule:nonzero;stroke:none"
                 transform="matrix(1,0,0,-1,42.72,107.07)"><tspan
                   id="tspan4463"
                   sodipodi:role="line"
                   y="0"
                   x="0 5.776 9.776 13.776 20.440001 24.888 27.112 31.112 33.112 38.888 41.112 45.112 48.223999 51.335999 53.056 59.720001 61.720001 68.384003 72.384003 75.496002">Example Class A mask</tspan></text>
<text
                 id="text4465"
                 style="font-variant:normal;font-weight:normal;font-size:8px;font-family:'Times New Roman';-inkscape-font-specification:TimesTen-Roman;writing-mode:lr-tb;fill:#231f20;fill-opacity:1;fill-rule:nonzero;stroke:none"
                 transform="matrix(1,0,0,-1,194.328,107.07)"><tspan
                   id="tspan4467"
                   sodipodi:role="line"
                   y="0"
                   x="0 4 8 12 16 20 24 28 32 34 38 42 46 50 54 58 62 66 68 72 76 80 84 88 92 96 100 102 106 110 114 118 122 126 130 165.944 169.944 173.944 177.944 179.944 183.944 187.944 191.944 193.944 197.944 199.944">11111111.11000000.00000000.00000000255.192.0.0</tspan></text>
<g
                 transform="translate(37.72,88.82)"
                 id="g4469"><path
                   inkscape:connector-curvature="0"
                   id="path4471"
                   style="fill:none;stroke:#231f20;stroke-width:0.5;stroke-linecap:butt;stroke-linejoin:miter;stroke-miterlimit:10;stroke-dasharray:none;stroke-opacity:1"
                   d="M 0,0 394,0" /></g><text
                 id="text4473"
                 style="font-variant:normal;font-weight:bold;font-size:8px;font-family:'Times New Roman';-inkscape-font-specification:TimesTen-Bold;writing-mode:lr-tb;fill:#231f20;fill-opacity:1;fill-rule:nonzero;stroke:none"
                 transform="matrix(1,0,0,-1,42.72,94.07)"><tspan
                   id="tspan4475"
                   sodipodi:role="line"
                   y="0"
                   x="0 5.776 8 12 15.112 18.224001 20.224001 26 28 32.448002 36.448002 39.112 43.112 47.560001 49.784 52.448002 54.448002 61.112 65.112 68.223999">Class B default mask</tspan></text>
<text
                 id="text4477"
                 style="font-variant:normal;font-weight:normal;font-size:8px;font-family:'Times New Roman';-inkscape-font-specification:TimesTen-Roman;writing-mode:lr-tb;fill:#231f20;fill-opacity:1;fill-rule:nonzero;stroke:none"
                 transform="matrix(1,0,0,-1,194.328,94.07)"><tspan
                   id="tspan4479"
                   sodipodi:role="line"
                   y="0"
                   x="0 4 8 12 16 20 24 28 32 34 38 42 46 50 54 58 62 66 68 72 76 80 84 88 92 96 100 102 106 110 114 118 122 126 130 165.944 169.944 173.944 177.944 179.944 183.944 187.944 191.944 193.944 197.944 199.944">11111111.11111111.00000000.00000000255.255.0.0</tspan></text>
<g
                 transform="translate(37.72,75.82)"
                 id="g4481"><path
                   inkscape:connector-curvature="0"
                   id="path4483"
                   style="fill:none;stroke:#231f20;stroke-width:0.5;stroke-linecap:butt;stroke-linejoin:miter;stroke-miterlimit:10;stroke-dasharray:none;stroke-opacity:1"
                   d="M 0,0 394,0" /></g><text
                 id="text4485"
                 style="font-variant:normal;font-weight:bold;font-size:8px;font-family:'Times New Roman';-inkscape-font-specification:TimesTen-Bold;writing-mode:lr-tb;fill:#231f20;fill-opacity:1;fill-rule:nonzero;stroke:none"
                 transform="matrix(1,0,0,-1,42.72,81.07)"><tspan
                   id="tspan4487"
                   sodipodi:role="line"
                   y="0"
                   x="0 5.776 9.776 13.776 20.440001 24.888 27.112 31.112 33.112 38.888 41.112 45.112 48.223999 51.335999 53.335999 59.112 61.112 67.776001 71.776001 74.888">Example Class B mask</tspan></text>
<text
                 id="text4489"
                 style="font-variant:normal;font-weight:normal;font-size:8px;font-family:'Times New Roman';-inkscape-font-specification:TimesTen-Roman;writing-mode:lr-tb;fill:#231f20;fill-opacity:1;fill-rule:nonzero;stroke:none"
                 transform="matrix(1,0,0,-1,194.328,81.07)"><tspan
                   id="tspan4491"
                   sodipodi:role="line"
                   y="0"
                   x="0 4 8 12 16 20 24 28 32 34 38 42 46 50 54 58 62 66 68 72 76 80 84 88 92 96 100 102 106 110 114 118 122 126 130 165.944 169.944 173.944 177.944 179.944 183.944 187.944 191.944 193.944 197.944 201.944 205.944 207.944">11111111.11111111.11111000.00000000255.255.248.0</tspan></text>
<g
                 transform="translate(37.72,62.82)"
                 id="g4493"><path
                   inkscape:connector-curvature="0"
                   id="path4495"
                   style="fill:none;stroke:#231f20;stroke-width:0.5;stroke-linecap:butt;stroke-linejoin:miter;stroke-miterlimit:10;stroke-dasharray:none;stroke-opacity:1"
                   d="M 0,0 394,0" /></g><text
                 id="text4497"
                 style="font-variant:normal;font-weight:bold;font-size:8px;font-family:'Times New Roman';-inkscape-font-specification:TimesTen-Bold;writing-mode:lr-tb;fill:#231f20;fill-opacity:1;fill-rule:nonzero;stroke:none"
                 transform="matrix(1,0,0,-1,42.72,68.07)"><tspan
                   id="tspan4499"
                   sodipodi:role="line"
                   y="0"
                   x="0 5.776 8 12 15.112 18.224001 20.224001 26 28 32.448002 36.448002 39.112 43.112 47.560001 49.784 52.448002 54.448002 61.112 65.112 68.223999">Class C default mask</tspan></text>
<text
                 id="text4501"
                 style="font-variant:normal;font-weight:normal;font-size:8px;font-family:'Times New Roman';-inkscape-font-specification:TimesTen-Roman;writing-mode:lr-tb;fill:#231f20;fill-opacity:1;fill-rule:nonzero;stroke:none"
                 transform="matrix(1,0,0,-1,194.328,68.07)"><tspan
                   id="tspan4503"
                   sodipodi:role="line"
                   y="0"
                   x="0 4 8 12 16 20 24 28 32 34 38 42 46 50 54 58 62 66 68 72 76 80 84 88 92 96 100 102 106 110 114 118 122 126 130 165.944 169.944 173.944 177.944 181.504 185.504 189.504 193.504 197.064 201.064 205.064 209.064 211.064">11111111.11111111.11111111.00000000255.255.255.0</tspan></text>
<text
                 id="text4505"
                 style="font-variant:normal;font-weight:bold;font-size:8px;font-family:'Times New Roman';-inkscape-font-specification:TimesTen-Bold;writing-mode:lr-tb;fill:#231f20;fill-opacity:1;fill-rule:nonzero;stroke:none"
                 transform="matrix(1,0,0,-1,42.72,55.07)"><tspan
                   id="tspan4507"
                   sodipodi:role="line"
                   y="0"
                   x="0 5.776 9.776 13.776 20.440001 24.888 27.112 31.112 33.112 38.888 41.112 45.112 48.223999 51.335999 53.335999 59.112 61.112 67.776001 71.776001 74.888">Example Class C mask</tspan></text>
<text
                 id="text4509"
                 style="font-variant:normal;font-weight:normal;font-size:8px;font-family:'Times New Roman';-inkscape-font-specification:TimesTen-Roman;writing-mode:lr-tb;fill:#231f20;fill-opacity:1;fill-rule:nonzero;stroke:none"
                 transform="matrix(1,0,0,-1,194.328,55.07)"><tspan
                   id="tspan4511"
                   sodipodi:role="line"
                   y="0"
                   x="0 4 8 12 16 20 24 28 32 34 38 42 46 50 54 58 62 66 68 72 76 80 84 88 92 96 100 102 106 110 114 118 122 126 130 165.944 169.944 173.944 177.944 181.504 185.504 189.504 193.504 197.064 201.064 205.064 209.064 211.064 215.064 219.064">11111111.11111111.11111111.11111100255.255.255.252</tspan></text>
<g
                 transform="translate(188.17,270.92)"
                 id="g4513"><path
                   inkscape:connector-curvature="0"
                   id="path4515"
                   style="fill:none;stroke:#231f20;stroke-width:0.5;stroke-linecap:butt;stroke-linejoin:miter;stroke-miterlimit:10;stroke-dasharray:none;stroke-opacity:1"
                   d="m 0,0 0,-83.65 m 166.12,102.9 0,-102.62 M 0,-138.22 0,-222.851 m 166.11,100.101 0,-101.674" /></g></g></g></g></g></g><g
       id="g4517"><g
         id="g4519"
         clip-path="url(#clipPath4521)"><g
           id="g4525"
           transform="translate(-17.28,702)"><path
             d="m 0,0 0,-24 m -36,-12 24,0 m 516,36 0,-24 m 36,-12 -24,0 M 0,-738 l 0,24 m -36,12 24,0 m 516,-36 0,24 m 36,12 -24,0"
             style="fill:none;stroke:#ffffff;stroke-width:0.5;stroke-linecap:butt;stroke-linejoin:miter;stroke-miterlimit:10;stroke-dasharray:none;stroke-opacity:1"
             id="path4527"
             inkscape:connector-curvature="0" /></g><g
           id="g4529"
           transform="translate(-17.28,702)"><path
             d="m 0,0 0,-24 m -36,-12 24,0 m 516,36 0,-24 m 36,-12 -24,0 M 0,-738 l 0,24 m -36,12 24,0 m 516,-36 0,24 m 36,12 -24,0"
             style="fill:none;stroke:#000000;stroke-width:0.25;stroke-linecap:butt;stroke-linejoin:miter;stroke-miterlimit:10;stroke-dasharray:none;stroke-opacity:1"
             id="path4531"
             inkscape:connector-curvature="0" /></g><g
           id="g4533"
           transform="translate(210.72,690)"><path
             d="m 0,0 48,0 m -48,-714 48,0 m -300,381 0,-48 m 552,48 0,-48 M 24,12 24,-12 m 0,-690 0,-24 m -288,369 24,0 m 528,0 24,0 M 24,0 30,0 c 0,-3.31 -2.69,-6 -6,-6 -3.31,0 -6,2.69 -6,6 0,3.31 2.69,6 6,6 3.31,0 6,-2.69 6,-6 m -6,-714 6,0 c 0,-3.312 -2.69,-6 -6,-6 -3.31,0 -6,2.688 -6,6 0,3.312 2.69,6 6,6 3.31,0 6,-2.688 6,-6 m -282,357 6,0 c 0,-3.31 -2.688,-6 -6,-6 -3.312,0 -6,2.69 -6,6 0,3.31 2.688,6 6,6 3.312,0 6,-2.69 6,-6 m 546,0 6,0 c 0,-3.31 -2.69,-6 -6,-6 -3.31,0 -6,2.69 -6,6 0,3.31 2.69,6 6,6 3.31,0 6,-2.69 6,-6"
             style="fill:none;stroke:#ffffff;stroke-width:0.5;stroke-linecap:butt;stroke-linejoin:miter;stroke-miterlimit:10;stroke-dasharray:none;stroke-opacity:1"
             id="path4535"
             inkscape:connector-curvature="0" /></g><g
           id="g4537"
           transform="translate(210.72,690)"><path
             d="m 0,0 48,0 m -48,-714 48,0 m -300,381 0,-48 m 552,48 0,-48 M 24,12 24,-12 m 0,-690 0,-24 m -288,369 24,0 m 528,0 24,0 M 24,0 30,0 c 0,-3.31 -2.69,-6 -6,-6 -3.31,0 -6,2.69 -6,6 0,3.31 2.69,6 6,6 3.31,0 6,-2.69 6,-6 m -6,-714 6,0 c 0,-3.312 -2.69,-6 -6,-6 -3.31,0 -6,2.688 -6,6 0,3.312 2.69,6 6,6 3.31,0 6,-2.688 6,-6 m -282,357 6,0 c 0,-3.31 -2.688,-6 -6,-6 -3.312,0 -6,2.69 -6,6 0,3.31 2.688,6 6,6 3.312,0 6,-2.69 6,-6 m 546,0 6,0 c 0,-3.31 -2.69,-6 -6,-6 -3.31,0 -6,2.69 -6,6 0,3.31 2.69,6 6,6 3.31,0 6,-2.69 6,-6"
             style="fill:none;stroke:#000000;stroke-width:0.25;stroke-linecap:butt;stroke-linejoin:miter;stroke-miterlimit:10;stroke-dasharray:none;stroke-opacity:1"
             id="path4539"
             inkscape:connector-curvature="0" /></g></g></g></g></svg>