<?xml version="1.0" standalone="yes"?>

<svg version="1.1" viewBox="0.0 0.0 845.6246719160105 118.93438320209974" fill="none" stroke="none" stroke-linecap="square" stroke-miterlimit="10" xmlns="http://www.w3.org/2000/svg" xmlns:xlink="http://www.w3.org/1999/xlink"><clipPath id="p.0"><path d="m0 0l845.6247 0l0 118.93438l-845.6247 0l0 -118.93438z" clip-rule="nonzero"></path></clipPath><g clip-path="url(#p.0)"><path fill="#000000" fill-opacity="0.0" d="m0 0l845.6247 0l0 118.93438l-845.6247 0z" fill-rule="evenodd"></path><path fill="#000000" fill-opacity="0.0" d="m6.6115484 64.514435l416.8819 0l0 60.598427l-416.8819 0z" fill-rule="evenodd"></path><path fill="#000000" d="m16.8928 90.91381q0 -1.5 0.40625 -2.65625q0.40625 -1.171875 1.15625 -1.96875q0.765625 -0.8125 1.828125 -1.21875q1.0625 -0.421875 2.359375 -0.421875q0.5625 0 1.109375 0.078125q0.546875 0.0625 1.078125 0.21875l0 -4.953125l2.046875 0l0 16.5625l-1.828125 0l-0.078125 -2.234375q-0.84375 1.25 -1.84375 1.859375q-1.0 0.59375 -2.15625 0.59375q-1.015625 0 -1.78125 -0.421875q-0.765625 -0.4375 -1.28125 -1.203125q-0.5 -0.765625 -0.765625 -1.84375q-0.25 -1.078125 -0.25 -2.390625zm2.078125 -0.125q0 2.125 0.625 3.1875q0.640625 1.046875 1.78125 1.046875q0.78125 0 1.640625 -0.6875q0.859375 -0.703125 1.8125 -2.0625l0 -5.453125q-0.515625 -0.234375 -1.125 -0.359375q-0.609375 -0.125 -1.203125 -0.125q-1.65625 0 -2.59375 1.078125q-0.9375 1.078125 -0.9375 3.375zm22.414062 2.375l-2.609375 0l0 3.390625l-2.09375 0l0 -3.390625l-7.375 0l0 -1.796875l6.53125 -10.125l2.9375 0l0 10.125l2.609375 0l0 1.796875zm-4.703125 -9.953125l-5.328125 8.15625l5.328125 0l0 -8.15625zm30.6875 5.6875q0 1.765625 -0.359375 3.21875q-0.34375 1.4375 -1.0625 2.484375q-0.71875 1.03125 -1.78125 1.609375q-1.0625 0.5625 -2.484375 0.5625q-1.234375 0 -2.25 -0.46875q-1.0 -0.46875 -1.71875 -1.421875q-0.703125 -0.96875 -1.09375 -2.453125q-0.390625 -1.484375 -0.390625 -3.53125q0 -1.75 0.359375 -3.203125q0.359375 -1.453125 1.0625 -2.484375q0.71875 -1.046875 1.78125 -1.609375q1.0625 -0.578125 2.484375 -0.578125q1.234375 0 2.234375 0.46875q1.015625 0.453125 1.71875 1.421875q0.71875 0.96875 1.109375 2.46875q0.390625 1.484375 0.390625 3.515625zm-2.0625 0.078125q0 -0.40625 -0.03125 -0.796875q-0.03125 -0.390625 -0.0625 -0.765625l-6.484375 4.8125q0.171875 0.609375 0.4375 1.125q0.28125 0.515625 0.65625 0.890625q0.375 0.359375 0.859375 0.578125q0.5 0.203125 1.109375 0.203125q0.796875 0 1.453125 -0.390625q0.65625 -0.390625 1.109375 -1.140625q0.453125 -0.765625 0.703125 -1.890625q0.25 -1.140625 0.25 -2.625zm-7.015625 -0.140625q0 0.359375 0 0.71875q0.015625 0.359375 0.046875 0.703125l6.484375 -4.796875q-0.171875 -0.59375 -0.453125 -1.078125q-0.265625 -0.5 -0.640625 -0.859375q-0.375 -0.359375 -0.859375 -0.546875q-0.46875 -0.203125 -1.078125 -0.203125q-0.796875 0 -1.453125 0.390625q-0.640625 0.375 -1.09375 1.15625q-0.453125 0.765625 -0.703125 1.890625q-0.25 1.125 -0.25 2.625zm22.273438 0.0625q0 1.765625 -0.359375 3.21875q-0.34375 1.4375 -1.0625 2.484375q-0.71875 1.03125 -1.78125 1.609375q-1.0625 0.5625 -2.484375 0.5625q-1.234375 0 -2.25 -0.46875q-1.0 -0.46875 -1.71875 -1.421875q-0.703125 -0.96875 -1.09375 -2.453125q-0.390625 -1.484375 -0.390625 -3.53125q0 -1.75 0.359375 -3.203125q0.359375 -1.453125 1.0625 -2.484375q0.71875 -1.046875 1.78125 -1.609375q1.0625 -0.578125 2.484375 -0.578125q1.234375 0 2.234375 0.46875q1.015625 0.453125 1.71875 1.421875q0.71875 0.96875 1.109375 2.46875q0.390625 1.484375 0.390625 3.515625zm-2.0625 0.078125q0 -0.40625 -0.03125 -0.796875q-0.03125 -0.390625 -0.0625 -0.765625l-6.484375 4.8125q0.171875 0.609375 0.4375 1.125q0.28125 0.515625 0.65625 0.890625q0.375 0.359375 0.859375 0.578125q0.5 0.203125 1.109375 0.203125q0.796875 0 1.453125 -0.390625q0.65625 -0.390625 1.109375 -1.140625q0.453125 -0.765625 0.703125 -1.890625q0.25 -1.140625 0.25 -2.625zm-7.015625 -0.140625q0 0.359375 0 0.71875q0.015625 0.359375 0.046875 0.703125l6.484375 -4.796875q-0.171875 -0.59375 -0.453125 -1.078125q-0.265625 -0.5 -0.640625 -0.859375q-0.375 -0.359375 -0.859375 -0.546875q-0.46875 -0.203125 -1.078125 -0.203125q-0.796875 0 -1.453125 0.390625q-0.640625 0.375 -1.09375 1.15625q-0.453125 0.765625 -0.703125 1.890625q-0.25 1.125 -0.25 2.625zm35.46875 0.0625q0 1.765625 -0.359375 3.21875q-0.34375 1.4375 -1.0625 2.484375q-0.71875 1.03125 -1.78125 1.609375q-1.0625 0.5625 -2.484375 0.5625q-1.234375 0 -2.25 -0.46875q-1.0 -0.46875 -1.71875 -1.421875q-0.703125 -0.96875 -1.09375 -2.453125q-0.390625 -1.484375 -0.390625 -3.53125q0 -1.75 0.359375 -3.203125q0.359375 -1.453125 1.0625 -2.484375q0.71875 -1.046875 1.78125 -1.609375q1.0625 -0.578125 2.484375 -0.578125q1.234375 0 2.234375 0.46875q1.015625 0.453125 1.71875 1.421875q0.71875 0.96875 1.109375 2.46875q0.390625 1.484375 0.390625 3.515625zm-2.0625 0.078125q0 -0.40625 -0.03125 -0.796875q-0.03125 -0.390625 -0.0625 -0.765625l-6.484375 4.8125q0.171875 0.609375 0.4375 1.125q0.28125 0.515625 0.65625 0.890625q0.375 0.359375 0.859375 0.578125q0.5 0.203125 1.109375 0.203125q0.796875 0 1.453125 -0.390625q0.65625 -0.390625 1.109375 -1.140625q0.453125 -0.765625 0.703125 -1.890625q0.25 -1.140625 0.25 -2.625zm-7.015625 -0.140625q0 0.359375 0 0.71875q0.015625 0.359375 0.046875 0.703125l6.484375 -4.796875q-0.171875 -0.59375 -0.453125 -1.078125q-0.265625 -0.5 -0.640625 -0.859375q-0.375 -0.359375 -0.859375 -0.546875q-0.46875 -0.203125 -1.078125 -0.203125q-0.796875 0 -1.453125 0.390625q-0.640625 0.375 -1.09375 1.15625q-0.453125 0.765625 -0.703125 1.890625q-0.25 1.125 -0.25 2.625zm22.273438 0.0625q0 1.765625 -0.359375 3.21875q-0.34375 1.4375 -1.0625 2.484375q-0.71875 1.03125 -1.78125 1.609375q-1.0625 0.5625 -2.484375 0.5625q-1.234375 0 -2.25 -0.46875q-1.0 -0.46875 -1.71875 -1.421875q-0.703125 -0.96875 -1.09375 -2.453125q-0.390625 -1.484375 -0.390625 -3.53125q0 -1.75 0.359375 -3.203125q0.359375 -1.453125 1.0625 -2.484375q0.71875 -1.046875 1.78125 -1.609375q1.0625 -0.578125 2.484375 -0.578125q1.234375 0 2.234375 0.46875q1.015625 0.453125 1.71875 1.421875q0.71875 0.96875 1.109375 2.46875q0.390625 1.484375 0.390625 3.515625zm-2.0625 0.078125q0 -0.40625 -0.03125 -0.796875q-0.03125 -0.390625 -0.0625 -0.765625l-6.484375 4.8125q0.171875 0.609375 0.4375 1.125q0.28125 0.515625 0.65625 0.890625q0.375 0.359375 0.859375 0.578125q0.5 0.203125 1.109375 0.203125q0.796875 0 1.453125 -0.390625q0.65625 -0.390625 1.109375 -1.140625q0.453125 -0.765625 0.703125 -1.890625q0.25 -1.140625 0.25 -2.625zm-7.015625 -0.140625q0 0.359375 0 0.71875q0.015625 0.359375 0.046875 0.703125l6.484375 -4.796875q-0.171875 -0.59375 -0.453125 -1.078125q-0.265625 -0.5 -0.640625 -0.859375q-0.375 -0.359375 -0.859375 -0.546875q-0.46875 -0.203125 -1.078125 -0.203125q-0.796875 0 -1.453125 0.390625q-0.640625 0.375 -1.09375 1.15625q-0.453125 0.765625 -0.703125 1.890625q-0.25 1.125 -0.25 2.625zm35.468742 0.0625q0 1.765625 -0.359375 3.21875q-0.34375 1.4375 -1.0625 2.484375q-0.71875 1.03125 -1.78125 1.609375q-1.0625 0.5625 -2.484375 0.5625q-1.234375 0 -2.25 -0.46875q-1.0 -0.46875 -1.71875 -1.421875q-0.703125 -0.96875 -1.09375 -2.453125q-0.390625 -1.484375 -0.390625 -3.53125q0 -1.75 0.359375 -3.203125q0.359375 -1.453125 1.0625 -2.484375q0.71875 -1.046875 1.78125 -1.609375q1.0625 -0.578125 2.484375 -0.578125q1.234375 0 2.234375 0.46875q1.015625 0.453125 1.71875 1.421875q0.71875 0.96875 1.109375 2.46875q0.390625 1.484375 0.390625 3.515625zm-2.0625 0.078125q0 -0.40625 -0.03125 -0.796875q-0.03125 -0.390625 -0.0625 -0.765625l-6.484375 4.8125q0.171875 0.609375 0.4375 1.125q0.28125 0.515625 0.65625 0.890625q0.375 0.359375 0.859375 0.578125q0.5 0.203125 1.109375 0.203125q0.796875 0 1.453125 -0.390625q0.65625 -0.390625 1.109375 -1.140625q0.453125 -0.765625 0.703125 -1.890625q0.25 -1.140625 0.25 -2.625zm-7.015625 -0.140625q0 0.359375 0 0.71875q0.015625 0.359375 0.046875 0.703125l6.484375 -4.796875q-0.171875 -0.59375 -0.453125 -1.078125q-0.265625 -0.5 -0.640625 -0.859375q-0.375 -0.359375 -0.859375 -0.546875q-0.46875 -0.203125 -1.078125 -0.203125q-0.796875 0 -1.453125 0.390625q-0.640625 0.375 -1.09375 1.15625q-0.453125 0.765625 -0.703125 1.890625q-0.25 1.125 -0.25 2.625zm22.273438 0.0625q0 1.765625 -0.359375 3.21875q-0.34375 1.4375 -1.0625 2.484375q-0.71875 1.03125 -1.78125 1.609375q-1.0625 0.5625 -2.484375 0.5625q-1.234375 0 -2.25 -0.46875q-1.0 -0.46875 -1.71875 -1.421875q-0.703125 -0.96875 -1.09375 -2.453125q-0.390625 -1.484375 -0.390625 -3.53125q0 -1.75 0.359375 -3.203125q0.359375 -1.453125 1.0625 -2.484375q0.71875 -1.046875 1.78125 -1.609375q1.0625 -0.578125 2.484375 -0.578125q1.234375 0 2.234375 0.46875q1.015625 0.453125 1.71875 1.421875q0.71875 0.96875 1.109375 2.46875q0.390625 1.484375 0.390625 3.515625zm-2.0625 0.078125q0 -0.40625 -0.03125 -0.796875q-0.03125 -0.390625 -0.0625 -0.765625l-6.484375 4.8125q0.171875 0.609375 0.4375 1.125q0.28125 0.515625 0.65625 0.890625q0.375 0.359375 0.859375 0.578125q0.5 0.203125 1.109375 0.203125q0.796875 0 1.453125 -0.390625q0.65625 -0.390625 1.109375 -1.140625q0.453125 -0.765625 0.703125 -1.890625q0.25 -1.140625 0.25 -2.625zm-7.015625 -0.140625q0 0.359375 0 0.71875q0.015625 0.359375 0.046875 0.703125l6.484375 -4.796875q-0.171875 -0.59375 -0.453125 -1.078125q-0.265625 -0.5 -0.640625 -0.859375q-0.375 -0.359375 -0.859375 -0.546875q-0.46875 -0.203125 -1.078125 -0.203125q-0.796875 0 -1.453125 0.390625q-0.640625 0.375 -1.09375 1.15625q-0.453125 0.765625 -0.703125 1.890625q-0.25 1.125 -0.25 2.625zm35.109375 1.21875q0 0.421875 -0.015625 0.71875q0 0.296875 -0.03125 0.546875l-8.265625 0q0 1.8125 1.0 2.78125q1.015625 0.96875 2.921875 0.96875q0.515625 0 1.03125 -0.046875q0.515625 -0.046875 0.984375 -0.109375q0.484375 -0.078125 0.921875 -0.15625q0.453125 -0.09375 0.828125 -0.203125l0 1.6875q-0.84375 0.234375 -1.890625 0.375q-1.046875 0.15625 -2.171875 0.15625q-1.515625 0 -2.609375 -0.40625q-1.078125 -0.421875 -1.78125 -1.203125q-0.6875 -0.78125 -1.03125 -1.90625q-0.328125 -1.140625 -0.328125 -2.5625q0 -1.25 0.359375 -2.34375q0.359375 -1.109375 1.03125 -1.953125q0.6875 -0.84375 1.6875 -1.328125q1.0 -0.5 2.265625 -0.5q1.234375 0 2.171875 0.390625q0.953125 0.390625 1.59375 1.109375q0.65625 0.703125 0.984375 1.71875q0.34375 1.0 0.34375 2.265625zm-2.125 -0.296875q0.046875 -0.78125 -0.140625 -1.4375q-0.1875 -0.65625 -0.59375 -1.125q-0.390625 -0.46875 -0.984375 -0.71875q-0.578125 -0.265625 -1.34375 -0.265625q-0.671875 0 -1.21875 0.265625q-0.546875 0.25 -0.953125 0.71875q-0.390625 0.46875 -0.640625 1.125q-0.25 0.65625 -0.3125 1.4375l6.1875 0zm16.085938 3.40625l-2.609375 0l0 3.390625l-2.09375 0l0 -3.390625l-7.375 0l0 -1.796875l6.53125 -10.125l2.9375 0l0 10.125l2.609375 0l0 1.796875zm-4.703125 -9.953125l-5.328125 8.15625l5.328125 0l0 -8.15625zm29.53125 12.90625q-0.796875 0.3125 -1.640625 0.453125q-0.828125 0.15625 -1.71875 0.15625q-2.796875 0 -4.296875 -1.515625q-1.5 -1.515625 -1.5 -4.421875q0 -1.390625 0.421875 -2.53125q0.4375 -1.140625 1.21875 -1.9375q0.796875 -0.8125 1.875 -1.25q1.09375 -0.453125 2.40625 -0.453125q0.921875 0 1.71875 0.140625q0.796875 0.125 1.515625 0.421875l0 1.9375q-0.765625 -0.390625 -1.5625 -0.578125q-0.78125 -0.1875 -1.625 -0.1875q-0.78125 0 -1.484375 0.3125q-0.6875 0.296875 -1.21875 0.859375q-0.53125 0.5625 -0.84375 1.375q-0.296875 0.796875 -0.296875 1.8125q0 2.140625 1.03125 3.203125q1.046875 1.0625 2.890625 1.0625q0.828125 0 1.609375 -0.1875q0.78125 -0.1875 1.5 -0.5625l0 1.890625zm13.9921875 -6.0625q0 0.421875 -0.015625 0.71875q0 0.296875 -0.03125 0.546875l-8.265625 0q0 1.8125 1.0 2.78125q1.015625 0.96875 2.921875 0.96875q0.515625 0 1.03125 -0.046875q0.515625 -0.046875 0.984375 -0.109375q0.484375 -0.078125 0.921875 -0.15625q0.453125 -0.09375 0.828125 -0.203125l0 1.6875q-0.84375 0.234375 -1.890625 0.375q-1.046875 0.15625 -2.171875 0.15625q-1.515625 0 -2.609375 -0.40625q-1.078125 -0.421875 -1.78125 -1.203125q-0.6875 -0.78125 -1.03125 -1.90625q-0.328125 -1.140625 -0.328125 -2.5625q0 -1.25 0.359375 -2.34375q0.359375 -1.109375 1.03125 -1.953125q0.6875 -0.84375 1.6875 -1.328125q1.0 -0.5 2.265625 -0.5q1.234375 0 2.171875 0.390625q0.953125 0.390625 1.59375 1.109375q0.65625 0.703125 0.984375 1.71875q0.34375 1.0 0.34375 2.265625zm-2.125 -0.296875q0.046875 -0.78125 -0.140625 -1.4375q-0.1875 -0.65625 -0.59375 -1.125q-0.390625 -0.46875 -0.984375 -0.71875q-0.578125 -0.265625 -1.34375 -0.265625q-0.671875 0 -1.21875 0.265625q-0.546875 0.25 -0.953125 0.71875q-0.390625 0.46875 -0.640625 1.125q-0.25 0.65625 -0.3125 1.4375l6.1875 0zm28.515625 2.953125q0 0.96875 -0.40625 1.734375q-0.390625 0.75 -1.109375 1.265625q-0.703125 0.515625 -1.6875 0.796875q-0.96875 0.265625 -2.109375 0.265625q-1.25 0 -2.203125 -0.28125q-0.953125 -0.296875 -1.609375 -0.796875q-0.640625 -0.5 -0.96875 -1.1875q-0.328125 -0.703125 -0.328125 -1.53125q0 -1.40625 0.78125 -2.421875q0.796875 -1.015625 2.4375 -1.859375q-1.5 -0.75 -2.203125 -1.6875q-0.6875 -0.9375 -0.6875 -2.140625q0 -0.734375 0.296875 -1.421875q0.3125 -0.703125 0.921875 -1.234375q0.625 -0.546875 1.546875 -0.859375q0.9375 -0.328125 2.1875 -0.328125q1.1875 0 2.078125 0.25q0.890625 0.25 1.5 0.71875q0.609375 0.46875 0.90625 1.140625q0.3125 0.671875 0.3125 1.484375q0 1.34375 -0.75 2.28125q-0.734375 0.9375 -2.109375 1.640625q0.6875 0.34375 1.265625 0.75q0.59375 0.40625 1.015625 0.921875q0.4375 0.5 0.671875 1.125q0.25 0.609375 0.25 1.375zm-2.421875 -7.921875q0 -1.046875 -0.734375 -1.546875q-0.734375 -0.515625 -2.0625 -0.515625q-1.3125 0 -2.046875 0.5q-0.71875 0.5 -0.71875 1.515625q0 0.453125 0.171875 0.84375q0.171875 0.390625 0.53125 0.734375q0.375 0.328125 0.921875 0.65625q0.5625 0.328125 1.328125 0.671875q1.3125 -0.625 1.953125 -1.296875q0.65625 -0.671875 0.65625 -1.5625zm0.203125 8.078125q0 -0.4375 -0.140625 -0.84375q-0.140625 -0.421875 -0.5 -0.8125q-0.359375 -0.40625 -0.96875 -0.796875q-0.609375 -0.40625 -1.546875 -0.828125q-0.796875 0.390625 -1.34375 0.78125q-0.546875 0.375 -0.890625 0.765625q-0.328125 0.390625 -0.46875 0.8125q-0.140625 0.421875 -0.140625 0.890625q0 0.53125 0.234375 0.9375q0.234375 0.40625 0.625 0.6875q0.40625 0.28125 0.953125 0.421875q0.546875 0.140625 1.1875 0.140625q0.625 0 1.171875 -0.125q0.5625 -0.140625 0.953125 -0.40625q0.40625 -0.265625 0.640625 -0.65625q0.234375 -0.40625 0.234375 -0.96875zm15.9140625 -10.96875q-1.59375 -0.34375 -2.765625 -0.34375q-2.75 0 -2.75 2.875l0 2.0625l5.15625 0l0 1.703125l-5.15625 0l0 8.359375l-2.078125 0l0 -8.359375l-3.78125 0l0 -1.703125l3.78125 0l0 -1.9375q0 -4.703125 4.90625 -4.703125q1.21875 0 2.6875 0.28125l0 1.765625zm-12.3125 2.890625l0 0zm37.8125 6.859375q0 1.140625 -0.5 2.078125q-0.484375 0.9375 -1.34375 1.609375q-0.859375 0.671875 -2.03125 1.0625q-1.171875 0.375 -2.53125 0.375q-0.34375 0 -0.734375 -0.03125q-0.390625 -0.015625 -0.78125 -0.046875q-0.375 -0.015625 -0.75 -0.0625q-0.375 -0.03125 -0.65625 -0.078125l0 -1.859375q0.625 0.15625 1.4375 0.234375q0.8125 0.0625 1.65625 0.0625q0.9375 0 1.6875 -0.21875q0.75 -0.21875 1.265625 -0.640625q0.53125 -0.421875 0.8125 -1.0q0.28125 -0.59375 0.28125 -1.34375q0 -1.421875 -1.03125 -2.0625q-1.015625 -0.65625 -2.9375 -0.65625l-2.90625 0l0 -7.828125l8.25 0l0 1.78125l-6.328125 0l0 4.296875l1.328125 0q1.109375 0 2.140625 0.203125q1.046875 0.1875 1.859375 0.6875q0.828125 0.5 1.3125 1.34375q0.5 0.828125 0.5 2.09375zm13.7109375 -1.1875q0 1.46875 -0.40625 2.625q-0.40625 1.140625 -1.15625 1.953125q-0.734375 0.796875 -1.8125 1.234375q-1.0625 0.421875 -2.390625 0.421875q-1.046875 0 -2.140625 -0.203125q-1.09375 -0.203125 -2.15625 -0.625l0 -15.875l2.046875 0l0 4.5625l-0.09375 2.171875q0.875 -1.171875 1.875 -1.65625q1.0 -0.5 2.15625 -0.5q1.0 0 1.765625 0.421875q0.765625 0.421875 1.28125 1.203125q0.515625 0.765625 0.765625 1.84375q0.265625 1.078125 0.265625 2.421875zm-2.09375 0.09375q0 -0.921875 -0.140625 -1.6875q-0.125 -0.78125 -0.421875 -1.328125q-0.296875 -0.5625 -0.75 -0.875q-0.453125 -0.3125 -1.09375 -0.3125q-0.375 0 -0.78125 0.125q-0.390625 0.125 -0.828125 0.421875q-0.421875 0.28125 -0.90625 0.765625q-0.46875 0.46875 -1.0 1.171875l0 5.703125q0.59375 0.234375 1.203125 0.375q0.625 0.125 1.1875 0.125q0.703125 0 1.34375 -0.21875q0.640625 -0.21875 1.125 -0.734375q0.484375 -0.53125 0.765625 -1.390625q0.296875 -0.859375 0.296875 -2.140625zm25.984375 6.0l-0.046875 -1.578125q-0.96875 0.9375 -1.953125 1.375q-0.984375 0.421875 -2.078125 0.421875q-1.015625 0 -1.734375 -0.265625q-0.703125 -0.265625 -1.171875 -0.703125q-0.453125 -0.453125 -0.671875 -1.0625q-0.21875 -0.609375 -0.21875 -1.328125q0 -1.765625 1.3125 -2.765625q1.328125 -1.015625 3.90625 -1.015625l2.4375 0l0 -1.03125q0 -1.03125 -0.671875 -1.65625q-0.671875 -0.640625 -2.046875 -0.640625q-0.984375 0 -1.953125 0.234375q-0.96875 0.21875 -2.0 0.625l0 -1.84375q0.390625 -0.140625 0.859375 -0.265625q0.46875 -0.140625 1.0 -0.234375q0.53125 -0.109375 1.09375 -0.171875q0.578125 -0.078125 1.171875 -0.078125q1.0625 0 1.921875 0.234375q0.859375 0.234375 1.4375 0.71875q0.59375 0.484375 0.90625 1.21875q0.328125 0.71875 0.328125 1.703125l0 8.109375l-1.828125 0zm-0.21875 -5.359375l-2.59375 0q-0.765625 0 -1.3125 0.15625q-0.546875 0.15625 -0.90625 0.4375q-0.34375 0.28125 -0.515625 0.671875q-0.171875 0.390625 -0.171875 0.875q0 0.34375 0.09375 0.65625q0.109375 0.3125 0.34375 0.5625q0.234375 0.234375 0.609375 0.375q0.375 0.140625 0.921875 0.140625q0.703125 0 1.609375 -0.421875q0.90625 -0.4375 1.921875 -1.359375l0 -2.09375zm15.6640625 5.359375l-9.625 0l0 -1.90625l3.9375 0l0 -11.171875l-3.671875 1.984375l-0.75 -1.734375l4.875 -2.5625l1.8125 0l0 13.484375l3.421875 0l0 1.90625zm27.015625 -14.65625q-1.59375 -0.34375 -2.765625 -0.34375q-2.75 0 -2.75 2.875l0 2.0625l5.15625 0l0 1.703125l-5.15625 0l0 8.359375l-2.078125 0l0 -8.359375l-3.78125 0l0 -1.703125l3.78125 0l0 -1.9375q0 -4.703125 4.90625 -4.703125q1.21875 0 2.6875 0.28125l0 1.765625zm-12.3125 2.890625l0 0zm25.195312 6.90625q0 1.0625 -0.390625 1.984375q-0.375 0.921875 -1.078125 1.609375q-0.703125 0.6875 -1.6875 1.09375q-0.984375 0.390625 -2.203125 0.390625q-1.265625 0 -2.234375 -0.40625q-0.96875 -0.40625 -1.625 -1.25q-0.65625 -0.84375 -1.0 -2.109375q-0.34375 -1.28125 -0.34375 -3.03125q0 -1.171875 0.15625 -2.265625q0.15625 -1.109375 0.5 -2.078125q0.359375 -0.96875 0.9375 -1.78125q0.59375 -0.8125 1.46875 -1.390625q0.875 -0.578125 2.046875 -0.890625q1.1875 -0.328125 2.75 -0.328125l1.515625 0l0 1.78125l-1.640625 0q-1.375 0 -2.390625 0.328125q-1.0 0.328125 -1.6875 0.921875q-0.671875 0.59375 -1.046875 1.4375q-0.359375 0.84375 -0.453125 1.890625l-0.046875 0.484375q0.75 -0.4375 1.703125 -0.703125q0.96875 -0.265625 2.09375 -0.265625q1.171875 0 2.03125 0.34375q0.875 0.34375 1.453125 0.953125q0.59375 0.59375 0.875 1.4375q0.296875 0.84375 0.296875 1.84375zm-2.125 0.140625q0 -0.703125 -0.171875 -1.265625q-0.171875 -0.578125 -0.546875 -0.96875q-0.359375 -0.390625 -0.921875 -0.609375q-0.546875 -0.21875 -1.3125 -0.21875q-0.453125 0 -0.90625 0.078125q-0.453125 0.078125 -0.90625 0.234375q-0.4375 0.140625 -0.84375 0.328125q-0.390625 0.1875 -0.71875 0.40625q0 1.5 0.203125 2.515625q0.21875 1.015625 0.640625 1.625q0.421875 0.609375 1.03125 0.875q0.609375 0.25 1.40625 0.25q0.65625 0 1.21875 -0.21875q0.5625 -0.21875 0.953125 -0.640625q0.40625 -0.421875 0.640625 -1.015625q0.234375 -0.609375 0.234375 -1.375z" fill-rule="nonzero"></path><path fill="#000000" fill-opacity="0.0" d="m10.3202095 78.937004l75.22917 0l0 23.068245l-75.22917 0z" fill-rule="evenodd"></path><path stroke="#f6b26b" stroke-width="2.0" stroke-linejoin="round" stroke-linecap="butt" d="m10.3202095 78.937004l75.22917 0l0 23.068245l-75.22917 0z" fill-rule="evenodd"></path><path fill="#000000" fill-opacity="0.0" d="m4.4041996 23.543306l89.79528 0l0 45.732285l-89.79528 0z" fill-rule="evenodd"></path><path fill="#f6b26b" d="m23.696161 42.32945l0 -12.671877l8.968748 0l0 2.375002l-6.265623 0l0 2.671875l6.140623 0l0 2.375l-6.140623 0l0 5.25l-2.703125 0zm10.605848 0l0 -9.171875l2.40625 0l0 1.25q0.5 -0.609375 1.28125 -1.046875q0.796875 -0.4375 1.640625 -0.4375l0 2.359375l-0.65625 -0.0625q-0.65625 0 -1.3125 0.3125q-0.65625 0.296875 -0.953125 0.734375l0 6.0625l-2.40625 0zm12.216248 0l0 -0.953125q-1.0 1.1875 -2.90625 1.1875q-1.328125 0 -2.265625 -0.84375q-0.921875 -0.859375 -0.921875 -2.203125q0 -1.34375 0.875 -2.15625q0.890625 -0.8125 2.3125 -0.8125q1.984375 0 2.90625 1.125l0 -1.234375q0 -0.703125 -0.546875 -1.109375q-0.546875 -0.421875 -1.46875 -0.421875q-1.515625 0 -2.671875 1.078125l-0.90625 -1.625q1.671875 -1.4375 4.0 -1.4375q1.9375 0 2.96875 0.90625q1.046875 0.90625 1.046875 2.578125l0 5.921875l-2.421875 0zm-1.9375 -1.40625q1.328125 0 1.9375 -0.796875l0 -1.140625q-0.609375 -0.796875 -1.9375 -0.796875q-0.71875 0 -1.21875 0.359375q-0.5 0.359375 -0.5 1.03125q0 0.640625 0.5 1.0q0.5 0.34375 1.21875 0.34375zm17.94284 1.40625l0 -5.796875q0 -1.46875 -1.375 -1.46875q-0.640625 0 -1.140625 0.34375q-0.484375 0.34375 -0.75 0.734375l0 6.1875l-2.4375 0l0 -5.796875q0 -1.46875 -1.359375 -1.46875q-0.625 0 -1.140625 0.359375q-0.5 0.34375 -0.765625 0.734375l0 6.171875l-2.40625 0l0 -9.171875l2.40625 0l0 1.1875q0.328125 -0.515625 1.203125 -0.96875q0.890625 -0.453125 1.796875 -0.453125q2.0 0 2.546875 1.671875q0.4375 -0.703125 1.3125 -1.1875q0.875 -0.484375 1.84375 -0.484375q2.703125 0 2.703125 2.78125l0 6.625l-2.4375 0zm8.832626 0.234375q-2.171875 0 -3.546875 -1.34375q-1.359375 -1.34375 -1.359375 -3.484375q0 -2.0625 1.359375 -3.4375q1.359375 -1.375 3.390625 -1.375q2.03125 0 3.3125 1.40625q1.28125 1.390625 1.28125 3.65625l0 0.53125l-6.8125 0q0.109375 0.875 0.78125 1.5q0.671875 0.625 1.859375 0.625q0.5625 0 1.265625 -0.234375q0.703125 -0.25 1.1875 -0.6875l1.0625 1.5625q-0.6875 0.625 -1.703125 0.953125q-1.0 0.328125 -2.078125 0.328125zm2.109375 -5.6875q-0.0625 -0.90625 -0.6875 -1.46875q-0.625 -0.5625 -1.578125 -0.5625q-0.953125 0 -1.5625 0.578125q-0.609375 0.578125 -0.703125 1.453125l4.53125 0z" fill-rule="nonzero"></path><path fill="#f6b26b" d="m25.303308 64.56382q-2.9375 0 -4.84375 -1.8749962q-1.90625 -1.875 -1.90625 -4.6875q0 -1.859375 0.875 -3.375q0.890625 -1.53125 2.453125 -2.34375q1.5625 -0.828125 3.421875 -0.828125q3.5 0 5.296875 3.09375l-2.3125 1.140625q-0.40625 -0.78125 -1.203125 -1.3125q-0.796875 -0.53125 -1.78125 -0.53125q-1.734375 0 -2.859375 1.1875q-1.109375 1.1875 -1.109375 2.96875q0 1.84375 1.140625 3.0q1.140625 1.15625 2.828125 1.15625q0.984375 0 1.78125 -0.515625q0.796875 -0.53125 1.203125 -1.328125l2.3125 1.125q-1.796875 3.1249962 -5.296875 3.1249962zm10.879347 0q-2.125 0 -3.484375 -1.3749962q-1.3593731 -1.375 -1.3593731 -3.453125q0 -2.09375 1.3593731 -3.453125q1.359375 -1.359375 3.484375 -1.359375q2.125 0 3.484375 1.359375q1.375 1.359375 1.375 3.453125q0 2.109375 -1.375 3.46875q-1.359375 1.3593712 -3.484375 1.3593712zm0 -2.1562462q1.046875 0 1.703125 -0.75q0.65625 -0.75 0.65625 -1.921875q0 -1.140625 -0.65625 -1.90625q-0.65625 -0.765625 -1.703125 -0.765625q-1.0 0 -1.671875 0.734375q-0.671875 0.734375 -0.671875 1.9375q0 1.21875 0.671875 1.953125q0.671875 0.71875 1.671875 0.71875zm12.646194 1.9218712l0 -5.546871q0 -1.71875 -1.6875 -1.71875q-1.3125 0 -2.09375 1.09375l0 6.171871l-2.40625 0l0 -9.171871l2.40625 0l0 1.1875q0.4375 -0.53125 1.25 -0.96875q0.828125 -0.453125 1.96875 -0.453125q1.515625 0 2.234375 0.796875q0.734375 0.78125 0.734375 2.125l0 6.484371l-2.40625 0zm7.6925964 0.234375q-2.609375 0 -2.609375 -2.5156212l0 -4.78125l-1.515625 0l0 -2.109375l1.515625 0l0 -2.515625l2.4375 0l0 2.515625l1.859375 0l0 2.109375l-1.859375 0l0 4.140625q0 0.4375 0.21875 0.71875q0.21875 0.28125 0.609375 0.28125q0.578125 0 0.84375 -0.265625l0.5 1.828125q-0.625 0.5937462 -2.0 0.5937462zm3.2276917 -0.234375l0 -9.171871l2.40625 0l0 1.25q0.5 -0.609375 1.28125 -1.046875q0.796875 -0.4375 1.640625 -0.4375l0 2.359375l-0.65625 -0.0625q-0.65625 0 -1.3125 0.3125q-0.65625 0.296875 -0.953125 0.734375l0 6.062496l-2.40625 0zm10.966248 0.234375q-2.125 0 -3.484375 -1.3749962q-1.359375 -1.375 -1.359375 -3.453125q0 -2.09375 1.359375 -3.453125q1.359375 -1.359375 3.484375 -1.359375q2.125 0 3.484375 1.359375q1.375 1.359375 1.375 3.453125q0 2.109375 -1.375 3.46875q-1.359375 1.3593712 -3.484375 1.3593712zm0 -2.1562462q1.046875 0 1.703125 -0.75q0.65625 -0.75 0.65625 -1.921875q0 -1.140625 -0.65625 -1.90625q-0.65625 -0.765625 -1.703125 -0.765625q-1.0 0 -1.671875 0.734375q-0.671875 0.734375 -0.671875 1.9375q0 1.21875 0.671875 1.953125q0.671875 0.71875 1.671875 0.71875zm6.4586945 1.9218712l0 -12.671871l2.40625 0l0 12.671871l-2.40625 0z" fill-rule="nonzero"></path><path fill="#000000" fill-opacity="0.0" d="m93.05249 78.937004l72.49606 0l0 23.068245l-72.49606 0z" fill-rule="evenodd"></path><path stroke="#4a86e8" stroke-width="2.0" stroke-linejoin="round" stroke-linecap="butt" d="m93.05249 78.937004l72.49606 0l0 23.068245l-72.49606 0z" fill-rule="evenodd"></path><path fill="#000000" fill-opacity="0.0" d="m78.24541 35.48819l102.11023 0l0 45.732285l-102.11023 0z" fill-rule="evenodd"></path><path fill="#4a86e8" d="m93.76039 65.27433l0 -12.671875l5.0 0q3.0 0 4.859375 1.75q1.875 1.75 1.875 4.59375q0 2.828125 -1.875 4.578125q-1.859375 1.75 -4.859375 1.75l-5.0 0zm5.0 -2.375q1.765625 0 2.859375 -1.109375q1.109375 -1.109375 1.109375 -2.84375q0 -1.796875 -1.0625 -2.875q-1.046875 -1.09375 -2.90625 -1.09375l-2.296875 0l0 7.921875l2.296875 0zm14.535812 2.375l0 -1.15625q-1.234375 1.390625 -3.234375 1.390625q-1.515625 0 -2.234375 -0.765625q-0.71875 -0.78125 -0.71875 -2.125l0 -6.515625l2.40625 0l0 5.5625q0 1.6875 1.6875 1.6875q1.234375 0 2.09375 -1.046875l0 -6.203125l2.40625 0l0 9.171875l-2.40625 0zm4.6144714 0l0 -9.171875l2.40625 0l0 1.25q0.5 -0.609375 1.28125 -1.046875q0.796875 -0.4375 1.640625 -0.4375l0 2.359375l-0.65625 -0.0625q-0.65625 0 -1.3125 0.3125q-0.65625 0.296875 -0.953125 0.734375l0 6.0625l-2.40625 0zm12.216248 0l0 -0.953125q-1.0 1.1875 -2.90625 1.1875q-1.328125 0 -2.265625 -0.84375q-0.921875 -0.859375 -0.921875 -2.203125q0 -1.34375 0.875 -2.15625q0.890625 -0.8125 2.3125 -0.8125q1.984375 0 2.90625 1.125l0 -1.234375q0 -0.703125 -0.546875 -1.109375q-0.546875 -0.421875 -1.46875 -0.421875q-1.515625 0 -2.671875 1.078125l-0.90625 -1.625q1.671875 -1.4375 4.0 -1.4375q1.9375 0 2.96875 0.90625q1.046875 0.90625 1.046875 2.578125l0 5.921875l-2.421875 0zm-1.9375 -1.40625q1.328125 0 1.9375 -0.796875l0 -1.140625q-0.609375 -0.796875 -1.9375 -0.796875q-0.71875 0 -1.21875 0.359375q-0.5 0.359375 -0.5 1.03125q0 0.640625 0.5 1.0q0.5 0.34375 1.21875 0.34375zm9.645966 1.640625q-2.609375 0 -2.609375 -2.515625l0 -4.78125l-1.515625 0l0 -2.109375l1.515625 0l0 -2.515625l2.4375 0l0 2.515625l1.859375 0l0 2.109375l-1.859375 0l0 4.140625q0 0.4375 0.21875 0.71875q0.21875 0.28125 0.609375 0.28125q0.578125 0 0.84375 -0.265625l0.5 1.828125q-0.625 0.59375 -2.0 0.59375zm4.4151917 -10.40625q-0.578125 0 -1.015625 -0.40625q-0.421875 -0.421875 -0.421875 -1.03125q0 -0.609375 0.421875 -1.015625q0.4375 -0.40625 1.015625 -0.40625q0.609375 0 1.03125 0.40625q0.421875 0.40625 0.421875 1.015625q0 0.609375 -0.421875 1.03125q-0.421875 0.40625 -1.03125 0.40625zm-1.1875 10.171875l0 -9.171875l2.40625 0l0 9.171875l-2.40625 0zm8.970032 0.234375q-2.125 0 -3.484375 -1.375q-1.359375 -1.375 -1.359375 -3.453125q0 -2.09375 1.359375 -3.453125q1.359375 -1.359375 3.484375 -1.359375q2.125 0 3.484375 1.359375q1.375 1.359375 1.375 3.453125q0 2.109375 -1.375 3.46875q-1.359375 1.359375 -3.484375 1.359375zm0 -2.15625q1.046875 0 1.703125 -0.75q0.65625 -0.75 0.65625 -1.921875q0 -1.140625 -0.65625 -1.90625q-0.65625 -0.765625 -1.703125 -0.765625q-1.0 0 -1.671875 0.734375q-0.671875 0.734375 -0.671875 1.9375q0 1.21875 0.671875 1.953125q0.671875 0.71875 1.671875 0.71875zm12.646194 1.921875l0 -5.546875q0 -1.71875 -1.6875 -1.71875q-1.3125 0 -2.09375 1.09375l0 6.171875l-2.40625 0l0 -9.171875l2.40625 0l0 1.1875q0.4375 -0.53125 1.25 -0.96875q0.828125 -0.453125 1.96875 -0.453125q1.515625 0 2.234375 0.796875q0.734375 0.78125 0.734375 2.125l0 6.484375l-2.40625 0z" fill-rule="nonzero"></path><path fill="#000000" fill-opacity="0.0" d="m173.05249 78.937004l230.92896 0l0 23.068245l-230.92896 0z" fill-rule="evenodd"></path><path stroke="#cc4125" stroke-width="2.0" stroke-linejoin="round" stroke-linecap="butt" d="m173.05249 78.937004l230.92896 0l0 23.068245l-230.92896 0z" fill-rule="evenodd"></path><path fill="#000000" fill-opacity="0.0" d="m174.24672 7.5433073l230.92912 0l0 57.669292l-230.92912 0z" fill-rule="evenodd"></path><path fill="#cc4125" d="m225.70026 21.29795l-2.5 -4.5l-1.96875 0l0 4.5l-2.703125 0l0 -12.671874l5.9375 0q1.9375 0 3.09375 1.15625q1.15625 1.140625 1.15625 2.921875q0 1.484375 -0.796875 2.5q-0.78125 0.99999905 -1.984375 1.265624l2.859375 4.828125l-3.09375 0zm-1.640625 -6.874999q0.8125 0 1.359375 -0.453125q0.546875 -0.46875 0.546875 -1.265625q0 -0.796875 -0.546875 -1.25q-0.546875 -0.453125 -1.359375 -0.453125l-2.828125 0l0 3.421875l2.828125 0zm10.730347 7.109374q-2.171875 0 -3.546875 -1.34375q-1.359375 -1.34375 -1.359375 -3.484375q0 -2.062499 1.359375 -3.437499q1.359375 -1.375 3.390625 -1.375q2.03125 0 3.3125 1.40625q1.28125 1.390625 1.28125 3.656249l0 0.53125l-6.8125 0q0.109375 0.875 0.78125 1.5q0.671875 0.625 1.859375 0.625q0.5625 0 1.265625 -0.234375q0.703125 -0.25 1.1875 -0.6875l1.0625 1.5625q-0.6875 0.625 -1.703125 0.953125q-1.0 0.328125 -2.078125 0.328125zm2.109375 -5.687499q-0.0625 -0.90625 -0.6875 -1.46875q-0.625 -0.5625 -1.578125 -0.5625q-0.953125 0 -1.5625 0.578125q-0.609375 0.578125 -0.703125 1.453125l4.53125 0zm8.16066 5.687499q-2.15625 0 -3.515625 -1.375q-1.34375 -1.375 -1.34375 -3.453125q0 -2.078124 1.34375 -3.437499q1.359375 -1.375 3.515625 -1.375q1.40625 0 2.28125 0.515625q0.890625 0.515625 1.34375 1.140625l-1.5625 1.484375q-0.671875 -1.0 -1.9375 -1.0q-1.109375 0 -1.8125 0.734375q-0.6875 0.734375 -0.6875 1.937499q0 1.1875 0.6875 1.9375q0.703125 0.734375 1.8125 0.734375q1.234375 0 1.9375 -0.984375l1.5625 1.46875q-0.453125 0.640625 -1.34375 1.15625q-0.875 0.515625 -2.28125 0.515625zm9.3563385 0q-2.171875 0 -3.546875 -1.34375q-1.359375 -1.34375 -1.359375 -3.484375q0 -2.062499 1.359375 -3.437499q1.359375 -1.375 3.390625 -1.375q2.03125 0 3.3125 1.40625q1.28125 1.390625 1.28125 3.656249l0 0.53125l-6.8125 0q0.109375 0.875 0.78125 1.5q0.671875 0.625 1.859375 0.625q0.5625 0 1.265625 -0.234375q0.703125 -0.25 1.1875 -0.6875l1.0625 1.5625q-0.6875 0.625 -1.703125 0.953125q-1.0 0.328125 -2.078125 0.328125zm2.109375 -5.687499q-0.0625 -0.90625 -0.6875 -1.46875q-0.625 -0.5625 -1.578125 -0.5625q-0.953125 0 -1.5625 0.578125q-0.609375 0.578125 -0.703125 1.453125l4.53125 0zm5.0825195 -4.71875q-0.578125 0 -1.015625 -0.40625q-0.421875 -0.421875 -0.421875 -1.03125q0 -0.609375 0.421875 -1.015625q0.4375 -0.40625 1.015625 -0.40625q0.609375 0 1.03125 0.40625q0.421875 0.40625 0.421875 1.015625q0 0.609375 -0.421875 1.03125q-0.421875 0.40625 -1.03125 0.40625zm-1.1875 10.171874l0 -9.171874l2.40625 0l0 9.171874l-2.40625 0zm7.0950317 0l-3.6875 -9.171874l2.578125 0l2.390625 6.374999l2.40625 -6.374999l2.59375 0l-3.6875 9.171874l-2.59375 0zm11.508179 0.234375q-2.171875 0 -3.546875 -1.34375q-1.359375 -1.34375 -1.359375 -3.484375q0 -2.062499 1.359375 -3.437499q1.359375 -1.375 3.390625 -1.375q2.03125 0 3.3125 1.40625q1.28125 1.390625 1.28125 3.656249l0 0.53125l-6.8125 0q0.109375 0.875 0.78125 1.5q0.671875 0.625 1.859375 0.625q0.5625 0 1.265625 -0.234375q0.703125 -0.25 1.1875 -0.6875l1.0625 1.5625q-0.6875 0.625 -1.703125 0.953125q-1.0 0.328125 -2.078125 0.328125zm2.109375 -5.687499q-0.0625 -0.90625 -0.6875 -1.46875q-0.625 -0.5625 -1.578125 -0.5625q-0.953125 0 -1.5625 0.578125q-0.609375 0.578125 -0.703125 1.453125l4.53125 0zm3.8950195 5.453124l0 -9.171874l2.40625 0l0 1.25q0.5 -0.609375 1.28125 -1.046875q0.796875 -0.4375 1.640625 -0.4375l0 2.359375l-0.65625 -0.0625q-0.65625 0 -1.3125 0.3125q-0.65625 0.296875 -0.953125 0.734375l0 6.062499l-2.40625 0zm16.992249 0l0 -0.953125q-1.0 1.1875 -2.90625 1.1875q-1.328125 0 -2.265625 -0.84375q-0.921875 -0.859375 -0.921875 -2.203125q0 -1.34375 0.875 -2.15625q0.890625 -0.81249905 2.3125 -0.81249905q1.984375 0 2.90625 1.124999l0 -1.234374q0 -0.703125 -0.546875 -1.109375q-0.546875 -0.421875 -1.46875 -0.421875q-1.515625 0 -2.671875 1.078125l-0.90625 -1.625q1.671875 -1.4375 4.0 -1.4375q1.9375 0 2.96875 0.90625q1.046875 0.90625 1.046875 2.578125l0 5.921874l-2.421875 0zm-1.9375 -1.40625q1.328125 0 1.9375 -0.796875l0 -1.140625q-0.609375 -0.796875 -1.9375 -0.796875q-0.71875 0 -1.21875 0.359375q-0.5 0.359375 -0.5 1.03125q0 0.640625 0.5 1.0q0.5 0.34375 1.21875 0.34375zm12.864716 1.40625l0 -1.171875q-1.140625 1.40625 -2.828125 1.40625q-1.828125 0 -2.953125 -1.3125q-1.109375 -1.3125 -1.109375 -3.5q0 -2.171874 1.109375 -3.499999q1.125 -1.328125 2.953125 -1.328125q1.734375 0 2.828125 1.40625l0 -4.671875l2.4375 0l0 12.671874l-2.4375 0zm-2.078125 -1.921875q0.59375 0 1.1875 -0.296875q0.59375 -0.296875 0.890625 -0.75l0 -3.249999q-0.296875 -0.453125 -0.890625 -0.75q-0.59375 -0.296875 -1.1875 -0.296875q-1.03125 0 -1.6875 0.75q-0.640625 0.734375 -0.640625 1.937499q0 1.15625 0.625 1.90625q0.625 0.75 1.703125 0.75zm13.010712 1.921875l0 -1.171875q-1.140625 1.40625 -2.828125 1.40625q-1.828125 0 -2.953125 -1.3125q-1.109375 -1.3125 -1.109375 -3.5q0 -2.171874 1.109375 -3.499999q1.125 -1.328125 2.953125 -1.328125q1.734375 0 2.828125 1.40625l0 -4.671875l2.4375 0l0 12.671874l-2.4375 0zm-2.078125 -1.921875q0.59375 0 1.1875 -0.296875q0.59375 -0.296875 0.890625 -0.75l0 -3.249999q-0.296875 -0.453125 -0.890625 -0.75q-0.59375 -0.296875 -1.1875 -0.296875q-1.03125 0 -1.6875 0.75q-0.640625 0.734375 -0.640625 1.937499q0 1.15625 0.625 1.90625q0.625 0.75 1.703125 0.75zm6.713806 1.921875l0 -9.171874l2.40625 0l0 1.25q0.5 -0.609375 1.28125 -1.046875q0.796875 -0.4375 1.640625 -0.4375l0 2.359375l-0.65625 -0.0625q-0.65625 0 -1.3125 0.3125q-0.65625 0.296875 -0.953125 0.734375l0 6.062499l-2.40625 0zm11.028748 0.234375q-2.171875 0 -3.546875 -1.34375q-1.359375 -1.34375 -1.359375 -3.484375q0 -2.062499 1.359375 -3.437499q1.359375 -1.375 3.390625 -1.375q2.03125 0 3.3125 1.40625q1.28125 1.390625 1.28125 3.656249l0 0.53125l-6.8125 0q0.109375 0.875 0.78125 1.5q0.671875 0.625 1.859375 0.625q0.5625 0 1.265625 -0.234375q0.703125 -0.25 1.1875 -0.6875l1.0625 1.5625q-0.6875 0.625 -1.703125 0.953125q-1.0 0.328125 -2.078125 0.328125zm2.109375 -5.687499q-0.0625 -0.90625 -0.6875 -1.46875q-0.625 -0.5625 -1.578125 -0.5625q-0.953125 0 -1.5625 0.578125q-0.609375 0.578125 -0.703125 1.453125l4.53125 0zm7.191925 5.687499q-1.1875 0 -2.28125 -0.375q-1.09375 -0.390625 -1.8125 -1.0625l1.03125 -1.6875q0.5625 0.515625 1.46875 0.890625q0.90625 0.359375 1.703125 0.359375q1.546875 0 1.546875 -0.984375q0 -0.375 -0.40625 -0.5625q-0.40625 -0.1875 -1.0 -0.328125l-1.3125 -0.265625q-2.734375 -0.59375 -2.734375 -2.734374q0 -1.28125 1.046875 -2.078125q1.0625 -0.8125 2.71875 -0.8125q2.140625 0 3.703125 1.25l-0.96875 1.65625q-0.421875 -0.4375 -1.140625 -0.75q-0.71875 -0.3125 -1.578125 -0.3125q-0.671875 0 -1.0625 0.265625q-0.375 0.265625 -0.375 0.640625q0 0.34375 0.390625 0.515625q0.40625 0.171875 1.0 0.296875q0.609375 0.125 1.3125 0.296875q0.703125 0.15625 1.3125 0.48437405q0.609375 0.3125 1.0 0.875q0.40625 0.546875 0.40625 1.46875q0 1.328125 -1.078125 2.140625q-1.078125 0.8125 -2.890625 0.8125zm8.899017 0q-1.1875 0 -2.28125 -0.375q-1.09375 -0.390625 -1.8125 -1.0625l1.03125 -1.6875q0.5625 0.515625 1.46875 0.890625q0.90625 0.359375 1.703125 0.359375q1.546875 0 1.546875 -0.984375q0 -0.375 -0.40625 -0.5625q-0.40625 -0.1875 -1.0 -0.328125l-1.3125 -0.265625q-2.734375 -0.59375 -2.734375 -2.734374q0 -1.28125 1.046875 -2.078125q1.0625 -0.8125 2.71875 -0.8125q2.140625 0 3.703125 1.25l-0.96875 1.65625q-0.421875 -0.4375 -1.140625 -0.75q-0.71875 -0.3125 -1.578125 -0.3125q-0.671875 0 -1.0625 0.265625q-0.375 0.265625 -0.375 0.640625q0 0.34375 0.390625 0.515625q0.40625 0.171875 1.0 0.296875q0.609375 0.125 1.3125 0.296875q0.703125 0.15625 1.3125 0.48437405q0.609375 0.3125 1.0 0.875q0.40625 0.546875 0.40625 1.46875q0 1.328125 -1.078125 2.140625q-1.078125 0.8125 -2.890625 0.8125z" fill-rule="nonzero"></path><path fill="#cc4125" d="m189.78241 47.079205q-1.40625 -1.59375 -2.203125 -3.859375q-0.796875 -2.265625 -0.796875 -4.53125q0 -2.3125 0.796875 -4.5625q0.796875 -2.250002 2.203125 -3.843752l1.515625 1.140625q-1.078125 2.000002 -1.5 3.687502q-0.421875 1.6875 -0.421875 3.578125q0 1.9375 0.4375 3.640625q0.4375 1.703125 1.484375 3.578125l-1.515625 1.171875zm5.947159 -3.78125l0 -10.296875l-3.71875 0l0 -2.375002l10.109375 0l0 2.375002l-3.6875 0l0 10.296875l-2.703125 0zm16.186066 0l-3.171875 -4.640625l-3.1875 4.640625l-3.21875 0l4.609375 -6.5l-4.3125 -6.171877l3.203125 0l2.90625 4.328127l2.875 -4.328127l3.25 0l-4.3125 6.156252l4.59375 6.515625l-3.234375 0zm20.003998 0l0 -8.875l-3.578125 8.875l-1.171875 0l-3.578125 -8.875l0 8.875l-2.703125 0l0 -12.671877l3.78125 0l3.078125 7.656252l3.078125 -7.656252l3.796875 0l0 12.671877l-2.703125 0zm13.669846 0l-0.78125 -2.140625l-5.4375 0l-0.796875 2.140625l-3.078125 0l4.90625 -12.671877l3.375 0l4.890625 12.671877l-3.078125 0zm-3.5 -9.96875l-1.984375 5.453125l3.953125 0l-1.96875 -5.453125zm13.6515045 10.203125q-2.9375 0 -4.84375 -1.875q-1.90625 -1.875 -1.90625 -4.6875q0 -1.859375 0.875 -3.375q0.890625 -1.53125 2.453125 -2.343752q1.5625 -0.828125 3.421875 -0.828125q3.5000153 0 5.2968903 3.093752l-2.3125 1.140625q-0.40625 -0.78125 -1.203125 -1.3125q-0.796875 -0.53125 -1.7812653 -0.53125q-1.734375 0 -2.859375 1.1875q-1.109375 1.1875 -1.109375 2.96875q0 1.84375 1.140625 3.0q1.140625 1.15625 2.828125 1.15625q0.98439026 0 1.7812653 -0.515625q0.796875 -0.53125 1.203125 -1.328125l2.3125 1.125q-1.796875 3.125 -5.2968903 3.125zm15.65535 0q-2.125 0 -3.484375 -1.375q-1.359375 -1.375 -1.359375 -3.453125q0 -2.09375 1.359375 -3.453125q1.359375 -1.359375 3.484375 -1.359375q2.125 0 3.484375 1.359375q1.375 1.359375 1.375 3.453125q0 2.109375 -1.375 3.46875q-1.359375 1.359375 -3.484375 1.359375zm0 -2.15625q1.046875 0 1.703125 -0.75q0.65625 -0.75 0.65625 -1.921875q0 -1.140625 -0.65625 -1.90625q-0.65625 -0.765625 -1.703125 -0.765625q-1.0 0 -1.671875 0.734375q-0.671875 0.734375 -0.671875 1.9375q0 1.21875 0.671875 1.953125q0.671875 0.71875 1.671875 0.71875zm6.9899597 1.921875l0 -7.0625l-1.53125 0l0 -2.109375l1.53125 0l0 -0.5q0 -1.484375 0.84375 -2.328127q0.859375 -0.859375 2.25 -0.859375q1.609375 0 2.390625 0.84375l-0.90625 1.4375019q-0.390625 -0.390625 -1.015625 -0.390625q-0.484375 0 -0.8125 0.328125q-0.328125 0.328125 -0.328125 0.96875l0 0.5l1.859375 0l0 2.109375l-1.859375 0l0 7.0625l-2.421875 0zm10.876587 0l0 -7.0625l-1.53125 0l0 -2.109375l1.53125 0l0 -0.5q0 -1.484375 0.84375 -2.328127q0.859375 -0.859375 2.25 -0.859375q1.609375 0 2.390625 0.84375l-0.90625 1.4375019q-0.390625 -0.390625 -1.015625 -0.390625q-0.484375 0 -0.8125 0.328125q-0.328125 0.328125 -0.328125 0.96875l0 0.5l1.859375 0l0 2.109375l-1.859375 0l0 7.0625l-2.421875 0zm5.5693665 0l0 -9.171875l2.40625 0l0 1.25q0.5 -0.609375 1.28125 -1.046875q0.796875 -0.4375 1.640625 -0.4375l0 2.359375l-0.65625 -0.0625q-0.65625 0 -1.3125 0.3125q-0.65625 0.296875 -0.953125 0.734375l0 6.0625l-2.40625 0zm12.216217 0l0 -0.953125q-1.0 1.1875 -2.90625 1.1875q-1.328125 0 -2.2655945 -0.84375q-0.921875 -0.859375 -0.921875 -2.203125q0 -1.34375 0.875 -2.15625q0.8905945 -0.8125 2.3124695 -0.8125q1.984375 0 2.90625 1.125l0 -1.234375q0 -0.703125 -0.546875 -1.109375q-0.546875 -0.421875 -1.46875 -0.421875q-1.515625 0 -2.671875 1.078125l-0.9062195 -1.625q1.6718445 -1.4375 3.9999695 -1.4375q1.9375 0 2.96875 0.90625q1.046875 0.90625 1.046875 2.578125l0 5.921875l-2.421875 0zm-1.9375 -1.40625q1.328125 0 1.9375 -0.796875l0 -1.140625q-0.609375 -0.796875 -1.9375 -0.796875q-0.71875 0 -1.21875 0.359375q-0.5 0.359375 -0.5 1.03125q0 0.640625 0.5 1.0q0.5 0.34375 1.21875 0.34375zm17.94284 1.40625l0 -5.796875q0 -1.46875 -1.375 -1.46875q-0.640625 0 -1.140625 0.34375q-0.484375 0.34375 -0.75 0.734375l0 6.1875l-2.4375 0l0 -5.796875q0 -1.46875 -1.359375 -1.46875q-0.625 0 -1.140625 0.359375q-0.5 0.34375 -0.765625 0.734375l0 6.171875l-2.40625 0l0 -9.171875l2.40625 0l0 1.1875q0.328125 -0.515625 1.203125 -0.96875q0.890625 -0.453125 1.796875 -0.453125q2.0 0 2.546875 1.671875q0.4375 -0.703125 1.3125 -1.1875q0.875 -0.484375 1.84375 -0.484375q2.703125 0 2.703125 2.78125l0 6.625l-2.4375 0zm8.832642 0.234375q-2.171875 0 -3.546875 -1.34375q-1.359375 -1.34375 -1.359375 -3.484375q0 -2.0625 1.359375 -3.4375q1.359375 -1.375 3.390625 -1.375q2.03125 0 3.3125 1.40625q1.28125 1.390625 1.28125 3.65625l0 0.53125l-6.8125 0q0.109375 0.875 0.78125 1.5q0.671875 0.625 1.859375 0.625q0.5625 0 1.265625 -0.234375q0.703125 -0.25 1.1875 -0.6875l1.0625 1.5625q-0.6875 0.625 -1.703125 0.953125q-1.0 0.328125 -2.078125 0.328125zm2.109375 -5.6875q-0.0625 -0.90625 -0.6875 -1.46875q-0.625 -0.5625 -1.578125 -0.5625q-0.953125 0 -1.5625 0.578125q-0.609375 0.578125 -0.703125 1.453125l4.53125 0zm11.7491455 5.6875q-2.609375 0 -2.609375 -2.515625l0 -4.78125l-1.515625 0l0 -2.109375l1.515625 0l0 -2.515627l2.4375 0l0 2.515627l1.859375 0l0 2.109375l-1.859375 0l0 4.140625q0 0.4375 0.21875 0.71875q0.21875 0.28125 0.609375 0.28125q0.578125 0 0.84375 -0.265625l0.5 1.828125q-0.625 0.59375 -2.0 0.59375zm9.430817 -0.234375l0 -5.59375q0 -1.671875 -1.703125 -1.671875q-1.25 0 -2.09375 1.09375l0 6.171875l-2.40625 0l0 -12.671877l2.40625 0l0 4.687502q0.4375 -0.53125 1.265625 -0.96875q0.828125 -0.453125 1.96875 -0.453125q1.515625 0 2.25 0.78125q0.734375 0.765625 0.734375 2.109375l0 6.515625l-2.421875 0zm10.117523 0l0 -0.953125q-1.0 1.1875 -2.90625 1.1875q-1.328125 0 -2.265625 -0.84375q-0.921875 -0.859375 -0.921875 -2.203125q0 -1.34375 0.875 -2.15625q0.890625 -0.8125 2.3125 -0.8125q1.984375 0 2.90625 1.125l0 -1.234375q0 -0.703125 -0.546875 -1.109375q-0.546875 -0.421875 -1.46875 -0.421875q-1.515625 0 -2.671875 1.078125l-0.90625 -1.625q1.671875 -1.4375 4.0 -1.4375q1.9375 0 2.96875 0.90625q1.046875 0.90625 1.046875 2.578125l0 5.921875l-2.421875 0zm-1.9375 -1.40625q1.328125 0 1.9375 -0.796875l0 -1.140625q-0.609375 -0.796875 -1.9375 -0.796875q-0.71875 0 -1.21875 0.359375q-0.5 0.359375 -0.5 1.03125q0 0.640625 0.5 1.0q0.5 0.34375 1.21875 0.34375zm9.645966 1.640625q-2.609375 0 -2.609375 -2.515625l0 -4.78125l-1.515625 0l0 -2.109375l1.515625 0l0 -2.515627l2.4375 0l0 2.515627l1.859375 0l0 2.109375l-1.859375 0l0 4.140625q0 0.4375 0.21875 0.71875q0.21875 0.28125 0.609375 0.28125q0.578125 0 0.84375 -0.265625l0.5 1.828125q-0.625 0.59375 -2.0 0.59375zm9.191193 -10.40625q-0.578125 0 -1.015625 -0.40625q-0.421875 -0.421875 -0.421875 -1.0312519q0 -0.609375 0.421875 -1.015625q0.4375 -0.40625 1.015625 -0.40625q0.609375 0 1.03125 0.40625q0.421875 0.40625 0.421875 1.015625q0 0.6093769 -0.421875 1.0312519q-0.421875 0.40625 -1.03125 0.40625zm-1.1875 10.171875l0 -9.171875l2.40625 0l0 9.171875l-2.40625 0zm8.016907 0.234375q-1.1875 0 -2.28125 -0.375q-1.09375 -0.390625 -1.8125 -1.0625l1.03125 -1.6875q0.5625 0.515625 1.46875 0.890625q0.90625 0.359375 1.703125 0.359375q1.546875 0 1.546875 -0.984375q0 -0.375 -0.40625 -0.5625q-0.40625 -0.1875 -1.0 -0.328125l-1.3125 -0.265625q-2.734375 -0.59375 -2.734375 -2.734375q0 -1.28125 1.046875 -2.078125q1.0625 -0.8125 2.71875 -0.8125q2.140625 0 3.703125 1.25l-0.96875 1.65625q-0.421875 -0.4375 -1.140625 -0.75q-0.71875 -0.3125 -1.578125 -0.3125q-0.671875 0 -1.0625 0.265625q-0.375 0.265625 -0.375 0.640625q0 0.34375 0.390625 0.515625q0.40625 0.171875 1.0 0.296875q0.609375 0.125 1.3125 0.296875q0.703125 0.15625 1.3125 0.484375q0.609375 0.3125 1.0 0.875q0.40625 0.546875 0.40625 1.46875q0 1.328125 -1.078125 2.140625q-1.078125 0.8125 -2.890625 0.8125z" fill-rule="nonzero"></path><path fill="#cc4125" d="m202.61394 62.360455q0.296875 0.421875 0.890625 0.71875q0.59375 0.296875 1.1875 0.296875q1.0625 0 1.6875 -0.71875q0.640625 -0.734375 0.640625 -1.9375q0 -1.203125 -0.640625 -1.9375q-0.625 -0.75 -1.6875 -0.75q-0.59375 0 -1.1875 0.3125q-0.59375 0.296875 -0.890625 0.765625l0 3.25zm-2.40625 2.9374962l0 -12.671871l2.40625 0l0 4.671875q1.109375 -1.40625 2.828125 -1.40625q1.828125 0 2.9375 1.328125q1.125 1.328125 1.125 3.5q0 2.1875 -1.125 3.4999962q-1.109375 1.3125 -2.9375 1.3125q-1.6875 0 -2.828125 -1.40625l0 1.171875l-2.40625 0zm15.245071 0.234375q-2.171875 0 -3.546875 -1.34375q-1.359375 -1.3437462 -1.359375 -3.4843712q0 -2.0625 1.359375 -3.4375q1.359375 -1.375 3.390625 -1.375q2.03125 0 3.3125 1.40625q1.28125 1.390625 1.28125 3.65625l0 0.53125l-6.8125 0q0.109375 0.875 0.78125 1.5q0.671875 0.625 1.859375 0.625q0.5625 0 1.265625 -0.234375q0.703125 -0.25 1.1875 -0.6875l1.0625 1.5624962q-0.6875 0.625 -1.703125 0.953125q-1.0 0.328125 -2.078125 0.328125zm2.109375 -5.687496q-0.0625 -0.90625 -0.6875 -1.46875q-0.625 -0.5625 -1.578125 -0.5625q-0.953125 0 -1.5625 0.578125q-0.609375 0.578125 -0.703125 1.453125l4.53125 0zm5.082535 -4.71875q-0.578125 0 -1.015625 -0.40625q-0.421875 -0.421875 -0.421875 -1.03125q0 -0.609375 0.421875 -1.015625q0.4375 -0.40625 1.015625 -0.40625q0.609375 0 1.03125 0.40625q0.421875 0.40625 0.421875 1.015625q0 0.609375 -0.421875 1.03125q-0.421875 0.40625 -1.03125 0.40625zm-1.1875 10.171871l0 -9.171871l2.40625 0l0 9.171871l-2.40625 0zm10.907532 0l0 -5.546871q0 -1.71875 -1.6875 -1.71875q-1.3125 0 -2.09375 1.09375l0 6.171871l-2.40625 0l0 -9.171871l2.40625 0l0 1.1875q0.4375 -0.53125 1.25 -0.96875q0.828125 -0.453125 1.96875 -0.453125q1.515625 0 2.234375 0.796875q0.734375 0.78125 0.734375 2.125l0 6.484371l-2.40625 0zm8.364471 3.71875q-1.1875 0 -2.140625 -0.3125q-0.9375 -0.296875 -1.8125 -1.046875l1.09375 -1.75q1.015625 1.140625 2.859375 1.140625q1.203125 0 1.859375 -0.609375q0.671875 -0.609375 0.671875 -1.703125l0 -0.9374962q-1.15625 1.4374962 -2.828125 1.4374962q-1.84375 0 -2.953125 -1.2499962q-1.09375 -1.265625 -1.09375 -3.421875q0 -2.125 1.09375 -3.390625q1.09375 -1.28125 2.953125 -1.28125q1.734375 0 2.828125 1.40625l0 -1.171875l2.4375 0l0 8.546871q0 2.09375 -1.296875 3.21875q-1.296875 1.125 -3.671875 1.125zm0.46875 -5.921871q0.59375 0 1.171875 -0.296875q0.59375 -0.3125 0.890625 -0.75l0 -2.96875q-0.296875 -0.453125 -0.890625 -0.75q-0.578125 -0.296875 -1.171875 -0.296875q-1.03125 0 -1.6875 0.671875q-0.640625 0.671875 -0.640625 1.859375q0 1.203125 0.640625 1.875q0.65625 0.65625 1.6875 0.65625zm16.971176 2.2031212l0 -0.953125q-1.0 1.1875 -2.9062653 1.1875q-1.328125 0 -2.265625 -0.84375q-0.921875 -0.8593712 -0.921875 -2.2031212q0 -1.34375 0.875 -2.15625q0.890625 -0.8125 2.3125 -0.8125q1.9843903 0 2.9062653 1.125l0 -1.234375q0 -0.703125 -0.546875 -1.109375q-0.546875 -0.421875 -1.46875 -0.421875q-1.5156403 0 -2.6718903 1.078125l-0.90625 -1.625q1.671875 -1.4375 4.0000153 -1.4375q1.9375 0 2.96875 0.90625q1.046875 0.90625 1.046875 2.578125l0 5.921871l-2.421875 0zm-1.9375 -1.4062462q1.328125 0 1.9375 -0.796875l0 -1.140625q-0.609375 -0.796875 -1.9375 -0.796875q-0.71876526 0 -1.2187653 0.359375q-0.5 0.359375 -0.5 1.03125q0 0.640625 0.5 1.0q0.5 0.34375 1.2187653 0.34375zm10.833466 1.6406212q-2.15625 0 -3.515625 -1.375q-1.34375 -1.3749962 -1.34375 -3.4531212q0 -2.078125 1.34375 -3.4375q1.359375 -1.375 3.515625 -1.375q1.40625 0 2.28125 0.515625q0.890625 0.515625 1.34375 1.140625l-1.5625 1.484375q-0.671875 -1.0 -1.9375 -1.0q-1.109375 0 -1.8125 0.734375q-0.6875 0.734375 -0.6875 1.9375q0 1.1875 0.6875 1.9375q0.703125 0.734375 1.8125 0.734375q1.234375 0 1.9375 -0.984375l1.5625 1.46875q-0.453125 0.6406212 -1.34375 1.1562462q-0.875 0.515625 -2.28125 0.515625zm10.981323 -0.234375l-2.421875 -3.5312462l-1.109375 1.171875l0 2.3593712l-2.40625 0l0 -12.671871l2.40625 0l0 7.578125l3.484375 -4.078125l2.953125 0l-3.625 4.15625l3.75 5.015621l-3.03125 0zm10.23111 0l0 -5.546871q0 -1.71875 -1.6875 -1.71875q-1.3125 0 -2.09375 1.09375l0 6.171871l-2.40625 0l0 -9.171871l2.40625 0l0 1.1875q0.4375 -0.53125 1.25 -0.96875q0.828125 -0.453125 1.96875 -0.453125q1.515625 0 2.234375 0.796875q0.734375 0.78125 0.734375 2.125l0 6.484371l-2.40625 0zm8.864471 0.234375q-2.125 0 -3.484375 -1.375q-1.359375 -1.3749962 -1.359375 -3.4531212q0 -2.09375 1.359375 -3.453125q1.359375 -1.359375 3.484375 -1.359375q2.125 0 3.484375 1.359375q1.375 1.359375 1.375 3.453125q0 2.109375 -1.375 3.4687462q-1.359375 1.359375 -3.484375 1.359375zm0 -2.1562462q1.046875 0 1.703125 -0.75q0.65625 -0.75 0.65625 -1.921875q0 -1.140625 -0.65625 -1.90625q-0.65625 -0.765625 -1.703125 -0.765625q-1.0 0 -1.671875 0.734375q-0.671875 0.734375 -0.671875 1.9375q0 1.21875 0.671875 1.953125q0.671875 0.71875 1.671875 0.71875zm14.505554 1.9218712l-1.9375 -6.249996l-1.9375 6.249996l-2.578125 0l-2.796875 -9.171871l2.515625 0l1.703125 6.171875l2.015625 -6.171875l2.140625 0l2.015625 6.171875l1.71875 -6.171875l2.5 0l-2.796875 9.171871l-2.5625 0zm6.299774 0l0 -12.671871l2.40625 0l0 12.671871l-2.40625 0zm9.032532 0.234375q-2.171875 0 -3.546875 -1.34375q-1.359375 -1.3437462 -1.359375 -3.4843712q0 -2.0625 1.359375 -3.4375q1.359375 -1.375 3.390625 -1.375q2.03125 0 3.3125 1.40625q1.28125 1.390625 1.28125 3.65625l0 0.53125l-6.8125 0q0.109375 0.875 0.78125 1.5q0.671875 0.625 1.859375 0.625q0.5625 0 1.265625 -0.234375q0.703125 -0.25 1.1875 -0.6875l1.0625 1.5624962q-0.6875 0.625 -1.703125 0.953125q-1.0 0.328125 -2.078125 0.328125zm2.109375 -5.687496q-0.0625 -0.90625 -0.6875 -1.46875q-0.625 -0.5625 -1.578125 -0.5625q-0.953125 0 -1.5625 0.578125q-0.609375 0.578125 -0.703125 1.453125l4.53125 0zm10.191925 5.453121l0 -1.171875q-1.140625 1.40625 -2.828125 1.40625q-1.828125 0 -2.953125 -1.3125q-1.109375 -1.3124962 -1.109375 -3.4999962q0 -2.171875 1.109375 -3.5q1.125 -1.328125 2.953125 -1.328125q1.734375 0 2.828125 1.40625l0 -4.671875l2.4375 0l0 12.671871l-2.4375 0zm-2.078125 -1.9218712q0.59375 0 1.1875 -0.296875q0.59375 -0.296875 0.890625 -0.75l0 -3.25q-0.296875 -0.453125 -0.890625 -0.75q-0.59375 -0.296875 -1.1875 -0.296875q-1.03125 0 -1.6875 0.75q-0.640625 0.734375 -0.640625 1.9375q0 1.15625 0.625 1.90625q0.625 0.75 1.703125 0.75zm10.463806 5.640621q-1.1875 0 -2.140625 -0.3125q-0.9375 -0.296875 -1.8125 -1.046875l1.09375 -1.75q1.015625 1.140625 2.859375 1.140625q1.203125 0 1.859375 -0.609375q0.671875 -0.609375 0.671875 -1.703125l0 -0.9374962q-1.15625 1.4374962 -2.828125 1.4374962q-1.84375 0 -2.953125 -1.2499962q-1.09375 -1.265625 -1.09375 -3.421875q0 -2.125 1.09375 -3.390625q1.09375 -1.28125 2.953125 -1.28125q1.734375 0 2.828125 1.40625l0 -1.171875l2.4375 0l0 8.546871q0 2.09375 -1.296875 3.21875q-1.296875 1.125 -3.671875 1.125zm0.46875 -5.921871q0.59375 0 1.171875 -0.296875q0.59375 -0.3125 0.890625 -0.75l0 -2.96875q-0.296875 -0.453125 -0.890625 -0.75q-0.578125 -0.296875 -1.171875 -0.296875q-1.03125 0 -1.6875 0.671875q-0.640625 0.671875 -0.640625 1.859375q0 1.203125 0.640625 1.875q0.65625 0.65625 1.6875 0.65625zm11.00766 2.4374962q-2.171875 0 -3.546875 -1.34375q-1.359375 -1.3437462 -1.359375 -3.4843712q0 -2.0625 1.359375 -3.4375q1.359375 -1.375 3.390625 -1.375q2.03125 0 3.3125 1.40625q1.28125 1.390625 1.28125 3.65625l0 0.53125l-6.8125 0q0.109375 0.875 0.78125 1.5q0.671875 0.625 1.859375 0.625q0.5625 0 1.265625 -0.234375q0.703125 -0.25 1.1875 -0.6875l1.0625 1.5624962q-0.6875 0.625 -1.703125 0.953125q-1.0 0.328125 -2.078125 0.328125zm2.109375 -5.687496q-0.0625 -0.90625 -0.6875 -1.46875q-0.625 -0.5625 -1.578125 -0.5625q-0.953125 0 -1.5625 0.578125q-0.609375 0.578125 -0.703125 1.453125l4.53125 0zm10.191925 5.453121l0 -1.171875q-1.140625 1.40625 -2.828125 1.40625q-1.828125 0 -2.953125 -1.3125q-1.109375 -1.3124962 -1.109375 -3.4999962q0 -2.171875 1.109375 -3.5q1.125 -1.328125 2.953125 -1.328125q1.734375 0 2.828125 1.40625l0 -4.671875l2.4375 0l0 12.671871l-2.4375 0zm-2.078125 -1.9218712q0.59375 0 1.1875 -0.296875q0.59375 -0.296875 0.890625 -0.75l0 -3.25q-0.296875 -0.453125 -0.890625 -0.75q-0.59375 -0.296875 -1.1875 -0.296875q-1.03125 0 -1.6875 0.75q-0.640625 0.734375 -0.640625 1.9375q0 1.15625 0.625 1.90625q0.625 0.75 1.703125 0.75zm5.838806 4.531246q0.96875 -1.671875 1.453125 -3.359375q0.484375 -1.6874962 0.484375 -3.8593712q0 -2.09375 -0.46875 -3.765625q-0.453125 -1.671875 -1.46875 -3.5l1.515625 -1.140625q1.375 1.515625 2.203125 3.78125q0.84375 2.25 0.84375 4.625q0 2.34375 -0.84375 4.609371q-0.828125 2.265625 -2.203125 3.78125l-1.515625 -1.171875z" fill-rule="nonzero"></path></g></svg>

