<?xml version="1.0" standalone="yes"?>

<svg version="1.1" viewBox="0.0 0.0 898.8162729658793 283.0" fill="none" stroke="none" stroke-linecap="square" stroke-miterlimit="10" xmlns="http://www.w3.org/2000/svg" xmlns:xlink="http://www.w3.org/1999/xlink"><clipPath id="p.0"><path d="m0 0l898.8163 0l0 283.0l-898.8163 0l0 -283.0z" clip-rule="nonzero"></path></clipPath><g clip-path="url(#p.0)"><path fill="#000000" fill-opacity="0.0" d="m0 0l898.8163 0l0 283.0l-898.8163 0z" fill-rule="nonzero"></path><path fill="#073642" d="m237.18373 166.69324l0 0c0 -9.115051 7.389206 -16.504257 16.504257 -16.504257l119.68439 0c4.3771973 0 8.575134 1.7388306 11.670288 4.8339844c3.0951538 3.0951538 4.8339844 7.2930756 4.8339844 11.670273l0 66.01509c0 9.115051 -7.389221 16.504272 -16.504272 16.504272l-119.68439 0c-9.115051 0 -16.504257 -7.389221 -16.504257 -16.504272z" fill-rule="nonzero"></path><path fill="#2aa198" d="m301.9363 199.71454q0 3.359375 -1.828125 5.140625q-1.8125 1.765625 -5.234375 1.765625l-3.765625 0l0 -13.5625l4.15625 0q3.171875 0 4.921875 1.75q1.75 1.75 1.75 4.90625zm-1.671875 0.046875q0 -2.65625 -1.328125 -4.0q-1.328125 -1.34375 -3.953125 -1.34375l-2.296875 0l0 10.84375l1.921875 0q2.828125 0 4.234375 -1.390625q1.421875 -1.390625 1.421875 -4.109375zm8.506744 7.046875q-2.25 0 -3.5625 -1.375q-1.296875 -1.375 -1.296875 -3.8125q0 -2.453125 1.203125 -3.90625q1.21875 -1.453125 3.265625 -1.453125q1.90625 0 3.015625 1.265625q1.125 1.25 1.125 3.3125l0 0.96875l-7.015625 0q0.046875 1.796875 0.90625 2.734375q0.859375 0.921875 2.421875 0.921875q1.640625 0 3.25 -0.6875l0 1.375q-0.8125 0.34375 -1.546875 0.5q-0.734375 0.15625 -1.765625 0.15625zm-0.40625 -9.25q-1.234375 0 -1.96875 0.796875q-0.71875 0.796875 -0.84375 2.203125l5.3125 0q0 -1.453125 -0.65625 -2.21875q-0.640625 -0.78125 -1.84375 -0.78125zm8.123047 9.0625l-1.53125 0l0 -14.4375l1.53125 0l0 14.4375zm9.4374695 0l-0.3125 -1.453125l-0.078125 0q-0.75 0.96875 -1.515625 1.3125q-0.75 0.328125 -1.890625 0.328125q-1.5 0 -2.359375 -0.78125q-0.859375 -0.78125 -0.859375 -2.21875q0 -3.078125 4.921875 -3.234375l1.734375 -0.046875l0 -0.625q0 -1.203125 -0.515625 -1.765625q-0.515625 -0.578125 -1.65625 -0.578125q-1.265625 0 -2.875 0.78125l-0.46875 -1.1875q0.75 -0.40625 1.640625 -0.625q0.90625 -0.234375 1.796875 -0.234375q1.828125 0 2.703125 0.8125q0.875 0.796875 0.875 2.578125l0 6.9375l-1.140625 0zm-3.484375 -1.078125q1.4375 0 2.25 -0.78125q0.828125 -0.796875 0.828125 -2.21875l0 -0.921875l-1.53125 0.0625q-1.84375 0.0625 -2.65625 0.578125q-0.8125 0.5 -0.8125 1.5625q0 0.84375 0.5 1.28125q0.515625 0.4375 1.421875 0.4375zm5.9851074 -9.09375l1.65625 0l2.21875 5.796875q0.734375 1.984375 0.921875 2.875l0.0625 0q0.125 -0.46875 0.5 -1.609375q0.390625 -1.15625 2.53125 -7.0625l1.65625 0l-4.375 11.578125q-0.65625 1.71875 -1.53125 2.4375q-0.859375 0.71875 -2.109375 0.71875q-0.71875 0 -1.390625 -0.15625l0 -1.234375q0.5 0.109375 1.140625 0.109375q1.578125 0 2.25 -1.78125l0.578125 -1.4375l-4.109375 -10.234375z" fill-rule="nonzero"></path><path fill="#073642" d="m436.42258 166.69324l0 0c0 -9.115051 7.389221 -16.504257 16.504272 -16.504257l119.68436 0c4.3771973 0 8.575134 1.7388306 11.670288 4.8339844c3.0951538 3.0951538 4.8339844 7.2930756 4.8339844 11.670273l0 66.01509c0 9.115051 -7.389221 16.504272 -16.504272 16.504272l-119.68436 0c-9.115051 0 -16.504272 -7.389221 -16.504272 -16.504272z" fill-rule="nonzero"></path><path fill="#2aa198" d="m476.28717 194.27704q-2.234375 0 -3.53125 1.484375q-1.296875 1.484375 -1.296875 4.078125q0 2.65625 1.25 4.109375q1.25 1.453125 3.5625 1.453125q1.421875 0 3.234375 -0.5l0 1.375q-1.40625 0.53125 -3.484375 0.53125q-2.984375 0 -4.625 -1.8125q-1.625 -1.828125 -1.625 -5.171875q0 -2.09375 0.78125 -3.671875q0.796875 -1.578125 2.265625 -2.4375q1.484375 -0.859375 3.484375 -0.859375q2.140625 0 3.734375 0.78125l-0.671875 1.359375q-1.53125 -0.71875 -3.078125 -0.71875zm14.503845 7.25q0 2.484375 -1.25 3.890625q-1.25 1.390625 -3.453125 1.390625q-1.375 0 -2.4375 -0.640625q-1.046875 -0.640625 -1.625 -1.828125q-0.578125 -1.203125 -0.578125 -2.8125q0 -2.484375 1.234375 -3.875q1.25 -1.390625 3.46875 -1.390625q2.125 0 3.375 1.421875q1.265625 1.421875 1.265625 3.84375zm-7.75 0q0 1.953125 0.78125 2.96875q0.78125 1.015625 2.296875 1.015625q1.515625 0 2.296875 -1.015625q0.78125 -1.015625 0.78125 -2.96875q0 -1.9375 -0.78125 -2.9375q-0.78125 -1.015625 -2.3125 -1.015625q-1.515625 0 -2.296875 1.0q-0.765625 0.984375 -0.765625 2.953125zm17.205963 5.09375l0 -6.578125q0 -1.25 -0.578125 -1.859375q-0.5625 -0.609375 -1.765625 -0.609375q-1.59375 0 -2.34375 0.875q-0.734375 0.859375 -0.734375 2.84375l0 5.328125l-1.53125 0l0 -10.171875l1.25 0l0.25 1.390625l0.0625 0q0.484375 -0.75 1.328125 -1.15625q0.859375 -0.421875 1.90625 -0.421875q1.84375 0 2.765625 0.890625q0.921875 0.890625 0.921875 2.828125l0 6.640625l-1.53125 0zm3.2631226 4.5625q-0.890625 0 -1.4375 -0.234375l0 -1.25q0.640625 0.1875 1.265625 0.1875q0.71875 0 1.0625 -0.390625q0.34375 -0.390625 0.34375 -1.203125l0 -11.84375l1.53125 0l0 11.734375q0 3.0 -2.765625 3.0zm1.09375 -17.484375q0 -0.53125 0.25 -0.765625q0.265625 -0.25 0.65625 -0.25q0.375 0 0.640625 0.25q0.28125 0.25 0.28125 0.765625q0 0.515625 -0.28125 0.78125q-0.265625 0.25 -0.640625 0.25q-0.390625 0 -0.65625 -0.25q-0.25 -0.265625 -0.25 -0.78125zm6.2968445 2.75l0 6.59375q0 1.25 0.5625 1.859375q0.578125 0.609375 1.78125 0.609375q1.59375 0 2.328125 -0.859375q0.734375 -0.875 0.734375 -2.859375l0 -5.34375l1.546875 0l0 10.171875l-1.265625 0l-0.234375 -1.359375l-0.078125 0q-0.46875 0.75 -1.3125 1.15625q-0.84375 0.390625 -1.921875 0.390625q-1.84375 0 -2.78125 -0.875q-0.921875 -0.890625 -0.921875 -2.828125l0 -6.65625l1.5625 0zm18.325623 0l0 0.984375l-1.875 0.21875q0.25 0.328125 0.453125 0.859375q0.203125 0.515625 0.203125 1.171875q0 1.484375 -1.015625 2.375q-1.015625 0.890625 -2.796875 0.890625q-0.453125 0 -0.859375 -0.0625q-0.984375 0.515625 -0.984375 1.296875q0 0.421875 0.34375 0.625q0.34375 0.203125 1.1875 0.203125l1.796875 0q1.640625 0 2.53125 0.703125q0.890625 0.6875 0.890625 2.015625q0 1.6875 -1.359375 2.5625q-1.359375 0.890625 -3.953125 0.890625q-1.984375 0 -3.078125 -0.75q-1.078125 -0.734375 -1.078125 -2.09375q0 -0.921875 0.59375 -1.609375q0.59375 -0.671875 1.671875 -0.90625q-0.390625 -0.171875 -0.65625 -0.546875q-0.265625 -0.375 -0.265625 -0.859375q0 -0.5625 0.296875 -0.96875q0.296875 -0.421875 0.9375 -0.8125q-0.78125 -0.328125 -1.28125 -1.109375q-0.5 -0.78125 -0.5 -1.78125q0 -1.671875 1.0 -2.578125q1.0 -0.90625 2.84375 -0.90625q0.796875 0 1.4375 0.1875l3.515625 0zm-8.109375 11.875q0 0.828125 0.6875 1.25q0.703125 0.4375 2.0 0.4375q1.9375 0 2.875 -0.578125q0.9375 -0.578125 0.9375 -1.578125q0 -0.828125 -0.515625 -1.15625q-0.515625 -0.3125 -1.921875 -0.3125l-1.84375 0q-1.046875 0 -1.640625 0.5q-0.578125 0.5 -0.578125 1.4375zm0.84375 -8.609375q0 1.0625 0.59375 1.609375q0.609375 0.546875 1.6875 0.546875q2.25 0 2.25 -2.1875q0 -2.296875 -2.28125 -2.296875q-1.09375 0 -1.671875 0.59375q-0.578125 0.578125 -0.578125 1.734375zm15.424011 6.90625l-0.3125 -1.453125l-0.078125 0q-0.75 0.96875 -1.515625 1.3125q-0.75 0.328125 -1.890625 0.328125q-1.5 0 -2.359375 -0.78125q-0.859375 -0.78125 -0.859375 -2.21875q0 -3.078125 4.921875 -3.234375l1.734375 -0.046875l0 -0.625q0 -1.203125 -0.515625 -1.765625q-0.515625 -0.578125 -1.65625 -0.578125q-1.265625 0 -2.875 0.78125l-0.46875 -1.1875q0.75 -0.40625 1.640625 -0.625q0.90625 -0.234375 1.796875 -0.234375q1.828125 0 2.703125 0.8125q0.875 0.796875 0.875 2.578125l0 6.9375l-1.140625 0zm-3.484375 -1.078125q1.4375 0 2.25 -0.78125q0.828125 -0.796875 0.828125 -2.21875l0 -0.921875l-1.53125 0.0625q-1.84375 0.0625 -2.65625 0.578125q-0.8125 0.5 -0.8125 1.5625q0 0.84375 0.5 1.28125q0.515625 0.4375 1.421875 0.4375zm10.891357 0q0.40625 0 0.78125 -0.0625q0.390625 -0.0625 0.609375 -0.125l0 1.171875q-0.25 0.125 -0.75 0.203125q-0.484375 0.078125 -0.875 0.078125q-2.9375 0 -2.9375 -3.109375l0 -6.046875l-1.46875 0l0 -0.75l1.46875 -0.640625l0.640625 -2.171875l0.890625 0l0 2.359375l2.953125 0l0 1.203125l-2.953125 0l0 5.984375q0 0.921875 0.4375 1.421875q0.4375 0.484375 1.203125 0.484375zm7.5861206 1.265625q-2.25 0 -3.5625 -1.375q-1.296875 -1.375 -1.296875 -3.8125q0 -2.453125 1.203125 -3.90625q1.21875 -1.453125 3.265625 -1.453125q1.90625 0 3.015625 1.265625q1.125 1.25 1.125 3.3125l0 0.96875l-7.015625 0q0.046875 1.796875 0.90625 2.734375q0.859375 0.921875 2.421875 0.921875q1.640625 0 3.25 -0.6875l0 1.375q-0.8125 0.34375 -1.546875 0.5q-0.734375 0.15625 -1.765625 0.15625zm-0.40625 -9.25q-1.234375 0 -1.96875 0.796875q-0.71875 0.796875 -0.84375 2.203125l5.3125 0q0 -1.453125 -0.65625 -2.21875q-0.640625 -0.78125 -1.84375 -0.78125z" fill-rule="nonzero"></path><path fill="#000000" fill-opacity="0.0" d="m11.104987 30.146982l193.85828 0l0 72.18898l-193.85828 0z" fill-rule="nonzero"></path><path fill="#cb4b16" d="m24.183111 51.863853l-3.53125 -4.96875l1.75 0l2.6875 3.90625l2.671875 -3.90625l1.734375 0l-3.53125 4.96875l3.71875 5.203125l-1.75 0l-2.84375 -4.125l-2.875 4.125l-1.75 0l3.71875 -5.203125zm11.477617 8.203125l-4.234377 0l0 -16.5625l4.234377 0l0 1.3125l-2.6875 0l0 13.9375l2.6875 0l0 1.3125zm8.952301 -3.0l0 -6.578125q0 -1.25 -0.578125 -1.859375q-0.5625 -0.609375 -1.765625 -0.609375q-1.59375 0 -2.34375 0.875q-0.734375 0.859375 -0.734375 2.84375l0 5.328125l-1.53125 0l0 -10.171875l1.25 0l0.25 1.390625l0.0625 0q0.484375 -0.75 1.328125 -1.15625q0.859375 -0.421875 1.90625 -0.421875q1.84375 0 2.765625 0.890625q0.921875 0.890625 0.921875 2.828125l0 6.640625l-1.53125 0zm3.3256378 1.6875l2.6875 0l0 -13.9375l-2.6875 0l0 -1.3125l4.25 0l0 16.5625l-4.25 0l0 -1.3125z" fill-rule="nonzero"></path><path fill="#000000" fill-opacity="0.0" d="m76.81628 55.598427l551.559 0" fill-rule="nonzero"></path><path stroke="#073642" stroke-width="2.0" stroke-linejoin="round" stroke-linecap="butt" d="m76.81628 55.598427l539.559 0" fill-rule="evenodd"></path><path fill="#073642" stroke="#073642" stroke-width="2.0" stroke-linecap="butt" d="m616.3753 58.90189l9.076233 -3.303463l-9.076233 -3.3034668z" fill-rule="evenodd"></path><path fill="#000000" fill-opacity="0.0" d="m237.18373 199.70079l-143.49606 0l0 -143.49606" fill-rule="nonzero"></path><path stroke="#073642" stroke-width="2.0" stroke-linejoin="round" stroke-linecap="butt" d="m225.18373 199.70079l-131.49606 0l0 -143.49606" fill-rule="evenodd"></path><path fill="#073642" stroke="#073642" stroke-width="2.0" stroke-linecap="butt" d="m225.18373 203.00426l9.076187 -3.3034668l-9.076187 -3.3034668z" fill-rule="evenodd"></path><path fill="#000000" fill-opacity="0.0" d="m389.87665 199.70079l46.551178 0" fill-rule="nonzero"></path><path stroke="#073642" stroke-width="2.0" stroke-linejoin="round" stroke-linecap="butt" d="m389.87665 199.70079l34.551178 0" fill-rule="evenodd"></path><path fill="#073642" stroke="#073642" stroke-width="2.0" stroke-linecap="butt" d="m424.42783 203.00426l9.076202 -3.3034668l-9.076202 -3.3034668z" fill-rule="evenodd"></path><path fill="#073642" d="m628.3753 55.598427l0 0c0 -19.934437 16.160095 -36.09449 36.094482 -36.09449l0 0c9.572876 0 18.753662 3.8028011 25.522705 10.571831c6.768982 6.7690315 10.571838 15.949802 10.571838 25.52266l0 0c0 19.934433 -16.160095 36.09449 -36.094543 36.09449l0 0c-19.934387 0 -36.094482 -16.160057 -36.094482 -36.09449z" fill-rule="nonzero"></path><path fill="#2aa198" d="m675.8644 69.99842l-3.78125 0l-7.671936 -12.5625l-7.8125 12.5625l-3.515625 0l9.5 -14.921875l-8.859375 -13.640625l3.671875 0l7.09375 11.3125l7.156311 -11.3125l3.53125 0l-8.843811 13.515625l9.531311 15.046875z" fill-rule="nonzero"></path><path fill="#000000" fill-opacity="0.0" d="m589.1155 199.70079l75.370056 0l0 -108.0" fill-rule="nonzero"></path><path stroke="#073642" stroke-width="2.0" stroke-linejoin="round" stroke-linecap="butt" d="m589.1155 199.70079l75.370056 0l0 -96.0" fill-rule="evenodd"></path><path fill="#073642" stroke="#073642" stroke-width="2.0" stroke-linecap="butt" d="m667.789 103.70079l-3.3034668 -9.076195l-3.3034058 9.076195z" fill-rule="evenodd"></path><path fill="#000000" fill-opacity="0.0" d="m707.105 30.146982l193.85828 0l0 72.18898l-193.85828 0z" fill-rule="nonzero"></path><path fill="#cb4b16" d="m716.1206 46.895103l1.65625 0l2.21875 5.796875q0.734375 1.984375 0.921875 2.875l0.0625 0q0.125 -0.46875 0.5 -1.609375q0.390625 -1.15625 2.53125 -7.0625l1.65625 0l-4.375 11.578125q-0.65625 1.71875 -1.53125 2.4375q-0.859375 0.71875 -2.109375 0.71875q-0.71875 0 -1.390625 -0.15625l0 -1.234375q0.5 0.109375 1.140625 0.109375q1.578125 0 2.25 -1.78125l0.578125 -1.4375l-4.109375 -10.234375zm15.166626 13.171875l-4.234375 0l0 -16.5625l4.234375 0l0 1.3125l-2.6875 0l0 13.9375l2.6875 0l0 1.3125zm8.952332 -3.0l0 -6.578125q0 -1.25 -0.578125 -1.859375q-0.5625 -0.609375 -1.765625 -0.609375q-1.59375 0 -2.34375 0.875q-0.734375 0.859375 -0.734375 2.84375l0 5.328125l-1.53125 0l0 -10.171875l1.25 0l0.25 1.390625l0.0625 0q0.484375 -0.75 1.328125 -1.15625q0.859375 -0.421875 1.90625 -0.421875q1.84375 0 2.765625 0.890625q0.921875 0.890625 0.921875 2.828125l0 6.640625l-1.53125 0zm3.3256226 1.6875l2.6875 0l0 -13.9375l-2.6875 0l0 -1.3125l4.25 0l0 16.5625l-4.25 0l0 -1.3125zm11.626648 -9.640625l0 -1.28125l8.625 0l0 1.28125l-8.625 0zm0 3.78125l0 -1.265625l8.625 0l0 1.265625l-8.625 0zm18.482239 -1.03125l-3.53125 -4.96875l1.75 0l2.6875 3.90625l2.671875 -3.90625l1.734375 0l-3.53125 4.96875l3.71875 5.203125l-1.75 0l-2.84375 -4.125l-2.875 4.125l-1.75 0l3.71875 -5.203125zm11.4776 8.203125l-4.234375 0l0 -16.5625l4.234375 0l0 1.3125l-2.6875 0l0 13.9375l2.6875 0l0 1.3125zm8.952332 -3.0l0 -6.578125q0 -1.25 -0.578125 -1.859375q-0.5625 -0.609375 -1.765625 -0.609375q-1.59375 0 -2.34375 0.875q-0.734375 0.859375 -0.734375 2.84375l0 5.328125l-1.53125 0l0 -10.171875l1.25 0l0.25 1.390625l0.0625 0q0.484375 -0.75 1.328125 -1.15625q0.859375 -0.421875 1.90625 -0.421875q1.84375 0 2.765625 0.890625q0.921875 0.890625 0.921875 2.828125l0 6.640625l-1.53125 0zm3.3256226 1.6875l2.6875 0l0 -13.9375l-2.6875 0l0 -1.3125l4.25 0l0 16.5625l-4.25 0l0 -1.3125zm14.595459 -6.890625l-3.53125 -4.96875l1.75 0l2.6875 3.90625l2.671875 -3.90625l1.734375 0l-3.53125 4.96875l3.71875 5.203125l-1.75 0l-2.84375 -4.125l-2.875 4.125l-1.75 0l3.71875 -5.203125zm11.7901 -9.234375l-0.390625 3.671875l3.6875 -1.03125l0.234375 1.6875l-3.53125 0.28125l2.296875 3.03125l-1.59375 0.875l-1.625 -3.359375l-1.484375 3.359375l-1.640625 -0.875l2.25 -3.03125l-3.5 -0.28125l0.265625 -1.6875l3.625 1.03125l-0.390625 -3.671875l1.796875 0zm9.981201 17.4375l-4.234375 0l0 -16.5625l4.234375 0l0 1.3125l-2.6875 0l0 13.9375l2.6875 0l0 1.3125zm8.952332 -3.0l0 -6.578125q0 -1.25 -0.578125 -1.859375q-0.5625 -0.609375 -1.765625 -0.609375q-1.59375 0 -2.34375 0.875q-0.734375 0.859375 -0.734375 2.84375l0 5.328125l-1.53125 0l0 -10.171875l1.25 0l0.25 1.390625l0.0625 0q0.484375 -0.75 1.328125 -1.15625q0.859375 -0.421875 1.90625 -0.421875q1.84375 0 2.765625 0.890625q0.921875 0.890625 0.921875 2.828125l0 6.640625l-1.53125 0zm3.6381226 -4.390625l0 -1.40625l4.546875 0l0 1.40625l-4.546875 0zm11.862549 4.390625l-1.515625 0l0 -9.671875q0 -1.203125 0.078125 -2.28125q-0.1875 0.203125 -0.4375 0.421875q-0.234375 0.203125 -2.203125 1.796875l-0.8125 -1.0625l3.578125 -2.765625l1.3125 0l0 13.5625zm4.4953613 1.6875l2.6875 0l0 -13.9375l-2.6875 0l0 -1.3125l4.25 0l0 16.5625l-4.25 0l0 -1.3125z" fill-rule="nonzero"></path></g></svg>

