<svg version="1.1" viewBox="0.0 0.0 959.8398950131234 350.86876640419945" fill="none" stroke="none" stroke-linecap="square" stroke-miterlimit="10" xmlns:xlink="http://www.w3.org/1999/xlink" xmlns="http://www.w3.org/2000/svg"><clipPath id="p.0"><path d="m0 0l959.8399 0l0 350.86877l-959.8399 0l0 -350.86877z" clip-rule="nonzero"/></clipPath><g clip-path="url(#p.0)"><path fill="#000000" fill-opacity="0.0" d="m0 0l959.8399 0l0 350.86877l-959.8399 0z" fill-rule="evenodd"/><path fill="#f9cb9c" d="m0.85301834 7.1469817l958.2992 0l0 113.385826l-958.2992 0z" fill-rule="evenodd"/><path stroke="#000000" stroke-width="2.0" stroke-linejoin="round" stroke-linecap="butt" d="m0.85301834 7.1469817l958.2992 0l0 113.385826l-958.2992 0z" fill-rule="evenodd"/><path fill="#000000" d="m476.96408 42.10364q0.015625 -0.515625 -0.046875 -0.875q-0.0625 -0.375 -0.21875 -0.609375q-0.140625 -0.234375 -0.359375 -0.34375q-0.21875 -0.109375 -0.515625 -0.109375q-0.484375 0 -1.015625 0.40625q-0.515625 0.40625 -1.140625 1.328125l0 5.859375l-2.28125 0l0 -9.25l2.015625 0l0.078125 1.34375q0.234375 -0.359375 0.515625 -0.640625q0.28125 -0.28125 0.625 -0.484375q0.359375 -0.203125 0.78125 -0.3125q0.4375 -0.109375 0.953125 -0.109375q0.703125 0 1.234375 0.25q0.546875 0.234375 0.90625 0.703125q0.375 0.46875 0.546875 1.1875q0.1875 0.71875 0.15625 1.65625l-2.234375 0zm12.632294 0.859375q0 1.28125 -0.359375 2.21875q-0.359375 0.921875 -1.0 1.546875q-0.640625 0.609375 -1.515625 0.90625q-0.875 0.28125 -1.90625 0.28125q-0.34375 0 -0.703125 -0.046875q-0.34375 -0.03125 -0.625 -0.109375l0 3.609375l-2.21875 0l0 -12.859375l1.921875 0l0.0625 1.359375q0.28125 -0.359375 0.578125 -0.640625q0.3125 -0.296875 0.65625 -0.5q0.359375 -0.203125 0.765625 -0.3125q0.421875 -0.109375 0.921875 -0.109375q0.828125 0 1.453125 0.328125q0.640625 0.328125 1.078125 0.9375q0.4375 0.59375 0.65625 1.46875q0.234375 0.859375 0.234375 1.921875zm-2.328125 0.09375q0 -0.765625 -0.109375 -1.296875q-0.109375 -0.546875 -0.328125 -0.890625q-0.203125 -0.34375 -0.5 -0.5q-0.28125 -0.15625 -0.671875 -0.15625q-0.5625 0 -1.078125 0.453125q-0.515625 0.453125 -1.09375 1.234375l0 4.046875q0.265625 0.09375 0.65625 0.171875q0.390625 0.0625 0.78125 0.0625q0.53125 0 0.96875 -0.21875q0.4375 -0.21875 0.734375 -0.625q0.3125 -0.40625 0.46875 -0.984375q0.171875 -0.578125 0.171875 -1.296875z" fill-rule="nonzero"/><path fill="#000000" d="m424.97815 81.759895l0 -1.984375l3.03125 0l0 -7.640625l-2.640625 1.453125l-0.734375 -1.8125l3.78125 -2.0l1.875 0l0 10.0l2.609375 0l0 1.984375l-7.921875 0zm18.647919 -6.0q0 1.46875 -0.328125 2.625q-0.3125 1.15625 -0.9375 1.953125q-0.609375 0.796875 -1.5 1.21875q-0.875 0.40625 -2.015625 0.40625q-0.984375 0 -1.8125 -0.34375q-0.828125 -0.34375 -1.4375 -1.078125q-0.59375 -0.75 -0.9375 -1.90625q-0.328125 -1.15625 -0.328125 -2.765625q0 -1.46875 0.3125 -2.625q0.328125 -1.15625 0.9375 -1.953125q0.609375 -0.796875 1.5 -1.21875q0.90625 -0.421875 2.03125 -0.421875q0.984375 0 1.8125 0.34375q0.828125 0.34375 1.421875 1.09375q0.59375 0.734375 0.9375 1.890625q0.34375 1.15625 0.34375 2.78125zm-7.0625 0.03125q0 0.1875 0 0.34375q0 0.15625 0.015625 0.328125l4.46875 -3.234375q-0.3125 -0.890625 -0.84375 -1.328125q-0.515625 -0.4375 -1.234375 -0.4375q-0.5 0 -0.9375 0.265625q-0.4375 0.25 -0.765625 0.796875q-0.328125 0.53125 -0.515625 1.34375q-0.1875 0.8125 -0.1875 1.921875zm4.8125 0.03125q0 -0.140625 -0.015625 -0.296875q0 -0.171875 0 -0.3125l-4.4375 3.203125q0.296875 0.890625 0.8125 1.3125q0.53125 0.421875 1.234375 0.421875q0.515625 0 0.953125 -0.25q0.4375 -0.265625 0.765625 -0.796875q0.328125 -0.546875 0.5 -1.359375q0.1875 -0.8125 0.1875 -1.921875zm7.8041687 2.578125q0.375 0 0.703125 0.140625q0.328125 0.140625 0.5625 0.390625q0.25 0.234375 0.390625 0.5625q0.140625 0.328125 0.140625 0.703125q0 0.359375 -0.140625 0.6875q-0.140625 0.3125 -0.390625 0.5625q-0.234375 0.234375 -0.5625 0.375q-0.328125 0.140625 -0.703125 0.140625q-0.375 0 -0.6875 -0.140625q-0.3125 -0.140625 -0.5625 -0.375q-0.234375 -0.25 -0.375 -0.5625q-0.125 -0.328125 -0.125 -0.6875q0 -0.375 0.125 -0.703125q0.140625 -0.328125 0.375 -0.5625q0.25 -0.25 0.5625 -0.390625q0.3125 -0.140625 0.6875 -0.140625zm6.5697937 3.359375l0 -1.984375l3.03125 0l0 -7.640625l-2.640625 1.453125l-0.734375 -1.8125l3.78125 -2.0l1.875 0l0 10.0l2.609375 0l0 1.984375l-7.921875 0zm18.647919 -6.0q0 1.46875 -0.328125 2.625q-0.3125 1.15625 -0.9375 1.953125q-0.609375 0.796875 -1.5 1.21875q-0.875 0.40625 -2.015625 0.40625q-0.984375 0 -1.8125 -0.34375q-0.828125 -0.34375 -1.4375 -1.078125q-0.59375 -0.75 -0.9375 -1.90625q-0.328125 -1.15625 -0.328125 -2.765625q0 -1.46875 0.3125 -2.625q0.328125 -1.15625 0.9375 -1.953125q0.609375 -0.796875 1.5 -1.21875q0.90625 -0.421875 2.03125 -0.421875q0.984375 0 1.8125 0.34375q0.828125 0.34375 1.421875 1.09375q0.59375 0.734375 0.9375 1.890625q0.34375 1.15625 0.34375 2.78125zm-7.0625 0.03125q0 0.1875 0 0.34375q0 0.15625 0.015625 0.328125l4.46875 -3.234375q-0.3125 -0.890625 -0.84375 -1.328125q-0.515625 -0.4375 -1.234375 -0.4375q-0.5 0 -0.9375 0.265625q-0.4375 0.25 -0.765625 0.796875q-0.328125 0.53125 -0.515625 1.34375q-0.1875 0.8125 -0.1875 1.921875zm4.8125 0.03125q0 -0.140625 -0.015625 -0.296875q0 -0.171875 0 -0.3125l-4.4375 3.203125q0.296875 0.890625 0.8125 1.3125q0.53125 0.421875 1.234375 0.421875q0.515625 0 0.953125 -0.25q0.4375 -0.265625 0.765625 -0.796875q0.328125 -0.546875 0.5 -1.359375q0.1875 -0.8125 0.1875 -1.921875zm7.8041687 2.578125q0.375 0 0.703125 0.140625q0.328125 0.140625 0.5625 0.390625q0.25 0.234375 0.390625 0.5625q0.140625 0.328125 0.140625 0.703125q0 0.359375 -0.140625 0.6875q-0.140625 0.3125 -0.390625 0.5625q-0.234375 0.234375 -0.5625 0.375q-0.328125 0.140625 -0.703125 0.140625q-0.375 0 -0.6875 -0.140625q-0.3125 -0.140625 -0.5625 -0.375q-0.234375 -0.25 -0.375 -0.5625q-0.125 -0.328125 -0.125 -0.6875q0 -0.375 0.125 -0.703125q0.140625 -0.328125 0.375 -0.5625q0.25 -0.25 0.5625 -0.390625q0.3125 -0.140625 0.6875 -0.140625zm6.5697937 3.359375l0 -1.984375l3.03125 0l0 -7.640625l-2.640625 1.453125l-0.734375 -1.8125l3.78125 -2.0l1.875 0l0 10.0l2.609375 0l0 1.984375l-7.921875 0zm13.944794 -3.359375q0.375 0 0.703125 0.140625q0.328125 0.140625 0.5625 0.390625q0.25 0.234375 0.390625 0.5625q0.140625 0.328125 0.140625 0.703125q0 0.359375 -0.140625 0.6875q-0.140625 0.3125 -0.390625 0.5625q-0.234375 0.234375 -0.5625 0.375q-0.328125 0.140625 -0.703125 0.140625q-0.375 0 -0.6875 -0.140625q-0.3125 -0.140625 -0.5625 -0.375q-0.234375 -0.25 -0.375 -0.5625q-0.125 -0.328125 -0.125 -0.6875q0 -0.375 0.125 -0.703125q0.140625 -0.328125 0.375 -0.5625q0.25 -0.25 0.5625 -0.390625q0.3125 -0.140625 0.6875 -0.140625zm6.5697937 3.359375l0 -1.984375l3.03125 0l0 -7.640625l-2.640625 1.453125l-0.734375 -1.8125l3.78125 -2.0l1.875 0l0 10.0l2.609375 0l0 1.984375l-7.921875 0zm18.64795 -6.0q0 1.46875 -0.328125 2.625q-0.3125 1.15625 -0.9375 1.953125q-0.609375 0.796875 -1.5 1.21875q-0.875 0.40625 -2.015625 0.40625q-0.984375 0 -1.8125 -0.34375q-0.828125 -0.34375 -1.4375 -1.078125q-0.59375 -0.75 -0.9375 -1.90625q-0.328125 -1.15625 -0.328125 -2.765625q0 -1.46875 0.3125 -2.625q0.328125 -1.15625 0.9375 -1.953125q0.609375 -0.796875 1.5 -1.21875q0.90625 -0.421875 2.03125 -0.421875q0.984375 0 1.8125 0.34375q0.828125 0.34375 1.421875 1.09375q0.59375 0.734375 0.9375 1.890625q0.34375 1.15625 0.34375 2.78125zm-7.0625 0.03125q0 0.1875 0 0.34375q0 0.15625 0.015625 0.328125l4.46875 -3.234375q-0.3125 -0.890625 -0.84375 -1.328125q-0.515625 -0.4375 -1.234375 -0.4375q-0.5 0 -0.9375 0.265625q-0.4375 0.25 -0.765625 0.796875q-0.328125 0.53125 -0.515625 1.34375q-0.1875 0.8125 -0.1875 1.921875zm4.8125 0.03125q0 -0.140625 -0.015625 -0.296875q0 -0.171875 0 -0.3125l-4.4375 3.203125q0.296875 0.890625 0.8125 1.3125q0.53125 0.421875 1.234375 0.421875q0.515625 0 0.953125 -0.25q0.4375 -0.265625 0.765625 -0.796875q0.328125 -0.546875 0.5 -1.359375q0.1875 -0.8125 0.1875 -1.921875zm12.507263 -0.0625q0 1.46875 -0.328125 2.625q-0.3125 1.15625 -0.9375 1.953125q-0.609375 0.796875 -1.5 1.21875q-0.875 0.40625 -2.015625 0.40625q-0.984375 0 -1.8125 -0.34375q-0.828125 -0.34375 -1.4375 -1.078125q-0.59375 -0.75 -0.9375 -1.90625q-0.328125 -1.15625 -0.328125 -2.765625q0 -1.46875 0.3125 -2.625q0.328125 -1.15625 0.9375 -1.953125q0.609375 -0.796875 1.5 -1.21875q0.90625 -0.421875 2.03125 -0.421875q0.984375 0 1.8125 0.34375q0.828125 0.34375 1.421875 1.09375q0.59375 0.734375 0.9375 1.890625q0.34375 1.15625 0.34375 2.78125zm-7.0625 0.03125q0 0.1875 0 0.34375q0 0.15625 0.015625 0.328125l4.46875 -3.234375q-0.3125 -0.890625 -0.84375 -1.328125q-0.515625 -0.4375 -1.234375 -0.4375q-0.5 0 -0.9375 0.265625q-0.4375 0.25 -0.765625 0.796875q-0.328125 0.53125 -0.515625 1.34375q-0.1875 0.8125 -0.1875 1.921875zm4.8125 0.03125q0 -0.140625 -0.015625 -0.296875q0 -0.171875 0 -0.3125l-4.4375 3.203125q0.296875 0.890625 0.8125 1.3125q0.53125 0.421875 1.234375 0.421875q0.515625 0 0.953125 -0.25q0.4375 -0.265625 0.765625 -0.796875q0.328125 -0.546875 0.5 -1.359375q0.1875 -0.8125 0.1875 -1.921875z" fill-rule="nonzero"/><path fill="#b6d7a8" d="m0.42650917 120.53281l240.59842 0l0 113.38583l-240.59842 0z" fill-rule="evenodd"/><path stroke="#000000" stroke-width="2.0" stroke-linejoin="round" stroke-linecap="butt" d="m0.42650917 120.53281l240.59842 0l0 113.38583l-240.59842 0z" fill-rule="evenodd"/><path fill="#000000" d="m114.089775 160.78635q-0.65625 0.265625 -1.359375 0.390625q-0.6875 0.125 -1.453125 0.125q-1.109375 0 -1.984375 -0.296875q-0.875 -0.296875 -1.484375 -0.890625q-0.609375 -0.59375 -0.9375 -1.46875q-0.3125 -0.875 -0.3125 -2.015625q0 -1.109375 0.34375 -2.015625q0.34375 -0.90625 0.984375 -1.53125q0.640625 -0.640625 1.53125 -0.984375q0.90625 -0.359375 2.0 -0.359375q0.90625 0 1.515625 0.109375q0.625 0.09375 1.109375 0.234375l0 2.15625q-0.5625 -0.28125 -1.21875 -0.4375q-0.65625 -0.15625 -1.25 -0.15625q-0.625 0 -1.125 0.21875q-0.484375 0.203125 -0.828125 0.578125q-0.328125 0.375 -0.515625 0.90625q-0.171875 0.53125 -0.171875 1.171875q0 0.65625 0.1875 1.1875q0.203125 0.53125 0.546875 0.90625q0.359375 0.359375 0.84375 0.5625q0.5 0.1875 1.09375 0.1875q0.296875 0 0.609375 -0.03125q0.328125 -0.046875 0.65625 -0.125q0.328125 -0.078125 0.640625 -0.171875q0.3125 -0.109375 0.578125 -0.21875l0 1.96875zm8.726044 -5.296875q0.015625 -0.515625 -0.046875 -0.875q-0.0625 -0.375 -0.21875 -0.609375q-0.140625 -0.234375 -0.359375 -0.34375q-0.21875 -0.109375 -0.515625 -0.109375q-0.484375 0 -1.015625 0.40625q-0.515625 0.40625 -1.140625 1.328125l0 5.859375l-2.28125 0l0 -9.25l2.015625 0l0.078125 1.34375q0.234375 -0.359375 0.515625 -0.640625q0.28125 -0.28125 0.625 -0.484375q0.359375 -0.203125 0.78125 -0.3125q0.4375 -0.109375 0.953125 -0.109375q0.703125 0 1.234375 0.25q0.546875 0.234375 0.90625 0.703125q0.375 0.46875 0.546875 1.1875q0.1875 0.71875 0.15625 1.65625l-2.234375 0zm4.4291687 5.65625l0 -1.984375l3.0312576 0l0 -7.640625l-2.6406326 1.453125l-0.734375 -1.8125l3.7812576 -2.0l1.875 0l0 10.0l2.609375 0l0 1.984375l-7.9218826 0z" fill-rule="nonzero"/><path fill="#000000" d="m70.82987 195.14572l0 -1.984375l3.03125 0l0 -7.640625l-2.640625 1.453125l-0.734375 -1.8125l3.78125 -2.0l1.875 0l0 10.0l2.609375 0l0 1.984375l-7.921875 0zm18.647919 -6.0q0 1.46875 -0.328125 2.625q-0.3125 1.15625 -0.9375 1.953125q-0.609375 0.796875 -1.5 1.21875q-0.875 0.40625 -2.015625 0.40625q-0.984375 0 -1.8125 -0.34375q-0.828125 -0.34375 -1.4375 -1.078125q-0.59375 -0.75 -0.9375 -1.90625q-0.328125 -1.15625 -0.328125 -2.765625q0 -1.46875 0.3125 -2.625q0.328125 -1.15625 0.9375 -1.953125q0.609375 -0.796875 1.5 -1.21875q0.90625 -0.421875 2.03125 -0.421875q0.984375 0 1.8125 0.34375q0.828125 0.34375 1.421875 1.09375q0.59375 0.734375 0.9375 1.890625q0.34375 1.15625 0.34375 2.78125zm-7.0625 0.03125q0 0.1875 0 0.34375q0 0.15625 0.015625 0.328125l4.46875 -3.234375q-0.3125 -0.890625 -0.84375 -1.328125q-0.515625 -0.4375 -1.234375 -0.4375q-0.5 0 -0.9375 0.265625q-0.4375 0.25 -0.765625 0.796875q-0.328125 0.53125 -0.515625 1.34375q-0.1875 0.8125 -0.1875 1.921875zm4.8125 0.03125q0 -0.140625 -0.015625 -0.296875q0 -0.171875 0 -0.3125l-4.4375 3.203125q0.296875 0.890625 0.8125 1.3125q0.53125 0.421875 1.234375 0.421875q0.515625 0 0.953125 -0.25q0.4375 -0.265625 0.765625 -0.796875q0.328125 -0.546875 0.5 -1.359375q0.1875 -0.8125 0.1875 -1.921875zm7.8041687 2.578125q0.375 0 0.703125 0.140625q0.328125 0.140625 0.5625 0.390625q0.25 0.234375 0.390625 0.5625q0.140625 0.328125 0.140625 0.703125q0 0.359375 -0.140625 0.6875q-0.140625 0.3125 -0.390625 0.5625q-0.234375 0.234375 -0.5625 0.375q-0.328125 0.140625 -0.703125 0.140625q-0.375 0 -0.6875 -0.140625q-0.3125 -0.140625 -0.5625 -0.375q-0.234375 -0.25 -0.375 -0.5625q-0.125 -0.328125 -0.125 -0.6875q0 -0.375 0.125 -0.703125q0.140625 -0.328125 0.375 -0.5625q0.25 -0.25 0.5625 -0.390625q0.3125 -0.140625 0.6875 -0.140625zm6.5697937 3.359375l0 -1.984375l3.03125 0l0 -7.640625l-2.640625 1.453125l-0.734375 -1.8125l3.78125 -2.0l1.875 0l0 10.0l2.609375 0l0 1.984375l-7.921875 0zm18.647919 -6.0q0 1.46875 -0.328125 2.625q-0.3125 1.15625 -0.9375 1.953125q-0.609375 0.796875 -1.5 1.21875q-0.875 0.40625 -2.015625 0.40625q-0.984375 0 -1.8125 -0.34375q-0.828125 -0.34375 -1.4375 -1.078125q-0.59375 -0.75 -0.9375 -1.90625q-0.328125 -1.15625 -0.328125 -2.765625q0 -1.46875 0.3125 -2.625q0.328125 -1.15625 0.9375 -1.953125q0.609375 -0.796875 1.5 -1.21875q0.90625 -0.421875 2.03125 -0.421875q0.984375 0 1.8125 0.34375q0.828125 0.34375 1.421875 1.09375q0.59375 0.734375 0.9375 1.890625q0.34375 1.15625 0.34375 2.78125zm-7.0625 0.03125q0 0.1875 0 0.34375q0 0.15625 0.015625 0.328125l4.46875 -3.234375q-0.3125 -0.890625 -0.84375 -1.328125q-0.515625 -0.4375 -1.234375 -0.4375q-0.5 0 -0.9375 0.265625q-0.4375 0.25 -0.765625 0.796875q-0.328125 0.53125 -0.515625 1.34375q-0.1875 0.8125 -0.1875 1.921875zm4.8125 0.03125q0 -0.140625 -0.015625 -0.296875q0 -0.171875 0 -0.3125l-4.4375 3.203125q0.296875 0.890625 0.8125 1.3125q0.53125 0.421875 1.234375 0.421875q0.515625 0 0.953125 -0.25q0.4375 -0.265625 0.765625 -0.796875q0.328125 -0.546875 0.5 -1.359375q0.1875 -0.8125 0.1875 -1.921875zm7.8041687 2.578125q0.375 0 0.703125 0.140625q0.328125 0.140625 0.5625 0.390625q0.25 0.234375 0.390625 0.5625q0.140625 0.328125 0.140625 0.703125q0 0.359375 -0.140625 0.6875q-0.140625 0.3125 -0.390625 0.5625q-0.234375 0.234375 -0.5625 0.375q-0.328125 0.140625 -0.703125 0.140625q-0.375 0 -0.6875 -0.140625q-0.3125 -0.140625 -0.5625 -0.375q-0.234375 -0.25 -0.375 -0.5625q-0.125 -0.328125 -0.125 -0.6875q0 -0.375 0.125 -0.703125q0.140625 -0.328125 0.375 -0.5625q0.25 -0.25 0.5625 -0.390625q0.3125 -0.140625 0.6875 -0.140625zm6.5698013 3.359375l0 -1.984375l3.03125 0l0 -7.640625l-2.640625 1.453125l-0.734375 -1.8125l3.78125 -2.0l1.875 0l0 10.0l2.609375 0l0 1.984375l-7.921875 0zm10.257294 0l0 -1.984375l3.03125 0l0 -7.640625l-2.640625 1.453125l-0.734375 -1.8125l3.78125 -2.0l1.875 0l0 10.0l2.609375 0l0 1.984375l-7.921875 0zm13.944794 -3.359375q0.375 0 0.703125 0.140625q0.328125 0.140625 0.5625 0.390625q0.25 0.234375 0.390625 0.5625q0.140625 0.328125 0.140625 0.703125q0 0.359375 -0.140625 0.6875q-0.140625 0.3125 -0.390625 0.5625q-0.234375 0.234375 -0.5625 0.375q-0.328125 0.140625 -0.703125 0.140625q-0.375 0 -0.6875 -0.140625q-0.3125 -0.140625 -0.5625 -0.375q-0.234375 -0.25 -0.375 -0.5625q-0.125 -0.328125 -0.125 -0.6875q0 -0.375 0.125 -0.703125q0.140625 -0.328125 0.375 -0.5625q0.25 -0.25 0.5625 -0.390625q0.3125 -0.140625 0.6875 -0.140625zm6.5697937 3.359375l0 -1.984375l3.03125 0l0 -7.640625l-2.640625 1.453125l-0.734375 -1.8125l3.78125 -2.0l1.875 0l0 10.0l2.609375 0l0 1.984375l-7.921875 0z" fill-rule="nonzero"/><path fill="#b6d7a8" d="m241.02493 120.53281l240.59842 0l0 113.38583l-240.59842 0z" fill-rule="evenodd"/><path stroke="#000000" stroke-width="2.0" stroke-linejoin="round" stroke-linecap="butt" d="m241.02493 120.53281l240.59842 0l0 113.38583l-240.59842 0z" fill-rule="evenodd"/><path fill="#000000" d="m354.6882 160.78635q-0.65625 0.265625 -1.359375 0.390625q-0.6875 0.125 -1.453125 0.125q-1.109375 0 -1.984375 -0.296875q-0.875 -0.296875 -1.484375 -0.890625q-0.609375 -0.59375 -0.9375 -1.46875q-0.3125 -0.875 -0.3125 -2.015625q0 -1.109375 0.34375 -2.015625q0.34375 -0.90625 0.984375 -1.53125q0.640625 -0.640625 1.53125 -0.984375q0.90625 -0.359375 2.0 -0.359375q0.90625 0 1.515625 0.109375q0.625 0.09375 1.109375 0.234375l0 2.15625q-0.5625 -0.28125 -1.21875 -0.4375q-0.65625 -0.15625 -1.25 -0.15625q-0.625 0 -1.125 0.21875q-0.484375 0.203125 -0.828125 0.578125q-0.328125 0.375 -0.515625 0.90625q-0.171875 0.53125 -0.171875 1.171875q0 0.65625 0.1875 1.1875q0.203125 0.53125 0.546875 0.90625q0.359375 0.359375 0.84375 0.5625q0.5 0.1875 1.09375 0.1875q0.296875 0 0.609375 -0.03125q0.328125 -0.046875 0.65625 -0.125q0.328125 -0.078125 0.640625 -0.171875q0.3125 -0.109375 0.578125 -0.21875l0 1.96875zm8.726044 -5.296875q0.015625 -0.515625 -0.046875 -0.875q-0.0625 -0.375 -0.21875 -0.609375q-0.140625 -0.234375 -0.359375 -0.34375q-0.21875 -0.109375 -0.515625 -0.109375q-0.484375 0 -1.015625 0.40625q-0.515625 0.40625 -1.140625 1.328125l0 5.859375l-2.28125 0l0 -9.25l2.015625 0l0.078125 1.34375q0.234375 -0.359375 0.515625 -0.640625q0.28125 -0.28125 0.625 -0.484375q0.359375 -0.203125 0.78125 -0.3125q0.4375 -0.109375 0.953125 -0.109375q0.703125 0 1.234375 0.25q0.546875 0.234375 0.90625 0.703125q0.375 0.46875 0.546875 1.1875q0.1875 0.71875 0.15625 1.65625l-2.234375 0zm4.4291687 5.65625l0 -1.984375l3.03125 0l0 -7.640625l-2.640625 1.453125l-0.734375 -1.8125l3.78125 -2.0l1.875 0l0 10.0l2.609375 0l0 1.984375l-7.921875 0z" fill-rule="nonzero"/><path fill="#000000" d="m311.4283 195.14572l0 -1.984375l3.03125 0l0 -7.640625l-2.640625 1.453125l-0.734375 -1.8125l3.78125 -2.0l1.875 0l0 10.0l2.609375 0l0 1.984375l-7.921875 0zm18.647919 -6.0q0 1.46875 -0.328125 2.625q-0.3125 1.15625 -0.9375 1.953125q-0.609375 0.796875 -1.5 1.21875q-0.875 0.40625 -2.015625 0.40625q-0.984375 0 -1.8125 -0.34375q-0.828125 -0.34375 -1.4375 -1.078125q-0.59375 -0.75 -0.9375 -1.90625q-0.328125 -1.15625 -0.328125 -2.765625q0 -1.46875 0.3125 -2.625q0.328125 -1.15625 0.9375 -1.953125q0.609375 -0.796875 1.5 -1.21875q0.90625 -0.421875 2.03125 -0.421875q0.984375 0 1.8125 0.34375q0.828125 0.34375 1.421875 1.09375q0.59375 0.734375 0.9375 1.890625q0.34375 1.15625 0.34375 2.78125zm-7.0625 0.03125q0 0.1875 0 0.34375q0 0.15625 0.015625 0.328125l4.46875 -3.234375q-0.3125 -0.890625 -0.84375 -1.328125q-0.515625 -0.4375 -1.234375 -0.4375q-0.5 0 -0.9375 0.265625q-0.4375 0.25 -0.765625 0.796875q-0.328125 0.53125 -0.515625 1.34375q-0.1875 0.8125 -0.1875 1.921875zm4.8125 0.03125q0 -0.140625 -0.015625 -0.296875q0 -0.171875 0 -0.3125l-4.4375 3.203125q0.296875 0.890625 0.8125 1.3125q0.53125 0.421875 1.234375 0.421875q0.515625 0 0.953125 -0.25q0.4375 -0.265625 0.765625 -0.796875q0.328125 -0.546875 0.5 -1.359375q0.1875 -0.8125 0.1875 -1.921875zm7.8041687 2.578125q0.375 0 0.703125 0.140625q0.328125 0.140625 0.5625 0.390625q0.25 0.234375 0.390625 0.5625q0.140625 0.328125 0.140625 0.703125q0 0.359375 -0.140625 0.6875q-0.140625 0.3125 -0.390625 0.5625q-0.234375 0.234375 -0.5625 0.375q-0.328125 0.140625 -0.703125 0.140625q-0.375 0 -0.6875 -0.140625q-0.3125 -0.140625 -0.5625 -0.375q-0.234375 -0.25 -0.375 -0.5625q-0.125 -0.328125 -0.125 -0.6875q0 -0.375 0.125 -0.703125q0.140625 -0.328125 0.375 -0.5625q0.25 -0.25 0.5625 -0.390625q0.3125 -0.140625 0.6875 -0.140625zm6.5697937 3.359375l0 -1.984375l3.03125 0l0 -7.640625l-2.640625 1.453125l-0.734375 -1.8125l3.78125 -2.0l1.875 0l0 10.0l2.609375 0l0 1.984375l-7.921875 0zm18.647919 -6.0q0 1.46875 -0.328125 2.625q-0.3125 1.15625 -0.9375 1.953125q-0.609375 0.796875 -1.5 1.21875q-0.875 0.40625 -2.015625 0.40625q-0.984375 0 -1.8125 -0.34375q-0.828125 -0.34375 -1.4375 -1.078125q-0.59375 -0.75 -0.9375 -1.90625q-0.328125 -1.15625 -0.328125 -2.765625q0 -1.46875 0.3125 -2.625q0.328125 -1.15625 0.9375 -1.953125q0.609375 -0.796875 1.5 -1.21875q0.90625 -0.421875 2.03125 -0.421875q0.984375 0 1.8125 0.34375q0.828125 0.34375 1.421875 1.09375q0.59375 0.734375 0.9375 1.890625q0.34375 1.15625 0.34375 2.78125zm-7.0625 0.03125q0 0.1875 0 0.34375q0 0.15625 0.015625 0.328125l4.46875 -3.234375q-0.3125 -0.890625 -0.84375 -1.328125q-0.515625 -0.4375 -1.234375 -0.4375q-0.5 0 -0.9375 0.265625q-0.4375 0.25 -0.765625 0.796875q-0.328125 0.53125 -0.515625 1.34375q-0.1875 0.8125 -0.1875 1.921875zm4.8125 0.03125q0 -0.140625 -0.015625 -0.296875q0 -0.171875 0 -0.3125l-4.4375 3.203125q0.296875 0.890625 0.8125 1.3125q0.53125 0.421875 1.234375 0.421875q0.515625 0 0.953125 -0.25q0.4375 -0.265625 0.765625 -0.796875q0.328125 -0.546875 0.5 -1.359375q0.1875 -0.8125 0.1875 -1.921875zm7.8041687 2.578125q0.375 0 0.703125 0.140625q0.328125 0.140625 0.5625 0.390625q0.25 0.234375 0.390625 0.5625q0.140625 0.328125 0.140625 0.703125q0 0.359375 -0.140625 0.6875q-0.140625 0.3125 -0.390625 0.5625q-0.234375 0.234375 -0.5625 0.375q-0.328125 0.140625 -0.703125 0.140625q-0.375 0 -0.6875 -0.140625q-0.3125 -0.140625 -0.5625 -0.375q-0.234375 -0.25 -0.375 -0.5625q-0.125 -0.328125 -0.125 -0.6875q0 -0.375 0.125 -0.703125q0.140625 -0.328125 0.375 -0.5625q0.25 -0.25 0.5625 -0.390625q0.3125 -0.140625 0.6875 -0.140625zm6.5697937 3.359375l0 -1.984375l3.03125 0l0 -7.640625l-2.640625 1.453125l-0.734375 -1.8125l3.78125 -2.0l1.875 0l0 10.0l2.609375 0l0 1.984375l-7.921875 0zm10.038544 0l0 -1.640625l2.8125 -2.8125q0.796875 -0.796875 1.265625 -1.359375q0.484375 -0.578125 0.75 -1.03125q0.265625 -0.453125 0.34375 -0.828125q0.078125 -0.390625 0.078125 -0.796875q0 -0.34375 -0.109375 -0.640625q-0.109375 -0.3125 -0.328125 -0.53125q-0.203125 -0.21875 -0.53125 -0.34375q-0.3125 -0.140625 -0.71875 -0.140625q-0.703125 0 -1.3125 0.3125q-0.59375 0.296875 -1.125 0.796875l-1.171875 -1.5q0.765625 -0.71875 1.734375 -1.15625q0.96875 -0.4375 2.109375 -0.4375q0.875 0 1.578125 0.234375q0.71875 0.21875 1.21875 0.65625q0.5 0.4375 0.78125 1.09375q0.28125 0.65625 0.28125 1.5q0 0.71875 -0.203125 1.34375q-0.1875 0.609375 -0.546875 1.1875q-0.359375 0.578125 -0.890625 1.171875q-0.53125 0.578125 -1.21875 1.21875l-1.734375 1.65625l5.015625 0l0 2.046875l-8.078125 0zm14.163544 -3.359375q0.375 0 0.703125 0.140625q0.328125 0.140625 0.5625 0.390625q0.25 0.234375 0.390625 0.5625q0.140625 0.328125 0.140625 0.703125q0 0.359375 -0.140625 0.6875q-0.140625 0.3125 -0.390625 0.5625q-0.234375 0.234375 -0.5625 0.375q-0.328125 0.140625 -0.703125 0.140625q-0.375 0 -0.6875 -0.140625q-0.3125 -0.140625 -0.5625 -0.375q-0.234375 -0.25 -0.375 -0.5625q-0.125 -0.328125 -0.125 -0.6875q0 -0.375 0.125 -0.703125q0.140625 -0.328125 0.375 -0.5625q0.25 -0.25 0.5625 -0.390625q0.3125 -0.140625 0.6875 -0.140625zm6.5697937 3.359375l0 -1.984375l3.03125 0l0 -7.640625l-2.640625 1.453125l-0.734375 -1.8125l3.78125 -2.0l1.875 0l0 10.0l2.609375 0l0 1.984375l-7.921875 0z" fill-rule="nonzero"/><path fill="#ffe599" d="m481.62335 120.53281l240.59845 0l0 113.38583l-240.59845 0z" fill-rule="evenodd"/><path stroke="#000000" stroke-width="2.0" stroke-linejoin="round" stroke-linecap="butt" d="m481.62335 120.53281l240.59845 0l0 113.38583l-240.59845 0z" fill-rule="evenodd"/><path fill="#000000" d="m595.2866 160.78635q-0.65625 0.265625 -1.359375 0.390625q-0.6875 0.125 -1.453125 0.125q-1.109375 0 -1.984375 -0.296875q-0.875 -0.296875 -1.484375 -0.890625q-0.609375 -0.59375 -0.9375 -1.46875q-0.3125 -0.875 -0.3125 -2.015625q0 -1.109375 0.34375 -2.015625q0.34375 -0.90625 0.984375 -1.53125q0.640625 -0.640625 1.53125 -0.984375q0.90625 -0.359375 2.0 -0.359375q0.90625 0 1.515625 0.109375q0.625 0.09375 1.109375 0.234375l0 2.15625q-0.5625 -0.28125 -1.21875 -0.4375q-0.65625 -0.15625 -1.25 -0.15625q-0.625 0 -1.125 0.21875q-0.484375 0.203125 -0.828125 0.578125q-0.328125 0.375 -0.515625 0.90625q-0.171875 0.53125 -0.171875 1.171875q0 0.65625 0.1875 1.1875q0.203125 0.53125 0.546875 0.90625q0.359375 0.359375 0.84375 0.5625q0.5 0.1875 1.09375 0.1875q0.296875 0 0.609375 -0.03125q0.328125 -0.046875 0.65625 -0.125q0.328125 -0.078125 0.640625 -0.171875q0.3125 -0.109375 0.578125 -0.21875l0 1.96875zm8.726074 -5.296875q0.015625 -0.515625 -0.046875 -0.875q-0.0625 -0.375 -0.21875 -0.609375q-0.140625 -0.234375 -0.359375 -0.34375q-0.21875 -0.109375 -0.515625 -0.109375q-0.484375 0 -1.015625 0.40625q-0.515625 0.40625 -1.140625 1.328125l0 5.859375l-2.28125 0l0 -9.25l2.015625 0l0.078125 1.34375q0.234375 -0.359375 0.515625 -0.640625q0.28125 -0.28125 0.625 -0.484375q0.359375 -0.203125 0.78125 -0.3125q0.4375 -0.109375 0.953125 -0.109375q0.703125 0 1.234375 0.25q0.546875 0.234375 0.90625 0.703125q0.375 0.46875 0.546875 1.1875q0.1875 0.71875 0.15625 1.65625l-2.234375 0zm4.210388 5.65625l0 -1.640625l2.8125 -2.8125q0.796875 -0.796875 1.265625 -1.359375q0.484375 -0.578125 0.75 -1.03125q0.265625 -0.453125 0.34375 -0.828125q0.078125 -0.390625 0.078125 -0.796875q0 -0.34375 -0.109375 -0.640625q-0.109375 -0.3125 -0.328125 -0.53125q-0.203125 -0.21875 -0.53125 -0.34375q-0.3125 -0.140625 -0.71875 -0.140625q-0.703125 0 -1.3125 0.3125q-0.59375 0.296875 -1.125 0.796875l-1.171875 -1.5q0.765625 -0.71875 1.734375 -1.15625q0.96875 -0.4375 2.109375 -0.4375q0.875 0 1.578125 0.234375q0.71875 0.21875 1.21875 0.65625q0.5 0.4375 0.78125 1.09375q0.28125 0.65625 0.28125 1.5q0 0.71875 -0.203125 1.34375q-0.1875 0.609375 -0.546875 1.1875q-0.359375 0.578125 -0.890625 1.171875q-0.53125 0.578125 -1.21875 1.21875l-1.734375 1.65625l5.015625 0l0 2.046875l-8.078125 0z" fill-rule="nonzero"/><path fill="#000000" d="m552.02673 195.14572l0 -1.984375l3.03125 0l0 -7.640625l-2.640625 1.453125l-0.734375 -1.8125l3.78125 -2.0l1.875 0l0 10.0l2.609375 0l0 1.984375l-7.921875 0zm18.647888 -6.0q0 1.46875 -0.328125 2.625q-0.3125 1.15625 -0.9375 1.953125q-0.609375 0.796875 -1.5 1.21875q-0.875 0.40625 -2.015625 0.40625q-0.984375 0 -1.8125 -0.34375q-0.828125 -0.34375 -1.4375 -1.078125q-0.59375 -0.75 -0.9375 -1.90625q-0.328125 -1.15625 -0.328125 -2.765625q0 -1.46875 0.3125 -2.625q0.328125 -1.15625 0.9375 -1.953125q0.609375 -0.796875 1.5 -1.21875q0.90625 -0.421875 2.03125 -0.421875q0.984375 0 1.8125 0.34375q0.828125 0.34375 1.421875 1.09375q0.59375 0.734375 0.9375 1.890625q0.34375 1.15625 0.34375 2.78125zm-7.0625 0.03125q0 0.1875 0 0.34375q0 0.15625 0.015625 0.328125l4.46875 -3.234375q-0.3125 -0.890625 -0.84375 -1.328125q-0.515625 -0.4375 -1.234375 -0.4375q-0.5 0 -0.9375 0.265625q-0.4375 0.25 -0.765625 0.796875q-0.328125 0.53125 -0.515625 1.34375q-0.1875 0.8125 -0.1875 1.921875zm4.8125 0.03125q0 -0.140625 -0.015625 -0.296875q0 -0.171875 0 -0.3125l-4.4375 3.203125q0.296875 0.890625 0.8125 1.3125q0.53125 0.421875 1.234375 0.421875q0.515625 0 0.953125 -0.25q0.4375 -0.265625 0.765625 -0.796875q0.328125 -0.546875 0.5 -1.359375q0.1875 -0.8125 0.1875 -1.921875zm7.804199 2.578125q0.375 0 0.703125 0.140625q0.328125 0.140625 0.5625 0.390625q0.25 0.234375 0.390625 0.5625q0.140625 0.328125 0.140625 0.703125q0 0.359375 -0.140625 0.6875q-0.140625 0.3125 -0.390625 0.5625q-0.234375 0.234375 -0.5625 0.375q-0.328125 0.140625 -0.703125 0.140625q-0.375 0 -0.6875 -0.140625q-0.3125 -0.140625 -0.5625 -0.375q-0.234375 -0.25 -0.375 -0.5625q-0.125 -0.328125 -0.125 -0.6875q0 -0.375 0.125 -0.703125q0.140625 -0.328125 0.375 -0.5625q0.25 -0.25 0.5625 -0.390625q0.3125 -0.140625 0.6875 -0.140625zm6.569763 3.359375l0 -1.984375l3.03125 0l0 -7.640625l-2.640625 1.453125l-0.734375 -1.8125l3.78125 -2.0l1.875 0l0 10.0l2.609375 0l0 1.984375l-7.921875 0zm18.64795 -6.0q0 1.46875 -0.328125 2.625q-0.3125 1.15625 -0.9375 1.953125q-0.609375 0.796875 -1.5 1.21875q-0.875 0.40625 -2.015625 0.40625q-0.984375 0 -1.8125 -0.34375q-0.828125 -0.34375 -1.4375 -1.078125q-0.59375 -0.75 -0.9375 -1.90625q-0.328125 -1.15625 -0.328125 -2.765625q0 -1.46875 0.3125 -2.625q0.328125 -1.15625 0.9375 -1.953125q0.609375 -0.796875 1.5 -1.21875q0.90625 -0.421875 2.03125 -0.421875q0.984375 0 1.8125 0.34375q0.828125 0.34375 1.421875 1.09375q0.59375 0.734375 0.9375 1.890625q0.34375 1.15625 0.34375 2.78125zm-7.0625 0.03125q0 0.1875 0 0.34375q0 0.15625 0.015625 0.328125l4.46875 -3.234375q-0.3125 -0.890625 -0.84375 -1.328125q-0.515625 -0.4375 -1.234375 -0.4375q-0.5 0 -0.9375 0.265625q-0.4375 0.25 -0.765625 0.796875q-0.328125 0.53125 -0.515625 1.34375q-0.1875 0.8125 -0.1875 1.921875zm4.8125 0.03125q0 -0.140625 -0.015625 -0.296875q0 -0.171875 0 -0.3125l-4.4375 3.203125q0.296875 0.890625 0.8125 1.3125q0.53125 0.421875 1.234375 0.421875q0.515625 0 0.953125 -0.25q0.4375 -0.265625 0.765625 -0.796875q0.328125 -0.546875 0.5 -1.359375q0.1875 -0.8125 0.1875 -1.921875zm7.804138 2.578125q0.375 0 0.703125 0.140625q0.328125 0.140625 0.5625 0.390625q0.25 0.234375 0.390625 0.5625q0.140625 0.328125 0.140625 0.703125q0 0.359375 -0.140625 0.6875q-0.140625 0.3125 -0.390625 0.5625q-0.234375 0.234375 -0.5625 0.375q-0.328125 0.140625 -0.703125 0.140625q-0.375 0 -0.6875 -0.140625q-0.3125 -0.140625 -0.5625 -0.375q-0.234375 -0.25 -0.375 -0.5625q-0.125 -0.328125 -0.125 -0.6875q0 -0.375 0.125 -0.703125q0.140625 -0.328125 0.375 -0.5625q0.25 -0.25 0.5625 -0.390625q0.3125 -0.140625 0.6875 -0.140625zm6.351074 3.359375l0 -1.640625l2.8125 -2.8125q0.796875 -0.796875 1.265625 -1.359375q0.484375 -0.578125 0.75 -1.03125q0.265625 -0.453125 0.34375 -0.828125q0.078125 -0.390625 0.078125 -0.796875q0 -0.34375 -0.109375 -0.640625q-0.109375 -0.3125 -0.328125 -0.53125q-0.203125 -0.21875 -0.53125 -0.34375q-0.3125 -0.140625 -0.71875 -0.140625q-0.703125 0 -1.3125 0.3125q-0.59375 0.296875 -1.125 0.796875l-1.171875 -1.5q0.765625 -0.71875 1.734375 -1.15625q0.96875 -0.4375 2.109375 -0.4375q0.875 0 1.578125 0.234375q0.71875 0.21875 1.21875 0.65625q0.5 0.4375 0.78125 1.09375q0.28125 0.65625 0.28125 1.5q0 0.71875 -0.203125 1.34375q-0.1875 0.609375 -0.546875 1.1875q-0.359375 0.578125 -0.890625 1.171875q-0.53125 0.578125 -1.21875 1.21875l-1.734375 1.65625l5.015625 0l0 2.046875l-8.078125 0zm10.476013 0l0 -1.984375l3.03125 0l0 -7.640625l-2.640625 1.453125l-0.734375 -1.8125l3.78125 -2.0l1.875 0l0 10.0l2.609375 0l0 1.984375l-7.921875 0zm13.944824 -3.359375q0.375 0 0.703125 0.140625q0.328125 0.140625 0.5625 0.390625q0.25 0.234375 0.390625 0.5625q0.140625 0.328125 0.140625 0.703125q0 0.359375 -0.140625 0.6875q-0.140625 0.3125 -0.390625 0.5625q-0.234375 0.234375 -0.5625 0.375q-0.328125 0.140625 -0.703125 0.140625q-0.375 0 -0.6875 -0.140625q-0.3125 -0.140625 -0.5625 -0.375q-0.234375 -0.25 -0.375 -0.5625q-0.125 -0.328125 -0.125 -0.6875q0 -0.375 0.125 -0.703125q0.140625 -0.328125 0.375 -0.5625q0.25 -0.25 0.5625 -0.390625q0.3125 -0.140625 0.6875 -0.140625zm6.569763 3.359375l0 -1.984375l3.03125 0l0 -7.640625l-2.640625 1.453125l-0.734375 -1.8125l3.78125 -2.0l1.875 0l0 10.0l2.609375 0l0 1.984375l-7.921875 0z" fill-rule="nonzero"/><path fill="#ffe599" d="m718.1221 120.53281l240.59839 0l0 113.38583l-240.59839 0z" fill-rule="evenodd"/><path stroke="#000000" stroke-width="2.0" stroke-linejoin="round" stroke-linecap="butt" d="m718.1221 120.53281l240.59839 0l0 113.38583l-240.59839 0z" fill-rule="evenodd"/><path fill="#000000" d="m831.78534 160.78635q-0.65625 0.265625 -1.359375 0.390625q-0.6875 0.125 -1.453125 0.125q-1.109375 0 -1.984375 -0.296875q-0.875 -0.296875 -1.484375 -0.890625q-0.609375 -0.59375 -0.9375 -1.46875q-0.3125 -0.875 -0.3125 -2.015625q0 -1.109375 0.34375 -2.015625q0.34375 -0.90625 0.984375 -1.53125q0.640625 -0.640625 1.53125 -0.984375q0.90625 -0.359375 2.0 -0.359375q0.90625 0 1.515625 0.109375q0.625 0.09375 1.109375 0.234375l0 2.15625q-0.5625 -0.28125 -1.21875 -0.4375q-0.65625 -0.15625 -1.25 -0.15625q-0.625 0 -1.125 0.21875q-0.484375 0.203125 -0.828125 0.578125q-0.328125 0.375 -0.515625 0.90625q-0.171875 0.53125 -0.171875 1.171875q0 0.65625 0.1875 1.1875q0.203125 0.53125 0.546875 0.90625q0.359375 0.359375 0.84375 0.5625q0.5 0.1875 1.09375 0.1875q0.296875 0 0.609375 -0.03125q0.328125 -0.046875 0.65625 -0.125q0.328125 -0.078125 0.640625 -0.171875q0.3125 -0.109375 0.578125 -0.21875l0 1.96875zm8.726013 -5.296875q0.015625 -0.515625 -0.046875 -0.875q-0.0625 -0.375 -0.21875 -0.609375q-0.140625 -0.234375 -0.359375 -0.34375q-0.21875 -0.109375 -0.515625 -0.109375q-0.484375 0 -1.015625 0.40625q-0.515625 0.40625 -1.140625 1.328125l0 5.859375l-2.28125 0l0 -9.25l2.015625 0l0.078125 1.34375q0.234375 -0.359375 0.515625 -0.640625q0.28125 -0.28125 0.625 -0.484375q0.359375 -0.203125 0.78125 -0.3125q0.4375 -0.109375 0.953125 -0.109375q0.703125 0 1.234375 0.25q0.546875 0.234375 0.90625 0.703125q0.375 0.46875 0.546875 1.1875q0.1875 0.71875 0.15625 1.65625l-2.234375 0zm4.210449 5.65625l0 -1.640625l2.8125 -2.8125q0.796875 -0.796875 1.265625 -1.359375q0.484375 -0.578125 0.75 -1.03125q0.265625 -0.453125 0.34375 -0.828125q0.078125 -0.390625 0.078125 -0.796875q0 -0.34375 -0.109375 -0.640625q-0.109375 -0.3125 -0.328125 -0.53125q-0.203125 -0.21875 -0.53125 -0.34375q-0.3125 -0.140625 -0.71875 -0.140625q-0.703125 0 -1.3125 0.3125q-0.59375 0.296875 -1.125 0.796875l-1.171875 -1.5q0.765625 -0.71875 1.734375 -1.15625q0.96875 -0.4375 2.109375 -0.4375q0.875 0 1.578125 0.234375q0.71875 0.21875 1.21875 0.65625q0.5 0.4375 0.78125 1.09375q0.28125 0.65625 0.28125 1.5q0 0.71875 -0.203125 1.34375q-0.1875 0.609375 -0.546875 1.1875q-0.359375 0.578125 -0.890625 1.171875q-0.53125 0.578125 -1.21875 1.21875l-1.734375 1.65625l5.015625 0l0 2.046875l-8.078125 0z" fill-rule="nonzero"/><path fill="#000000" d="m788.5254 195.14572l0 -1.984375l3.03125 0l0 -7.640625l-2.640625 1.453125l-0.734375 -1.8125l3.78125 -2.0l1.875 0l0 10.0l2.609375 0l0 1.984375l-7.921875 0zm18.64795 -6.0q0 1.46875 -0.328125 2.625q-0.3125 1.15625 -0.9375 1.953125q-0.609375 0.796875 -1.5 1.21875q-0.875 0.40625 -2.015625 0.40625q-0.984375 0 -1.8125 -0.34375q-0.828125 -0.34375 -1.4375 -1.078125q-0.59375 -0.75 -0.9375 -1.90625q-0.328125 -1.15625 -0.328125 -2.765625q0 -1.46875 0.3125 -2.625q0.328125 -1.15625 0.9375 -1.953125q0.609375 -0.796875 1.5 -1.21875q0.90625 -0.421875 2.03125 -0.421875q0.984375 0 1.8125 0.34375q0.828125 0.34375 1.421875 1.09375q0.59375 0.734375 0.9375 1.890625q0.34375 1.15625 0.34375 2.78125zm-7.0625 0.03125q0 0.1875 0 0.34375q0 0.15625 0.015625 0.328125l4.46875 -3.234375q-0.3125 -0.890625 -0.84375 -1.328125q-0.515625 -0.4375 -1.234375 -0.4375q-0.5 0 -0.9375 0.265625q-0.4375 0.25 -0.765625 0.796875q-0.328125 0.53125 -0.515625 1.34375q-0.1875 0.8125 -0.1875 1.921875zm4.8125 0.03125q0 -0.140625 -0.015625 -0.296875q0 -0.171875 0 -0.3125l-4.4375 3.203125q0.296875 0.890625 0.8125 1.3125q0.53125 0.421875 1.234375 0.421875q0.515625 0 0.953125 -0.25q0.4375 -0.265625 0.765625 -0.796875q0.328125 -0.546875 0.5 -1.359375q0.1875 -0.8125 0.1875 -1.921875zm7.804138 2.578125q0.375 0 0.703125 0.140625q0.328125 0.140625 0.5625 0.390625q0.25 0.234375 0.390625 0.5625q0.140625 0.328125 0.140625 0.703125q0 0.359375 -0.140625 0.6875q-0.140625 0.3125 -0.390625 0.5625q-0.234375 0.234375 -0.5625 0.375q-0.328125 0.140625 -0.703125 0.140625q-0.375 0 -0.6875 -0.140625q-0.3125 -0.140625 -0.5625 -0.375q-0.234375 -0.25 -0.375 -0.5625q-0.125 -0.328125 -0.125 -0.6875q0 -0.375 0.125 -0.703125q0.140625 -0.328125 0.375 -0.5625q0.25 -0.25 0.5625 -0.390625q0.3125 -0.140625 0.6875 -0.140625zm6.569824 3.359375l0 -1.984375l3.03125 0l0 -7.640625l-2.640625 1.453125l-0.734375 -1.8125l3.78125 -2.0l1.875 0l0 10.0l2.609375 0l0 1.984375l-7.921875 0zm18.647888 -6.0q0 1.46875 -0.328125 2.625q-0.3125 1.15625 -0.9375 1.953125q-0.609375 0.796875 -1.5 1.21875q-0.875 0.40625 -2.015625 0.40625q-0.984375 0 -1.8125 -0.34375q-0.828125 -0.34375 -1.4375 -1.078125q-0.59375 -0.75 -0.9375 -1.90625q-0.328125 -1.15625 -0.328125 -2.765625q0 -1.46875 0.3125 -2.625q0.328125 -1.15625 0.9375 -1.953125q0.609375 -0.796875 1.5 -1.21875q0.90625 -0.421875 2.03125 -0.421875q0.984375 0 1.8125 0.34375q0.828125 0.34375 1.421875 1.09375q0.59375 0.734375 0.9375 1.890625q0.34375 1.15625 0.34375 2.78125zm-7.0625 0.03125q0 0.1875 0 0.34375q0 0.15625 0.015625 0.328125l4.46875 -3.234375q-0.3125 -0.890625 -0.84375 -1.328125q-0.515625 -0.4375 -1.234375 -0.4375q-0.5 0 -0.9375 0.265625q-0.4375 0.25 -0.765625 0.796875q-0.328125 0.53125 -0.515625 1.34375q-0.1875 0.8125 -0.1875 1.921875zm4.8125 0.03125q0 -0.140625 -0.015625 -0.296875q0 -0.171875 0 -0.3125l-4.4375 3.203125q0.296875 0.890625 0.8125 1.3125q0.53125 0.421875 1.234375 0.421875q0.515625 0 0.953125 -0.25q0.4375 -0.265625 0.765625 -0.796875q0.328125 -0.546875 0.5 -1.359375q0.1875 -0.8125 0.1875 -1.921875zm7.804199 2.578125q0.375 0 0.703125 0.140625q0.328125 0.140625 0.5625 0.390625q0.25 0.234375 0.390625 0.5625q0.140625 0.328125 0.140625 0.703125q0 0.359375 -0.140625 0.6875q-0.140625 0.3125 -0.390625 0.5625q-0.234375 0.234375 -0.5625 0.375q-0.328125 0.140625 -0.703125 0.140625q-0.375 0 -0.6875 -0.140625q-0.3125 -0.140625 -0.5625 -0.375q-0.234375 -0.25 -0.375 -0.5625q-0.125 -0.328125 -0.125 -0.6875q0 -0.375 0.125 -0.703125q0.140625 -0.328125 0.375 -0.5625q0.25 -0.25 0.5625 -0.390625q0.3125 -0.140625 0.6875 -0.140625zm6.351013 3.359375l0 -1.640625l2.8125 -2.8125q0.796875 -0.796875 1.265625 -1.359375q0.484375 -0.578125 0.75 -1.03125q0.265625 -0.453125 0.34375 -0.828125q0.078125 -0.390625 0.078125 -0.796875q0 -0.34375 -0.109375 -0.640625q-0.109375 -0.3125 -0.328125 -0.53125q-0.203125 -0.21875 -0.53125 -0.34375q-0.3125 -0.140625 -0.71875 -0.140625q-0.703125 0 -1.3125 0.3125q-0.59375 0.296875 -1.125 0.796875l-1.171875 -1.5q0.765625 -0.71875 1.734375 -1.15625q0.96875 -0.4375 2.109375 -0.4375q0.875 0 1.578125 0.234375q0.71875 0.21875 1.21875 0.65625q0.5 0.4375 0.78125 1.09375q0.28125 0.65625 0.28125 1.5q0 0.71875 -0.203125 1.34375q-0.1875 0.609375 -0.546875 1.1875q-0.359375 0.578125 -0.890625 1.171875q-0.53125 0.578125 -1.21875 1.21875l-1.734375 1.65625l5.015625 0l0 2.046875l-8.078125 0zm10.257324 0l0 -1.640625l2.8125 -2.8125q0.796875 -0.796875 1.265625 -1.359375q0.484375 -0.578125 0.75 -1.03125q0.265625 -0.453125 0.34375 -0.828125q0.078125 -0.390625 0.078125 -0.796875q0 -0.34375 -0.109375 -0.640625q-0.109375 -0.3125 -0.328125 -0.53125q-0.203125 -0.21875 -0.53125 -0.34375q-0.3125 -0.140625 -0.71875 -0.140625q-0.703125 0 -1.3125 0.3125q-0.59375 0.296875 -1.125 0.796875l-1.171875 -1.5q0.765625 -0.71875 1.734375 -1.15625q0.96875 -0.4375 2.109375 -0.4375q0.875 0 1.578125 0.234375q0.71875 0.21875 1.21875 0.65625q0.5 0.4375 0.78125 1.09375q0.28125 0.65625 0.28125 1.5q0 0.71875 -0.203125 1.34375q-0.1875 0.609375 -0.546875 1.1875q-0.359375 0.578125 -0.890625 1.171875q-0.53125 0.578125 -1.21875 1.21875l-1.734375 1.65625l5.015625 0l0 2.046875l-8.078125 0zm14.163513 -3.359375q0.375 0 0.703125 0.140625q0.328125 0.140625 0.5625 0.390625q0.25 0.234375 0.390625 0.5625q0.140625 0.328125 0.140625 0.703125q0 0.359375 -0.140625 0.6875q-0.140625 0.3125 -0.390625 0.5625q-0.234375 0.234375 -0.5625 0.375q-0.328125 0.140625 -0.703125 0.140625q-0.375 0 -0.6875 -0.140625q-0.3125 -0.140625 -0.5625 -0.375q-0.234375 -0.25 -0.375 -0.5625q-0.125 -0.328125 -0.125 -0.6875q0 -0.375 0.125 -0.703125q0.140625 -0.328125 0.375 -0.5625q0.25 -0.25 0.5625 -0.390625q0.3125 -0.140625 0.6875 -0.140625zm6.569824 3.359375l0 -1.984375l3.03125 0l0 -7.640625l-2.640625 1.453125l-0.734375 -1.8125l3.78125 -2.0l1.875 0l0 10.0l2.609375 0l0 1.984375l-7.921875 0z" fill-rule="nonzero"/><path fill="#a4c2f4" d="m0.42650917 233.91208l240.59842 0l0 113.38583l-240.59842 0z" fill-rule="evenodd"/><path stroke="#000000" stroke-width="2.0" stroke-linejoin="round" stroke-linecap="butt" d="m0.42650917 233.91208l240.59842 0l0 113.38583l-240.59842 0z" fill-rule="evenodd"/><path fill="#000000" d="m109.78925 263.54062q-0.40625 -0.125 -0.953125 -0.203125q-0.546875 -0.09375 -1.125 -0.09375q-0.390625 0 -0.734375 0.109375q-0.328125 0.09375 -0.578125 0.328125q-0.25 0.21875 -0.390625 0.578125q-0.140625 0.34375 -0.140625 0.84375l0 1.5l3.640625 0l0 1.734375l-3.640625 0l0 6.1875l-2.234375 0l0 -6.1875l-2.6875 0l0 -1.734375l2.6875 0l0 -1.40625q0 -0.984375 0.28125 -1.6875q0.28125 -0.703125 0.796875 -1.15625q0.53125 -0.453125 1.265625 -0.65625q0.75 -0.21875 1.65625 -0.21875q0.609375 0 1.140625 0.078125q0.546875 0.078125 1.015625 0.1875l0 1.796875zm-9.578125 1.734375l0 0zm17.038544 9.25l0 -6.03125q0 -1.515625 -1.125 -1.515625q-0.5625 0 -1.078125 0.453125q-0.515625 0.453125 -1.09375 1.234375l0 5.859375l-2.21875 0l0 -12.875l2.21875 0l0 3.171875l-0.109375 1.671875q0.28125 -0.328125 0.578125 -0.59375q0.296875 -0.28125 0.625 -0.453125q0.34375 -0.1875 0.734375 -0.28125q0.390625 -0.09375 0.859375 -0.09375q0.71875 0 1.234375 0.234375q0.53125 0.234375 0.890625 0.65625q0.359375 0.421875 0.53125 1.015625q0.1875 0.59375 0.1875 1.328125l0 6.21875l-2.234375 0zm10.694794 -5.65625q0.015625 -0.515625 -0.046875 -0.875q-0.0625 -0.375 -0.21875 -0.609375q-0.140625 -0.234375 -0.359375 -0.34375q-0.21875 -0.109375 -0.515625 -0.109375q-0.484375 0 -1.015625 0.40625q-0.515625 0.40625 -1.140625 1.328125l0 5.859375l-2.28125 0l0 -9.25l2.015625 0l0.078125 1.34375q0.234375 -0.359375 0.515625 -0.640625q0.28125 -0.28125 0.625 -0.484375q0.359375 -0.203125 0.78125 -0.3125q0.4375 -0.109375 0.953125 -0.109375q0.7031326 0 1.2343826 0.25q0.546875 0.234375 0.90625 0.703125q0.375 0.46875 0.546875 1.1875q0.1875 0.71875 0.15625 1.65625l-2.2343826 0zm4.4291763 5.65625l0 -1.984375l3.03125 0l0 -7.640625l-2.640625 1.453125l-0.734375 -1.8125l3.78125 -2.0l1.875 0l0 10.0l2.609375 0l0 1.984375l-7.921875 0z" fill-rule="nonzero"/><path fill="#000000" d="m65.701225 308.525l0 -1.984375l3.03125 0l0 -7.640625l-2.640625 1.453125l-0.734375 -1.8125l3.78125 -2.0l1.875 0l0 10.0l2.609375 0l0 1.984375l-7.921875 0zm18.647919 -6.0q0 1.46875 -0.328125 2.625q-0.3125 1.15625 -0.9375 1.953125q-0.609375 0.796875 -1.5 1.21875q-0.875 0.40625 -2.015625 0.40625q-0.984375 0 -1.8125 -0.34375q-0.828125 -0.34375 -1.4375 -1.078125q-0.59375 -0.75 -0.9375 -1.90625q-0.328125 -1.15625 -0.328125 -2.765625q0 -1.46875 0.3125 -2.625q0.328125 -1.15625 0.9375 -1.953125q0.609375 -0.796875 1.5 -1.21875q0.90625 -0.421875 2.03125 -0.421875q0.984375 0 1.8125 0.34375q0.828125 0.34375 1.421875 1.09375q0.59375 0.734375 0.9375 1.890625q0.34375 1.15625 0.34375 2.78125zm-7.0625 0.03125q0 0.1875 0 0.34375q0 0.15625 0.015625 0.328125l4.46875 -3.234375q-0.3125 -0.890625 -0.84375 -1.328125q-0.515625 -0.4375 -1.234375 -0.4375q-0.5 0 -0.9375 0.265625q-0.4375 0.25 -0.765625 0.796875q-0.328125 0.53125 -0.515625 1.34375q-0.1875 0.8125 -0.1875 1.921875zm4.8125 0.03125q0 -0.140625 -0.015625 -0.296875q0 -0.171875 0 -0.3125l-4.4375 3.203125q0.296875 0.890625 0.8125 1.3125q0.53125 0.421875 1.234375 0.421875q0.515625 0 0.953125 -0.25q0.4375 -0.265625 0.765625 -0.796875q0.328125 -0.546875 0.5 -1.359375q0.1875 -0.8125 0.1875 -1.921875zm7.8041687 2.578125q0.375 0 0.703125 0.140625q0.328125 0.140625 0.5625 0.390625q0.25 0.234375 0.390625 0.5625q0.140625 0.328125 0.140625 0.703125q0 0.359375 -0.140625 0.6875q-0.140625 0.3125 -0.390625 0.5625q-0.234375 0.234375 -0.5625 0.375q-0.328125 0.140625 -0.703125 0.140625q-0.375 0 -0.6875 -0.140625q-0.3125 -0.140625 -0.5625 -0.375q-0.234375 -0.25 -0.375 -0.5625q-0.125 -0.328125 -0.125 -0.6875q0 -0.375 0.125 -0.703125q0.140625 -0.328125 0.375 -0.5625q0.25 -0.25 0.5625 -0.390625q0.3125 -0.140625 0.6875 -0.140625zm6.5697937 3.359375l0 -1.984375l3.03125 0l0 -7.640625l-2.640625 1.453125l-0.734375 -1.8125l3.78125 -2.0l1.875 0l0 10.0l2.609375 0l0 1.984375l-7.921875 0zm18.647919 -6.0q0 1.46875 -0.328125 2.625q-0.3125 1.15625 -0.9375 1.953125q-0.609375 0.796875 -1.5 1.21875q-0.875 0.40625 -2.015625 0.40625q-0.984375 0 -1.8125 -0.34375q-0.828125 -0.34375 -1.4375 -1.078125q-0.59375 -0.75 -0.9375 -1.90625q-0.328125 -1.15625 -0.328125 -2.765625q0 -1.46875 0.3125 -2.625q0.328125 -1.15625 0.9375 -1.953125q0.609375 -0.796875 1.5 -1.21875q0.90625 -0.421875 2.03125 -0.421875q0.984375 0 1.8125 0.34375q0.828125 0.34375 1.421875 1.09375q0.59375 0.734375 0.9375 1.890625q0.34375 1.15625 0.34375 2.78125zm-7.0625 0.03125q0 0.1875 0 0.34375q0 0.15625 0.015625 0.328125l4.46875 -3.234375q-0.3125 -0.890625 -0.84375 -1.328125q-0.515625 -0.4375 -1.234375 -0.4375q-0.5 0 -0.9375 0.265625q-0.4375 0.25 -0.765625 0.796875q-0.328125 0.53125 -0.515625 1.34375q-0.1875 0.8125 -0.1875 1.921875zm4.8125 0.03125q0 -0.140625 -0.015625 -0.296875q0 -0.171875 0 -0.3125l-4.4375 3.203125q0.296875 0.890625 0.8125 1.3125q0.53125 0.421875 1.234375 0.421875q0.515625 0 0.953125 -0.25q0.4375 -0.265625 0.765625 -0.796875q0.328125 -0.546875 0.5 -1.359375q0.1875 -0.8125 0.1875 -1.921875zm7.8041687 2.578125q0.375 0 0.703125 0.140625q0.328125 0.140625 0.5625 0.390625q0.25 0.234375 0.390625 0.5625q0.140625 0.328125 0.140625 0.703125q0 0.359375 -0.140625 0.6875q-0.140625 0.3125 -0.390625 0.5625q-0.234375 0.234375 -0.5625 0.375q-0.328125 0.140625 -0.703125 0.140625q-0.375 0 -0.6875 -0.140625q-0.3125 -0.140625 -0.5625 -0.375q-0.234375 -0.25 -0.375 -0.5625q-0.125 -0.328125 -0.125 -0.6875q0 -0.375 0.125 -0.703125q0.140625 -0.328125 0.375 -0.5625q0.25 -0.25 0.5625 -0.390625q0.3125 -0.140625 0.6875 -0.140625zm6.5697937 3.359375l0 -1.984375l3.0312576 0l0 -7.640625l-2.6406326 1.453125l-0.734375 -1.8125l3.7812576 -2.0l1.875 0l0 10.0l2.609375 0l0 1.984375l-7.9218826 0zm18.647926 -6.0q0 1.46875 -0.328125 2.625q-0.3125 1.15625 -0.9375 1.953125q-0.609375 0.796875 -1.5 1.21875q-0.875 0.40625 -2.015625 0.40625q-0.984375 0 -1.8125 -0.34375q-0.828125 -0.34375 -1.4375 -1.078125q-0.59375 -0.75 -0.9375 -1.90625q-0.328125 -1.15625 -0.328125 -2.765625q0 -1.46875 0.3125 -2.625q0.328125 -1.15625 0.9375 -1.953125q0.609375 -0.796875 1.5 -1.21875q0.90625 -0.421875 2.03125 -0.421875q0.984375 0 1.8125 0.34375q0.828125 0.34375 1.421875 1.09375q0.59375 0.734375 0.9375 1.890625q0.34375 1.15625 0.34375 2.78125zm-7.0625 0.03125q0 0.1875 0 0.34375q0 0.15625 0.015625 0.328125l4.46875 -3.234375q-0.3125 -0.890625 -0.84375 -1.328125q-0.515625 -0.4375 -1.234375 -0.4375q-0.5 0 -0.9375 0.265625q-0.4375 0.25 -0.765625 0.796875q-0.328125 0.53125 -0.515625 1.34375q-0.1875 0.8125 -0.1875 1.921875zm4.8125 0.03125q0 -0.140625 -0.015625 -0.296875q0 -0.171875 0 -0.3125l-4.4375 3.203125q0.296875 0.890625 0.8125 1.3125q0.53125 0.421875 1.234375 0.421875q0.515625 0 0.953125 -0.25q0.4375 -0.265625 0.765625 -0.796875q0.328125 -0.546875 0.5 -1.359375q0.1875 -0.8125 0.1875 -1.921875zm4.1166687 5.9375l0 -1.984375l3.03125 0l0 -7.640625l-2.640625 1.453125l-0.734375 -1.8125l3.78125 -2.0l1.875 0l0 10.0l2.609375 0l0 1.984375l-7.921875 0zm13.944794 -3.359375q0.375 0 0.703125 0.140625q0.328125 0.140625 0.5625 0.390625q0.25 0.234375 0.390625 0.5625q0.140625 0.328125 0.140625 0.703125q0 0.359375 -0.140625 0.6875q-0.140625 0.3125 -0.390625 0.5625q-0.234375 0.234375 -0.5625 0.375q-0.328125 0.140625 -0.703125 0.140625q-0.375 0 -0.6875 -0.140625q-0.3125 -0.140625 -0.5625 -0.375q-0.234375 -0.25 -0.375 -0.5625q-0.125 -0.328125 -0.125 -0.6875q0 -0.375 0.125 -0.703125q0.140625 -0.328125 0.375 -0.5625q0.25 -0.25 0.5625 -0.390625q0.3125 -0.140625 0.6875 -0.140625zm6.5697937 3.359375l0 -1.984375l3.03125 0l0 -7.640625l-2.640625 1.453125l-0.734375 -1.8125l3.78125 -2.0l1.875 0l0 10.0l2.609375 0l0 1.984375l-7.921875 0z" fill-rule="nonzero"/><path fill="#b4a7d6" d="m241.02493 233.91208l240.59842 0l0 113.38583l-240.59842 0z" fill-rule="evenodd"/><path stroke="#000000" stroke-width="2.0" stroke-linejoin="round" stroke-linecap="butt" d="m241.02493 233.91208l240.59842 0l0 113.38583l-240.59842 0z" fill-rule="evenodd"/><path fill="#000000" d="m350.3877 263.54062q-0.40625 -0.125 -0.953125 -0.203125q-0.546875 -0.09375 -1.125 -0.09375q-0.390625 0 -0.734375 0.109375q-0.328125 0.09375 -0.578125 0.328125q-0.25 0.21875 -0.390625 0.578125q-0.140625 0.34375 -0.140625 0.84375l0 1.5l3.640625 0l0 1.734375l-3.640625 0l0 6.1875l-2.234375 0l0 -6.1875l-2.6875 0l0 -1.734375l2.6875 0l0 -1.40625q0 -0.984375 0.28125 -1.6875q0.28125 -0.703125 0.796875 -1.15625q0.53125 -0.453125 1.265625 -0.65625q0.75 -0.21875 1.65625 -0.21875q0.609375 0 1.140625 0.078125q0.546875 0.078125 1.015625 0.1875l0 1.796875zm-9.578125 1.734375l0 0zm17.038544 9.25l0 -6.03125q0 -1.515625 -1.125 -1.515625q-0.5625 0 -1.078125 0.453125q-0.515625 0.453125 -1.09375 1.234375l0 5.859375l-2.21875 0l0 -12.875l2.21875 0l0 3.171875l-0.109375 1.671875q0.28125 -0.328125 0.578125 -0.59375q0.296875 -0.28125 0.625 -0.453125q0.34375 -0.1875 0.734375 -0.28125q0.390625 -0.09375 0.859375 -0.09375q0.71875 0 1.234375 0.234375q0.53125 0.234375 0.890625 0.65625q0.359375 0.421875 0.53125 1.015625q0.1875 0.59375 0.1875 1.328125l0 6.21875l-2.234375 0zm10.694794 -5.65625q0.015625 -0.515625 -0.046875 -0.875q-0.0625 -0.375 -0.21875 -0.609375q-0.140625 -0.234375 -0.359375 -0.34375q-0.21875 -0.109375 -0.515625 -0.109375q-0.484375 0 -1.015625 0.40625q-0.515625 0.40625 -1.140625 1.328125l0 5.859375l-2.28125 0l0 -9.25l2.015625 0l0.078125 1.34375q0.234375 -0.359375 0.515625 -0.640625q0.28125 -0.28125 0.625 -0.484375q0.359375 -0.203125 0.78125 -0.3125q0.4375 -0.109375 0.953125 -0.109375q0.703125 0 1.234375 0.25q0.546875 0.234375 0.90625 0.703125q0.375 0.46875 0.546875 1.1875q0.1875 0.71875 0.15625 1.65625l-2.234375 0zm4.2104187 5.65625l0 -1.640625l2.8125 -2.8125q0.796875 -0.796875 1.265625 -1.359375q0.484375 -0.578125 0.75 -1.03125q0.265625 -0.453125 0.34375 -0.828125q0.078125 -0.390625 0.078125 -0.796875q0 -0.34375 -0.109375 -0.640625q-0.109375 -0.3125 -0.328125 -0.53125q-0.203125 -0.21875 -0.53125 -0.34375q-0.3125 -0.140625 -0.71875 -0.140625q-0.703125 0 -1.3125 0.3125q-0.59375 0.296875 -1.125 0.796875l-1.171875 -1.5q0.765625 -0.71875 1.734375 -1.15625q0.96875 -0.4375 2.109375 -0.4375q0.875 0 1.578125 0.234375q0.71875 0.21875 1.21875 0.65625q0.5 0.4375 0.78125 1.09375q0.28125 0.65625 0.28125 1.5q0 0.71875 -0.203125 1.34375q-0.1875 0.609375 -0.546875 1.1875q-0.359375 0.578125 -0.890625 1.171875q-0.53125 0.578125 -1.21875 1.21875l-1.734375 1.65625l5.015625 0l0 2.046875l-8.078125 0z" fill-rule="nonzero"/><path fill="#000000" d="m306.29965 308.525l0 -1.984375l3.03125 0l0 -7.640625l-2.640625 1.453125l-0.734375 -1.8125l3.78125 -2.0l1.875 0l0 10.0l2.609375 0l0 1.984375l-7.921875 0zm18.647919 -6.0q0 1.46875 -0.328125 2.625q-0.3125 1.15625 -0.9375 1.953125q-0.609375 0.796875 -1.5 1.21875q-0.875 0.40625 -2.015625 0.40625q-0.984375 0 -1.8125 -0.34375q-0.828125 -0.34375 -1.4375 -1.078125q-0.59375 -0.75 -0.9375 -1.90625q-0.328125 -1.15625 -0.328125 -2.765625q0 -1.46875 0.3125 -2.625q0.328125 -1.15625 0.9375 -1.953125q0.609375 -0.796875 1.5 -1.21875q0.90625 -0.421875 2.03125 -0.421875q0.984375 0 1.8125 0.34375q0.828125 0.34375 1.421875 1.09375q0.59375 0.734375 0.9375 1.890625q0.34375 1.15625 0.34375 2.78125zm-7.0625 0.03125q0 0.1875 0 0.34375q0 0.15625 0.015625 0.328125l4.46875 -3.234375q-0.3125 -0.890625 -0.84375 -1.328125q-0.515625 -0.4375 -1.234375 -0.4375q-0.5 0 -0.9375 0.265625q-0.4375 0.25 -0.765625 0.796875q-0.328125 0.53125 -0.515625 1.34375q-0.1875 0.8125 -0.1875 1.921875zm4.8125 0.03125q0 -0.140625 -0.015625 -0.296875q0 -0.171875 0 -0.3125l-4.4375 3.203125q0.296875 0.890625 0.8125 1.3125q0.53125 0.421875 1.234375 0.421875q0.515625 0 0.953125 -0.25q0.4375 -0.265625 0.765625 -0.796875q0.328125 -0.546875 0.5 -1.359375q0.1875 -0.8125 0.1875 -1.921875zm7.8041687 2.578125q0.375 0 0.703125 0.140625q0.328125 0.140625 0.5625 0.390625q0.25 0.234375 0.390625 0.5625q0.140625 0.328125 0.140625 0.703125q0 0.359375 -0.140625 0.6875q-0.140625 0.3125 -0.390625 0.5625q-0.234375 0.234375 -0.5625 0.375q-0.328125 0.140625 -0.703125 0.140625q-0.375 0 -0.6875 -0.140625q-0.3125 -0.140625 -0.5625 -0.375q-0.234375 -0.25 -0.375 -0.5625q-0.125 -0.328125 -0.125 -0.6875q0 -0.375 0.125 -0.703125q0.140625 -0.328125 0.375 -0.5625q0.25 -0.25 0.5625 -0.390625q0.3125 -0.140625 0.6875 -0.140625zm6.5697937 3.359375l0 -1.984375l3.03125 0l0 -7.640625l-2.640625 1.453125l-0.734375 -1.8125l3.78125 -2.0l1.875 0l0 10.0l2.609375 0l0 1.984375l-7.921875 0zm18.647919 -6.0q0 1.46875 -0.328125 2.625q-0.3125 1.15625 -0.9375 1.953125q-0.609375 0.796875 -1.5 1.21875q-0.875 0.40625 -2.015625 0.40625q-0.984375 0 -1.8125 -0.34375q-0.828125 -0.34375 -1.4375 -1.078125q-0.59375 -0.75 -0.9375 -1.90625q-0.328125 -1.15625 -0.328125 -2.765625q0 -1.46875 0.3125 -2.625q0.328125 -1.15625 0.9375 -1.953125q0.609375 -0.796875 1.5 -1.21875q0.90625 -0.421875 2.03125 -0.421875q0.984375 0 1.8125 0.34375q0.828125 0.34375 1.421875 1.09375q0.59375 0.734375 0.9375 1.890625q0.34375 1.15625 0.34375 2.78125zm-7.0625 0.03125q0 0.1875 0 0.34375q0 0.15625 0.015625 0.328125l4.46875 -3.234375q-0.3125 -0.890625 -0.84375 -1.328125q-0.515625 -0.4375 -1.234375 -0.4375q-0.5 0 -0.9375 0.265625q-0.4375 0.25 -0.765625 0.796875q-0.328125 0.53125 -0.515625 1.34375q-0.1875 0.8125 -0.1875 1.921875zm4.8125 0.03125q0 -0.140625 -0.015625 -0.296875q0 -0.171875 0 -0.3125l-4.4375 3.203125q0.296875 0.890625 0.8125 1.3125q0.53125 0.421875 1.234375 0.421875q0.515625 0 0.953125 -0.25q0.4375 -0.265625 0.765625 -0.796875q0.328125 -0.546875 0.5 -1.359375q0.1875 -0.8125 0.1875 -1.921875zm7.8041687 2.578125q0.375 0 0.703125 0.140625q0.328125 0.140625 0.5625 0.390625q0.25 0.234375 0.390625 0.5625q0.140625 0.328125 0.140625 0.703125q0 0.359375 -0.140625 0.6875q-0.140625 0.3125 -0.390625 0.5625q-0.234375 0.234375 -0.5625 0.375q-0.328125 0.140625 -0.703125 0.140625q-0.375 0 -0.6875 -0.140625q-0.3125 -0.140625 -0.5625 -0.375q-0.234375 -0.25 -0.375 -0.5625q-0.125 -0.328125 -0.125 -0.6875q0 -0.375 0.125 -0.703125q0.140625 -0.328125 0.375 -0.5625q0.25 -0.25 0.5625 -0.390625q0.3125 -0.140625 0.6875 -0.140625zm6.5697937 3.359375l0 -1.984375l3.03125 0l0 -7.640625l-2.640625 1.453125l-0.734375 -1.8125l3.78125 -2.0l1.875 0l0 10.0l2.609375 0l0 1.984375l-7.921875 0zm18.647919 -6.0q0 1.46875 -0.328125 2.625q-0.3125 1.15625 -0.9375 1.953125q-0.609375 0.796875 -1.5 1.21875q-0.875 0.40625 -2.015625 0.40625q-0.984375 0 -1.8125 -0.34375q-0.828125 -0.34375 -1.4375 -1.078125q-0.59375 -0.75 -0.9375 -1.90625q-0.328125 -1.15625 -0.328125 -2.765625q0 -1.46875 0.3125 -2.625q0.328125 -1.15625 0.9375 -1.953125q0.609375 -0.796875 1.5 -1.21875q0.90625 -0.421875 2.03125 -0.421875q0.984375 0 1.8125 0.34375q0.828125 0.34375 1.421875 1.09375q0.59375 0.734375 0.9375 1.890625q0.34375 1.15625 0.34375 2.78125zm-7.0625 0.03125q0 0.1875 0 0.34375q0 0.15625 0.015625 0.328125l4.46875 -3.234375q-0.3125 -0.890625 -0.84375 -1.328125q-0.515625 -0.4375 -1.234375 -0.4375q-0.5 0 -0.9375 0.265625q-0.4375 0.25 -0.765625 0.796875q-0.328125 0.53125 -0.515625 1.34375q-0.1875 0.8125 -0.1875 1.921875zm4.8125 0.03125q0 -0.140625 -0.015625 -0.296875q0 -0.171875 0 -0.3125l-4.4375 3.203125q0.296875 0.890625 0.8125 1.3125q0.53125 0.421875 1.234375 0.421875q0.515625 0 0.953125 -0.25q0.4375 -0.265625 0.765625 -0.796875q0.328125 -0.546875 0.5 -1.359375q0.1875 -0.8125 0.1875 -1.921875zm3.8979187 5.9375l0 -1.640625l2.8125 -2.8125q0.796875 -0.796875 1.265625 -1.359375q0.484375 -0.578125 0.75 -1.03125q0.265625 -0.453125 0.34375 -0.828125q0.078125 -0.390625 0.078125 -0.796875q0 -0.34375 -0.109375 -0.640625q-0.109375 -0.3125 -0.328125 -0.53125q-0.203125 -0.21875 -0.53125 -0.34375q-0.3125 -0.140625 -0.71875 -0.140625q-0.703125 0 -1.3125 0.3125q-0.59375 0.296875 -1.125 0.796875l-1.171875 -1.5q0.765625 -0.71875 1.734375 -1.15625q0.96875 -0.4375 2.109375 -0.4375q0.875 0 1.578125 0.234375q0.71875 0.21875 1.21875 0.65625q0.5 0.4375 0.78125 1.09375q0.28125 0.65625 0.28125 1.5q0 0.71875 -0.203125 1.34375q-0.1875 0.609375 -0.546875 1.1875q-0.359375 0.578125 -0.890625 1.171875q-0.53125 0.578125 -1.21875 1.21875l-1.734375 1.65625l5.015625 0l0 2.046875l-8.078125 0zm14.163544 -3.359375q0.375 0 0.703125 0.140625q0.328125 0.140625 0.5625 0.390625q0.25 0.234375 0.390625 0.5625q0.140625 0.328125 0.140625 0.703125q0 0.359375 -0.140625 0.6875q-0.140625 0.3125 -0.390625 0.5625q-0.234375 0.234375 -0.5625 0.375q-0.328125 0.140625 -0.703125 0.140625q-0.375 0 -0.6875 -0.140625q-0.3125 -0.140625 -0.5625 -0.375q-0.234375 -0.25 -0.375 -0.5625q-0.125 -0.328125 -0.125 -0.6875q0 -0.375 0.125 -0.703125q0.140625 -0.328125 0.375 -0.5625q0.25 -0.25 0.5625 -0.390625q0.3125 -0.140625 0.6875 -0.140625zm6.5697937 3.359375l0 -1.984375l3.03125 0l0 -7.640625l-2.640625 1.453125l-0.734375 -1.8125l3.78125 -2.0l1.875 0l0 10.0l2.609375 0l0 1.984375l-7.921875 0z" fill-rule="nonzero"/><path fill="#d5a6bd" d="m481.62335 233.91208l240.59845 0l0 113.38583l-240.59845 0z" fill-rule="evenodd"/><path stroke="#000000" stroke-width="2.0" stroke-linejoin="round" stroke-linecap="butt" d="m481.62335 233.91208l240.59845 0l0 113.38583l-240.59845 0z" fill-rule="evenodd"/><path fill="#000000" d="m585.65796 263.38437l-2.609375 0l0 -1.734375l4.890625 0l0 11.140625l2.671875 0l0 1.734375l-7.875 0l0 -1.734375l2.921875 0l0 -9.40625zm12.788574 11.140625l0 -6.03125q0 -1.515625 -1.125 -1.515625q-0.5625 0 -1.078125 0.453125q-0.515625 0.453125 -1.09375 1.234375l0 5.859375l-2.21875 0l0 -12.875l2.21875 0l0 3.171875l-0.109375 1.671875q0.28125 -0.328125 0.578125 -0.59375q0.296875 -0.28125 0.625 -0.453125q0.34375 -0.1875 0.734375 -0.28125q0.390625 -0.09375 0.859375 -0.09375q0.71875 0 1.234375 0.234375q0.53125 0.234375 0.890625 0.65625q0.359375 0.421875 0.53125 1.015625q0.1875 0.59375 0.1875 1.328125l0 6.21875l-2.234375 0zm10.694763 -5.65625q0.015625 -0.515625 -0.046875 -0.875q-0.0625 -0.375 -0.21875 -0.609375q-0.140625 -0.234375 -0.359375 -0.34375q-0.21875 -0.109375 -0.515625 -0.109375q-0.484375 0 -1.015625 0.40625q-0.515625 0.40625 -1.140625 1.328125l0 5.859375l-2.28125 0l0 -9.25l2.015625 0l0.078125 1.34375q0.234375 -0.359375 0.515625 -0.640625q0.28125 -0.28125 0.625 -0.484375q0.359375 -0.203125 0.78125 -0.3125q0.4375 -0.109375 0.953125 -0.109375q0.703125 0 1.234375 0.25q0.546875 0.234375 0.90625 0.703125q0.375 0.46875 0.546875 1.1875q0.1875 0.71875 0.15625 1.65625l-2.234375 0zm4.429199 5.65625l0 -1.984375l3.03125 0l0 -7.640625l-2.640625 1.453125l-0.734375 -1.8125l3.78125 -2.0l1.875 0l0 10.0l2.609375 0l0 1.984375l-7.921875 0z" fill-rule="nonzero"/><path fill="#000000" d="m546.8981 308.525l0 -1.984375l3.03125 0l0 -7.640625l-2.640625 1.453125l-0.734375 -1.8125l3.78125 -2.0l1.875 0l0 10.0l2.609375 0l0 1.984375l-7.921875 0zm18.64795 -6.0q0 1.46875 -0.328125 2.625q-0.3125 1.15625 -0.9375 1.953125q-0.609375 0.796875 -1.5 1.21875q-0.875 0.40625 -2.015625 0.40625q-0.984375 0 -1.8125 -0.34375q-0.828125 -0.34375 -1.4375 -1.078125q-0.59375 -0.75 -0.9375 -1.90625q-0.328125 -1.15625 -0.328125 -2.765625q0 -1.46875 0.3125 -2.625q0.328125 -1.15625 0.9375 -1.953125q0.609375 -0.796875 1.5 -1.21875q0.90625 -0.421875 2.03125 -0.421875q0.984375 0 1.8125 0.34375q0.828125 0.34375 1.421875 1.09375q0.59375 0.734375 0.9375 1.890625q0.34375 1.15625 0.34375 2.78125zm-7.0625 0.03125q0 0.1875 0 0.34375q0 0.15625 0.015625 0.328125l4.46875 -3.234375q-0.3125 -0.890625 -0.84375 -1.328125q-0.515625 -0.4375 -1.234375 -0.4375q-0.5 0 -0.9375 0.265625q-0.4375 0.25 -0.765625 0.796875q-0.328125 0.53125 -0.515625 1.34375q-0.1875 0.8125 -0.1875 1.921875zm4.8125 0.03125q0 -0.140625 -0.015625 -0.296875q0 -0.171875 0 -0.3125l-4.4375 3.203125q0.296875 0.890625 0.8125 1.3125q0.53125 0.421875 1.234375 0.421875q0.515625 0 0.953125 -0.25q0.4375 -0.265625 0.765625 -0.796875q0.328125 -0.546875 0.5 -1.359375q0.1875 -0.8125 0.1875 -1.921875zm7.804138 2.578125q0.375 0 0.703125 0.140625q0.328125 0.140625 0.5625 0.390625q0.25 0.234375 0.390625 0.5625q0.140625 0.328125 0.140625 0.703125q0 0.359375 -0.140625 0.6875q-0.140625 0.3125 -0.390625 0.5625q-0.234375 0.234375 -0.5625 0.375q-0.328125 0.140625 -0.703125 0.140625q-0.375 0 -0.6875 -0.140625q-0.3125 -0.140625 -0.5625 -0.375q-0.234375 -0.25 -0.375 -0.5625q-0.125 -0.328125 -0.125 -0.6875q0 -0.375 0.125 -0.703125q0.140625 -0.328125 0.375 -0.5625q0.25 -0.25 0.5625 -0.390625q0.3125 -0.140625 0.6875 -0.140625zm6.569824 3.359375l0 -1.984375l3.03125 0l0 -7.640625l-2.640625 1.453125l-0.734375 -1.8125l3.78125 -2.0l1.875 0l0 10.0l2.609375 0l0 1.984375l-7.921875 0zm18.647888 -6.0q0 1.46875 -0.328125 2.625q-0.3125 1.15625 -0.9375 1.953125q-0.609375 0.796875 -1.5 1.21875q-0.875 0.40625 -2.015625 0.40625q-0.984375 0 -1.8125 -0.34375q-0.828125 -0.34375 -1.4375 -1.078125q-0.59375 -0.75 -0.9375 -1.90625q-0.328125 -1.15625 -0.328125 -2.765625q0 -1.46875 0.3125 -2.625q0.328125 -1.15625 0.9375 -1.953125q0.609375 -0.796875 1.5 -1.21875q0.90625 -0.421875 2.03125 -0.421875q0.984375 0 1.8125 0.34375q0.828125 0.34375 1.421875 1.09375q0.59375 0.734375 0.9375 1.890625q0.34375 1.15625 0.34375 2.78125zm-7.0625 0.03125q0 0.1875 0 0.34375q0 0.15625 0.015625 0.328125l4.46875 -3.234375q-0.3125 -0.890625 -0.84375 -1.328125q-0.515625 -0.4375 -1.234375 -0.4375q-0.5 0 -0.9375 0.265625q-0.4375 0.25 -0.765625 0.796875q-0.328125 0.53125 -0.515625 1.34375q-0.1875 0.8125 -0.1875 1.921875zm4.8125 0.03125q0 -0.140625 -0.015625 -0.296875q0 -0.171875 0 -0.3125l-4.4375 3.203125q0.296875 0.890625 0.8125 1.3125q0.53125 0.421875 1.234375 0.421875q0.515625 0 0.953125 -0.25q0.4375 -0.265625 0.765625 -0.796875q0.328125 -0.546875 0.5 -1.359375q0.1875 -0.8125 0.1875 -1.921875zm7.804199 2.578125q0.375 0 0.703125 0.140625q0.328125 0.140625 0.5625 0.390625q0.25 0.234375 0.390625 0.5625q0.140625 0.328125 0.140625 0.703125q0 0.359375 -0.140625 0.6875q-0.140625 0.3125 -0.390625 0.5625q-0.234375 0.234375 -0.5625 0.375q-0.328125 0.140625 -0.703125 0.140625q-0.375 0 -0.6875 -0.140625q-0.3125 -0.140625 -0.5625 -0.375q-0.234375 -0.25 -0.375 -0.5625q-0.125 -0.328125 -0.125 -0.6875q0 -0.375 0.125 -0.703125q0.140625 -0.328125 0.375 -0.5625q0.25 -0.25 0.5625 -0.390625q0.3125 -0.140625 0.6875 -0.140625zm6.569763 3.359375l0 -1.984375l3.03125 0l0 -7.640625l-2.640625 1.453125l-0.734375 -1.8125l3.78125 -2.0l1.875 0l0 10.0l2.609375 0l0 1.984375l-7.921875 0zm18.64795 -6.0q0 1.46875 -0.328125 2.625q-0.3125 1.15625 -0.9375 1.953125q-0.609375 0.796875 -1.5 1.21875q-0.875 0.40625 -2.015625 0.40625q-0.984375 0 -1.8125 -0.34375q-0.828125 -0.34375 -1.4375 -1.078125q-0.59375 -0.75 -0.9375 -1.90625q-0.328125 -1.15625 -0.328125 -2.765625q0 -1.46875 0.3125 -2.625q0.328125 -1.15625 0.9375 -1.953125q0.609375 -0.796875 1.5 -1.21875q0.90625 -0.421875 2.03125 -0.421875q0.984375 0 1.8125 0.34375q0.828125 0.34375 1.421875 1.09375q0.59375 0.734375 0.9375 1.890625q0.34375 1.15625 0.34375 2.78125zm-7.0625 0.03125q0 0.1875 0 0.34375q0 0.15625 0.015625 0.328125l4.46875 -3.234375q-0.3125 -0.890625 -0.84375 -1.328125q-0.515625 -0.4375 -1.234375 -0.4375q-0.5 0 -0.9375 0.265625q-0.4375 0.25 -0.765625 0.796875q-0.328125 0.53125 -0.515625 1.34375q-0.1875 0.8125 -0.1875 1.921875zm4.8125 0.03125q0 -0.140625 -0.015625 -0.296875q0 -0.171875 0 -0.3125l-4.4375 3.203125q0.296875 0.890625 0.8125 1.3125q0.53125 0.421875 1.234375 0.421875q0.515625 0 0.953125 -0.25q0.4375 -0.265625 0.765625 -0.796875q0.328125 -0.546875 0.5 -1.359375q0.1875 -0.8125 0.1875 -1.921875zm12.022888 2.296875q0 0.890625 -0.328125 1.59375q-0.328125 0.703125 -1.015625 1.203125q-0.671875 0.5 -1.703125 0.765625q-1.03125 0.265625 -2.421875 0.265625q-0.3125 0 -0.65625 -0.015625q-0.34375 -0.015625 -0.6875 -0.046875q-0.328125 -0.015625 -0.65625 -0.046875q-0.3125 -0.03125 -0.5625 -0.078125l0 -1.9375q0.578125 0.109375 1.28125 0.1875q0.71875 0.0625 1.5 0.0625q0.75 0 1.296875 -0.125q0.546875 -0.125 0.90625 -0.359375q0.359375 -0.25 0.515625 -0.609375q0.171875 -0.359375 0.171875 -0.796875q0 -0.390625 -0.171875 -0.703125q-0.171875 -0.328125 -0.53125 -0.546875q-0.34375 -0.234375 -0.90625 -0.34375q-0.546875 -0.125 -1.296875 -0.125l-1.328125 0l0 -1.703125l1.21875 0q0.703125 0 1.171875 -0.140625q0.46875 -0.140625 0.75 -0.375q0.28125 -0.234375 0.390625 -0.5625q0.125 -0.328125 0.125 -0.671875q0 -0.734375 -0.484375 -1.109375q-0.46875 -0.375 -1.453125 -0.375q-0.71875 0 -1.40625 0.140625q-0.6875 0.125 -1.4375 0.359375l0 -1.875q0.421875 -0.125 0.78125 -0.21875q0.375 -0.09375 0.75 -0.15625q0.375 -0.0625 0.75 -0.09375q0.390625 -0.03125 0.8125 -0.03125q0.96875 0 1.703125 0.21875q0.75 0.203125 1.25 0.59375q0.515625 0.390625 0.765625 0.953125q0.265625 0.546875 0.265625 1.21875q0 1.09375 -0.5 1.765625q-0.5 0.65625 -1.390625 1.015625q0.578125 0.09375 1.03125 0.328125q0.46875 0.21875 0.796875 0.578125q0.34375 0.34375 0.515625 0.796875q0.1875 0.453125 0.1875 1.0zm6.038574 0.28125q0.375 0 0.703125 0.140625q0.328125 0.140625 0.5625 0.390625q0.25 0.234375 0.390625 0.5625q0.140625 0.328125 0.140625 0.703125q0 0.359375 -0.140625 0.6875q-0.140625 0.3125 -0.390625 0.5625q-0.234375 0.234375 -0.5625 0.375q-0.328125 0.140625 -0.703125 0.140625q-0.375 0 -0.6875 -0.140625q-0.3125 -0.140625 -0.5625 -0.375q-0.234375 -0.25 -0.375 -0.5625q-0.125 -0.328125 -0.125 -0.6875q0 -0.375 0.125 -0.703125q0.140625 -0.328125 0.375 -0.5625q0.25 -0.25 0.5625 -0.390625q0.3125 -0.140625 0.6875 -0.140625zm6.569763 3.359375l0 -1.984375l3.03125 0l0 -7.640625l-2.640625 1.453125l-0.734375 -1.8125l3.78125 -2.0l1.875 0l0 10.0l2.609375 0l0 1.984375l-7.921875 0z" fill-rule="nonzero"/><path fill="#dd7e6b" d="m718.1221 233.91208l240.59839 0l0 113.38583l-240.59839 0z" fill-rule="evenodd"/><path stroke="#000000" stroke-width="2.0" stroke-linejoin="round" stroke-linecap="butt" d="m718.1221 233.91208l240.59839 0l0 113.38583l-240.59839 0z" fill-rule="evenodd"/><path fill="#000000" d="m822.1567 263.38437l-2.609375 0l0 -1.734375l4.890625 0l0 11.140625l2.671875 0l0 1.734375l-7.875 0l0 -1.734375l2.921875 0l0 -9.40625zm12.788513 11.140625l0 -6.03125q0 -1.515625 -1.125 -1.515625q-0.5625 0 -1.078125 0.453125q-0.515625 0.453125 -1.09375 1.234375l0 5.859375l-2.21875 0l0 -12.875l2.21875 0l0 3.171875l-0.109375 1.671875q0.28125 -0.328125 0.578125 -0.59375q0.296875 -0.28125 0.625 -0.453125q0.34375 -0.1875 0.734375 -0.28125q0.390625 -0.09375 0.859375 -0.09375q0.71875 0 1.234375 0.234375q0.53125 0.234375 0.890625 0.65625q0.359375 0.421875 0.53125 1.015625q0.1875 0.59375 0.1875 1.328125l0 6.21875l-2.234375 0zm10.694824 -5.65625q0.015625 -0.515625 -0.046875 -0.875q-0.0625 -0.375 -0.21875 -0.609375q-0.140625 -0.234375 -0.359375 -0.34375q-0.21875 -0.109375 -0.515625 -0.109375q-0.484375 0 -1.015625 0.40625q-0.515625 0.40625 -1.140625 1.328125l0 5.859375l-2.28125 0l0 -9.25l2.015625 0l0.078125 1.34375q0.234375 -0.359375 0.515625 -0.640625q0.28125 -0.28125 0.625 -0.484375q0.359375 -0.203125 0.78125 -0.3125q0.4375 -0.109375 0.953125 -0.109375q0.703125 0 1.234375 0.25q0.546875 0.234375 0.90625 0.703125q0.375 0.46875 0.546875 1.1875q0.1875 0.71875 0.15625 1.65625l-2.234375 0zm4.210388 5.65625l0 -1.640625l2.8125 -2.8125q0.796875 -0.796875 1.265625 -1.359375q0.484375 -0.578125 0.75 -1.03125q0.265625 -0.453125 0.34375 -0.828125q0.078125 -0.390625 0.078125 -0.796875q0 -0.34375 -0.109375 -0.640625q-0.109375 -0.3125 -0.328125 -0.53125q-0.203125 -0.21875 -0.53125 -0.34375q-0.3125 -0.140625 -0.71875 -0.140625q-0.703125 0 -1.3125 0.3125q-0.59375 0.296875 -1.125 0.796875l-1.171875 -1.5q0.765625 -0.71875 1.734375 -1.15625q0.96875 -0.4375 2.109375 -0.4375q0.875 0 1.578125 0.234375q0.71875 0.21875 1.21875 0.65625q0.5 0.4375 0.78125 1.09375q0.28125 0.65625 0.28125 1.5q0 0.71875 -0.203125 1.34375q-0.1875 0.609375 -0.546875 1.1875q-0.359375 0.578125 -0.890625 1.171875q-0.53125 0.578125 -1.21875 1.21875l-1.734375 1.65625l5.015625 0l0 2.046875l-8.078125 0z" fill-rule="nonzero"/><path fill="#000000" d="m783.3968 308.525l0 -1.984375l3.03125 0l0 -7.640625l-2.640625 1.453125l-0.734375 -1.8125l3.78125 -2.0l1.875 0l0 10.0l2.609375 0l0 1.984375l-7.921875 0zm18.647888 -6.0q0 1.46875 -0.328125 2.625q-0.3125 1.15625 -0.9375 1.953125q-0.609375 0.796875 -1.5 1.21875q-0.875 0.40625 -2.015625 0.40625q-0.984375 0 -1.8125 -0.34375q-0.828125 -0.34375 -1.4375 -1.078125q-0.59375 -0.75 -0.9375 -1.90625q-0.328125 -1.15625 -0.328125 -2.765625q0 -1.46875 0.3125 -2.625q0.328125 -1.15625 0.9375 -1.953125q0.609375 -0.796875 1.5 -1.21875q0.90625 -0.421875 2.03125 -0.421875q0.984375 0 1.8125 0.34375q0.828125 0.34375 1.421875 1.09375q0.59375 0.734375 0.9375 1.890625q0.34375 1.15625 0.34375 2.78125zm-7.0625 0.03125q0 0.1875 0 0.34375q0 0.15625 0.015625 0.328125l4.46875 -3.234375q-0.3125 -0.890625 -0.84375 -1.328125q-0.515625 -0.4375 -1.234375 -0.4375q-0.5 0 -0.9375 0.265625q-0.4375 0.25 -0.765625 0.796875q-0.328125 0.53125 -0.515625 1.34375q-0.1875 0.8125 -0.1875 1.921875zm4.8125 0.03125q0 -0.140625 -0.015625 -0.296875q0 -0.171875 0 -0.3125l-4.4375 3.203125q0.296875 0.890625 0.8125 1.3125q0.53125 0.421875 1.234375 0.421875q0.515625 0 0.953125 -0.25q0.4375 -0.265625 0.765625 -0.796875q0.328125 -0.546875 0.5 -1.359375q0.1875 -0.8125 0.1875 -1.921875zm7.804199 2.578125q0.375 0 0.703125 0.140625q0.328125 0.140625 0.5625 0.390625q0.25 0.234375 0.390625 0.5625q0.140625 0.328125 0.140625 0.703125q0 0.359375 -0.140625 0.6875q-0.140625 0.3125 -0.390625 0.5625q-0.234375 0.234375 -0.5625 0.375q-0.328125 0.140625 -0.703125 0.140625q-0.375 0 -0.6875 -0.140625q-0.3125 -0.140625 -0.5625 -0.375q-0.234375 -0.25 -0.375 -0.5625q-0.125 -0.328125 -0.125 -0.6875q0 -0.375 0.125 -0.703125q0.140625 -0.328125 0.375 -0.5625q0.25 -0.25 0.5625 -0.390625q0.3125 -0.140625 0.6875 -0.140625zm6.569763 3.359375l0 -1.984375l3.03125 0l0 -7.640625l-2.640625 1.453125l-0.734375 -1.8125l3.78125 -2.0l1.875 0l0 10.0l2.609375 0l0 1.984375l-7.921875 0zm18.64795 -6.0q0 1.46875 -0.328125 2.625q-0.3125 1.15625 -0.9375 1.953125q-0.609375 0.796875 -1.5 1.21875q-0.875 0.40625 -2.015625 0.40625q-0.984375 0 -1.8125 -0.34375q-0.828125 -0.34375 -1.4375 -1.078125q-0.59375 -0.75 -0.9375 -1.90625q-0.328125 -1.15625 -0.328125 -2.765625q0 -1.46875 0.3125 -2.625q0.328125 -1.15625 0.9375 -1.953125q0.609375 -0.796875 1.5 -1.21875q0.90625 -0.421875 2.03125 -0.421875q0.984375 0 1.8125 0.34375q0.828125 0.34375 1.421875 1.09375q0.59375 0.734375 0.9375 1.890625q0.34375 1.15625 0.34375 2.78125zm-7.0625 0.03125q0 0.1875 0 0.34375q0 0.15625 0.015625 0.328125l4.46875 -3.234375q-0.3125 -0.890625 -0.84375 -1.328125q-0.515625 -0.4375 -1.234375 -0.4375q-0.5 0 -0.9375 0.265625q-0.4375 0.25 -0.765625 0.796875q-0.328125 0.53125 -0.515625 1.34375q-0.1875 0.8125 -0.1875 1.921875zm4.8125 0.03125q0 -0.140625 -0.015625 -0.296875q0 -0.171875 0 -0.3125l-4.4375 3.203125q0.296875 0.890625 0.8125 1.3125q0.53125 0.421875 1.234375 0.421875q0.515625 0 0.953125 -0.25q0.4375 -0.265625 0.765625 -0.796875q0.328125 -0.546875 0.5 -1.359375q0.1875 -0.8125 0.1875 -1.921875zm7.804138 2.578125q0.375 0 0.703125 0.140625q0.328125 0.140625 0.5625 0.390625q0.25 0.234375 0.390625 0.5625q0.140625 0.328125 0.140625 0.703125q0 0.359375 -0.140625 0.6875q-0.140625 0.3125 -0.390625 0.5625q-0.234375 0.234375 -0.5625 0.375q-0.328125 0.140625 -0.703125 0.140625q-0.375 0 -0.6875 -0.140625q-0.3125 -0.140625 -0.5625 -0.375q-0.234375 -0.25 -0.375 -0.5625q-0.125 -0.328125 -0.125 -0.6875q0 -0.375 0.125 -0.703125q0.140625 -0.328125 0.375 -0.5625q0.25 -0.25 0.5625 -0.390625q0.3125 -0.140625 0.6875 -0.140625zm6.569824 3.359375l0 -1.984375l3.03125 0l0 -7.640625l-2.640625 1.453125l-0.734375 -1.8125l3.78125 -2.0l1.875 0l0 10.0l2.609375 0l0 1.984375l-7.921875 0zm18.647888 -6.0q0 1.46875 -0.328125 2.625q-0.3125 1.15625 -0.9375 1.953125q-0.609375 0.796875 -1.5 1.21875q-0.875 0.40625 -2.015625 0.40625q-0.984375 0 -1.8125 -0.34375q-0.828125 -0.34375 -1.4375 -1.078125q-0.59375 -0.75 -0.9375 -1.90625q-0.328125 -1.15625 -0.328125 -2.765625q0 -1.46875 0.3125 -2.625q0.328125 -1.15625 0.9375 -1.953125q0.609375 -0.796875 1.5 -1.21875q0.90625 -0.421875 2.03125 -0.421875q0.984375 0 1.8125 0.34375q0.828125 0.34375 1.421875 1.09375q0.59375 0.734375 0.9375 1.890625q0.34375 1.15625 0.34375 2.78125zm-7.0625 0.03125q0 0.1875 0 0.34375q0 0.15625 0.015625 0.328125l4.46875 -3.234375q-0.3125 -0.890625 -0.84375 -1.328125q-0.515625 -0.4375 -1.234375 -0.4375q-0.5 0 -0.9375 0.265625q-0.4375 0.25 -0.765625 0.796875q-0.328125 0.53125 -0.515625 1.34375q-0.1875 0.8125 -0.1875 1.921875zm4.8125 0.03125q0 -0.140625 -0.015625 -0.296875q0 -0.171875 0 -0.3125l-4.4375 3.203125q0.296875 0.890625 0.8125 1.3125q0.53125 0.421875 1.234375 0.421875q0.515625 0 0.953125 -0.25q0.4375 -0.265625 0.765625 -0.796875q0.328125 -0.546875 0.5 -1.359375q0.1875 -0.8125 0.1875 -1.921875zm10.788574 3.515625l0 2.421875l-2.171875 0l0 -2.421875l-5.53125 0l0 -1.90625l4.640625 -7.578125l3.0625 0l0 7.53125l1.796875 0l0 1.953125l-1.796875 0zm-2.140625 -7.328125l-3.390625 5.375l3.390625 0l0 -5.375zm9.413513 6.390625q0.375 0 0.703125 0.140625q0.328125 0.140625 0.5625 0.390625q0.25 0.234375 0.390625 0.5625q0.140625 0.328125 0.140625 0.703125q0 0.359375 -0.140625 0.6875q-0.140625 0.3125 -0.390625 0.5625q-0.234375 0.234375 -0.5625 0.375q-0.328125 0.140625 -0.703125 0.140625q-0.375 0 -0.6875 -0.140625q-0.3125 -0.140625 -0.5625 -0.375q-0.234375 -0.25 -0.375 -0.5625q-0.125 -0.328125 -0.125 -0.6875q0 -0.375 0.125 -0.703125q0.140625 -0.328125 0.375 -0.5625q0.25 -0.25 0.5625 -0.390625q0.3125 -0.140625 0.6875 -0.140625zm6.569824 3.359375l0 -1.984375l3.03125 0l0 -7.640625l-2.640625 1.453125l-0.734375 -1.8125l3.78125 -2.0l1.875 0l0 10.0l2.609375 0l0 1.984375l-7.921875 0z" fill-rule="nonzero"/></g></svg>