<?xml version="1.0" encoding="UTF-8" standalone="no"?>
<svg
   xmlns:dc="http://purl.org/dc/elements/1.1/"
   xmlns:cc="http://creativecommons.org/ns#"
   xmlns:rdf="http://www.w3.org/1999/02/22-rdf-syntax-ns#"
   xmlns:svg="http://www.w3.org/2000/svg"
   xmlns="http://www.w3.org/2000/svg"
   viewBox="0 0 599.99994 359.99997"
   height="359.99997"
   width="599.99994"
   xml:space="preserve"
   id="svg1202"
   version="1.1"><metadata
     id="metadata1208"><rdf:RDF><cc:Work
         rdf:about=""><dc:format>image/svg+xml</dc:format><dc:type
           rdf:resource="http://purl.org/dc/dcmitype/StillImage" /><dc:title></dc:title></cc:Work></rdf:RDF></metadata><defs
     id="defs1206"><clipPath
       id="clipPath1218"
       clipPathUnits="userSpaceOnUse"><path
         style="clip-rule:evenodd"
         id="path1216"
         d="M 120.83333,120.83333 H 3183.3333 V 2433.3333 H 120.83333 Z" /></clipPath><clipPath
       id="clipPath1314"
       clipPathUnits="userSpaceOnUse"><path
         style="clip-rule:evenodd"
         id="path1312"
         d="M 145.83333,808.33331 H 2020.8333 V 1933.3333 H 145.83333 Z" /></clipPath><clipPath
       id="clipPath1366"
       clipPathUnits="userSpaceOnUse"><path
         style="clip-rule:evenodd"
         id="path1364"
         d="M 498.95831,1023.9583 H 1670.8333 v 693.75 H 498.95831 Z" /></clipPath><clipPath
       id="clipPath1416"
       clipPathUnits="userSpaceOnUse"><path
         style="clip-rule:evenodd"
         id="path1414"
         d="M 145.83333,808.33331 H 2020.8333 V 1933.3333 H 145.83333 Z" /></clipPath></defs><g
     transform="matrix(0.31999998,0,0,0.31999998,-46.666663,-258.66664)"
     id="g1210"><g
       id="g1212"><g
         clip-path="url(#clipPath1218)"
         id="g1214" /></g><g
       id="g1308"><g
         clip-path="url(#clipPath1314)"
         id="g1310"><g
           transform="matrix(3.125,0,0,3.125,145.83333,808.33331)"
           id="g1316"><path
             id="path1318"
             style="fill:#ffffff;fill-opacity:1;fill-rule:nonzero;stroke:none"
             d="M 0,0 H 600 V 360 H 0 Z" /><text
             id="text1322"
             style="font-variant:normal;font-weight:bold;font-size:12px;font-family:Arial;-inkscape-font-specification:Arial-BoldMT;writing-mode:lr-tb;fill:#000000;fill-opacity:1;fill-rule:nonzero;stroke:none"
             transform="translate(113,48.200001)"><tspan
               id="tspan1320"
               y="0"
               x="0 6.4394531 13.113281 19.787109 23.783203 27.117188 31.787109 38.460938 45.134766 52.464844 55.798828 59.794922 66.46875 69.802734 76.476562 83.806641 90.480469 93.814453 101.14453 107.81836 111.81445 115.14844 122.47852 126.47461 130.4707 137.80078 141.79688 145.13086 148.46484 155.13867 161.8125 166.48242 173.15625 179.83008 184.5 187.83398 191.16797 198.49805 205.82812 212.50195 219.17578 222.50977 229.83984 237.16992 240.50391 247.83398 254.50781 258.50391 265.83398 272.50781 279.83789 283.17188 289.8457 297.17578 300.50977 307.83984 311.83594 322.50586">Test results against http://server/index.nginx-debian.html</tspan></text>
<text
             id="text1326"
             style="font-variant:normal;font-weight:normal;font-size:12px;font-family:Arial;-inkscape-font-specification:ArialMT;writing-mode:lr-tb;fill:#222222;fill-opacity:1;fill-rule:nonzero;stroke:none"
             transform="translate(529,79.199997)"><tspan
               id="tspan1324"
               y="0"
               x="0 8.6660156 11.332031 18.005859 24.005859 30.679688">Closed</tspan></text>
<path
             id="path1328"
             style="fill:#3366cc;fill-opacity:0.30199998;fill-rule:nonzero;stroke:none"
             d="m 500,75 h 24 v 6 h -24 z" /><path
             id="path1330"
             style="fill:none;stroke:#3366cc;stroke-width:1;stroke-linecap:butt;stroke-linejoin:miter;stroke-miterlimit:10;stroke-dasharray:none;stroke-opacity:1"
             d="m 500,75 h 24" /><text
             id="text1334"
             style="font-variant:normal;font-weight:normal;font-size:12px;font-family:Arial;-inkscape-font-specification:ArialMT;writing-mode:lr-tb;fill:#222222;fill-opacity:1;fill-rule:nonzero;stroke:none"
             transform="translate(529,98.199997)"><tspan
               id="tspan1332"
               y="0"
               x="0 8.0039062 14.677734 21.351562 28.025391 30.691406 37.365234">Pending</tspan></text>
<path
             id="path1336"
             style="fill:#dc3912;fill-opacity:0.30199998;fill-rule:nonzero;stroke:none"
             d="m 500,94 h 24 v 6 h -24 z" /><path
             id="path1338"
             style="fill:none;stroke:#dc3912;stroke-width:1;stroke-linecap:butt;stroke-linejoin:miter;stroke-miterlimit:10;stroke-dasharray:none;stroke-opacity:1"
             d="m 500,94 h 24" /><text
             id="text1342"
             style="font-variant:normal;font-weight:normal;font-size:12px;font-family:Arial;-inkscape-font-specification:ArialMT;writing-mode:lr-tb;fill:#222222;fill-opacity:1;fill-rule:nonzero;stroke:none"
             transform="translate(529,117.2)"><tspan
               id="tspan1340"
               y="0"
               x="0 8.6660156 15.339844 22.013672 28.6875 35.361328 41.361328 44.695312 51.369141">Connected</tspan></text>
<path
             id="path1344"
             style="fill:#ff9900;fill-opacity:0.30199998;fill-rule:nonzero;stroke:none"
             d="m 500,113 h 24 v 6 h -24 z" /><path
             id="path1346"
             style="fill:none;stroke:#ff9900;stroke-width:1;stroke-linecap:butt;stroke-linejoin:miter;stroke-miterlimit:10;stroke-dasharray:none;stroke-opacity:1"
             d="m 500,113 h 24" /><text
             id="text1350"
             style="font-variant:normal;font-weight:normal;font-size:12px;font-family:Arial;-inkscape-font-specification:ArialMT;writing-mode:lr-tb;fill:#222222;fill-opacity:1;fill-rule:nonzero;stroke:none"
             transform="translate(529,136.2)"><tspan
               id="tspan1348"
               y="0"
               x="0 8.0039062 14.677734 18.673828 24.673828 27.339844 33.339844">Service</tspan></text>
<text
             id="text1354"
             style="font-variant:normal;font-weight:normal;font-size:12px;font-family:Arial;-inkscape-font-specification:ArialMT;writing-mode:lr-tb;fill:#222222;fill-opacity:1;fill-rule:nonzero;stroke:none"
             transform="translate(529,152.2)"><tspan
               id="tspan1352"
               y="0"
               x="0 6.6738281 12.673828 19.347656 22.013672 24.679688 31.353516 38.027344 40.693359">available</tspan></text>
<path
             id="path1356"
             style="fill:#109618;fill-opacity:0.30199998;fill-rule:nonzero;stroke:none"
             d="m 500,132 h 24 v 6 h -24 z" /><path
             id="path1358"
             style="fill:none;stroke:#109618;stroke-width:1;stroke-linecap:butt;stroke-linejoin:miter;stroke-miterlimit:10;stroke-dasharray:none;stroke-opacity:1"
             d="m 500,132 h 24" /></g></g></g><g
       id="g1360"><g
         clip-path="url(#clipPath1366)"
         id="g1362"><g
           transform="matrix(3.125,0,0,3.125,145.83333,808.33331)"
           id="g1368"><path
             id="path1370"
             style="fill:#cccccc;fill-opacity:1;fill-rule:nonzero;stroke:none"
             d="m 113,290 h 375 v 1 H 113 Z" /><path
             id="path1372"
             style="fill:#cccccc;fill-opacity:1;fill-rule:nonzero;stroke:none"
             d="m 113,246 h 375 v 1 H 113 Z" /><path
             id="path1374"
             style="fill:#cccccc;fill-opacity:1;fill-rule:nonzero;stroke:none"
             d="m 113,202 h 375 v 1 H 113 Z" /><path
             id="path1376"
             style="fill:#cccccc;fill-opacity:1;fill-rule:nonzero;stroke:none"
             d="m 113,157 h 375 v 1 H 113 Z" /><path
             id="path1378"
             style="fill:#cccccc;fill-opacity:1;fill-rule:nonzero;stroke:none"
             d="m 113,113 h 375 v 1 H 113 Z" /><path
             id="path1380"
             style="fill:#cccccc;fill-opacity:1;fill-rule:nonzero;stroke:none"
             d="m 113,69 h 375 v 1 H 113 Z" /><path
             id="path1382"
             style="fill:#ebebeb;fill-opacity:1;fill-rule:nonzero;stroke:none"
             d="m 113,268 h 375 v 1 H 113 Z" /><path
             id="path1384"
             style="fill:#ebebeb;fill-opacity:1;fill-rule:nonzero;stroke:none"
             d="m 113,224 h 375 v 1 H 113 Z" /><path
             id="path1386"
             style="fill:#ebebeb;fill-opacity:1;fill-rule:nonzero;stroke:none"
             d="m 113,180 h 375 v 1 H 113 Z" /><path
             id="path1388"
             style="fill:#ebebeb;fill-opacity:1;fill-rule:nonzero;stroke:none"
             d="m 113,135 h 375 v 1 H 113 Z" /><path
             id="path1390"
             style="fill:#ebebeb;fill-opacity:1;fill-rule:nonzero;stroke:none"
             d="m 113,91 h 375 v 1 H 113 Z" /><path
             id="path1392"
             style="fill:#3366cc;fill-opacity:0.30199998;fill-rule:nonzero;stroke:none"
             d="m 113.5,290.5 h 5.75384 5.75385 5.75385 5.75384 5.75385 5.75384 5.75385 5.75384 5.75386 5.75385 5.75384 5.75385 5.75384 5.75385 5.75384 5.75385 5.75384 5.75385 5.75384 5.75385 5.75384 5.75385 5.75385 5.75384 5.75386 5.75385 5.75384 5.75385 5.75384 5.75385 5.75384 5.75385 5.75384 5.75385 5.75384 5.75385 5.75384 5.75385 5.75384 5.75385 5.75384 5.75385 5.75384 5.75385 5.75385 5.75384 5.75385 5.75384 5.75388 5.75384 5.75385 5.75384 5.75385 5.75384 5.75385 5.75384 5.75385 5.75384 5.75385 5.75384 l 5.75385,-38.675 5.75384,-38.896 5.75385,-38.896 5.75384,-39.117 L 487.5,95.357002 V 290.5 Z" /><path
             id="path1394"
             style="fill:#dc3912;fill-opacity:0.30199998;fill-rule:nonzero;stroke:none"
             d="m 113.5,290.5 v -0.22101 l 5.75384,-0.22098 h 5.75385 5.75385 5.75384 5.75385 l 5.75384,0.44199 h 5.75385 5.75384 5.75386 5.75385 5.75384 5.75385 5.75384 5.75385 5.75384 5.75385 5.75384 5.75385 5.75384 5.75385 5.75384 5.75385 5.75385 5.75384 5.75386 5.75385 5.75384 5.75385 5.75384 5.75385 5.75384 5.75385 5.75384 5.75385 5.75384 5.75385 5.75384 5.75385 5.75384 5.75385 5.75384 5.75385 5.75384 5.75385 5.75385 5.75384 5.75385 5.75384 5.75388 5.75384 5.75385 5.75384 5.75385 5.75384 5.75385 5.75384 5.75385 5.75384 5.75385 5.75384 5.75385 5.75384 5.75385 5.75384 5.75385 z" /><path
             id="path1396"
             style="fill:#ff9900;fill-opacity:0.30199998;fill-rule:nonzero;stroke:none"
             d="m 113.5,290.5 5.75384,-38.675 5.75385,-39.11701 5.75385,-38.89599 5.75384,-39.11699 5.75385,-39.559008 L 148.02307,69.5 h 5.75385 5.75384 5.75386 5.75385 5.75384 5.75385 5.75384 5.75385 5.75384 5.75385 5.75384 5.75385 5.75384 5.75385 5.75384 5.75385 5.75385 5.75384 5.75386 5.75385 5.75384 5.75385 5.75384 5.75385 5.75384 5.75385 5.75384 5.75385 5.75384 5.75385 5.75384 5.75385 5.75384 5.75385 5.75384 5.75385 5.75384 5.75385 5.75385 5.75384 5.75385 5.75384 5.75388 5.75384 5.75385 5.75384 5.75385 5.75384 5.75385 5.75384 5.75385 5.75384 5.75385 5.75384 l 5.75385,38.675 5.75384,38.896 5.75385,38.896 5.75384,39.117 5.75385,39.55901 V 290.5 Z" /><path
             id="path1398"
             style="fill:#109618;fill-opacity:0.30199998;fill-rule:nonzero;stroke:none"
             d="m 113.5,69.5 h 374 v 221 h -374 z" /><path
             id="path1400"
             style="fill:#333333;fill-opacity:1;fill-rule:nonzero;stroke:none"
             d="m 113,290 h 375 v 1 H 113 Z" /><path
             id="path1402"
             style="fill:none;stroke:#3366cc;stroke-width:1;stroke-linecap:butt;stroke-linejoin:miter;stroke-miterlimit:10;stroke-dasharray:none;stroke-opacity:1"
             d="m 113.5,290.5 h 5.75384 5.75385 5.75385 5.75384 5.75385 5.75384 5.75385 5.75384 5.75386 5.75385 5.75384 5.75385 5.75384 5.75385 5.75384 5.75385 5.75384 5.75385 5.75384 5.75385 5.75384 5.75385 5.75385 5.75384 5.75386 5.75385 5.75384 5.75385 5.75384 5.75385 5.75384 5.75385 5.75384 5.75385 5.75384 5.75385 5.75384 5.75385 5.75384 5.75385 5.75384 5.75385 5.75384 5.75385 5.75385 5.75384 5.75385 5.75384 5.75388 5.75384 5.75385 5.75384 5.75385 5.75384 5.75385 5.75384 5.75385 5.75384 5.75385 5.75384 l 5.75385,-38.675 5.75384,-38.896 5.75385,-38.896 5.75384,-39.117 L 487.5,95.357002" /><path
             id="path1404"
             style="fill:none;stroke:#dc3912;stroke-width:1;stroke-linecap:butt;stroke-linejoin:miter;stroke-miterlimit:10;stroke-dasharray:none;stroke-opacity:1"
             d="m 113.5,290.27899 5.75384,-0.22098 h 5.75385 5.75385 5.75384 5.75385 l 5.75384,0.44199 h 5.75385 5.75384 5.75386 5.75385 5.75384 5.75385 5.75384 5.75385 5.75384 5.75385 5.75384 5.75385 5.75384 5.75385 5.75384 5.75385 5.75385 5.75384 5.75386 5.75385 5.75384 5.75385 5.75384 5.75385 5.75384 5.75385 5.75384 5.75385 5.75384 5.75385 5.75384 5.75385 5.75384 5.75385 5.75384 5.75385 5.75384 5.75385 5.75385 5.75384 5.75385 5.75384 5.75388 5.75384 5.75385 5.75384 5.75385 5.75384 5.75385 5.75384 5.75385 5.75384 5.75385 5.75384 5.75385 5.75384 5.75385 5.75384 5.75385" /><path
             id="path1406"
             style="fill:none;stroke:#ff9900;stroke-width:1;stroke-linecap:butt;stroke-linejoin:miter;stroke-miterlimit:10;stroke-dasharray:none;stroke-opacity:1"
             d="m 113.5,290.5 5.75384,-38.675 5.75385,-39.11701 5.75385,-38.89599 5.75384,-39.11699 5.75385,-39.559008 L 148.02307,69.5 h 5.75385 5.75384 5.75386 5.75385 5.75384 5.75385 5.75384 5.75385 5.75384 5.75385 5.75384 5.75385 5.75384 5.75385 5.75384 5.75385 5.75385 5.75384 5.75386 5.75385 5.75384 5.75385 5.75384 5.75385 5.75384 5.75385 5.75384 5.75385 5.75384 5.75385 5.75384 5.75385 5.75384 5.75385 5.75384 5.75385 5.75384 5.75385 5.75385 5.75384 5.75385 5.75384 5.75388 5.75384 5.75385 5.75384 5.75385 5.75384 5.75385 5.75384 5.75385 5.75384 5.75385 5.75384 l 5.75385,38.675 5.75384,38.896 5.75385,38.896 5.75384,39.117 5.75385,39.55901" /><path
             id="path1408"
             style="fill:none;stroke:#109618;stroke-width:1;stroke-linecap:butt;stroke-linejoin:miter;stroke-miterlimit:10;stroke-dasharray:none;stroke-opacity:1"
             d="m 113.5,69.5 h 5.75384 5.75385 5.75385 5.75384 5.75385 5.75384 5.75385 5.75384 5.75386 5.75385 5.75384 5.75385 5.75384 5.75385 5.75384 5.75385 5.75384 5.75385 5.75384 5.75385 5.75384 5.75385 5.75385 5.75384 5.75386 5.75385 5.75384 5.75385 5.75384 5.75385 5.75384 5.75385 5.75384 5.75385 5.75384 5.75385 5.75384 5.75385 5.75384 5.75385 5.75384 5.75385 5.75384 5.75385 5.75385 5.75384 5.75385 5.75384 5.75388 5.75384 5.75385 5.75384 5.75385 5.75384 5.75385 5.75384 5.75385 5.75384 5.75385 5.75384 5.75385 5.75384 5.75385 5.75384 5.75385" /></g></g></g><g
       id="g1410"><g
         clip-path="url(#clipPath1416)"
         id="g1412"><g
           transform="matrix(2.7063293,-1.5625,1.5625,2.7063293,-286.45166,1117.757)"
           id="g1418"><text
             id="text1422"
             style="font-variant:normal;font-weight:normal;font-size:12px;font-family:Arial;-inkscape-font-specification:ArialMT;writing-mode:lr-tb;fill:#222222;fill-opacity:1;fill-rule:nonzero;stroke:none"
             transform="translate(108.92617,307.6373)"><tspan
               id="tspan1420"
               y="0"
               x="0">0</tspan></text>
</g><g
           transform="matrix(2.7063293,-1.5625,1.5625,2.7063293,-274.4068,1162.709)"
           id="g1424"><text
             id="text1428"
             style="font-variant:normal;font-weight:normal;font-size:12px;font-family:Arial;-inkscape-font-specification:ArialMT;writing-mode:lr-tb;fill:#222222;fill-opacity:1;fill-rule:nonzero;stroke:none"
             transform="translate(137.6954,307.6373)"><tspan
               id="tspan1426"
               y="0"
               x="0">5</tspan></text>
</g><g
           transform="matrix(2.7063293,-1.5625,1.5625,2.7063293,-262.362,1207.6609)"
           id="g1430"><text
             id="text1434"
             style="font-variant:normal;font-weight:normal;font-size:12px;font-family:Arial;-inkscape-font-specification:ArialMT;writing-mode:lr-tb;fill:#222222;fill-opacity:1;fill-rule:nonzero;stroke:none"
             transform="translate(159.7908,307.6373)"><tspan
               id="tspan1432"
               y="0"
               x="0 6.6738281">10</tspan></text>
</g><g
           transform="matrix(2.7063293,-1.5625,1.5625,2.7063293,-250.31715,1252.6128)"
           id="g1436"><text
             id="text1440"
             style="font-variant:normal;font-weight:normal;font-size:12px;font-family:Arial;-inkscape-font-specification:ArialMT;writing-mode:lr-tb;fill:#222222;fill-opacity:1;fill-rule:nonzero;stroke:none"
             transform="translate(188.56004,307.6373)"><tspan
               id="tspan1438"
               y="0"
               x="0 6.6738281">15</tspan></text>
</g><g
           transform="matrix(2.7063293,-1.5625,1.5625,2.7063293,-238.27229,1297.5647)"
           id="g1442"><text
             id="text1446"
             style="font-variant:normal;font-weight:normal;font-size:12px;font-family:Arial;-inkscape-font-specification:ArialMT;writing-mode:lr-tb;fill:#222222;fill-opacity:1;fill-rule:nonzero;stroke:none"
             transform="translate(217.32927,307.6373)"><tspan
               id="tspan1444"
               y="0"
               x="0 6.6738281">20</tspan></text>
</g><g
           transform="matrix(2.7063293,-1.5625,1.5625,2.7063293,-226.22746,1342.5166)"
           id="g1448"><text
             id="text1452"
             style="font-variant:normal;font-weight:normal;font-size:12px;font-family:Arial;-inkscape-font-specification:ArialMT;writing-mode:lr-tb;fill:#222222;fill-opacity:1;fill-rule:nonzero;stroke:none"
             transform="translate(246.09851,307.6373)"><tspan
               id="tspan1450"
               y="0"
               x="0 6.6738281">25</tspan></text>
</g><g
           transform="matrix(2.7063293,-1.5625,1.5625,2.7063293,-214.18263,1387.4685)"
           id="g1454"><text
             id="text1458"
             style="font-variant:normal;font-weight:normal;font-size:12px;font-family:Arial;-inkscape-font-specification:ArialMT;writing-mode:lr-tb;fill:#222222;fill-opacity:1;fill-rule:nonzero;stroke:none"
             transform="translate(274.86774,307.6373)"><tspan
               id="tspan1456"
               y="0"
               x="0 6.6738281">30</tspan></text>
</g><g
           transform="matrix(2.7063293,-1.5625,1.5625,2.7063293,-202.1378,1432.4204)"
           id="g1460"><text
             id="text1464"
             style="font-variant:normal;font-weight:normal;font-size:12px;font-family:Arial;-inkscape-font-specification:ArialMT;writing-mode:lr-tb;fill:#222222;fill-opacity:1;fill-rule:nonzero;stroke:none"
             transform="translate(303.63696,307.6373)"><tspan
               id="tspan1462"
               y="0"
               x="0 6.6738281">35</tspan></text>
</g><g
           transform="matrix(2.7063293,-1.5625,1.5625,2.7063293,-190.09297,1477.3723)"
           id="g1466"><text
             id="text1470"
             style="font-variant:normal;font-weight:normal;font-size:12px;font-family:Arial;-inkscape-font-specification:ArialMT;writing-mode:lr-tb;fill:#222222;fill-opacity:1;fill-rule:nonzero;stroke:none"
             transform="translate(332.40619,307.6373)"><tspan
               id="tspan1468"
               y="0"
               x="0 6.6738281">40</tspan></text>
</g><g
           transform="matrix(2.7063293,-1.5625,1.5625,2.7063293,-178.04814,1522.3242)"
           id="g1472"><text
             id="text1476"
             style="font-variant:normal;font-weight:normal;font-size:12px;font-family:Arial;-inkscape-font-specification:ArialMT;writing-mode:lr-tb;fill:#222222;fill-opacity:1;fill-rule:nonzero;stroke:none"
             transform="translate(361.17542,307.6373)"><tspan
               id="tspan1474"
               y="0"
               x="0 6.6738281">45</tspan></text>
</g><g
           transform="matrix(2.7063293,-1.5625,1.5625,2.7063293,-166.00331,1567.2761)"
           id="g1478"><text
             id="text1482"
             style="font-variant:normal;font-weight:normal;font-size:12px;font-family:Arial;-inkscape-font-specification:ArialMT;writing-mode:lr-tb;fill:#222222;fill-opacity:1;fill-rule:nonzero;stroke:none"
             transform="translate(389.94464,307.6373)"><tspan
               id="tspan1480"
               y="0"
               x="0 6.6738281">50</tspan></text>
</g><g
           transform="matrix(2.7063293,-1.5625,1.5625,2.7063293,-153.95848,1612.228)"
           id="g1484"><text
             id="text1488"
             style="font-variant:normal;font-weight:normal;font-size:12px;font-family:Arial;-inkscape-font-specification:ArialMT;writing-mode:lr-tb;fill:#222222;fill-opacity:1;fill-rule:nonzero;stroke:none"
             transform="translate(418.71387,307.6373)"><tspan
               id="tspan1486"
               y="0"
               x="0 6.6738281">55</tspan></text>
</g><g
           transform="matrix(2.7063293,-1.5625,1.5625,2.7063293,-141.91365,1657.1802)"
           id="g1490"><text
             id="text1494"
             style="font-variant:normal;font-weight:normal;font-size:12px;font-family:Arial;-inkscape-font-specification:ArialMT;writing-mode:lr-tb;fill:#222222;fill-opacity:1;fill-rule:nonzero;stroke:none"
             transform="translate(447.48312,307.6373)"><tspan
               id="tspan1492"
               y="0"
               x="0 6.6738281">60</tspan></text>
</g><g
           transform="matrix(2.7063293,-1.5625,1.5625,2.7063293,-129.86882,1702.1321)"
           id="g1496"><text
             id="text1500"
             style="font-variant:normal;font-weight:normal;font-size:12px;font-family:Arial;-inkscape-font-specification:ArialMT;writing-mode:lr-tb;fill:#222222;fill-opacity:1;fill-rule:nonzero;stroke:none"
             transform="translate(476.25235,307.6373)"><tspan
               id="tspan1498"
               y="0"
               x="0 6.6738281">65</tspan></text>
</g><g
           transform="matrix(3.125,0,0,3.125,145.83333,808.33331)"
           id="g1502"><text
             id="text1506"
             style="font-variant:normal;font-weight:normal;font-size:12px;font-family:Arial;-inkscape-font-specification:ArialMT;writing-mode:lr-tb;fill:#444444;fill-opacity:1;fill-rule:nonzero;stroke:none"
             transform="translate(94.326172,294.70001)"><tspan
               id="tspan1504"
               y="0"
               x="0">0</tspan></text>
<text
             id="text1510"
             style="font-variant:normal;font-weight:normal;font-size:12px;font-family:Arial;-inkscape-font-specification:ArialMT;writing-mode:lr-tb;fill:#444444;fill-opacity:1;fill-rule:nonzero;stroke:none"
             transform="translate(80.978516,250.5)"><tspan
               id="tspan1508"
               y="0"
               x="0 6.6738281 13.347656">200</tspan></text>
<text
             id="text1514"
             style="font-variant:normal;font-weight:normal;font-size:12px;font-family:Arial;-inkscape-font-specification:ArialMT;writing-mode:lr-tb;fill:#444444;fill-opacity:1;fill-rule:nonzero;stroke:none"
             transform="translate(80.978516,206.3)"><tspan
               id="tspan1512"
               y="0"
               x="0 6.6738281 13.347656">400</tspan></text>
<text
             id="text1518"
             style="font-variant:normal;font-weight:normal;font-size:12px;font-family:Arial;-inkscape-font-specification:ArialMT;writing-mode:lr-tb;fill:#444444;fill-opacity:1;fill-rule:nonzero;stroke:none"
             transform="translate(80.978516,162.10001)"><tspan
               id="tspan1516"
               y="0"
               x="0 6.6738281 13.347656">600</tspan></text>
<text
             id="text1522"
             style="font-variant:normal;font-weight:normal;font-size:12px;font-family:Arial;-inkscape-font-specification:ArialMT;writing-mode:lr-tb;fill:#444444;fill-opacity:1;fill-rule:nonzero;stroke:none"
             transform="translate(80.978516,117.9)"><tspan
               id="tspan1520"
               y="0"
               x="0 6.6738281 13.347656">800</tspan></text>
<text
             id="text1526"
             style="font-variant:normal;font-weight:normal;font-size:12px;font-family:Arial;-inkscape-font-specification:ArialMT;writing-mode:lr-tb;fill:#444444;fill-opacity:1;fill-rule:nonzero;stroke:none"
             transform="translate(70.970703,73.699997)"><tspan
               id="tspan1524"
               y="0"
               x="0 6.6738281 10.007812 16.681641 23.355469">1,000</tspan></text>
<text
             id="text1530"
             style="font-style:italic;font-variant:normal;font-size:12px;font-family:Arial;-inkscape-font-specification:Arial-ItalicMT;writing-mode:lr-tb;fill:#ff0000;fill-opacity:1;fill-rule:nonzero;stroke:none"
             transform="translate(277.15039,341.70001)"><tspan
               id="tspan1528"
               y="0"
               x="0 8.0039062 14.677734 20.677734 27.351562 34.025391 40.699219">Seconds</tspan></text>
</g><g
           transform="matrix(0,-3.125,3.125,0,-292.60419,1494.8958)"
           id="g1532"><text
             id="text1536"
             style="font-style:italic;font-variant:normal;font-size:12px;font-family:Arial;-inkscape-font-specification:Arial-ItalicMT;writing-mode:lr-tb;fill:#ff0000;fill-opacity:1;fill-rule:nonzero;stroke:none"
             transform="translate(6.3455086,180)"><tspan
               id="tspan1534"
               y="0"
               x="0 8.6660156 15.339844 22.013672 28.6875 35.361328 41.361328 44.695312 47.361328 54.035156 60.708984">Connections</tspan></text>
</g></g></g></g></svg>