<?xml version="1.0" encoding="UTF-8" standalone="no"?>
<svg
   xmlns:dc="http://purl.org/dc/elements/1.1/"
   xmlns:cc="http://creativecommons.org/ns#"
   xmlns:rdf="http://www.w3.org/1999/02/22-rdf-syntax-ns#"
   xmlns:svg="http://www.w3.org/2000/svg"
   xmlns="http://www.w3.org/2000/svg"
   viewBox="0 0 599.99994 359.99997"
   height="359.99997"
   width="599.99994"
   xml:space="preserve"
   id="svg834"
   version="1.1"><metadata
     id="metadata840"><rdf:RDF><cc:Work
         rdf:about=""><dc:format>image/svg+xml</dc:format><dc:type
           rdf:resource="http://purl.org/dc/dcmitype/StillImage" /><dc:title></dc:title></cc:Work></rdf:RDF></metadata><defs
     id="defs838"><clipPath
       id="clipPath850"
       clipPathUnits="userSpaceOnUse"><path
         style="clip-rule:evenodd"
         id="path848"
         d="M 120.83333,120.83333 H 3183.3333 V 2433.3333 H 120.83333 Z" /></clipPath><clipPath
       id="clipPath946"
       clipPathUnits="userSpaceOnUse"><path
         style="clip-rule:evenodd"
         id="path944"
         d="M 145.83333,808.33331 H 2020.8333 V 1933.3333 H 145.83333 Z" /></clipPath><clipPath
       id="clipPath998"
       clipPathUnits="userSpaceOnUse"><path
         style="clip-rule:evenodd"
         id="path996"
         d="M 498.95831,1023.9583 H 1670.8333 v 693.75 H 498.95831 Z" /></clipPath><clipPath
       id="clipPath1048"
       clipPathUnits="userSpaceOnUse"><path
         style="clip-rule:evenodd"
         id="path1046"
         d="M 145.83333,808.33331 H 2020.8333 V 1933.3333 H 145.83333 Z" /></clipPath></defs><g
     transform="matrix(0.31999998,0,0,0.31999998,-46.666663,-258.66664)"
     id="g842"><g
       id="g844"><g
         clip-path="url(#clipPath850)"
         id="g846"><g
           transform="matrix(3.125,0,0,3.125,120.83333,120.83333)"
           id="g852" /></g></g><g
       id="g940"><g
         clip-path="url(#clipPath946)"
         id="g942"><g
           transform="matrix(3.125,0,0,3.125,145.83333,808.33331)"
           id="g948"><path
             id="path950"
             style="fill:#ffffff;fill-opacity:1;fill-rule:nonzero;stroke:none"
             d="M 0,0 H 600 V 360 H 0 Z" /><text
             id="text954"
             style="font-variant:normal;font-weight:bold;font-size:12px;font-family:Arial;-inkscape-font-specification:Arial-BoldMT;writing-mode:lr-tb;fill:#000000;fill-opacity:1;fill-rule:nonzero;stroke:none"
             transform="translate(113,48.200001)"><tspan
               id="tspan952"
               y="0"
               x="0 6.4394531 13.113281 19.787109 23.783203 27.117188 31.787109 38.460938 45.134766 52.464844 55.798828 59.794922 66.46875 69.802734 76.476562 83.806641 90.480469 93.814453 101.14453 107.81836 111.81445 115.14844 122.47852 126.47461 130.4707 137.80078 141.79688 145.13086 148.46484 155.13867 161.8125 166.48242 173.15625 179.83008 184.5">Test results against http://server/</tspan></text>
<text
             id="text958"
             style="font-variant:normal;font-weight:normal;font-size:12px;font-family:Arial;-inkscape-font-specification:ArialMT;writing-mode:lr-tb;fill:#222222;fill-opacity:1;fill-rule:nonzero;stroke:none"
             transform="translate(529,79.199997)"><tspan
               id="tspan956"
               y="0"
               x="0 8.6660156 11.332031 18.005859 24.005859 30.679688">Closed</tspan></text>
<path
             id="path960"
             style="fill:#3366cc;fill-opacity:0.30199998;fill-rule:nonzero;stroke:none"
             d="m 500,75 h 24 v 6 h -24 z" /><path
             id="path962"
             style="fill:none;stroke:#3366cc;stroke-width:1;stroke-linecap:butt;stroke-linejoin:miter;stroke-miterlimit:10;stroke-dasharray:none;stroke-opacity:1"
             d="m 500,75 h 24" /><text
             id="text966"
             style="font-variant:normal;font-weight:normal;font-size:12px;font-family:Arial;-inkscape-font-specification:ArialMT;writing-mode:lr-tb;fill:#222222;fill-opacity:1;fill-rule:nonzero;stroke:none"
             transform="translate(529,98.199997)"><tspan
               id="tspan964"
               y="0"
               x="0 8.0039062 14.677734 21.351562 28.025391 30.691406 37.365234">Pending</tspan></text>
<path
             id="path968"
             style="fill:#dc3912;fill-opacity:0.30199998;fill-rule:nonzero;stroke:none"
             d="m 500,94 h 24 v 6 h -24 z" /><path
             id="path970"
             style="fill:none;stroke:#dc3912;stroke-width:1;stroke-linecap:butt;stroke-linejoin:miter;stroke-miterlimit:10;stroke-dasharray:none;stroke-opacity:1"
             d="m 500,94 h 24" /><text
             id="text974"
             style="font-variant:normal;font-weight:normal;font-size:12px;font-family:Arial;-inkscape-font-specification:ArialMT;writing-mode:lr-tb;fill:#222222;fill-opacity:1;fill-rule:nonzero;stroke:none"
             transform="translate(529,117.2)"><tspan
               id="tspan972"
               y="0"
               x="0 8.6660156 15.339844 22.013672 28.6875 35.361328 41.361328 44.695312 51.369141">Connected</tspan></text>
<path
             id="path976"
             style="fill:#ff9900;fill-opacity:0.30199998;fill-rule:nonzero;stroke:none"
             d="m 500,113 h 24 v 6 h -24 z" /><path
             id="path978"
             style="fill:none;stroke:#ff9900;stroke-width:1;stroke-linecap:butt;stroke-linejoin:miter;stroke-miterlimit:10;stroke-dasharray:none;stroke-opacity:1"
             d="m 500,113 h 24" /><text
             id="text982"
             style="font-variant:normal;font-weight:normal;font-size:12px;font-family:Arial;-inkscape-font-specification:ArialMT;writing-mode:lr-tb;fill:#222222;fill-opacity:1;fill-rule:nonzero;stroke:none"
             transform="translate(529,136.2)"><tspan
               id="tspan980"
               y="0"
               x="0 8.0039062 14.677734 18.673828 24.673828 27.339844 33.339844">Service</tspan></text>
<text
             id="text986"
             style="font-variant:normal;font-weight:normal;font-size:12px;font-family:Arial;-inkscape-font-specification:ArialMT;writing-mode:lr-tb;fill:#222222;fill-opacity:1;fill-rule:nonzero;stroke:none"
             transform="translate(529,152.2)"><tspan
               id="tspan984"
               y="0"
               x="0 6.6738281 12.673828 19.347656 22.013672 24.679688 31.353516 38.027344 40.693359">available</tspan></text>
<path
             id="path988"
             style="fill:#109618;fill-opacity:0.30199998;fill-rule:nonzero;stroke:none"
             d="m 500,132 h 24 v 6 h -24 z" /><path
             id="path990"
             style="fill:none;stroke:#109618;stroke-width:1;stroke-linecap:butt;stroke-linejoin:miter;stroke-miterlimit:10;stroke-dasharray:none;stroke-opacity:1"
             d="m 500,132 h 24" /></g></g></g><g
       id="g992"><g
         clip-path="url(#clipPath998)"
         id="g994"><g
           transform="matrix(3.125,0,0,3.125,145.83333,808.33331)"
           id="g1000"><path
             id="path1002"
             style="fill:#cccccc;fill-opacity:1;fill-rule:nonzero;stroke:none"
             d="m 113,290 h 375 v 1 H 113 Z" /><path
             id="path1004"
             style="fill:#cccccc;fill-opacity:1;fill-rule:nonzero;stroke:none"
             d="m 113,246 h 375 v 1 H 113 Z" /><path
             id="path1006"
             style="fill:#cccccc;fill-opacity:1;fill-rule:nonzero;stroke:none"
             d="m 113,202 h 375 v 1 H 113 Z" /><path
             id="path1008"
             style="fill:#cccccc;fill-opacity:1;fill-rule:nonzero;stroke:none"
             d="m 113,157 h 375 v 1 H 113 Z" /><path
             id="path1010"
             style="fill:#cccccc;fill-opacity:1;fill-rule:nonzero;stroke:none"
             d="m 113,113 h 375 v 1 H 113 Z" /><path
             id="path1012"
             style="fill:#cccccc;fill-opacity:1;fill-rule:nonzero;stroke:none"
             d="m 113,69 h 375 v 1 H 113 Z" /><path
             id="path1014"
             style="fill:#ebebeb;fill-opacity:1;fill-rule:nonzero;stroke:none"
             d="m 113,268 h 375 v 1 H 113 Z" /><path
             id="path1016"
             style="fill:#ebebeb;fill-opacity:1;fill-rule:nonzero;stroke:none"
             d="m 113,224 h 375 v 1 H 113 Z" /><path
             id="path1018"
             style="fill:#ebebeb;fill-opacity:1;fill-rule:nonzero;stroke:none"
             d="m 113,180 h 375 v 1 H 113 Z" /><path
             id="path1020"
             style="fill:#ebebeb;fill-opacity:1;fill-rule:nonzero;stroke:none"
             d="m 113,135 h 375 v 1 H 113 Z" /><path
             id="path1022"
             style="fill:#ebebeb;fill-opacity:1;fill-rule:nonzero;stroke:none"
             d="m 113,91 h 375 v 1 H 113 Z" /><path
             id="path1024"
             style="fill:#3366cc;fill-opacity:0.30199998;fill-rule:nonzero;stroke:none"
             d="m 113.5,290.5 h 3.09091 3.09091 3.09091 3.09091 3.0909 3.09092 3.09091 3.09091 3.0909 3.09091 3.09091 3.09091 3.09091 3.0909 3.09091 3.09091 3.09092 3.09091 3.09091 3.0909 l 3.09091,-0.44199 3.09091,-16.13302 3.09091,-11.04999 3.09091,-22.10001 h 3.0909 3.09091 3.09091 3.09092 3.09091 3.09091 3.0909 3.09091 3.09091 3.09091 3.09091 3.0909 3.09091 3.09091 3.09092 3.09091 3.09091 l 3.0909,-0.442 L 246.40909,224.2 249.5,213.14999 252.59091,202.321 h 3.09091 3.09092 3.09091 3.09091 3.09088 3.09091 l 3.09091,-0.22099 h 3.09092 L 280.40909,191.05 h 3.09091 3.09091 3.09091 3.09092 3.09091 3.09091 3.09088 l 3.09091,-0.442 3.09091,-9.724 3.09092,-17.238 3.09091,-0.88401 h 3.09091 3.09091 l 3.09091,-0.44198 3.09092,-1.76801 h 3.09091 3.09091 3.09088 3.09091 3.09091 3.09092 3.09091 3.09091 3.09091 3.09091 3.09092 3.09091 3.09091 3.09088 3.09091 3.09091 3.09092 3.09091 3.09091 l 3.09091,-27.625 h 3.09091 3.09092 l 3.09091,-22.1 h 3.09091 3.09088 3.09091 3.09091 3.09092 3.09091 3.09091 3.09091 3.09091 3.09092 3.09091 3.09091 3.09088 3.09091 3.09091 3.09092 3.09091 L 453.5,98.009003 h 3.09091 3.09091 3.09092 3.09091 3.09091 3.09088 3.09091 3.09091 3.09092 3.09091 H 487.5 V 290.5 Z" /><path
             id="path1026"
             style="fill:#dc3912;fill-opacity:0.30199998;fill-rule:nonzero;stroke:none"
             d="m 113.5,290.5 v -0.22101 l 3.09091,-0.22098 3.09091,-26.52002 3.09091,-29.39299 3.09091,-22.32099 3.0909,-39.78 3.09092,-24.31002 h 3.09091 3.09091 3.0909 3.09091 3.09091 3.09091 3.09091 3.0909 3.09091 3.09091 3.09092 3.09091 3.09091 3.0909 l 3.09091,10.166 h 3.09091 3.09091 3.09091 3.0909 3.09091 3.09091 3.09092 3.09091 3.09091 3.0909 3.09091 L 215.5,176.022 l 3.09091,13.48101 3.09091,9.94499 h 3.0909 3.09091 3.09091 3.09092 3.09091 3.09091 3.0909 3.09091 3.09091 3.09091 3.09091 3.09092 3.09091 3.09091 3.09088 3.09091 3.09091 3.09092 3.09091 3.09091 3.09091 3.09091 3.09092 3.09091 3.09091 3.09088 3.09091 3.09091 3.09092 3.09091 3.09091 3.09091 l 3.09091,27.625 h 3.09092 l 3.09091,34.918 h 3.09091 3.09088 3.09091 3.09091 3.09092 3.09091 3.09091 3.09091 3.09091 3.09092 3.09091 3.09091 3.09088 3.09091 3.09091 3.09092 3.09091 3.09091 3.09091 3.09091 3.09092 3.09091 3.09091 3.09088 3.09091 3.09091 3.09092 3.09091 3.09091 3.09091 3.09091 3.09092 3.09091 3.09091 3.09088 3.09091 3.09091 3.09092 3.09091 3.09091 3.09091 3.09091 3.09092 3.09091 3.09091 3.09088 3.09091 3.09091 3.09092 3.09091 H 487.5 V 290.5 Z" /><path
             id="path1028"
             style="fill:#ff9900;fill-opacity:0.30199998;fill-rule:nonzero;stroke:none"
             d="m 113.5,290.5 3.09091,-38.896 3.09091,-12.376 3.09091,-9.945 3.09091,-17.01699 h 3.0909 3.09092 3.09091 3.09091 3.0909 3.09091 3.09091 3.09091 3.09091 3.0909 3.09091 3.09091 3.09092 3.09091 3.09091 3.0909 l 3.09091,-9.724 3.09091,16.13299 3.09091,11.05001 3.09091,22.09999 h 3.0909 3.09091 3.09091 3.09092 3.09091 3.09091 3.0909 3.09091 l 3.09091,-18.122 3.09091,-13.481 3.09091,-9.94501 h 3.0909 3.09091 3.09091 3.09092 3.09091 3.09091 l 3.0909,0.442 3.09091,16.13302 3.09091,11.04998 3.09091,10.82901 h 3.09091 3.09092 3.09091 3.09091 3.09088 3.09091 l 3.09091,0.221 h 3.09092 l 3.09091,11.05001 h 3.09091 3.09091 3.09091 3.09092 3.09091 3.09091 3.09088 l 3.09091,0.44199 3.09091,9.724 3.09092,17.23801 3.09091,0.884 h 3.09091 3.09091 l 3.09091,-27.18302 3.09092,1.76801 3.09091,-34.918 h 3.09091 3.09088 3.09091 3.09091 3.09092 3.09091 3.09091 3.09091 3.09091 3.09092 3.09091 3.09091 3.09088 3.09091 3.09091 3.09092 3.09091 3.09091 l 3.09091,27.625 h 3.09091 3.09092 l 3.09091,22.10001 h 3.09091 3.09088 3.09091 3.09091 3.09092 3.09091 3.09091 3.09091 3.09091 3.09092 3.09091 3.09091 3.09088 3.09091 3.09091 3.09092 3.09091 L 453.5,290.5 h 3.09091 3.09091 3.09092 3.09091 3.09091 3.09088 3.09091 3.09091 3.09092 3.09091 3.09091 z" /><path
             id="path1030"
             style="fill:#109618;fill-opacity:0.30199998;fill-rule:nonzero;stroke:none"
             d="m 113.5,290.5 v -221 h 3.09091 3.09091 3.09091 3.09091 3.0909 l 3.09092,221 h 3.09091 3.09091 3.0909 3.09091 3.09091 3.09091 3.09091 3.0909 3.09091 3.09091 3.09092 3.09091 3.09091 3.0909 3.09091 3.09091 3.09091 l 3.09091,-221 h 3.0909 3.09091 3.09091 3.09092 3.09091 3.09091 3.0909 3.09091 3.09091 3.09091 3.09091 l 3.0909,221 h 3.09091 3.09091 3.09092 3.09091 3.09091 3.0909 3.09091 3.09091 l 3.09091,-221 h 3.09091 3.09092 3.09091 3.09091 3.09088 3.09091 3.09091 3.09092 3.09091 3.09091 3.09091 3.09091 3.09092 3.09091 3.09091 3.09088 3.09091 3.09091 3.09092 3.09091 3.09091 3.09091 3.09091 3.09092 3.09091 3.09091 3.09088 3.09091 3.09091 l 3.09092,221 h 3.09091 3.09091 3.09091 3.09091 3.09092 3.09091 3.09091 3.09088 3.09091 3.09091 3.09092 3.09091 3.09091 l 3.09091,-221 h 3.09091 3.09092 3.09091 3.09091 3.09088 3.09091 3.09091 3.09092 3.09091 3.09091 3.09091 3.09091 3.09092 3.09091 3.09091 3.09088 3.09091 3.09091 3.09092 3.09091 3.09091 3.09091 3.09091 3.09092 3.09091 3.09091 3.09088 3.09091 3.09091 3.09092 3.09091 3.09091 v 221 z" /><path
             id="path1032"
             style="fill:#333333;fill-opacity:1;fill-rule:nonzero;stroke:none"
             d="m 113,290 h 375 v 1 H 113 Z" /><path
             id="path1034"
             style="fill:none;stroke:#3366cc;stroke-width:1;stroke-linecap:butt;stroke-linejoin:miter;stroke-miterlimit:10;stroke-dasharray:none;stroke-opacity:1"
             d="m 113.5,290.5 h 3.09091 3.09091 3.09091 3.09091 3.0909 3.09092 3.09091 3.09091 3.0909 3.09091 3.09091 3.09091 3.09091 3.0909 3.09091 3.09091 3.09092 3.09091 3.09091 3.0909 l 3.09091,-0.44199 3.09091,-16.13302 3.09091,-11.04999 3.09091,-22.10001 h 3.0909 3.09091 3.09091 3.09092 3.09091 3.09091 3.0909 3.09091 3.09091 3.09091 3.09091 3.0909 3.09091 3.09091 3.09092 3.09091 3.09091 l 3.0909,-0.442 L 246.40909,224.2 249.5,213.14999 252.59091,202.321 h 3.09091 3.09092 3.09091 3.09091 3.09088 3.09091 l 3.09091,-0.22099 h 3.09092 L 280.40909,191.05 h 3.09091 3.09091 3.09091 3.09092 3.09091 3.09091 3.09088 l 3.09091,-0.442 3.09091,-9.724 3.09092,-17.238 3.09091,-0.88401 h 3.09091 3.09091 l 3.09091,-0.44198 3.09092,-1.76801 h 3.09091 3.09091 3.09088 3.09091 3.09091 3.09092 3.09091 3.09091 3.09091 3.09091 3.09092 3.09091 3.09091 3.09088 3.09091 3.09091 3.09092 3.09091 3.09091 l 3.09091,-27.625 h 3.09091 3.09092 l 3.09091,-22.1 h 3.09091 3.09088 3.09091 3.09091 3.09092 3.09091 3.09091 3.09091 3.09091 3.09092 3.09091 3.09091 3.09088 3.09091 3.09091 3.09092 3.09091 L 453.5,98.009003 h 3.09091 3.09091 3.09092 3.09091 3.09091 3.09088 3.09091 3.09091 3.09092 3.09091 3.09091" /><path
             id="path1036"
             style="fill:none;stroke:#dc3912;stroke-width:1;stroke-linecap:butt;stroke-linejoin:miter;stroke-miterlimit:10;stroke-dasharray:none;stroke-opacity:1"
             d="m 113.5,290.27899 3.09091,-0.22098 3.09091,-26.52002 3.09091,-29.39299 3.09091,-22.32099 3.0909,-39.78 3.09092,-24.31002 h 3.09091 3.09091 3.0909 3.09091 3.09091 3.09091 3.09091 3.0909 3.09091 3.09091 3.09092 3.09091 3.09091 3.0909 l 3.09091,10.166 h 3.09091 3.09091 3.09091 3.0909 3.09091 3.09091 3.09092 3.09091 3.09091 3.0909 3.09091 L 215.5,176.022 l 3.09091,13.48101 3.09091,9.94499 h 3.0909 3.09091 3.09091 3.09092 3.09091 3.09091 3.0909 3.09091 3.09091 3.09091 3.09091 3.09092 3.09091 3.09091 3.09088 3.09091 3.09091 3.09092 3.09091 3.09091 3.09091 3.09091 3.09092 3.09091 3.09091 3.09088 3.09091 3.09091 3.09092 3.09091 3.09091 3.09091 l 3.09091,27.625 h 3.09092 l 3.09091,34.918 h 3.09091 3.09088 3.09091 3.09091 3.09092 3.09091 3.09091 3.09091 3.09091 3.09092 3.09091 3.09091 3.09088 3.09091 3.09091 3.09092 3.09091 3.09091 3.09091 3.09091 3.09092 3.09091 3.09091 3.09088 3.09091 3.09091 3.09092 3.09091 3.09091 3.09091 3.09091 3.09092 3.09091 3.09091 3.09088 3.09091 3.09091 3.09092 3.09091 3.09091 3.09091 3.09091 3.09092 3.09091 3.09091 3.09088 3.09091 3.09091 3.09092 3.09091 3.09091" /><path
             id="path1038"
             style="fill:none;stroke:#ff9900;stroke-width:1;stroke-linecap:butt;stroke-linejoin:miter;stroke-miterlimit:10;stroke-dasharray:none;stroke-opacity:1"
             d="m 113.5,290.5 3.09091,-38.896 3.09091,-12.376 3.09091,-9.945 3.09091,-17.01699 h 3.0909 3.09092 3.09091 3.09091 3.0909 3.09091 3.09091 3.09091 3.09091 3.0909 3.09091 3.09091 3.09092 3.09091 3.09091 3.0909 l 3.09091,-9.724 3.09091,16.13299 3.09091,11.05001 3.09091,22.09999 h 3.0909 3.09091 3.09091 3.09092 3.09091 3.09091 3.0909 3.09091 l 3.09091,-18.122 3.09091,-13.481 3.09091,-9.94501 h 3.0909 3.09091 3.09091 3.09092 3.09091 3.09091 l 3.0909,0.442 3.09091,16.13302 3.09091,11.04998 3.09091,10.82901 h 3.09091 3.09092 3.09091 3.09091 3.09088 3.09091 l 3.09091,0.221 h 3.09092 l 3.09091,11.05001 h 3.09091 3.09091 3.09091 3.09092 3.09091 3.09091 3.09088 l 3.09091,0.44199 3.09091,9.724 3.09092,17.23801 3.09091,0.884 h 3.09091 3.09091 l 3.09091,-27.18302 3.09092,1.76801 3.09091,-34.918 h 3.09091 3.09088 3.09091 3.09091 3.09092 3.09091 3.09091 3.09091 3.09091 3.09092 3.09091 3.09091 3.09088 3.09091 3.09091 3.09092 3.09091 3.09091 l 3.09091,27.625 h 3.09091 3.09092 l 3.09091,22.10001 h 3.09091 3.09088 3.09091 3.09091 3.09092 3.09091 3.09091 3.09091 3.09091 3.09092 3.09091 3.09091 3.09088 3.09091 3.09091 3.09092 3.09091 L 453.5,290.5 h 3.09091 3.09091 3.09092 3.09091 3.09091 3.09088 3.09091 3.09091 3.09092 3.09091 3.09091" /><path
             id="path1040"
             style="fill:none;stroke:#109618;stroke-width:1;stroke-linecap:butt;stroke-linejoin:miter;stroke-miterlimit:10;stroke-dasharray:none;stroke-opacity:1"
             d="m 113.5,69.5 h 3.09091 3.09091 3.09091 3.09091 3.0909 l 3.09092,221 h 3.09091 3.09091 3.0909 3.09091 3.09091 3.09091 3.09091 3.0909 3.09091 3.09091 3.09092 3.09091 3.09091 3.0909 3.09091 3.09091 3.09091 l 3.09091,-221 h 3.0909 3.09091 3.09091 3.09092 3.09091 3.09091 3.0909 3.09091 3.09091 3.09091 3.09091 l 3.0909,221 h 3.09091 3.09091 3.09092 3.09091 3.09091 3.0909 3.09091 3.09091 l 3.09091,-221 h 3.09091 3.09092 3.09091 3.09091 3.09088 3.09091 3.09091 3.09092 3.09091 3.09091 3.09091 3.09091 3.09092 3.09091 3.09091 3.09088 3.09091 3.09091 3.09092 3.09091 3.09091 3.09091 3.09091 3.09092 3.09091 3.09091 3.09088 3.09091 3.09091 l 3.09092,221 h 3.09091 3.09091 3.09091 3.09091 3.09092 3.09091 3.09091 3.09088 3.09091 3.09091 3.09092 3.09091 3.09091 l 3.09091,-221 h 3.09091 3.09092 3.09091 3.09091 3.09088 3.09091 3.09091 3.09092 3.09091 3.09091 3.09091 3.09091 3.09092 3.09091 3.09091 3.09088 3.09091 3.09091 3.09092 3.09091 3.09091 3.09091 3.09091 3.09092 3.09091 3.09091 3.09088 3.09091 3.09091 3.09092 3.09091 3.09091" /></g></g></g><g
       id="g1042"><g
         clip-path="url(#clipPath1048)"
         id="g1044"><g
           transform="matrix(2.7063293,-1.5625,1.5625,2.7063293,-286.45166,1117.757)"
           id="g1050"><text
             id="text1054"
             style="font-variant:normal;font-weight:normal;font-size:12px;font-family:Arial;-inkscape-font-specification:ArialMT;writing-mode:lr-tb;fill:#222222;fill-opacity:1;fill-rule:nonzero;stroke:none"
             transform="translate(108.92617,307.6373)"><tspan
               id="tspan1052"
               y="0"
               x="0">0</tspan></text>
</g><g
           transform="matrix(2.7063293,-1.5625,1.5625,2.7063293,-273.51093,1166.0525)"
           id="g1056"><text
             id="text1060"
             style="font-variant:normal;font-weight:normal;font-size:12px;font-family:Arial;-inkscape-font-specification:ArialMT;writing-mode:lr-tb;fill:#222222;fill-opacity:1;fill-rule:nonzero;stroke:none"
             transform="translate(133.16144,307.6373)"><tspan
               id="tspan1058"
               y="0"
               x="0 6.6738281">10</tspan></text>
</g><g
           transform="matrix(2.7063293,-1.5625,1.5625,2.7063293,-260.57019,1214.3479)"
           id="g1062"><text
             id="text1066"
             style="font-variant:normal;font-weight:normal;font-size:12px;font-family:Arial;-inkscape-font-specification:ArialMT;writing-mode:lr-tb;fill:#222222;fill-opacity:1;fill-rule:nonzero;stroke:none"
             transform="translate(164.07053,307.6373)"><tspan
               id="tspan1064"
               y="0"
               x="0 6.6738281">20</tspan></text>
</g><g
           transform="matrix(2.7063293,-1.5625,1.5625,2.7063293,-247.62944,1262.6433)"
           id="g1068"><text
             id="text1072"
             style="font-variant:normal;font-weight:normal;font-size:12px;font-family:Arial;-inkscape-font-specification:ArialMT;writing-mode:lr-tb;fill:#222222;fill-opacity:1;fill-rule:nonzero;stroke:none"
             transform="translate(194.97961,307.6373)"><tspan
               id="tspan1070"
               y="0"
               x="0 6.6738281">30</tspan></text>
</g><g
           transform="matrix(2.7063293,-1.5625,1.5625,2.7063293,-234.68871,1310.9388)"
           id="g1074"><text
             id="text1078"
             style="font-variant:normal;font-weight:normal;font-size:12px;font-family:Arial;-inkscape-font-specification:ArialMT;writing-mode:lr-tb;fill:#222222;fill-opacity:1;fill-rule:nonzero;stroke:none"
             transform="translate(225.8887,307.6373)"><tspan
               id="tspan1076"
               y="0"
               x="0 6.6738281">40</tspan></text>
</g><g
           transform="matrix(2.7063293,-1.5625,1.5625,2.7063293,-221.748,1359.2343)"
           id="g1080"><text
             id="text1084"
             style="font-variant:normal;font-weight:normal;font-size:12px;font-family:Arial;-inkscape-font-specification:ArialMT;writing-mode:lr-tb;fill:#222222;fill-opacity:1;fill-rule:nonzero;stroke:none"
             transform="translate(256.79779,307.6373)"><tspan
               id="tspan1082"
               y="0"
               x="0 6.6738281">50</tspan></text>
</g><g
           transform="matrix(2.7063293,-1.5625,1.5625,2.7063293,-208.80727,1407.5298)"
           id="g1086"><text
             id="text1090"
             style="font-variant:normal;font-weight:normal;font-size:12px;font-family:Arial;-inkscape-font-specification:ArialMT;writing-mode:lr-tb;fill:#222222;fill-opacity:1;fill-rule:nonzero;stroke:none"
             transform="translate(287.70688,307.6373)"><tspan
               id="tspan1088"
               y="0"
               x="0 6.6738281">60</tspan></text>
</g><g
           transform="matrix(2.7063293,-1.5625,1.5625,2.7063293,-195.86653,1455.8252)"
           id="g1092"><text
             id="text1096"
             style="font-variant:normal;font-weight:normal;font-size:12px;font-family:Arial;-inkscape-font-specification:ArialMT;writing-mode:lr-tb;fill:#222222;fill-opacity:1;fill-rule:nonzero;stroke:none"
             transform="translate(318.61597,307.6373)"><tspan
               id="tspan1094"
               y="0"
               x="0 6.6738281">70</tspan></text>
</g><g
           transform="matrix(2.7063293,-1.5625,1.5625,2.7063293,-182.9258,1504.1206)"
           id="g1098"><text
             id="text1102"
             style="font-variant:normal;font-weight:normal;font-size:12px;font-family:Arial;-inkscape-font-specification:ArialMT;writing-mode:lr-tb;fill:#222222;fill-opacity:1;fill-rule:nonzero;stroke:none"
             transform="translate(349.52509,307.6373)"><tspan
               id="tspan1100"
               y="0"
               x="0 6.6738281">80</tspan></text>
</g><g
           transform="matrix(2.7063293,-1.5625,1.5625,2.7063293,-169.98509,1552.416)"
           id="g1104"><text
             id="text1108"
             style="font-variant:normal;font-weight:normal;font-size:12px;font-family:Arial;-inkscape-font-specification:ArialMT;writing-mode:lr-tb;fill:#222222;fill-opacity:1;fill-rule:nonzero;stroke:none"
             transform="translate(380.43417,307.6373)"><tspan
               id="tspan1106"
               y="0"
               x="0 6.6738281">90</tspan></text>
</g><g
           transform="matrix(2.7063293,-1.5625,1.5625,2.7063293,-157.04433,1600.7116)"
           id="g1110"><text
             id="text1114"
             style="font-variant:normal;font-weight:normal;font-size:12px;font-family:Arial;-inkscape-font-specification:ArialMT;writing-mode:lr-tb;fill:#222222;fill-opacity:1;fill-rule:nonzero;stroke:none"
             transform="translate(404.66943,307.6373)"><tspan
               id="tspan1112"
               y="0"
               x="0 6.6738281 13.347656">100</tspan></text>
</g><g
           transform="matrix(2.7063293,-1.5625,1.5625,2.7063293,-144.10362,1649.0071)"
           id="g1116"><text
             id="text1120"
             style="font-variant:normal;font-weight:normal;font-size:12px;font-family:Arial;-inkscape-font-specification:ArialMT;writing-mode:lr-tb;fill:#222222;fill-opacity:1;fill-rule:nonzero;stroke:none"
             transform="translate(436.46915,307.6373)"><tspan
               id="tspan1118"
               y="0"
               x="0 5.7832031 12.457031">110</tspan></text>
</g><g
           transform="matrix(2.7063293,-1.5625,1.5625,2.7063293,-131.16289,1697.3025)"
           id="g1122"><text
             id="text1126"
             style="font-variant:normal;font-weight:normal;font-size:12px;font-family:Arial;-inkscape-font-specification:ArialMT;writing-mode:lr-tb;fill:#222222;fill-opacity:1;fill-rule:nonzero;stroke:none"
             transform="translate(466.48761,307.6373)"><tspan
               id="tspan1124"
               y="0"
               x="0 6.6738281 13.347656">120</tspan></text>
</g><g
           transform="matrix(3.125,0,0,3.125,145.83333,808.33331)"
           id="g1128"><text
             id="text1132"
             style="font-variant:normal;font-weight:normal;font-size:12px;font-family:Arial;-inkscape-font-specification:ArialMT;writing-mode:lr-tb;fill:#444444;fill-opacity:1;fill-rule:nonzero;stroke:none"
             transform="translate(94.326172,294.70001)"><tspan
               id="tspan1130"
               y="0"
               x="0">0</tspan></text>
<text
             id="text1136"
             style="font-variant:normal;font-weight:normal;font-size:12px;font-family:Arial;-inkscape-font-specification:ArialMT;writing-mode:lr-tb;fill:#444444;fill-opacity:1;fill-rule:nonzero;stroke:none"
             transform="translate(80.978516,250.5)"><tspan
               id="tspan1134"
               y="0"
               x="0 6.6738281 13.347656">200</tspan></text>
<text
             id="text1140"
             style="font-variant:normal;font-weight:normal;font-size:12px;font-family:Arial;-inkscape-font-specification:ArialMT;writing-mode:lr-tb;fill:#444444;fill-opacity:1;fill-rule:nonzero;stroke:none"
             transform="translate(80.978516,206.3)"><tspan
               id="tspan1138"
               y="0"
               x="0 6.6738281 13.347656">400</tspan></text>
<text
             id="text1144"
             style="font-variant:normal;font-weight:normal;font-size:12px;font-family:Arial;-inkscape-font-specification:ArialMT;writing-mode:lr-tb;fill:#444444;fill-opacity:1;fill-rule:nonzero;stroke:none"
             transform="translate(80.978516,162.10001)"><tspan
               id="tspan1142"
               y="0"
               x="0 6.6738281 13.347656">600</tspan></text>
<text
             id="text1148"
             style="font-variant:normal;font-weight:normal;font-size:12px;font-family:Arial;-inkscape-font-specification:ArialMT;writing-mode:lr-tb;fill:#444444;fill-opacity:1;fill-rule:nonzero;stroke:none"
             transform="translate(80.978516,117.9)"><tspan
               id="tspan1146"
               y="0"
               x="0 6.6738281 13.347656">800</tspan></text>
<text
             id="text1152"
             style="font-variant:normal;font-weight:normal;font-size:12px;font-family:Arial;-inkscape-font-specification:ArialMT;writing-mode:lr-tb;fill:#444444;fill-opacity:1;fill-rule:nonzero;stroke:none"
             transform="translate(70.970703,73.699997)"><tspan
               id="tspan1150"
               y="0"
               x="0 6.6738281 10.007812 16.681641 23.355469">1,000</tspan></text>
<text
             id="text1156"
             style="font-style:italic;font-variant:normal;font-size:12px;font-family:Arial;-inkscape-font-specification:Arial-ItalicMT;writing-mode:lr-tb;fill:#ff0000;fill-opacity:1;fill-rule:nonzero;stroke:none"
             transform="translate(277.15039,343.70001)"><tspan
               id="tspan1154"
               y="0"
               x="0 8.0039062 14.677734 20.677734 27.351562 34.025391 40.699219">Seconds</tspan></text>
</g><g
           transform="matrix(0,-3.125,3.125,0,-292.60419,1494.8958)"
           id="g1158"><text
             id="text1162"
             style="font-style:italic;font-variant:normal;font-size:12px;font-family:Arial;-inkscape-font-specification:Arial-ItalicMT;writing-mode:lr-tb;fill:#ff0000;fill-opacity:1;fill-rule:nonzero;stroke:none"
             transform="translate(6.3455086,180)"><tspan
               id="tspan1160"
               y="0"
               x="0 8.6660156 15.339844 22.013672 28.6875 35.361328 41.361328 44.695312 47.361328 54.035156 60.708984">Connections</tspan></text>
</g></g></g></g></svg>