<?xml version="1.0" encoding="utf-8" standalone="no"?>
<!DOCTYPE svg PUBLIC "-//W3C//DTD SVG 1.1//EN"
  "http://www.w3.org/Graphics/SVG/1.1/DTD/svg11.dtd">
<!-- Created with matplotlib (http://matplotlib.org/) -->
<svg height="396pt" version="1.1" viewBox="0 0 576 396" width="576pt" xmlns="http://www.w3.org/2000/svg" xmlns:xlink="http://www.w3.org/1999/xlink">
 <defs>
  <style type="text/css">
*{stroke-linecap:butt;stroke-linejoin:round;stroke-miterlimit:100000;}
  </style>
 </defs>
 <g id="figure_1">
  <g id="patch_1">
   <path d="M 0 396 
L 576 396 
L 576 0 
L 0 0 
z
" style="fill:#ffffff;"/>
  </g>
  <g id="axes_1">
   <g id="LineCollection_1">
    <path clip-path="url(#pea366aacb0)" d="M 483.171105 320.721405 
L 334.274953 240.211993 
" style="fill:none;stroke:#000000;"/>
    <path clip-path="url(#pea366aacb0)" d="M 347.744179 195.983854 
L 199.81515 224.958331 
" style="fill:none;stroke:#000000;"/>
    <path clip-path="url(#pea366aacb0)" d="M 347.744179 195.983854 
L 295.248355 154.479009 
" style="fill:none;stroke:#000000;"/>
    <path clip-path="url(#pea366aacb0)" d="M 347.744179 195.983854 
L 334.274953 240.211993 
" style="fill:none;stroke:#000000;"/>
    <path clip-path="url(#pea366aacb0)" d="M 347.744179 195.983854 
L 174.517551 177.003262 
" style="fill:none;stroke:#000000;"/>
    <path clip-path="url(#pea366aacb0)" d="M 347.744179 195.983854 
L 102.808383 204.642146 
" style="fill:none;stroke:#000000;"/>
    <path clip-path="url(#pea366aacb0)" d="M 199.81515 224.958331 
L 334.274953 240.211993 
" style="fill:none;stroke:#000000;"/>
    <path clip-path="url(#pea366aacb0)" d="M 199.81515 224.958331 
L 295.248355 154.479009 
" style="fill:none;stroke:#000000;"/>
    <path clip-path="url(#pea366aacb0)" d="M 199.81515 224.958331 
L 174.517551 177.003262 
" style="fill:none;stroke:#000000;"/>
    <path clip-path="url(#pea366aacb0)" d="M 199.81515 224.958331 
L 102.808383 204.642146 
" style="fill:none;stroke:#000000;"/>
    <path clip-path="url(#pea366aacb0)" d="M 295.248355 154.479009 
L 102.808383 204.642146 
" style="fill:none;stroke:#000000;"/>
    <path clip-path="url(#pea366aacb0)" d="M 295.248355 154.479009 
L 334.274953 240.211993 
" style="fill:none;stroke:#000000;"/>
    <path clip-path="url(#pea366aacb0)" d="M 295.248355 154.479009 
L 366.420323 66 
" style="fill:none;stroke:#000000;"/>
    <path clip-path="url(#pea366aacb0)" d="M 295.248355 154.479009 
L 174.517551 177.003262 
" style="fill:none;stroke:#000000;"/>
    <path clip-path="url(#pea366aacb0)" d="M 102.808383 204.642146 
L 174.517551 177.003262 
" style="fill:none;stroke:#000000;"/>
    <path clip-path="url(#pea366aacb0)" d="M 102.808383 204.642146 
L 334.274953 240.211993 
" style="fill:none;stroke:#000000;"/>
    <path clip-path="url(#pea366aacb0)" d="M 334.274953 240.211993 
L 174.517551 177.003262 
" style="fill:none;stroke:#000000;"/>
   </g>
   <g id="PathCollection_1">
    <defs>
     <path d="M 0 3.872983 
C 1.027127 3.872983 2.012324 3.464901 2.738613 2.738613 
C 3.464901 2.012324 3.872983 1.027127 3.872983 0 
C 3.872983 -1.027127 3.464901 -2.012324 2.738613 -2.738613 
C 2.012324 -3.464901 1.027127 -3.872983 0 -3.872983 
C -1.027127 -3.872983 -2.012324 -3.464901 -2.738613 -2.738613 
C -3.464901 -2.012324 -3.872983 -1.027127 -3.872983 0 
C -3.872983 1.027127 -3.464901 2.012324 -2.738613 2.738613 
C -2.012324 3.464901 -1.027127 3.872983 0 3.872983 
z
" id="mcdcd66c804" style="stroke:#000000;stroke-width:0.3;"/>
    </defs>
    <g clip-path="url(#pea366aacb0)">
     <use style="fill:#57db5f;stroke:#000000;stroke-width:0.3;" x="483.171105491" xlink:href="#mcdcd66c804" y="320.721404521"/>
     <use style="fill:#57db5f;stroke:#000000;stroke-width:0.3;" x="347.744179271" xlink:href="#mcdcd66c804" y="195.983854171"/>
     <use style="fill:#57db5f;stroke:#000000;stroke-width:0.3;" x="199.815149741" xlink:href="#mcdcd66c804" y="224.958330563"/>
     <use style="fill:#57db5f;stroke:#000000;stroke-width:0.3;" x="295.248355157" xlink:href="#mcdcd66c804" y="154.479009406"/>
     <use style="fill:#57db5f;stroke:#000000;stroke-width:0.3;" x="102.808383218" xlink:href="#mcdcd66c804" y="204.642145886"/>
     <use style="fill:#57db5f;stroke:#000000;stroke-width:0.3;" x="334.274952616" xlink:href="#mcdcd66c804" y="240.211993135"/>
     <use style="fill:#57db5f;stroke:#000000;stroke-width:0.3;" x="366.42032327" xlink:href="#mcdcd66c804" y="66.0"/>
     <use style="fill:#57db5f;stroke:#000000;stroke-width:0.3;" x="174.517551236" xlink:href="#mcdcd66c804" y="177.003262318"/>
    </g>
   </g>
  </g>
 </g>
 <defs>
  <clipPath id="pea366aacb0">
   <rect height="396.0" width="576.0" x="0.0" y="0.0"/>
  </clipPath>
 </defs>
</svg>
