<?xml version="1.0" encoding="UTF-8" standalone="no"?>
<svg
   version="1.1"
   viewBox="0 0 787.14961 344.44655"
   fill="none"
   stroke="none"
   stroke-linecap="square"
   stroke-miterlimit="10"
   id="svg191"
   sodipodi:docname="5g-core-network-diagram-min.svg"
   width="787.1496"
   height="344.44656"
   inkscape:version="1.1.2 (0a00cf5339, 2022-02-04)"
   xmlns:inkscape="http://www.inkscape.org/namespaces/inkscape"
   xmlns:sodipodi="http://sodipodi.sourceforge.net/DTD/sodipodi-0.dtd"
   xmlns="http://www.w3.org/2000/svg"
   xmlns:svg="http://www.w3.org/2000/svg">
  <defs
     id="defs195" />
  <sodipodi:namedview
     id="namedview193"
     pagecolor="#ffffff"
     bordercolor="#666666"
     borderopacity="1.0"
     inkscape:pageshadow="2"
     inkscape:pageopacity="0.0"
     inkscape:pagecheckerboard="0"
     showgrid="false"
     fit-margin-top="0"
     fit-margin-left="0"
     fit-margin-right="0"
     fit-margin-bottom="0"
     inkscape:zoom="1.2071056"
     inkscape:cx="404.27285"
     inkscape:cy="312.73156"
     inkscape:window-width="1850"
     inkscape:window-height="1016"
     inkscape:window-x="1990"
     inkscape:window-y="27"
     inkscape:window-maximized="1"
     inkscape:current-layer="g189" />
  <clipPath
     id="p.0">
    <path
       d="M 0,0 H 853.2808 V 648.80054 H 0 Z"
       clip-rule="nonzero"
       id="path2" />
  </clipPath>
  <g
     clip-path="url(#p.0)"
     id="g189"
     transform="translate(-22.262466,-11.546869)">
    <path
       fill="#000000"
       fill-opacity="0"
       d="M 0,0 H 853.2808 V 648.80054 H 0 Z"
       fill-rule="evenodd"
       id="path5" />
    <path
       fill="#cfe2f3"
       d="M 22.262466,117.03937 54.797901,84.50394 v 16.26771 H 776.87664 V 84.50394 l 32.5354,32.53543 -32.5354,32.53543 V 133.30708 H 54.797901 v 16.26772 z"
       fill-rule="evenodd"
       id="path7" />
    <path
       fill="#000000"
       d="m 300.05637,123.95937 v -13.35938 h 1.8125 l 7.01563,10.48438 v -10.48438 h 1.6875 v 13.35938 h -1.8125 l -7.01563,-10.5 v 10.5 z m 19.91046,-3.10938 1.6875,0.20313 q -0.40625,1.48437 -1.48437,2.3125 -1.07813,0.8125 -2.76563,0.8125 -2.125,0 -3.375,-1.29688 -1.23437,-1.3125 -1.23437,-3.67187 0,-2.45313 1.25,-3.79688 1.26562,-1.34375 3.26562,-1.34375 1.9375,0 3.15625,1.32813 1.23438,1.3125 1.23438,3.70312 0,0.15625 0,0.4375 h -7.21875 q 0.0937,1.59375 0.90625,2.45313 0.8125,0.84375 2.01562,0.84375 0.90625,0 1.54688,-0.46875 0.64062,-0.48438 1.01562,-1.51563 z m -5.39062,-2.65625 h 5.40625 q -0.10938,-1.21875 -0.625,-1.82812 -0.78125,-0.95313 -2.03125,-0.95313 -1.125,0 -1.90625,0.76563 -0.76563,0.75 -0.84375,2.01562 z m 12.71945,4.29688 0.23437,1.45312 q -0.6875,0.14063 -1.23437,0.14063 -0.89063,0 -1.39063,-0.28125 -0.48437,-0.28125 -0.6875,-0.73438 -0.20312,-0.46875 -0.20312,-1.9375 v -5.57812 h -1.20313 v -1.26563 h 1.20313 v -2.39062 l 1.625,-0.98438 v 3.375 h 1.65625 v 1.26563 h -1.65625 v 5.67187 q 0,0.6875 0.0781,0.89063 0.0937,0.20312 0.28125,0.32812 0.20313,0.10938 0.57813,0.10938 0.26562,0 0.71875,-0.0625 z m 3.38644,1.46875 -2.96875,-9.67188 h 1.70313 l 1.53125,5.57813 0.57812,2.07812 q 0.0469,-0.15625 0.5,-2 l 1.54688,-5.65625 h 1.6875 l 1.4375,5.60938 0.48437,1.84375 0.5625,-1.85938 1.65625,-5.59375 h 1.59375 l -3.03125,9.67188 h -1.70312 l -1.53125,-5.79688 -0.375,-1.64062 -1.95313,7.4375 z m 11.08231,-4.84375 q 0,-2.6875 1.48437,-3.96875 1.25,-1.07813 3.04688,-1.07813 2,0 3.26562,1.3125 1.26563,1.29688 1.26563,3.60938 0,1.85937 -0.5625,2.9375 -0.5625,1.0625 -1.64063,1.65625 -1.0625,0.59375 -2.32812,0.59375 -2.03125,0 -3.28125,-1.29688 -1.25,-1.3125 -1.25,-3.76562 z m 1.6875,0 q 0,1.85937 0.79687,2.79687 0.8125,0.92188 2.04688,0.92188 1.21875,0 2.03125,-0.92188 0.8125,-0.9375 0.8125,-2.84375 0,-1.79687 -0.8125,-2.71875 -0.8125,-0.92187 -2.03125,-0.92187 -1.23438,0 -2.04688,0.92187 -0.79687,0.90625 -0.79687,2.76563 z m 9.28195,4.84375 v -9.67188 h 1.46875 v 1.46875 q 0.5625,-1.03125 1.03125,-1.35937 0.48437,-0.32813 1.0625,-0.32813 0.82812,0 1.6875,0.53125 l -0.5625,1.51563 q -0.60938,-0.35938 -1.20313,-0.35938 -0.54687,0 -0.96875,0.32813 -0.42187,0.32812 -0.60937,0.89062 -0.28125,0.875 -0.28125,1.92188 v 5.0625 z m 6.22833,0 v -13.35938 h 1.64063 v 7.625 l 3.89062,-3.9375 h 2.10938 l -3.6875,3.59375 4.0625,6.07813 h -2.01563 l -3.20312,-4.95313 -1.15625,1.125 v 3.82813 z m 9.78125,-7.8125 v -1.85938 h 1.85938 v 1.85938 z m 0,7.8125 v -1.875 h 1.85938 v 1.875 z m 15.6322,0 h -1.64062 v -10.45313 q -0.59375,0.5625 -1.5625,1.14063 -0.95313,0.5625 -1.71875,0.84375 v -1.59375 q 1.375,-0.64063 2.40625,-1.5625 1.03125,-0.92188 1.45312,-1.78125 h 1.0625 z m 4.43824,-3.09375 1.57812,-0.14063 q 0.20313,1.10938 0.76563,1.60938 0.5625,0.5 1.45312,0.5 0.75,0 1.3125,-0.34375 0.57813,-0.34375 0.9375,-0.92188 0.375,-0.57812 0.60938,-1.5625 0.25,-0.98437 0.25,-2 0,-0.10937 0,-0.32812 -0.5,0.78125 -1.35938,1.26562 -0.84375,0.48438 -1.82812,0.48438 -1.67188,0 -2.8125,-1.20313 -1.14063,-1.20312 -1.14063,-3.17187 0,-2.03125 1.1875,-3.26563 1.20313,-1.23437 3,-1.23437 1.3125,0 2.39063,0.70312 1.07812,0.70313 1.64062,2 0.5625,1.29688 0.5625,3.75 0,2.5625 -0.5625,4.07813 -0.5625,1.51562 -1.65625,2.3125 -1.09375,0.79687 -2.57812,0.79687 -1.5625,0 -2.5625,-0.875 -0.98438,-0.875 -1.1875,-2.45312 z m 6.71875,-5.89063 q 0,-1.40625 -0.75,-2.23437 -0.75,-0.82813 -1.8125,-0.82813 -1.09375,0 -1.90625,0.89063 -0.8125,0.89062 -0.8125,2.3125 0,1.28125 0.76562,2.07812 0.78125,0.79688 1.90625,0.79688 1.14063,0 1.875,-0.79688 0.73438,-0.79687 0.73438,-2.21875 z m 12.03198,7.40625 v 1.57813 h -8.82813 q -0.0156,-0.59375 0.1875,-1.14063 0.34375,-0.90625 1.07813,-1.78125 0.75,-0.875 2.15625,-2.01562 2.17187,-1.78125 2.9375,-2.82813 0.76562,-1.04687 0.76562,-1.96875 0,-0.98437 -0.70312,-1.64062 -0.6875,-0.67188 -1.8125,-0.67188 -1.1875,0 -1.90625,0.71875 -0.70313,0.70313 -0.70313,1.95313 l -1.6875,-0.17188 q 0.17188,-1.89062 1.29688,-2.875 1.14062,-0.98437 3.03125,-0.98437 1.92187,0 3.04687,1.0625 1.125,1.0625 1.125,2.64062 0,0.79688 -0.32812,1.57813 -0.32813,0.78125 -1.09375,1.64062 -0.75,0.84375 -2.53125,2.34375 -1.46875,1.23438 -1.89063,1.6875 -0.42187,0.4375 -0.6875,0.875 z m 2.67258,1.57813 v -1.875 h 1.875 v 1.875 z m 10.44894,0 h -1.64063 v -10.45313 q -0.59375,0.5625 -1.5625,1.14063 -0.95312,0.5625 -1.71875,0.84375 v -1.59375 q 1.375,-0.64063 2.40625,-1.5625 1.03125,-0.92188 1.45313,-1.78125 h 1.0625 z m 12.70383,-10.07813 -1.625,0.125 q -0.21875,-0.96875 -0.625,-1.40625 -0.65625,-0.70312 -1.64063,-0.70312 -0.78125,0 -1.375,0.4375 -0.76562,0.5625 -1.21875,1.65625 -0.45312,1.07812 -0.46875,3.07812 0.59375,-0.89062 1.45313,-1.32812 0.85937,-0.4375 1.79687,-0.4375 1.64063,0 2.78125,1.20312 1.15625,1.20313 1.15625,3.10938 0,1.26562 -0.54687,2.34375 -0.53125,1.07812 -1.48438,1.65625 -0.9375,0.57812 -2.14062,0.57812 -2.0625,0 -3.35938,-1.5 -1.28125,-1.51562 -1.28125,-4.98437 0,-3.875 1.42188,-5.625 1.25,-1.53125 3.375,-1.53125 1.5625,0 2.5625,0.89062 1.01562,0.875 1.21875,2.4375 z m -6.6875,5.75 q 0,0.84375 0.35937,1.625 0.35938,0.76563 1,1.17188 0.64063,0.40625 1.35938,0.40625 1.03125,0 1.78125,-0.82813 0.75,-0.84375 0.75,-2.28125 0,-1.39062 -0.73438,-2.1875 -0.73437,-0.79687 -1.85937,-0.79687 -1.10938,0 -1.89063,0.79687 -0.76562,0.79688 -0.76562,2.09375 z m 11.07882,-2.90625 q -1.01562,-0.375 -1.51562,-1.0625 -0.48438,-0.70312 -0.48438,-1.67187 0,-1.45313 1.04688,-2.4375 1.04687,-1 2.78125,-1 1.75,0 2.8125,1.01562 1.07812,1.01563 1.07812,2.46875 0,0.9375 -0.5,1.625 -0.48437,0.6875 -1.46875,1.0625 1.21875,0.39063 1.85938,1.28125 0.65625,0.89063 0.65625,2.14063 0,1.70312 -1.21875,2.875 -1.21875,1.17187 -3.1875,1.17187 -1.98438,0 -3.20313,-1.17187 -1.20312,-1.17188 -1.20312,-2.92188 0,-1.3125 0.65625,-2.1875 0.67187,-0.875 1.89062,-1.1875 z m -0.32812,-2.78125 q 0,0.9375 0.60937,1.54688 0.60938,0.59375 1.59375,0.59375 0.9375,0 1.54688,-0.59375 0.60937,-0.59375 0.60937,-1.45313 0,-0.90625 -0.625,-1.51562 -0.625,-0.625 -1.5625,-0.625 -0.9375,0 -1.5625,0.60937 -0.60937,0.59375 -0.60937,1.4375 z m -0.53125,6.15625 q 0,0.70313 0.32812,1.35938 0.34375,0.65625 1,1.01562 0.65625,0.35938 1.40625,0.35938 1.17188,0 1.9375,-0.75 0.76563,-0.75 0.76563,-1.92188 0,-1.1875 -0.79688,-1.95312 -0.78125,-0.78125 -1.95312,-0.78125 -1.15625,0 -1.92188,0.76562 -0.76562,0.76563 -0.76562,1.90625 z m 9.62573,3.85938 v -1.875 h 1.875 v 1.875 z m 4.38641,-11.60938 v -1.57812 h 8.64063 v 1.28125 q -1.28125,1.35937 -2.53125,3.60937 -1.25,2.25 -1.9375,4.625 -0.48438,1.67188 -0.625,3.67188 h -1.6875 q 0.0312,-1.57813 0.625,-3.8125 0.59375,-2.23438 1.6875,-4.29688 1.10937,-2.07812 2.35937,-3.5 z m 10.26636,5.01563 q 0,-2.35938 0.48438,-3.79688 0.48437,-1.45312 1.4375,-2.23437 0.96875,-0.78125 2.42187,-0.78125 1.07813,0 1.89063,0.4375 0.8125,0.42187 1.32812,1.25 0.53125,0.8125 0.82813,1.98437 0.3125,1.15625 0.3125,3.14063 0,2.35937 -0.48438,3.8125 -0.48437,1.4375 -1.45312,2.23437 -0.95313,0.78125 -2.42188,0.78125 -1.92187,0 -3.03125,-1.39062 -1.3125,-1.67188 -1.3125,-5.4375 z m 1.67188,0 q 0,3.29687 0.76562,4.39062 0.78125,1.07813 1.90625,1.07813 1.14063,0 1.90625,-1.09375 0.76563,-1.09375 0.76563,-4.375 0,-3.29688 -0.76563,-4.375 -0.76562,-1.07813 -1.92187,-1.07813 -1.125,0 -1.79688,0.95313 -0.85937,1.21875 -0.85937,4.5 z m 9.6101,6.59375 v -1.875 h 1.875 v 1.875 z m 10.44892,0 h -1.64063 v -10.45313 q -0.59375,0.5625 -1.5625,1.14063 -0.95312,0.5625 -1.71875,0.84375 v -1.59375 q 1.375,-0.64063 2.40625,-1.5625 1.03125,-0.92188 1.45313,-1.78125 h 1.0625 z m 12.81323,-1.57813 v 1.57813 h -8.82813 q -0.0156,-0.59375 0.1875,-1.14063 0.34375,-0.90625 1.07813,-1.78125 0.75,-0.875 2.15625,-2.01562 2.17187,-1.78125 2.9375,-2.82813 0.76562,-1.04687 0.76562,-1.96875 0,-0.98437 -0.70312,-1.64062 -0.6875,-0.67188 -1.8125,-0.67188 -1.1875,0 -1.90625,0.71875 -0.70313,0.70313 -0.70313,1.95313 l -1.6875,-0.17188 q 0.17188,-1.89062 1.29688,-2.875 1.14062,-0.98437 3.03125,-0.98437 1.92187,0 3.04687,1.0625 1.125,1.0625 1.125,2.64062 0,0.79688 -0.32812,1.57813 -0.32813,0.78125 -1.09375,1.64062 -0.75,0.84375 -2.53125,2.34375 -1.46875,1.23438 -1.89063,1.6875 -0.42187,0.4375 -0.6875,0.875 z m 4.28195,-5.65625 q -1.01562,-0.375 -1.51562,-1.0625 -0.48438,-0.70312 -0.48438,-1.67187 0,-1.45313 1.04688,-2.4375 1.04687,-1 2.78125,-1 1.75,0 2.8125,1.01562 1.07812,1.01563 1.07812,2.46875 0,0.9375 -0.5,1.625 -0.48437,0.6875 -1.46875,1.0625 1.21875,0.39063 1.85938,1.28125 0.65625,0.89063 0.65625,2.14063 0,1.70312 -1.21875,2.875 -1.21875,1.17187 -3.1875,1.17187 -1.98438,0 -3.20313,-1.17187 -1.20312,-1.17188 -1.20312,-2.92188 0,-1.3125 0.65625,-2.1875 0.67187,-0.875 1.89062,-1.1875 z m -0.32812,-2.78125 q 0,0.9375 0.60937,1.54688 0.60938,0.59375 1.59375,0.59375 0.9375,0 1.54688,-0.59375 0.60937,-0.59375 0.60937,-1.45313 0,-0.90625 -0.625,-1.51562 -0.625,-0.625 -1.5625,-0.625 -0.9375,0 -1.5625,0.60937 -0.60937,0.59375 -0.60937,1.4375 z m -0.53125,6.15625 q 0,0.70313 0.32812,1.35938 0.34375,0.65625 1,1.01562 0.65625,0.35938 1.40625,0.35938 1.17188,0 1.9375,-0.75 0.76563,-0.75 0.76563,-1.92188 0,-1.1875 -0.79688,-1.95312 -0.78125,-0.78125 -1.95312,-0.78125 -1.15625,0 -1.92188,0.76562 -0.76562,0.76563 -0.76562,1.90625 z m 7.9382,4.09375 3.875,-13.8125 h 1.31253 l -3.85941,13.8125 z m 14.57394,-1.8125 v 1.57813 h -8.82812 q -0.0156,-0.59375 0.1875,-1.14063 0.34375,-0.90625 1.07812,-1.78125 0.75,-0.875 2.15625,-2.01562 2.17188,-1.78125 2.9375,-2.82813 0.76563,-1.04687 0.76563,-1.96875 0,-0.98437 -0.70313,-1.64062 -0.6875,-0.67188 -1.8125,-0.67188 -1.1875,0 -1.90625,0.71875 -0.70312,0.70313 -0.70312,1.95313 l -1.6875,-0.17188 q 0.17187,-1.89062 1.29687,-2.875 1.14063,-0.98437 3.03125,-0.98437 1.92188,0 3.04688,1.0625 1.125,1.0625 1.125,2.64062 0,0.79688 -0.32813,1.57813 -0.32812,0.78125 -1.09375,1.64062 -0.75,0.84375 -2.53125,2.34375 -1.46875,1.23438 -1.89062,1.6875 -0.42188,0.4375 -0.6875,0.875 z m 10.26636,-8.5 -1.625,0.125 q -0.21875,-0.96875 -0.625,-1.40625 -0.65625,-0.70312 -1.64063,-0.70312 -0.78125,0 -1.375,0.4375 -0.76562,0.5625 -1.21875,1.65625 -0.45312,1.07812 -0.46875,3.07812 0.59375,-0.89062 1.45313,-1.32812 0.85937,-0.4375 1.79687,-0.4375 1.64063,0 2.78125,1.20312 1.15625,1.20313 1.15625,3.10938 0,1.26562 -0.54687,2.34375 -0.53125,1.07812 -1.48438,1.65625 -0.9375,0.57812 -2.14062,0.57812 -2.0625,0 -3.35938,-1.5 -1.28125,-1.51562 -1.28125,-4.98437 0,-3.875 1.42188,-5.625 1.25,-1.53125 3.375,-1.53125 1.5625,0 2.5625,0.89062 1.01562,0.875 1.21875,2.4375 z m -6.6875,5.75 q 0,0.84375 0.35937,1.625 0.35938,0.76563 1,1.17188 0.64063,0.40625 1.35938,0.40625 1.03125,0 1.78125,-0.82813 0.75,-0.84375 0.75,-2.28125 0,-1.39062 -0.73438,-2.1875 -0.73437,-0.79687 -1.85937,-0.79687 -1.10938,0 -1.89063,0.79687 -0.76562,0.79688 -0.76562,2.09375 z"
       fill-rule="nonzero"
       id="path9" />
    <path
       fill="#b6d7a8"
       d="m 480.76117,268.09186 h 219.1496 v 87.40158 h -219.1496 z"
       fill-rule="evenodd"
       id="path11" />
    <path
       stroke="#000000"
       stroke-width="1"
       stroke-linejoin="round"
       stroke-linecap="butt"
       d="m 480.76117,268.09186 h 219.1496 v 87.40158 h -219.1496 z"
       fill-rule="evenodd"
       id="path13" />
    <path
       fill="#000000"
       d="m 531.754,303.41577 1.65625,-0.14063 q 0.125,1 0.54688,1.64063 0.4375,0.64062 1.34375,1.04687 0.92187,0.39063 2.0625,0.39063 1,0 1.78125,-0.29688 0.78125,-0.29687 1.15625,-0.8125 0.375,-0.53125 0.375,-1.15625 0,-0.625 -0.375,-1.09375 -0.35938,-0.46875 -1.1875,-0.79687 -0.54688,-0.20313 -2.39063,-0.64063 -1.82812,-0.45312 -2.5625,-0.84375 -0.96875,-0.5 -1.4375,-1.23437 -0.46875,-0.75 -0.46875,-1.67188 0,-1 0.57813,-1.875 0.57812,-0.89062 1.67187,-1.34375 1.10938,-0.45312 2.45313,-0.45312 1.48437,0 2.60937,0.48437 1.14063,0.46875 1.75,1.40625 0.60938,0.92188 0.65625,2.09375 l -1.6875,0.125 q -0.14062,-1.26562 -0.9375,-1.90625 -0.78125,-0.65625 -2.3125,-0.65625 -1.60937,0 -2.34375,0.59375 -0.73437,0.59375 -0.73437,1.42188 0,0.71875 0.53125,1.17187 0.5,0.46875 2.65625,0.96875 2.15625,0.48438 2.95312,0.84375 1.17188,0.53125 1.71875,1.35938 0.5625,0.82812 0.5625,1.90625 0,1.0625 -0.60937,2.01562 -0.60938,0.9375 -1.75,1.46875 -1.14063,0.51563 -2.57813,0.51563 -1.8125,0 -3.04687,-0.53125 -1.21875,-0.53125 -1.92188,-1.59375 -0.6875,-1.0625 -0.71875,-2.40625 z m 13.03729,4.29687 v -13.35937 h 5.04688 q 1.32812,0 2.03125,0.125 0.96875,0.17187 1.64062,0.64062 0.67188,0.45313 1.07813,1.28125 0.40625,0.82813 0.40625,1.82813 0,1.70312 -1.09375,2.89062 -1.07813,1.17188 -3.92188,1.17188 h -3.42187 v 5.42187 z m 1.76563,-7 h 3.45312 q 1.71875,0 2.4375,-0.64062 0.71875,-0.64063 0.71875,-1.79688 0,-0.84375 -0.42187,-1.4375 -0.42188,-0.59375 -1.125,-0.78125 -0.4375,-0.125 -1.64063,-0.125 h -3.42187 z m 16.92798,1.76563 v -1.57813 h 5.65625 v 4.95313 q -1.29688,1.04687 -2.6875,1.57812 -1.375,0.51563 -2.84375,0.51563 -1.96875,0 -3.57813,-0.84375 -1.60937,-0.84375 -2.42187,-2.4375 -0.8125,-1.59375 -0.8125,-3.5625 0,-1.95313 0.8125,-3.64063 0.8125,-1.6875 2.34375,-2.5 1.53125,-0.82812 3.51562,-0.82812 1.45313,0 2.625,0.46875 1.17188,0.46875 1.82813,1.3125 0.67187,0.82812 1.01562,2.17187 l -1.59375,0.4375 q -0.29687,-1.01562 -0.75,-1.59375 -0.4375,-0.59375 -1.26562,-0.9375 -0.82813,-0.34375 -1.84375,-0.34375 -1.20313,0 -2.09375,0.375 -0.89063,0.35938 -1.4375,0.96875 -0.53125,0.59375 -0.82813,1.3125 -0.51562,1.23438 -0.51562,2.6875 0,1.78125 0.60937,2.98438 0.625,1.20312 1.79688,1.79687 1.17187,0.57813 2.5,0.57813 1.14062,0 2.23437,-0.4375 1.09375,-0.45313 1.65625,-0.95313 v -2.48437 z m 10.58954,5.23437 -3.53125,-13.35937 h 1.8125 l 2.03125,8.76562 q 0.32812,1.375 0.5625,2.71875 0.5,-2.14062 0.59375,-2.46875 l 2.54687,-9.01562 h 2.125 l 1.92188,6.76562 q 0.71875,2.51563 1.03125,4.71875 0.26562,-1.26562 0.67187,-2.89062 l 2.09375,-8.59375 h 1.78125 l -3.67187,13.35937 h -1.70313 l -2.8125,-10.17187 q -0.35937,-1.28125 -0.42187,-1.5625 -0.20313,0.90625 -0.39063,1.5625 l -2.82812,10.17187 z m 14.09954,-4.01562 v -1.64063 h 5.03125 v 1.64063 z m 15.82203,-9.34375 h 1.76562 v 7.71875 q 0,2.01562 -0.45312,3.20312 -0.45313,1.1875 -1.64063,1.9375 -1.1875,0.73438 -3.125,0.73438 -1.875,0 -3.07812,-0.64063 -1.1875,-0.65625 -1.70313,-1.875 -0.5,-1.23437 -0.5,-3.35937 v -7.71875 h 1.76563 v 7.71875 q 0,1.73437 0.3125,2.5625 0.32812,0.8125 1.10937,1.26562 0.79688,0.45313 1.9375,0.45313 1.95313,0 2.78125,-0.89063 0.82813,-0.89062 0.82813,-3.39062 z m 18.65625,0 h 1.76562 v 7.71875 q 0,2.01562 -0.45312,3.20312 -0.45313,1.1875 -1.64063,1.9375 -1.1875,0.73438 -3.125,0.73438 -1.875,0 -3.07812,-0.64063 -1.1875,-0.65625 -1.70313,-1.875 -0.5,-1.23437 -0.5,-3.35937 v -7.71875 h 1.76563 v 7.71875 q 0,1.73437 0.3125,2.5625 0.32812,0.8125 1.10937,1.26562 0.79688,0.45313 1.9375,0.45313 1.95313,0 2.78125,-0.89063 0.82813,-0.89062 0.82813,-3.39062 z m 4.70733,13.35937 v -13.35937 h 5.04688 q 1.32812,0 2.03125,0.125 0.96875,0.17187 1.64062,0.64062 0.67188,0.45313 1.07813,1.28125 0.40625,0.82813 0.40625,1.82813 0,1.70312 -1.09375,2.89062 -1.07813,1.17188 -3.92188,1.17188 h -3.42187 v 5.42187 z m 1.76563,-7 h 3.45312 q 1.71875,0 2.4375,-0.64062 0.71875,-0.64063 0.71875,-1.79688 0,-0.84375 -0.42187,-1.4375 -0.42188,-0.59375 -1.125,-0.78125 -0.4375,-0.125 -1.64063,-0.125 h -3.42187 z m 10.77172,7 v -13.35937 h 9.01563 v 1.57812 h -7.25 v 4.14063 h 6.26562 v 1.57812 h -6.26562 v 6.0625 z"
       fill-rule="nonzero"
       id="path15" />
    <path
       fill="#000000"
       d="m 532.4477,329.71265 h -1.64062 v -10.45313 q -0.59375,0.5625 -1.5625,1.14063 -0.95313,0.5625 -1.71875,0.84375 v -1.59375 q 1.375,-0.64063 2.40625,-1.5625 1.03125,-0.92188 1.45312,-1.78125 h 1.0625 z m 4.43823,-3.09375 1.57813,-0.14063 q 0.20312,1.10938 0.76562,1.60938 0.5625,0.5 1.45313,0.5 0.75,0 1.3125,-0.34375 0.57812,-0.34375 0.9375,-0.92188 0.375,-0.57812 0.60937,-1.5625 0.25,-0.98437 0.25,-2 0,-0.10937 0,-0.32812 -0.5,0.78125 -1.35937,1.26562 -0.84375,0.48438 -1.82813,0.48438 -1.67187,0 -2.8125,-1.20313 -1.14062,-1.20312 -1.14062,-3.17187 0,-2.03125 1.1875,-3.26563 1.20312,-1.23437 3,-1.23437 1.3125,0 2.39062,0.70312 1.07813,0.70313 1.64063,2 0.5625,1.29688 0.5625,3.75 0,2.5625 -0.5625,4.07813 -0.5625,1.51562 -1.65625,2.3125 -1.09375,0.79687 -2.57813,0.79687 -1.5625,0 -2.5625,-0.875 -0.98437,-0.875 -1.1875,-2.45312 z m 6.71875,-5.89063 q 0,-1.40625 -0.75,-2.23437 -0.75,-0.82813 -1.8125,-0.82813 -1.09375,0 -1.90625,0.89063 -0.8125,0.89062 -0.8125,2.3125 0,1.28125 0.76563,2.07812 0.78125,0.79688 1.90625,0.79688 1.14062,0 1.875,-0.79688 0.73437,-0.79687 0.73437,-2.21875 z m 12.03192,7.40625 v 1.57813 h -8.82812 q -0.0156,-0.59375 0.1875,-1.14063 0.34375,-0.90625 1.07812,-1.78125 0.75,-0.875 2.15625,-2.01562 2.17188,-1.78125 2.9375,-2.82813 0.76563,-1.04687 0.76563,-1.96875 0,-0.98437 -0.70313,-1.64062 -0.6875,-0.67188 -1.8125,-0.67188 -1.1875,0 -1.90625,0.71875 -0.70312,0.70313 -0.70312,1.95313 l -1.6875,-0.17188 q 0.17187,-1.89062 1.29687,-2.875 1.14063,-0.98437 3.03125,-0.98437 1.92188,0 3.04688,1.0625 1.125,1.0625 1.125,2.64062 0,0.79688 -0.32813,1.57813 -0.32812,0.78125 -1.09375,1.64062 -0.75,0.84375 -2.53125,2.34375 -1.46875,1.23438 -1.89062,1.6875 -0.42188,0.4375 -0.6875,0.875 z m 2.67261,1.57813 v -1.875 h 1.875 v 1.875 z m 10.44891,0 h -1.64062 v -10.45313 q -0.59375,0.5625 -1.5625,1.14063 -0.95313,0.5625 -1.71875,0.84375 v -1.59375 q 1.375,-0.64063 2.40625,-1.5625 1.03125,-0.92188 1.45312,-1.78125 h 1.0625 z m 12.70386,-10.07813 -1.625,0.125 q -0.21875,-0.96875 -0.625,-1.40625 -0.65625,-0.70312 -1.64062,-0.70312 -0.78125,0 -1.375,0.4375 -0.76563,0.5625 -1.21875,1.65625 -0.45313,1.07812 -0.46875,3.07812 0.59375,-0.89062 1.45312,-1.32812 0.85938,-0.4375 1.79688,-0.4375 1.64062,0 2.78125,1.20312 1.15625,1.20313 1.15625,3.10938 0,1.26562 -0.54688,2.34375 -0.53125,1.07812 -1.48437,1.65625 -0.9375,0.57812 -2.14063,0.57812 -2.0625,0 -3.35937,-1.5 -1.28125,-1.51562 -1.28125,-4.98437 0,-3.875 1.42187,-5.625 1.25,-1.53125 3.375,-1.53125 1.5625,0 2.5625,0.89062 1.01563,0.875 1.21875,2.4375 z m -6.6875,5.75 q 0,0.84375 0.35938,1.625 0.35937,0.76563 1,1.17188 0.64062,0.40625 1.35937,0.40625 1.03125,0 1.78125,-0.82813 0.75,-0.84375 0.75,-2.28125 0,-1.39062 -0.73437,-2.1875 -0.73438,-0.79687 -1.85938,-0.79687 -1.10937,0 -1.89062,0.79687 -0.76563,0.79688 -0.76563,2.09375 z m 11.07886,-2.90625 q -1.01563,-0.375 -1.51563,-1.0625 -0.48437,-0.70312 -0.48437,-1.67187 0,-1.45313 1.04687,-2.4375 1.04688,-1 2.78125,-1 1.75,0 2.8125,1.01562 1.07813,1.01563 1.07813,2.46875 0,0.9375 -0.5,1.625 -0.48438,0.6875 -1.46875,1.0625 1.21875,0.39063 1.85937,1.28125 0.65625,0.89063 0.65625,2.14063 0,1.70312 -1.21875,2.875 -1.21875,1.17187 -3.1875,1.17187 -1.98437,0 -3.20312,-1.17187 -1.20313,-1.17188 -1.20313,-2.92188 0,-1.3125 0.65625,-2.1875 0.67188,-0.875 1.89063,-1.1875 z m -0.32813,-2.78125 q 0,0.9375 0.60938,1.54688 0.60937,0.59375 1.59375,0.59375 0.9375,0 1.54687,-0.59375 0.60938,-0.59375 0.60938,-1.45313 0,-0.90625 -0.625,-1.51562 -0.625,-0.625 -1.5625,-0.625 -0.9375,0 -1.5625,0.60937 -0.60938,0.59375 -0.60938,1.4375 z m -0.53125,6.15625 q 0,0.70313 0.32813,1.35938 0.34375,0.65625 1,1.01562 0.65625,0.35938 1.40625,0.35938 1.17187,0 1.9375,-0.75 0.76562,-0.75 0.76562,-1.92188 0,-1.1875 -0.79687,-1.95312 -0.78125,-0.78125 -1.95313,-0.78125 -1.15625,0 -1.92187,0.76562 -0.76563,0.76563 -0.76563,1.90625 z m 9.62574,3.85938 v -1.875 h 1.875 v 1.875 z m 4.38641,-11.60938 v -1.57812 h 8.64062 v 1.28125 q -1.28125,1.35937 -2.53125,3.60937 -1.25,2.25 -1.9375,4.625 -0.48437,1.67188 -0.625,3.67188 h -1.6875 q 0.0312,-1.57813 0.625,-3.8125 0.59375,-2.23438 1.6875,-4.29688 1.10938,-2.07812 2.35938,-3.5 z m 10.26636,5.01563 q 0,-2.35938 0.48437,-3.79688 0.48438,-1.45312 1.4375,-2.23437 0.96875,-0.78125 2.42188,-0.78125 1.07812,0 1.89062,0.4375 0.8125,0.42187 1.32813,1.25 0.53125,0.8125 0.82812,1.98437 0.3125,1.15625 0.3125,3.14063 0,2.35937 -0.48437,3.8125 -0.48438,1.4375 -1.45313,2.23437 -0.95312,0.78125 -2.42187,0.78125 -1.92188,0 -3.03125,-1.39062 -1.3125,-1.67188 -1.3125,-5.4375 z m 1.67187,0 q 0,3.29687 0.76563,4.39062 0.78125,1.07813 1.90625,1.07813 1.14062,0 1.90625,-1.09375 0.76562,-1.09375 0.76562,-4.375 0,-3.29688 -0.76562,-4.375 -0.76563,-1.07813 -1.92188,-1.07813 -1.125,0 -1.79687,0.95313 -0.85938,1.21875 -0.85938,4.5 z m 9.61005,6.59375 v -1.875 h 1.875 v 1.875 z m 10.44897,0 h -1.64062 v -10.45313 q -0.59375,0.5625 -1.5625,1.14063 -0.95313,0.5625 -1.71875,0.84375 v -1.59375 q 1.375,-0.64063 2.40625,-1.5625 1.03125,-0.92188 1.45312,-1.78125 h 1.0625 z m 4.2038,-3.53125 1.64062,-0.21875 q 0.28125,1.40625 0.95313,2.01562 0.6875,0.60938 1.65625,0.60938 1.15625,0 1.95312,-0.79688 0.79688,-0.79687 0.79688,-1.98437 0,-1.125 -0.73438,-1.85938 -0.73437,-0.73437 -1.875,-0.73437 -0.46875,0 -1.15625,0.17187 l 0.1875,-1.4375 q 0.15625,0.0156 0.26563,0.0156 1.04687,0 1.875,-0.54688 0.84375,-0.54687 0.84375,-1.67187 0,-0.90625 -0.60938,-1.5 -0.60937,-0.59375 -1.57812,-0.59375 -0.95313,0 -1.59375,0.60937 -0.64063,0.59375 -0.8125,1.79688 l -1.64063,-0.29688 q 0.29688,-1.64062 1.35938,-2.54687 1.0625,-0.90625 2.65625,-0.90625 1.09375,0 2,0.46875 0.92187,0.46875 1.40625,1.28125 0.5,0.8125 0.5,1.71875 0,0.85937 -0.46875,1.57812 -0.46875,0.70313 -1.375,1.125 1.1875,0.28125 1.84375,1.14063 0.65625,0.85937 0.65625,2.15625 0,1.73437 -1.28125,2.95312 -1.26563,1.21875 -3.21875,1.21875 -1.76563,0 -2.92188,-1.04687 -1.15625,-1.04688 -1.32812,-2.71875 z m 15.62573,3.53125 v -3.20313 h -5.79687 v -1.5 l 6.09375,-8.65625 h 1.34375 v 8.65625 h 1.79687 v 1.5 h -1.79687 v 3.20313 z m 0,-4.70313 v -6.01562 l -4.1875,6.01562 z"
       fill-rule="nonzero"
       id="path17" />
    <path
       fill="#d9d2e9"
       d="m 136.07611,267.3071 h 207.02362 v 87.40155 H 136.07611 Z"
       fill-rule="evenodd"
       id="path19" />
    <path
       stroke="#000000"
       stroke-width="1"
       stroke-linejoin="round"
       stroke-linecap="butt"
       d="m 136.07611,267.3071 h 207.02362 v 87.40155 H 136.07611 Z"
       fill-rule="evenodd"
       id="path21" />
    <path
       fill="#000000"
       d="m 222.36368,307.72473 1.59375,0.23438 q 0.10937,0.75 0.5625,1.07812 0.60937,0.45313 1.67187,0.45313 1.14063,0 1.75,-0.45313 0.625,-0.45312 0.84375,-1.26562 0.125,-0.5 0.10938,-2.10938 -1.0625,1.26563 -2.67188,1.26563 -2,0 -3.09375,-1.4375 -1.09375,-1.4375 -1.09375,-3.45313 0,-1.39062 0.5,-2.5625 0.51563,-1.17187 1.45313,-1.79687 0.95312,-0.64063 2.25,-0.64063 1.70312,0 2.8125,1.375 v -1.15625 h 1.51562 v 8.35938 q 0,2.26562 -0.46875,3.20312 -0.45312,0.9375 -1.45312,1.48438 -0.98438,0.54687 -2.45313,0.54687 -1.71875,0 -2.79687,-0.78125 -1.0625,-0.76562 -1.03125,-2.34375 z m 1.35937,-5.8125 q 0,1.90625 0.75,2.78125 0.76563,0.875 1.90625,0.875 1.125,0 1.89063,-0.85937 0.76562,-0.875 0.76562,-2.73438 0,-1.78125 -0.79687,-2.67187 -0.78125,-0.90625 -1.89063,-0.90625 -1.09375,0 -1.85937,0.89062 -0.76563,0.875 -0.76563,2.625 z m 9.51635,5.01563 v -13.35938 h 1.8125 l 7.01562,10.48438 v -10.48438 h 1.6875 v 13.35938 h -1.8125 l -7.01562,-10.5 v 10.5 z m 13.41044,0 v -13.35938 h 5.01563 q 1.53125,0 2.45312,0.40625 0.92188,0.40625 1.4375,1.25 0.53125,0.84375 0.53125,1.76563 0,0.85937 -0.46875,1.625 -0.45312,0.75 -1.39062,1.20312 1.20312,0.35938 1.85937,1.21875 0.65625,0.85938 0.65625,2.01563 0,0.9375 -0.40625,1.75 -0.39062,0.79687 -0.98437,1.23437 -0.57813,0.4375 -1.45313,0.67188 -0.875,0.21875 -2.15625,0.21875 z m 1.78125,-7.75 h 2.875 q 1.1875,0 1.6875,-0.14063 0.67188,-0.20312 1.01563,-0.67187 0.34375,-0.46875 0.34375,-1.17188 0,-0.65625 -0.32813,-1.15625 -0.3125,-0.51562 -0.90625,-0.70312 -0.59375,-0.1875 -2.03125,-0.1875 h -2.65625 z m 0,6.17187 h 3.3125 q 0.85938,0 1.20313,-0.0625 0.60937,-0.10937 1.01562,-0.35937 0.42188,-0.26563 0.6875,-0.75 0.26563,-0.48438 0.26563,-1.125 0,-0.75 -0.39063,-1.29688 -0.375,-0.54687 -1.0625,-0.76562 -0.67187,-0.23438 -1.95312,-0.23438 h -3.07813 z"
       fill-rule="nonzero"
       id="path23" />
    <path
       fill="#000000"
       d="m 181.69965,328.92786 h -1.64063 v -10.45313 q -0.59375,0.5625 -1.5625,1.14063 -0.95312,0.5625 -1.71875,0.84375 v -1.59375 q 1.375,-0.64063 2.40625,-1.5625 1.03125,-0.92188 1.45313,-1.78125 h 1.0625 z m 4.43822,-3.09375 1.57812,-0.14063 q 0.20313,1.10938 0.76563,1.60938 0.5625,0.5 1.45312,0.5 0.75,0 1.3125,-0.34375 0.57813,-0.34375 0.9375,-0.92188 0.375,-0.57812 0.60938,-1.5625 0.25,-0.98437 0.25,-2 0,-0.10937 0,-0.32812 -0.5,0.78125 -1.35938,1.26562 -0.84375,0.48438 -1.82812,0.48438 -1.67188,0 -2.8125,-1.20313 -1.14063,-1.20312 -1.14063,-3.17187 0,-2.03125 1.1875,-3.26563 1.20313,-1.23437 3,-1.23437 1.3125,0 2.39063,0.70312 1.07812,0.70313 1.64062,2 0.5625,1.29688 0.5625,3.75 0,2.5625 -0.5625,4.07813 -0.5625,1.51562 -1.65625,2.3125 -1.09375,0.79687 -2.57812,0.79687 -1.5625,0 -2.5625,-0.875 -0.98438,-0.875 -1.1875,-2.45312 z m 6.71875,-5.89063 q 0,-1.40625 -0.75,-2.23437 -0.75,-0.82813 -1.8125,-0.82813 -1.09375,0 -1.90625,0.89063 -0.8125,0.89062 -0.8125,2.3125 0,1.28125 0.76562,2.07812 0.78125,0.79688 1.90625,0.79688 1.14063,0 1.875,-0.79688 0.73438,-0.79687 0.73438,-2.21875 z m 12.03196,7.40625 v 1.57813 h -8.82812 q -0.0156,-0.59375 0.1875,-1.14063 0.34375,-0.90625 1.07812,-1.78125 0.75,-0.875 2.15625,-2.01562 2.17188,-1.78125 2.9375,-2.82813 0.76563,-1.04687 0.76563,-1.96875 0,-0.98437 -0.70313,-1.64062 -0.6875,-0.67188 -1.8125,-0.67188 -1.1875,0 -1.90625,0.71875 -0.70312,0.70313 -0.70312,1.95313 l -1.6875,-0.17188 q 0.17187,-1.89062 1.29687,-2.875 1.14063,-0.98437 3.03125,-0.98437 1.92188,0 3.04688,1.0625 1.125,1.0625 1.125,2.64062 0,0.79688 -0.32813,1.57813 -0.32812,0.78125 -1.09375,1.64062 -0.75,0.84375 -2.53125,2.34375 -1.46875,1.23438 -1.89062,1.6875 -0.42188,0.4375 -0.6875,0.875 z m 2.6726,1.57813 v -1.875 h 1.875 v 1.875 z m 10.44893,0 h -1.64063 v -10.45313 q -0.59375,0.5625 -1.5625,1.14063 -0.95312,0.5625 -1.71875,0.84375 v -1.59375 q 1.375,-0.64063 2.40625,-1.5625 1.03125,-0.92188 1.45313,-1.78125 h 1.0625 z m 12.70384,-10.07813 -1.625,0.125 q -0.21875,-0.96875 -0.625,-1.40625 -0.65625,-0.70312 -1.64063,-0.70312 -0.78125,0 -1.375,0.4375 -0.76562,0.5625 -1.21875,1.65625 -0.45312,1.07812 -0.46875,3.07812 0.59375,-0.89062 1.45313,-1.32812 0.85937,-0.4375 1.79687,-0.4375 1.64063,0 2.78125,1.20312 1.15625,1.20313 1.15625,3.10938 0,1.26562 -0.54687,2.34375 -0.53125,1.07812 -1.48438,1.65625 -0.9375,0.57812 -2.14062,0.57812 -2.0625,0 -3.35938,-1.5 -1.28125,-1.51562 -1.28125,-4.98437 0,-3.875 1.42188,-5.625 1.25,-1.53125 3.375,-1.53125 1.5625,0 2.5625,0.89062 1.01562,0.875 1.21875,2.4375 z m -6.6875,5.75 q 0,0.84375 0.35937,1.625 0.35938,0.76563 1,1.17188 0.64063,0.40625 1.35938,0.40625 1.03125,0 1.78125,-0.82813 0.75,-0.84375 0.75,-2.28125 0,-1.39062 -0.73438,-2.1875 -0.73437,-0.79687 -1.85937,-0.79687 -1.10938,0 -1.89063,0.79687 -0.76562,0.79688 -0.76562,2.09375 z m 11.07884,-2.90625 q -1.01563,-0.375 -1.51563,-1.0625 -0.48437,-0.70312 -0.48437,-1.67187 0,-1.45313 1.04687,-2.4375 1.04688,-1 2.78125,-1 1.75,0 2.8125,1.01562 1.07813,1.01563 1.07813,2.46875 0,0.9375 -0.5,1.625 -0.48438,0.6875 -1.46875,1.0625 1.21875,0.39063 1.85937,1.28125 0.65625,0.89063 0.65625,2.14063 0,1.70312 -1.21875,2.875 -1.21875,1.17187 -3.1875,1.17187 -1.98437,0 -3.20312,-1.17187 -1.20313,-1.17188 -1.20313,-2.92188 0,-1.3125 0.65625,-2.1875 0.67188,-0.875 1.89063,-1.1875 z m -0.32813,-2.78125 q 0,0.9375 0.60938,1.54688 0.60937,0.59375 1.59375,0.59375 0.9375,0 1.54687,-0.59375 0.60938,-0.59375 0.60938,-1.45313 0,-0.90625 -0.625,-1.51562 -0.625,-0.625 -1.5625,-0.625 -0.9375,0 -1.5625,0.60937 -0.60938,0.59375 -0.60938,1.4375 z m -0.53125,6.15625 q 0,0.70313 0.32813,1.35938 0.34375,0.65625 1,1.01562 0.65625,0.35938 1.40625,0.35938 1.17187,0 1.9375,-0.75 0.76562,-0.75 0.76562,-1.92188 0,-1.1875 -0.79687,-1.95312 -0.78125,-0.78125 -1.95313,-0.78125 -1.15625,0 -1.92187,0.76562 -0.76563,0.76563 -0.76563,1.90625 z m 9.62572,3.85938 v -1.875 h 1.875 v 1.875 z m 4.38643,-11.60938 v -1.57812 h 8.64063 v 1.28125 q -1.28125,1.35937 -2.53125,3.60937 -1.25,2.25 -1.9375,4.625 -0.48438,1.67188 -0.625,3.67188 h -1.6875 q 0.0312,-1.57813 0.625,-3.8125 0.59375,-2.23438 1.6875,-4.29688 1.10937,-2.07812 2.35937,-3.5 z m 10.26636,5.01563 q 0,-2.35938 0.48437,-3.79688 0.48438,-1.45312 1.4375,-2.23437 0.96875,-0.78125 2.42188,-0.78125 1.07812,0 1.89062,0.4375 0.8125,0.42187 1.32813,1.25 0.53125,0.8125 0.82812,1.98437 0.3125,1.15625 0.3125,3.14063 0,2.35937 -0.48437,3.8125 -0.48438,1.4375 -1.45313,2.23437 -0.95312,0.78125 -2.42187,0.78125 -1.92188,0 -3.03125,-1.39062 -1.3125,-1.67188 -1.3125,-5.4375 z m 1.67187,0 q 0,3.29687 0.76563,4.39062 0.78125,1.07813 1.90625,1.07813 1.14062,0 1.90625,-1.09375 0.76562,-1.09375 0.76562,-4.375 0,-3.29688 -0.76562,-4.375 -0.76563,-1.07813 -1.92188,-1.07813 -1.125,0 -1.79687,0.95313 -0.85938,1.21875 -0.85938,4.5 z m 9.61008,6.59375 v -1.875 h 1.875 v 1.875 z m 10.44894,0 h -1.64062 v -10.45313 q -0.59375,0.5625 -1.5625,1.14063 -0.95313,0.5625 -1.71875,0.84375 v -1.59375 q 1.375,-0.64063 2.40625,-1.5625 1.03125,-0.92188 1.45312,-1.78125 h 1.0625 z m 12.81321,-1.57813 v 1.57813 h -8.82813 q -0.0156,-0.59375 0.1875,-1.14063 0.34375,-0.90625 1.07813,-1.78125 0.75,-0.875 2.15625,-2.01562 2.17187,-1.78125 2.9375,-2.82813 0.76562,-1.04687 0.76562,-1.96875 0,-0.98437 -0.70312,-1.64062 -0.6875,-0.67188 -1.8125,-0.67188 -1.1875,0 -1.90625,0.71875 -0.70313,0.70313 -0.70313,1.95313 l -1.6875,-0.17188 q 0.17188,-1.89062 1.29688,-2.875 1.14062,-0.98437 3.03125,-0.98437 1.92187,0 3.04687,1.0625 1.125,1.0625 1.125,2.64062 0,0.79688 -0.32812,1.57813 -0.32813,0.78125 -1.09375,1.64062 -0.75,0.84375 -2.53125,2.34375 -1.46875,1.23438 -1.89063,1.6875 -0.42187,0.4375 -0.6875,0.875 z m 2.00073,-1.51562 1.57812,-0.14063 q 0.20313,1.10938 0.76563,1.60938 0.5625,0.5 1.45312,0.5 0.75,0 1.3125,-0.34375 0.57813,-0.34375 0.9375,-0.92188 0.375,-0.57812 0.60938,-1.5625 0.25,-0.98437 0.25,-2 0,-0.10937 0,-0.32812 -0.5,0.78125 -1.35938,1.26562 -0.84375,0.48438 -1.82812,0.48438 -1.67188,0 -2.8125,-1.20313 -1.14063,-1.20312 -1.14063,-3.17187 0,-2.03125 1.1875,-3.26563 1.20313,-1.23437 3,-1.23437 1.3125,0 2.39063,0.70312 1.07812,0.70313 1.64062,2 0.5625,1.29688 0.5625,3.75 0,2.5625 -0.5625,4.07813 -0.5625,1.51562 -1.65625,2.3125 -1.09375,0.79687 -2.57812,0.79687 -1.5625,0 -2.5625,-0.875 -0.98438,-0.875 -1.1875,-2.45312 z m 6.71875,-5.89063 q 0,-1.40625 -0.75,-2.23437 -0.75,-0.82813 -1.8125,-0.82813 -1.09375,0 -1.90625,0.89063 -0.8125,0.89062 -0.8125,2.3125 0,1.28125 0.76562,2.07812 0.78125,0.79688 1.90625,0.79688 1.14063,0 1.875,-0.79688 0.73438,-0.79687 0.73438,-2.21875 z"
       fill-rule="nonzero"
       id="path25" />
    <path
       fill="#cfe2f3"
       d="m 515.71344,155.51987 h 148.94489 v 65.07088 H 515.71344 Z"
       fill-rule="evenodd"
       id="path41" />
    <path
       stroke="#000000"
       stroke-width="1"
       stroke-linejoin="round"
       stroke-linecap="butt"
       d="m 515.71344,155.51987 h 148.94489 v 65.07088 H 515.71344 Z"
       fill-rule="evenodd"
       id="path43" />
    <path
       fill="#000000"
       d="m 571.3395,179.67842 1.65625,-0.14063 q 0.125,1 0.54688,1.64063 0.4375,0.64062 1.34375,1.04687 0.92187,0.39063 2.0625,0.39063 1,0 1.78125,-0.29688 0.78125,-0.29687 1.15625,-0.8125 0.375,-0.53125 0.375,-1.15625 0,-0.625 -0.375,-1.09375 -0.35938,-0.46875 -1.1875,-0.79687 -0.54688,-0.20313 -2.39063,-0.64063 -1.82812,-0.45312 -2.5625,-0.84375 -0.96875,-0.5 -1.4375,-1.23437 -0.46875,-0.75 -0.46875,-1.67188 0,-1 0.57813,-1.875 0.57812,-0.89062 1.67187,-1.34375 1.10938,-0.45312 2.45313,-0.45312 1.48437,0 2.60937,0.48437 1.14063,0.46875 1.75,1.40625 0.60938,0.92188 0.65625,2.09375 l -1.6875,0.125 q -0.14062,-1.26562 -0.9375,-1.90625 -0.78125,-0.65625 -2.3125,-0.65625 -1.60937,0 -2.34375,0.59375 -0.73437,0.59375 -0.73437,1.42188 0,0.71875 0.53125,1.17187 0.5,0.46875 2.65625,0.96875 2.15625,0.48438 2.95312,0.84375 1.17188,0.53125 1.71875,1.35938 0.5625,0.82812 0.5625,1.90625 0,1.0625 -0.60937,2.01562 -0.60938,0.9375 -1.75,1.46875 -1.14063,0.51563 -2.57813,0.51563 -1.8125,0 -3.04687,-0.53125 -1.21875,-0.53125 -1.92188,-1.59375 -0.6875,-1.0625 -0.71875,-2.40625 z m 12.99042,4.29687 v -13.35937 h 2.65625 l 3.15625,9.45312 q 0.4375,1.32813 0.64062,1.98438 0.23438,-0.73438 0.70313,-2.14063 l 3.20312,-9.29687 h 2.375 v 13.35937 h -1.70312 v -11.17187 l -3.875,11.17187 h -1.59375 l -3.85938,-11.375 v 11.375 z m 15.68146,0 v -13.35937 h 9.01562 v 1.57812 h -7.25 v 4.14063 h 6.26563 v 1.57812 H 601.777 v 6.0625 z"
       fill-rule="nonzero"
       id="path45" />
    <path
       fill="#000000"
       d="m 532.2976,205.9753 h -1.64063 v -10.45313 q -0.59375,0.5625 -1.5625,1.14063 -0.95312,0.5625 -1.71875,0.84375 v -1.59375 q 1.375,-0.64063 2.40625,-1.5625 1.03125,-0.92188 1.45313,-1.78125 h 1.0625 z m 4.43823,-3.09375 1.57813,-0.14063 q 0.20312,1.10938 0.76562,1.60938 0.5625,0.5 1.45313,0.5 0.75,0 1.3125,-0.34375 0.57812,-0.34375 0.9375,-0.92188 0.375,-0.57812 0.60937,-1.5625 0.25,-0.98437 0.25,-2 0,-0.10937 0,-0.32812 -0.5,0.78125 -1.35937,1.26562 -0.84375,0.48438 -1.82813,0.48438 -1.67187,0 -2.8125,-1.20313 -1.14062,-1.20312 -1.14062,-3.17187 0,-2.03125 1.1875,-3.26563 1.20312,-1.23437 3,-1.23437 1.3125,0 2.39062,0.70312 1.07813,0.70313 1.64063,2 0.5625,1.29688 0.5625,3.75 0,2.5625 -0.5625,4.07813 -0.5625,1.51562 -1.65625,2.3125 -1.09375,0.79687 -2.57813,0.79687 -1.5625,0 -2.5625,-0.875 -0.98437,-0.875 -1.1875,-2.45312 z m 6.71875,-5.89063 q 0,-1.40625 -0.75,-2.23437 -0.75,-0.82813 -1.8125,-0.82813 -1.09375,0 -1.90625,0.89063 -0.8125,0.89062 -0.8125,2.3125 0,1.28125 0.76563,2.07812 0.78125,0.79688 1.90625,0.79688 1.14062,0 1.875,-0.79688 0.73437,-0.79687 0.73437,-2.21875 z m 12.03198,7.40625 v 1.57813 h -8.82812 q -0.0156,-0.59375 0.1875,-1.14063 0.34375,-0.90625 1.07812,-1.78125 0.75,-0.875 2.15625,-2.01562 2.17188,-1.78125 2.9375,-2.82813 0.76563,-1.04687 0.76563,-1.96875 0,-0.98437 -0.70313,-1.64062 -0.6875,-0.67188 -1.8125,-0.67188 -1.1875,0 -1.90625,0.71875 -0.70312,0.70313 -0.70312,1.95313 l -1.6875,-0.17188 q 0.17187,-1.89062 1.29687,-2.875 1.14063,-0.98437 3.03125,-0.98437 1.92188,0 3.04688,1.0625 1.125,1.0625 1.125,2.64062 0,0.79688 -0.32813,1.57813 -0.32812,0.78125 -1.09375,1.64062 -0.75,0.84375 -2.53125,2.34375 -1.46875,1.23438 -1.89062,1.6875 -0.42188,0.4375 -0.6875,0.875 z m 2.67261,1.57813 v -1.875 h 1.875 v 1.875 z m 10.44892,0 h -1.64063 v -10.45313 q -0.59375,0.5625 -1.5625,1.14063 -0.95312,0.5625 -1.71875,0.84375 v -1.59375 q 1.375,-0.64063 2.40625,-1.5625 1.03125,-0.92188 1.45313,-1.78125 h 1.0625 z m 12.70385,-10.07813 -1.625,0.125 q -0.21875,-0.96875 -0.625,-1.40625 -0.65625,-0.70312 -1.64062,-0.70312 -0.78125,0 -1.375,0.4375 -0.76563,0.5625 -1.21875,1.65625 -0.45313,1.07812 -0.46875,3.07812 0.59375,-0.89062 1.45312,-1.32812 0.85938,-0.4375 1.79688,-0.4375 1.64062,0 2.78125,1.20312 1.15625,1.20313 1.15625,3.10938 0,1.26562 -0.54688,2.34375 -0.53125,1.07812 -1.48437,1.65625 -0.9375,0.57812 -2.14063,0.57812 -2.0625,0 -3.35937,-1.5 -1.28125,-1.51562 -1.28125,-4.98437 0,-3.875 1.42187,-5.625 1.25,-1.53125 3.375,-1.53125 1.5625,0 2.5625,0.89062 1.01563,0.875 1.21875,2.4375 z m -6.6875,5.75 q 0,0.84375 0.35938,1.625 0.35937,0.76563 1,1.17188 0.64062,0.40625 1.35937,0.40625 1.03125,0 1.78125,-0.82813 0.75,-0.84375 0.75,-2.28125 0,-1.39062 -0.73437,-2.1875 -0.73438,-0.79687 -1.85938,-0.79687 -1.10937,0 -1.89062,0.79687 -0.76563,0.79688 -0.76563,2.09375 z m 11.0788,-2.90625 q -1.01563,-0.375 -1.51563,-1.0625 -0.48437,-0.70312 -0.48437,-1.67187 0,-1.45313 1.04687,-2.4375 1.04688,-1 2.78125,-1 1.75,0 2.8125,1.01562 1.07813,1.01563 1.07813,2.46875 0,0.9375 -0.5,1.625 -0.48438,0.6875 -1.46875,1.0625 1.21875,0.39063 1.85937,1.28125 0.65625,0.89063 0.65625,2.14063 0,1.70312 -1.21875,2.875 -1.21875,1.17187 -3.1875,1.17187 -1.98437,0 -3.20312,-1.17187 -1.20313,-1.17188 -1.20313,-2.92188 0,-1.3125 0.65625,-2.1875 0.67188,-0.875 1.89063,-1.1875 z m -0.32813,-2.78125 q 0,0.9375 0.60938,1.54688 0.60937,0.59375 1.59375,0.59375 0.9375,0 1.54687,-0.59375 0.60938,-0.59375 0.60938,-1.45313 0,-0.90625 -0.625,-1.51562 -0.625,-0.625 -1.5625,-0.625 -0.9375,0 -1.5625,0.60937 -0.60938,0.59375 -0.60938,1.4375 z m -0.53125,6.15625 q 0,0.70313 0.32813,1.35938 0.34375,0.65625 1,1.01562 0.65625,0.35938 1.40625,0.35938 1.17187,0 1.9375,-0.75 0.76562,-0.75 0.76562,-1.92188 0,-1.1875 -0.79687,-1.95312 -0.78125,-0.78125 -1.95313,-0.78125 -1.15625,0 -1.92187,0.76562 -0.76563,0.76563 -0.76563,1.90625 z m 9.62574,3.85938 v -1.875 h 1.875 v 1.875 z m 4.38641,-11.60938 v -1.57812 h 8.64062 v 1.28125 q -1.28125,1.35937 -2.53125,3.60937 -1.25,2.25 -1.9375,4.625 -0.48437,1.67188 -0.625,3.67188 h -1.6875 q 0.0312,-1.57813 0.625,-3.8125 0.59375,-2.23438 1.6875,-4.29688 1.10938,-2.07812 2.35938,-3.5 z m 10.26636,5.01563 q 0,-2.35938 0.48437,-3.79688 0.48438,-1.45312 1.4375,-2.23437 0.96875,-0.78125 2.42188,-0.78125 1.07812,0 1.89062,0.4375 0.8125,0.42187 1.32813,1.25 0.53125,0.8125 0.82812,1.98437 0.3125,1.15625 0.3125,3.14063 0,2.35937 -0.48437,3.8125 -0.48438,1.4375 -1.45313,2.23437 -0.95312,0.78125 -2.42187,0.78125 -1.92188,0 -3.03125,-1.39062 -1.3125,-1.67188 -1.3125,-5.4375 z m 1.67187,0 q 0,3.29687 0.76563,4.39062 0.78125,1.07813 1.90625,1.07813 1.14062,0 1.90625,-1.09375 0.76562,-1.09375 0.76562,-4.375 0,-3.29688 -0.76562,-4.375 -0.76563,-1.07813 -1.92188,-1.07813 -1.125,0 -1.79687,0.95313 -0.85938,1.21875 -0.85938,4.5 z m 9.61011,6.59375 v -1.875 h 1.875 v 1.875 z m 10.44891,0 h -1.64062 v -10.45313 q -0.59375,0.5625 -1.5625,1.14063 -0.95313,0.5625 -1.71875,0.84375 v -1.59375 q 1.375,-0.64063 2.40625,-1.5625 1.03125,-0.92188 1.45312,-1.78125 h 1.0625 z m 4.20386,-3.53125 1.64062,-0.21875 q 0.28125,1.40625 0.95313,2.01562 0.6875,0.60938 1.65625,0.60938 1.15625,0 1.95312,-0.79688 0.79688,-0.79687 0.79688,-1.98437 0,-1.125 -0.73438,-1.85938 -0.73437,-0.73437 -1.875,-0.73437 -0.46875,0 -1.15625,0.17187 l 0.1875,-1.4375 q 0.15625,0.0156 0.26563,0.0156 1.04687,0 1.875,-0.54688 0.84375,-0.54687 0.84375,-1.67187 0,-0.90625 -0.60938,-1.5 -0.60937,-0.59375 -1.57812,-0.59375 -0.95313,0 -1.59375,0.60937 -0.64063,0.59375 -0.8125,1.79688 l -1.64063,-0.29688 q 0.29688,-1.64062 1.35938,-2.54687 1.0625,-0.90625 2.65625,-0.90625 1.09375,0 2,0.46875 0.92187,0.46875 1.40625,1.28125 0.5,0.8125 0.5,1.71875 0,0.85937 -0.46875,1.57812 -0.46875,0.70313 -1.375,1.125 1.1875,0.28125 1.84375,1.14063 0.65625,0.85937 0.65625,2.15625 0,1.73437 -1.28125,2.95312 -1.26563,1.21875 -3.21875,1.21875 -1.76563,0 -2.92188,-1.04687 -1.15625,-1.04688 -1.32812,-2.71875 z m 10.37573,0 1.64063,-0.21875 q 0.28125,1.40625 0.95312,2.01562 0.6875,0.60938 1.65625,0.60938 1.15625,0 1.95313,-0.79688 0.79687,-0.79687 0.79687,-1.98437 0,-1.125 -0.73437,-1.85938 -0.73438,-0.73437 -1.875,-0.73437 -0.46875,0 -1.15625,0.17187 l 0.1875,-1.4375 q 0.15625,0.0156 0.26562,0.0156 1.04688,0 1.875,-0.54688 0.84375,-0.54687 0.84375,-1.67187 0,-0.90625 -0.60937,-1.5 -0.60938,-0.59375 -1.57813,-0.59375 -0.95312,0 -1.59375,0.60937 -0.64062,0.59375 -0.8125,1.79688 l -1.64062,-0.29688 q 0.29687,-1.64062 1.35937,-2.54687 1.0625,-0.90625 2.65625,-0.90625 1.09375,0 2,0.46875 0.92188,0.46875 1.40625,1.28125 0.5,0.8125 0.5,1.71875 0,0.85937 -0.46875,1.57812 -0.46875,0.70313 -1.375,1.125 1.1875,0.28125 1.84375,1.14063 0.65625,0.85937 0.65625,2.15625 0,1.73437 -1.28125,2.95312 -1.26562,1.21875 -3.21875,1.21875 -1.76562,0 -2.92187,-1.04687 -1.15625,-1.04688 -1.32813,-2.71875 z"
       fill-rule="nonzero"
       id="path47" />
    <path
       fill="#cfe2f3"
       d="m 165.11548,155.51978 h 148.94489 v 65.07086 H 165.11548 Z"
       fill-rule="evenodd"
       id="path49" />
    <path
       stroke="#000000"
       stroke-width="1"
       stroke-linejoin="round"
       stroke-linecap="butt"
       d="m 165.11548,155.51978 h 148.94489 v 65.07086 H 165.11548 Z"
       fill-rule="evenodd"
       id="path51" />
    <path
       fill="#000000"
       d="m 219.8665,183.9752 5.125,-13.35938 h 1.90625 l 5.46875,13.35938 h -2.01563 l -1.54687,-4.04688 h -5.59375 l -1.46875,4.04688 z m 3.85937,-5.48438 h 4.53125 l -1.40625,-3.70312 q -0.625,-1.6875 -0.9375,-2.76563 -0.26562,1.28125 -0.71875,2.54688 z m 10.00608,5.48438 v -13.35938 h 2.65625 l 3.15625,9.45313 q 0.4375,1.32812 0.64062,1.98437 0.23438,-0.73437 0.70313,-2.14062 l 3.20312,-9.29688 h 2.375 v 13.35938 h -1.70312 v -11.17188 l -3.875,11.17188 h -1.59375 l -3.85938,-11.375 v 11.375 z m 15.68142,0 v -13.35938 h 9.01561 v 1.57813 H 251.179 v 4.14062 h 6.26561 v 1.57813 H 251.179 v 6.0625 z"
       fill-rule="nonzero"
       id="path53" />
    <path
       fill="#000000"
       d="m 181.69965,205.9752 h -1.64063 v -10.45313 q -0.59375,0.5625 -1.5625,1.14063 -0.95312,0.5625 -1.71875,0.84375 v -1.59375 q 1.375,-0.64063 2.40625,-1.5625 1.03125,-0.92188 1.45313,-1.78125 h 1.0625 z m 4.43822,-3.09375 1.57812,-0.14063 q 0.20313,1.10938 0.76563,1.60938 0.5625,0.5 1.45312,0.5 0.75,0 1.3125,-0.34375 0.57813,-0.34375 0.9375,-0.92188 0.375,-0.57812 0.60938,-1.5625 0.25,-0.98437 0.25,-2 0,-0.10937 0,-0.32812 -0.5,0.78125 -1.35938,1.26562 -0.84375,0.48438 -1.82812,0.48438 -1.67188,0 -2.8125,-1.20313 -1.14063,-1.20312 -1.14063,-3.17187 0,-2.03125 1.1875,-3.26563 1.20313,-1.23437 3,-1.23437 1.3125,0 2.39063,0.70312 1.07812,0.70313 1.64062,2 0.5625,1.29688 0.5625,3.75 0,2.5625 -0.5625,4.07813 -0.5625,1.51562 -1.65625,2.3125 -1.09375,0.79687 -2.57812,0.79687 -1.5625,0 -2.5625,-0.875 -0.98438,-0.875 -1.1875,-2.45312 z m 6.71875,-5.89063 q 0,-1.40625 -0.75,-2.23437 -0.75,-0.82813 -1.8125,-0.82813 -1.09375,0 -1.90625,0.89063 -0.8125,0.89062 -0.8125,2.3125 0,1.28125 0.76562,2.07812 0.78125,0.79688 1.90625,0.79688 1.14063,0 1.875,-0.79688 0.73438,-0.79687 0.73438,-2.21875 z m 12.03196,7.40625 v 1.57813 h -8.82812 q -0.0156,-0.59375 0.1875,-1.14063 0.34375,-0.90625 1.07812,-1.78125 0.75,-0.875 2.15625,-2.01562 2.17188,-1.78125 2.9375,-2.82813 0.76563,-1.04687 0.76563,-1.96875 0,-0.98437 -0.70313,-1.64062 -0.6875,-0.67188 -1.8125,-0.67188 -1.1875,0 -1.90625,0.71875 -0.70312,0.70313 -0.70312,1.95313 l -1.6875,-0.17188 q 0.17187,-1.89062 1.29687,-2.875 1.14063,-0.98437 3.03125,-0.98437 1.92188,0 3.04688,1.0625 1.125,1.0625 1.125,2.64062 0,0.79688 -0.32813,1.57813 -0.32812,0.78125 -1.09375,1.64062 -0.75,0.84375 -2.53125,2.34375 -1.46875,1.23438 -1.89062,1.6875 -0.42188,0.4375 -0.6875,0.875 z m 2.6726,1.57813 v -1.875 h 1.875 v 1.875 z m 10.44893,0 h -1.64063 v -10.45313 q -0.59375,0.5625 -1.5625,1.14063 -0.95312,0.5625 -1.71875,0.84375 v -1.59375 q 1.375,-0.64063 2.40625,-1.5625 1.03125,-0.92188 1.45313,-1.78125 h 1.0625 z m 12.70384,-10.07813 -1.625,0.125 q -0.21875,-0.96875 -0.625,-1.40625 -0.65625,-0.70312 -1.64063,-0.70312 -0.78125,0 -1.375,0.4375 -0.76562,0.5625 -1.21875,1.65625 -0.45312,1.07812 -0.46875,3.07812 0.59375,-0.89062 1.45313,-1.32812 0.85937,-0.4375 1.79687,-0.4375 1.64063,0 2.78125,1.20312 1.15625,1.20313 1.15625,3.10938 0,1.26562 -0.54687,2.34375 -0.53125,1.07812 -1.48438,1.65625 -0.9375,0.57812 -2.14062,0.57812 -2.0625,0 -3.35938,-1.5 -1.28125,-1.51562 -1.28125,-4.98437 0,-3.875 1.42188,-5.625 1.25,-1.53125 3.375,-1.53125 1.5625,0 2.5625,0.89062 1.01562,0.875 1.21875,2.4375 z m -6.6875,5.75 q 0,0.84375 0.35937,1.625 0.35938,0.76563 1,1.17188 0.64063,0.40625 1.35938,0.40625 1.03125,0 1.78125,-0.82813 0.75,-0.84375 0.75,-2.28125 0,-1.39062 -0.73438,-2.1875 -0.73437,-0.79687 -1.85937,-0.79687 -1.10938,0 -1.89063,0.79687 -0.76562,0.79688 -0.76562,2.09375 z m 11.07884,-2.90625 q -1.01563,-0.375 -1.51563,-1.0625 -0.48437,-0.70312 -0.48437,-1.67187 0,-1.45313 1.04687,-2.4375 1.04688,-1 2.78125,-1 1.75,0 2.8125,1.01562 1.07813,1.01563 1.07813,2.46875 0,0.9375 -0.5,1.625 -0.48438,0.6875 -1.46875,1.0625 1.21875,0.39063 1.85937,1.28125 0.65625,0.89063 0.65625,2.14063 0,1.70312 -1.21875,2.875 -1.21875,1.17187 -3.1875,1.17187 -1.98437,0 -3.20312,-1.17187 -1.20313,-1.17188 -1.20313,-2.92188 0,-1.3125 0.65625,-2.1875 0.67188,-0.875 1.89063,-1.1875 z m -0.32813,-2.78125 q 0,0.9375 0.60938,1.54688 0.60937,0.59375 1.59375,0.59375 0.9375,0 1.54687,-0.59375 0.60938,-0.59375 0.60938,-1.45313 0,-0.90625 -0.625,-1.51562 -0.625,-0.625 -1.5625,-0.625 -0.9375,0 -1.5625,0.60937 -0.60938,0.59375 -0.60938,1.4375 z m -0.53125,6.15625 q 0,0.70313 0.32813,1.35938 0.34375,0.65625 1,1.01562 0.65625,0.35938 1.40625,0.35938 1.17187,0 1.9375,-0.75 0.76562,-0.75 0.76562,-1.92188 0,-1.1875 -0.79687,-1.95312 -0.78125,-0.78125 -1.95313,-0.78125 -1.15625,0 -1.92187,0.76562 -0.76563,0.76563 -0.76563,1.90625 z m 9.62572,3.85938 v -1.875 h 1.875 v 1.875 z m 4.38643,-11.60938 v -1.57812 h 8.64063 v 1.28125 q -1.28125,1.35937 -2.53125,3.60937 -1.25,2.25 -1.9375,4.625 -0.48438,1.67188 -0.625,3.67188 h -1.6875 q 0.0312,-1.57813 0.625,-3.8125 0.59375,-2.23438 1.6875,-4.29688 1.10937,-2.07812 2.35937,-3.5 z m 10.26636,5.01563 q 0,-2.35938 0.48437,-3.79688 0.48438,-1.45312 1.4375,-2.23437 0.96875,-0.78125 2.42188,-0.78125 1.07812,0 1.89062,0.4375 0.8125,0.42187 1.32813,1.25 0.53125,0.8125 0.82812,1.98437 0.3125,1.15625 0.3125,3.14063 0,2.35937 -0.48437,3.8125 -0.48438,1.4375 -1.45313,2.23437 -0.95312,0.78125 -2.42187,0.78125 -1.92188,0 -3.03125,-1.39062 -1.3125,-1.67188 -1.3125,-5.4375 z m 1.67187,0 q 0,3.29687 0.76563,4.39062 0.78125,1.07813 1.90625,1.07813 1.14062,0 1.90625,-1.09375 0.76562,-1.09375 0.76562,-4.375 0,-3.29688 -0.76562,-4.375 -0.76563,-1.07813 -1.92188,-1.07813 -1.125,0 -1.79687,0.95313 -0.85938,1.21875 -0.85938,4.5 z m 9.61008,6.59375 v -1.875 h 1.875 v 1.875 z m 10.44894,0 h -1.64062 v -10.45313 q -0.59375,0.5625 -1.5625,1.14063 -0.95313,0.5625 -1.71875,0.84375 v -1.59375 q 1.375,-0.64063 2.40625,-1.5625 1.03125,-0.92188 1.45312,-1.78125 h 1.0625 z m 4.20383,-3.53125 1.64063,-0.21875 q 0.28125,1.40625 0.95312,2.01562 0.6875,0.60938 1.65625,0.60938 1.15625,0 1.95313,-0.79688 0.79687,-0.79687 0.79687,-1.98437 0,-1.125 -0.73437,-1.85938 -0.73438,-0.73437 -1.875,-0.73437 -0.46875,0 -1.15625,0.17187 l 0.1875,-1.4375 q 0.15625,0.0156 0.26562,0.0156 1.04688,0 1.875,-0.54688 0.84375,-0.54687 0.84375,-1.67187 0,-0.90625 -0.60937,-1.5 -0.60938,-0.59375 -1.57813,-0.59375 -0.95312,0 -1.59375,0.60937 -0.64062,0.59375 -0.8125,1.79688 l -1.64062,-0.29688 q 0.29687,-1.64062 1.35937,-2.54687 1.0625,-0.90625 2.65625,-0.90625 1.09375,0 2,0.46875 0.92188,0.46875 1.40625,1.28125 0.5,0.8125 0.5,1.71875 0,0.85937 -0.46875,1.57812 -0.46875,0.70313 -1.375,1.125 1.1875,0.28125 1.84375,1.14063 0.65625,0.85937 0.65625,2.15625 0,1.73437 -1.28125,2.95312 -1.26562,1.21875 -3.21875,1.21875 -1.76562,0 -2.92187,-1.04687 -1.15625,-1.04688 -1.32813,-2.71875 z m 18.98511,1.95312 v 1.57813 h -8.82813 q -0.0156,-0.59375 0.1875,-1.14063 0.34375,-0.90625 1.07813,-1.78125 0.75,-0.875 2.15625,-2.01562 2.17187,-1.78125 2.9375,-2.82813 0.76562,-1.04687 0.76562,-1.96875 0,-0.98437 -0.70312,-1.64062 -0.6875,-0.67188 -1.8125,-0.67188 -1.1875,0 -1.90625,0.71875 -0.70313,0.70313 -0.70313,1.95313 l -1.6875,-0.17188 q 0.17188,-1.89062 1.29688,-2.875 1.14062,-0.98437 3.03125,-0.98437 1.92187,0 3.04687,1.0625 1.125,1.0625 1.125,2.64062 0,0.79688 -0.32812,1.57813 -0.32813,0.78125 -1.09375,1.64062 -0.75,0.84375 -2.53125,2.34375 -1.46875,1.23438 -1.89063,1.6875 -0.42187,0.4375 -0.6875,0.875 z"
       fill-rule="nonzero"
       id="path55" />
    <path
       fill="#cfe2f3"
       d="m 607.53455,12.047244 h 148.94489 v 65.07087 H 607.53455 Z"
       fill-rule="evenodd"
       id="path57" />
    <path
       stroke="#000000"
       stroke-width="1"
       stroke-linejoin="round"
       stroke-linecap="butt"
       d="m 607.53455,12.047244 h 148.94489 v 65.07087 H 607.53455 Z"
       fill-rule="evenodd"
       id="path59" />
    <path
       fill="#000000"
       d="M 664.25793,40.502674 V 27.143301 h 1.8125 l 7.01562,10.484373 V 27.143301 h 1.6875 v 13.359373 h -1.8125 l -7.01562,-10.499998 v 10.499998 z m 13.51977,0 V 27.143301 h 5.92188 q 1.78125,0 2.70312,0.359375 0.9375,0.359375 1.48438,1.28125 0.5625,0.90625 0.5625,2.015625 0,1.406248 -0.92188,2.390623 -0.92187,0.96875 -2.84375,1.234375 0.70313,0.34375 1.07813,0.671875 0.76562,0.703125 1.45312,1.765625 l 2.32813,3.640625 h -2.21875 l -1.76563,-2.78125 q -0.78125,-1.203125 -1.28125,-1.828125 -0.5,-0.640625 -0.90625,-0.890625 -0.39062,-0.265625 -0.79687,-0.359375 -0.29688,-0.07813 -0.98438,-0.07813 h -2.04687 v 5.9375 z m 1.76563,-7.453125 h 3.79687 q 1.21875,0 1.89063,-0.25 0.6875,-0.265625 1.04687,-0.812498 0.35938,-0.546875 0.35938,-1.1875 0,-0.953125 -0.6875,-1.5625 -0.6875,-0.609375 -2.1875,-0.609375 h -4.21875 z m 11.76984,7.453125 V 27.143301 h 9.01562 v 1.578125 h -7.25 v 4.140623 h 6.26563 v 1.578125 h -6.26563 v 6.0625 z"
       fill-rule="nonzero"
       id="path61" />
    <path
       fill="#000000"
       d="m 624.1187,62.502674 h -1.64063 V 52.049549 q -0.59375,0.5625 -1.5625,1.140625 -0.95312,0.5625 -1.71875,0.84375 v -1.59375 q 1.375,-0.640625 2.40625,-1.5625 1.03125,-0.921875 1.45313,-1.78125 h 1.0625 z m 4.43823,-3.09375 1.57813,-0.140625 q 0.20312,1.109375 0.76562,1.609375 0.5625,0.5 1.45313,0.5 0.75,0 1.3125,-0.34375 0.57812,-0.34375 0.9375,-0.921875 0.375,-0.578125 0.60937,-1.5625 0.25,-0.984375 0.25,-2 0,-0.109375 0,-0.328125 -0.5,0.78125 -1.35937,1.265625 -0.84375,0.484375 -1.82813,0.484375 -1.67187,0 -2.8125,-1.203125 -1.14062,-1.203125 -1.14062,-3.171875 0,-2.03125 1.1875,-3.265625 1.20312,-1.234375 3,-1.234375 1.3125,0 2.39062,0.703125 1.07813,0.703125 1.64063,2 0.5625,1.296875 0.5625,3.75 0,2.5625 -0.5625,4.078125 -0.5625,1.515625 -1.65625,2.3125 -1.09375,0.796875 -2.57813,0.796875 -1.5625,0 -2.5625,-0.875 -0.98437,-0.875 -1.1875,-2.453125 z m 6.71875,-5.890625 q 0,-1.40625 -0.75,-2.234375 -0.75,-0.828125 -1.8125,-0.828125 -1.09375,0 -1.90625,0.890625 -0.8125,0.890625 -0.8125,2.3125 0,1.28125 0.76563,2.078125 0.78125,0.796875 1.90625,0.796875 1.14062,0 1.875,-0.796875 0.73437,-0.796875 0.73437,-2.21875 z m 12.03192,7.40625 v 1.578125 h -8.82812 q -0.0156,-0.59375 0.1875,-1.140625 0.34375,-0.90625 1.07812,-1.78125 0.75,-0.875 2.15625,-2.015625 2.17188,-1.78125 2.9375,-2.828125 0.76563,-1.046875 0.76563,-1.96875 0,-0.984375 -0.70313,-1.640625 -0.6875,-0.671875 -1.8125,-0.671875 -1.1875,0 -1.90625,0.71875 -0.70312,0.703125 -0.70312,1.953125 l -1.6875,-0.171875 q 0.17187,-1.890625 1.29687,-2.875 1.14063,-0.984375 3.03125,-0.984375 1.92188,0 3.04688,1.0625 1.125,1.0625 1.125,2.640625 0,0.796875 -0.32813,1.578125 -0.32812,0.78125 -1.09375,1.640625 -0.75,0.84375 -2.53125,2.34375 -1.46875,1.234375 -1.89062,1.6875 -0.42188,0.4375 -0.6875,0.875 z m 2.67261,1.578125 v -1.875 h 1.875 v 1.875 z m 10.44891,0 H 658.7885 V 52.049549 q -0.59375,0.5625 -1.5625,1.140625 -0.95313,0.5625 -1.71875,0.84375 v -1.59375 q 1.375,-0.640625 2.40625,-1.5625 1.03125,-0.921875 1.45312,-1.78125 h 1.0625 z m 12.70386,-10.078125 -1.625,0.125 q -0.21875,-0.96875 -0.625,-1.40625 -0.65625,-0.703125 -1.64062,-0.703125 -0.78125,0 -1.375,0.4375 -0.76563,0.5625 -1.21875,1.65625 -0.45313,1.078125 -0.46875,3.078125 0.59375,-0.890625 1.45312,-1.328125 0.85938,-0.4375 1.79688,-0.4375 1.64062,0 2.78125,1.203125 1.15625,1.203125 1.15625,3.109375 0,1.265625 -0.54688,2.34375 -0.53125,1.078125 -1.48437,1.65625 -0.9375,0.578125 -2.14063,0.578125 -2.0625,0 -3.35937,-1.5 -1.28125,-1.515625 -1.28125,-4.984375 0,-3.875 1.42187,-5.625 1.25,-1.53125 3.375,-1.53125 1.5625,0 2.5625,0.890625 1.01563,0.875 1.21875,2.4375 z m -6.6875,5.75 q 0,0.84375 0.35938,1.625 0.35937,0.765625 1,1.171875 0.64062,0.40625 1.35937,0.40625 1.03125,0 1.78125,-0.828125 0.75,-0.84375 0.75,-2.28125 0,-1.390625 -0.73437,-2.1875 -0.73438,-0.796875 -1.85938,-0.796875 -1.10937,0 -1.89062,0.796875 -0.76563,0.796875 -0.76563,2.09375 z m 11.07886,-2.90625 q -1.01563,-0.375 -1.51563,-1.0625 -0.48437,-0.703125 -0.48437,-1.671875 0,-1.453125 1.04687,-2.4375 1.04688,-1 2.78125,-1 1.75,0 2.8125,1.015625 1.07813,1.015625 1.07813,2.46875 0,0.9375 -0.5,1.625 -0.48438,0.6875 -1.46875,1.0625 1.21875,0.390625 1.85937,1.28125 0.65625,0.890625 0.65625,2.140625 0,1.703125 -1.21875,2.875 -1.21875,1.171875 -3.1875,1.171875 -1.98437,0 -3.20312,-1.171875 -1.20313,-1.171875 -1.20313,-2.921875 0,-1.3125 0.65625,-2.1875 0.67188,-0.875 1.89063,-1.1875 z m -0.32813,-2.78125 q 0,0.9375 0.60938,1.546875 0.60937,0.59375 1.59375,0.59375 0.9375,0 1.54687,-0.59375 0.60938,-0.59375 0.60938,-1.453125 0,-0.90625 -0.625,-1.515625 -0.625,-0.625 -1.5625,-0.625 -0.9375,0 -1.5625,0.609375 -0.60938,0.59375 -0.60938,1.4375 z m -0.53125,6.15625 q 0,0.703125 0.32813,1.359375 0.34375,0.65625 1,1.015625 0.65625,0.359375 1.40625,0.359375 1.17187,0 1.9375,-0.75 0.76562,-0.75 0.76562,-1.921875 0,-1.1875 -0.79687,-1.953125 -0.78125,-0.78125 -1.95313,-0.78125 -1.15625,0 -1.92187,0.765625 -0.76563,0.765625 -0.76563,1.90625 z m 9.62574,3.859375 v -1.875 h 1.875 v 1.875 z m 4.38641,-11.609375 v -1.578125 h 8.64062 v 1.28125 q -1.28125,1.359375 -2.53125,3.609375 -1.25,2.25 -1.9375,4.625 -0.48437,1.671875 -0.625,3.671875 h -1.6875 q 0.0312,-1.578125 0.625,-3.8125 0.59375,-2.234375 1.6875,-4.296875 1.10938,-2.078125 2.35938,-3.5 z m 10.26636,5.015625 q 0,-2.359375 0.48437,-3.796875 0.48438,-1.453125 1.4375,-2.234375 0.96875,-0.78125 2.42188,-0.78125 1.07812,0 1.89062,0.4375 0.8125,0.421875 1.32813,1.25 0.53125,0.8125 0.82812,1.984375 0.3125,1.15625 0.3125,3.140625 0,2.359375 -0.48437,3.8125 -0.48438,1.4375 -1.45313,2.234375 -0.95312,0.78125 -2.42187,0.78125 -1.92188,0 -3.03125,-1.390625 -1.3125,-1.671875 -1.3125,-5.4375 z m 1.67187,0 q 0,3.296875 0.76563,4.390625 0.78125,1.078125 1.90625,1.078125 1.14062,0 1.90625,-1.09375 0.76562,-1.09375 0.76562,-4.375 0,-3.296875 -0.76562,-4.375 -0.76563,-1.078125 -1.92188,-1.078125 -1.125,0 -1.79687,0.953125 -0.85938,1.21875 -0.85938,4.5 z m 9.61005,6.59375 v -1.875 h 1.875 v 1.875 z m 10.44897,0 h -1.64062 V 52.049549 q -0.59375,0.5625 -1.5625,1.140625 -0.95313,0.5625 -1.71875,0.84375 v -1.59375 q 1.375,-0.640625 2.40625,-1.5625 1.03125,-0.921875 1.45312,-1.78125 h 1.0625 z m 4.2038,-3.53125 1.64062,-0.21875 q 0.28125,1.40625 0.95313,2.015625 0.6875,0.609375 1.65625,0.609375 1.15625,0 1.95312,-0.796875 0.79688,-0.796875 0.79688,-1.984375 0,-1.125 -0.73438,-1.859375 -0.73437,-0.734375 -1.875,-0.734375 -0.46875,0 -1.15625,0.171875 l 0.1875,-1.4375 q 0.15625,0.01563 0.26563,0.01563 1.04687,0 1.875,-0.546875 0.84375,-0.546875 0.84375,-1.671875 0,-0.90625 -0.60938,-1.5 -0.60937,-0.59375 -1.57812,-0.59375 -0.95313,0 -1.59375,0.609375 -0.64063,0.59375 -0.8125,1.796875 l -1.64063,-0.296875 q 0.29688,-1.640625 1.35938,-2.546875 1.0625,-0.90625 2.65625,-0.90625 1.09375,0 2,0.46875 0.92187,0.46875 1.40625,1.28125 0.5,0.8125 0.5,1.71875 0,0.859375 -0.46875,1.578125 -0.46875,0.703125 -1.375,1.125 1.1875,0.28125 1.84375,1.140625 0.65625,0.859375 0.65625,2.15625 0,1.734375 -1.28125,2.953125 -1.26563,1.21875 -3.21875,1.21875 -1.76563,0 -2.92188,-1.046875 -1.15625,-1.046875 -1.32812,-2.71875 z m 10.37573,-3.0625 q 0,-2.359375 0.48438,-3.796875 0.48437,-1.453125 1.4375,-2.234375 0.96875,-0.78125 2.42187,-0.78125 1.07813,0 1.89063,0.4375 0.8125,0.421875 1.32812,1.25 0.53125,0.8125 0.82813,1.984375 0.3125,1.15625 0.3125,3.140625 0,2.359375 -0.48438,3.8125 -0.48437,1.4375 -1.45312,2.234375 -0.95313,0.78125 -2.42188,0.78125 -1.92187,0 -3.03125,-1.390625 -1.3125,-1.671875 -1.3125,-5.4375 z m 1.67188,0 q 0,3.296875 0.76562,4.390625 0.78125,1.078125 1.90625,1.078125 1.14063,0 1.90625,-1.09375 0.76563,-1.09375 0.76563,-4.375 0,-3.296875 -0.76563,-4.375 -0.76562,-1.078125 -1.92187,-1.078125 -1.125,0 -1.79688,0.953125 -0.85937,1.21875 -0.85937,4.5 z"
       fill-rule="nonzero"
       id="path63" />
    <path
       fill="#cfe2f3"
       d="m 77.81538,12.047338 h 148.94489 v 65.07086 H 77.81538 Z"
       fill-rule="evenodd"
       id="path65" />
    <path
       stroke="#000000"
       stroke-width="1"
       stroke-linejoin="round"
       stroke-linecap="butt"
       d="m 77.81538,12.047338 h 148.94489 v 65.07086 H 77.81538 Z"
       fill-rule="evenodd"
       id="path67" />
    <path
       fill="#000000"
       d="m 127.37853,40.50277 5.12499,-13.359377 h 1.90625 l 5.46875,13.359377 h -2.01562 l -1.54688,-4.046875 h -5.59375 l -1.46875,4.046875 z m 3.85937,-5.484375 h 4.53125 l -1.40625,-3.703127 q -0.625,-1.6875 -0.9375,-2.765625 -0.26563,1.28125 -0.71875,2.546875 z m 18.81857,-7.875002 h 1.76563 v 7.718752 q 0,2.015625 -0.45313,3.203125 -0.45312,1.1875 -1.64062,1.9375 -1.1875,0.734375 -3.125,0.734375 -1.875,0 -3.07813,-0.640625 -1.1875,-0.65625 -1.70312,-1.875 -0.5,-1.234375 -0.5,-3.359375 v -7.718752 h 1.76562 v 7.718752 q 0,1.734375 0.3125,2.5625 0.32813,0.8125 1.10938,1.265625 0.79687,0.453125 1.9375,0.453125 1.95312,0 2.78125,-0.890625 0.82812,-0.890625 0.82812,-3.390625 z m 4.11357,9.062502 1.65625,-0.140625 q 0.125,1 0.54688,1.640625 0.4375,0.640625 1.34375,1.046875 0.92187,0.390625 2.0625,0.390625 1,0 1.78125,-0.296875 0.78125,-0.296875 1.15625,-0.8125 0.375,-0.53125 0.375,-1.15625 0,-0.625 -0.375,-1.09375 -0.35938,-0.46875 -1.1875,-0.796875 -0.54688,-0.203125 -2.39063,-0.640625 -1.82812,-0.453125 -2.5625,-0.84375 -0.96875,-0.5 -1.4375,-1.234375 -0.46875,-0.750002 -0.46875,-1.671877 0,-1 0.57813,-1.875 0.57812,-0.890625 1.67187,-1.34375 1.10938,-0.453125 2.45313,-0.453125 1.48437,0 2.60937,0.484375 1.14063,0.46875 1.75,1.40625 0.60938,0.921875 0.65625,2.09375 l -1.6875,0.125 q -0.14062,-1.265625 -0.9375,-1.90625 -0.78125,-0.65625 -2.3125,-0.65625 -1.60937,0 -2.34375,0.59375 -0.73437,0.59375 -0.73437,1.421875 0,0.71875 0.53125,1.171875 0.5,0.468752 2.65625,0.968752 2.15625,0.484375 2.95312,0.84375 1.17188,0.53125 1.71875,1.359375 0.5625,0.828125 0.5625,1.90625 0,1.0625 -0.60937,2.015625 -0.60938,0.9375 -1.75,1.46875 -1.14063,0.515625 -2.57813,0.515625 -1.8125,0 -3.04687,-0.53125 -1.21875,-0.53125 -1.92188,-1.59375 -0.6875,-1.0625 -0.71875,-2.40625 z m 13.13107,4.296875 V 27.143393 h 9.01563 v 1.578125 h -7.25 v 4.140627 h 6.26562 v 1.578125 h -6.26562 v 6.0625 z"
       fill-rule="nonzero"
       id="path69" />
    <path
       fill="#000000"
       d="M 94.39954,62.502766 H 92.758915 V 52.049641 q -0.59375,0.5625 -1.5625,1.140625 -0.953125,0.5625 -1.71875,0.84375 v -1.59375 q 1.375,-0.640625 2.40625,-1.5625 1.03125,-0.921875 1.453125,-1.78125 h 1.0625 z m 4.438217,-3.09375 1.578123,-0.140625 q 0.20313,1.109375 0.76563,1.609375 0.5625,0.5 1.45312,0.5 0.75,0 1.3125,-0.34375 0.57813,-0.34375 0.9375,-0.921875 0.375,-0.578125 0.60938,-1.5625 0.25,-0.984375 0.25,-2 0,-0.109375 0,-0.328125 -0.5,0.78125 -1.35938,1.265625 -0.84375,0.484375 -1.82812,0.484375 -1.67188,0 -2.812503,-1.203125 -1.140625,-1.203125 -1.140625,-3.171875 0,-2.03125 1.1875,-3.265625 1.203128,-1.234375 2.999998,-1.234375 1.3125,0 2.39063,0.703125 1.07812,0.703125 1.64062,2 0.5625,1.296875 0.5625,3.75 0,2.5625 -0.5625,4.078125 -0.5625,1.515625 -1.65625,2.3125 -1.09375,0.796875 -2.57812,0.796875 -1.5625,0 -2.5625,-0.875 -0.984378,-0.875 -1.187503,-2.453125 z m 6.718753,-5.890625 q 0,-1.40625 -0.75,-2.234375 -0.75,-0.828125 -1.8125,-0.828125 -1.09375,0 -1.90625,0.890625 -0.8125,0.890625 -0.8125,2.3125 0,1.28125 0.76562,2.078125 0.78125,0.796875 1.90625,0.796875 1.14063,0 1.875,-0.796875 0.73438,-0.796875 0.73438,-2.21875 z m 12.03196,7.40625 v 1.578125 h -8.82812 q -0.0156,-0.59375 0.1875,-1.140625 0.34375,-0.90625 1.07812,-1.78125 0.75,-0.875 2.15625,-2.015625 2.17188,-1.78125 2.9375,-2.828125 0.76563,-1.046875 0.76563,-1.96875 0,-0.984375 -0.70313,-1.640625 -0.6875,-0.671875 -1.8125,-0.671875 -1.1875,0 -1.90625,0.71875 -0.70312,0.703125 -0.70312,1.953125 l -1.6875,-0.171875 q 0.17187,-1.890625 1.29687,-2.875 1.14063,-0.984375 3.03125,-0.984375 1.92188,0 3.04688,1.0625 1.125,1.0625 1.125,2.640625 0,0.796875 -0.32813,1.578125 -0.32812,0.78125 -1.09375,1.640625 -0.75,0.84375 -2.53125,2.34375 -1.46875,1.234375 -1.89062,1.6875 -0.42188,0.4375 -0.6875,0.875 z m 2.6726,1.578125 v -1.875 h 1.875 v 1.875 z m 10.44892,0 h -1.64063 V 52.049641 q -0.59375,0.5625 -1.56249,1.140625 -0.95313,0.5625 -1.71875,0.84375 v -1.59375 q 1.375,-0.640625 2.40624,-1.5625 1.03125,-0.921875 1.45313,-1.78125 h 1.0625 z m 12.70384,-10.078125 -1.625,0.125 q -0.21875,-0.96875 -0.625,-1.40625 -0.65625,-0.703125 -1.64063,-0.703125 -0.78125,0 -1.375,0.4375 -0.76562,0.5625 -1.21875,1.65625 -0.45312,1.078125 -0.46875,3.078125 0.59375,-0.890625 1.45313,-1.328125 0.85937,-0.4375 1.79687,-0.4375 1.64063,0 2.78125,1.203125 1.15625,1.203125 1.15625,3.109375 0,1.265625 -0.54687,2.34375 -0.53125,1.078125 -1.48438,1.65625 -0.9375,0.578125 -2.14062,0.578125 -2.0625,0 -3.35938,-1.5 -1.28125,-1.515625 -1.28125,-4.984375 0,-3.875 1.42188,-5.625 1.25,-1.53125 3.375,-1.53125 1.5625,0 2.5625,0.890625 1.01562,0.875 1.21875,2.4375 z m -6.6875,5.75 q 0,0.84375 0.35937,1.625 0.35938,0.765625 1,1.171875 0.64063,0.40625 1.35938,0.40625 1.03125,0 1.78125,-0.828125 0.75,-0.84375 0.75,-2.28125 0,-1.390625 -0.73438,-2.1875 -0.73437,-0.796875 -1.85937,-0.796875 -1.10938,0 -1.89063,0.796875 -0.76562,0.796875 -0.76562,2.09375 z m 11.07884,-2.90625 q -1.01562,-0.375 -1.51562,-1.0625 -0.48438,-0.703125 -0.48438,-1.671875 0,-1.453125 1.04688,-2.4375 1.04687,-1 2.78125,-1 1.75,0 2.8125,1.015625 1.07812,1.015625 1.07812,2.46875 0,0.9375 -0.5,1.625 -0.48437,0.6875 -1.46875,1.0625 1.21875,0.390625 1.85938,1.28125 0.65625,0.890625 0.65625,2.140625 0,1.703125 -1.21875,2.875 -1.21875,1.171875 -3.1875,1.171875 -1.98438,0 -3.20313,-1.171875 -1.20312,-1.171875 -1.20312,-2.921875 0,-1.3125 0.65625,-2.1875 0.67187,-0.875 1.89062,-1.1875 z m -0.32812,-2.78125 q 0,0.9375 0.60937,1.546875 0.60938,0.59375 1.59375,0.59375 0.9375,0 1.54688,-0.59375 0.60937,-0.59375 0.60937,-1.453125 0,-0.90625 -0.625,-1.515625 -0.625,-0.625 -1.5625,-0.625 -0.9375,0 -1.5625,0.609375 -0.60937,0.59375 -0.60937,1.4375 z m -0.53125,6.15625 q 0,0.703125 0.32812,1.359375 0.34375,0.65625 1,1.015625 0.65625,0.359375 1.40625,0.359375 1.17188,0 1.9375,-0.75 0.76563,-0.75 0.76563,-1.921875 0,-1.1875 -0.79688,-1.953125 -0.78125,-0.78125 -1.95312,-0.78125 -1.15625,0 -1.92188,0.765625 -0.76562,0.765625 -0.76562,1.90625 z m 9.62571,3.859375 v -1.875 h 1.875 v 1.875 z m 4.38643,-11.609375 v -1.578125 h 8.64063 v 1.28125 q -1.28125,1.359375 -2.53125,3.609375 -1.25,2.25 -1.9375,4.625 -0.48438,1.671875 -0.625,3.671875 h -1.6875 q 0.0312,-1.578125 0.625,-3.8125 0.59375,-2.234375 1.6875,-4.296875 1.10937,-2.078125 2.35937,-3.5 z m 10.26634,5.015625 q 0,-2.359375 0.48438,-3.796875 0.48437,-1.453125 1.4375,-2.234375 0.96875,-0.78125 2.42187,-0.78125 1.07813,0 1.89063,0.4375 0.8125,0.421875 1.32812,1.25 0.53125,0.8125 0.82813,1.984375 0.3125,1.15625 0.3125,3.140625 0,2.359375 -0.48438,3.8125 -0.48437,1.4375 -1.45312,2.234375 -0.95313,0.78125 -2.42188,0.78125 -1.92187,0 -3.03125,-1.390625 -1.3125,-1.671875 -1.3125,-5.4375 z m 1.67188,0 q 0,3.296875 0.76562,4.390625 0.78125,1.078125 1.90625,1.078125 1.14063,0 1.90625,-1.09375 0.76563,-1.09375 0.76563,-4.375 0,-3.296875 -0.76563,-4.375 -0.76562,-1.078125 -1.92187,-1.078125 -1.125,0 -1.79688,0.953125 -0.85937,1.21875 -0.85937,4.5 z m 9.61009,6.59375 v -1.875 h 1.875 v 1.875 z m 10.44893,0 h -1.64062 V 52.049641 q -0.59375,0.5625 -1.5625,1.140625 -0.95313,0.5625 -1.71875,0.84375 v -1.59375 q 1.375,-0.640625 2.40625,-1.5625 1.03125,-0.921875 1.45312,-1.78125 h 1.0625 z m 4.20384,-3.53125 1.64063,-0.21875 q 0.28125,1.40625 0.95312,2.015625 0.6875,0.609375 1.65625,0.609375 1.15625,0 1.95313,-0.796875 0.79687,-0.796875 0.79687,-1.984375 0,-1.125 -0.73437,-1.859375 -0.73438,-0.734375 -1.875,-0.734375 -0.46875,0 -1.15625,0.171875 l 0.1875,-1.4375 q 0.15625,0.01563 0.26562,0.01563 1.04688,0 1.875,-0.546875 0.84375,-0.546875 0.84375,-1.671875 0,-0.90625 -0.60937,-1.5 -0.60938,-0.59375 -1.57813,-0.59375 -0.95312,0 -1.59375,0.609375 -0.64062,0.59375 -0.8125,1.796875 l -1.64062,-0.296875 q 0.29687,-1.640625 1.35937,-2.546875 1.0625,-0.90625 2.65625,-0.90625 1.09375,0 2,0.46875 0.92188,0.46875 1.40625,1.28125 0.5,0.8125 0.5,1.71875 0,0.859375 -0.46875,1.578125 -0.46875,0.703125 -1.375,1.125 1.1875,0.28125 1.84375,1.140625 0.65625,0.859375 0.65625,2.15625 0,1.734375 -1.28125,2.953125 -1.26562,1.21875 -3.21875,1.21875 -1.76562,0 -2.92187,-1.046875 -1.15625,-1.046875 -1.32813,-2.71875 z m 12.89134,-3.703125 q -1.01562,-0.375 -1.51562,-1.0625 -0.48438,-0.703125 -0.48438,-1.671875 0,-1.453125 1.04688,-2.4375 1.04687,-1 2.78125,-1 1.75,0 2.8125,1.015625 1.07812,1.015625 1.07812,2.46875 0,0.9375 -0.5,1.625 -0.48437,0.6875 -1.46875,1.0625 1.21875,0.390625 1.85938,1.28125 0.65625,0.890625 0.65625,2.140625 0,1.703125 -1.21875,2.875 -1.21875,1.171875 -3.1875,1.171875 -1.98438,0 -3.20313,-1.171875 -1.20312,-1.171875 -1.20312,-2.921875 0,-1.3125 0.65625,-2.1875 0.67187,-0.875 1.89062,-1.1875 z m -0.32812,-2.78125 q 0,0.9375 0.60937,1.546875 0.60938,0.59375 1.59375,0.59375 0.9375,0 1.54688,-0.59375 0.60937,-0.59375 0.60937,-1.453125 0,-0.90625 -0.625,-1.515625 -0.625,-0.625 -1.5625,-0.625 -0.9375,0 -1.5625,0.609375 -0.60937,0.59375 -0.60937,1.4375 z m -0.53125,6.15625 q 0,0.703125 0.32812,1.359375 0.34375,0.65625 1,1.015625 0.65625,0.359375 1.40625,0.359375 1.17188,0 1.9375,-0.75 0.76563,-0.75 0.76563,-1.921875 0,-1.1875 -0.79688,-1.953125 -0.78125,-0.78125 -1.95312,-0.78125 -1.15625,0 -1.92188,0.765625 -0.76562,0.765625 -0.76562,1.90625 z"
       fill-rule="nonzero"
       id="path71" />
    <path
       fill="#cfe2f3"
       d="m 254.38843,12.046869 h 148.94489 v 65.07087 H 254.38843 Z"
       fill-rule="evenodd"
       id="path73" />
    <path
       stroke="#000000"
       stroke-width="1"
       stroke-linejoin="round"
       stroke-linecap="butt"
       d="m 254.38843,12.046869 h 148.94489 v 65.07087 H 254.38843 Z"
       fill-rule="evenodd"
       id="path75" />
    <path
       fill="#000000"
       d="m 317.82065,27.142925 h 1.76562 v 7.71875 q 0,2.015625 -0.45312,3.203125 -0.45313,1.1875 -1.64063,1.9375 -1.1875,0.734375 -3.125,0.734375 -1.875,0 -3.07812,-0.640625 -1.1875,-0.65625 -1.70313,-1.875 -0.5,-1.234375 -0.5,-3.359375 v -7.71875 h 1.76563 v 7.71875 q 0,1.734375 0.3125,2.5625 0.32812,0.8125 1.10937,1.265625 0.79688,0.453125 1.9375,0.453125 1.95313,0 2.78125,-0.890625 0.82813,-0.890625 0.82813,-3.390625 z M 322.52796,40.5023 V 27.142925 h 4.60937 q 1.54688,0 2.375,0.203125 1.14063,0.25 1.95313,0.953125 1.0625,0.890625 1.57812,2.28125 0.53125,1.390625 0.53125,3.171875 0,1.515625 -0.35937,2.703125 -0.35938,1.171875 -0.92188,1.9375 -0.54687,0.765625 -1.20312,1.21875 -0.65625,0.4375 -1.59375,0.671875 -0.9375,0.21875 -2.14063,0.21875 z m 1.76562,-1.578125 h 2.85938 q 1.3125,0 2.0625,-0.234375 0.75,-0.25 1.20312,-0.703125 0.625,-0.625 0.96875,-1.6875 0.35938,-1.0625 0.35938,-2.578125 0,-2.09375 -0.6875,-3.21875 -0.6875,-1.125 -1.67188,-1.5 -0.70312,-0.28125 -2.28125,-0.28125 h -2.8125 z M 335.95404,40.5023 V 27.142925 h 2.65625 l 3.15625,9.453125 q 0.4375,1.328125 0.64063,1.984375 0.23437,-0.734375 0.70312,-2.140625 l 3.20313,-9.296875 h 2.375 V 40.5023 h -1.70313 V 29.330425 l -3.875,11.171875 h -1.59375 l -3.85937,-11.375 v 11.375 z"
       fill-rule="nonzero"
       id="path77" />
    <path
       fill="#000000"
       d="m 270.9726,62.502296 h -1.64063 V 52.049171 q -0.59375,0.5625 -1.5625,1.140625 -0.95312,0.5625 -1.71875,0.84375 v -1.59375 q 1.375,-0.640625 2.40625,-1.5625 1.03125,-0.921875 1.45313,-1.78125 h 1.0625 z m 4.4382,-3.09375 1.57813,-0.140625 q 0.20312,1.109375 0.76562,1.609375 0.5625,0.5 1.45313,0.5 0.75,0 1.3125,-0.34375 0.57812,-0.34375 0.9375,-0.921875 0.375,-0.578125 0.60937,-1.5625 0.25,-0.984375 0.25,-2 0,-0.109375 0,-0.328125 -0.5,0.78125 -1.35937,1.265625 -0.84375,0.484375 -1.82813,0.484375 -1.67187,0 -2.8125,-1.203125 -1.14062,-1.203125 -1.14062,-3.171875 0,-2.03125 1.1875,-3.265625 1.20312,-1.234375 3,-1.234375 1.3125,0 2.39062,0.703125 1.07813,0.703125 1.64063,2 0.5625,1.296875 0.5625,3.75 0,2.5625 -0.5625,4.078125 -0.5625,1.515625 -1.65625,2.3125 -1.09375,0.796875 -2.57813,0.796875 -1.5625,0 -2.5625,-0.875 -0.98437,-0.875 -1.1875,-2.453125 z m 6.71875,-5.890625 q 0,-1.40625 -0.75,-2.234375 -0.75,-0.828125 -1.8125,-0.828125 -1.09375,0 -1.90625,0.890625 -0.8125,0.890625 -0.8125,2.3125 0,1.28125 0.76563,2.078125 0.78125,0.796875 1.90625,0.796875 1.14062,0 1.875,-0.796875 0.73437,-0.796875 0.73437,-2.21875 z m 12.03198,7.40625 v 1.578125 h -8.82812 q -0.0156,-0.59375 0.1875,-1.140625 0.34375,-0.90625 1.07812,-1.78125 0.75,-0.875 2.15625,-2.015625 2.17188,-1.78125 2.9375,-2.828125 0.76563,-1.046875 0.76563,-1.96875 0,-0.984375 -0.70313,-1.640625 -0.6875,-0.671875 -1.8125,-0.671875 -1.1875,0 -1.90625,0.71875 -0.70312,0.703125 -0.70312,1.953125 l -1.6875,-0.171875 q 0.17187,-1.890625 1.29687,-2.875 1.14063,-0.984375 3.03125,-0.984375 1.92188,0 3.04688,1.0625 1.125,1.0625 1.125,2.640625 0,0.796875 -0.32813,1.578125 -0.32812,0.78125 -1.09375,1.640625 -0.75,0.84375 -2.53125,2.34375 -1.46875,1.234375 -1.89062,1.6875 -0.42188,0.4375 -0.6875,0.875 z m 2.67258,1.578125 v -1.875 h 1.875 v 1.875 z m 10.44894,0 h -1.64062 V 52.049171 q -0.59375,0.5625 -1.5625,1.140625 -0.95313,0.5625 -1.71875,0.84375 v -1.59375 q 1.375,-0.640625 2.40625,-1.5625 1.03125,-0.921875 1.45312,-1.78125 h 1.0625 z m 12.70383,-10.078125 -1.625,0.125 q -0.21875,-0.96875 -0.625,-1.40625 -0.65625,-0.703125 -1.64062,-0.703125 -0.78125,0 -1.375,0.4375 -0.76563,0.5625 -1.21875,1.65625 -0.45313,1.078125 -0.46875,3.078125 0.59375,-0.890625 1.45312,-1.328125 0.85938,-0.4375 1.79688,-0.4375 1.64062,0 2.78125,1.203125 1.15625,1.203125 1.15625,3.109375 0,1.265625 -0.54688,2.34375 -0.53125,1.078125 -1.48437,1.65625 -0.9375,0.578125 -2.14063,0.578125 -2.0625,0 -3.35937,-1.5 -1.28125,-1.515625 -1.28125,-4.984375 0,-3.875 1.42187,-5.625 1.25,-1.53125 3.375,-1.53125 1.5625,0 2.5625,0.890625 1.01563,0.875 1.21875,2.4375 z m -6.6875,5.75 q 0,0.84375 0.35938,1.625 0.35937,0.765625 1,1.171875 0.64062,0.40625 1.35937,0.40625 1.03125,0 1.78125,-0.828125 0.75,-0.84375 0.75,-2.28125 0,-1.390625 -0.73437,-2.1875 -0.73438,-0.796875 -1.85938,-0.796875 -1.10937,0 -1.89062,0.796875 -0.76563,0.796875 -0.76563,2.09375 z m 11.07886,-2.90625 q -1.01563,-0.375 -1.51563,-1.0625 -0.48437,-0.703125 -0.48437,-1.671875 0,-1.453125 1.04687,-2.4375 1.04688,-1 2.78125,-1 1.75,0 2.8125,1.015625 1.07813,1.015625 1.07813,2.46875 0,0.9375 -0.5,1.625 -0.48438,0.6875 -1.46875,1.0625 1.21875,0.390625 1.85937,1.28125 0.65625,0.890625 0.65625,2.140625 0,1.703125 -1.21875,2.875 -1.21875,1.171875 -3.1875,1.171875 -1.98437,0 -3.20312,-1.171875 -1.20313,-1.171875 -1.20313,-2.921875 0,-1.3125 0.65625,-2.1875 0.67188,-0.875 1.89063,-1.1875 z m -0.32813,-2.78125 q 0,0.9375 0.60938,1.546875 0.60937,0.59375 1.59375,0.59375 0.9375,0 1.54687,-0.59375 0.60938,-0.59375 0.60938,-1.453125 0,-0.90625 -0.625,-1.515625 -0.625,-0.625 -1.5625,-0.625 -0.9375,0 -1.5625,0.609375 -0.60938,0.59375 -0.60938,1.4375 z m -0.53125,6.15625 q 0,0.703125 0.32813,1.359375 0.34375,0.65625 1,1.015625 0.65625,0.359375 1.40625,0.359375 1.17187,0 1.9375,-0.75 0.76562,-0.75 0.76562,-1.921875 0,-1.1875 -0.79687,-1.953125 -0.78125,-0.78125 -1.95313,-0.78125 -1.15625,0 -1.92187,0.765625 -0.76563,0.765625 -0.76563,1.90625 z m 9.62571,3.859375 v -1.875 h 1.875 v 1.875 z m 4.38644,-11.609375 v -1.578125 h 8.64062 v 1.28125 q -1.28125,1.359375 -2.53125,3.609375 -1.25,2.25 -1.9375,4.625 -0.48437,1.671875 -0.625,3.671875 h -1.6875 q 0.0312,-1.578125 0.625,-3.8125 0.59375,-2.234375 1.6875,-4.296875 1.10938,-2.078125 2.35938,-3.5 z m 10.26633,5.015625 q 0,-2.359375 0.48437,-3.796875 0.48438,-1.453125 1.4375,-2.234375 0.96875,-0.78125 2.42188,-0.78125 1.07812,0 1.89062,0.4375 0.8125,0.421875 1.32813,1.25 0.53125,0.8125 0.82812,1.984375 0.3125,1.15625 0.3125,3.140625 0,2.359375 -0.48437,3.8125 -0.48438,1.4375 -1.45313,2.234375 -0.95312,0.78125 -2.42187,0.78125 -1.92188,0 -3.03125,-1.390625 -1.3125,-1.671875 -1.3125,-5.4375 z m 1.67187,0 q 0,3.296875 0.76563,4.390625 0.78125,1.078125 1.90625,1.078125 1.14062,0 1.90625,-1.09375 0.76562,-1.09375 0.76562,-4.375 0,-3.296875 -0.76562,-4.375 -0.76563,-1.078125 -1.92188,-1.078125 -1.125,0 -1.79687,0.953125 -0.85938,1.21875 -0.85938,4.5 z m 9.61011,6.59375 v -1.875 h 1.875 v 1.875 z m 10.44891,0 h -1.64062 V 52.049171 q -0.59375,0.5625 -1.5625,1.140625 -0.95313,0.5625 -1.71875,0.84375 v -1.59375 q 1.375,-0.640625 2.40625,-1.5625 1.03125,-0.921875 1.45312,-1.78125 h 1.0625 z m 4.20386,-3.53125 1.64063,-0.21875 q 0.28125,1.40625 0.95312,2.015625 0.6875,0.609375 1.65625,0.609375 1.15625,0 1.95313,-0.796875 0.79687,-0.796875 0.79687,-1.984375 0,-1.125 -0.73437,-1.859375 -0.73438,-0.734375 -1.875,-0.734375 -0.46875,0 -1.15625,0.171875 l 0.1875,-1.4375 q 0.15625,0.01563 0.26562,0.01563 1.04688,0 1.875,-0.546875 0.84375,-0.546875 0.84375,-1.671875 0,-0.90625 -0.60937,-1.5 -0.60938,-0.59375 -1.57813,-0.59375 -0.95312,0 -1.59375,0.609375 -0.64062,0.59375 -0.8125,1.796875 l -1.64062,-0.296875 q 0.29687,-1.640625 1.35937,-2.546875 1.0625,-0.90625 2.65625,-0.90625 1.09375,0 2,0.46875 0.92188,0.46875 1.40625,1.28125 0.5,0.8125 0.5,1.71875 0,0.859375 -0.46875,1.578125 -0.46875,0.703125 -1.375,1.125 1.1875,0.28125 1.84375,1.140625 0.65625,0.859375 0.65625,2.15625 0,1.734375 -1.28125,2.953125 -1.26562,1.21875 -3.21875,1.21875 -1.76562,0 -2.92187,-1.046875 -1.15625,-1.046875 -1.32813,-2.71875 z m 10.48508,-8.078125 v -1.578125 h 8.64062 v 1.28125 q -1.28125,1.359375 -2.53125,3.609375 -1.25,2.25 -1.9375,4.625 -0.48437,1.671875 -0.625,3.671875 h -1.6875 q 0.0312,-1.578125 0.625,-3.8125 0.59375,-2.234375 1.6875,-4.296875 1.10938,-2.078125 2.35938,-3.5 z"
       fill-rule="nonzero"
       id="path79" />
    <path
       fill="#cfe2f3"
       d="m 430.9615,12.048182 h 148.94489 v 65.07087 H 430.9615 Z"
       fill-rule="evenodd"
       id="path81" />
    <path
       stroke="#000000"
       stroke-width="1"
       stroke-linejoin="round"
       stroke-linecap="butt"
       d="m 430.9615,12.048182 h 148.94489 v 65.07087 H 430.9615 Z"
       fill-rule="evenodd"
       id="path83" />
    <path
       fill="#000000"
       d="m 495.42764,27.144238 h 1.76562 v 7.71875 q 0,2.015625 -0.45312,3.203125 -0.45313,1.1875 -1.64063,1.9375 -1.1875,0.734375 -3.125,0.734375 -1.875,0 -3.07812,-0.640625 -1.1875,-0.65625 -1.70313,-1.875 -0.5,-1.234375 -0.5,-3.359375 v -7.71875 h 1.76563 v 7.71875 q 0,1.734375 0.3125,2.5625 0.32812,0.8125 1.10937,1.265625 0.79688,0.453125 1.9375,0.453125 1.95313,0 2.78125,-0.890625 0.82813,-0.890625 0.82813,-3.390625 z m 4.70731,13.359375 V 27.144238 h 4.60937 q 1.54688,0 2.375,0.203125 1.14063,0.25 1.95313,0.953125 1.0625,0.890625 1.57812,2.28125 0.53125,1.390625 0.53125,3.171875 0,1.515625 -0.35937,2.703125 -0.35938,1.171875 -0.92188,1.9375 -0.54687,0.765625 -1.20312,1.21875 -0.65625,0.4375 -1.59375,0.671875 -0.9375,0.21875 -2.14063,0.21875 z m 1.76562,-1.578125 h 2.85938 q 1.3125,0 2.0625,-0.234375 0.75,-0.25 1.20312,-0.703125 0.625,-0.625 0.96875,-1.6875 0.35938,-1.0625 0.35938,-2.578125 0,-2.09375 -0.6875,-3.21875 -0.6875,-1.125 -1.67188,-1.5 -0.70312,-0.28125 -2.28125,-0.28125 h -2.8125 z m 11.73859,1.578125 V 27.144238 h 5.92187 q 1.78125,0 2.70313,0.359375 0.9375,0.359375 1.48437,1.28125 0.5625,0.90625 0.5625,2.015625 0,1.40625 -0.92187,2.390625 -0.92188,0.96875 -2.84375,1.234375 0.70312,0.34375 1.07812,0.671875 0.76563,0.703125 1.45313,1.765625 l 2.32812,3.640625 h -2.21875 l -1.76562,-2.78125 q -0.78125,-1.203125 -1.28125,-1.828125 -0.5,-0.640625 -0.90625,-0.890625 -0.39063,-0.265625 -0.79688,-0.359375 -0.29687,-0.07813 -0.98437,-0.07813 h -2.04688 v 5.9375 z m 1.76562,-7.453125 h 3.79688 q 1.21875,0 1.89062,-0.25 0.6875,-0.265625 1.04688,-0.8125 0.35937,-0.546875 0.35937,-1.1875 0,-0.953125 -0.6875,-1.5625 -0.6875,-0.609375 -2.1875,-0.609375 h -4.21875 z"
       fill-rule="nonzero"
       id="path85" />
    <path
       fill="#000000"
       d="m 447.54565,62.50361 h -1.64062 V 52.050485 q -0.59375,0.5625 -1.5625,1.140625 -0.95313,0.5625 -1.71875,0.84375 v -1.59375 q 1.375,-0.640625 2.40625,-1.5625 1.03125,-0.921875 1.45312,-1.78125 h 1.0625 z m 4.4382,-3.09375 1.57813,-0.140625 q 0.20312,1.109375 0.76562,1.609375 0.5625,0.5 1.45313,0.5 0.75,0 1.3125,-0.34375 0.57812,-0.34375 0.9375,-0.921875 0.375,-0.578125 0.60937,-1.5625 0.25,-0.984375 0.25,-2 0,-0.109375 0,-0.328125 -0.5,0.78125 -1.35937,1.265625 -0.84375,0.484375 -1.82813,0.484375 -1.67187,0 -2.8125,-1.203125 -1.14062,-1.203125 -1.14062,-3.171875 0,-2.03125 1.1875,-3.265625 1.20312,-1.234375 3,-1.234375 1.3125,0 2.39062,0.703125 1.07813,0.703125 1.64063,2 0.5625,1.296875 0.5625,3.75 0,2.5625 -0.5625,4.078125 -0.5625,1.515625 -1.65625,2.3125 -1.09375,0.796875 -2.57813,0.796875 -1.5625,0 -2.5625,-0.875 -0.98437,-0.875 -1.1875,-2.453125 z m 6.71875,-5.890625 q 0,-1.40625 -0.75,-2.234375 -0.75,-0.828125 -1.8125,-0.828125 -1.09375,0 -1.90625,0.890625 -0.8125,0.890625 -0.8125,2.3125 0,1.28125 0.76563,2.078125 0.78125,0.796875 1.90625,0.796875 1.14062,0 1.875,-0.796875 0.73437,-0.796875 0.73437,-2.21875 z m 12.03198,7.40625 v 1.578125 h -8.82812 q -0.0156,-0.59375 0.1875,-1.140625 0.34375,-0.90625 1.07812,-1.78125 0.75,-0.875 2.15625,-2.015625 2.17188,-1.78125 2.9375,-2.828125 0.76563,-1.046875 0.76563,-1.96875 0,-0.984375 -0.70313,-1.640625 -0.6875,-0.671875 -1.8125,-0.671875 -1.1875,0 -1.90625,0.71875 -0.70312,0.703125 -0.70312,1.953125 l -1.6875,-0.171875 q 0.17187,-1.890625 1.29687,-2.875 1.14063,-0.984375 3.03125,-0.984375 1.92188,0 3.04688,1.0625 1.125,1.0625 1.125,2.640625 0,0.796875 -0.32813,1.578125 -0.32812,0.78125 -1.09375,1.640625 -0.75,0.84375 -2.53125,2.34375 -1.46875,1.234375 -1.89062,1.6875 -0.42188,0.4375 -0.6875,0.875 z m 2.67258,1.578125 v -1.875 h 1.875 v 1.875 z m 10.44895,0 h -1.64063 V 52.050485 q -0.59375,0.5625 -1.5625,1.140625 -0.95312,0.5625 -1.71875,0.84375 v -1.59375 q 1.375,-0.640625 2.40625,-1.5625 1.03125,-0.921875 1.45313,-1.78125 h 1.0625 z m 12.70382,-10.078125 -1.625,0.125 q -0.21875,-0.96875 -0.625,-1.40625 -0.65625,-0.703125 -1.64062,-0.703125 -0.78125,0 -1.375,0.4375 -0.76563,0.5625 -1.21875,1.65625 -0.45313,1.078125 -0.46875,3.078125 0.59375,-0.890625 1.45312,-1.328125 0.85938,-0.4375 1.79688,-0.4375 1.64062,0 2.78125,1.203125 1.15625,1.203125 1.15625,3.109375 0,1.265625 -0.54688,2.34375 -0.53125,1.078125 -1.48437,1.65625 -0.9375,0.578125 -2.14063,0.578125 -2.0625,0 -3.35937,-1.5 -1.28125,-1.515625 -1.28125,-4.984375 0,-3.875 1.42187,-5.625 1.25,-1.53125 3.375,-1.53125 1.5625,0 2.5625,0.890625 1.01563,0.875 1.21875,2.4375 z m -6.6875,5.75 q 0,0.84375 0.35938,1.625 0.35937,0.765625 1,1.171875 0.64062,0.40625 1.35937,0.40625 1.03125,0 1.78125,-0.828125 0.75,-0.84375 0.75,-2.28125 0,-1.390625 -0.73437,-2.1875 -0.73438,-0.796875 -1.85938,-0.796875 -1.10937,0 -1.89062,0.796875 -0.76563,0.796875 -0.76563,2.09375 z m 11.07886,-2.90625 q -1.01563,-0.375 -1.51563,-1.0625 -0.48437,-0.703125 -0.48437,-1.671875 0,-1.453125 1.04687,-2.4375 1.04688,-1 2.78125,-1 1.75,0 2.8125,1.015625 1.07813,1.015625 1.07813,2.46875 0,0.9375 -0.5,1.625 -0.48438,0.6875 -1.46875,1.0625 1.21875,0.390625 1.85937,1.28125 0.65625,0.890625 0.65625,2.140625 0,1.703125 -1.21875,2.875 -1.21875,1.171875 -3.1875,1.171875 -1.98437,0 -3.20312,-1.171875 -1.20313,-1.171875 -1.20313,-2.921875 0,-1.3125 0.65625,-2.1875 0.67188,-0.875 1.89063,-1.1875 z m -0.32813,-2.78125 q 0,0.9375 0.60938,1.546875 0.60937,0.59375 1.59375,0.59375 0.9375,0 1.54687,-0.59375 0.60938,-0.59375 0.60938,-1.453125 0,-0.90625 -0.625,-1.515625 -0.625,-0.625 -1.5625,-0.625 -0.9375,0 -1.5625,0.609375 -0.60938,0.59375 -0.60938,1.4375 z m -0.53125,6.15625 q 0,0.703125 0.32813,1.359375 0.34375,0.65625 1,1.015625 0.65625,0.359375 1.40625,0.359375 1.17187,0 1.9375,-0.75 0.76562,-0.75 0.76562,-1.921875 0,-1.1875 -0.79687,-1.953125 -0.78125,-0.78125 -1.95313,-0.78125 -1.15625,0 -1.92187,0.765625 -0.76563,0.765625 -0.76563,1.90625 z m 9.62571,3.859375 v -1.875 h 1.875 v 1.875 z m 4.38644,-11.609375 V 49.31611 h 8.64062 v 1.28125 q -1.28125,1.359375 -2.53125,3.609375 -1.25,2.25 -1.9375,4.625 -0.48437,1.671875 -0.625,3.671875 h -1.6875 q 0.0312,-1.578125 0.625,-3.8125 0.59375,-2.234375 1.6875,-4.296875 1.10938,-2.078125 2.35938,-3.5 z m 10.26636,5.015625 q 0,-2.359375 0.48437,-3.796875 0.48438,-1.453125 1.4375,-2.234375 0.96875,-0.78125 2.42188,-0.78125 1.07812,0 1.89062,0.4375 0.8125,0.421875 1.32813,1.25 0.53125,0.8125 0.82812,1.984375 0.3125,1.15625 0.3125,3.140625 0,2.359375 -0.48437,3.8125 -0.48438,1.4375 -1.45313,2.234375 -0.95312,0.78125 -2.42187,0.78125 -1.92188,0 -3.03125,-1.390625 -1.3125,-1.671875 -1.3125,-5.4375 z m 1.67187,0 q 0,3.296875 0.76563,4.390625 0.78125,1.078125 1.90625,1.078125 1.14062,0 1.90625,-1.09375 0.76562,-1.09375 0.76562,-4.375 0,-3.296875 -0.76562,-4.375 -0.76563,-1.078125 -1.92188,-1.078125 -1.125,0 -1.79687,0.953125 -0.85938,1.21875 -0.85938,4.5 z m 9.61005,6.59375 v -1.875 h 1.875 v 1.875 z m 10.44897,0 h -1.64062 V 52.050485 q -0.59375,0.5625 -1.5625,1.140625 -0.95313,0.5625 -1.71875,0.84375 v -1.59375 q 1.375,-0.640625 2.40625,-1.5625 1.03125,-0.921875 1.45312,-1.78125 h 1.0625 z m 4.2038,-3.53125 1.64062,-0.21875 q 0.28125,1.40625 0.95313,2.015625 0.6875,0.609375 1.65625,0.609375 1.15625,0 1.95312,-0.796875 0.79688,-0.796875 0.79688,-1.984375 0,-1.125 -0.73438,-1.859375 -0.73437,-0.734375 -1.875,-0.734375 -0.46875,0 -1.15625,0.171875 l 0.1875,-1.4375 q 0.15625,0.01563 0.26563,0.01563 1.04687,0 1.875,-0.546875 0.84375,-0.546875 0.84375,-1.671875 0,-0.90625 -0.60938,-1.5 -0.60937,-0.59375 -1.57812,-0.59375 -0.95313,0 -1.59375,0.609375 -0.64063,0.59375 -0.8125,1.796875 l -1.64063,-0.296875 q 0.29688,-1.640625 1.35938,-2.546875 1.0625,-0.90625 2.65625,-0.90625 1.09375,0 2,0.46875 0.92187,0.46875 1.40625,1.28125 0.5,0.8125 0.5,1.71875 0,0.859375 -0.46875,1.578125 -0.46875,0.703125 -1.375,1.125 1.1875,0.28125 1.84375,1.140625 0.65625,0.859375 0.65625,2.15625 0,1.734375 -1.28125,2.953125 -1.26563,1.21875 -3.21875,1.21875 -1.76563,0 -2.92188,-1.046875 -1.15625,-1.046875 -1.32812,-2.71875 z m 18.87573,-6.546875 -1.625,0.125 q -0.21875,-0.96875 -0.625,-1.40625 -0.65625,-0.703125 -1.64062,-0.703125 -0.78125,0 -1.375,0.4375 -0.76563,0.5625 -1.21875,1.65625 -0.45313,1.078125 -0.46875,3.078125 0.59375,-0.890625 1.45312,-1.328125 0.85938,-0.4375 1.79688,-0.4375 1.64062,0 2.78125,1.203125 1.15625,1.203125 1.15625,3.109375 0,1.265625 -0.54688,2.34375 -0.53125,1.078125 -1.48437,1.65625 -0.9375,0.578125 -2.14063,0.578125 -2.0625,0 -3.35937,-1.5 -1.28125,-1.515625 -1.28125,-4.984375 0,-3.875 1.42187,-5.625 1.25,-1.53125 3.375,-1.53125 1.5625,0 2.5625,0.890625 1.01563,0.875 1.21875,2.4375 z m -6.6875,5.75 q 0,0.84375 0.35938,1.625 0.35937,0.765625 1,1.171875 0.64062,0.40625 1.35937,0.40625 1.03125,0 1.78125,-0.828125 0.75,-0.84375 0.75,-2.28125 0,-1.390625 -0.73437,-2.1875 -0.73438,-0.796875 -1.85938,-0.796875 -1.10937,0 -1.89062,0.796875 -0.76563,0.796875 -0.76563,2.09375 z"
       fill-rule="nonzero"
       id="path87" />
    <path
       fill="#000000"
       fill-opacity="0"
       d="m 152.28781,77.1182 v 23.68504"
       fill-rule="evenodd"
       id="path89" />
    <path
       stroke="#000000"
       stroke-width="2"
       stroke-linejoin="round"
       stroke-linecap="butt"
       d="m 152.28781,77.1182 v 23.68504"
       fill-rule="evenodd"
       id="path91" />
    <path
       fill="#000000"
       fill-opacity="0"
       d="m 328.86,77.1182 v 23.68504"
       fill-rule="evenodd"
       id="path93" />
    <path
       stroke="#000000"
       stroke-width="2"
       stroke-linejoin="round"
       stroke-linecap="butt"
       d="m 328.86,77.1182 v 23.68504"
       fill-rule="evenodd"
       id="path95" />
    <path
       fill="#000000"
       fill-opacity="0"
       d="m 505.43216,77.1182 v 23.68504"
       fill-rule="evenodd"
       id="path97" />
    <path
       stroke="#000000"
       stroke-width="2"
       stroke-linejoin="round"
       stroke-linecap="butt"
       d="m 505.43216,77.1182 v 23.68504"
       fill-rule="evenodd"
       id="path99" />
    <path
       fill="#000000"
       fill-opacity="0"
       d="m 682.00696,77.1182 v 23.68504"
       fill-rule="evenodd"
       id="path101" />
    <path
       stroke="#000000"
       stroke-width="2"
       stroke-linejoin="round"
       stroke-linecap="butt"
       d="m 682.00696,77.1182 v 23.68504"
       fill-rule="evenodd"
       id="path103" />
    <path
       fill="#000000"
       fill-opacity="0"
       d="m 590.1859,133.28365 v 22.23622"
       fill-rule="evenodd"
       id="path105" />
    <path
       stroke="#000000"
       stroke-width="2"
       stroke-linejoin="round"
       stroke-linecap="butt"
       d="m 590.1859,133.28365 v 22.23622"
       fill-rule="evenodd"
       id="path107" />
    <path
       fill="#000000"
       fill-opacity="0"
       d="m 237.72704,133.27559 v 22.23622"
       fill-rule="evenodd"
       id="path109" />
    <path
       stroke="#000000"
       stroke-width="2"
       stroke-linejoin="round"
       stroke-linecap="butt"
       d="m 237.72704,133.27559 v 22.23622"
       fill-rule="evenodd"
       id="path111" />
    <path
       fill="#000000"
       fill-opacity="0"
       d="m 239.58792,220.59064 v 46.70868"
       fill-rule="evenodd"
       id="path113" />
    <path
       stroke="#000000"
       stroke-width="2"
       stroke-linejoin="round"
       stroke-linecap="butt"
       stroke-dasharray="8, 6"
       d="m 239.58792,220.59064 v 46.70868"
       fill-rule="evenodd"
       id="path115" />
    <path
       fill="#000000"
       fill-opacity="0"
       d="m 590.1859,220.59074 0.15747,47.49605"
       fill-rule="evenodd"
       id="path117" />
    <path
       stroke="#000000"
       stroke-width="2"
       stroke-linejoin="round"
       stroke-linecap="butt"
       stroke-dasharray="8, 6, 2, 6"
       d="m 590.1859,220.59074 0.15747,47.49605"
       fill-rule="evenodd"
       id="path119" />
    <path
       fill="#000000"
       fill-opacity="0"
       d="m 343.09973,311.00787 137.66931,0.78741"
       fill-rule="evenodd"
       id="path133" />
    <path
       stroke="#000000"
       stroke-width="2"
       stroke-linejoin="round"
       stroke-linecap="butt"
       stroke-dasharray="2, 6"
       d="m 343.09973,311.00787 137.66931,0.78741"
       fill-rule="evenodd"
       id="path135" />
    <path
       fill="#434343"
       d="m 389.53543,280.04593 h 44.78742 v 23.68503 h -44.78742 z"
       fill-rule="evenodd"
       id="path141" />
    <path
       fill="#ffffff"
       d="m 404.39468,296.68845 v -9.54688 h 1.875 l 3.90625,6.375 v -6.375 h 1.79687 v 9.54688 h -1.9375 l -3.84375,-6.21875 v 6.21875 z m 9.14078,-2.53125 1.76562,-0.21875 q 0.0937,0.6875 0.45313,1.04687 0.375,0.34375 0.90625,0.34375 0.5625,0 0.95312,-0.42187 0.39063,-0.4375 0.39063,-1.15625 0,-0.6875 -0.375,-1.09375 -0.375,-0.40625 -0.90625,-0.40625 -0.34375,0 -0.84375,0.14062 l 0.20312,-1.5 q 0.75,0.0312 1.14063,-0.3125 0.39062,-0.34375 0.39062,-0.90625 0,-0.48437 -0.29687,-0.76562 -0.28125,-0.29688 -0.75,-0.29688 -0.46875,0 -0.8125,0.32813 -0.32813,0.32812 -0.39063,0.95312 l -1.6875,-0.29687 q 0.17188,-0.85938 0.51563,-1.375 0.35937,-0.51563 1,-0.8125 0.64062,-0.29688 1.42187,-0.29688 1.34375,0 2.15625,0.85938 0.67188,0.70312 0.67188,1.59375 0,1.25 -1.375,2 0.82812,0.17187 1.3125,0.78125 0.5,0.60937 0.5,1.48437 0,1.25 -0.92188,2.14063 -0.92187,0.875 -2.28125,0.875 -1.29687,0 -2.15625,-0.73438 -0.84375,-0.75 -0.98437,-1.95312 z"
       fill-rule="nonzero"
       id="path143" />
    <path
       fill="#434343"
       d="m 248.73491,232.10498 h 44.7874 v 23.68504 h -44.7874 z"
       fill-rule="evenodd"
       id="path177" />
    <path
       fill="#ffffff"
       d="m 263.59418,248.74751 v -9.54688 h 1.875 l 3.90625,6.375 v -6.375 h 1.79687 v 9.54688 h -1.9375 l -3.84375,-6.21875 v 6.21875 z m 15.37515,-1.70313 v 1.70313 h -6.40625 q 0.10938,-0.96875 0.625,-1.82813 0.53125,-0.85937 2.0625,-2.28125 1.23438,-1.15625 1.51563,-1.5625 0.375,-0.5625 0.375,-1.125 0,-0.60937 -0.32813,-0.9375 -0.32812,-0.32812 -0.90625,-0.32812 -0.57812,0 -0.92187,0.34375 -0.32813,0.34375 -0.375,1.14062 l -1.82813,-0.17187 q 0.15625,-1.51563 1.01563,-2.17188 0.85937,-0.65625 2.15625,-0.65625 1.40625,0 2.20312,0.76563 0.8125,0.75 0.8125,1.89062 0,0.64063 -0.23437,1.23438 -0.21875,0.57812 -0.71875,1.20312 -0.32813,0.4375 -1.20313,1.23438 -0.85937,0.78125 -1.09375,1.04687 -0.23437,0.25 -0.375,0.5 z"
       fill-rule="nonzero"
       id="path179" />
    <path
       fill="#434343"
       d="m 600.80054,232.49869 h 44.78741 v 23.68503 h -44.78741 z"
       fill-rule="evenodd"
       id="path181" />
    <path
       fill="#ffffff"
       d="m 615.6598,249.1412 v -9.54688 h 1.875 l 3.90625,6.375 v -6.375 h 1.79688 v 9.54688 h -1.9375 l -3.84375,-6.21875 v 6.21875 z m 12.797,0 v -1.92188 h -3.90625 v -1.59375 l 4.14062,-6.0625 h 1.53125 v 6.04688 h 1.1875 v 1.60937 h -1.1875 v 1.92188 z m 0,-3.53125 v -3.25 l -2.20313,3.25 z"
       fill-rule="nonzero"
       id="path183" />
  </g>
</svg>
