<?xml version="1.0" encoding="UTF-8" standalone="no"?>
<svg
   xmlns:dc="http://purl.org/dc/elements/1.1/"
   xmlns:cc="http://creativecommons.org/ns#"
   xmlns:rdf="http://www.w3.org/1999/02/22-rdf-syntax-ns#"
   xmlns:svg="http://www.w3.org/2000/svg"
   xmlns="http://www.w3.org/2000/svg"
   viewBox="0 0 382.69916 238.84848"
   height="238.84848"
   width="382.69916"
   xml:space="preserve"
   version="1.1"
   id="svg4155"><metadata
     id="metadata4161"><rdf:RDF><cc:Work
         rdf:about=""><dc:format>image/svg+xml</dc:format><dc:type
           rdf:resource="http://purl.org/dc/dcmitype/StillImage" /><dc:title></dc:title></cc:Work></rdf:RDF></metadata><defs
     id="defs4159"><clipPath
       id="clipPath4169"
       clipPathUnits="userSpaceOnUse"><path
         style="clip-rule:evenodd"
         id="path4171"
         d="m 29,763.49255 555,0 L 584,29 29,29 29,763.49255 Z" /></clipPath><clipPath
       id="clipPath4615"
       clipPathUnits="userSpaceOnUse"><path
         style="clip-rule:evenodd"
         id="path4617"
         d="m 173.94588,695.15021 -7.51015,0 0,7.51013 7.51015,0 0,-7.51013 z" /></clipPath><clipPath
       id="clipPath4627"
       clipPathUnits="userSpaceOnUse"><path
         style="clip-rule:evenodd"
         id="path4629"
         d="m 29,763.49255 555,0 L 584,29 29,29 29,763.49255 Z" /></clipPath><clipPath
       id="clipPath4749"
       clipPathUnits="userSpaceOnUse"><path
         style="clip-rule:evenodd"
         id="path4751"
         d="m 326.40188,695.15021 -7.51013,0 0,7.51013 7.51013,0 0,-7.51013 z" /></clipPath><clipPath
       id="clipPath4761"
       clipPathUnits="userSpaceOnUse"><path
         style="clip-rule:evenodd"
         id="path4763"
         d="m 29,763.49255 555,0 L 584,29 29,29 29,763.49255 Z" /></clipPath><clipPath
       id="clipPath4847"
       clipPathUnits="userSpaceOnUse"><path
         style="clip-rule:evenodd"
         id="path4849"
         d="m 446.56427,695.15021 -7.51013,0 0,7.51013 7.51013,0 0,-7.51013 z" /></clipPath><clipPath
       id="clipPath4859"
       clipPathUnits="userSpaceOnUse"><path
         style="clip-rule:evenodd"
         id="path4861"
         d="m 29,763.49255 555,0 L 584,29 29,29 29,763.49255 Z" /></clipPath><clipPath
       id="clipPath4921"
       clipPathUnits="userSpaceOnUse"><path
         style="clip-rule:evenodd"
         id="path4923"
         d="m 136.39513,442.8092 -7.51015,0 0,7.51017 7.51015,0 0,-7.51017 z" /></clipPath><clipPath
       id="clipPath4933"
       clipPathUnits="userSpaceOnUse"><path
         style="clip-rule:evenodd"
         id="path4935"
         d="m 29,763.49255 555,0 L 584,29 29,29 29,763.49255 Z" /></clipPath><clipPath
       id="clipPath4983"
       clipPathUnits="userSpaceOnUse"><path
         style="clip-rule:evenodd"
         id="path4985"
         d="m 210.7456,442.8092 -7.51014,0 0,7.51017 7.51014,0 0,-7.51017 z" /></clipPath><clipPath
       id="clipPath4995"
       clipPathUnits="userSpaceOnUse"><path
         style="clip-rule:evenodd"
         id="path4997"
         d="m 29,763.49255 555,0 L 584,29 29,29 29,763.49255 Z" /></clipPath><clipPath
       id="clipPath5029"
       clipPathUnits="userSpaceOnUse"><path
         style="clip-rule:evenodd"
         id="path5031"
         d="m 261.81464,442.8092 -7.51017,0 0,7.51017 7.51017,0 0,-7.51017 z" /></clipPath><clipPath
       id="clipPath5041"
       clipPathUnits="userSpaceOnUse"><path
         style="clip-rule:evenodd"
         id="path5043"
         d="m 487.11908,124.37889 -450.608933,0 0,300.40596 450.608933,0 0,-300.40596 z" /></clipPath><clipPath
       id="clipPath5095"
       clipPathUnits="userSpaceOnUse"><path
         style="clip-rule:evenodd"
         id="path5097"
         d="m 29,763.49255 555,0 L 584,29 29,29 29,763.49255 Z" /></clipPath><clipPath
       id="clipPath5273"
       clipPathUnits="userSpaceOnUse"><path
         style="clip-rule:evenodd"
         id="path5275"
         d="m 319.64276,484.11502 -214.03924,0 0,14.26929 214.03924,0 0,-14.26929 z" /></clipPath><clipPath
       id="clipPath5281"
       clipPathUnits="userSpaceOnUse"><path
         id="path5283"
         d="m 102,624 0,-17 c 0,-0.66669 0.33333,-1 1,-1 l 283,0 c 0.66666,0 1,0.33331 1,1 l 0,17 c 0,0.66669 -0.33334,1 -1,1 l -283,0 c -0.66667,0 -1,-0.33331 -1,-1 z" /></clipPath><clipPath
       id="clipPath5303"
       clipPathUnits="userSpaceOnUse"><path
         style="clip-rule:evenodd"
         id="path5305"
         d="m 305.37347,485.61707 -196.01487,0 0,11.26519 196.01487,0 0,-11.26519 z" /></clipPath><clipPath
       id="clipPath5485"
       clipPathUnits="userSpaceOnUse"><path
         style="clip-rule:evenodd"
         id="path5487"
         d="m 49.277405,500.63736 -9.763195,0 0,9.76318 9.763195,0 0,-9.76318 z" /></clipPath><clipPath
       id="clipPath5495"
       clipPathUnits="userSpaceOnUse"><path
         id="path5497"
         d="m 14,638 0,-8 c 0,-1.33331 0.666667,-2 2,-2 l 8,0 c 1.333334,0 2,0.66669 2,2 l 0,8 c 0,1.33331 -0.666666,2 -2,2 l -8,0 c -1.333333,0 -2,-0.66669 -2,-2 z" /></clipPath><clipPath
       id="clipPath5517"
       clipPathUnits="userSpaceOnUse"><path
         style="clip-rule:evenodd"
         id="path5519"
         d="m 29,763.49255 555,0 L 584,29 29,29 29,763.49255 Z" /></clipPath><clipPath
       id="clipPath5623"
       clipPathUnits="userSpaceOnUse"><path
         style="clip-rule:evenodd"
         id="path5625"
         d="m 49.277405,515.65765 -9.763195,0 0,9.76319 9.763195,0 0,-9.76319 z" /></clipPath><clipPath
       id="clipPath5633"
       clipPathUnits="userSpaceOnUse"><path
         id="path5635"
         d="m 14,658 0,-8 c 0,-1.33331 0.666667,-2 2,-2 l 8,0 c 1.333334,0 2,0.66669 2,2 l 0,8 c 0,1.33331 -0.666666,2 -2,2 l -8,0 c -1.333333,0 -2,-0.66669 -2,-2 z" /></clipPath><clipPath
       id="clipPath5655"
       clipPathUnits="userSpaceOnUse"><path
         style="clip-rule:evenodd"
         id="path5657"
         d="m 29,763.49255 555,0 L 584,29 29,29 29,763.49255 Z" /></clipPath><clipPath
       id="clipPath5737"
       clipPathUnits="userSpaceOnUse"><path
         style="clip-rule:evenodd"
         id="path5739"
         d="m 98.093368,528.42493 -61.583221,0 0,15.7713 61.583221,0 0,-15.7713 z" /></clipPath><clipPath
       id="clipPath5745"
       clipPathUnits="userSpaceOnUse"><path
         id="path5747"
         d="m 10,685 0,-19 c 0,-0.66669 0.333333,-1 1,-1 l 80,0 c 0.666664,0 1,0.33331 1,1 l 0,19 c 0,0.66669 -0.333336,1 -1,1 l -80,0 c -0.666667,0 -1,-0.33331 -1,-1 z" /></clipPath><clipPath
       id="clipPath5765"
       clipPathUnits="userSpaceOnUse"><path
         style="clip-rule:evenodd"
         id="path5767"
         d="m 96.591339,529.92694 -58.579162,0 0,12.76727 58.579162,0 0,-12.76727 z" /></clipPath><clipPath
       id="clipPath5811"
       clipPathUnits="userSpaceOnUse"><path
         style="clip-rule:evenodd"
         id="path5813"
         d="m 29,763.49255 555,0 L 584,29 29,29 29,763.49255 Z" /></clipPath><clipPath
       id="clipPath5825"
       clipPathUnits="userSpaceOnUse"><path
         style="clip-rule:evenodd"
         id="path5827"
         d="m 148.41138,528.42493 -47.31395,0 0,15.7713 47.31395,0 0,-15.7713 z" /></clipPath><clipPath
       id="clipPath5833"
       clipPathUnits="userSpaceOnUse"><path
         id="path5835"
         d="m 96,685 0,-19 c 0,-0.66669 0.333336,-1 1,-1 l 61,0 c 0.66667,0 1,0.33331 1,1 l 0,19 c 0,0.66669 -0.33333,1 -1,1 l -61,0 c -0.666664,0 -1,-0.33331 -1,-1 z" /></clipPath><clipPath
       id="clipPath5853"
       clipPathUnits="userSpaceOnUse"><path
         style="clip-rule:evenodd"
         id="path5855"
         d="m 146.90933,529.92694 -44.30987,0 0,12.76727 44.30987,0 0,-12.76727 z" /></clipPath><clipPath
       id="clipPath5891"
       clipPathUnits="userSpaceOnUse"><path
         style="clip-rule:evenodd"
         id="path5893"
         d="m 29,763.49255 555,0 L 584,29 29,29 29,763.49255 Z" /></clipPath><clipPath
       id="clipPath5905"
       clipPathUnits="userSpaceOnUse"><path
         style="clip-rule:evenodd"
         id="path5907"
         d="m 204.73749,528.42493 -53.32206,0 0,15.7713 53.32206,0 0,-15.7713 z" /></clipPath><clipPath
       id="clipPath5913"
       clipPathUnits="userSpaceOnUse"><path
         id="path5915"
         d="m 163,685 0,-19 c 0,-0.66669 0.33333,-1 1,-1 l 69,0 c 0.66667,0 1,0.33331 1,1 l 0,19 c 0,0.66669 -0.33333,1 -1,1 l -69,0 c -0.66667,0 -1,-0.33331 -1,-1 z" /></clipPath><clipPath
       id="clipPath5933"
       clipPathUnits="userSpaceOnUse"><path
         style="clip-rule:evenodd"
         id="path5935"
         d="m 203.23546,529.92694 -50.31801,0 0,12.76727 50.31801,0 0,-12.76727 z" /></clipPath><clipPath
       id="clipPath5975"
       clipPathUnits="userSpaceOnUse"><path
         style="clip-rule:evenodd"
         id="path5977"
         d="m 29,763.49255 555,0 L 584,29 29,29 29,763.49255 Z" /></clipPath></defs><g
     transform="matrix(1.25,0,0,1.25,-135.33398,-222.68348)"
     id="g4163"><g
       id="g4165"><g
         clip-path="url(#clipPath4169)"
         id="g4167"><g
           transform="matrix(0.75101489,0,0,0.75101489,29,29)"
           id="g4173" /></g></g><g
       id="g5037"><g
         clip-path="url(#clipPath5041)"
         id="g5039"><g
           transform="matrix(0.75101489,0,0,0.75101489,36.510147,124.37889)"
           id="g5045"><path
             id="path5047"
             style="fill:none;stroke:#777777;stroke-width:1;stroke-linecap:butt;stroke-linejoin:miter;stroke-miterlimit:10;stroke-dasharray:none;stroke-opacity:1"
             d="M 300,200 186.06845,98.939476" /><path
             id="path5049"
             style="fill:none;stroke:#777777;stroke-width:1;stroke-linecap:butt;stroke-linejoin:miter;stroke-miterlimit:10;stroke-dasharray:none;stroke-opacity:1"
             d="m 300,200 116.91998,99.38477" /><path
             id="path5051"
             style="fill:none;stroke:#777777;stroke-width:1;stroke-linecap:butt;stroke-linejoin:miter;stroke-miterlimit:10;stroke-dasharray:none;stroke-opacity:1"
             d="m 300,200 116.91998,99.38477 80.78757,-124.61075" /><path
             id="path5053"
             style="fill:none;stroke:#777777;stroke-width:1;stroke-linecap:butt;stroke-linejoin:miter;stroke-miterlimit:10;stroke-dasharray:none;stroke-opacity:1"
             d="M 300,200 186.06845,98.939476 101.04675,221.23004" /><path
             id="path5055"
             style="fill:#777777;fill-opacity:0.29803922;fill-rule:nonzero;stroke:none"
             d="m 300.64377,200.3848 -2.56531,4.29176 -1.28754,-0.76959 2.56531,-4.29177 1.28754,0.7696 z m -3.5914,6.00846 -2.56531,4.29178 -1.28754,-0.76959 2.56531,-4.29178 1.28754,0.76959 z m -3.59143,6.00849 -2.56528,4.29176 -1.28754,-0.76959 2.56528,-4.29176 1.28754,0.76959 z m -3.5914,6.00847 -2.56531,4.29177 -1.28754,-0.76959 2.56531,-4.29178 1.28754,0.7696 z m -3.5914,6.00848 -2.56531,4.29176 -1.28754,-0.76959 2.56531,-4.29176 1.28754,0.76959 z m -3.59143,6.00847 -2.56528,4.29176 -1.28754,-0.76959 2.56528,-4.29176 1.28754,0.76959 z m -3.5914,6.00847 -2.56531,4.29178 -1.28754,-0.7696 2.56531,-4.29177 1.28754,0.76959 z m -3.5914,6.00848 -2.56531,4.29176 -1.28754,-0.76959 2.56531,-4.29176 1.28754,0.76959 z m -3.59144,6.00847 -2.56527,4.29176 -1.28754,-0.76959 2.56528,-4.29176 1.28753,0.76959 z m -3.5914,6.00848 -2.5653,4.29177 -1.28754,-0.7696 2.56531,-4.29176 1.28753,0.76959 z m -3.5914,6.00847 -2.5653,4.29178 -1.28754,-0.76959 2.56531,-4.29178 1.28753,0.76959 z m -3.59143,6.00849 -2.56527,4.29178 -1.28754,-0.7696 2.56528,-4.29178 1.28753,0.7696 z m -3.5914,6.00845 -2.56529,4.29178 -1.28754,-0.76959 2.5653,-4.29178 1.28753,0.76959 z m -3.59141,6.00848 -2.56529,4.29178 -1.28754,-0.76959 2.56529,-4.29178 1.28754,0.76959 z m -3.59142,6.00849 -2.56527,4.29175 -1.28754,-0.7696 2.56528,-4.29174 1.28753,0.76959 z m -3.5914,6.00848 -2.56529,4.29175 -1.28754,-0.76959 2.5653,-4.29175 1.28753,0.76959 z m -3.59141,6.00845 -2.5653,4.29178 -1.28753,-0.76959 2.56529,-4.29178 1.28754,0.76959 z m -3.59142,6.00849 -2.56528,4.29178 -1.28753,-0.7696 2.56528,-4.29177 1.28753,0.76959 z m -3.5914,6.00848 -2.56529,4.29175 -1.28754,-0.76959 2.56529,-4.29175 1.28754,0.76959 z m -3.59141,6.00846 -2.5653,4.29177 -1.28753,-0.76959 2.56529,-4.29178 1.28754,0.7696 z m -3.59142,6.00848 -0.64635,1.08139 -4.28512,-3.35245 0.92425,-1.18139 3.61545,2.82852 -0.46213,0.5907 -0.64376,-0.3848 0.21012,-0.35156 1.28754,0.76959 z m -6.50668,-3.50342 -3.93804,-3.0809 0.92426,-1.1814 3.93803,3.08091 -0.92425,1.18139 z m -5.51325,-4.31323 -3.93803,-3.0809 0.92425,-1.1814 3.93804,3.0809 -0.92426,1.1814 z m -5.51324,-4.31326 -3.93804,-3.08091 0.92426,-1.18139 3.93803,3.0809 -0.92425,1.1814 z m -5.51325,-4.31327 -3.93803,-3.08087 0.92425,-1.18139 3.93804,3.08087 -0.92426,1.18139 z m -5.51324,-4.31323 -3.93804,-3.0809 0.92426,-1.1814 3.93803,3.0809 -0.92425,1.1814 z m -5.51325,-4.31326 -3.93803,-3.08087 0.92426,-1.1814 3.93803,3.08087 -0.92426,1.1814 z m -5.51324,-4.31323 -3.93805,-3.08091 0.92426,-1.18139 3.93805,3.0809 -0.92426,1.1814 z m -5.51324,-4.31327 -3.93805,-3.0809 0.92425,-1.1814 3.93805,3.08091 -0.92425,1.18139 z m -5.51325,-4.31326 -3.93805,-3.08087 0.92426,-1.1814 3.93805,3.08087 -0.92426,1.1814 z m -5.51326,-4.31323 -3.93803,-3.0809 0.92425,-1.1814 3.93804,3.0809 -0.92426,1.1814 z m -5.51324,-4.31327 -3.93804,-3.0809 0.92426,-1.18139 3.93803,3.0809 -0.92425,1.18139 z m -5.51325,-4.31323 -3.93803,-3.0809 0.92425,-1.1814 3.93804,3.08091 -0.92426,1.18139 z m -5.51324,-4.31326 -3.93804,-3.0809 0.92426,-1.1814 3.93803,3.0809 -0.92425,1.1814 z m -5.51325,-4.31326 -3.93803,-3.08088 0.92425,-1.18139 3.93804,3.08087 -0.92426,1.1814 z m -5.51324,-4.31324 -3.93804,-3.0809 0.92426,-1.18139 3.93803,3.0809 -0.92425,1.18139 z m -5.51326,-4.31326 -3.93802,-3.08089 0.92425,-1.18139 3.93802,3.08088 -0.92425,1.1814 z m -5.51323,-4.31323 -3.93804,-3.0809 0.92426,-1.1814 3.93803,3.0809 -0.92425,1.1814 z m -5.51326,-4.31326 -3.93803,-3.08091 0.92427,-1.18139 3.93801,3.0809 -0.92425,1.1814 z m -5.51325,-4.31325 -3.93802,-3.08089 0.92427,-1.1814 3.93803,3.08089 -0.92428,1.1814 z m -5.51324,-4.31325 -3.93803,-3.0809 0.92427,-1.1814 3.93803,3.0809 -0.92427,1.1814 z m -5.51324,-4.31326 -3.93804,-3.08089 0.92427,-1.1814 3.93804,3.08089 -0.92427,1.1814 z m -5.51325,-4.31324 -3.93803,-3.0809 0.92427,-1.18139 3.93803,3.0809 -0.92427,1.18139 z m -5.51324,-4.31324 -0.43283,-0.33863 0.92425,-1.18142 0.43284,0.33862 -0.92426,1.18143 z" /><path
             id="path5057"
             style="fill:none;stroke:#777777;stroke-width:1;stroke-linecap:butt;stroke-linejoin:miter;stroke-miterlimit:10;stroke-dasharray:none;stroke-opacity:1"
             d="M 300,200 227.96165,320.52106" /><path
             id="path5059"
             style="fill:#777777;fill-opacity:0.29803922;fill-rule:nonzero;stroke:none"
             d="m 299.34009,199.64363 2.37579,-4.39951 1.31982,0.71274 -2.37579,4.39951 -1.31982,-0.71274 z m 3.32611,-6.1593 2.37579,-4.39951 1.31983,0.71274 -2.3758,4.39951 -1.31982,-0.71274 z m 3.32611,-6.1593 2.37579,-4.39951 1.31983,0.71274 -2.3758,4.3995 -1.31982,-0.71273 z m 3.32611,-6.15931 2.37579,-4.3995 1.31983,0.71274 -2.3758,4.3995 -1.31982,-0.71274 z m 3.32611,-6.1593 2.37576,-4.3995 1.31983,0.71274 -2.37577,4.3995 -1.31982,-0.71274 z m 3.32608,-6.15931 2.37579,-4.39949 1.31983,0.71273 -2.3758,4.39949 -1.31982,-0.71273 z m 3.32611,-6.15929 2.37579,-4.39951 1.31983,0.71274 -2.37579,4.39951 -1.31983,-0.71274 z m 3.32611,-6.15932 2.3758,-4.39949 1.31982,0.71274 -2.37579,4.39949 -1.31983,-0.71274 z m 3.32611,-6.1593 2.3758,-4.3995 1.31982,0.71273 -2.37579,4.39951 -1.31983,-0.71274 z m 3.32611,-6.1593 2.3758,-4.39949 1.31982,0.71274 -2.37579,4.39949 -1.31983,-0.71274 z m 3.32611,-6.1593 2.3758,-4.39951 1.31982,0.71274 -2.37579,4.39951 -1.31983,-0.71274 z m 3.32612,-6.15932 2.37576,-4.39948 1.31982,0.71273 -2.37576,4.39949 -1.31982,-0.71274 z m 3.32608,-6.15929 2.37579,-4.3995 1.31982,0.71274 -2.37579,4.3995 -1.31982,-0.71274 z m 3.32611,-6.1593 2.37579,-4.3995 1.31982,0.71274 -2.37579,4.3995 -1.31982,-0.71274 z m 3.32611,-6.15931 2.37579,-4.39949 1.31983,0.71273 -2.3758,4.3995 -1.31982,-0.71274 z m 3.32611,-6.1593 2.37579,-4.3995 1.31983,0.71273 -2.3758,4.39951 -1.31982,-0.71274 z m 3.32611,-6.1593 2.37579,-4.399506 1.31983,0.712738 -2.3758,4.399508 -1.31982,-0.71274 z m 3.32611,-6.15931 2.37579,-4.399498 1.31983,0.712739 -2.3758,4.399498 -1.31982,-0.712739 z m 3.32611,-6.159301 2.37579,-4.399498 1.31983,0.712738 -2.37579,4.399498 -1.31983,-0.712738 z m 3.32611,-6.159294 2.3758,-4.399506 1.31982,0.712738 -2.37579,4.399506 -1.31983,-0.712738 z m 4.5376,-5.935334 4.01202,2.98391 -0.89514,1.203613 -4.01202,-2.983909 0.89514,-1.203614 z m 5.61682,4.177468 4.01202,2.983909 -0.89514,1.203614 -4.01202,-2.98391 0.89514,-1.203613 z m 5.61688,4.177482 4.012,2.983902 -0.89521,1.203598 -4.01199,-2.983902 0.8952,-1.203598 z m 5.61679,4.17746 4.01203,2.983902 -0.89514,1.203613 -4.01203,-2.983902 0.89514,-1.203613 z m 5.61683,4.177467 4.01202,2.983902 -0.89514,1.203614 -4.01203,-2.983902 0.89515,-1.203614 z m 5.61682,4.177468 4.01202,2.983904 -0.89514,1.20361 -4.01203,-2.983901 0.89515,-1.203613 z m 5.61682,4.177464 4.01202,2.98391 -0.89514,1.20361 -4.01202,-2.9839 0.89514,-1.20362 z m 5.61685,4.17747 4.01202,2.98391 -0.89514,1.20361 -4.01202,-2.98391 0.89514,-1.20361 z m 5.61682,4.17747 4.01202,2.9839 -0.89514,1.20361 -4.01202,-2.9839 0.89514,-1.20361 z m 5.61682,4.17746 4.01203,2.98391 -0.89514,1.20362 -4.01203,-2.98391 0.89514,-1.20362 z m 5.61682,4.17747 4.01203,2.98391 -0.89514,1.20361 -4.01203,-2.98391 0.89514,-1.20361 z m 5.61683,4.17747 4.01202,2.98391 -0.89514,1.20361 -4.01203,-2.98391 0.89515,-1.20361 z m 5.61688,4.17747 4.01199,2.9839 -0.8952,1.20361 -4.012,-2.9839 0.89521,-1.20361 z m 5.61679,4.17747 4.01202,2.9839 -0.89514,1.20362 -4.01202,-2.9839 0.89514,-1.20362 z m 5.61682,4.17746 4.01202,2.9839 -0.89514,1.20362 -4.01202,-2.98391 0.89514,-1.20361 z m 5.61688,4.17748 4.01199,2.9839 -0.8952,1.20361 -4.01199,-2.9839 0.8952,-1.20361 z m 5.61682,4.17746 4.012,2.98391 -0.89521,1.20362 -4.01199,-2.98392 0.8952,-1.20361 z m 5.61682,4.17746 4.01203,2.98391 -0.8952,1.20362 -4.01203,-2.98392 0.8952,-1.20361 z m 5.61679,4.17747 4.01203,2.9839 -0.89514,1.20362 -4.01203,-2.98391 0.89514,-1.20361 z m 5.61683,4.17748 4.01202,2.9839 -0.89514,1.20361 -4.01203,-2.9839 0.89515,-1.20361 z m 5.61685,4.17745 4.01202,2.98392 -0.8952,1.20362 -4.01202,-2.98392 0.8952,-1.20362 z m 5.61679,4.17748 4.01202,2.9839 -0.89514,1.20362 -4.01202,-2.98391 0.89514,-1.20361 z m 5.61685,4.17747 4.01202,2.98389 -0.89514,1.20361 -4.01202,-2.98388 0.89514,-1.20362 z m 5.61682,4.17746 1.89435,1.40891 -0.89514,1.20361 -1.89435,-1.4089 0.89514,-1.20362 z" /><path
             id="path5061"
             style="fill:none;stroke:#777777;stroke-width:1;stroke-linecap:butt;stroke-linejoin:miter;stroke-miterlimit:10;stroke-dasharray:none;stroke-opacity:1"
             d="M 300,200 366.37109,77.093643" /><path
             id="path5063"
             style="fill:#ff6699;fill-opacity:1;fill-rule:nonzero;stroke:none"
             d="m 305,200 c 0,1.38071 -0.48816,2.55922 -1.46448,3.53554 C 302.55923,204.51184 301.38071,205 300,205 c -1.38071,0 -2.55924,-0.48816 -3.53555,-1.46446 C 295.48813,202.55922 294.99997,201.38071 295,200 c -3e-5,-1.38072 0.48813,-2.55925 1.46445,-3.53555 0.97631,-0.97632 2.15484,-1.46447 3.53555,-1.46445 1.38071,-2e-5 2.55923,0.48813 3.53552,1.46445 C 304.51184,197.44075 305,198.61928 305,200 Z" /><path
             id="path5065"
             style="fill:none;stroke:#ffffff;stroke-width:1;stroke-linecap:butt;stroke-linejoin:miter;stroke-miterlimit:10;stroke-dasharray:none;stroke-opacity:1"
             d="m 305,200 c 0,1.38071 -0.48816,2.55922 -1.46448,3.53554 C 302.55923,204.51184 301.38071,205 300,205 c -1.38071,0 -2.55924,-0.48816 -3.53555,-1.46446 C 295.48813,202.55922 294.99997,201.38071 295,200 c -3e-5,-1.38072 0.48813,-2.55925 1.46445,-3.53555 0.97631,-0.97632 2.15484,-1.46447 3.53555,-1.46445 1.38071,-2e-5 2.55923,0.48813 3.53552,1.46445 C 304.51184,197.44075 305,198.61928 305,200 Z" /><path
             id="path5067"
             style="fill:#cc00ff;fill-opacity:1;fill-rule:nonzero;stroke:none"
             d="m 191.06845,98.939476 c 0,1.380714 -0.48816,2.559224 -1.46448,3.535534 -0.9763,0.97631 -2.15481,1.46447 -3.53552,1.46447 -1.38072,0 -2.55923,-0.48816 -3.53554,-1.46447 -0.97632,-0.97631 -1.46447,-2.15482 -1.46446,-3.535534 -1e-5,-1.380715 0.48814,-2.559227 1.46446,-3.535538 0.97631,-0.97631 2.15482,-1.46447 3.53554,-1.464462 1.38071,-8e-6 2.55922,0.488152 3.53552,1.464462 0.97632,0.976311 1.46448,2.154823 1.46448,3.535538 z" /><path
             id="path5069"
             style="fill:none;stroke:#ffffff;stroke-width:1;stroke-linecap:butt;stroke-linejoin:miter;stroke-miterlimit:10;stroke-dasharray:none;stroke-opacity:1"
             d="m 191.06845,98.939476 c 0,1.380714 -0.48816,2.559224 -1.46448,3.535534 -0.9763,0.97631 -2.15481,1.46447 -3.53552,1.46447 -1.38072,0 -2.55923,-0.48816 -3.53554,-1.46447 -0.97632,-0.97631 -1.46447,-2.15482 -1.46446,-3.535534 -1e-5,-1.380715 0.48814,-2.559227 1.46446,-3.535538 0.97631,-0.97631 2.15482,-1.46447 3.53554,-1.464462 1.38071,-8e-6 2.55922,0.488152 3.53552,1.464462 0.97632,0.976311 1.46448,2.154823 1.46448,3.535538 z" /><path
             id="path5071"
             style="fill:#cc00ff;fill-opacity:1;fill-rule:nonzero;stroke:none"
             d="m 421.91998,299.38477 c -3e-5,1.3807 -0.48819,2.5592 -1.46451,3.53552 -0.97628,0.97632 -2.15478,1.46448 -3.53549,1.46448 -1.3807,0 -2.55923,-0.48816 -3.53555,-1.46448 -0.97632,-0.97632 -1.46448,-2.15482 -1.46445,-3.53552 -3e-5,-1.38074 0.48813,-2.55927 1.46445,-3.53556 0.97632,-0.97632 2.15485,-1.46448 3.53555,-1.46444 1.38071,-4e-5 2.55921,0.48812 3.53549,1.46444 0.97632,0.97629 1.46448,2.15482 1.46451,3.53556 z" /><path
             id="path5073"
             style="fill:none;stroke:#ffffff;stroke-width:1;stroke-linecap:butt;stroke-linejoin:miter;stroke-miterlimit:10;stroke-dasharray:none;stroke-opacity:1"
             d="m 421.91998,299.38477 c -3e-5,1.3807 -0.48819,2.5592 -1.46451,3.53552 -0.97628,0.97632 -2.15478,1.46448 -3.53549,1.46448 -1.3807,0 -2.55923,-0.48816 -3.53555,-1.46448 -0.97632,-0.97632 -1.46448,-2.15482 -1.46445,-3.53552 -3e-5,-1.38074 0.48813,-2.55927 1.46445,-3.53556 0.97632,-0.97632 2.15485,-1.46448 3.53555,-1.46444 1.38071,-4e-5 2.55921,0.48812 3.53549,1.46444 0.97632,0.97629 1.46448,2.15482 1.46451,3.53556 z" /><path
             id="path5075"
             style="fill:#0033ff;fill-opacity:1;fill-rule:nonzero;stroke:none"
             d="m 502.70755,174.77402 c -3e-5,1.38069 -0.48819,2.5592 -1.46448,3.53552 -0.97632,0.9763 -2.15481,1.46446 -3.53552,1.46448 -1.38074,-2e-5 -2.55927,-0.48818 -3.53558,-1.46448 -0.97632,-0.97632 -1.46445,-2.15483 -1.46442,-3.53552 -3e-5,-1.38073 0.4881,-2.55924 1.46442,-3.53554 0.97631,-0.9763 2.15484,-1.46446 3.53558,-1.46446 1.38071,0 2.5592,0.48816 3.53552,1.46446 0.97629,0.9763 1.46445,2.15481 1.46448,3.53554 z" /><path
             id="path5077"
             style="fill:none;stroke:#ffffff;stroke-width:1;stroke-linecap:butt;stroke-linejoin:miter;stroke-miterlimit:10;stroke-dasharray:none;stroke-opacity:1"
             d="m 502.70755,174.77402 c -3e-5,1.38069 -0.48819,2.5592 -1.46448,3.53552 -0.97632,0.9763 -2.15481,1.46446 -3.53552,1.46448 -1.38074,-2e-5 -2.55927,-0.48818 -3.53558,-1.46448 -0.97632,-0.97632 -1.46445,-2.15483 -1.46442,-3.53552 -3e-5,-1.38073 0.4881,-2.55924 1.46442,-3.53554 0.97631,-0.9763 2.15484,-1.46446 3.53558,-1.46446 1.38071,0 2.5592,0.48816 3.53552,1.46446 0.97629,0.9763 1.46445,2.15481 1.46448,3.53554 z" /><path
             id="path5079"
             style="fill:#0033ff;fill-opacity:1;fill-rule:nonzero;stroke:none"
             d="m 106.04675,221.23004 c 0,1.38071 -0.48816,2.5592 -1.46448,3.53551 -0.97631,0.97633 -2.15481,1.46449 -3.53552,1.46449 -1.380712,0 -2.559224,-0.48816 -3.535535,-1.46449 -0.976311,-0.97631 -1.464462,-2.1548 -1.464462,-3.53551 0,-1.38072 0.488151,-2.55923 1.464462,-3.53554 0.976311,-0.97633 2.154823,-1.46447 3.535535,-1.46446 1.38071,-1e-5 2.55921,0.48813 3.53552,1.46446 0.97632,0.97631 1.46448,2.15482 1.46448,3.53554 z" /><path
             id="path5081"
             style="fill:none;stroke:#ffffff;stroke-width:1;stroke-linecap:butt;stroke-linejoin:miter;stroke-miterlimit:10;stroke-dasharray:none;stroke-opacity:1"
             d="m 106.04675,221.23004 c 0,1.38071 -0.48816,2.5592 -1.46448,3.53551 -0.97631,0.97633 -2.15481,1.46449 -3.53552,1.46449 -1.380712,0 -2.559224,-0.48816 -3.535535,-1.46449 -0.976311,-0.97631 -1.464462,-2.1548 -1.464462,-3.53551 0,-1.38072 0.488151,-2.55923 1.464462,-3.53554 0.976311,-0.97633 2.154823,-1.46447 3.535535,-1.46446 1.38071,-1e-5 2.55921,0.48813 3.53552,1.46446 0.97632,0.97631 1.46448,2.15482 1.46448,3.53554 z" /><path
             id="path5083"
             style="fill:#cc00ff;fill-opacity:1;fill-rule:nonzero;stroke:none"
             d="m 232.96165,320.52106 c -1e-5,1.3807 -0.48817,2.5592 -1.46447,3.53552 -0.97631,0.97632 -2.15482,1.46448 -3.53553,1.46448 -1.38072,0 -2.55923,-0.48816 -3.53555,-1.46448 -0.9763,-0.97632 -1.46446,-2.15482 -1.46445,-3.53552 -1e-5,-1.38074 0.48815,-2.55924 1.46445,-3.53553 0.97632,-0.97635 2.15483,-1.4645 3.53555,-1.46447 1.38071,-3e-5 2.55922,0.48812 3.53553,1.46447 0.9763,0.97629 1.46446,2.15479 1.46447,3.53553 z" /><path
             id="path5085"
             style="fill:none;stroke:#ffffff;stroke-width:1;stroke-linecap:butt;stroke-linejoin:miter;stroke-miterlimit:10;stroke-dasharray:none;stroke-opacity:1"
             d="m 232.96165,320.52106 c -1e-5,1.3807 -0.48817,2.5592 -1.46447,3.53552 -0.97631,0.97632 -2.15482,1.46448 -3.53553,1.46448 -1.38072,0 -2.55923,-0.48816 -3.53555,-1.46448 -0.9763,-0.97632 -1.46446,-2.15482 -1.46445,-3.53552 -1e-5,-1.38074 0.48815,-2.55924 1.46445,-3.53553 0.97632,-0.97635 2.15483,-1.4645 3.53555,-1.46447 1.38071,-3e-5 2.55922,0.48812 3.53553,1.46447 0.9763,0.97629 1.46446,2.15479 1.46447,3.53553 z" /><path
             id="path5087"
             style="fill:#cc00ff;fill-opacity:1;fill-rule:nonzero;stroke:none"
             d="m 371.37109,77.093643 c -3e-5,1.380707 -0.48819,2.559212 -1.46451,3.535523 -0.97628,0.97631 -2.15478,1.46447 -3.53549,1.464477 -1.3807,-7e-6 -2.55923,-0.488167 -3.53555,-1.464477 -0.97632,-0.976311 -1.46448,-2.154816 -1.46445,-3.535523 -3e-5,-1.380714 0.48813,-2.559227 1.46445,-3.535545 0.97632,-0.976303 2.15485,-1.464455 3.53555,-1.464455 1.38071,0 2.55921,0.488152 3.53549,1.464455 0.97632,0.976318 1.46448,2.154831 1.46451,3.535545 z" /><path
             id="path5089"
             style="fill:none;stroke:#ffffff;stroke-width:1;stroke-linecap:butt;stroke-linejoin:miter;stroke-miterlimit:10;stroke-dasharray:none;stroke-opacity:1"
             d="m 371.37109,77.093643 c -3e-5,1.380707 -0.48819,2.559212 -1.46451,3.535523 -0.97628,0.97631 -2.15478,1.46447 -3.53549,1.464477 -1.3807,-7e-6 -2.55923,-0.488167 -3.53555,-1.464477 -0.97632,-0.976311 -1.46448,-2.154816 -1.46445,-3.535523 -3e-5,-1.380714 0.48813,-2.559227 1.46445,-3.535545 0.97632,-0.976303 2.15485,-1.464455 3.53555,-1.464455 1.38071,0 2.55921,0.488152 3.53549,1.464455 0.97632,0.976318 1.46448,2.154831 1.46451,3.535545 z" /></g></g></g><g
       id="g5091" /></g></svg>