<svg version="1.1" viewBox="0.0 0.0 664.6666666666666 372.6666666666667" fill="none" stroke="none" stroke-linecap="square" stroke-miterlimit="10" xmlns:xlink="http://www.w3.org/1999/xlink" xmlns="http://www.w3.org/2000/svg"><clipPath id="p.0"><path d="m0 0l664.6667 0l0 372.66666l-664.6667 0l0 -372.66666z" clip-rule="nonzero"/></clipPath><g clip-path="url(#p.0)"><path fill="#000000" fill-opacity="0.0" d="m0 0l664.6667 0l0 372.66666l-664.6667 0z" fill-rule="evenodd"/><path fill="#000000" fill-opacity="0.0" d="m377.50394 232.13518l74.01575 0l0 58.173233l-74.01575 0z" fill-rule="evenodd"/><path fill="#000000" d="m407.90854 256.49518l-0.828125 -2.765625l-4.171875 0l-0.84375 2.765625l-1.53125 0l3.53125 -11.03125l1.921875 0l3.53125 11.03125l-1.609375 0zm-4.640625 -4.0l3.4375 0l-1.703125 -5.765625l-1.734375 5.765625zm11.167999 -0.671875l-1.703125 0l0 4.671875l-1.53125 0l0 -11.03125l2.90625 0q2.0625 0 3.125 0.796875q1.0625 0.78125 1.0625 2.328125q0 1.15625 -0.59375 1.875q-0.59375 0.71875 -1.796875 1.09375l2.984375 4.9375l-1.8125 0l-2.640625 -4.671875zm-0.171875 -1.171875q1.203125 0 1.8125 -0.484375q0.609375 -0.484375 0.609375 -1.578125q0 -1.015625 -0.625 -1.46875q-0.609375 -0.46875 -1.96875 -0.46875l-1.359375 0l0 4.0l1.53125 0zm9.523773 -5.1875q2.046875 0 3.15625 0.859375q1.125 0.859375 1.125 2.5625q0 1.796875 -1.171875 2.6875q-1.15625 0.875 -3.09375 0.875l-1.390625 0l0 4.046875l-1.53125 0l0 -11.03125l2.90625 0zm-0.046875 5.78125q1.328125 0 2.015625 -0.5q0.703125 -0.515625 0.703125 -1.84375q0 -1.1875 -0.703125 -1.71875q-0.6875 -0.53125 -1.984375 -0.53125l-1.359375 0l0 4.59375l1.328125 0z" fill-rule="nonzero"/><path fill="#000000" d="m399.30792 271.0233l-1.703125 0l0 4.671875l-1.53125 0l0 -11.03125l2.90625 0q2.0625 0 3.125 0.796875q1.0625 0.78125 1.0625 2.328125q0 1.15625 -0.59375 1.875q-0.59375 0.71875 -1.796875 1.09375l2.984375 4.9375l-1.8125 0l-2.640625 -4.671875zm-0.171875 -1.171875q1.203125 0 1.8125 -0.484375q0.609375 -0.484375 0.609375 -1.578125q0 -1.015625 -0.625 -1.46875q-0.609375 -0.46875 -1.96875 -0.46875l-1.359375 0l0 4.0l1.53125 0zm12.674377 1.375q0 0.375 -0.03125 0.75l-5.375 0q0.09375 1.40625 0.703125 2.0625q0.609375 0.640625 1.5625 0.640625q0.609375 0 1.125 -0.171875q0.515625 -0.171875 1.0625 -0.5625l0.640625 0.890625q-1.34375 1.046875 -2.9375 1.046875q-1.765625 0 -2.75 -1.140625q-0.984375 -1.15625 -0.984375 -3.171875q0 -1.3125 0.421875 -2.328125q0.4375 -1.015625 1.21875 -1.59375q0.796875 -0.578125 1.875 -0.578125q1.671875 0 2.5625 1.109375q0.90625 1.09375 0.90625 3.046875zm-1.453125 -0.421875q0 -1.25 -0.5 -1.90625q-0.5 -0.65625 -1.484375 -0.65625q-1.8125 0 -1.96875 2.65625l3.953125 0l0 -0.09375zm7.6731567 -3.734375q1.625 0 2.375 1.15625q0.75 1.15625 0.75 3.25q0 1.984375 -0.875 3.203125q-0.859375 1.203125 -2.4375 1.203125q-1.40625 0 -2.21875 -0.953125l0 4.0l-1.46875 0.171875l0 -11.84375l1.265625 0l0.109375 1.140625q0.46875 -0.640625 1.125 -0.984375q0.65625 -0.34375 1.375 -0.34375zm-0.546875 7.609375q2.078125 0 2.078125 -3.203125q0 -3.234375 -1.890625 -3.234375q-0.625 0 -1.140625 0.375q-0.515625 0.359375 -0.90625 0.9375l0 4.109375q0.328125 0.5 0.796875 0.765625q0.484375 0.25 1.0625 0.25zm7.863373 1.203125q-0.8125 0 -1.296875 -0.484375q-0.46875 -0.484375 -0.46875 -1.359375l0 -10.171875l1.46875 -0.171875l0 10.296875q0 0.359375 0.125 0.515625q0.125 0.15625 0.40625 0.15625q0.3125 0 0.546875 -0.09375l0.390625 1.03125q-0.53125 0.28125 -1.171875 0.28125zm6.215515 -0.140625q-0.484375 1.46875 -1.375 2.328125q-0.890625 0.859375 -2.546875 1.03125l-0.15625 -1.15625q0.828125 -0.140625 1.328125 -0.421875q0.5 -0.265625 0.796875 -0.6875q0.296875 -0.421875 0.546875 -1.140625l-0.5 0l-2.828125 -8.4375l1.578125 0l2.25 7.359375l2.203125 -7.359375l1.53125 0l-2.828125 8.484375z" fill-rule="nonzero"/><path fill="#000000" fill-opacity="0.0" d="m172.18636 165.33333l130.26772 0l0 38.771652l-130.26772 0z" fill-rule="evenodd"/><path fill="#000000" d="m201.2695 178.66208l-0.15625 1.296875l-3.0625 0l0 9.734375l-1.515625 0l0 -9.734375l-3.140625 0l0 -1.296875l7.875 0zm3.1470184 2.59375l0 8.4375l-1.46875 0l0 -8.4375l1.46875 0zm-0.734375 -4.046875q0.453125 0 0.734375 0.296875q0.296875 0.28125 0.296875 0.71875q0 0.421875 -0.296875 0.703125q-0.28125 0.28125 -0.734375 0.28125q-0.453125 0 -0.75 -0.28125q-0.28125 -0.28125 -0.28125 -0.703125q0 -0.4375 0.28125 -0.71875q0.296875 -0.296875 0.75 -0.296875zm12.246384 3.859375q1.046875 0 1.65625 0.703125q0.625 0.6875 0.625 1.875l0 6.046875l-1.46875 0l0 -5.84375q0 -1.625 -1.1875 -1.625q-0.625 0 -1.0625 0.359375q-0.421875 0.359375 -0.921875 1.125l0 5.984375l-1.46875 0l0 -5.84375q0 -1.625 -1.1875 -1.625q-0.625 0 -1.0625 0.375q-0.4375 0.359375 -0.921875 1.109375l0 5.984375l-1.46875 0l0 -8.4375l1.265625 0l0.125 1.234375q0.953125 -1.421875 2.4375 -1.421875q0.78125 0 1.328125 0.40625q0.5625 0.390625 0.796875 1.109375q0.5 -0.734375 1.09375 -1.125q0.609375 -0.390625 1.421875 -0.390625zm11.618271 4.15625q0 0.375 -0.03125 0.75l-5.375 0q0.09375 1.40625 0.703125 2.0625q0.609375 0.640625 1.5625 0.640625q0.609375 0 1.125 -0.171875q0.515625 -0.171875 1.0625 -0.5625l0.640625 0.890625q-1.34375 1.046875 -2.9375 1.046875q-1.765625 0 -2.75 -1.140625q-0.984375 -1.15625 -0.984375 -3.171875q0 -1.3125 0.421875 -2.328125q0.4375 -1.015625 1.21875 -1.59375q0.796875 -0.578125 1.875 -0.578125q1.671875 0 2.5625 1.109375q0.90625 1.09375 0.90625 3.046875zm-1.453125 -0.421875q0 -1.25 -0.5 -1.90625q-0.5 -0.65625 -1.484375 -0.65625q-1.8125 0 -1.96875 2.65625l3.953125 0l0 -0.09375zm11.913147 -3.734375q1.625 0 2.375 1.15625q0.75 1.15625 0.75 3.25q0 1.984375 -0.875 3.203125q-0.859375 1.203125 -2.4375 1.203125q-1.40625 0 -2.21875 -0.953125l0 4.0l-1.46875 0.171875l0 -11.84375l1.265625 0l0.109375 1.140625q0.46875 -0.640625 1.125 -0.984375q0.65625 -0.34375 1.375 -0.34375zm-0.546875 7.609375q2.078125 0 2.078125 -3.203125q0 -3.234375 -1.890625 -3.234375q-0.625 0 -1.140625 0.375q-0.515625 0.359375 -0.90625 0.9375l0 4.109375q0.328125 0.5 0.796875 0.765625q0.484375 0.25 1.0625 0.25zm11.703384 -0.953125q0 0.515625 0.171875 0.765625q0.171875 0.25 0.53125 0.375l-0.34375 1.015625q-0.65625 -0.078125 -1.0625 -0.359375q-0.390625 -0.296875 -0.578125 -0.90625q-0.84375 1.265625 -2.515625 1.265625q-1.25 0 -1.96875 -0.703125q-0.71875 -0.703125 -0.71875 -1.84375q0 -1.34375 0.96875 -2.0625q0.96875 -0.71875 2.75 -0.71875l1.296875 0l0 -0.625q0 -0.890625 -0.4375 -1.265625q-0.4375 -0.390625 -1.328125 -0.390625q-0.921875 0 -2.265625 0.453125l-0.375 -1.078125q1.5625 -0.578125 2.90625 -0.578125q1.5 0 2.234375 0.734375q0.734375 0.71875 0.734375 2.0625l0 3.859375zm-3.453125 1.0625q1.265625 0 1.984375 -1.3125l0 -1.9375l-1.109375 0q-2.34375 0 -2.34375 1.71875q0 0.75 0.375 1.140625q0.375 0.390625 1.09375 0.390625zm8.606522 -7.71875q0.859375 0 1.546875 0.25q0.68751526 0.234375 1.3125153 0.71875l-0.625 0.921875q-0.57814026 -0.375 -1.0937653 -0.546875q-0.515625 -0.171875 -1.09375 -0.171875q-0.71875 0 -1.140625 0.296875q-0.421875 0.296875 -0.421875 0.796875q0 0.515625 0.390625 0.8125q0.40625 0.28125 1.421875 0.5625q1.4062653 0.34375 2.0937653 0.953125q0.703125 0.609375 0.703125 1.65625q0 1.25 -0.96875 1.90625q-0.96876526 0.65625 -2.3593903 0.65625q-1.921875 0 -3.171875 -1.09375l0.78125 -0.90625q1.0625 0.828125 2.359375 0.828125q0.84375 0 1.328125 -0.34375q0.484375 -0.359375 0.484375 -0.9375q0 -0.4375 -0.171875 -0.703125q-0.171875 -0.265625 -0.609375 -0.453125q-0.4375 -0.203125 -1.265625 -0.4375q-1.34375 -0.34375 -1.953125 -0.9375q-0.59375 -0.59375 -0.59375 -1.5q0 -0.65625 0.390625 -1.1875q0.390625 -0.546875 1.078125 -0.84375q0.703125 -0.296875 1.578125 -0.296875zm7.312027 0q0.859375 0 1.546875 0.25q0.6875 0.234375 1.3125 0.71875l-0.625 0.921875q-0.578125 -0.375 -1.09375 -0.546875q-0.515625 -0.171875 -1.09375 -0.171875q-0.71875 0 -1.140625 0.296875q-0.421875 0.296875 -0.421875 0.796875q0 0.515625 0.390625 0.8125q0.40625 0.28125 1.421875 0.5625q1.40625 0.34375 2.09375 0.953125q0.703125 0.609375 0.703125 1.65625q0 1.25 -0.96875 1.90625q-0.96875 0.65625 -2.359375 0.65625q-1.921875 0 -3.171875 -1.09375l0.78125 -0.90625q1.0625 0.828125 2.359375 0.828125q0.84375 0 1.328125 -0.34375q0.484375 -0.359375 0.484375 -0.9375q0 -0.4375 -0.171875 -0.703125q-0.171875 -0.265625 -0.609375 -0.453125q-0.4375 -0.203125 -1.265625 -0.4375q-1.34375 -0.34375 -1.953125 -0.9375q-0.59375 -0.59375 -0.59375 -1.5q0 -0.65625 0.390625 -1.1875q0.390625 -0.546875 1.078125 -0.84375q0.703125 -0.296875 1.578125 -0.296875zm11.55014 4.15625q0 0.375 -0.03125 0.75l-5.375 0q0.09375 1.40625 0.703125 2.0625q0.609375 0.640625 1.5625 0.640625q0.609375 0 1.125 -0.171875q0.515625 -0.171875 1.0625 -0.5625l0.640625 0.890625q-1.34375 1.046875 -2.9375 1.046875q-1.765625 0 -2.75 -1.140625q-0.984375 -1.15625 -0.984375 -3.171875q0 -1.3125 0.421875 -2.328125q0.4375 -1.015625 1.21875 -1.59375q0.796875 -0.578125 1.875 -0.578125q1.671875 0 2.5625 1.109375q0.90625 1.09375 0.90625 3.046875zm-1.453125 -0.421875q0 -1.25 -0.5 -1.90625q-0.5 -0.65625 -1.484375 -0.65625q-1.8125 0 -1.96875 2.65625l3.953125 0l0 -0.09375zm6.095001 -3.734375q0.859375 0 1.546875 0.25q0.6875 0.234375 1.3125 0.71875l-0.625 0.921875q-0.578125 -0.375 -1.09375 -0.546875q-0.515625 -0.171875 -1.09375 -0.171875q-0.71875 0 -1.140625 0.296875q-0.421875 0.296875 -0.421875 0.796875q0 0.515625 0.390625 0.8125q0.40625 0.28125 1.421875 0.5625q1.40625 0.34375 2.09375 0.953125q0.703125 0.609375 0.703125 1.65625q0 1.25 -0.96875 1.90625q-0.96875 0.65625 -2.359375 0.65625q-1.921875 0 -3.171875 -1.09375l0.78125 -0.90625q1.0625 0.828125 2.359375 0.828125q0.84375 0 1.328125 -0.34375q0.484375 -0.359375 0.484375 -0.9375q0 -0.4375 -0.171875 -0.703125q-0.171875 -0.265625 -0.609375 -0.453125q-0.4375 -0.203125 -1.265625 -0.4375q-1.34375 -0.34375 -1.953125 -0.9375q-0.59375 -0.59375 -0.59375 -1.5q0 -0.65625 0.390625 -1.1875q0.390625 -0.546875 1.078125 -0.84375q0.703125 -0.296875 1.578125 -0.296875z" fill-rule="nonzero"/><path fill="#f0e9ff" d="m23.120735 33.02887l136.34647 0l0 61.669296l-136.34647 0z" fill-rule="evenodd"/><path stroke="#000000" stroke-width="1.0" stroke-linejoin="round" stroke-linecap="butt" d="m23.120735 33.02887l136.34647 0l0 61.669296l-136.34647 0z" fill-rule="evenodd"/><path fill="#000000" d="m77.98113 70.783516l-2.375 0l-5.21875 -10.90625q0.109375 1.28125 0.171875 2.375q0.078125 1.09375 0.078125 2.640625l0 5.890625l-1.671875 0l0 -12.859375l2.3125 0l5.28125 10.9375q-0.046875 -0.484375 -0.140625 -1.6875q-0.09375 -1.21875 -0.09375 -2.234375l0 -7.015625l1.65625 0l0 12.859375zm8.320343 -13.078125q1.625 0 2.84375 0.78125q1.21875 0.765625 1.90625 2.265625q0.6875 1.484375 0.6875 3.609375q0 2.09375 -0.6875 3.59375q-0.6875 1.484375 -1.90625 2.265625q-1.21875 0.78125 -2.84375 0.78125q-1.625 0 -2.84375 -0.765625q-1.21875 -0.765625 -1.90625 -2.25q-0.671875 -1.5 -0.671875 -3.609375q0 -2.0625 0.671875 -3.578125q0.6875 -1.515625 1.90625 -2.296875q1.234375 -0.796875 2.84375 -0.796875zm0 1.453125q-1.671875 0 -2.609375 1.28125q-0.9375 1.265625 -0.9375 3.9375q0 2.671875 0.9375 3.921875q0.953125 1.25 2.609375 1.25q3.546875 0 3.546875 -5.1875q0 -5.203125 -3.546875 -5.203125zm17.332 11.625l-2.375 0l-5.21875 -10.90625q0.109375 1.28125 0.171875 2.375q0.078125 1.09375 0.078125 2.640625l0 5.890625l-1.671875 0l0 -12.859375l2.3125 0l5.28125 10.9375q-0.046875 -0.484375 -0.140625 -1.6875q-0.09375 -1.21875 -0.09375 -2.234375l0 -7.015625l1.65625 0l0 12.859375zm10.695343 -12.859375l-0.203125 1.421875l-4.984375 0l0 4.203125l4.328125 0l0 1.40625l-4.328125 0l0 4.40625l5.328125 0l0 1.421875l-7.109375 0l0 -12.859375l6.96875 0z" fill-rule="nonzero"/><path fill="#f0e9ff" d="m315.17322 33.02887l136.34647 0l0 61.669296l-136.34647 0z" fill-rule="evenodd"/><path stroke="#000000" stroke-width="1.0" stroke-linejoin="round" stroke-linecap="butt" d="m315.17322 33.02887l136.34647 0l0 61.669296l-136.34647 0z" fill-rule="evenodd"/><path fill="#000000" d="m334.31128 57.92414l0 12.859375l-1.78125 0l0 -12.859375l1.78125 0zm12.737976 12.859375l-2.375 0l-5.21875 -10.90625q0.109375 1.28125 0.171875 2.375q0.078125 1.09375 0.078125 2.640625l0 5.890625l-1.671875 0l0 -12.859375l2.3125 0l5.28125 10.9375q-0.046875 -0.484375 -0.140625 -1.6875q-0.09375 -1.21875 -0.09375 -2.234375l0 -7.015625l1.65625 0l0 12.859375zm8.226593 -13.078125q1.15625 0 1.953125 0.296875q0.796875 0.296875 1.609375 0.96875l-0.96875 1.140625q-1.171875 -0.953125 -2.484375 -0.953125q-1.59375 0 -2.578125 1.234375q-0.984375 1.234375 -0.984375 3.953125q0 2.65625 0.96875 3.921875q0.96875 1.25 2.578125 1.25q0.828125 0 1.4375 -0.28125q0.609375 -0.28125 1.3125 -0.78125l0.875 1.109375q-0.59375 0.625 -1.53125 1.03125q-0.9375 0.40625 -2.140625 0.40625q-1.578125 0 -2.796875 -0.765625q-1.21875 -0.78125 -1.90625 -2.28125q-0.671875 -1.5 -0.671875 -3.609375q0 -2.109375 0.703125 -3.609375q0.703125 -1.5 1.921875 -2.265625q1.21875 -0.765625 2.703125 -0.765625zm10.167938 0q1.625 0 2.84375 0.78125q1.21875 0.765625 1.90625 2.265625q0.6875 1.484375 0.6875 3.609375q0 2.09375 -0.6875 3.59375q-0.6875 1.484375 -1.90625 2.265625q-1.21875 0.78125 -2.84375 0.78125q-1.625 0 -2.84375 -0.765625q-1.21875 -0.765625 -1.90625 -2.25q-0.671875 -1.5 -0.671875 -3.609375q0 -2.0625 0.671875 -3.578125q0.6875 -1.515625 1.90625 -2.296875q1.234375 -0.796875 2.84375 -0.796875zm0 1.453125q-1.671875 0 -2.609375 1.28125q-0.9375 1.265625 -0.9375 3.9375q0 2.671875 0.9375 3.921875q0.953125 1.25 2.609375 1.25q3.546875 0 3.546875 -5.1875q0 -5.203125 -3.546875 -5.203125zm19.6857 11.625l-1.71875 0l-0.453125 -5.796875q-0.28125 -3.421875 -0.3125 -5.25l-2.78125 9.59375l-1.65625 0l-2.9375 -9.609375q0 2.328125 -0.234375 5.390625l-0.4375 5.671875l-1.671875 0l1.0625 -12.859375l2.390625 0l2.703125 9.359375l2.578125 -9.359375l2.40625 0l1.0625 12.859375zm6.4052124 -12.859375q2.375 0 3.6875 1.0q1.3125 1.0 1.3125 2.984375q0 2.109375 -1.375 3.140625q-1.359375 1.015625 -3.609375 1.015625l-1.625 0l0 4.71875l-1.78125 0l0 -12.859375l3.390625 0zm-0.0625 6.734375q1.546875 0 2.359375 -0.59375q0.8125 -0.59375 0.8125 -2.140625q0 -1.390625 -0.8125 -2.0q-0.8125 -0.609375 -2.328125 -0.609375l-1.578125 0l0 5.34375l1.546875 0zm9.292389 -6.734375l0 11.3125l5.28125 0l-0.203125 1.546875l-6.859375 0l0 -12.859375l1.78125 0zm14.4783325 0l-0.203125 1.421875l-4.984375 0l0 4.203125l4.328125 0l0 1.40625l-4.328125 0l0 4.40625l5.328125 0l0 1.421875l-7.109375 0l0 -12.859375l6.96875 0zm10.606079 0l-0.1875 1.515625l-3.5625 0l0 11.34375l-1.765625 0l0 -11.34375l-3.65625 0l0 -1.515625l9.171875 0zm9.020294 0l-0.203125 1.421875l-4.984375 0l0 4.203125l4.328125 0l0 1.40625l-4.328125 0l0 4.40625l5.328125 0l0 1.421875l-7.109375 0l0 -12.859375l6.96875 0z" fill-rule="nonzero"/><path fill="#000000" fill-opacity="0.0" d="m159.4672 63.863518l155.71652 0" fill-rule="evenodd"/><path stroke="#000000" stroke-width="2.0" stroke-linejoin="round" stroke-linecap="butt" d="m159.4672 63.863518l143.71652 0" fill-rule="evenodd"/><path fill="#000000" stroke="#000000" stroke-width="2.0" stroke-linecap="butt" d="m303.18372 67.166985l9.076202 -3.3034668l-9.076202 -3.3034668z" fill-rule="evenodd"/><path fill="#000000" fill-opacity="0.0" d="m174.24147 9.259843l130.26772 0l0 58.173225l-130.26772 0z" fill-rule="evenodd"/><path fill="#000000" d="m209.76399 27.791718q1.125 0.203125 1.828125 0.8125q0.71875 0.59375 0.71875 1.875q0 3.140625 -4.375 3.140625l-3.046875 0l0 -11.03125l2.609375 0q2.09375 0 3.203125 0.703125q1.125 0.6875 1.125 2.09375q0 0.953125 -0.609375 1.59375q-0.59375 0.640625 -1.453125 0.8125zm-3.34375 -4.0l0 3.46875l1.65625 0q0.96875 0 1.578125 -0.453125q0.609375 -0.46875 0.609375 -1.3125q0 -0.96875 -0.640625 -1.328125q-0.640625 -0.375 -1.953125 -0.375l-1.25 0zm1.515625 8.609375q1.34375 0 2.046875 -0.390625q0.71875 -0.40625 0.71875 -1.53125q0 -1.078125 -0.6875 -1.5625q-0.6875 -0.484375 -1.796875 -0.484375l-1.796875 0l0 3.96875l1.515625 0zm10.274902 -7.40625q0.4375 0 0.828125 0.09375l-0.265625 1.4375q-0.390625 -0.09375 -0.734375 -0.09375q-0.796875 0 -1.28125 0.578125q-0.46875 0.578125 -0.75 1.796875l0 4.8125l-1.46875 0l0 -8.4375l1.265625 0l0.140625 1.71875q0.34375 -0.9375 0.921875 -1.421875q0.578125 -0.484375 1.34375 -0.484375zm5.1960144 0q1.78125 0 2.765625 1.1875q0.984375 1.1875 0.984375 3.21875q0 1.3125 -0.453125 2.3125q-0.453125 1.0 -1.296875 1.546875q-0.84375 0.546875 -2.015625 0.546875q-1.78125 0 -2.78125 -1.171875q-0.984375 -1.1875 -0.984375 -3.21875q0 -1.3125 0.453125 -2.3125q0.453125 -1.0 1.296875 -1.546875q0.84375 -0.5625 2.03125 -0.5625zm0 1.1875q-2.1875 0 -2.1875 3.234375q0 3.21875 2.171875 3.21875q2.171875 0 2.171875 -3.234375q0 -3.21875 -2.15625 -3.21875zm11.699646 5.46875q0 0.515625 0.171875 0.765625q0.171875 0.25 0.53125 0.375l-0.34375 1.015625q-0.65625 -0.078125 -1.0625 -0.359375q-0.390625 -0.296875 -0.578125 -0.90625q-0.84375 1.265625 -2.515625 1.265625q-1.25 0 -1.96875 -0.703125q-0.71875 -0.703125 -0.71875 -1.84375q0 -1.34375 0.96875 -2.0625q0.96875 -0.71875 2.75 -0.71875l1.296875 0l0 -0.625q0 -0.890625 -0.4375 -1.265625q-0.4375 -0.390625 -1.328125 -0.390625q-0.921875 0 -2.265625 0.453125l-0.375 -1.078125q1.5625 -0.578125 2.90625 -0.578125q1.5 0 2.234375 0.734375q0.734375 0.71875 0.734375 2.0625l0 3.859375zm-3.453125 1.0625q1.265625 0 1.984375 -1.3125l0 -1.9375l-1.109375 0q-2.34375 0 -2.34375 1.71875q0 0.75 0.375 1.140625q0.375 0.390625 1.09375 0.390625zm13.0009 -10.921875l0 11.828125l-1.296875 0l-0.140625 -1.171875q-0.421875 0.640625 -1.046875 1.0q-0.625 0.359375 -1.390625 0.359375q-1.5 0 -2.34375 -1.171875q-0.84375 -1.1875 -0.84375 -3.1875q0 -1.296875 0.40625 -2.296875q0.40625 -1.015625 1.15625 -1.578125q0.75 -0.578125 1.75 -0.578125q1.296875 0 2.28125 1.046875l0 -4.421875l1.46875 0.171875zm-3.546875 10.859375q0.671875 0 1.140625 -0.3125q0.484375 -0.3125 0.9375 -0.9375l0 -4.140625q-0.421875 -0.53125 -0.890625 -0.8125q-0.46875 -0.28125 -1.0625 -0.28125q-0.984375 0 -1.515625 0.8125q-0.53125 0.8125 -0.53125 2.4375q0 1.625 0.484375 2.4375q0.5 0.796875 1.4375 0.796875zm9.661774 -7.65625q0.75 0 1.375 0.21875q0.625 0.21875 1.203125 0.6875l-0.703125 0.9375q-0.453125 -0.328125 -0.875 -0.46875q-0.421875 -0.15625 -0.9375 -0.15625q-1.03125 0 -1.59375 0.8125q-0.5625 0.8125 -0.5625 2.421875q0 1.59375 0.546875 2.359375q0.5625 0.75 1.609375 0.75q0.5 0 0.90625 -0.140625q0.421875 -0.15625 0.9375 -0.5l0.671875 0.96875q-1.15625 0.921875 -2.578125 0.921875q-1.71875 0 -2.703125 -1.140625q-0.984375 -1.15625 -0.984375 -3.1875q0 -1.34375 0.453125 -2.34375q0.453125 -1.015625 1.265625 -1.578125q0.828125 -0.5625 1.96875 -0.5625zm10.097382 6.65625q0 0.515625 0.171875 0.765625q0.171875 0.25 0.53125 0.375l-0.34375 1.015625q-0.65625 -0.078125 -1.0625 -0.359375q-0.390625 -0.296875 -0.578125 -0.90625q-0.84375 1.265625 -2.515625 1.265625q-1.25 0 -1.96875 -0.703125q-0.71875 -0.703125 -0.71875 -1.84375q0 -1.34375 0.96875 -2.0625q0.96875 -0.71875 2.75 -0.71875l1.296875 0l0 -0.625q0 -0.890625 -0.4375 -1.265625q-0.4375 -0.390625 -1.328125 -0.390625q-0.921875 0 -2.265625 0.453125l-0.375 -1.078125q1.5625 -0.578125 2.90625 -0.578125q1.5 0 2.234375 0.734375q0.734375 0.71875 0.734375 2.0625l0 3.859375zm-3.453125 1.0625q1.265625 0 1.984375 -1.3125l0 -1.9375l-1.109375 0q-2.34375 0 -2.34375 1.71875q0 0.75 0.375 1.140625q0.375 0.390625 1.09375 0.390625zm8.606506 -7.71875q0.859375 0 1.546875 0.25q0.6875 0.234375 1.3125 0.71875l-0.625 0.921875q-0.578125 -0.375 -1.09375 -0.546875q-0.515625 -0.171875 -1.09375 -0.171875q-0.71875 0 -1.140625 0.296875q-0.421875 0.296875 -0.421875 0.796875q0 0.515625 0.390625 0.8125q0.40625 0.28125 1.421875 0.5625q1.40625 0.34375 2.09375 0.953125q0.703125 0.609375 0.703125 1.65625q0 1.25 -0.96875 1.90625q-0.96875 0.65625 -2.359375 0.65625q-1.921875 0 -3.171875 -1.09375l0.78125 -0.90625q1.0625 0.828125 2.359375 0.828125q0.84375 0 1.328125 -0.34375q0.484375 -0.359375 0.484375 -0.9375q0 -0.4375 -0.171875 -0.703125q-0.171875 -0.265625 -0.609375 -0.453125q-0.4375 -0.203125 -1.265625 -0.4375q-1.34375 -0.34375 -1.953125 -0.9375q-0.59375 -0.59375 -0.59375 -1.5q0 -0.65625 0.390625 -1.1875q0.390625 -0.546875 1.078125 -0.84375q0.703125 -0.296875 1.578125 -0.296875zm9.440765 8.234375q-0.84375 0.578125 -1.890625 0.578125q-1.078125 0 -1.6875 -0.609375q-0.59375 -0.625 -0.59375 -1.78125l0 -5.09375l-1.46875 0l0 -1.140625l1.46875 0l0 -1.90625l1.484375 -0.171875l0 2.078125l2.0 0l-0.171875 1.140625l-1.828125 0l0 5.03125q0 0.65625 0.21875 0.953125q0.234375 0.28125 0.78125 0.28125q0.5 0 1.125 -0.328125l0.5625 0.96875z" fill-rule="nonzero"/><path fill="#000000" d="m201.14798 52.819843l-0.828125 -2.765625l-4.171875 0l-0.84375 2.765625l-1.53125 0l3.53125 -11.03125l1.921875 0l3.53125 11.03125l-1.609375 0zm-4.640625 -4.0l3.4375 0l-1.703125 -5.765625l-1.734375 5.765625zm11.168015 -0.671875l-1.703125 0l0 4.671875l-1.53125 0l0 -11.03125l2.90625 0q2.0625 0 3.125 0.796875q1.0625 0.78125 1.0625 2.328125q0 1.15625 -0.59375 1.875q-0.59375 0.71875 -1.796875 1.09375l2.984375 4.9375l-1.8125 0l-2.640625 -4.671875zm-0.171875 -1.171875q1.203125 0 1.8125 -0.484375q0.609375 -0.484375 0.609375 -1.578125q0 -1.015625 -0.625 -1.46875q-0.609375 -0.46875 -1.96875 -0.46875l-1.359375 0l0 4.0l1.53125 0zm9.523773 -5.1875q2.046875 0 3.15625 0.859375q1.125 0.859375 1.125 2.5625q0 1.796875 -1.171875 2.6875q-1.15625 0.875 -3.09375 0.875l-1.390625 0l0 4.046875l-1.53125 0l0 -11.03125l2.90625 0zm-0.046875 5.78125q1.328125 0 2.015625 -0.5q0.703125 -0.515625 0.703125 -1.84375q0 -1.1875 -0.703125 -1.71875q-0.6875 -0.53125 -1.984375 -0.53125l-1.359375 0l0 4.59375l1.328125 0zm13.911026 0.578125l-1.703125 0l0 4.671875l-1.53125 0l0 -11.03125l2.90625 0q2.0625 0 3.125 0.796875q1.0625 0.78125 1.0625 2.328125q0 1.15625 -0.59375 1.875q-0.59375 0.71875 -1.796875 1.09375l2.984375 4.9375l-1.8125 0l-2.640625 -4.671875zm-0.171875 -1.171875q1.203125 0 1.8125 -0.484375q0.609375 -0.484375 0.609375 -1.578125q0 -1.015625 -0.625 -1.46875q-0.609375 -0.46875 -1.96875 -0.46875l-1.359375 0l0 4.0l1.53125 0zm12.674393 1.375q0 0.375 -0.03125 0.75l-5.375 0q0.09375 1.40625 0.703125 2.0625q0.609375 0.640625 1.5625 0.640625q0.609375 0 1.125 -0.171875q0.515625 -0.171875 1.0625 -0.5625l0.640625 0.890625q-1.34375 1.046875 -2.9375 1.046875q-1.765625 0 -2.75 -1.140625q-0.984375 -1.15625 -0.984375 -3.171875q0 -1.3125 0.421875 -2.328125q0.4375 -1.015625 1.21875 -1.59375q0.796875 -0.578125 1.875 -0.578125q1.671875 0 2.5625 1.109375q0.90625 1.09375 0.90625 3.046875zm-1.453125 -0.421875q0 -1.25 -0.5 -1.90625q-0.5 -0.65625 -1.484375 -0.65625q-1.8125 0 -1.96875 2.65625l3.953125 0l0 -0.09375zm10.3293915 -3.546875l0 11.84375l-1.46875 -0.171875l0 -4.359375q-0.421875 0.625 -1.046875 0.96875q-0.609375 0.34375 -1.359375 0.34375q-1.5 0 -2.34375 -1.171875q-0.84375 -1.1875 -0.84375 -3.1875q0 -1.296875 0.40625 -2.296875q0.40625 -1.015625 1.15625 -1.578125q0.75 -0.578125 1.75 -0.578125q1.34375 0 2.375 1.140625l0.109375 -0.953125l1.265625 0zm-3.546875 7.46875q0.671875 0 1.140625 -0.3125q0.484375 -0.3125 0.9375 -0.9375l0 -4.140625q-0.421875 -0.53125 -0.890625 -0.8125q-0.46875 -0.28125 -1.0625 -0.28125q-0.984375 0 -1.515625 0.8125q-0.53125 0.8125 -0.53125 2.4375q0 1.625 0.484375 2.4375q0.5 0.796875 1.4375 0.796875zm12.864899 0.96875l-1.265625 0l-0.109375 -1.3125q-0.484375 0.78125 -1.109375 1.140625q-0.625 0.359375 -1.515625 0.359375q-1.109375 0 -1.734375 -0.671875q-0.625 -0.671875 -0.625 -1.90625l0 -6.046875l1.46875 0l0 5.890625q0 0.859375 0.296875 1.234375q0.3125 0.359375 1.0 0.359375q1.234375 0 2.109375 -1.46875l0 -6.015625l1.484375 0l0 8.4375zm9.405762 -4.46875q0 0.375 -0.03125 0.75l-5.375 0q0.09375 1.40625 0.703125 2.0625q0.609375 0.640625 1.5625 0.640625q0.609375 0 1.125 -0.171875q0.515625 -0.171875 1.0625 -0.5625l0.640625 0.890625q-1.34375 1.046875 -2.9375 1.046875q-1.765625 0 -2.75 -1.140625q-0.984375 -1.15625 -0.984375 -3.171875q0 -1.3125 0.421875 -2.328125q0.4375 -1.015625 1.21875 -1.59375q0.796875 -0.578125 1.875 -0.578125q1.671875 0 2.5625 1.109375q0.90625 1.09375 0.90625 3.046875zm-1.453125 -0.421875q0 -1.25 -0.5 -1.90625q-0.5 -0.65625 -1.484375 -0.65625q-1.8125 0 -1.96875 2.65625l3.953125 0l0 -0.09375zm6.0950317 -3.734375q0.859375 0 1.546875 0.25q0.6875 0.234375 1.3125 0.71875l-0.625 0.921875q-0.578125 -0.375 -1.09375 -0.546875q-0.515625 -0.171875 -1.09375 -0.171875q-0.71875 0 -1.140625 0.296875q-0.421875 0.296875 -0.421875 0.796875q0 0.515625 0.390625 0.8125q0.40625 0.28125 1.421875 0.5625q1.40625 0.34375 2.09375 0.953125q0.703125 0.609375 0.703125 1.65625q0 1.25 -0.96875 1.90625q-0.96875 0.65625 -2.359375 0.65625q-1.921875 0 -3.171875 -1.09375l0.78125 -0.90625q1.0625 0.828125 2.359375 0.828125q0.84375 0 1.328125 -0.34375q0.484375 -0.359375 0.484375 -0.9375q0 -0.4375 -0.171875 -0.703125q-0.171875 -0.265625 -0.609375 -0.453125q-0.4375 -0.203125 -1.265625 -0.4375q-1.34375 -0.34375 -1.953125 -0.9375q-0.59375 -0.59375 -0.59375 -1.5q0 -0.65625 0.390625 -1.1875q0.390625 -0.546875 1.078125 -0.84375q0.703125 -0.296875 1.578125 -0.296875zm9.440765 8.234375q-0.84375 0.578125 -1.890625 0.578125q-1.078125 0 -1.6875 -0.609375q-0.59375 -0.625 -0.59375 -1.78125l0 -5.09375l-1.46875 0l0 -1.140625l1.46875 0l0 -1.90625l1.484375 -0.171875l0 2.078125l2.0 0l-0.171875 1.140625l-1.828125 0l0 5.03125q0 0.65625 0.21875 0.953125q0.234375 0.28125 0.78125 0.28125q0.5 0 1.125 -0.328125l0.5625 0.96875z" fill-rule="nonzero"/><path fill="#eaffe2" d="m315.17322 166.49869l136.34647 0l0 61.669296l-136.34647 0z" fill-rule="evenodd"/><path stroke="#000000" stroke-width="1.0" stroke-linejoin="round" stroke-linecap="butt" d="m315.17322 166.49869l136.34647 0l0 61.669296l-136.34647 0z" fill-rule="evenodd"/><path fill="#000000" d="m340.882 198.8002l-2.0 0l0 5.453125l-1.78125 0l0 -12.859375l3.390625 0q2.40625 0 3.640625 0.921875q1.234375 0.90625 1.234375 2.71875q0 1.34375 -0.6875 2.1875q-0.6875 0.84375 -2.09375 1.265625l3.484375 5.765625l-2.109375 0l-3.078125 -5.453125zm-0.21875 -1.359375q1.40625 0 2.109375 -0.5625q0.71875 -0.578125 0.71875 -1.84375q0 -1.1875 -0.71875 -1.71875q-0.71875 -0.53125 -2.3125 -0.53125l-1.578125 0l0 4.65625l1.78125 0zm14.693268 -6.046875l-0.203125 1.421875l-4.984375 0l0 4.203125l4.328125 0l0 1.40625l-4.328125 0l0 4.40625l5.328125 0l0 1.421875l-7.109375 0l0 -12.859375l6.96875 0zm9.871735 12.859375l-0.96875 -3.234375l-4.875 0l-0.96875 3.234375l-1.796875 0l4.125 -12.859375l2.234375 0l4.109375 12.859375l-1.859375 0zm-5.421875 -4.671875l4.015625 0l-2.0 -6.703125l-2.015625 6.703125zm13.565857 -8.40625q1.15625 0 1.953125 0.296875q0.796875 0.296875 1.609375 0.96875l-0.96875 1.140625q-1.171875 -0.953125 -2.484375 -0.953125q-1.59375 0 -2.578125 1.234375q-0.984375 1.234375 -0.984375 3.953125q0 2.65625 0.96875 3.921875q0.96875 1.25 2.578125 1.25q0.828125 0 1.4375 -0.28125q0.609375 -0.28125 1.3125 -0.78125l0.875 1.109375q-0.59375 0.625 -1.53125 1.03125q-0.9375 0.40625 -2.140625 0.40625q-1.578125 0 -2.796875 -0.765625q-1.21875 -0.78125 -1.90625 -2.28125q-0.671875 -1.5 -0.671875 -3.609375q0 -2.109375 0.703125 -3.609375q0.703125 -1.5 1.921875 -2.265625q1.21875 -0.765625 2.703125 -0.765625zm13.13501 13.078125l0 -6.03125l-5.40625 0l0 6.03125l-1.78125 0l0 -12.859375l1.78125 0l0 5.375l5.40625 0l0 -5.375l1.78125 0l0 12.859375l-1.78125 0zm12.358124 0l-0.96875 -3.234375l-4.875 0l-0.96875 3.234375l-1.796875 0l4.125 -12.859375l2.234375 0l4.109375 12.859375l-1.859375 0zm-5.421875 -4.671875l4.015625 0l-2.0 -6.703125l-2.015625 6.703125zm14.924408 -2.125q1.328125 0.234375 2.140625 0.9375q0.828125 0.703125 0.828125 2.203125q0 3.65625 -5.09375 3.65625l-3.546875 0l0 -12.859375l3.046875 0q2.4375 0 3.734375 0.8125q1.296875 0.796875 1.296875 2.4375q0 1.125 -0.703125 1.875q-0.6875 0.734375 -1.703125 0.9375zm-3.890625 -4.65625l0 4.046875l1.9375 0q1.125 0 1.84375 -0.53125q0.71875 -0.546875 0.71875 -1.546875q0 -1.109375 -0.765625 -1.53125q-0.75 -0.4375 -2.28125 -0.4375l-1.453125 0zm1.765625 10.03125q1.578125 0 2.40625 -0.453125q0.828125 -0.46875 0.828125 -1.78125q0 -1.265625 -0.8125 -1.828125q-0.796875 -0.5625 -2.078125 -0.5625l-2.109375 0l0 4.625l1.765625 0zm9.577393 -11.4375l0 11.3125l5.28125 0l-0.203125 1.546875l-6.859375 0l0 -12.859375l1.78125 0zm14.478302 0l-0.203125 1.421875l-4.984375 0l0 4.203125l4.328125 0l0 1.40625l-4.328125 0l0 4.40625l5.328125 0l0 1.421875l-7.109375 0l0 -12.859375l6.96875 0z" fill-rule="nonzero"/><path fill="#f0e9ff" d="m23.120735 166.49869l136.34647 0l0 61.669296l-136.34647 0z" fill-rule="evenodd"/><path stroke="#000000" stroke-width="1.0" stroke-linejoin="round" stroke-linecap="butt" d="m23.120735 166.49869l136.34647 0l0 61.669296l-136.34647 0z" fill-rule="evenodd"/><path fill="#000000" d="m72.109764 191.1752q1.296875 0 2.203125 0.375q0.921875 0.359375 1.78125 1.125l-0.96875 1.078125q-0.734375 -0.578125 -1.4375 -0.84375q-0.703125 -0.28125 -1.5 -0.28125q-1.0 0 -1.65625 0.46875q-0.65625 0.46875 -0.65625 1.359375q0 0.5625 0.21875 0.953125q0.234375 0.375 0.828125 0.703125q0.609375 0.3125 1.765625 0.65625q1.21875 0.375 2.015625 0.8125q0.8125 0.421875 1.296875 1.1875q0.5 0.75 0.5 1.90625q0 1.109375 -0.546875 1.96875q-0.546875 0.859375 -1.59375 1.34375q-1.03125 0.484375 -2.453125 0.484375q-2.65625 0 -4.359375 -1.65625l0.96875 -1.078125q0.78125 0.625 1.578125 0.953125q0.8125 0.328125 1.796875 0.328125q1.1875 0 1.96875 -0.578125q0.796875 -0.59375 0.796875 -1.71875q0 -0.625 -0.25 -1.046875q-0.234375 -0.421875 -0.828125 -0.75q-0.59375 -0.34375 -1.703125 -0.671875q-1.984375 -0.609375 -2.90625 -1.4375q-0.90625 -0.84375 -0.90625 -2.28125q0 -0.96875 0.515625 -1.734375q0.515625 -0.765625 1.4375 -1.1875q0.921875 -0.4375 2.09375 -0.4375zm14.178879 0.21875l-0.1875 1.515625l-3.5625 0l0 11.34375l-1.765625 0l0 -11.34375l-3.65625 0l0 -1.515625l9.171875 0zm7.9775696 12.859375l-0.96875 -3.234375l-4.875 0l-0.96875 3.234375l-1.796875 0l4.125 -12.859375l2.234375 0l4.109375 12.859375l-1.859375 0zm-5.421875 -4.671875l4.015625 0l-2.0 -6.703125l-2.015625 6.703125zm11.033783 -8.1875l0 11.3125l5.28125 0l-0.203125 1.546875l-6.859375 0l0 -12.859375l1.78125 0zm14.478317 0l-0.203125 1.421875l-4.984375 0l0 4.203125l4.328125 0l0 1.40625l-4.328125 0l0 4.40625l5.328125 0l0 1.421875l-7.109375 0l0 -12.859375l6.96875 0z" fill-rule="nonzero"/><path fill="#f0e9ff" d="m23.120735 294.2756l136.34647 0l0 61.66928l-136.34647 0z" fill-rule="evenodd"/><path stroke="#000000" stroke-width="1.0" stroke-linejoin="round" stroke-linecap="butt" d="m23.120735 294.2756l136.34647 0l0 61.66928l-136.34647 0z" fill-rule="evenodd"/><path fill="#000000" d="m70.17941 319.17087q2.921875 0 4.671875 1.359375q1.765625 1.34375 1.765625 5.0q0 3.578125 -1.765625 5.046875q-1.75 1.453125 -4.28125 1.453125l-3.078125 0l0 -12.859375l2.6875 0zm-0.90625 1.421875l0 10.03125l1.4375 0q1.78125 0 2.90625 -1.09375q1.125 -1.09375 1.125 -4.0q0 -2.03125 -0.578125 -3.109375q-0.578125 -1.09375 -1.484375 -1.453125q-0.890625 -0.375 -2.109375 -0.375l-1.296875 0zm17.202133 -1.421875l-0.203125 1.421875l-4.984375 0l0 4.203125l4.328125 0l0 1.40625l-4.328125 0l0 4.40625l5.328125 0l0 1.421875l-7.109375 0l0 -12.859375l6.96875 0zm4.793602 0l0 11.3125l5.28125 0l-0.203125 1.546875l-6.859375 0l0 -12.859375l1.78125 0zm14.368942 12.859375l-0.96875 -3.234375l-4.875 0l-0.96875 3.234375l-1.796875 0l4.125 -12.859375l2.234375 0l4.109375 12.859375l-1.859375 0zm-5.421875 -4.671875l4.015625 0l-2.0 -6.703125l-2.015625 6.703125zm16.65036 -8.1875l-4.140625 7.921875l0 4.9375l-1.796875 0l0 -4.921875l-4.140625 -7.9375l1.953125 0l3.140625 6.359375l3.140625 -6.359375l1.84375 0z" fill-rule="nonzero"/><path fill="#f0e9ff" d="m315.17322 294.2756l136.34647 0l0 61.66928l-136.34647 0z" fill-rule="evenodd"/><path stroke="#000000" stroke-width="1.0" stroke-linejoin="round" stroke-linecap="butt" d="m315.17322 294.2756l136.34647 0l0 61.66928l-136.34647 0z" fill-rule="evenodd"/><path fill="#000000" d="m360.50018 319.17087q2.375 0 3.6875 1.0q1.3125 1.0 1.3125 2.984375q0 2.109375 -1.375 3.140625q-1.359375 1.015625 -3.609375 1.015625l-1.625 0l0 4.71875l-1.78125 0l0 -12.859375l3.390625 0zm-0.0625 6.734375q1.546875 0 2.359375 -0.59375q0.8125 -0.59375 0.8125 -2.140625q0 -1.390625 -0.8125 -2.0q-0.8125 -0.609375 -2.328125 -0.609375l-1.578125 0l0 5.34375l1.546875 0zm11.292419 0.671875l-2.0 0l0 5.453125l-1.78125 0l0 -12.859375l3.390625 0q2.40625 0 3.640625 0.921875q1.234375 0.90625 1.234375 2.71875q0 1.34375 -0.6875 2.1875q-0.6875 0.84375 -2.09375 1.265625l3.484375 5.765625l-2.109375 0l-3.078125 -5.453125zm-0.21875 -1.359375q1.40625 0 2.109375 -0.5625q0.71875 -0.578125 0.71875 -1.84375q0 -1.1875 -0.71875 -1.71875q-0.71875 -0.53125 -2.3125 -0.53125l-1.578125 0l0 4.65625l1.78125 0zm12.150269 -6.265625q1.625 0 2.84375 0.78125q1.21875 0.765625 1.90625 2.265625q0.6875 1.484375 0.6875 3.609375q0 2.09375 -0.6875 3.59375q-0.6875 1.484375 -1.90625 2.265625q-1.21875 0.78125 -2.84375 0.78125q-1.625 0 -2.84375 -0.765625q-1.21875 -0.765625 -1.90625 -2.25q-0.671875 -1.5 -0.671875 -3.609375q0 -2.0625 0.671875 -3.578125q0.6875 -1.515625 1.90625 -2.296875q1.234375 -0.796875 2.84375 -0.796875zm0 1.453125q-1.671875 0 -2.609375 1.28125q-0.9375 1.265625 -0.9375 3.9375q0 2.671875 0.9375 3.921875q0.953125 1.25 2.609375 1.25q3.546875 0 3.546875 -5.1875q0 -5.203125 -3.546875 -5.203125zm13.988251 4.828125q1.328125 0.234375 2.140625 0.9375q0.828125 0.703125 0.828125 2.203125q0 3.65625 -5.09375 3.65625l-3.546875 0l0 -12.859375l3.046875 0q2.4375 0 3.734375 0.8125q1.296875 0.796875 1.296875 2.4375q0 1.125 -0.703125 1.875q-0.6875 0.734375 -1.703125 0.9375zm-3.890625 -4.65625l0 4.046875l1.9375 0q1.125 0 1.84375 -0.53125q0.71875 -0.546875 0.71875 -1.546875q0 -1.109375 -0.765625 -1.53125q-0.75 -0.4375 -2.28125 -0.4375l-1.453125 0zm1.765625 10.03125q1.578125 0 2.40625 -0.453125q0.828125 -0.46875 0.828125 -1.78125q0 -1.265625 -0.8125 -1.828125q-0.796875 -0.5625 -2.078125 -0.5625l-2.109375 0l0 4.625l1.765625 0zm14.764893 -11.4375l-0.203125 1.421875l-4.984375 0l0 4.203125l4.328125 0l0 1.40625l-4.328125 0l0 4.40625l5.328125 0l0 1.421875l-7.109375 0l0 -12.859375l6.96875 0z" fill-rule="nonzero"/><path fill="#000000" fill-opacity="0.0" d="m315.17322 197.33333l-155.71652 0" fill-rule="evenodd"/><path stroke="#000000" stroke-width="2.0" stroke-linejoin="round" stroke-linecap="butt" d="m315.17322 197.33333l-143.71652 0" fill-rule="evenodd"/><path fill="#000000" stroke="#000000" stroke-width="2.0" stroke-linecap="butt" d="m171.4567 194.02986l-9.076202 3.3034668l9.076202 3.3034668z" fill-rule="evenodd"/><path fill="#000000" fill-opacity="0.0" d="m91.29396 228.16798l0 66.110245" fill-rule="evenodd"/><path stroke="#000000" stroke-width="2.0" stroke-linejoin="round" stroke-linecap="butt" d="m91.29396 228.16798l0 54.110245" fill-rule="evenodd"/><path fill="#000000" stroke="#000000" stroke-width="2.0" stroke-linecap="butt" d="m87.9905 282.27823l3.3034592 9.076172l3.3034668 -9.076172z" fill-rule="evenodd"/><path fill="#000000" fill-opacity="0.0" d="m159.4672 325.11023l155.71652 0" fill-rule="evenodd"/><path stroke="#000000" stroke-width="2.0" stroke-linejoin="round" stroke-linecap="butt" d="m159.4672 325.11023l143.71652 0" fill-rule="evenodd"/><path fill="#000000" stroke="#000000" stroke-width="2.0" stroke-linecap="butt" d="m303.18372 328.4137l9.076202 -3.3034668l-9.076202 -3.3034668z" fill-rule="evenodd"/><path fill="#000000" fill-opacity="0.0" d="m166.52756 319.96326l130.26773 0l0 58.173218l-130.26773 0z" fill-rule="evenodd"/><path fill="#000000" d="m213.9376 340.792q0 1.09375 -0.46875 1.9375q-0.453125 0.84375 -1.328125 1.3125q-0.859375 0.46875 -2.078125 0.46875q-1.84375 0 -2.84375 -1.015625q-1.0 -1.015625 -1.0 -2.703125l0 -7.5l1.515625 0l0 7.390625q0 1.265625 0.578125 1.90625q0.578125 0.640625 1.75 0.640625q1.1875 0 1.75 -0.625q0.578125 -0.640625 0.578125 -1.921875l0 -7.390625l1.546875 0l0 7.5zm6.9201508 -5.09375q1.15625 0 1.796875 0.6875q0.65625 0.6875 0.65625 1.890625l0 6.046875l-1.46875 0l0 -5.84375q0 -0.890625 -0.34375 -1.25q-0.328125 -0.375 -0.984375 -0.375q-0.671875 0 -1.1875 0.390625q-0.515625 0.375 -0.96875 1.09375l0 5.984375l-1.46875 0l0 -8.4375l1.265625 0l0.125 1.25q0.453125 -0.671875 1.109375 -1.046875q0.671875 -0.390625 1.46875 -0.390625zm6.8760223 0.1875l0 8.4375l-1.46875 0l0 -8.4375l1.46875 0zm-0.734375 -4.046875q0.453125 0 0.734375 0.296875q0.296875 0.28125 0.296875 0.71875q0 0.421875 -0.296875 0.703125q-0.28125 0.28125 -0.734375 0.28125q-0.453125 0 -0.75 -0.28125q-0.28125 -0.28125 -0.28125 -0.703125q0 -0.4375 0.28125 -0.71875q0.296875 -0.296875 0.75 -0.296875zm6.8557587 3.859375q0.75 0 1.375 0.21875q0.625 0.21875 1.203125 0.6875l-0.703125 0.9375q-0.453125 -0.328125 -0.875 -0.46875q-0.421875 -0.15625 -0.9375 -0.15625q-1.03125 0 -1.59375 0.8125q-0.5625 0.8125 -0.5625 2.421875q0 1.59375 0.546875 2.359375q0.5625 0.75 1.609375 0.75q0.5 0 0.90625 -0.140625q0.421875 -0.15625 0.9375 -0.5l0.671875 0.96875q-1.15625 0.921875 -2.578125 0.921875q-1.71875 0 -2.703125 -1.140625q-0.984375 -1.15625 -0.984375 -3.1875q0 -1.34375 0.453125 -2.34375q0.453125 -1.015625 1.265625 -1.578125q0.828125 -0.5625 1.96875 -0.5625zm10.097382 6.65625q0 0.515625 0.171875 0.765625q0.171875 0.25 0.53125 0.375l-0.34375 1.015625q-0.65625 -0.078125 -1.0625 -0.359375q-0.390625 -0.296875 -0.578125 -0.90625q-0.84375 1.265625 -2.515625 1.265625q-1.25 0 -1.96875 -0.703125q-0.71875 -0.703125 -0.71875 -1.84375q0 -1.34375 0.96875 -2.0625q0.96875 -0.71875 2.75 -0.71875l1.296875 0l0 -0.625q0 -0.890625 -0.4375 -1.265625q-0.4375 -0.390625 -1.328125 -0.390625q-0.921875 0 -2.265625 0.453125l-0.375 -1.078125q1.5625 -0.578125 2.90625 -0.578125q1.5 0 2.234375 0.734375q0.734375 0.71875 0.734375 2.0625l0 3.859375zm-3.453125 1.0625q1.265625 0 1.984375 -1.3125l0 -1.9375l-1.109375 0q-2.34375 0 -2.34375 1.71875q0 0.75 0.375 1.140625q0.375 0.390625 1.09375 0.390625zm8.606522 -7.71875q0.859375 0 1.546875 0.25q0.6875 0.234375 1.3125 0.71875l-0.625 0.921875q-0.578125 -0.375 -1.09375 -0.546875q-0.515625 -0.171875 -1.09375 -0.171875q-0.71875 0 -1.140625 0.296875q-0.421875 0.296875 -0.421875 0.796875q0 0.515625 0.390625 0.8125q0.40625 0.28125 1.421875 0.5625q1.40625 0.34375 2.09375 0.953125q0.703125 0.609375 0.703125 1.65625q0 1.25 -0.96875 1.90625q-0.96875 0.65625 -2.359375 0.65625q-1.921875 0 -3.171875 -1.09375l0.78125 -0.90625q1.0625 0.828125 2.359375 0.828125q0.84375 0 1.328125 -0.34375q0.484375 -0.359375 0.484375 -0.9375q0 -0.4375 -0.171875 -0.703125q-0.171875 -0.265625 -0.609375 -0.453125q-0.4375 -0.203125 -1.265625 -0.4375q-1.34375 -0.34375 -1.953125 -0.9375q-0.59375 -0.59375 -0.59375 -1.5q0 -0.65625 0.390625 -1.1875q0.390625 -0.546875 1.078125 -0.84375q0.703125 -0.296875 1.578125 -0.296875zm9.440781 8.234375q-0.84375 0.578125 -1.890625 0.578125q-1.0781403 0 -1.6875153 -0.609375q-0.59375 -0.625 -0.59375 -1.78125l0 -5.09375l-1.46875 0l0 -1.140625l1.46875 0l0 -1.90625l1.484375 -0.171875l0 2.078125l2.0000153 0l-0.171875 1.140625l-1.8281403 0l0 5.03125q0 0.65625 0.21876526 0.953125q0.234375 0.28125 0.78125 0.28125q0.5 0 1.125 -0.328125l0.5625 0.96875z" fill-rule="nonzero"/><path fill="#000000" d="m193.43408 363.52325l-0.828125 -2.765625l-4.171875 0l-0.84375 2.765625l-1.53125 0l3.53125 -11.03125l1.921875 0l3.53125 11.03125l-1.609375 0zm-4.640625 -4.0l3.4375 0l-1.703125 -5.765625l-1.734375 5.765625zm11.168015 -0.671875l-1.703125 0l0 4.671875l-1.53125 0l0 -11.03125l2.90625 0q2.0625 0 3.125 0.796875q1.0625 0.78125 1.0625 2.328125q0 1.15625 -0.59375 1.875q-0.59375 0.71875 -1.796875 1.09375l2.984375 4.9375l-1.8125 0l-2.640625 -4.671875zm-0.171875 -1.171875q1.203125 0 1.8125 -0.484375q0.609375 -0.484375 0.609375 -1.578125q0 -1.015625 -0.625 -1.46875q-0.609375 -0.46875 -1.96875 -0.46875l-1.359375 0l0 4.0l1.53125 0zm9.523773 -5.1875q2.046875 0 3.15625 0.859375q1.125 0.859375 1.125 2.5625q0 1.796875 -1.171875 2.6875q-1.15625 0.875 -3.09375 0.875l-1.390625 0l0 4.046875l-1.53125 0l0 -11.03125l2.90625 0zm-0.046875 5.78125q1.328125 0 2.015625 -0.5q0.703125 -0.515625 0.703125 -1.84375q0 -1.1875 -0.703125 -1.71875q-0.6875 -0.53125 -1.984375 -0.53125l-1.359375 0l0 4.59375l1.328125 0zm13.911026 0.578125l-1.703125 0l0 4.671875l-1.53125 0l0 -11.03125l2.90625 0q2.0625 0 3.125 0.796875q1.0625 0.78125 1.0625 2.328125q0 1.15625 -0.59375 1.875q-0.59375 0.71875 -1.796875 1.09375l2.984375 4.9375l-1.8125 0l-2.640625 -4.671875zm-0.171875 -1.171875q1.203125 0 1.8125 -0.484375q0.609375 -0.484375 0.609375 -1.578125q0 -1.015625 -0.625 -1.46875q-0.609375 -0.46875 -1.96875 -0.46875l-1.359375 0l0 4.0l1.53125 0zm12.674393 1.375q0 0.375 -0.03125 0.75l-5.375 0q0.09375 1.40625 0.703125 2.0625q0.609375 0.640625 1.5625 0.640625q0.609375 0 1.125 -0.171875q0.515625 -0.171875 1.0625 -0.5625l0.640625 0.890625q-1.34375 1.046875 -2.9375 1.046875q-1.765625 0 -2.75 -1.140625q-0.984375 -1.15625 -0.984375 -3.171875q0 -1.3125 0.421875 -2.328125q0.4375 -1.015625 1.21875 -1.59375q0.796875 -0.578125 1.875 -0.578125q1.671875 0 2.5625 1.109375q0.90625 1.09375 0.90625 3.046875zm-1.453125 -0.421875q0 -1.25 -0.5 -1.90625q-0.5 -0.65625 -1.484375 -0.65625q-1.8125 0 -1.96875 2.65625l3.953125 0l0 -0.09375zm10.3293915 -3.546875l0 11.84375l-1.46875 -0.171875l0 -4.359375q-0.421875 0.625 -1.046875 0.96875q-0.609375 0.34375 -1.359375 0.34375q-1.5 0 -2.34375 -1.171875q-0.84375 -1.1875 -0.84375 -3.1875q0 -1.296875 0.40625 -2.296875q0.40625 -1.015625 1.15625 -1.578125q0.75 -0.578125 1.75 -0.578125q1.34375 0 2.375 1.140625l0.109375 -0.953125l1.265625 0zm-3.546875 7.46875q0.671875 0 1.140625 -0.3125q0.484375 -0.3125 0.9375 -0.9375l0 -4.140625q-0.421875 -0.53125 -0.890625 -0.8125q-0.46875 -0.28125 -1.0625 -0.28125q-0.984375 0 -1.515625 0.8125q-0.53125 0.8125 -0.53125 2.4375q0 1.625 0.484375 2.4375q0.5 0.796875 1.4375 0.796875zm12.864899 0.96875l-1.265625 0l-0.109375 -1.3125q-0.484375 0.78125 -1.109375 1.140625q-0.625 0.359375 -1.515625 0.359375q-1.109375 0 -1.734375 -0.671875q-0.625 -0.671875 -0.625 -1.90625l0 -6.046875l1.46875 0l0 5.890625q0 0.859375 0.296875 1.234375q0.3125 0.359375 1.0 0.359375q1.234375 0 2.109375 -1.46875l0 -6.015625l1.484375 0l0 8.4375zm9.405762 -4.46875q0 0.375 -0.03125 0.75l-5.375 0q0.09375 1.40625 0.703125 2.0625q0.609375 0.640625 1.5625 0.640625q0.609375 0 1.125 -0.171875q0.515625 -0.171875 1.0625 -0.5625l0.640625 0.890625q-1.34375 1.046875 -2.9375 1.046875q-1.765625 0 -2.75 -1.140625q-0.984375 -1.15625 -0.984375 -3.171875q0 -1.3125 0.421875 -2.328125q0.4375 -1.015625 1.21875 -1.59375q0.796875 -0.578125 1.875 -0.578125q1.671875 0 2.5625 1.109375q0.90625 1.09375 0.90625 3.046875zm-1.453125 -0.421875q0 -1.25 -0.5 -1.90625q-0.5 -0.65625 -1.484375 -0.65625q-1.8125 0 -1.96875 2.65625l3.953125 0l0 -0.09375zm6.095001 -3.734375q0.859375 0 1.546875 0.25q0.6875 0.234375 1.3125 0.71875l-0.625 0.921875q-0.578125 -0.375 -1.09375 -0.546875q-0.515625 -0.171875 -1.09375 -0.171875q-0.71875 0 -1.140625 0.296875q-0.421875 0.296875 -0.421875 0.796875q0 0.515625 0.390625 0.8125q0.40625 0.28125 1.421875 0.5625q1.40625 0.34375 2.09375 0.953125q0.703125 0.609375 0.703125 1.65625q0 1.25 -0.96875 1.90625q-0.96875 0.65625 -2.359375 0.65625q-1.921875 0 -3.171875 -1.09375l0.78125 -0.90625q1.0625 0.828125 2.359375 0.828125q0.84375 0 1.328125 -0.34375q0.484375 -0.359375 0.484375 -0.9375q0 -0.4375 -0.171875 -0.703125q-0.171875 -0.265625 -0.609375 -0.453125q-0.4375 -0.203125 -1.265625 -0.4375q-1.34375 -0.34375 -1.953125 -0.9375q-0.59375 -0.59375 -0.59375 -1.5q0 -0.65625 0.390625 -1.1875q0.390625 -0.546875 1.078125 -0.84375q0.703125 -0.296875 1.578125 -0.296875zm9.440765 8.234375q-0.84375 0.578125 -1.890625 0.578125q-1.078125 0 -1.6875 -0.609375q-0.59375 -0.625 -0.59375 -1.78125l0 -5.09375l-1.46875 0l0 -1.140625l1.46875 0l0 -1.90625l1.484375 -0.171875l0 2.078125l2.0 0l-0.171875 1.140625l-1.828125 0l0 5.03125q0 0.65625 0.21875 0.953125q0.234375 0.28125 0.78125 0.28125q0.5 0 1.125 -0.328125l0.5625 0.96875z" fill-rule="nonzero"/><path fill="#000000" fill-opacity="0.0" d="m383.34647 294.2756l0 -66.110245" fill-rule="evenodd"/><path stroke="#000000" stroke-width="2.0" stroke-linejoin="round" stroke-linecap="butt" d="m383.34647 294.2756l0 -54.110245" fill-rule="evenodd"/><path fill="#000000" stroke="#000000" stroke-width="2.0" stroke-linecap="butt" d="m386.64993 240.16536l-3.3034668 -9.076202l-3.3034668 9.076202z" fill-rule="evenodd"/><path fill="#000000" fill-opacity="0.0" d="m377.50394 101.51181l74.01575 0l0 58.173233l-74.01575 0z" fill-rule="evenodd"/><path fill="#000000" d="m407.90854 125.87181l-0.828125 -2.765625l-4.171875 0l-0.84375 2.765625l-1.53125 0l3.53125 -11.03125l1.921875 0l3.53125 11.03125l-1.609375 0zm-4.640625 -4.0l3.4375 0l-1.703125 -5.765625l-1.734375 5.765625zm11.167999 -0.671875l-1.703125 0l0 4.671875l-1.53125 0l0 -11.03125l2.90625 0q2.0625 0 3.125 0.796875q1.0625 0.78125 1.0625 2.328125q0 1.15625 -0.59375 1.875q-0.59375 0.71875 -1.796875 1.09375l2.984375 4.9375l-1.8125 0l-2.640625 -4.671875zm-0.171875 -1.171875q1.203125 0 1.8125 -0.484375q0.609375 -0.484375 0.609375 -1.578125q0 -1.015625 -0.625 -1.46875q-0.609375 -0.46875 -1.96875 -0.46875l-1.359375 0l0 4.0l1.53125 0zm9.523773 -5.1875q2.046875 0 3.15625 0.859375q1.125 0.859375 1.125 2.5625q0 1.796875 -1.171875 2.6875q-1.15625 0.875 -3.09375 0.875l-1.390625 0l0 4.046875l-1.53125 0l0 -11.03125l2.90625 0zm-0.046875 5.78125q1.328125 0 2.015625 -0.5q0.703125 -0.515625 0.703125 -1.84375q0 -1.1875 -0.703125 -1.71875q-0.6875 -0.53125 -1.984375 -0.53125l-1.359375 0l0 4.59375l1.328125 0z" fill-rule="nonzero"/><path fill="#000000" d="m399.30792 140.39993l-1.703125 0l0 4.671875l-1.53125 0l0 -11.03125l2.90625 0q2.0625 0 3.125 0.796875q1.0625 0.78125 1.0625 2.328125q0 1.15625 -0.59375 1.875q-0.59375 0.71875 -1.796875 1.09375l2.984375 4.9375l-1.8125 0l-2.640625 -4.671875zm-0.171875 -1.171875q1.203125 0 1.8125 -0.484375q0.609375 -0.484375 0.609375 -1.578125q0 -1.015625 -0.625 -1.46875q-0.609375 -0.46875 -1.96875 -0.46875l-1.359375 0l0 4.0l1.53125 0zm12.674377 1.375q0 0.375 -0.03125 0.75l-5.375 0q0.09375 1.40625 0.703125 2.0625q0.609375 0.640625 1.5625 0.640625q0.609375 0 1.125 -0.171875q0.515625 -0.171875 1.0625 -0.5625l0.640625 0.890625q-1.34375 1.046875 -2.9375 1.046875q-1.765625 0 -2.75 -1.140625q-0.984375 -1.15625 -0.984375 -3.171875q0 -1.3125 0.421875 -2.328125q0.4375 -1.015625 1.21875 -1.59375q0.796875 -0.578125 1.875 -0.578125q1.671875 0 2.5625 1.109375q0.90625 1.09375 0.90625 3.046875zm-1.453125 -0.421875q0 -1.25 -0.5 -1.90625q-0.5 -0.65625 -1.484375 -0.65625q-1.8125 0 -1.96875 2.65625l3.953125 0l0 -0.09375zm7.6731567 -3.734375q1.625 0 2.375 1.15625q0.75 1.15625 0.75 3.25q0 1.984375 -0.875 3.203125q-0.859375 1.203125 -2.4375 1.203125q-1.40625 0 -2.21875 -0.953125l0 4.0l-1.46875 0.171875l0 -11.84375l1.265625 0l0.109375 1.140625q0.46875 -0.640625 1.125 -0.984375q0.65625 -0.34375 1.375 -0.34375zm-0.546875 7.609375q2.078125 0 2.078125 -3.203125q0 -3.234375 -1.890625 -3.234375q-0.625 0 -1.140625 0.375q-0.515625 0.359375 -0.90625 0.9375l0 4.109375q0.328125 0.5 0.796875 0.765625q0.484375 0.25 1.0625 0.25zm7.863373 1.203125q-0.8125 0 -1.296875 -0.484375q-0.46875 -0.484375 -0.46875 -1.359375l0 -10.171875l1.46875 -0.171875l0 10.296875q0 0.359375 0.125 0.515625q0.125 0.15625 0.40625 0.15625q0.3125 0 0.546875 -0.09375l0.390625 1.03125q-0.53125 0.28125 -1.171875 0.28125zm6.215515 -0.140625q-0.484375 1.46875 -1.375 2.328125q-0.890625 0.859375 -2.546875 1.03125l-0.15625 -1.15625q0.828125 -0.140625 1.328125 -0.421875q0.5 -0.265625 0.796875 -0.6875q0.296875 -0.421875 0.546875 -1.140625l-0.5 0l-2.828125 -8.4375l1.578125 0l2.25 7.359375l2.203125 -7.359375l1.53125 0l-2.828125 8.484375z" fill-rule="nonzero"/><path fill="#000000" fill-opacity="0.0" d="m383.34647 94.698166l0 70.23622" fill-rule="evenodd"/><path stroke="#000000" stroke-width="2.0" stroke-linejoin="round" stroke-linecap="butt" d="m383.34647 94.698166l0 58.23622" fill-rule="evenodd"/><path fill="#000000" stroke="#000000" stroke-width="2.0" stroke-linecap="butt" d="m380.043 152.93439l3.3034668 9.076187l3.3034668 -9.076187z" fill-rule="evenodd"/><path fill="#ffcdc3" d="m508.50656 164.93439l136.34647 0l0 61.66928l-136.34647 0z" fill-rule="evenodd"/><path stroke="#000000" stroke-width="1.0" stroke-linejoin="round" stroke-linecap="butt" d="m508.50656 164.93439l136.34647 0l0 61.66928l-136.34647 0z" fill-rule="evenodd"/><path fill="#000000" d="m550.6856 202.68903l0 -12.859375l6.828125 0l-0.203125 1.421875l-4.84375 0l0 4.390625l4.1875 0l0 1.390625l-4.1875 0l0 5.65625l-1.78125 0zm15.086304 0l-0.96875 -3.234375l-4.875 0l-0.96875 3.234375l-1.796875 0l4.125 -12.859375l2.234375 0l4.109375 12.859375l-1.859375 0zm-5.421875 -4.671875l4.015625 0l-2.0 -6.703125l-2.015625 6.703125zm11.033752 -8.1875l0 12.859375l-1.78125 0l0 -12.859375l1.78125 0zm5.503601 0l0 11.3125l5.28125 0l-0.203125 1.546875l-6.859375 0l0 -12.859375l1.78125 0zm14.4783325 0l-0.203125 1.421875l-4.984375 0l0 4.203125l4.328125 0l0 1.40625l-4.328125 0l0 4.40625l5.328125 0l0 1.421875l-7.109375 0l0 -12.859375l6.96875 0zm5.699829 0q2.921875 0 4.671875 1.359375q1.765625 1.34375 1.765625 5.0q0 3.578125 -1.765625 5.046875q-1.75 1.453125 -4.28125 1.453125l-3.078125 0l0 -12.859375l2.6875 0zm-0.90625 1.421875l0 10.03125l1.4375 0q1.78125 0 2.90625 -1.09375q1.125 -1.09375 1.125 -4.0q0 -2.03125 -0.578125 -3.109375q-0.578125 -1.09375 -1.484375 -1.453125q-0.890625 -0.375 -2.109375 -0.375l-1.296875 0z" fill-rule="nonzero"/><path fill="#000000" fill-opacity="0.0" d="m451.51968 63.863518l125.82675 0" fill-rule="evenodd"/><path stroke="#000000" stroke-width="2.0" stroke-linejoin="round" stroke-linecap="butt" d="m451.51968 63.863518l125.82675 0" fill-rule="evenodd"/><path fill="#000000" fill-opacity="0.0" d="m576.6798 64.65092l0 100.28347" fill-rule="evenodd"/><path stroke="#000000" stroke-width="2.0" stroke-linejoin="round" stroke-linecap="butt" d="m576.6798 64.65092l0 88.28347" fill-rule="evenodd"/><path fill="#000000" stroke="#000000" stroke-width="2.0" stroke-linecap="butt" d="m573.37634 152.93439l3.3034668 9.076187l3.3034668 -9.076187z" fill-rule="evenodd"/><path fill="#000000" fill-opacity="0.0" d="m451.51968 325.11023l125.82675 0" fill-rule="evenodd"/><path stroke="#000000" stroke-width="2.0" stroke-linejoin="round" stroke-linecap="butt" d="m451.51968 325.11023l125.82675 0" fill-rule="evenodd"/><path fill="#000000" fill-opacity="0.0" d="m576.6798 226.60367l0 100.28348" fill-rule="evenodd"/><path stroke="#000000" stroke-width="2.0" stroke-linejoin="round" stroke-linecap="butt" d="m576.6798 238.60367l0 88.28348" fill-rule="evenodd"/><path fill="#000000" stroke="#000000" stroke-width="2.0" stroke-linecap="butt" d="m579.9833 238.60367l-3.3034668 -9.076187l-3.3034668 9.076187z" fill-rule="evenodd"/><path fill="#000000" fill-opacity="0.0" d="m488.0 100.72966l93.51184 0l0 58.173233l-93.51184 0z" fill-rule="evenodd"/><path fill="#000000" d="m508.88123 114.05841l-0.15625 1.296875l-3.0625 0l0 9.734375l-1.515625 0l0 -9.734375l-3.140625 0l0 -1.296875l7.875 0zm3.1469727 2.59375l0 8.4375l-1.4687195 0l0 -8.4375l1.4687195 0zm-0.7343445 -4.046875q0.453125 0 0.7343445 0.296875q0.296875 0.28125 0.296875 0.71875q0 0.421875 -0.296875 0.703125q-0.28121948 0.28125 -0.7343445 0.28125q-0.453125 0 -0.75 -0.28125q-0.28125 -0.28125 -0.28125 -0.703125q0 -0.4375 0.28125 -0.71875q0.296875 -0.296875 0.75 -0.296875zm12.246368 3.859375q1.046875 0 1.65625 0.703125q0.625 0.6875 0.625 1.875l0 6.046875l-1.46875 0l0 -5.84375q0 -1.625 -1.1875 -1.625q-0.625 0 -1.0625 0.359375q-0.421875 0.359375 -0.921875 1.125l0 5.984375l-1.46875 0l0 -5.84375q0 -1.625 -1.1875 -1.625q-0.625 0 -1.0625 0.375q-0.4375 0.359375 -0.921875 1.109375l0 5.984375l-1.46875 0l0 -8.4375l1.265625 0l0.125 1.234375q0.953125 -1.421875 2.4375 -1.421875q0.78125 0 1.328125 0.40625q0.5625 0.390625 0.796875 1.109375q0.5 -0.734375 1.09375 -1.125q0.609375 -0.390625 1.421875 -0.390625zm11.618286 4.15625q0 0.375 -0.03125 0.75l-5.375 0q0.09375 1.40625 0.703125 2.0625q0.609375 0.640625 1.5625 0.640625q0.609375 0 1.125 -0.171875q0.515625 -0.171875 1.0625 -0.5625l0.640625 0.890625q-1.34375 1.046875 -2.9375 1.046875q-1.765625 0 -2.75 -1.140625q-0.984375 -1.15625 -0.984375 -3.171875q0 -1.3125 0.421875 -2.328125q0.4375 -1.015625 1.21875 -1.59375q0.796875 -0.578125 1.875 -0.578125q1.671875 0 2.5625 1.109375q0.90625 1.09375 0.90625 3.046875zm-1.453125 -0.421875q0 -1.25 -0.5 -1.90625q-0.5 -0.65625 -1.484375 -0.65625q-1.8125 0 -1.96875 2.65625l3.953125 0l0 -0.09375zm6.9700317 -3.734375q1.78125 0 2.765625 1.1875q0.984375 1.1875 0.984375 3.21875q0 1.3125 -0.453125 2.3125q-0.453125 1.0 -1.296875 1.546875q-0.84375 0.546875 -2.015625 0.546875q-1.78125 0 -2.78125 -1.171875q-0.984375 -1.1875 -0.984375 -3.21875q0 -1.3125 0.453125 -2.3125q0.453125 -1.0 1.296875 -1.546875q0.84375 -0.5625 2.03125 -0.5625zm0 1.1875q-2.1875 0 -2.1875 3.234375q0 3.21875 2.171875 3.21875q2.171875 0 2.171875 -3.234375q0 -3.21875 -2.15625 -3.21875zm12.453369 7.4375l-1.265625 0l-0.109375 -1.3125q-0.484375 0.78125 -1.109375 1.140625q-0.625 0.359375 -1.515625 0.359375q-1.109375 0 -1.734375 -0.671875q-0.625 -0.671875 -0.625 -1.90625l0 -6.046875l1.46875 0l0 5.890625q0 0.859375 0.296875 1.234375q0.3125 0.359375 1.0 0.359375q1.234375 0 2.109375 -1.46875l0 -6.015625l1.484375 0l0 8.4375zm7.2963867 -0.390625q-0.84375 0.578125 -1.890625 0.578125q-1.078125 0 -1.6875 -0.609375q-0.59375 -0.625 -0.59375 -1.78125l0 -5.09375l-1.46875 0l0 -1.140625l1.46875 0l0 -1.90625l1.484375 -0.171875l0 2.078125l2.0 0l-0.171875 1.140625l-1.828125 0l0 5.03125q0 0.65625 0.21875 0.953125q0.234375 0.28125 0.78125 0.28125q0.5 0 1.125 -0.328125l0.5625 0.96875zm5.385376 -12.515625l1.25 0.28125l-3.703125 14.28125l-1.25 -0.296875l3.703125 -14.265625z" fill-rule="nonzero"/><path fill="#000000" d="m513.66797 144.28966l-2.03125 0l-4.484375 -9.359375q0.09375 1.109375 0.15625 2.046875q0.0625 0.921875 0.0625 2.25l0 5.0625l-1.4375 0l0 -11.03125l1.984375 0l4.53125 9.390625q-0.046875 -0.421875 -0.125 -1.453125q-0.078125 -1.046875 -0.078125 -1.921875l0 -6.015625l1.421875 0l0 11.03125zm6.2874146 -8.625q1.78125 0 2.765625 1.1875q0.984375 1.1875 0.984375 3.21875q0 1.3125 -0.453125 2.3125q-0.453125 1.0 -1.296875 1.546875q-0.84375 0.546875 -2.015625 0.546875q-1.78125 0 -2.78125 -1.171875q-0.984375 -1.1875 -0.984375 -3.21875q0 -1.3125 0.453125 -2.3125q0.453125 -1.0 1.296875 -1.546875q0.84375 -0.5625 2.03125 -0.5625zm0 1.1875q-2.1875 0 -2.1875 3.234375q0 3.21875 2.171875 3.21875q2.171875 0 2.171875 -3.234375q0 -3.21875 -2.15625 -3.21875zm14.084045 -1.1875q0.4375 0 0.828125 0.09375l-0.265625 1.4375q-0.390625 -0.09375 -0.734375 -0.09375q-0.796875 0 -1.28125 0.578125q-0.46875 0.578125 -0.75 1.796875l0 4.8125l-1.46875 0l0 -8.4375l1.265625 0l0.140625 1.71875q0.34375 -0.9375 0.921875 -1.421875q0.578125 -0.484375 1.34375 -0.484375zm8.399109 4.15625q0 0.375 -0.03125 0.75l-5.375 0q0.09375 1.40625 0.703125 2.0625q0.609375 0.640625 1.5625 0.640625q0.609375 0 1.125 -0.171875q0.515625 -0.171875 1.0625 -0.5625l0.640625 0.890625q-1.34375 1.046875 -2.9375 1.046875q-1.765625 0 -2.75 -1.140625q-0.984375 -1.15625 -0.984375 -3.171875q0 -1.3125 0.421875 -2.328125q0.4375 -1.015625 1.21875 -1.59375q0.796875 -0.578125 1.875 -0.578125q1.671875 0 2.5625 1.109375q0.90625 1.09375 0.90625 3.046875zm-1.453125 -0.421875q0 -1.25 -0.5 -1.90625q-0.5 -0.65625 -1.484375 -0.65625q-1.8125 0 -1.96875 2.65625l3.953125 0l0 -0.09375zm7.6731567 -3.734375q1.625 0 2.375 1.15625q0.75 1.15625 0.75 3.25q0 1.984375 -0.875 3.203125q-0.859375 1.203125 -2.4375 1.203125q-1.40625 0 -2.21875 -0.953125l0 4.0l-1.46875 0.171875l0 -11.84375l1.265625 0l0.109375 1.140625q0.46875 -0.640625 1.125 -0.984375q0.65625 -0.34375 1.375 -0.34375zm-0.546875 7.609375q2.078125 0 2.078125 -3.203125q0 -3.234375 -1.890625 -3.234375q-0.625 0 -1.140625 0.375q-0.515625 0.359375 -0.90625 0.9375l0 4.109375q0.328125 0.5 0.796875 0.765625q0.484375 0.25 1.0625 0.25zm7.8634033 1.203125q-0.8125 0 -1.296875 -0.484375q-0.46875 -0.484375 -0.46875 -1.359375l0 -10.171875l1.46875 -0.171875l0 10.296875q0 0.359375 0.125 0.515625q0.125 0.15625 0.40625 0.15625q0.3125 0 0.546875 -0.09375l0.390625 1.03125q-0.53125 0.28125 -1.171875 0.28125zm6.215454 -0.140625q-0.484375 1.46875 -1.375 2.328125q-0.890625 0.859375 -2.546875 1.03125l-0.15625 -1.15625q0.828125 -0.140625 1.328125 -0.421875q0.5 -0.265625 0.796875 -0.6875q0.296875 -0.421875 0.546875 -1.140625l-0.5 0l-2.828125 -8.4375l1.578125 0l2.25 7.359375l2.203125 -7.359375l1.53125 0l-2.828125 8.484375z" fill-rule="nonzero"/><path fill="#000000" fill-opacity="0.0" d="m488.0 232.13518l93.51184 0l0 58.173233l-93.51184 0z" fill-rule="evenodd"/><path fill="#000000" d="m508.88123 245.46393l-0.15625 1.296875l-3.0625 0l0 9.734375l-1.515625 0l0 -9.734375l-3.140625 0l0 -1.296875l7.875 0zm3.1469727 2.59375l0 8.4375l-1.4687195 0l0 -8.4375l1.4687195 0zm-0.7343445 -4.046875q0.453125 0 0.7343445 0.296875q0.296875 0.28125 0.296875 0.71875q0 0.421875 -0.296875 0.703125q-0.28121948 0.28125 -0.7343445 0.28125q-0.453125 0 -0.75 -0.28125q-0.28125 -0.28125 -0.28125 -0.703125q0 -0.4375 0.28125 -0.71875q0.296875 -0.296875 0.75 -0.296875zm12.246368 3.859375q1.046875 0 1.65625 0.703125q0.625 0.6875 0.625 1.875l0 6.046875l-1.46875 0l0 -5.84375q0 -1.625 -1.1875 -1.625q-0.625 0 -1.0625 0.359375q-0.421875 0.359375 -0.921875 1.125l0 5.984375l-1.46875 0l0 -5.84375q0 -1.625 -1.1875 -1.625q-0.625 0 -1.0625 0.375q-0.4375 0.359375 -0.921875 1.109375l0 5.984375l-1.46875 0l0 -8.4375l1.265625 0l0.125 1.234375q0.953125 -1.421875 2.4375 -1.421875q0.78125 0 1.328125 0.40625q0.5625 0.390625 0.796875 1.109375q0.5 -0.734375 1.09375 -1.125q0.609375 -0.390625 1.421875 -0.390625zm11.618286 4.15625q0 0.375 -0.03125 0.75l-5.375 0q0.09375 1.40625 0.703125 2.0625q0.609375 0.640625 1.5625 0.640625q0.609375 0 1.125 -0.171875q0.515625 -0.171875 1.0625 -0.5625l0.640625 0.890625q-1.34375 1.046875 -2.9375 1.046875q-1.765625 0 -2.75 -1.140625q-0.984375 -1.15625 -0.984375 -3.171875q0 -1.3125 0.421875 -2.328125q0.4375 -1.015625 1.21875 -1.59375q0.796875 -0.578125 1.875 -0.578125q1.671875 0 2.5625 1.109375q0.90625 1.09375 0.90625 3.046875zm-1.453125 -0.421875q0 -1.25 -0.5 -1.90625q-0.5 -0.65625 -1.484375 -0.65625q-1.8125 0 -1.96875 2.65625l3.953125 0l0 -0.09375zm6.9700317 -3.734375q1.78125 0 2.765625 1.1875q0.984375 1.1875 0.984375 3.21875q0 1.3125 -0.453125 2.3125q-0.453125 1.0 -1.296875 1.546875q-0.84375 0.546875 -2.015625 0.546875q-1.78125 0 -2.78125 -1.171875q-0.984375 -1.1875 -0.984375 -3.21875q0 -1.3125 0.453125 -2.3125q0.453125 -1.0 1.296875 -1.546875q0.84375 -0.5625 2.03125 -0.5625zm0 1.1875q-2.1875 0 -2.1875 3.234375q0 3.21875 2.171875 3.21875q2.171875 0 2.171875 -3.234375q0 -3.21875 -2.15625 -3.21875zm12.453369 7.4375l-1.265625 0l-0.109375 -1.3125q-0.484375 0.78125 -1.109375 1.140625q-0.625 0.359375 -1.515625 0.359375q-1.109375 0 -1.734375 -0.671875q-0.625 -0.671875 -0.625 -1.90625l0 -6.046875l1.46875 0l0 5.890625q0 0.859375 0.296875 1.234375q0.3125 0.359375 1.0 0.359375q1.234375 0 2.109375 -1.46875l0 -6.015625l1.484375 0l0 8.4375zm7.2963867 -0.390625q-0.84375 0.578125 -1.890625 0.578125q-1.078125 0 -1.6875 -0.609375q-0.59375 -0.625 -0.59375 -1.78125l0 -5.09375l-1.46875 0l0 -1.140625l1.46875 0l0 -1.90625l1.484375 -0.171875l0 2.078125l2.0 0l-0.171875 1.140625l-1.828125 0l0 5.03125q0 0.65625 0.21875 0.953125q0.234375 0.28125 0.78125 0.28125q0.5 0 1.125 -0.328125l0.5625 0.96875zm5.385376 -12.515625l1.25 0.28125l-3.703125 14.28125l-1.25 -0.296875l3.703125 -14.265625z" fill-rule="nonzero"/><path fill="#000000" d="m513.66797 275.69516l-2.03125 0l-4.484375 -9.359375q0.09375 1.109375 0.15625 2.046875q0.0625 0.921875 0.0625 2.25l0 5.0625l-1.4375 0l0 -11.03125l1.984375 0l4.53125 9.390625q-0.046875 -0.421875 -0.125 -1.453125q-0.078125 -1.046875 -0.078125 -1.921875l0 -6.015625l1.421875 0l0 11.03125zm6.2874146 -8.625q1.78125 0 2.765625 1.1875q0.984375 1.1875 0.984375 3.21875q0 1.3125 -0.453125 2.3125q-0.453125 1.0 -1.296875 1.546875q-0.84375 0.546875 -2.015625 0.546875q-1.78125 0 -2.78125 -1.171875q-0.984375 -1.1875 -0.984375 -3.21875q0 -1.3125 0.453125 -2.3125q0.453125 -1.0 1.296875 -1.546875q0.84375 -0.5625 2.03125 -0.5625zm0 1.1875q-2.1875 0 -2.1875 3.234375q0 3.21875 2.171875 3.21875q2.171875 0 2.171875 -3.234375q0 -3.21875 -2.15625 -3.21875zm14.084045 -1.1875q0.4375 0 0.828125 0.09375l-0.265625 1.4375q-0.390625 -0.09375 -0.734375 -0.09375q-0.796875 0 -1.28125 0.578125q-0.46875 0.578125 -0.75 1.796875l0 4.8125l-1.46875 0l0 -8.4375l1.265625 0l0.140625 1.71875q0.34375 -0.9375 0.921875 -1.421875q0.578125 -0.484375 1.34375 -0.484375zm8.399109 4.15625q0 0.375 -0.03125 0.75l-5.375 0q0.09375 1.40625 0.703125 2.0625q0.609375 0.640625 1.5625 0.640625q0.609375 0 1.125 -0.171875q0.515625 -0.171875 1.0625 -0.5625l0.640625 0.890625q-1.34375 1.046875 -2.9375 1.046875q-1.765625 0 -2.75 -1.140625q-0.984375 -1.15625 -0.984375 -3.171875q0 -1.3125 0.421875 -2.328125q0.4375 -1.015625 1.21875 -1.59375q0.796875 -0.578125 1.875 -0.578125q1.671875 0 2.5625 1.109375q0.90625 1.09375 0.90625 3.046875zm-1.453125 -0.421875q0 -1.25 -0.5 -1.90625q-0.5 -0.65625 -1.484375 -0.65625q-1.8125 0 -1.96875 2.65625l3.953125 0l0 -0.09375zm7.6731567 -3.734375q1.625 0 2.375 1.15625q0.75 1.15625 0.75 3.25q0 1.984375 -0.875 3.203125q-0.859375 1.203125 -2.4375 1.203125q-1.40625 0 -2.21875 -0.953125l0 4.0l-1.46875 0.171875l0 -11.84375l1.265625 0l0.109375 1.140625q0.46875 -0.640625 1.125 -0.984375q0.65625 -0.34375 1.375 -0.34375zm-0.546875 7.609375q2.078125 0 2.078125 -3.203125q0 -3.234375 -1.890625 -3.234375q-0.625 0 -1.140625 0.375q-0.515625 0.359375 -0.90625 0.9375l0 4.109375q0.328125 0.5 0.796875 0.765625q0.484375 0.25 1.0625 0.25zm7.8634033 1.203125q-0.8125 0 -1.296875 -0.484375q-0.46875 -0.484375 -0.46875 -1.359375l0 -10.171875l1.46875 -0.171875l0 10.296875q0 0.359375 0.125 0.515625q0.125 0.15625 0.40625 0.15625q0.3125 0 0.546875 -0.09375l0.390625 1.03125q-0.53125 0.28125 -1.171875 0.28125zm6.215454 -0.140625q-0.484375 1.46875 -1.375 2.328125q-0.890625 0.859375 -2.546875 1.03125l-0.15625 -1.15625q0.828125 -0.140625 1.328125 -0.421875q0.5 -0.265625 0.796875 -0.6875q0.296875 -0.421875 0.546875 -1.140625l-0.5 0l-2.828125 -8.4375l1.578125 0l2.25 7.359375l2.203125 -7.359375l1.53125 0l-2.828125 8.484375z" fill-rule="nonzero"/><path fill="#000000" fill-opacity="0.0" d="m85.14173 232.13518l81.385826 0l0 58.173233l-81.385826 0z" fill-rule="evenodd"/><path fill="#000000" d="m106.4851 245.46393l-0.171875 1.21875l-4.265625 0l0 3.609375l3.703125 0l0 1.21875l-3.703125 0l0 3.765625l4.578125 0l0 1.21875l-6.109375 0l0 -11.03125l5.96875 0zm6.321884 2.40625q1.15625 0 1.796875 0.6875q0.65625 0.6875 0.65625 1.890625l0 6.046875l-1.46875 0l0 -5.84375q0 -0.890625 -0.34375 -1.25q-0.328125 -0.375 -0.984375 -0.375q-0.671875 0 -1.1875 0.390625q-0.515625 0.375 -0.96875 1.09375l0 5.984375l-1.46875 0l0 -8.4375l1.265625 0l0.125 1.25q0.453125 -0.671875 1.109375 -1.046875q0.671875 -0.390625 1.46875 -0.390625zm9.672897 8.234375q-0.84375 0.578125 -1.890625 0.578125q-1.078125 0 -1.6875 -0.609375q-0.59375 -0.625 -0.59375 -1.78125l0 -5.09375l-1.46875 0l0 -1.140625l1.46875 0l0 -1.90625l1.484375 -0.171875l0 2.078125l2.0 0l-0.171875 1.140625l-1.828125 0l0 5.03125q0 0.65625 0.21875 0.953125q0.234375 0.28125 0.78125 0.28125q0.5 0 1.125 -0.328125l0.5625 0.96875zm5.182266 -8.234375q0.43749237 0 0.8281174 0.09375l-0.265625 1.4375q-0.39061737 -0.09375 -0.7343674 -0.09375q-0.796875 0 -1.28125 0.578125q-0.46875 0.578125 -0.75 1.796875l0 4.8125l-1.46875 0l0 -8.4375l1.265625 0l0.140625 1.71875q0.34375 -0.9375 0.921875 -1.421875q0.578125 -0.484375 1.34375 -0.484375zm5.8791275 8.671875q-0.484375 1.46875 -1.375 2.328125q-0.890625 0.859375 -2.546875 1.03125l-0.15625 -1.15625q0.828125 -0.140625 1.328125 -0.421875q0.5 -0.265625 0.796875 -0.6875q0.296875 -0.421875 0.546875 -1.140625l-0.5 0l-2.828125 -8.4375l1.578125 0l2.25 7.359375l2.203125 -7.359375l1.53125 0l-2.828125 8.484375zm10.205765 -8.484375l0 8.4375l-1.46875 0l0 -8.4375l1.46875 0zm-0.734375 -4.046875q0.453125 0 0.734375 0.296875q0.296875 0.28125 0.296875 0.71875q0 0.421875 -0.296875 0.703125q-0.28125 0.28125 -0.734375 0.28125q-0.453125 0 -0.75 -0.28125q-0.28125 -0.28125 -0.28125 -0.703125q0 -0.4375 0.28125 -0.71875q0.296875 -0.296875 0.75 -0.296875zm6.0745087 3.859375q0.85939026 0 1.5468903 0.25q0.6875 0.234375 1.3125 0.71875l-0.625 0.921875q-0.578125 -0.375 -1.09375 -0.546875q-0.515625 -0.171875 -1.0937653 -0.171875q-0.71875 0 -1.140625 0.296875q-0.421875 0.296875 -0.421875 0.796875q0 0.515625 0.390625 0.8125q0.40625 0.28125 1.4218903 0.5625q1.40625 0.34375 2.09375 0.953125q0.703125 0.609375 0.703125 1.65625q0 1.25 -0.96875 1.90625q-0.96875 0.65625 -2.3593903 0.65625q-1.921875 0 -3.171875 -1.09375l0.78125 -0.90625q1.0625 0.828125 2.359375 0.828125q0.84376526 0 1.3281403 -0.34375q0.484375 -0.359375 0.484375 -0.9375q0 -0.4375 -0.171875 -0.703125q-0.171875 -0.265625 -0.609375 -0.453125q-0.4375 -0.203125 -1.2656403 -0.4375q-1.34375 -0.34375 -1.953125 -0.9375q-0.59375 -0.59375 -0.59375 -1.5q0 -0.65625 0.390625 -1.1875q0.390625 -0.546875 1.078125 -0.84375q0.703125 -0.296875 1.578125 -0.296875z" fill-rule="nonzero"/><path fill="#000000" d="m116.09549 275.69516l-1.265625 0l-0.109375 -1.3125q-0.484375 0.78125 -1.109375 1.140625q-0.625 0.359375 -1.515625 0.359375q-1.109375 0 -1.734375 -0.671875q-0.625 -0.671875 -0.625 -1.90625l0 -6.046875l1.46875 0l0 5.890625q0 0.859375 0.296875 1.234375q0.3125 0.359375 1.0 0.359375q1.234375 0 2.109375 -1.46875l0 -6.015625l1.484375 0l0 8.4375zm5.3276367 -8.625q0.859375 0 1.546875 0.25q0.6875 0.234375 1.3125 0.71875l-0.625 0.921875q-0.578125 -0.375 -1.09375 -0.546875q-0.515625 -0.171875 -1.09375 -0.171875q-0.71875 0 -1.140625 0.296875q-0.421875 0.296875 -0.421875 0.796875q0 0.515625 0.390625 0.8125q0.40625 0.28125 1.421875 0.5625q1.40625 0.34375 2.09375 0.953125q0.703125 0.609375 0.703125 1.65625q0 1.25 -0.96875 1.90625q-0.96875 0.65625 -2.359375 0.65625q-1.921875 0 -3.171875 -1.09375l0.78125 -0.90625q1.0625 0.828125 2.359375 0.828125q0.84375 0 1.328125 -0.34375q0.484375 -0.359375 0.484375 -0.9375q0 -0.4375 -0.171875 -0.703125q-0.171875 -0.265625 -0.609375 -0.453125q-0.4375 -0.203125 -1.265625 -0.4375q-1.34375 -0.34375 -1.953125 -0.9375q-0.59375 -0.59375 -0.59375 -1.5q0 -0.65625 0.390625 -1.1875q0.390625 -0.546875 1.078125 -0.84375q0.703125 -0.296875 1.578125 -0.296875zm11.55014 4.15625q0 0.375 -0.03125 0.75l-5.375 0q0.09375 1.40625 0.703125 2.0625q0.609375 0.640625 1.5625 0.640625q0.609375 0 1.125 -0.171875q0.515625 -0.171875 1.0625 -0.5625l0.640625 0.890625q-1.34375 1.046875 -2.9375 1.046875q-1.765625 0 -2.75 -1.140625q-0.984375 -1.15625 -0.984375 -3.171875q0 -1.3125 0.421875 -2.328125q0.4375 -1.015625 1.21875 -1.59375q0.796875 -0.578125 1.875 -0.578125q1.671875 0 2.5625 1.109375q0.90625 1.09375 0.90625 3.046875zm-1.453125 -0.421875q0 -1.25 -0.5 -1.90625q-0.5 -0.65625 -1.484375 -0.65625q-1.8125 0 -1.96875 2.65625l3.953125 0l0 -0.09375zm10.3293915 -6.9375l0 11.828125l-1.296875 0l-0.140625 -1.171875q-0.421875 0.640625 -1.046875 1.0q-0.625 0.359375 -1.390625 0.359375q-1.5 0 -2.34375 -1.171875q-0.84375 -1.1875 -0.84375 -3.1875q0 -1.296875 0.40625 -2.296875q0.40625 -1.015625 1.15625 -1.578125q0.75 -0.578125 1.75 -0.578125q1.296875 0 2.28125 1.046875l0 -4.421875l1.46875 0.171875zm-3.546875 10.859375q0.671875 0 1.140625 -0.3125q0.484375 -0.3125 0.9375 -0.9375l0 -4.140625q-0.421875 -0.53125 -0.890625 -0.8125q-0.46875 -0.28125 -1.0625 -0.28125q-0.984375 0 -1.515625 0.8125q-0.53125 0.8125 -0.53125 2.4375q0 1.625 0.484375 2.4375q0.5 0.796875 1.4375 0.796875z" fill-rule="nonzero"/><path fill="#000000" fill-opacity="0.0" d="m159.49344 306.96326l77.82677 0l0 -89.85828l77.82677 0" fill-rule="evenodd"/><path stroke="#000000" stroke-width="2.0" stroke-linejoin="round" stroke-linecap="butt" d="m159.49344 306.96326l77.82677 0l0 -89.85828l65.82677 0" fill-rule="evenodd"/><path fill="#000000" stroke="#000000" stroke-width="2.0" stroke-linecap="butt" d="m303.14697 220.40845l9.076202 -3.3034668l-9.076202 -3.3034515z" fill-rule="evenodd"/><path fill="#000000" fill-opacity="0.0" d="m227.11285 232.13649l81.38583 0l0 77.57478l-81.38583 0z" fill-rule="evenodd"/><path fill="#000000" d="m251.57935 256.4965l0 -5.171875l-4.640625 0l0 5.171875l-1.53125 0l0 -11.03125l1.53125 0l0 4.609375l4.640625 0l0 -4.609375l1.515625 0l0 11.03125l-1.515625 0zm6.0987854 -8.4375l0 8.4375l-1.46875 0l0 -8.4375l1.46875 0zm-0.734375 -4.046875q0.453125 0 0.734375 0.296875q0.296875 0.28125 0.296875 0.71875q0 0.421875 -0.296875 0.703125q-0.28125 0.28125 -0.734375 0.28125q-0.453125 0 -0.75 -0.28125q-0.28126526 -0.28125 -0.28126526 -0.703125q0 -0.4375 0.28126526 -0.71875q0.296875 -0.296875 0.75 -0.296875zm10.574493 4.4375q-0.46875 0.15625 -1.046875 0.203125q-0.578125 0.046875 -1.40625 0.046875q1.484375 0.671875 1.484375 2.140625q0 1.25 -0.875 2.0625q-0.859375 0.796875 -2.34375 0.796875q-0.578125 0 -1.0625 -0.15625q-0.203125 0.125 -0.3125 0.34375q-0.109375 0.203125 -0.109375 0.4375q0 0.6875 1.109375 0.6875l1.34375 0q0.84375 0 1.5 0.3125q0.65625 0.296875 1.015625 0.828125q0.359375 0.515625 0.359375 1.1875q0 1.234375 -1.015625 1.890625q-1.0 0.671875 -2.9375 0.671875q-1.359375 0 -2.15625 -0.28125q-0.78125 -0.28125 -1.125 -0.84375q-0.328125 -0.546875 -0.328125 -1.4375l1.328125 0q0 0.515625 0.1875 0.8125q0.1875 0.296875 0.6875 0.4375q0.5 0.15625 1.40625 0.15625q1.328125 0 1.890625 -0.328125q0.578125 -0.328125 0.578125 -0.984375q0 -0.578125 -0.453125 -0.890625q-0.453125 -0.296875 -1.25 -0.296875l-1.328125 0q-1.0625 0 -1.625 -0.453125q-0.546875 -0.46875 -0.546875 -1.15625q0 -0.40625 0.234375 -0.796875q0.25 -0.390625 0.6875 -0.6875q-0.734375 -0.390625 -1.078125 -0.953125q-0.34375 -0.5625 -0.34375 -1.390625q0 -0.84375 0.421875 -1.515625q0.421875 -0.671875 1.171875 -1.046875q0.75 -0.375 1.65625 -0.375q1.0 0.015625 1.671875 -0.0625q0.671875 -0.09375 1.109375 -0.25q0.4375 -0.15625 1.078125 -0.4375l0.421875 1.328125zm-4.28125 0.484375q-0.828125 0 -1.296875 0.515625q-0.453125 0.515625 -0.453125 1.359375q0 0.875 0.46875 1.390625q0.46875 0.515625 1.3125 0.515625q0.859375 0 1.3125 -0.5q0.46875 -0.5 0.46875 -1.421875q0 -1.859375 -1.8125 -1.859375zm9.773163 -1.0625q1.15625 0 1.796875 0.6875q0.65625 0.6875 0.65625 1.890625l0 6.046875l-1.46875 0l0 -5.84375q0 -0.890625 -0.34375 -1.25q-0.34375 -0.375 -1.0 -0.375q-0.65625 0 -1.171875 0.390625q-0.515625 0.375 -0.96875 1.078125l0 6.0l-1.46875 0l0 -11.8125l1.46875 -0.15625l0 4.703125q1.0 -1.359375 2.5 -1.359375zm11.782257 4.15625q0 0.375 -0.03125 0.75l-5.375 0q0.09375 1.40625 0.703125 2.0625q0.609375 0.640625 1.5625 0.640625q0.609375 0 1.125 -0.171875q0.515625 -0.171875 1.0625 -0.5625l0.640625 0.890625q-1.34375 1.046875 -2.9375 1.046875q-1.765625 0 -2.75 -1.140625q-0.984375 -1.15625 -0.984375 -3.171875q0 -1.3125 0.421875 -2.328125q0.4375 -1.015625 1.21875 -1.59375q0.796875 -0.578125 1.875 -0.578125q1.671875 0 2.5625 1.109375q0.90625 1.09375 0.90625 3.046875zm-1.453125 -0.421875q0 -1.25 -0.5 -1.90625q-0.5 -0.65625 -1.484375 -0.65625q-1.8125 0 -1.96875 2.65625l3.953125 0l0 -0.09375zm7.4700317 -3.734375q0.4375 0 0.828125 0.09375l-0.265625 1.4375q-0.390625 -0.09375 -0.734375 -0.09375q-0.796875 0 -1.28125 0.578125q-0.46875 0.578125 -0.75 1.796875l0 4.8125l-1.46875 0l0 -8.4375l1.265625 0l0.140625 1.71875q0.34375 -0.9375 0.921875 -1.421875q0.578125 -0.484375 1.34375 -0.484375z" fill-rule="nonzero"/><path fill="#000000" d="m253.12086 275.88397q-0.8125 0 -1.296875 -0.484375q-0.46875 -0.484375 -0.46875 -1.359375l0 -10.171875l1.46875 -0.171875l0 10.296875q0 0.359375 0.125 0.515625q0.125 0.15625 0.40625 0.15625q0.3125 0 0.546875 -0.09375l0.390625 1.03125q-0.53125 0.28125 -1.171875 0.28125zm8.608017 -2.15625q0 0.515625 0.171875 0.765625q0.171875 0.25 0.53125 0.375l-0.34375 1.015625q-0.65625 -0.078125 -1.0625 -0.359375q-0.390625 -0.296875 -0.578125 -0.90625q-0.84375 1.265625 -2.515625 1.265625q-1.25 0 -1.9687653 -0.703125q-0.71875 -0.703125 -0.71875 -1.84375q0 -1.34375 0.96876526 -2.0625q0.96875 -0.71875 2.75 -0.71875l1.296875 0l0 -0.625q0 -0.890625 -0.4375 -1.265625q-0.4375 -0.390625 -1.328125 -0.390625q-0.921875 0 -2.265625 0.453125l-0.37501526 -1.078125q1.5625153 -0.578125 2.9062653 -0.578125q1.5 0 2.234375 0.734375q0.734375 0.71875 0.734375 2.0625l0 3.859375zm-3.453125 1.0625q1.265625 0 1.984375 -1.3125l0 -1.9375l-1.109375 0q-2.34375 0 -2.34375 1.71875q0 0.75 0.375 1.140625q0.375 0.390625 1.09375 0.390625zm9.604645 0.953125q-0.484375 1.46875 -1.375 2.328125q-0.890625 0.859375 -2.546875 1.03125l-0.15625 -1.15625q0.828125 -0.140625 1.328125 -0.421875q0.5 -0.265625 0.796875 -0.6875q0.296875 -0.421875 0.546875 -1.140625l-0.5 0l-2.828125 -8.4375l1.578125 0l2.25 7.359375l2.203125 -7.359375l1.53125 0l-2.828125 8.484375zm10.808014 -4.515625q0 0.375 -0.03125 0.75l-5.375 0q0.09375 1.40625 0.703125 2.0625q0.609375 0.640625 1.5625 0.640625q0.609375 0 1.125 -0.171875q0.515625 -0.171875 1.0625 -0.5625l0.640625 0.890625q-1.34375 1.046875 -2.9375 1.046875q-1.765625 0 -2.75 -1.140625q-0.984375 -1.15625 -0.984375 -3.171875q0 -1.3125 0.421875 -2.328125q0.4375 -1.015625 1.21875 -1.59375q0.796875 -0.578125 1.875 -0.578125q1.671875 0 2.5625 1.109375q0.90625 1.09375 0.90625 3.046875zm-1.453125 -0.421875q0 -1.25 -0.5 -1.90625q-0.5 -0.65625 -1.484375 -0.65625q-1.8125 0 -1.96875 2.65625l3.953125 0l0 -0.09375zm7.470001 -3.734375q0.4375 0 0.828125 0.09375l-0.265625 1.4375q-0.390625 -0.09375 -0.734375 -0.09375q-0.796875 0 -1.28125 0.578125q-0.46875 0.578125 -0.75 1.796875l0 4.8125l-1.46875 0l0 -8.4375l1.265625 0l0.140625 1.71875q0.34375 -0.9375 0.921875 -1.421875q0.578125 -0.484375 1.34375 -0.484375z" fill-rule="nonzero"/><path fill="#000000" d="m248.22485 288.06836l-0.25 -4.203125l1.59375 0l-0.25 4.203125l-1.09375 0zm2.875 0l-0.25 -4.203125l1.59375 0l-0.25 4.203125l-1.09375 0zm7.7902527 -1.796875q1.15625 0 1.796875 0.6875q0.65625 0.6875 0.65625 1.890625l0 6.046875l-1.46875 0l0 -5.84375q0 -0.890625 -0.34375 -1.25q-0.34375 -0.375 -1.0 -0.375q-0.65625 0 -1.171875 0.390625q-0.515625 0.375 -0.96875 1.078125l0 6.0l-1.4687347 0l0 -11.8125l1.4687347 -0.15625l0 4.703125q1.0 -1.359375 2.5 -1.359375zm6.8760376 0.1875l0 8.4375l-1.46875 0l0 -8.4375l1.46875 0zm-0.734375 -4.046875q0.453125 0 0.734375 0.296875q0.296875 0.28125 0.296875 0.71875q0 0.421875 -0.296875 0.703125q-0.28125 0.28125 -0.734375 0.28125q-0.453125 0 -0.75 -0.28125q-0.28125 -0.28125 -0.28125 -0.703125q0 -0.4375 0.28125 -0.71875q0.296875 -0.296875 0.75 -0.296875zm7.7463684 3.859375q1.15625 0 1.796875 0.6875q0.65625 0.6875 0.65625 1.890625l0 6.046875l-1.46875 0l0 -5.84375q0 -0.890625 -0.34375 -1.25q-0.328125 -0.375 -0.984375 -0.375q-0.671875 0 -1.1875 0.390625q-0.515625 0.375 -0.96875 1.09375l0 5.984375l-1.46875 0l0 -8.4375l1.265625 0l0.125 1.25q0.453125 -0.671875 1.109375 -1.046875q0.671875 -0.390625 1.46875 -0.390625zm9.672913 8.234375q-0.84375 0.578125 -1.890625 0.578125q-1.078125 0 -1.6875 -0.609375q-0.59375 -0.625 -0.59375 -1.78125l0 -5.09375l-1.46875 0l0 -1.140625l1.46875 0l0 -1.90625l1.484375 -0.171875l0 2.078125l2.0 0l-0.171875 1.140625l-1.828125 0l0 5.03125q0 0.65625 0.21875 0.953125q0.234375 0.28125 0.78125 0.28125q0.5 0 1.125 -0.328125l0.5625 0.96875zm0.95788574 -6.4375l-0.25 -4.203125l1.59375 0l-0.25 4.203125l-1.09375 0zm2.875 0l-0.25 -4.203125l1.59375 0l-0.25 4.203125l-1.09375 0z" fill-rule="nonzero"/></g></svg>