<svg version="1.1" viewBox="0.0 0.0 777.5196850393701 316.249343832021" fill="none" stroke="none" stroke-linecap="square" stroke-miterlimit="10" xmlns:xlink="http://www.w3.org/1999/xlink" xmlns="http://www.w3.org/2000/svg"><clipPath id="p.0"><path d="m0 0l777.5197 0l0 316.24933l-777.5197 0l0 -316.24933z" clip-rule="nonzero"/></clipPath><g clip-path="url(#p.0)"><path fill="#000000" fill-opacity="0.0" d="m0 0l777.5197 0l0 316.24933l-777.5197 0z" fill-rule="evenodd"/><path fill="#cfe2f3" d="m8.0 38.16273l122.14174 0l0 74.64566l-122.14174 0z" fill-rule="evenodd"/><path stroke="#000000" stroke-width="1.0" stroke-linejoin="round" stroke-linecap="butt" d="m8.0 38.16273l122.14174 0l0 74.64566l-122.14174 0z" fill-rule="evenodd"/><path fill="#000000" d="m32.56415 82.40556l-2.8125 0l0 -7.703125q0 -0.234375 0 -0.5625q0.015625 -0.34375 0.03125 -0.703125q0.015625 -0.359375 0.015625 -0.71875q0.015625 -0.375 0.03125 -0.671875q-0.046875 0.0625 -0.15625 0.171875q-0.109375 0.109375 -0.25 0.25q-0.140625 0.125 -0.28125 0.265625q-0.140625 0.125 -0.28125 0.234375l-1.53125 1.234375l-1.359375 -1.703125l4.28125 -3.40625l2.3125 0l0 13.3125zm12.541138 -6.65625q0 1.609375 -0.25 2.875q-0.25 1.265625 -0.8125 2.15625q-0.546875 0.875 -1.421875 1.34375q-0.859375 0.46875 -2.09375 0.46875q-1.15625 0 -2.015625 -0.46875q-0.84375 -0.46875 -1.421875 -1.34375q-0.5625 -0.890625 -0.84375 -2.15625q-0.265625 -1.265625 -0.265625 -2.875q0 -1.609375 0.25 -2.890625q0.25 -1.28125 0.796875 -2.15625q0.546875 -0.890625 1.40625 -1.359375q0.875 -0.46875 2.09375 -0.46875q1.15625 0 2.0 0.46875q0.859375 0.46875 1.4375 1.359375q0.578125 0.875 0.859375 2.15625q0.28125 1.265625 0.28125 2.890625zm-6.328125 0q0 2.28125 0.390625 3.421875q0.390625 1.140625 1.359375 1.140625q0.953125 0 1.359375 -1.125q0.421875 -1.140625 0.421875 -3.4375q0 -2.296875 -0.421875 -3.4375q-0.40625 -1.15625 -1.359375 -1.15625q-0.484375 0 -0.8125 0.296875q-0.328125 0.28125 -0.546875 0.859375q-0.203125 0.578125 -0.296875 1.4375q-0.09375 0.859375 -0.09375 2.0zm7.9630127 5.359375q0 -0.4375 0.125 -0.734375q0.125 -0.296875 0.34375 -0.46875q0.21875 -0.1875 0.5 -0.265625q0.296875 -0.078125 0.640625 -0.078125q0.3125 0 0.59375 0.078125q0.296875 0.078125 0.515625 0.265625q0.21875 0.171875 0.34375 0.46875q0.125 0.296875 0.125 0.734375q0 0.40625 -0.125 0.703125q-0.125 0.28125 -0.34375 0.484375q-0.21875 0.1875 -0.515625 0.265625q-0.28125 0.09375 -0.59375 0.09375q-0.34375 0 -0.640625 -0.09375q-0.28125 -0.078125 -0.5 -0.265625q-0.21875 -0.203125 -0.34375 -0.484375q-0.125 -0.296875 -0.125 -0.703125zm13.960571 -5.359375q0 1.609375 -0.25 2.875q-0.25 1.265625 -0.8125 2.15625q-0.546875 0.875 -1.421875 1.34375q-0.859375 0.46875 -2.09375 0.46875q-1.15625 0 -2.015625 -0.46875q-0.84375 -0.46875 -1.421875 -1.34375q-0.5625 -0.890625 -0.84375 -2.15625q-0.265625 -1.265625 -0.265625 -2.875q0 -1.609375 0.25 -2.890625q0.25 -1.28125 0.796875 -2.15625q0.546875 -0.890625 1.40625 -1.359375q0.875 -0.46875 2.09375 -0.46875q1.15625 0 2.0 0.46875q0.859375 0.46875 1.4375 1.359375q0.578125 0.875 0.859375 2.15625q0.28125 1.265625 0.28125 2.890625zm-6.328125 0q0 2.28125 0.390625 3.421875q0.390625 1.140625 1.359375 1.140625q0.953125 0 1.359375 -1.125q0.421875 -1.140625 0.421875 -3.4375q0 -2.296875 -0.421875 -3.4375q-0.40625 -1.15625 -1.359375 -1.15625q-0.484375 0 -0.8125 0.296875q-0.328125 0.28125 -0.546875 0.859375q-0.203125 0.578125 -0.296875 1.4375q-0.09375 0.859375 -0.09375 2.0zm7.9630127 5.359375q0 -0.4375 0.125 -0.734375q0.125 -0.296875 0.34375 -0.46875q0.21875 -0.1875 0.5 -0.265625q0.296875 -0.078125 0.640625 -0.078125q0.3124962 0 0.5937462 0.078125q0.296875 0.078125 0.515625 0.265625q0.21875 0.171875 0.34375 0.46875q0.125 0.296875 0.125 0.734375q0 0.40625 -0.125 0.703125q-0.125 0.28125 -0.34375 0.484375q-0.21875 0.1875 -0.515625 0.265625q-0.28125 0.09375 -0.5937462 0.09375q-0.34375 0 -0.640625 -0.09375q-0.28125 -0.078125 -0.5 -0.265625q-0.21875 -0.203125 -0.34375 -0.484375q-0.125 -0.296875 -0.125 -0.703125zm11.694942 1.296875l-2.8125 0l0 -7.703125q0 -0.234375 0 -0.5625q0.015625 -0.34375 0.03125 -0.703125q0.015625 -0.359375 0.015625 -0.71875q0.015625 -0.375 0.03125 -0.671875q-0.046875 0.0625 -0.15625 0.171875q-0.109375 0.109375 -0.25 0.25q-0.140625 0.125 -0.28125 0.265625q-0.140625 0.125 -0.28125 0.234375l-1.53125 1.234375l-1.359375 -1.703125l4.28125 -3.40625l2.3125 0l0 13.3125zm3.9005127 -1.296875q0 -0.4375 0.125 -0.734375q0.125 -0.296875 0.34375 -0.46875q0.21875 -0.1875 0.5 -0.265625q0.296875 -0.078125 0.640625 -0.078125q0.3125 0 0.59375 0.078125q0.296875 0.078125 0.515625 0.265625q0.21875 0.171875 0.34375 0.46875q0.125 0.296875 0.125 0.734375q0 0.40625 -0.125 0.703125q-0.125 0.28125 -0.34375 0.484375q-0.21875 0.1875 -0.515625 0.265625q-0.28125 0.09375 -0.59375 0.09375q-0.34375 0 -0.640625 -0.09375q-0.28125 -0.078125 -0.5 -0.265625q-0.21875 -0.203125 -0.34375 -0.484375q-0.125 -0.296875 -0.125 -0.703125zm11.694946 1.296875l-2.8125 0l0 -7.703125q0 -0.234375 0 -0.5625q0.015625 -0.34375 0.03125 -0.703125q0.015625 -0.359375 0.015625 -0.71875q0.015625 -0.375 0.03125 -0.671875q-0.046875 0.0625 -0.15625 0.171875q-0.109375 0.109375 -0.25 0.25q-0.140625 0.125 -0.28125 0.265625q-0.140625 0.125 -0.28125 0.234375l-1.53125 1.234375l-1.359375 -1.703125l4.28125 -3.40625l2.3125 0l0 13.3125zm12.541138 -6.65625q0 1.609375 -0.25 2.875q-0.25 1.265625 -0.8125 2.15625q-0.546875 0.875 -1.421875 1.34375q-0.859375 0.46875 -2.09375 0.46875q-1.15625 0 -2.015625 -0.46875q-0.84375 -0.46875 -1.421875 -1.34375q-0.5625 -0.890625 -0.84375 -2.15625q-0.265625 -1.265625 -0.265625 -2.875q0 -1.609375 0.25 -2.890625q0.25 -1.28125 0.796875 -2.15625q0.546875 -0.890625 1.40625 -1.359375q0.875 -0.46875 2.09375 -0.46875q1.15625 0 2.0 0.46875q0.859375 0.46875 1.4375 1.359375q0.578125 0.875 0.859375 2.15625q0.28125 1.265625 0.28125 2.890625zm-6.328125 0q0 2.28125 0.390625 3.421875q0.390625 1.140625 1.359375 1.140625q0.953125 0 1.359375 -1.125q0.421875 -1.140625 0.421875 -3.4375q0 -2.296875 -0.421875 -3.4375q-0.40625 -1.15625 -1.359375 -1.15625q-0.484375 0 -0.8125 0.296875q-0.328125 0.28125 -0.546875 0.859375q-0.203125 0.578125 -0.296875 1.4375q-0.09375 0.859375 -0.09375 2.0zm16.603638 0q0 1.609375 -0.25 2.875q-0.25 1.265625 -0.8125 2.15625q-0.546875 0.875 -1.421875 1.34375q-0.859375 0.46875 -2.09375 0.46875q-1.15625 0 -2.015625 -0.46875q-0.84375 -0.46875 -1.421875 -1.34375q-0.5625 -0.890625 -0.84375 -2.15625q-0.265625 -1.265625 -0.265625 -2.875q0 -1.609375 0.25 -2.890625q0.25 -1.28125 0.796875 -2.15625q0.546875 -0.890625 1.40625 -1.359375q0.875 -0.46875 2.09375 -0.46875q1.15625 0 2.0 0.46875q0.859375 0.46875 1.4375 1.359375q0.578125 0.875 0.859375 2.15625q0.28125 1.265625 0.28125 2.890625zm-6.328125 0q0 2.28125 0.390625 3.421875q0.390625 1.140625 1.359375 1.140625q0.953125 0 1.359375 -1.125q0.421875 -1.140625 0.421875 -3.4375q0 -2.296875 -0.421875 -3.4375q-0.40625 -1.15625 -1.359375 -1.15625q-0.484375 0 -0.8125 0.296875q-0.328125 0.28125 -0.546875 0.859375q-0.203125 0.578125 -0.296875 1.4375q-0.09375 0.859375 -0.09375 2.0z" fill-rule="nonzero"/><path fill="#ead1dc" d="m371.69028 38.16273l108.09451 0l0 74.64566l-108.09451 0z" fill-rule="evenodd"/><path stroke="#000000" stroke-width="1.0" stroke-linejoin="round" stroke-linecap="butt" d="m371.69028 38.16273l108.09451 0l0 74.64566l-108.09451 0z" fill-rule="evenodd"/><path fill="#000000" d="m394.3686 82.40556l-2.8125 0l0 -7.703125q0 -0.234375 0 -0.5625q0.015625 -0.34375 0.03125 -0.703125q0.015625 -0.359375 0.015625 -0.71875q0.015625 -0.375 0.03125 -0.671875q-0.046875 0.0625 -0.15625 0.171875q-0.109375 0.109375 -0.25 0.25q-0.140625 0.125 -0.28125 0.265625q-0.140625 0.125 -0.28125 0.234375l-1.53125 1.234375l-1.359375 -1.703125l4.28125 -3.40625l2.3125 0l0 13.3125zm12.541138 -6.65625q0 1.609375 -0.25 2.875q-0.25 1.265625 -0.8125 2.15625q-0.546875 0.875 -1.421875 1.34375q-0.859375 0.46875 -2.09375 0.46875q-1.15625 0 -2.015625 -0.46875q-0.84375 -0.46875 -1.421875 -1.34375q-0.5625 -0.890625 -0.84375 -2.15625q-0.265625 -1.265625 -0.265625 -2.875q0 -1.609375 0.25 -2.890625q0.25 -1.28125 0.796875 -2.15625q0.546875 -0.890625 1.40625 -1.359375q0.875 -0.46875 2.09375 -0.46875q1.15625 0 2.0 0.46875q0.859375 0.46875 1.4375 1.359375q0.578125 0.875 0.859375 2.15625q0.28125 1.265625 0.28125 2.890625zm-6.328125 0q0 2.28125 0.390625 3.421875q0.390625 1.140625 1.359375 1.140625q0.953125 0 1.359375 -1.125q0.421875 -1.140625 0.421875 -3.4375q0 -2.296875 -0.421875 -3.4375q-0.40625 -1.15625 -1.359375 -1.15625q-0.484375 0 -0.8125 0.296875q-0.328125 0.28125 -0.546875 0.859375q-0.203125 0.578125 -0.296875 1.4375q-0.09375 0.859375 -0.09375 2.0zm7.9630127 5.359375q0 -0.4375 0.125 -0.734375q0.125 -0.296875 0.34375 -0.46875q0.21875 -0.1875 0.5 -0.265625q0.296875 -0.078125 0.640625 -0.078125q0.3125 0 0.59375 0.078125q0.296875 0.078125 0.515625 0.265625q0.21875 0.171875 0.34375 0.46875q0.125 0.296875 0.125 0.734375q0 0.40625 -0.125 0.703125q-0.125 0.28125 -0.34375 0.484375q-0.21875 0.1875 -0.515625 0.265625q-0.28125 0.09375 -0.59375 0.09375q-0.34375 0 -0.640625 -0.09375q-0.28125 -0.078125 -0.5 -0.265625q-0.21875 -0.203125 -0.34375 -0.484375q-0.125 -0.296875 -0.125 -0.703125zm13.960571 -5.359375q0 1.609375 -0.25 2.875q-0.25 1.265625 -0.8125 2.15625q-0.546875 0.875 -1.421875 1.34375q-0.859375 0.46875 -2.09375 0.46875q-1.15625 0 -2.015625 -0.46875q-0.84375 -0.46875 -1.421875 -1.34375q-0.5625 -0.890625 -0.84375 -2.15625q-0.265625 -1.265625 -0.265625 -2.875q0 -1.609375 0.25 -2.890625q0.25 -1.28125 0.796875 -2.15625q0.546875 -0.890625 1.40625 -1.359375q0.875 -0.46875 2.09375 -0.46875q1.15625 0 2.0 0.46875q0.859375 0.46875 1.4375 1.359375q0.578125 0.875 0.859375 2.15625q0.28125 1.265625 0.28125 2.890625zm-6.328125 0q0 2.28125 0.390625 3.421875q0.390625 1.140625 1.359375 1.140625q0.953125 0 1.359375 -1.125q0.421875 -1.140625 0.421875 -3.4375q0 -2.296875 -0.421875 -3.4375q-0.40625 -1.15625 -1.359375 -1.15625q-0.484375 0 -0.8125 0.296875q-0.328125 0.28125 -0.546875 0.859375q-0.203125 0.578125 -0.296875 1.4375q-0.09375 0.859375 -0.09375 2.0zm7.9630127 5.359375q0 -0.4375 0.125 -0.734375q0.125 -0.296875 0.34375 -0.46875q0.21875 -0.1875 0.5 -0.265625q0.296875 -0.078125 0.640625 -0.078125q0.3125 0 0.59375 0.078125q0.296875 0.078125 0.515625 0.265625q0.21875 0.171875 0.34375 0.46875q0.125 0.296875 0.125 0.734375q0 0.40625 -0.125 0.703125q-0.125 0.28125 -0.34375 0.484375q-0.21875 0.1875 -0.515625 0.265625q-0.28125 0.09375 -0.59375 0.09375q-0.34375 0 -0.640625 -0.09375q-0.28125 -0.078125 -0.5 -0.265625q-0.21875 -0.203125 -0.34375 -0.484375q-0.125 -0.296875 -0.125 -0.703125zm13.944916 1.296875l-8.9374695 0l0 -1.953125l3.125 -3.390625q0.59375 -0.625 1.078125 -1.15625q0.484375 -0.546875 0.828125 -1.0625q0.34375 -0.515625 0.53125 -1.03125q0.203125 -0.53125 0.203125 -1.140625q0 -0.671875 -0.40625 -1.046875q-0.40625 -0.375 -1.09375 -0.375q-0.71875 0 -1.390625 0.359375q-0.65625 0.34375 -1.390625 1.0l-1.53125 -1.8125q0.421875 -0.375 0.859375 -0.703125q0.453125 -0.34375 0.984375 -0.609375q0.546875 -0.265625 1.1875 -0.421875q0.640625 -0.171875 1.453125 -0.171875q0.953125 0 1.703125 0.265625q0.7655945 0.265625 1.2968445 0.765625q0.546875 0.484375 0.828125 1.171875q0.296875 0.6875 0.296875 1.5625q0 0.78125 -0.28125 1.5q-0.265625 0.703125 -0.75 1.390625q-0.46875 0.6875 -1.0937195 1.375q-0.625 0.671875 -1.328125 1.375l-1.609375 1.609375l0 0.125l5.4374695 0l0 2.375zm1.6505127 -1.296875q0 -0.4375 0.125 -0.734375q0.125 -0.296875 0.34375 -0.46875q0.21875 -0.1875 0.5 -0.265625q0.296875 -0.078125 0.640625 -0.078125q0.3125 0 0.59375 0.078125q0.296875 0.078125 0.515625 0.265625q0.21875 0.171875 0.34375 0.46875q0.125 0.296875 0.125 0.734375q0 0.40625 -0.125 0.703125q-0.125 0.28125 -0.34375 0.484375q-0.21875 0.1875 -0.515625 0.265625q-0.28125 0.09375 -0.59375 0.09375q-0.34375 0 -0.640625 -0.09375q-0.28125 -0.078125 -0.5 -0.265625q-0.21875 -0.203125 -0.34375 -0.484375q-0.125 -0.296875 -0.125 -0.703125zm11.694946 1.296875l-2.8125 0l0 -7.703125q0 -0.234375 0 -0.5625q0.015625 -0.34375 0.03125 -0.703125q0.015625 -0.359375 0.015625 -0.71875q0.015625 -0.375 0.03125 -0.671875q-0.046875 0.0625 -0.15625 0.171875q-0.109375 0.109375 -0.25 0.25q-0.140625 0.125 -0.28125 0.265625q-0.140625 0.125 -0.28125 0.234375l-1.53125 1.234375l-1.359375 -1.703125l4.28125 -3.40625l2.3125 0l0 13.3125zm12.541138 -6.65625q0 1.609375 -0.25 2.875q-0.25 1.265625 -0.8125 2.15625q-0.546875 0.875 -1.421875 1.34375q-0.859375 0.46875 -2.09375 0.46875q-1.15625 0 -2.015625 -0.46875q-0.84375 -0.46875 -1.421875 -1.34375q-0.5625 -0.890625 -0.84375 -2.15625q-0.265625 -1.265625 -0.265625 -2.875q0 -1.609375 0.25 -2.890625q0.25 -1.28125 0.796875 -2.15625q0.546875 -0.890625 1.40625 -1.359375q0.875 -0.46875 2.09375 -0.46875q1.15625 0 2.0 0.46875q0.859375 0.46875 1.4375 1.359375q0.578125 0.875 0.859375 2.15625q0.28125 1.265625 0.28125 2.890625zm-6.328125 0q0 2.28125 0.390625 3.421875q0.390625 1.140625 1.359375 1.140625q0.953125 0 1.359375 -1.125q0.421875 -1.140625 0.421875 -3.4375q0 -2.296875 -0.421875 -3.4375q-0.40625 -1.15625 -1.359375 -1.15625q-0.484375 0 -0.8125 0.296875q-0.328125 0.28125 -0.546875 0.859375q-0.203125 0.578125 -0.296875 1.4375q-0.09375 0.859375 -0.09375 2.0z" fill-rule="nonzero"/><path fill="#cfe2f3" d="m263.5958 38.16273l108.09448 0l0 74.64566l-108.09448 0z" fill-rule="evenodd"/><path stroke="#000000" stroke-width="1.0" stroke-linejoin="round" stroke-linecap="butt" d="m263.5958 38.16273l108.09448 0l0 74.64566l-108.09448 0z" fill-rule="evenodd"/><path fill="#000000" d="m286.27408 82.40556l-2.8125 0l0 -7.703125q0 -0.234375 0 -0.5625q0.015625 -0.34375 0.03125 -0.703125q0.015625 -0.359375 0.015625 -0.71875q0.015625 -0.375 0.03125 -0.671875q-0.046875 0.0625 -0.15625 0.171875q-0.109375 0.109375 -0.25 0.25q-0.140625 0.125 -0.28125 0.265625q-0.140625 0.125 -0.28125 0.234375l-1.53125 1.234375l-1.359375 -1.703125l4.28125 -3.40625l2.3125 0l0 13.3125zm12.541138 -6.65625q0 1.609375 -0.25 2.875q-0.25 1.265625 -0.8125 2.15625q-0.546875 0.875 -1.421875 1.34375q-0.859375 0.46875 -2.09375 0.46875q-1.15625 0 -2.015625 -0.46875q-0.84375 -0.46875 -1.421875 -1.34375q-0.5625 -0.890625 -0.84375 -2.15625q-0.265625 -1.265625 -0.265625 -2.875q0 -1.609375 0.25 -2.890625q0.25 -1.28125 0.796875 -2.15625q0.546875 -0.890625 1.40625 -1.359375q0.875 -0.46875 2.09375 -0.46875q1.15625 0 2.0 0.46875q0.859375 0.46875 1.4375 1.359375q0.578125 0.875 0.859375 2.15625q0.28125 1.265625 0.28125 2.890625zm-6.328125 0q0 2.28125 0.390625 3.421875q0.390625 1.140625 1.359375 1.140625q0.953125 0 1.359375 -1.125q0.421875 -1.140625 0.421875 -3.4375q0 -2.296875 -0.421875 -3.4375q-0.40625 -1.15625 -1.359375 -1.15625q-0.484375 0 -0.8125 0.296875q-0.328125 0.28125 -0.546875 0.859375q-0.203125 0.578125 -0.296875 1.4375q-0.09375 0.859375 -0.09375 2.0zm7.9630127 5.359375q0 -0.4375 0.125 -0.734375q0.125 -0.296875 0.34375 -0.46875q0.21875 -0.1875 0.5 -0.265625q0.296875 -0.078125 0.640625 -0.078125q0.3125 0 0.59375 0.078125q0.296875 0.078125 0.515625 0.265625q0.21875 0.171875 0.34375 0.46875q0.125 0.296875 0.125 0.734375q0 0.40625 -0.125 0.703125q-0.125 0.28125 -0.34375 0.484375q-0.21875 0.1875 -0.515625 0.265625q-0.28125 0.09375 -0.59375 0.09375q-0.34375 0 -0.640625 -0.09375q-0.28125 -0.078125 -0.5 -0.265625q-0.21875 -0.203125 -0.34375 -0.484375q-0.125 -0.296875 -0.125 -0.703125zm13.960571 -5.359375q0 1.609375 -0.25 2.875q-0.25 1.265625 -0.8125 2.15625q-0.546875 0.875 -1.421875 1.34375q-0.859375 0.46875 -2.09375 0.46875q-1.15625 0 -2.015625 -0.46875q-0.84375 -0.46875 -1.421875 -1.34375q-0.5625 -0.890625 -0.84375 -2.15625q-0.265625 -1.265625 -0.265625 -2.875q0 -1.609375 0.25 -2.890625q0.25 -1.28125 0.796875 -2.15625q0.546875 -0.890625 1.40625 -1.359375q0.875 -0.46875 2.09375 -0.46875q1.15625 0 2.0 0.46875q0.859375 0.46875 1.4375 1.359375q0.578125 0.875 0.859375 2.15625q0.28125 1.265625 0.28125 2.890625zm-6.328125 0q0 2.28125 0.390625 3.421875q0.390625 1.140625 1.359375 1.140625q0.953125 0 1.359375 -1.125q0.421875 -1.140625 0.421875 -3.4375q0 -2.296875 -0.421875 -3.4375q-0.40625 -1.15625 -1.359375 -1.15625q-0.484375 0 -0.8125 0.296875q-0.328125 0.28125 -0.546875 0.859375q-0.203125 0.578125 -0.296875 1.4375q-0.09375 0.859375 -0.09375 2.0zm7.9630127 5.359375q0 -0.4375 0.125 -0.734375q0.125 -0.296875 0.34375 -0.46875q0.21875 -0.1875 0.5 -0.265625q0.296875 -0.078125 0.640625 -0.078125q0.3125 0 0.59375 0.078125q0.296875 0.078125 0.515625 0.265625q0.21875 0.171875 0.34375 0.46875q0.125 0.296875 0.125 0.734375q0 0.40625 -0.125 0.703125q-0.125 0.28125 -0.34375 0.484375q-0.21875 0.1875 -0.515625 0.265625q-0.28125 0.09375 -0.59375 0.09375q-0.34375 0 -0.640625 -0.09375q-0.28125 -0.078125 -0.5 -0.265625q-0.21875 -0.203125 -0.34375 -0.484375q-0.125 -0.296875 -0.125 -0.703125zm11.694946 1.296875l-2.8125 0l0 -7.703125q0 -0.234375 0 -0.5625q0.015625 -0.34375 0.03125 -0.703125q0.015625 -0.359375 0.015625 -0.71875q0.015625 -0.375 0.03125 -0.671875q-0.046875 0.0625 -0.15625 0.171875q-0.109375 0.109375 -0.25 0.25q-0.140625 0.125 -0.28125 0.265625q-0.140625 0.125 -0.28125 0.234375l-1.53125 1.234375l-1.359375 -1.703125l4.28125 -3.40625l2.3125 0l0 13.3125zm3.9005127 -1.296875q0 -0.4375 0.125 -0.734375q0.125 -0.296875 0.34375 -0.46875q0.21875 -0.1875 0.5 -0.265625q0.296875 -0.078125 0.640625 -0.078125q0.3125 0 0.59375 0.078125q0.296875 0.078125 0.515625 0.265625q0.21875 0.171875 0.34375 0.46875q0.125 0.296875 0.125 0.734375q0 0.40625 -0.125 0.703125q-0.125 0.28125 -0.34375 0.484375q-0.21875 0.1875 -0.515625 0.265625q-0.28125 0.09375 -0.59375 0.09375q-0.34375 0 -0.640625 -0.09375q-0.28125 -0.078125 -0.5 -0.265625q-0.21875 -0.203125 -0.34375 -0.484375q-0.125 -0.296875 -0.125 -0.703125zm11.694946 1.296875l-2.8125 0l0 -7.703125q0 -0.234375 0 -0.5625q0.015625 -0.34375 0.03125 -0.703125q0.015625 -0.359375 0.015625 -0.71875q0.015625 -0.375 0.03125 -0.671875q-0.046875 0.0625 -0.15625 0.171875q-0.109375 0.109375 -0.25 0.25q-0.140625 0.125 -0.28125 0.265625q-0.140625 0.125 -0.28125 0.234375l-1.53125 1.234375l-1.359375 -1.703125l4.28125 -3.40625l2.3125 0l0 13.3125zm12.541138 -6.65625q0 1.609375 -0.25 2.875q-0.25 1.265625 -0.8125 2.15625q-0.546875 0.875 -1.421875 1.34375q-0.859375 0.46875 -2.09375 0.46875q-1.15625 0 -2.015625 -0.46875q-0.84375 -0.46875 -1.421875 -1.34375q-0.5625 -0.890625 -0.84375 -2.15625q-0.265625 -1.265625 -0.265625 -2.875q0 -1.609375 0.25 -2.890625q0.25 -1.28125 0.796875 -2.15625q0.546875 -0.890625 1.40625 -1.359375q0.875 -0.46875 2.09375 -0.46875q1.15625 0 2.0 0.46875q0.859375 0.46875 1.4375 1.359375q0.578125 0.875 0.859375 2.15625q0.28125 1.265625 0.28125 2.890625zm-6.328125 0q0 2.28125 0.390625 3.421875q0.390625 1.140625 1.359375 1.140625q0.953125 0 1.359375 -1.125q0.421875 -1.140625 0.421875 -3.4375q0 -2.296875 -0.421875 -3.4375q-0.40625 -1.15625 -1.359375 -1.15625q-0.484375 0 -0.8125 0.296875q-0.328125 0.28125 -0.546875 0.859375q-0.203125 0.578125 -0.296875 1.4375q-0.09375 0.859375 -0.09375 2.0z" fill-rule="nonzero"/><path fill="#ead1dc" d="m638.7402 38.16273l122.14172 0l0 74.64566l-122.14172 0z" fill-rule="evenodd"/><path stroke="#000000" stroke-width="1.0" stroke-linejoin="round" stroke-linecap="butt" d="m638.7402 38.16273l122.14172 0l0 74.64566l-122.14172 0z" fill-rule="evenodd"/><path fill="#000000" d="m663.3043 82.40556l-2.8125 0l0 -7.703125q0 -0.234375 0 -0.5625q0.015625 -0.34375 0.03125 -0.703125q0.015625 -0.359375 0.015625 -0.71875q0.015625 -0.375 0.03125 -0.671875q-0.046875 0.0625 -0.15625 0.171875q-0.109375 0.109375 -0.25 0.25q-0.140625 0.125 -0.28125 0.265625q-0.140625 0.125 -0.28125 0.234375l-1.53125 1.234375l-1.359375 -1.703125l4.28125 -3.40625l2.3125 0l0 13.3125zm12.541138 -6.65625q0 1.609375 -0.25 2.875q-0.25 1.265625 -0.8125 2.15625q-0.546875 0.875 -1.421875 1.34375q-0.859375 0.46875 -2.09375 0.46875q-1.15625 0 -2.015625 -0.46875q-0.84375 -0.46875 -1.421875 -1.34375q-0.5625 -0.890625 -0.84375 -2.15625q-0.265625 -1.265625 -0.265625 -2.875q0 -1.609375 0.25 -2.890625q0.25 -1.28125 0.796875 -2.15625q0.546875 -0.890625 1.40625 -1.359375q0.875 -0.46875 2.09375 -0.46875q1.15625 0 2.0 0.46875q0.859375 0.46875 1.4375 1.359375q0.578125 0.875 0.859375 2.15625q0.28125 1.265625 0.28125 2.890625zm-6.328125 0q0 2.28125 0.390625 3.421875q0.390625 1.140625 1.359375 1.140625q0.953125 0 1.359375 -1.125q0.421875 -1.140625 0.421875 -3.4375q0 -2.296875 -0.421875 -3.4375q-0.40625 -1.15625 -1.359375 -1.15625q-0.484375 0 -0.8125 0.296875q-0.328125 0.28125 -0.546875 0.859375q-0.203125 0.578125 -0.296875 1.4375q-0.09375 0.859375 -0.09375 2.0zm7.9630127 5.359375q0 -0.4375 0.125 -0.734375q0.125 -0.296875 0.34375 -0.46875q0.21875 -0.1875 0.5 -0.265625q0.296875 -0.078125 0.640625 -0.078125q0.3125 0 0.59375 0.078125q0.296875 0.078125 0.515625 0.265625q0.21875 0.171875 0.34375 0.46875q0.125 0.296875 0.125 0.734375q0 0.40625 -0.125 0.703125q-0.125 0.28125 -0.34375 0.484375q-0.21875 0.1875 -0.515625 0.265625q-0.28125 0.09375 -0.59375 0.09375q-0.34375 0 -0.640625 -0.09375q-0.28125 -0.078125 -0.5 -0.265625q-0.21875 -0.203125 -0.34375 -0.484375q-0.125 -0.296875 -0.125 -0.703125zm13.960571 -5.359375q0 1.609375 -0.25 2.875q-0.25 1.265625 -0.8125 2.15625q-0.546875 0.875 -1.421875 1.34375q-0.859375 0.46875 -2.09375 0.46875q-1.15625 0 -2.015625 -0.46875q-0.84375 -0.46875 -1.421875 -1.34375q-0.5625 -0.890625 -0.84375 -2.15625q-0.265625 -1.265625 -0.265625 -2.875q0 -1.609375 0.25 -2.890625q0.25 -1.28125 0.796875 -2.15625q0.546875 -0.890625 1.40625 -1.359375q0.875 -0.46875 2.09375 -0.46875q1.15625 0 2.0 0.46875q0.859375 0.46875 1.4375 1.359375q0.578125 0.875 0.859375 2.15625q0.28125 1.265625 0.28125 2.890625zm-6.328125 0q0 2.28125 0.390625 3.421875q0.390625 1.140625 1.359375 1.140625q0.953125 0 1.359375 -1.125q0.421875 -1.140625 0.421875 -3.4375q0 -2.296875 -0.421875 -3.4375q-0.40625 -1.15625 -1.359375 -1.15625q-0.484375 0 -0.8125 0.296875q-0.328125 0.28125 -0.546875 0.859375q-0.203125 0.578125 -0.296875 1.4375q-0.09375 0.859375 -0.09375 2.0zm7.9630127 5.359375q0 -0.4375 0.125 -0.734375q0.125 -0.296875 0.34375 -0.46875q0.21875 -0.1875 0.5 -0.265625q0.296875 -0.078125 0.640625 -0.078125q0.3125 0 0.59375 0.078125q0.296875 0.078125 0.515625 0.265625q0.21875 0.171875 0.34375 0.46875q0.125 0.296875 0.125 0.734375q0 0.40625 -0.125 0.703125q-0.125 0.28125 -0.34375 0.484375q-0.21875 0.1875 -0.515625 0.265625q-0.28125 0.09375 -0.59375 0.09375q-0.34375 0 -0.640625 -0.09375q-0.28125 -0.078125 -0.5 -0.265625q-0.21875 -0.203125 -0.34375 -0.484375q-0.125 -0.296875 -0.125 -0.703125zm13.944946 1.296875l-8.9375 0l0 -1.953125l3.125 -3.390625q0.59375 -0.625 1.078125 -1.15625q0.484375 -0.546875 0.828125 -1.0625q0.34375 -0.515625 0.53125 -1.03125q0.203125 -0.53125 0.203125 -1.140625q0 -0.671875 -0.40625 -1.046875q-0.40625 -0.375 -1.09375 -0.375q-0.71875 0 -1.390625 0.359375q-0.65625 0.34375 -1.390625 1.0l-1.53125 -1.8125q0.421875 -0.375 0.859375 -0.703125q0.453125 -0.34375 0.984375 -0.609375q0.546875 -0.265625 1.1875 -0.421875q0.640625 -0.171875 1.453125 -0.171875q0.953125 0 1.703125 0.265625q0.765625 0.265625 1.296875 0.765625q0.546875 0.484375 0.828125 1.171875q0.296875 0.6875 0.296875 1.5625q0 0.78125 -0.28125 1.5q-0.265625 0.703125 -0.75 1.390625q-0.46875 0.6875 -1.09375 1.375q-0.625 0.671875 -1.328125 1.375l-1.609375 1.609375l0 0.125l5.4375 0l0 2.375zm1.6505127 -1.296875q0 -0.4375 0.125 -0.734375q0.125 -0.296875 0.34375 -0.46875q0.21875 -0.1875 0.5 -0.265625q0.296875 -0.078125 0.640625 -0.078125q0.3125 0 0.59375 0.078125q0.296875 0.078125 0.515625 0.265625q0.21875 0.171875 0.34375 0.46875q0.125 0.296875 0.125 0.734375q0 0.40625 -0.125 0.703125q-0.125 0.28125 -0.34375 0.484375q-0.21875 0.1875 -0.515625 0.265625q-0.28125 0.09375 -0.59375 0.09375q-0.34375 0 -0.640625 -0.09375q-0.28125 -0.078125 -0.5 -0.265625q-0.21875 -0.203125 -0.34375 -0.484375q-0.125 -0.296875 -0.125 -0.703125zm11.694946 1.296875l-2.8125 0l0 -7.703125q0 -0.234375 0 -0.5625q0.015625 -0.34375 0.03125 -0.703125q0.015625 -0.359375 0.015625 -0.71875q0.015625 -0.375 0.03125 -0.671875q-0.046875 0.0625 -0.15625 0.171875q-0.109375 0.109375 -0.25 0.25q-0.140625 0.125 -0.28125 0.265625q-0.140625 0.125 -0.28125 0.234375l-1.53125 1.234375l-1.359375 -1.703125l4.28125 -3.40625l2.3125 0l0 13.3125zm12.541138 -6.65625q0 1.609375 -0.25 2.875q-0.25 1.265625 -0.8125 2.15625q-0.546875 0.875 -1.421875 1.34375q-0.859375 0.46875 -2.09375 0.46875q-1.15625 0 -2.015625 -0.46875q-0.84375 -0.46875 -1.421875 -1.34375q-0.5625 -0.890625 -0.84375 -2.15625q-0.265625 -1.265625 -0.265625 -2.875q0 -1.609375 0.25 -2.890625q0.25 -1.28125 0.796875 -2.15625q0.546875 -0.890625 1.40625 -1.359375q0.875 -0.46875 2.09375 -0.46875q1.15625 0 2.0 0.46875q0.859375 0.46875 1.4375 1.359375q0.578125 0.875 0.859375 2.15625q0.28125 1.265625 0.28125 2.890625zm-6.328125 0q0 2.28125 0.390625 3.421875q0.390625 1.140625 1.359375 1.140625q0.953125 0 1.359375 -1.125q0.421875 -1.140625 0.421875 -3.4375q0 -2.296875 -0.421875 -3.4375q-0.40625 -1.15625 -1.359375 -1.15625q-0.484375 0 -0.8125 0.296875q-0.328125 0.28125 -0.546875 0.859375q-0.203125 0.578125 -0.296875 1.4375q-0.09375 0.859375 -0.09375 2.0zm16.603638 0q0 1.609375 -0.25 2.875q-0.25 1.265625 -0.8125 2.15625q-0.546875 0.875 -1.421875 1.34375q-0.859375 0.46875 -2.09375 0.46875q-1.15625 0 -2.015625 -0.46875q-0.84375 -0.46875 -1.421875 -1.34375q-0.5625 -0.890625 -0.84375 -2.15625q-0.265625 -1.265625 -0.265625 -2.875q0 -1.609375 0.25 -2.890625q0.25 -1.28125 0.796875 -2.15625q0.546875 -0.890625 1.40625 -1.359375q0.875 -0.46875 2.09375 -0.46875q1.15625 0 2.0 0.46875q0.859375 0.46875 1.4375 1.359375q0.578125 0.875 0.859375 2.15625q0.28125 1.265625 0.28125 2.890625zm-6.328125 0q0 2.28125 0.390625 3.421875q0.390625 1.140625 1.359375 1.140625q0.953125 0 1.359375 -1.125q0.421875 -1.140625 0.421875 -3.4375q0 -2.296875 -0.421875 -3.4375q-0.40625 -1.15625 -1.359375 -1.15625q-0.484375 0 -0.8125 0.296875q-0.328125 0.28125 -0.546875 0.859375q-0.203125 0.578125 -0.296875 1.4375q-0.09375 0.859375 -0.09375 2.0z" fill-rule="nonzero"/><path fill="#000000" fill-opacity="0.0" d="m69.07087 112.808395l89.5433 89.543304" fill-rule="evenodd"/><path stroke="#000000" stroke-width="1.0" stroke-linejoin="round" stroke-linecap="butt" d="m69.07087 112.808395l89.5433 89.543304" fill-rule="evenodd"/><path fill="#000000" fill-opacity="0.0" d="m317.64304 112.808395l-82.236206 82.23622" fill-rule="evenodd"/><path stroke="#000000" stroke-width="1.0" stroke-linejoin="round" stroke-linecap="butt" d="m317.64304 112.808395l-82.236206 82.23622" fill-rule="evenodd"/><path fill="#000000" fill-opacity="0.0" d="m425.73752 112.808395l105.322845 105.322845" fill-rule="evenodd"/><path stroke="#000000" stroke-width="1.0" stroke-linejoin="round" stroke-linecap="butt" d="m425.73752 112.808395l105.322845 105.322845" fill-rule="evenodd"/><path fill="#000000" fill-opacity="0.0" d="m699.81104 112.808395l-94.456726 94.456696" fill-rule="evenodd"/><path stroke="#000000" stroke-width="1.0" stroke-linejoin="round" stroke-linecap="butt" d="m699.81104 112.808395l-94.456726 94.456696" fill-rule="evenodd"/><path fill="#cfe2f3" d="m90.25399 203.536l0 0c-1.5763626 -12.068497 3.5991516 -24.015594 13.330383 -30.771667c9.731232 -6.7560883 22.311539 -7.1362915 32.402626 -0.97927856l0 0c3.5745697 -7.0171356 10.117081 -11.861969 17.648544 -13.069061c7.5314636 -1.207077 15.167282 1.3653564 20.597763 6.9392242l0 0c3.0450745 -6.3621826 9.024139 -10.636749 15.815491 -11.3068695c6.7913666 -0.67012024 13.433884 2.3590393 17.57045 8.0125885l0 0c5.5013733 -6.7438965 14.254196 -9.583359 22.47107 -7.289734c8.216873 2.2936249 14.421982 9.30838 15.930328 18.008942l0 0c6.7401276 1.9152832 12.354507 6.7842255 15.392563 13.348816c3.0380554 6.5645905 3.2017517 14.180878 0.44885254 20.881058l0 0c6.637024 8.999054 8.189606 20.990189 4.078308 31.498535c-4.1112976 10.508331 -13.268768 17.955124 -24.055038 19.561325c-0.076034546 9.862457 -5.267975 18.91211 -13.574646 23.660858c-8.306656 4.748749 -18.430923 4.4550476 -26.470459 -0.7679138l0 0c-3.424408 11.811981 -13.063004 20.503143 -24.751526 22.318542c-11.688538 1.8154297 -23.33162 -3.570343 -29.899002 -13.830475l0 0c-8.050232 5.057251 -17.709854 6.514099 -26.799835 4.04187c-9.089973 -2.4721985 -16.844627 -8.665222 -21.514648 -17.182007l0 0c-8.226334 1.0028992 -16.180061 -3.4372864 -19.913773 -11.116821c-3.7337189 -7.6795654 -2.4525986 -16.963745 3.2075348 -23.244812l0 0c-7.3381042 -4.4994507 -11.082443 -13.427872 -9.280502 -22.12944c1.8019485 -8.701553 8.741852 -15.2044525 17.200829 -16.117676z" fill-rule="evenodd"/><path fill="#000000" fill-opacity="0.0" d="m82.17105 242.24826l0 0c3.4628754 2.1233063 7.4633026 3.0864868 11.464165 2.7602234m5.2402725 31.602173c1.72052 -0.20974731 3.406952 -0.65390015 5.0158157 -1.3210449m43.296272 14.460632c-1.2101135 -1.8905029 -2.2232666 -3.9107056 -3.0222168 -6.026123m57.67482 -2.4623108l0 0c0.6243286 -2.1535034 1.0288391 -4.3699036 1.2067719 -6.612274m38.836823 -16.279816c0.08093262 -10.500107 -5.643692 -20.11412 -14.715012 -24.712524m34.69156 -26.346252c-1.4690857 3.5754852 -3.711792 6.747238 -6.5522766 9.266602m-9.2877655 -43.497406l0 0c0.25032043 1.4438629 0.36616516 2.9094238 0.345932 4.3763733m-38.746674 -15.095154l0 0c-1.3723297 1.6822662 -2.5029297 3.5621796 -3.3566284 5.5812073m-30.029633 -2.2876434l0 0c-0.73132324 1.5279846 -1.2774353 3.144867 -1.6257324 4.8133698m-36.62114 1.3165894l0 0c2.1352692 1.3028107 4.1106873 2.8708954 5.882843 4.6698m-51.615257 27.081314l0 0c0.21726227 1.6633606 0.5605545 3.3061981 1.0266495 4.913162" fill-rule="evenodd"/><path stroke="#000000" stroke-width="1.0" stroke-linejoin="round" stroke-linecap="butt" d="m90.25399 203.536l0 0c-1.5763626 -12.068497 3.5991516 -24.015594 13.330383 -30.771667c9.731232 -6.7560883 22.311539 -7.1362915 32.402626 -0.97927856l0 0c3.5745697 -7.0171356 10.117081 -11.861969 17.648544 -13.069061c7.5314636 -1.207077 15.167282 1.3653564 20.597763 6.9392242l0 0c3.0450745 -6.3621826 9.024139 -10.636749 15.815491 -11.3068695c6.7913666 -0.67012024 13.433884 2.3590393 17.57045 8.0125885l0 0c5.5013733 -6.7438965 14.254196 -9.583359 22.47107 -7.289734c8.216873 2.2936249 14.421982 9.30838 15.930328 18.008942l0 0c6.7401276 1.9152832 12.354507 6.7842255 15.392563 13.348816c3.0380554 6.5645905 3.2017517 14.180878 0.44885254 20.881058l0 0c6.637024 8.999054 8.189606 20.990189 4.078308 31.498535c-4.1112976 10.508331 -13.268768 17.955124 -24.055038 19.561325c-0.076034546 9.862457 -5.267975 18.91211 -13.574646 23.660858c-8.306656 4.748749 -18.430923 4.4550476 -26.470459 -0.7679138l0 0c-3.424408 11.811981 -13.063004 20.503143 -24.751526 22.318542c-11.688538 1.8154297 -23.33162 -3.570343 -29.899002 -13.830475l0 0c-8.050232 5.057251 -17.709854 6.514099 -26.799835 4.04187c-9.089973 -2.4721985 -16.844627 -8.665222 -21.514648 -17.182007l0 0c-8.226334 1.0028992 -16.180061 -3.4372864 -19.913773 -11.116821c-3.7337189 -7.6795654 -2.4525986 -16.963745 3.2075348 -23.244812l0 0c-7.3381042 -4.4994507 -11.082443 -13.427872 -9.280502 -22.12944c1.8019485 -8.701553 8.741852 -15.2044525 17.200829 -16.117676z" fill-rule="evenodd"/><path stroke="#000000" stroke-width="1.0" stroke-linejoin="round" stroke-linecap="butt" d="m82.17105 242.24826l0 0c3.4628754 2.1233063 7.4633026 3.0864868 11.464165 2.7602234m5.2402725 31.602173c1.72052 -0.20974731 3.406952 -0.65390015 5.0158157 -1.3210449m43.296272 14.460632c-1.2101135 -1.8905029 -2.2232666 -3.9107056 -3.0222168 -6.026123m57.67482 -2.4623108l0 0c0.6243286 -2.1535034 1.0288391 -4.3699036 1.2067719 -6.612274m38.836823 -16.279816c0.08093262 -10.500107 -5.643692 -20.11412 -14.715012 -24.712524m34.69156 -26.346252c-1.4690857 3.5754852 -3.711792 6.747238 -6.5522766 9.266602m-9.2877655 -43.497406l0 0c0.25032043 1.4438629 0.36616516 2.9094238 0.345932 4.3763733m-38.746674 -15.095154l0 0c-1.3723297 1.6822662 -2.5029297 3.5621796 -3.3566284 5.5812073m-30.029633 -2.2876434l0 0c-0.73132324 1.5279846 -1.2774353 3.144867 -1.6257324 4.8133698m-36.62114 1.3165894l0 0c2.1352692 1.3028107 4.1106873 2.8708954 5.882843 4.6698m-51.615257 27.081314l0 0c0.21726227 1.6633606 0.5605545 3.3061981 1.0266495 4.913162" fill-rule="evenodd"/><path fill="#000000" d="m131.98267 232.02861l-1.953125 0l-6.5468826 -11.015625l-0.078125 0q0.0625 0.6875 0.09375 1.390625q0.03125 0.59375 0.046875 1.234375q0.03125 0.640625 0.03125 1.171875l0 7.21875l-1.5625 0l0 -13.3125l1.9375 0l6.5312576 10.96875l0.0625 0q-0.03125 -0.703125 -0.0625 -1.375q-0.015625 -0.296875 -0.03125 -0.59375q-0.015625 -0.3125 -0.03125 -0.609375q0 -0.3125 -0.015625 -0.59375q0 -0.28125 0 -0.515625l0 -7.28125l1.578125 0l0 13.3125zm7.350479 0.1875q-1.0 0 -1.828125 -0.328125q-0.828125 -0.34375 -1.421875 -0.984375q-0.59375 -0.65625 -0.921875 -1.609375q-0.328125 -0.96875 -0.328125 -2.1875q0 -1.25 0.296875 -2.21875q0.296875 -0.96875 0.84375 -1.640625q0.546875 -0.6875 1.3125 -1.046875q0.765625 -0.359375 1.6875 -0.359375q0.890625 0 1.609375 0.328125q0.71875 0.328125 1.21875 0.921875q0.515625 0.578125 0.78125 1.40625q0.265625 0.8125 0.265625 1.8125l0 1.03125l-6.3125 0q0.046875 1.765625 0.75 2.59375q0.703125 0.828125 2.078125 0.828125q0.453125 0 0.84375 -0.046875q0.40625 -0.046875 0.765625 -0.125q0.375 -0.09375 0.71875 -0.21875q0.359375 -0.140625 0.703125 -0.296875l0 1.46875q-0.359375 0.171875 -0.71875 0.3125q-0.34375 0.125 -0.71875 0.203125q-0.359375 0.078125 -0.765625 0.109375q-0.390625 0.046875 -0.859375 0.046875zm-0.40625 -9.0q-1.03125 0 -1.640625 0.71875q-0.609375 0.703125 -0.703125 2.0625l4.484375 0q0 -0.625 -0.125 -1.125q-0.125 -0.515625 -0.390625 -0.875q-0.25 -0.375 -0.65625 -0.578125q-0.40625 -0.203125 -0.96875 -0.203125zm9.468384 7.640625q0.15625 0 0.359375 -0.015625q0.21875 -0.03125 0.40625 -0.046875q0.1875 -0.03125 0.34375 -0.0625q0.171875 -0.046875 0.25 -0.0625l0 1.25q-0.125 0.0625 -0.3125 0.109375q-0.171875 0.046875 -0.390625 0.09375q-0.21875 0.046875 -0.453125 0.0625q-0.234375 0.03125 -0.46875 0.03125q-0.5625 0 -1.046875 -0.15625q-0.484375 -0.140625 -0.84375 -0.484375q-0.34375 -0.359375 -0.546875 -0.96875q-0.1875 -0.609375 -0.1875 -1.53125l0 -5.796875l-1.421875 0l0 -0.734375l1.421875 -0.71875l0.703125 -2.09375l0.953125 0l0 2.296875l2.515625 0l0 1.25l-2.515625 0l0 5.796875q0 0.890625 0.28125 1.34375q0.296875 0.4375 0.953125 0.4375zm10.900116 1.171875l-1.53125 -5.609375q-0.046875 -0.171875 -0.109375 -0.375q-0.046875 -0.203125 -0.109375 -0.421875q-0.046875 -0.234375 -0.109375 -0.46875q-0.046875 -0.234375 -0.109375 -0.46875q-0.125 -0.53125 -0.265625 -1.09375l-0.046875 0q-0.125 0.578125 -0.25 1.109375q-0.09375 0.453125 -0.21875 0.9375q-0.109375 0.484375 -0.203125 0.8125l-1.5625 5.578125l-1.9375 0l-2.546875 -10.0l1.734375 0l1.1875 5.3125q0.09375 0.421875 0.1875 0.90625q0.09375 0.46875 0.171875 0.9375q0.078125 0.46875 0.140625 0.890625q0.078125 0.40625 0.109375 0.671875l0.046875 0q0.046875 -0.234375 0.125 -0.625q0.078125 -0.40625 0.171875 -0.84375q0.09375 -0.453125 0.1875 -0.875q0.109375 -0.4375 0.203125 -0.734375l1.625 -5.640625l1.796875 0l1.5625 5.640625q0.078125 0.3125 0.1875 0.734375q0.109375 0.40625 0.203125 0.84375q0.09375 0.4375 0.171875 0.84375q0.09375 0.390625 0.125 0.65625l0.0625 0q0.03125 -0.234375 0.078125 -0.625q0.0625 -0.40625 0.140625 -0.875q0.09375 -0.484375 0.1875 -0.96875q0.09375 -0.5 0.1875 -0.9375l1.25 -5.3125l1.703125 0l-2.59375 10.0l-1.953125 0zm14.466187 -5.015625q0 1.25 -0.3125 2.21875q-0.296875 0.96875 -0.875 1.625q-0.5625 0.65625 -1.375 1.015625q-0.796875 0.34375 -1.8125 0.34375q-0.9375 0 -1.734375 -0.34375q-0.796875 -0.359375 -1.375 -1.015625q-0.578125 -0.65625 -0.90625 -1.625q-0.3125 -0.96875 -0.3125 -2.21875q0 -1.25 0.296875 -2.203125q0.3125 -0.96875 0.875 -1.625q0.5625 -0.65625 1.375 -1.0q0.828125 -0.34375 1.828125 -0.34375q0.9375 0 1.734375 0.34375q0.796875 0.34375 1.375 1.0q0.578125 0.65625 0.890625 1.625q0.328125 0.953125 0.328125 2.203125zm-7.0 0q0 1.90625 0.625 2.875q0.625 0.953125 2.03125 0.953125q1.40625 0 2.015625 -0.953125q0.625 -0.96875 0.625 -2.875q0 -1.90625 -0.625 -2.84375q-0.625 -0.953125 -2.03125 -0.953125q-1.40625 0 -2.03125 0.953125q-0.609375 0.9375 -0.609375 2.84375zm13.939301 -5.171875q0.265625 0 0.59375 0.03125q0.328125 0.015625 0.5625 0.0625l-0.21875 1.53125q-0.25 -0.046875 -0.515625 -0.078125q-0.265625 -0.03125 -0.5 -0.03125q-0.578125 0 -1.0625 0.234375q-0.46875 0.234375 -0.8125 0.671875q-0.34375 0.421875 -0.53125 1.03125q-0.171875 0.609375 -0.171875 1.34375l0 5.390625l-1.671875 0l0 -10.0l1.359375 0l0.203125 1.828125l0.0625 0q0.234375 -0.390625 0.484375 -0.75q0.265625 -0.375 0.578125 -0.640625q0.328125 -0.28125 0.734375 -0.453125q0.40625 -0.171875 0.90625 -0.171875zm4.645584 5.015625l1.234375 -1.546875l2.671875 -3.28125l1.921875 0l-3.65625 4.328125l3.90625 5.671875l-1.90625 0l-3.0625 -4.59375l-1.0 0.75l0 3.84375l-1.640625 0l0 -14.171875l1.640625 0l0 6.5l-0.140625 2.5l0.03125 0zm17.476501 5.171875l-1.609375 0l0 -8.3125q0 -0.390625 0 -0.828125q0 -0.453125 0.015625 -0.890625q0.015625 -0.453125 0.03125 -0.859375q0.015625 -0.40625 0.03125 -0.71875q-0.15625 0.171875 -0.28125 0.296875q-0.109375 0.109375 -0.234375 0.21875q-0.125 0.109375 -0.265625 0.234375q-0.140625 0.125 -0.328125 0.28125l-1.34375 1.109375l-0.875 -1.125l3.484375 -2.71875l1.375 0l0 13.3125z" fill-rule="nonzero"/><path fill="#ead1dc" d="m478.3065 208.5255l0 0c-1.576355 -12.068497 3.5991516 -24.015594 13.330383 -30.771667c9.731232 -6.7560883 22.311554 -7.1362915 32.40262 -0.97927856l0 0c3.574585 -7.0171356 10.117065 -11.861969 17.64856 -13.069061c7.531433 -1.2070923 15.167297 1.3653564 20.597778 6.9392242l0 0c3.045044 -6.3621826 9.024109 -10.636749 15.815491 -11.3068695c6.791321 -0.67012024 13.433838 2.3590393 17.570435 8.0125885l0 0c5.501343 -6.7438965 14.254211 -9.583359 22.47107 -7.289734c8.216858 2.2936249 14.421997 9.30838 15.930298 18.008942l0 0c6.7401123 1.9152832 12.354492 6.7842255 15.392578 13.348816c3.038025 6.5645905 3.2017822 14.180878 0.44885254 20.881058l0 0c6.637024 8.999054 8.189636 20.990189 4.078308 31.498535c-4.111267 10.508331 -13.268799 17.955124 -24.055054 19.561325c-0.07598877 9.862457 -5.2679443 18.91211 -13.574646 23.660858c-8.306641 4.748749 -18.430908 4.4550476 -26.470459 -0.7679138l0 0c-3.4243774 11.811981 -13.062988 20.503143 -24.751526 22.318542c-11.688538 1.8154297 -23.331604 -3.570343 -29.898987 -13.830475l0 0c-8.050232 5.057251 -17.709839 6.514099 -26.799835 4.04187c-9.089966 -2.4721985 -16.844635 -8.665222 -21.514648 -17.182007l0 0c-8.226318 1.0028992 -16.180054 -3.4372864 -19.913757 -11.116852c-3.7337341 -7.679535 -2.4526062 -16.963715 3.2075195 -23.244781l0 0c-7.3381042 -4.4994507 -11.082428 -13.427872 -9.280487 -22.12944c1.8019409 -8.701553 8.741852 -15.2044525 17.200806 -16.117676z" fill-rule="evenodd"/><path fill="#000000" fill-opacity="0.0" d="m470.22354 247.23776l0 0c3.46286 2.1233063 7.463318 3.0864868 11.464172 2.7602234m5.240265 31.602173c1.72052 -0.20974731 3.406952 -0.65390015 5.015808 -1.3210449m43.296265 14.460632c-1.210083 -1.8905029 -2.2232666 -3.9107056 -3.0222168 -6.026123m57.674866 -2.4623108l0 0c0.6243286 -2.1535034 1.0288086 -4.3699036 1.2067261 -6.612274m38.836853 -16.279816c0.08093262 -10.500122 -5.643738 -20.11412 -14.715027 -24.712524m34.69153 -26.346252c-1.4690552 3.5754852 -3.711731 6.747238 -6.552246 9.266602m-9.287781 -43.497406l0 0c0.25030518 1.4438629 0.3661499 2.9094238 0.34594727 4.3763733m-38.746704 -15.095154l0 0c-1.3723145 1.6822662 -2.5029297 3.5621796 -3.3566284 5.5812073m-30.029602 -2.2876434l0 0c-0.73132324 1.5279846 -1.2774048 3.144867 -1.6257324 4.8133698m-36.621155 1.3165894l0 0c2.135315 1.3028107 4.110718 2.8708954 5.8828735 4.6698m-51.615265 27.081314l0 0c0.21725464 1.6633606 0.5605469 3.3061981 1.0266418 4.913162" fill-rule="evenodd"/><path stroke="#000000" stroke-width="1.0" stroke-linejoin="round" stroke-linecap="butt" d="m478.3065 208.5255l0 0c-1.576355 -12.068497 3.5991516 -24.015594 13.330383 -30.771667c9.731232 -6.7560883 22.311554 -7.1362915 32.40262 -0.97927856l0 0c3.574585 -7.0171356 10.117065 -11.861969 17.64856 -13.069061c7.531433 -1.2070923 15.167297 1.3653564 20.597778 6.9392242l0 0c3.045044 -6.3621826 9.024109 -10.636749 15.815491 -11.3068695c6.791321 -0.67012024 13.433838 2.3590393 17.570435 8.0125885l0 0c5.501343 -6.7438965 14.254211 -9.583359 22.47107 -7.289734c8.216858 2.2936249 14.421997 9.30838 15.930298 18.008942l0 0c6.7401123 1.9152832 12.354492 6.7842255 15.392578 13.348816c3.038025 6.5645905 3.2017822 14.180878 0.44885254 20.881058l0 0c6.637024 8.999054 8.189636 20.990189 4.078308 31.498535c-4.111267 10.508331 -13.268799 17.955124 -24.055054 19.561325c-0.07598877 9.862457 -5.2679443 18.91211 -13.574646 23.660858c-8.306641 4.748749 -18.430908 4.4550476 -26.470459 -0.7679138l0 0c-3.4243774 11.811981 -13.062988 20.503143 -24.751526 22.318542c-11.688538 1.8154297 -23.331604 -3.570343 -29.898987 -13.830475l0 0c-8.050232 5.057251 -17.709839 6.514099 -26.799835 4.04187c-9.089966 -2.4721985 -16.844635 -8.665222 -21.514648 -17.182007l0 0c-8.226318 1.0028992 -16.180054 -3.4372864 -19.913757 -11.116852c-3.7337341 -7.679535 -2.4526062 -16.963715 3.2075195 -23.244781l0 0c-7.3381042 -4.4994507 -11.082428 -13.427872 -9.280487 -22.12944c1.8019409 -8.701553 8.741852 -15.2044525 17.200806 -16.117676z" fill-rule="evenodd"/><path stroke="#000000" stroke-width="1.0" stroke-linejoin="round" stroke-linecap="butt" d="m470.22354 247.23776l0 0c3.46286 2.1233063 7.463318 3.0864868 11.464172 2.7602234m5.240265 31.602173c1.72052 -0.20974731 3.406952 -0.65390015 5.015808 -1.3210449m43.296265 14.460632c-1.210083 -1.8905029 -2.2232666 -3.9107056 -3.0222168 -6.026123m57.674866 -2.4623108l0 0c0.6243286 -2.1535034 1.0288086 -4.3699036 1.2067261 -6.612274m38.836853 -16.279816c0.08093262 -10.500122 -5.643738 -20.11412 -14.715027 -24.712524m34.69153 -26.346252c-1.4690552 3.5754852 -3.711731 6.747238 -6.552246 9.266602m-9.287781 -43.497406l0 0c0.25030518 1.4438629 0.3661499 2.9094238 0.34594727 4.3763733m-38.746704 -15.095154l0 0c-1.3723145 1.6822662 -2.5029297 3.5621796 -3.3566284 5.5812073m-30.029602 -2.2876434l0 0c-0.73132324 1.5279846 -1.2774048 3.144867 -1.6257324 4.8133698m-36.621155 1.3165894l0 0c2.135315 1.3028107 4.110718 2.8708954 5.8828735 4.6698m-51.615265 27.081314l0 0c0.21725464 1.6633606 0.5605469 3.3061981 1.0266418 4.913162" fill-rule="evenodd"/><path fill="#000000" d="m520.03516 237.01811l-1.953125 0l-6.546875 -11.015625l-0.078125 0q0.0625 0.6875 0.09375 1.390625q0.03125 0.59375 0.046875 1.234375q0.03125 0.640625 0.03125 1.171875l0 7.21875l-1.5625 0l0 -13.3125l1.9375 0l6.53125 10.96875l0.0625 0q-0.03125 -0.703125 -0.0625 -1.375q-0.015625 -0.296875 -0.03125 -0.59375q-0.015625 -0.3125 -0.03125 -0.609375q0 -0.3125 -0.015625 -0.59375q0 -0.28125 0 -0.515625l0 -7.28125l1.578125 0l0 13.3125zm7.350464 0.1875q-1.0 0 -1.828125 -0.328125q-0.828125 -0.34375 -1.421875 -0.984375q-0.59375 -0.65625 -0.921875 -1.609375q-0.328125 -0.96875 -0.328125 -2.1875q0 -1.25 0.296875 -2.21875q0.296875 -0.96875 0.84375 -1.640625q0.546875 -0.6875 1.3125 -1.046875q0.765625 -0.359375 1.6875 -0.359375q0.890625 0 1.609375 0.328125q0.71875 0.328125 1.21875 0.921875q0.515625 0.578125 0.78125 1.40625q0.265625 0.8125 0.265625 1.8125l0 1.03125l-6.3125 0q0.046875 1.765625 0.75 2.59375q0.703125 0.828125 2.078125 0.828125q0.453125 0 0.84375 -0.046875q0.40625 -0.046875 0.765625 -0.125q0.375 -0.09375 0.71875 -0.21875q0.359375 -0.140625 0.703125 -0.296875l0 1.46875q-0.359375 0.171875 -0.71875 0.3125q-0.34375 0.125 -0.71875 0.203125q-0.359375 0.078125 -0.765625 0.109375q-0.390625 0.046875 -0.859375 0.046875zm-0.40625 -9.0q-1.03125 0 -1.640625 0.71875q-0.609375 0.703125 -0.703125 2.0625l4.484375 0q0 -0.625 -0.125 -1.125q-0.125 -0.515625 -0.390625 -0.875q-0.25 -0.375 -0.65625 -0.578125q-0.40625 -0.203125 -0.96875 -0.203125zm9.468384 7.640625q0.15625 0 0.359375 -0.015625q0.21875 -0.03125 0.40625 -0.046875q0.1875 -0.03125 0.34375 -0.0625q0.171875 -0.046875 0.25 -0.0625l0 1.25q-0.125 0.0625 -0.3125 0.109375q-0.171875 0.046875 -0.390625 0.09375q-0.21875 0.046875 -0.453125 0.0625q-0.234375 0.03125 -0.46875 0.03125q-0.5625 0 -1.046875 -0.15625q-0.484375 -0.140625 -0.84375 -0.484375q-0.34375 -0.359375 -0.546875 -0.96875q-0.1875 -0.609375 -0.1875 -1.53125l0 -5.796875l-1.421875 0l0 -0.734375l1.421875 -0.71875l0.703125 -2.09375l0.953125 0l0 2.296875l2.515625 0l0 1.25l-2.515625 0l0 5.796875q0 0.890625 0.28125 1.34375q0.296875 0.4375 0.953125 0.4375zm10.9001465 1.171875l-1.53125 -5.609375q-0.046875 -0.171875 -0.109375 -0.375q-0.046875 -0.203125 -0.109375 -0.421875q-0.046875 -0.234375 -0.109375 -0.46875q-0.046875 -0.234375 -0.109375 -0.46875q-0.125 -0.53125 -0.265625 -1.09375l-0.046875 0q-0.125 0.578125 -0.25 1.109375q-0.09375 0.453125 -0.21875 0.9375q-0.109375 0.484375 -0.203125 0.8125l-1.5625 5.578125l-1.9375 0l-2.546875 -10.0l1.734375 0l1.1875 5.3125q0.09375 0.421875 0.1875 0.90625q0.09375 0.46875 0.171875 0.9375q0.078125 0.46875 0.140625 0.890625q0.078125 0.40625 0.109375 0.671875l0.046875 0q0.046875 -0.234375 0.125 -0.625q0.078125 -0.40625 0.171875 -0.84375q0.09375 -0.453125 0.1875 -0.875q0.109375 -0.4375 0.203125 -0.734375l1.625 -5.640625l1.796875 0l1.5625 5.640625q0.078125 0.3125 0.1875 0.734375q0.109375 0.40625 0.203125 0.84375q0.09375 0.4375 0.171875 0.84375q0.09375 0.390625 0.125 0.65625l0.0625 0q0.03125 -0.234375 0.078125 -0.625q0.0625 -0.40625 0.140625 -0.875q0.09375 -0.484375 0.1875 -0.96875q0.09375 -0.5 0.1875 -0.9375l1.25 -5.3125l1.703125 0l-2.59375 10.0l-1.953125 0zm14.466187 -5.015625q0 1.25 -0.3125 2.21875q-0.296875 0.96875 -0.875 1.625q-0.5625 0.65625 -1.375 1.015625q-0.796875 0.34375 -1.8125 0.34375q-0.9375 0 -1.734375 -0.34375q-0.796875 -0.359375 -1.375 -1.015625q-0.578125 -0.65625 -0.90625 -1.625q-0.3125 -0.96875 -0.3125 -2.21875q0 -1.25 0.296875 -2.203125q0.3125 -0.96875 0.875 -1.625q0.5625 -0.65625 1.375 -1.0q0.828125 -0.34375 1.828125 -0.34375q0.9375 0 1.734375 0.34375q0.796875 0.34375 1.375 1.0q0.578125 0.65625 0.890625 1.625q0.328125 0.953125 0.328125 2.203125zm-7.0 0q0 1.90625 0.625 2.875q0.625 0.953125 2.03125 0.953125q1.40625 0 2.015625 -0.953125q0.625 -0.96875 0.625 -2.875q0 -1.90625 -0.625 -2.84375q-0.625 -0.953125 -2.03125 -0.953125q-1.40625 0 -2.03125 0.953125q-0.609375 0.9375 -0.609375 2.84375zm13.93927 -5.171875q0.265625 0 0.59375 0.03125q0.328125 0.015625 0.5625 0.0625l-0.21875 1.53125q-0.25 -0.046875 -0.515625 -0.078125q-0.265625 -0.03125 -0.5 -0.03125q-0.578125 0 -1.0625 0.234375q-0.46875 0.234375 -0.8125 0.671875q-0.34375 0.421875 -0.53125 1.03125q-0.171875 0.609375 -0.171875 1.34375l0 5.390625l-1.671875 0l0 -10.0l1.359375 0l0.203125 1.828125l0.0625 0q0.234375 -0.390625 0.484375 -0.75q0.265625 -0.375 0.578125 -0.640625q0.328125 -0.28125 0.734375 -0.453125q0.40625 -0.171875 0.90625 -0.171875zm4.645569 5.015625l1.234375 -1.546875l2.671875 -3.28125l1.921875 0l-3.65625 4.328125l3.90625 5.671875l-1.90625 0l-3.0625 -4.59375l-1.0 0.75l0 3.84375l-1.640625 0l0 -14.171875l1.640625 0l0 6.5l-0.140625 2.5l0.03125 0zm20.179626 5.171875l-8.3125 0l0 -1.421875l3.1875 -3.46875q0.6875 -0.734375 1.21875 -1.34375q0.546875 -0.609375 0.921875 -1.1875q0.375 -0.59375 0.578125 -1.171875q0.203125 -0.59375 0.203125 -1.296875q0 -0.53125 -0.15625 -0.9375q-0.15625 -0.40625 -0.453125 -0.6875q-0.28125 -0.296875 -0.671875 -0.4375q-0.390625 -0.15625 -0.875 -0.15625q-0.859375 0 -1.5625 0.359375q-0.703125 0.34375 -1.328125 0.890625l-0.921875 -1.078125q0.359375 -0.328125 0.78125 -0.609375q0.421875 -0.296875 0.890625 -0.5q0.484375 -0.21875 1.015625 -0.34375q0.546875 -0.125 1.140625 -0.125q0.875 0 1.578125 0.25q0.703125 0.25 1.1875 0.71875q0.5 0.453125 0.765625 1.109375q0.28125 0.65625 0.28125 1.484375q0 0.78125 -0.25 1.484375q-0.234375 0.703125 -0.65625 1.390625q-0.421875 0.671875 -1.015625 1.359375q-0.578125 0.671875 -1.265625 1.40625l-2.5625 2.734375l0 0.0625l6.28125 0l0 1.515625z" fill-rule="nonzero"/><path fill="#000000" fill-opacity="0.0" d="m11.401575 -5.1916013l105.32284 0l0 30.614174l-105.32284 0z" fill-rule="evenodd"/><path fill="#000000" d="m42.13062 11.540897q0.265625 0 0.59375 0.03125q0.328125 0.015625 0.5625 0.0625l-0.21875 1.53125q-0.25 -0.046875 -0.515625 -0.078125q-0.265625 -0.03125 -0.5 -0.03125q-0.578125 0 -1.0625 0.234375q-0.46875 0.234375 -0.8125 0.671875q-0.34375 0.421875 -0.53125 1.03125q-0.171875 0.609375 -0.171875 1.34375l0 5.390625l-1.671875 0l0 -10.0l1.359375 0l0.203125 1.828125l0.0625 0q0.234375 -0.390625 0.484375 -0.75q0.265625 -0.375 0.578125 -0.640625q0.328125 -0.28125 0.734375 -0.453125q0.40625 -0.171875 0.90625 -0.171875zm11.270584 5.171875q0 1.25 -0.3125 2.21875q-0.296875 0.96875 -0.875 1.625q-0.5625 0.65625 -1.375 1.015625q-0.796875 0.34375 -1.8125 0.34375q-0.9375 0 -1.734375 -0.34375q-0.796875 -0.359375 -1.375 -1.015625q-0.578125 -0.65625 -0.90625 -1.625q-0.3125 -0.96875 -0.3125 -2.21875q0 -1.25 0.296875 -2.203125q0.3125 -0.96875 0.875 -1.625q0.5625 -0.65625 1.375 -1.0q0.828125 -0.34375 1.828125 -0.34375q0.9375 0 1.734375 0.34375q0.796875 0.34375 1.375 1.0q0.578125 0.65625 0.890625 1.625q0.328125 0.953125 0.328125 2.203125zm-7.0 0q0 1.90625 0.625 2.875q0.625 0.953125 2.03125 0.953125q1.40625 0 2.015625 -0.953125q0.625 -0.96875 0.625 -2.875q0 -1.90625 -0.625 -2.84375q-0.625 -0.953125 -2.03125 -0.953125q-1.40625 0 -2.03125 0.953125q-0.609375 0.9375 -0.609375 2.84375zm21.595554 5.015625l0 -6.4375q0 -1.1875 -0.453125 -1.78125q-0.453125 -0.59375 -1.40625 -0.59375q-0.671875 0 -1.140625 0.21875q-0.453125 0.21875 -0.75 0.640625q-0.2968788 0.40625 -0.4375038 1.015625q-0.140625 0.609375 -0.140625 1.421875l0 5.515625l-1.671875 0l0 -6.4375q0 -1.1875 -0.453125 -1.78125q-0.4375 -0.59375 -1.390625 -0.59375q-0.703125 0 -1.1875 0.25q-0.46875 0.234375 -0.765625 0.703125q-0.28125 0.453125 -0.40625 1.125q-0.109375 0.671875 -0.109375 1.546875l0 5.1875l-1.671875 0l0 -10.0l1.359375 0l0.234375 1.34375l0.09375 0q0.21875 -0.390625 0.515625 -0.671875q0.296875 -0.296875 0.65625 -0.484375q0.359375 -0.1875 0.765625 -0.28125q0.40625 -0.09375 0.828125 -0.09375q1.09375 0 1.8125 0.40625q0.734375 0.40625 1.078125 1.25l0.0625 0q0.25 -0.421875 0.578125 -0.734375q0.3281288 -0.3125 0.7187538 -0.515625q0.40625 -0.203125 0.84375 -0.296875q0.4375 -0.109375 0.890625 -0.109375q1.59375 0 2.390625 0.875q0.8125 0.875 0.8125 2.78125l0 6.53125l-1.65625 0zm8.684677 0.1875q-1.0 0 -1.828125 -0.328125q-0.828125 -0.34375 -1.421875 -0.984375q-0.59375 -0.65625 -0.921875 -1.609375q-0.328125 -0.96875 -0.328125 -2.1875q0 -1.25 0.296875 -2.21875q0.296875 -0.96875 0.84375 -1.640625q0.546875 -0.6875 1.3125 -1.046875q0.765625 -0.359375 1.6875 -0.359375q0.890625 0 1.609375 0.328125q0.71875 0.328125 1.21875 0.921875q0.515625 0.578125 0.78125 1.40625q0.265625 0.8125 0.265625 1.8125l0 1.03125l-6.3125 0q0.046875 1.765625 0.75 2.59375q0.703125 0.828125 2.078125 0.828125q0.453125 0 0.84375 -0.046875q0.40625 -0.046875 0.765625 -0.125q0.375 -0.09375 0.71875 -0.21875q0.359375 -0.140625 0.703125 -0.296875l0 1.46875q-0.359375 0.171875 -0.71875 0.3125q-0.34375 0.125 -0.71875 0.203125q-0.359375 0.078125 -0.765625 0.109375q-0.390625 0.046875 -0.859375 0.046875zm-0.40625 -9.0q-1.03125 0 -1.640625 0.71875q-0.609375 0.703125 -0.703125 2.0625l4.484375 0q0 -0.625 -0.125 -1.125q-0.125 -0.515625 -0.390625 -0.875q-0.25 -0.375 -0.65625 -0.578125q-0.40625 -0.203125 -0.96875 -0.203125zm14.593384 3.796875q0 1.25 -0.3125 2.21875q-0.296875 0.96875 -0.875 1.625q-0.5625 0.65625 -1.375 1.015625q-0.796875 0.34375 -1.8125 0.34375q-0.9375 0 -1.734375 -0.34375q-0.796875 -0.359375 -1.375 -1.015625q-0.578125 -0.65625 -0.90625 -1.625q-0.3125 -0.96875 -0.3125 -2.21875q0 -1.25 0.296875 -2.203125q0.3125 -0.96875 0.875 -1.625q0.5625 -0.65625 1.375 -1.0q0.828125 -0.34375 1.828125 -0.34375q0.9375 0 1.734375 0.34375q0.796875 0.34375 1.375 1.0q0.578125 0.65625 0.890625 1.625q0.328125 0.953125 0.328125 2.203125zm-7.0 0q0 1.90625 0.625 2.875q0.625 0.953125 2.03125 0.953125q1.40625 0 2.015625 -0.953125q0.625 -0.96875 0.625 -2.875q0 -1.90625 -0.625 -2.84375q-0.625 -0.953125 -2.03125 -0.953125q-1.40625 0 -2.03125 0.953125q-0.609375 0.9375 -0.609375 2.84375z" fill-rule="nonzero"/><path fill="#000000" fill-opacity="0.0" d="m315.40158 -5.1916013l105.322815 0l0 30.614174l-105.322815 0z" fill-rule="evenodd"/><path fill="#000000" d="m347.49704 11.540897q0.265625 0 0.59375 0.03125q0.328125 0.015625 0.5625 0.0625l-0.21875 1.53125q-0.25 -0.046875 -0.515625 -0.078125q-0.265625 -0.03125 -0.5 -0.03125q-0.578125 0 -1.0625 0.234375q-0.46875 0.234375 -0.8125 0.671875q-0.34375 0.421875 -0.53125 1.03125q-0.171875 0.609375 -0.171875 1.34375l0 5.390625l-1.671875 0l0 -10.0l1.359375 0l0.203125 1.828125l0.0625 0q0.234375 -0.390625 0.484375 -0.75q0.265625 -0.375 0.578125 -0.640625q0.328125 -0.28125 0.734375 -0.453125q0.40625 -0.171875 0.90625 -0.171875zm11.270599 5.171875q0 1.25 -0.3125 2.21875q-0.296875 0.96875 -0.875 1.625q-0.5625 0.65625 -1.375 1.015625q-0.796875 0.34375 -1.8125 0.34375q-0.9375 0 -1.734375 -0.34375q-0.796875 -0.359375 -1.375 -1.015625q-0.578125 -0.65625 -0.90625 -1.625q-0.3125 -0.96875 -0.3125 -2.21875q0 -1.25 0.296875 -2.203125q0.3125 -0.96875 0.875 -1.625q0.5625 -0.65625 1.375 -1.0q0.828125 -0.34375 1.828125 -0.34375q0.9375 0 1.734375 0.34375q0.796875 0.34375 1.375 1.0q0.578125 0.65625 0.890625 1.625q0.328125 0.953125 0.328125 2.203125zm-7.0 0q0 1.90625 0.625 2.875q0.625 0.953125 2.03125 0.953125q1.40625 0 2.015625 -0.953125q0.625 -0.96875 0.625 -2.875q0 -1.90625 -0.625 -2.84375q-0.625 -0.953125 -2.03125 -0.953125q-1.40625 0 -2.03125 0.953125q-0.609375 0.9375 -0.609375 2.84375zm16.09555 5.015625l-0.25 -1.34375l-0.09375 0q-0.21875 0.390625 -0.53125 0.6875q-0.3125 0.28125 -0.6875 0.46875q-0.375 0.1875 -0.796875 0.28125q-0.421875 0.09375 -0.859375 0.09375q-0.828125 0 -1.453125 -0.203125q-0.625 -0.21875 -1.046875 -0.65625q-0.421875 -0.453125 -0.640625 -1.140625q-0.203125 -0.703125 -0.203125 -1.65625l0 -6.53125l1.65625 0l0 6.4375q0 1.1875 0.484375 1.78125q0.484375 0.59375 1.484375 0.59375q0.734375 0 1.234375 -0.234375q0.515625 -0.25 0.8125 -0.703125q0.3125 -0.46875 0.4375 -1.140625q0.140625 -0.671875 0.140625 -1.546875l0 -5.1875l1.65625 0l0 10.0l-1.34375 0zm7.5329285 -1.171875q0.15625 0 0.359375 -0.015625q0.21875 -0.03125 0.40625 -0.046875q0.1875 -0.03125 0.34375 -0.0625q0.171875 -0.046875 0.25 -0.0625l0 1.25q-0.125 0.0625 -0.3125 0.109375q-0.171875 0.046875 -0.390625 0.09375q-0.21875 0.046875 -0.453125 0.0625q-0.234375 0.03125 -0.46875 0.03125q-0.5625 0 -1.046875 -0.15625q-0.484375 -0.140625 -0.84375 -0.484375q-0.34375 -0.359375 -0.546875 -0.96875q-0.1875 -0.609375 -0.1875 -1.53125l0 -5.796875l-1.421875 0l0 -0.734375l1.421875 -0.71875l0.703125 -2.09375l0.953125 0l0 2.296875l2.515625 0l0 1.25l-2.515625 0l0 5.796875q0 0.890625 0.28125 1.34375q0.296875 0.4375 0.953125 0.4375zm7.243866 1.359375q-1.0 0 -1.828125 -0.328125q-0.828125 -0.34375 -1.421875 -0.984375q-0.59375 -0.65625 -0.921875 -1.609375q-0.328125 -0.96875 -0.328125 -2.1875q0 -1.25 0.296875 -2.21875q0.296875 -0.96875 0.84375 -1.640625q0.546875 -0.6875 1.3125 -1.046875q0.765625 -0.359375 1.6875 -0.359375q0.890625 0 1.609375 0.328125q0.71875 0.328125 1.21875 0.921875q0.515625 0.578125 0.78125 1.40625q0.265625 0.8125 0.265625 1.8125l0 1.03125l-6.3125 0q0.046875 1.765625 0.75 2.59375q0.703125 0.828125 2.078125 0.828125q0.453125 0 0.84375 -0.046875q0.40625 -0.046875 0.765625 -0.125q0.375 -0.09375 0.71875 -0.21875q0.359375 -0.140625 0.703125 -0.296875l0 1.46875q-0.359375 0.171875 -0.71875 0.3125q-0.34375 0.125 -0.71875 0.203125q-0.359375 0.078125 -0.765625 0.109375q-0.390625 0.046875 -0.859375 0.046875zm-0.40625 -9.0q-1.03125 0 -1.640625 0.71875q-0.609375 0.703125 -0.703125 2.0625l4.484375 0q0 -0.625 -0.125 -1.125q-0.125 -0.515625 -0.390625 -0.875q-0.25 -0.375 -0.65625 -0.578125q-0.40625 -0.203125 -0.96875 -0.203125zm10.765259 -1.375q0.265625 0 0.59375 0.03125q0.328125 0.015625 0.5625 0.0625l-0.21875 1.53125q-0.25 -0.046875 -0.515625 -0.078125q-0.265625 -0.03125 -0.5 -0.03125q-0.578125 0 -1.0625 0.234375q-0.46875 0.234375 -0.8125 0.671875q-0.34375 0.421875 -0.53125 1.03125q-0.171875 0.609375 -0.171875 1.34375l0 5.390625l-1.671875 0l0 -10.0l1.359375 0l0.203125 1.828125l0.0625 0q0.234375 -0.390625 0.484375 -0.75q0.265625 -0.375 0.578125 -0.640625q0.328125 -0.28125 0.734375 -0.453125q0.40625 -0.171875 0.90625 -0.171875z" fill-rule="nonzero"/><path fill="#000000" fill-opacity="0.0" d="m659.40155 -5.1916013l105.322876 0l0 30.614174l-105.322876 0z" fill-rule="evenodd"/><path fill="#000000" d="m691.7687 26.212772q-0.4375 0 -0.71875 -0.0625q-0.28125 -0.0625 -0.5 -0.171875l0 -1.34375q0.25 0.09375 0.5 0.140625q0.234375 0.046875 0.546875 0.046875q0.25 0 0.453125 -0.078125q0.21875 -0.0625 0.375 -0.234375q0.15625 -0.171875 0.234375 -0.46875q0.09375 -0.296875 0.09375 -0.765625l0 -11.546875l1.671875 0l0 11.4375q0 0.703125 -0.15625 1.265625q-0.15625 0.5625 -0.484375 0.953125q-0.328125 0.390625 -0.828125 0.609375q-0.5 0.21875 -1.1875 0.21875zm0.859375 -17.1875q0 -0.546875 0.28125 -0.796875q0.28125 -0.25000048 0.6875 -0.25000048q0.203125 0 0.375 0.06250048q0.1875 0.0625 0.3125 0.1875q0.140625 0.125 0.203125 0.328125q0.078125 0.1875 0.078125 0.46875q0 0.53125 -0.28125 0.796875q-0.28125 0.25 -0.6875 0.25q-0.40625 0 -0.6875 -0.25q-0.28125 -0.265625 -0.28125 -0.796875zm11.437378 12.703125l-0.25 -1.34375l-0.09375 0q-0.21875 0.390625 -0.53125 0.6875q-0.3125 0.28125 -0.6875 0.46875q-0.375 0.1875 -0.796875 0.28125q-0.421875 0.09375 -0.859375 0.09375q-0.828125 0 -1.453125 -0.203125q-0.625 -0.21875 -1.046875 -0.65625q-0.421875 -0.453125 -0.640625 -1.140625q-0.203125 -0.703125 -0.203125 -1.65625l0 -6.53125l1.65625 0l0 6.4375q0 1.1875 0.484375 1.78125q0.484375 0.59375 1.484375 0.59375q0.734375 0 1.234375 -0.234375q0.515625 -0.25 0.8125 -0.703125q0.3125 -0.46875 0.4375 -1.140625q0.140625 -0.671875 0.140625 -1.546875l0 -5.1875l1.65625 0l0 10.0l-1.34375 0zm6.173584 0l-1.671875 0l0 -14.171875l1.671875 0l0 14.171875zm4.828003 0l-1.671875 0l0 -10.0l1.671875 0l0 10.0zm-1.796875 -12.703125q0 -0.546875 0.28125 -0.796875q0.28125 -0.25000048 0.6875 -0.25000048q0.203125 0 0.375 0.06250048q0.1875 0.0625 0.3125 0.1875q0.140625 0.125 0.203125 0.328125q0.078125 0.1875 0.078125 0.46875q0 0.53125 -0.28125 0.796875q-0.28125 0.25 -0.6875 0.25q-0.40625 0 -0.6875 -0.25q-0.28125 -0.265625 -0.28125 -0.796875zm8.906189 12.890625q-1.0 0 -1.828125 -0.328125q-0.828125 -0.34375 -1.421875 -0.984375q-0.59375 -0.65625 -0.921875 -1.609375q-0.328125 -0.96875 -0.328125 -2.1875q0 -1.25 0.296875 -2.21875q0.296875 -0.96875 0.84375 -1.640625q0.546875 -0.6875 1.3125 -1.046875q0.765625 -0.359375 1.6875 -0.359375q0.890625 0 1.609375 0.328125q0.71875 0.328125 1.21875 0.921875q0.515625 0.578125 0.78125 1.40625q0.265625 0.8125 0.265625 1.8125l0 1.03125l-6.3125 0q0.046875 1.765625 0.75 2.59375q0.703125 0.828125 2.078125 0.828125q0.453125 0 0.84375 -0.046875q0.40625 -0.046875 0.765625 -0.125q0.375 -0.09375 0.71875 -0.21875q0.359375 -0.140625 0.703125 -0.296875l0 1.46875q-0.359375 0.171875 -0.71875 0.3125q-0.34375 0.125 -0.71875 0.203125q-0.359375 0.078125 -0.765625 0.109375q-0.390625 0.046875 -0.859375 0.046875zm-0.40625 -9.0q-1.03125 0 -1.640625 0.71875q-0.609375 0.703125 -0.703125 2.0625l4.484375 0q0 -0.625 -0.125 -1.125q-0.125 -0.515625 -0.390625 -0.875q-0.25 -0.375 -0.65625 -0.578125q-0.40625 -0.203125 -0.96875 -0.203125zm9.468384 7.640625q0.15625 0 0.359375 -0.015625q0.21875 -0.03125 0.40625 -0.046875q0.1875 -0.03125 0.34375 -0.0625q0.171875 -0.046875 0.25 -0.0625l0 1.25q-0.125 0.0625 -0.3125 0.109375q-0.171875 0.046875 -0.390625 0.09375q-0.21875 0.046875 -0.453125 0.0625q-0.234375 0.03125 -0.46875 0.03125q-0.5625 0 -1.046875 -0.15625q-0.484375 -0.140625 -0.84375 -0.484375q-0.34375 -0.359375 -0.546875 -0.96875q-0.1875 -0.609375 -0.1875 -1.53125l0 -5.796875l-1.421875 0l0 -0.734375l1.421875 -0.71875l0.703125 -2.09375l0.953125 0l0 2.296875l2.515625 0l0 1.25l-2.515625 0l0 5.796875q0 0.890625 0.28125 1.34375q0.296875 0.4375 0.953125 0.4375z" fill-rule="nonzero"/></g></svg>