<svg version="1.1" xmlns="http://www.w3.org/2000/svg" viewBox="0 0 733.3372405143921 374.98656094164517" width="1466.6744810287842" height="749.9731218832903">
  <!-- svg-source:excalidraw -->
  
  <defs>
    <style class="style-fonts">
      @font-face {
        font-family: "Virgil";
        src: url("https://excalidraw.com/Virgil.woff2");
      }
      @font-face {
        font-family: "Cascadia";
        src: url("https://excalidraw.com/Cascadia.woff2");
      }
    </style>
    
  </defs>
  <g stroke-linecap="round" transform="translate(304.9874929196927 52.35565073382952) rotate(0 155.90961124650272 62.251783307108894)"><path d="M0 0 C103.25 0, 206.51 0, 311.82 0 M0 0 C100.71 0, 201.41 0, 311.82 0 M311.82 0 C311.82 40.27, 311.82 80.54, 311.82 124.5 M311.82 0 C311.82 45.74, 311.82 91.48, 311.82 124.5 M311.82 124.5 C239.53 124.5, 167.24 124.5, 0 124.5 M311.82 124.5 C217.3 124.5, 122.78 124.5, 0 124.5 M0 124.5 C0 91.92, 0 59.34, 0 0 M0 124.5 C0 84.66, 0 44.81, 0 0" stroke="#000000" stroke-width="2" fill="none"></path></g><g transform="translate(429.6550587822717 10) rotate(0 28.7861328125 16.100000000000023)"><text x="0" y="0" font-family="Helvetica, Segoe UI Emoji" font-size="28px" fill="#000000" text-anchor="start" style="white-space: pre;" direction="ltr" dominant-baseline="text-before-edge">Host</text></g><g stroke-linecap="round" transform="translate(315.92408846499916 147.60718807429078) rotate(0 47.3333740234375 29.625984119300142)"><path d="M0 0 L94.67 0 L94.67 59.25 L0 59.25" stroke="none" stroke-width="0" fill="#ffffff"></path><path d="M0 0 C31.82 0, 63.63 0, 94.67 0 M0 0 C28.73 0, 57.46 0, 94.67 0 M94.67 0 C94.67 13.48, 94.67 26.96, 94.67 59.25 M94.67 0 C94.67 18.99, 94.67 37.97, 94.67 59.25 M94.67 59.25 C59.65 59.25, 24.63 59.25, 0 59.25 M94.67 59.25 C63.68 59.25, 32.69 59.25, 0 59.25 M0 59.25 C0 45.36, 0 31.47, 0 0 M0 59.25 C0 38.06, 0 16.87, 0 0" stroke="#000000" stroke-width="2" fill="none"></path></g><g transform="translate(417.32939605182605 181.6970646736338) rotate(0 17.2216796875 11.5)"><text x="0" y="0" font-family="Helvetica, Segoe UI Emoji" font-size="20px" fill="#000000" text-anchor="start" style="white-space: pre;" direction="ltr" dominant-baseline="text-before-edge">NIC</text></g><g stroke-linecap="round" transform="translate(319.1404571043797 179.29167089508735) rotate(0 43.78817988957337 11.333343505859375)"><path d="M0 0 L87.58 0 L87.58 22.67 L0 22.67" stroke="none" stroke-width="0" fill="#40c057"></path><path d="M0 0 C32.8 0, 65.59 0, 87.58 0 M0 0 C23.31 0, 46.61 0, 87.58 0 M87.58 0 C87.58 5.03, 87.58 10.05, 87.58 22.67 M87.58 0 C87.58 8.17, 87.58 16.33, 87.58 22.67 M87.58 22.67 C66.25 22.67, 44.91 22.67, 0 22.67 M87.58 22.67 C66.68 22.67, 45.78 22.67, 0 22.67 M0 22.67 C0 15.63, 0 8.6, 0 0 M0 22.67 C0 15.57, 0 8.48, 0 0" stroke="transparent" stroke-width="4" fill="none"></path></g><g stroke-linecap="round" transform="translate(319.45409074477766 152.36043247881162) rotate(0 43.78817988957337 11.333343505859375)"><path d="M0 0 L87.58 0 L87.58 22.67 L0 22.67" stroke="none" stroke-width="0" fill="#228be6"></path><path d="M0 0 C33.68 0, 67.37 0, 87.58 0 M0 0 C19.87 0, 39.73 0, 87.58 0 M87.58 0 C87.58 7.55, 87.58 15.11, 87.58 22.67 M87.58 0 C87.58 5.91, 87.58 11.82, 87.58 22.67 M87.58 22.67 C56.7 22.67, 25.83 22.67, 0 22.67 M87.58 22.67 C58.19 22.67, 28.81 22.67, 0 22.67 M0 22.67 C0 17.26, 0 11.85, 0 0 M0 22.67 C0 14.17, 0 5.68, 0 0" stroke="transparent" stroke-width="4" fill="none"></path></g><g stroke-linecap="round" transform="translate(417.1372268517166 148.1979491283937) rotate(0 43.78817988957337 11.333343505859375)"><path d="M0 0 L87.58 0 L87.58 22.67 L0 22.67" stroke="none" stroke-width="0" fill="#228be6"></path><path d="M0 0 C28.42 0, 56.85 0, 87.58 0 M0 0 C29.35 0, 58.69 0, 87.58 0 M87.58 0 C87.58 4.85, 87.58 9.69, 87.58 22.67 M87.58 0 C87.58 8.5, 87.58 17, 87.58 22.67 M87.58 22.67 C58.53 22.67, 29.48 22.67, 0 22.67 M87.58 22.67 C58.87 22.67, 30.16 22.67, 0 22.67 M0 22.67 C0 14.86, 0 7.05, 0 0 M0 22.67 C0 16.12, 0 9.58, 0 0" stroke="transparent" stroke-width="4" fill="none"></path></g><g stroke-linecap="round" transform="translate(317.1184547922602 121.42919406253588) rotate(0 143.25735651308736 11.333343505859375)"><path d="M0 0 L286.51 0 L286.51 22.67 L0 22.67" stroke="none" stroke-width="0" fill="#7950f2"></path><path d="M0 0 C59.24 0, 118.49 0, 286.51 0 M0 0 C79.7 0, 159.39 0, 286.51 0 M286.51 0 C286.51 5.29, 286.51 10.59, 286.51 22.67 M286.51 0 C286.51 7.19, 286.51 14.38, 286.51 22.67 M286.51 22.67 C175.34 22.67, 64.17 22.67, 0 22.67 M286.51 22.67 C185.24 22.67, 83.97 22.67, 0 22.67 M0 22.67 C0 16.69, 0 10.71, 0 0 M0 22.67 C0 16.61, 0 10.56, 0 0" stroke="transparent" stroke-width="4" fill="none"></path></g><g transform="translate(187.1062391770164 183.33330669914062) rotate(0 49.3515625 9.199999999999989)"><text x="98.703125" y="0" font-family="Helvetica, Segoe UI Emoji" font-size="16px" fill="#40c057" text-anchor="end" style="white-space: pre;" direction="ltr" dominant-baseline="text-before-edge">Physical layer</text></g><g transform="translate(211.1296766770164 151.72947312551764) rotate(0 37.33984375 9.199999999999989)"><text x="74.6796875" y="0" font-family="Helvetica, Segoe UI Emoji" font-size="16px" fill="#228be6" text-anchor="end" style="white-space: pre;" direction="ltr" dominant-baseline="text-before-edge">MAC layer</text></g><g transform="translate(188.0046766770164 122.05360883187154) rotate(0 48.90234375 9.199999999999989)"><text x="97.8046875" y="0" font-family="Helvetica, Segoe UI Emoji" font-size="16px" fill="#7950f2" text-anchor="end" style="white-space: pre;" direction="ltr" dominant-baseline="text-before-edge">Network layer</text></g><g transform="translate(178.8093641770164 90.41600912759304) rotate(0 53.5 9.199999999999989)"><text x="107" y="0" font-family="Helvetica, Segoe UI Emoji" font-size="16px" fill="#be4bdb" text-anchor="end" style="white-space: pre;" direction="ltr" dominant-baseline="text-before-edge">Transport layer</text></g><g stroke-linecap="round" transform="translate(317.1184547922602 92.49795564626015) rotate(0 142.70778623370796 11.333343505859375)"><path d="M0 0 L285.42 0 L285.42 22.67 L0 22.67" stroke="none" stroke-width="0" fill="#be4bdb"></path><path d="M0 0 C90.29 0, 180.57 0, 285.42 0 M0 0 C63.85 0, 127.7 0, 285.42 0 M285.42 0 C285.42 7.85, 285.42 15.7, 285.42 22.67 M285.42 0 C285.42 8.13, 285.42 16.26, 285.42 22.67 M285.42 22.67 C173.83 22.67, 62.25 22.67, 0 22.67 M285.42 22.67 C216.82 22.67, 148.23 22.67, 0 22.67 M0 22.67 C0 15.99, 0 9.32, 0 0 M0 22.67 C0 14.14, 0 5.62, 0 0" stroke="transparent" stroke-width="4" fill="none"></path></g><g stroke-linecap="round" transform="translate(317.1184547922602 63.56671722998442) rotate(0 142.15826626745496 11.333343505859375)"><path d="M0 0 L284.32 0 L284.32 22.67 L0 22.67" stroke="none" stroke-width="0" fill="#e64980"></path><path d="M0 0 C101.08 0, 202.17 0, 284.32 0 M0 0 C105.99 0, 211.97 0, 284.32 0 M284.32 0 C284.32 7.63, 284.32 15.25, 284.32 22.67 M284.32 0 C284.32 6.52, 284.32 13.03, 284.32 22.67 M284.32 22.67 C208.33 22.67, 132.34 22.67, 0 22.67 M284.32 22.67 C211.76 22.67, 139.2 22.67, 0 22.67 M0 22.67 C0 16.56, 0 10.46, 0 0 M0 22.67 C0 17.38, 0 12.08, 0 0" stroke="transparent" stroke-width="4" fill="none"></path></g><g transform="translate(168.4109266770164 63.251400210832344) rotate(0 58.69921875 9.199999999999989)"><text x="117.3984375" y="0" font-family="Helvetica, Segoe UI Emoji" font-size="16px" fill="#e64980" text-anchor="end" style="white-space: pre;" direction="ltr" dominant-baseline="text-before-edge">Application layer</text></g><g stroke-linecap="round" transform="translate(510.31348372728587 147.60718807429078) rotate(0 48.157704285943225 29.625984119300142)"><path d="M0 0 L96.32 0 L96.32 59.25 L0 59.25" stroke="none" stroke-width="0" fill="#ffffff"></path><path d="M0 0 C30.73 0, 61.46 0, 96.32 0 M0 0 C19.85 0, 39.7 0, 96.32 0 M96.32 0 C96.32 14.02, 96.32 28.04, 96.32 59.25 M96.32 0 C96.32 13.3, 96.32 26.61, 96.32 59.25 M96.32 59.25 C66.92 59.25, 37.53 59.25, 0 59.25 M96.32 59.25 C63.05 59.25, 29.79 59.25, 0 59.25 M0 59.25 C0 39.63, 0 20.01, 0 0 M0 59.25 C0 45.39, 0 31.53, 0 0" stroke="#000000" stroke-width="2" fill="none"></path></g><g stroke-linecap="round" transform="translate(515.178512891678 179.29167089508735) rotate(0 43.78817988957343 11.333343505859375)"><path d="M0 0 L87.58 0 L87.58 22.67 L0 22.67" stroke="none" stroke-width="0" fill="#40c057"></path><path d="M0 0 C27.94 0, 55.89 0, 87.58 0 M0 0 C24.7 0, 49.4 0, 87.58 0 M87.58 0 C87.58 6.16, 87.58 12.32, 87.58 22.67 M87.58 0 C87.58 9.03, 87.58 18.06, 87.58 22.67 M87.58 22.67 C54.55 22.67, 21.52 22.67, 0 22.67 M87.58 22.67 C69.41 22.67, 51.24 22.67, 0 22.67 M0 22.67 C0 16.01, 0 9.35, 0 0 M0 22.67 C0 14.22, 0 5.78, 0 0" stroke="transparent" stroke-width="2" fill="none"></path></g><g stroke-linecap="round" transform="translate(515.4921465320759 152.36043247881162) rotate(0 43.78817988957343 11.333343505859375)"><path d="M0 0 L87.58 0 L87.58 22.67 L0 22.67" stroke="none" stroke-width="0" fill="#228be6"></path><path d="M0 0 C30.9 0, 61.8 0, 87.58 0 M0 0 C25.71 0, 51.42 0, 87.58 0 M87.58 0 C87.58 4.53, 87.58 9.07, 87.58 22.67 M87.58 0 C87.58 4.68, 87.58 9.37, 87.58 22.67 M87.58 22.67 C59.25 22.67, 30.93 22.67, 0 22.67 M87.58 22.67 C61.86 22.67, 36.15 22.67, 0 22.67 M0 22.67 C0 16.63, 0 10.59, 0 0 M0 22.67 C0 16.22, 0 9.78, 0 0" stroke="transparent" stroke-width="4" fill="none"></path></g><g transform="translate(610.9131105549825 181.6531636594974) rotate(0 17.2216796875 11.5)"><text x="0" y="0" font-family="Helvetica, Segoe UI Emoji" font-size="20px" fill="#000000" text-anchor="start" style="white-space: pre;" direction="ltr" dominant-baseline="text-before-edge">NIC</text></g><g stroke-linecap="round"><g transform="translate(156.02657860576778 54.84136187429624) rotate(0 0 14.563165874555807)"><path d="M0 0 C0 4.85, 0 24.27, 0 29.13 M0 0 C0 4.85, 0 24.27, 0 29.13" stroke="#000000" stroke-width="4" fill="none"></path></g></g><mask></mask><g stroke-linecap="round"><g transform="translate(155.8891734576414 92.89794023026764) rotate(0 0 30.98107798432011)"><path d="M0 0 C0 10.33, 0 51.64, 0 61.96 M0 0 C0 10.33, 0 51.64, 0 61.96" stroke="#000000" stroke-width="4" fill="none"></path></g></g><mask></mask><g stroke-linecap="round"><g transform="translate(156.0265534492047 162.3477554126713) rotate(0 0 19.88697544437889)"><path d="M0 0 C0 6.63, 0 33.14, 0 39.77 M0 0 C0 6.63, 0 33.14, 0 39.77" stroke="#000000" stroke-width="4" fill="none"></path></g></g><mask></mask><g transform="translate(54.46093750000006 59.67929402111929) rotate(0 40.46093749999997 9.199999999999989)"><text x="80.921875" y="0" font-family="Helvetica, Segoe UI Emoji" font-size="16px" fill="#000000" text-anchor="end" style="white-space: pre;" direction="ltr" dominant-baseline="text-before-edge">User space</text></g><g transform="translate(10 102.38241239652632) rotate(0 62.69140625 18.399999999999977)"><text x="125.3828125" y="0" font-family="Helvetica, Segoe UI Emoji" font-size="16px" fill="#000000" text-anchor="end" style="white-space: pre;" direction="ltr" dominant-baseline="text-before-edge">Operating system</text><text x="125.3828125" y="18.4" font-family="Helvetica, Segoe UI Emoji" font-size="16px" fill="#000000" text-anchor="end" style="white-space: pre;" direction="ltr" dominant-baseline="text-before-edge">kernel space</text></g><g transform="translate(10.890625 165.08553077193335) rotate(0 62.24609375 18.399999999999977)"><text x="124.4921875" y="0" font-family="Helvetica, Segoe UI Emoji" font-size="16px" fill="#000000" text-anchor="end" style="white-space: pre;" direction="ltr" dominant-baseline="text-before-edge">Network interface</text><text x="124.4921875" y="18.4" font-family="Helvetica, Segoe UI Emoji" font-size="16px" fill="#000000" text-anchor="end" style="white-space: pre;" direction="ltr" dominant-baseline="text-before-edge">card</text></g><g stroke-linecap="round"><g transform="translate(195.21630223129114 255.42838822461738) rotate(0 101.94216741103139 0)"><path d="M0 0 C33.98 0, 169.9 0, 203.88 0 M0 0 C33.98 0, 169.9 0, 203.88 0" stroke="#000000" stroke-width="4" fill="none"></path></g></g><mask></mask><g stroke-linecap="round"><g transform="translate(515.0564440835474 255.42838822461738) rotate(0 104.14039821542235 0)"><path d="M0 0 C34.71 0, 173.57 0, 208.28 0 M0 0 C34.71 0, 173.57 0, 208.28 0" stroke="#000000" stroke-width="4" fill="none"></path></g></g><mask></mask><g transform="translate(221.47969608663584 264.4149934747337) rotate(0 53.80078125 18.399999999999977)"><text x="53.80078125" y="0" font-family="Helvetica, Segoe UI Emoji" font-size="16px" fill="#000000" text-anchor="middle" style="white-space: pre;" direction="ltr" dominant-baseline="text-before-edge">Physical media</text><text x="53.80078125" y="18.4" font-family="Helvetica, Segoe UI Emoji" font-size="16px" fill="#000000" text-anchor="middle" style="white-space: pre;" direction="ltr" dominant-baseline="text-before-edge">(network 1)</text></g><g transform="translate(555.8780847967276 264.4149934747337) rotate(0 53.80078124999994 18.399999999999977)"><text x="53.80078125" y="0" font-family="Helvetica, Segoe UI Emoji" font-size="16px" fill="#000000" text-anchor="middle" style="white-space: pre;" direction="ltr" dominant-baseline="text-before-edge">Physical media</text><text x="53.80078125" y="18.4" font-family="Helvetica, Segoe UI Emoji" font-size="16px" fill="#000000" text-anchor="middle" style="white-space: pre;" direction="ltr" dominant-baseline="text-before-edge">(network 2)</text></g><g stroke-linecap="round"><g transform="translate(358.9832644868219 209.0999518222386) rotate(0 0 22.614673078373187)"><path d="M0 0 C0 7.54, 0 37.69, 0 45.23 M0 0 C0 7.54, 0 37.69, 0 45.23" stroke="#000000" stroke-width="2" fill="none"></path></g></g><mask></mask><g stroke-linecap="round"><g transform="translate(556.8225274882175 206.5181427536478) rotate(0 0 24.455122735484792)"><path d="M0 0 C0 8.15, 0 40.76, 0 48.91 M0 0 C0 8.15, 0 40.76, 0 48.91" stroke="#000000" stroke-width="2" fill="none"></path></g></g><mask></mask><g transform="translate(56.23437500000006 81.0308532088228) rotate(0 39.57421874999997 9.199999999999989)"><text x="79.1484375" y="0" font-family="Helvetica, Segoe UI Emoji" font-size="16px" fill="#999999" text-anchor="end" style="white-space: pre;" direction="ltr" dominant-baseline="text-before-edge">Socket API</text></g><g transform="translate(42.0234375 143.73397158422983) rotate(0 46.6796875 9.199999999999989)"><text x="93.359375" y="0" font-family="Helvetica, Segoe UI Emoji" font-size="16px" fill="#999999" text-anchor="end" style="white-space: pre;" direction="ltr" dominant-baseline="text-before-edge">Device driver</text></g><g transform="translate(361.35968582347436 309.7865609416451) rotate(0 85.82421875 27.600000000000023)"><text x="85.82421875" y="0" font-family="Helvetica, Segoe UI Emoji" font-size="16px" fill="#495057" text-anchor="middle" style="white-space: pre;" direction="ltr" dominant-baseline="text-before-edge">Each NIC represents </text><text x="85.82421875" y="18.4" font-family="Helvetica, Segoe UI Emoji" font-size="16px" fill="#495057" text-anchor="middle" style="white-space: pre;" direction="ltr" dominant-baseline="text-before-edge">a point of attachment</text><text x="85.82421875" y="36.8" font-family="Helvetica, Segoe UI Emoji" font-size="16px" fill="#495057" text-anchor="middle" style="white-space: pre;" direction="ltr" dominant-baseline="text-before-edge">to one physical network.</text></g></svg>