<?xml version="1.0" encoding="UTF-8" standalone="no"?>
<svg
   xmlns:dc="http://purl.org/dc/elements/1.1/"
   xmlns:cc="http://creativecommons.org/ns#"
   xmlns:rdf="http://www.w3.org/1999/02/22-rdf-syntax-ns#"
   xmlns:svg="http://www.w3.org/2000/svg"
   xmlns="http://www.w3.org/2000/svg"
   viewBox="0 0 1199.9924 615.53498"
   height="615.53497"
   width="1199.9924"
   xml:space="preserve"
   version="1.1"
   id="svg2"><metadata
     id="metadata8"><rdf:RDF><cc:Work
         rdf:about=""><dc:format>image/svg+xml</dc:format><dc:type
           rdf:resource="http://purl.org/dc/dcmitype/StillImage" /><dc:title></dc:title></cc:Work></rdf:RDF></metadata><defs
     id="defs6"><clipPath
       id="clipPath50"
       clipPathUnits="userSpaceOnUse"><path
         id="path52"
         d="m 271.22,215.47 578.83,0 0,305.43 -578.83,0 0,-305.43 z" /></clipPath></defs><g
     transform="matrix(1.25,0,0,-1.25,-65.6875,703.7975)"
     id="g10"><g
       id="g12" /><g
       id="g14" /><g
       id="g16" /><g
       id="g18" /><g
       id="g20" /><g
       id="g22" /><g
       id="g24" /><g
       id="g26" /><g
       id="g28" /><g
       id="g30" /><g
       id="g32" /><g
       id="g34" /><g
       id="g36" /><g
       id="g40" /><g
       id="g42" /><g
       id="g44" /><g
       id="g46"><g
         clip-path="url(#clipPath50)"
         id="g48"><path
           id="path54"
           style="fill:none;stroke:#e5e5e5;stroke-width:0.43000001;stroke-linecap:butt;stroke-linejoin:round;stroke-miterlimit:10;stroke-dasharray:none;stroke-opacity:1"
           d="m 271.22,259.11 578.83,0" /><path
           id="path56"
           style="fill:none;stroke:#e5e5e5;stroke-width:0.43000001;stroke-linecap:butt;stroke-linejoin:round;stroke-miterlimit:10;stroke-dasharray:none;stroke-opacity:1"
           d="m 271.22,331.83 578.83,0" /><path
           id="path58"
           style="fill:none;stroke:#e5e5e5;stroke-width:0.43000001;stroke-linecap:butt;stroke-linejoin:round;stroke-miterlimit:10;stroke-dasharray:none;stroke-opacity:1"
           d="m 271.22,404.55 578.83,0" /><path
           id="path60"
           style="fill:none;stroke:#e5e5e5;stroke-width:0.43000001;stroke-linecap:butt;stroke-linejoin:round;stroke-miterlimit:10;stroke-dasharray:none;stroke-opacity:1"
           d="m 271.22,477.27 578.83,0" /><path
           id="path62"
           style="fill:none;stroke:#e5e5e5;stroke-width:0.43000001;stroke-linecap:butt;stroke-linejoin:round;stroke-miterlimit:10;stroke-dasharray:none;stroke-opacity:1"
           d="m 297.53,215.47 0,305.43" /><path
           id="path64"
           style="fill:none;stroke:#e5e5e5;stroke-width:0.43000001;stroke-linecap:butt;stroke-linejoin:round;stroke-miterlimit:10;stroke-dasharray:none;stroke-opacity:1"
           d="m 429.08,215.47 0,305.43" /><path
           id="path66"
           style="fill:none;stroke:#e5e5e5;stroke-width:0.43000001;stroke-linecap:butt;stroke-linejoin:round;stroke-miterlimit:10;stroke-dasharray:none;stroke-opacity:1"
           d="m 560.64,215.47 0,305.43" /><path
           id="path68"
           style="fill:none;stroke:#e5e5e5;stroke-width:0.43000001;stroke-linecap:butt;stroke-linejoin:round;stroke-miterlimit:10;stroke-dasharray:none;stroke-opacity:1"
           d="m 692.19,215.47 0,305.43" /><path
           id="path70"
           style="fill:none;stroke:#e5e5e5;stroke-width:0.43000001;stroke-linecap:butt;stroke-linejoin:round;stroke-miterlimit:10;stroke-dasharray:none;stroke-opacity:1"
           d="m 823.74,215.47 0,305.43" /><path
           id="path72"
           style="fill:#9b53d3;fill-opacity:1;fill-rule:nonzero;stroke:none"
           d="m 297.53,226.38 249.28,0 0,32.72 -249.28,0 0,-32.72 z" /><path
           id="path74"
           style="fill:#57d3db;fill-opacity:1;fill-rule:nonzero;stroke:none"
           d="m 297.53,259.11 270.2,0 0,32.72 -270.2,0 0,-32.72 z" /><path
           id="path76"
           style="fill:#9b53d3;fill-opacity:1;fill-rule:nonzero;stroke:none"
           d="m 297.53,299.1 350.6,0 0,32.72 -350.6,0 0,-32.72 z" /><path
           id="path78"
           style="fill:#57d3db;fill-opacity:1;fill-rule:nonzero;stroke:none"
           d="m 297.53,331.83 367.98,0 0,32.72 -367.98,0 0,-32.72 z" /><path
           id="path80"
           style="fill:#9b53d3;fill-opacity:1;fill-rule:nonzero;stroke:none"
           d="m 297.53,371.82 428.47,0 0,32.72 -428.47,0 0,-32.72 z" /><path
           id="path82"
           style="fill:#57d3db;fill-opacity:1;fill-rule:nonzero;stroke:none"
           d="m 297.53,404.55 435.31,0 0,32.72 -435.31,0 0,-32.72 z" /><path
           id="path84"
           style="fill:#9b53d3;fill-opacity:1;fill-rule:nonzero;stroke:none"
           d="m 297.53,444.55 462.26,0 0,32.72 -462.26,0 0,-32.72 z" /><path
           id="path86"
           style="fill:#57d3db;fill-opacity:1;fill-rule:nonzero;stroke:none"
           d="m 297.53,477.27 463.46,0 0,32.72 -463.46,0 0,-32.72 z" /></g></g><g
       id="g88" /><g
       id="g90" /><g
       id="g92" /><g
       id="g94" /><g
       id="g96" /><g
       style="fill:#000000"
       id="g98"><text
         id="text100"
         style="font-variant:normal;font-weight:normal;font-size:22px;font-family:Helvetica;-inkscape-font-specification:Helvetica;writing-mode:lr-tb;fill:#000000;fill-opacity:1;fill-rule:nonzero;stroke:none"
         transform="matrix(1,0,0,-1,50.79,251.21)"><tspan
           id="tspan102"
           y="0"
           x="0 12.232 26.906 41.580002 56.254002 62.369999 75.811996 91.695999 106.37 122.254 128.37 140.60201 152.834 165.06599 171.18201 183.414 195.646">LESS THAN $25,000</tspan></text>
<text
         id="text104"
         style="font-variant:normal;font-weight:normal;font-size:22px;font-family:Helvetica;-inkscape-font-specification:Helvetica;writing-mode:lr-tb;fill:#000000;fill-opacity:1;fill-rule:nonzero;stroke:none"
         transform="matrix(1,0,0,-1,82.2,323.93)"><tspan
           id="tspan106"
           y="0"
           x="0 12.232 24.464001 30.58 42.812 55.043999 67.276001 73.391998 85.954002 103.07 109.186 121.418 133.64999 139.76601 151.998 164.23">25,000 TO 49,999</tspan></text>
<text
         id="text108"
         style="font-variant:normal;font-weight:normal;font-size:22px;font-family:Helvetica;-inkscape-font-specification:Helvetica;writing-mode:lr-tb;fill:#000000;fill-opacity:1;fill-rule:nonzero;stroke:none"
         transform="matrix(1,0,0,-1,82.2,396.65)"><tspan
           id="tspan110"
           y="0"
           x="0 12.232 24.464001 30.58 42.812 55.043999 67.276001 73.391998 85.954002 103.07 109.186 121.418 133.64999 139.76601 151.998 164.23">50,000 TO 74,999</tspan></text>
<text
         id="text112"
         style="font-variant:normal;font-weight:normal;font-size:22px;font-family:Helvetica;-inkscape-font-specification:Helvetica;writing-mode:lr-tb;fill:#000000;fill-opacity:1;fill-rule:nonzero;stroke:none"
         transform="matrix(1,0,0,-1,80.16,469.37)"><tspan
           id="tspan114"
           y="0"
           x="0 12.232 24.464001 30.58 42.812 55.043999 67.276001 73.391998 90.508003 106.392 112.508 130.834 147.95 163.834">75,000 OR MORE</tspan></text>
</g><g
       id="g116" /><g
       id="g118" /><g
       id="g120"><path
         id="path122"
         style="fill:none;stroke:#000000;stroke-width:1.07000005;stroke-linecap:butt;stroke-linejoin:round;stroke-miterlimit:10;stroke-dasharray:none;stroke-opacity:1"
         d="m 264.25,259.11 6.97,0" /><path
         id="path124"
         style="fill:none;stroke:#000000;stroke-width:1.07000005;stroke-linecap:butt;stroke-linejoin:round;stroke-miterlimit:10;stroke-dasharray:none;stroke-opacity:1"
         d="m 264.25,331.83 6.97,0" /><path
         id="path126"
         style="fill:none;stroke:#000000;stroke-width:1.07000005;stroke-linecap:butt;stroke-linejoin:round;stroke-miterlimit:10;stroke-dasharray:none;stroke-opacity:1"
         d="m 264.25,404.55 6.97,0" /><path
         id="path128"
         style="fill:none;stroke:#000000;stroke-width:1.07000005;stroke-linecap:butt;stroke-linejoin:round;stroke-miterlimit:10;stroke-dasharray:none;stroke-opacity:1"
         d="m 264.25,477.27 6.97,0" /></g><g
       id="g130" /><g
       id="g132" /><g
       id="g134" /><g
       id="g136" /><g
       id="g138" /><g
       id="g140" /><g
       id="g142" /><g
       id="g144" /><g
       id="g146"><path
         id="path148"
         style="fill:none;stroke:#000000;stroke-width:1.07000005;stroke-linecap:butt;stroke-linejoin:round;stroke-miterlimit:10;stroke-dasharray:none;stroke-opacity:1"
         d="m 297.53,208.5 0,6.97" /><path
         id="path150"
         style="fill:none;stroke:#000000;stroke-width:1.07000005;stroke-linecap:butt;stroke-linejoin:round;stroke-miterlimit:10;stroke-dasharray:none;stroke-opacity:1"
         d="m 429.08,208.5 0,6.97" /><path
         id="path152"
         style="fill:none;stroke:#000000;stroke-width:1.07000005;stroke-linecap:butt;stroke-linejoin:round;stroke-miterlimit:10;stroke-dasharray:none;stroke-opacity:1"
         d="m 560.64,208.5 0,6.97" /><path
         id="path154"
         style="fill:none;stroke:#000000;stroke-width:1.07000005;stroke-linecap:butt;stroke-linejoin:round;stroke-miterlimit:10;stroke-dasharray:none;stroke-opacity:1"
         d="m 692.19,208.5 0,6.97" /><path
         id="path156"
         style="fill:none;stroke:#000000;stroke-width:1.07000005;stroke-linecap:butt;stroke-linejoin:round;stroke-miterlimit:10;stroke-dasharray:none;stroke-opacity:1"
         d="m 823.74,208.5 0,6.97" /></g><g
       id="g158" /><g
       style="fill:#000000"
       id="g160"><text
         id="text162"
         style="font-variant:normal;font-weight:normal;font-size:22px;font-family:Helvetica;-inkscape-font-specification:Helvetica;writing-mode:lr-tb;fill:#000000;fill-opacity:1;fill-rule:nonzero;stroke:none"
         transform="matrix(1,0,0,-1,276.12,187.12)"><tspan
           id="tspan164"
           y="0"
           x="0 12.232 18.348 30.58">0.00</tspan></text>
<text
         id="text166"
         style="font-variant:normal;font-weight:normal;font-size:22px;font-family:Helvetica;-inkscape-font-specification:Helvetica;writing-mode:lr-tb;fill:#000000;fill-opacity:1;fill-rule:nonzero;stroke:none"
         transform="matrix(1,0,0,-1,407.68,187.12)"><tspan
           id="tspan168"
           y="0"
           x="0 12.232 18.348 30.58">0.25</tspan></text>
<text
         id="text170"
         style="font-variant:normal;font-weight:normal;font-size:22px;font-family:Helvetica;-inkscape-font-specification:Helvetica;writing-mode:lr-tb;fill:#000000;fill-opacity:1;fill-rule:nonzero;stroke:none"
         transform="matrix(1,0,0,-1,539.23,187.12)"><tspan
           id="tspan172"
           y="0"
           x="0 12.232 18.348 30.58">0.50</tspan></text>
<text
         id="text174"
         style="font-variant:normal;font-weight:normal;font-size:22px;font-family:Helvetica;-inkscape-font-specification:Helvetica;writing-mode:lr-tb;fill:#000000;fill-opacity:1;fill-rule:nonzero;stroke:none"
         transform="matrix(1,0,0,-1,670.78,187.12)"><tspan
           id="tspan176"
           y="0"
           x="0 12.232 18.348 30.58">0.75</tspan></text>
<text
         id="text178"
         style="font-variant:normal;font-weight:normal;font-size:22px;font-family:Helvetica;-inkscape-font-specification:Helvetica;writing-mode:lr-tb;fill:#000000;fill-opacity:1;fill-rule:nonzero;stroke:none"
         transform="matrix(1,0,0,-1,802.34,187.12)"><tspan
           id="tspan180"
           y="0"
           x="0 12.232 18.348 30.58">1.00</tspan></text>
</g><g
       id="g182" /><g
       id="g184" /><g
       id="g186" /><g
       id="g188" /><g
       id="g190" /><g
       id="g192"><text
         id="text194"
         style="font-variant:normal;font-weight:normal;font-size:28px;font-family:Helvetica;-inkscape-font-specification:Helvetica;writing-mode:lr-tb;fill:#000000;fill-opacity:1;fill-rule:nonzero;stroke:none"
         transform="matrix(1,0,0,-1,417.46,155.86)"><tspan
           id="tspan196"
           y="0"
           x="0 17.108 26.431999 42 57.568001 73.136002 88.704002 104.272 118.272 132.272 140.056 155.62399 163.408 171.192 180.51601 196.084 210.084 225.65199 241.22 256.78799 270.78799">Frequency of response</tspan></text>
</g><g
       id="g198" /><g
       id="g200" /><g
       id="g202" /><g
       id="g204" /><g
       id="g206" /><g
       id="g208" /><g
       id="g210" /><g
       id="g212" /><g
       id="g214" /><g
       id="g220" /><g
       id="g222" /><g
       id="g224" /><g
       id="g230" /><g
       transform="translate(-136,0)"
       id="g232"><path
         id="path234"
         style="fill:#9b53d3;fill-opacity:1;fill-rule:nonzero;stroke:none"
         d="m 371.69,70.61 34.58,0 0,41.78 -34.58,0 0,-41.78 z" /></g><g
       id="g236" /><g
       id="g242" /><g
       transform="translate(297.6,43.2)"
       id="g244"><path
         id="path246"
         style="fill:#57d3db;fill-opacity:1;fill-rule:nonzero;stroke:none"
         d="m 371.69,27.41 34.58,0 0,41.78 -34.58,0 0,-41.78 z" /></g><g
       id="g248" /><g
       transform="translate(-136,0)"
       id="g250"><text
         id="text252"
         style="font-variant:normal;font-weight:normal;font-size:22px;font-family:Helvetica;-inkscape-font-specification:Helvetica;writing-mode:lr-tb;fill:#000000;fill-opacity:1;fill-rule:nonzero;stroke:none"
         transform="matrix(1,0,0,-1,409.14,83.61)"><tspan
           id="tspan254"
           y="0"
           x="0 15.884 26.884001 39.116001 50.116001 56.231998 68.463997 74.580002 86.811996 99.043999 110.044 121.044 127.16 139.392 151.62399 157.74001 169.972 177.298 183.414 188.298 200.53 212.76199 218.87801 231.11 243.342 249.45799 260.45801 272.69 291.01599 303.24799 315.48001 321.59601 333.828">Uses a desktop or laptop computer</tspan></text>
</g><g
       id="g256" /><g
       transform="translate(297.6,38.8)"
       id="g258"><text
         id="text260"
         style="font-variant:normal;font-weight:normal;font-size:22px;font-family:Helvetica;-inkscape-font-specification:Helvetica;writing-mode:lr-tb;fill:#000000;fill-opacity:1;fill-rule:nonzero;stroke:none"
         transform="matrix(1,0,0,-1,409.14,40.41)"><tspan
           id="tspan262"
           y="0"
           x="0 15.884 26.884001 39.116001 50.116001 56.231998 62.348 74.580002 86.811996 92.928001 99.043999 111.276 117.392 129.62399 137.5 149.73199 161.964 168.08 174.196 186.42799 192.54401 198.66 210.892 223.12399 241.45">Uses the Internet at home</tspan></text>
</g><g
       id="g264" /><g
       id="g266" /><g
       id="g268" /><g
       id="g270" /><g
       id="g272" /><g
       id="g274" /><g
       id="g276" /><g
       id="g278" /><g
       id="g280" /><g
       id="g282"><text
         id="text284"
         style="font-variant:normal;font-weight:normal;font-size:34px;font-family:Helvetica;-inkscape-font-specification:Helvetica;writing-mode:lr-tb;fill:#000000;fill-opacity:1;fill-rule:nonzero;stroke:none"
         transform="matrix(1,0,0,-1,107.26,537.64)"><tspan
           id="tspan286"
           y="0"
           x="0 24.548 43.452 71.774002 90.678001 109.582 119.034 137.938 149.25999 158.71201 177.616 196.52 215.424 224.87601 234.328 253.23199 262.68399 281.58801 293.76001 312.664 331.56799 341.01999 350.47198 375.01999 392.01999 410.92401 429.828 448.73199 458.18399 477.08801 486.54001 495.992 520.53998 543.21802 552.66998 577.21802 596.12201 615.026 632.026 650.92999 669.83398 688.73798 696.28601 715.19 731.67999 741.13202 750.58398 768.80798 785.80798 795.26001 804.71198 823.61603 840.61603 859.52002 887.84198">Computer and Internet Usage of US Households, by Income</tspan></text>
</g><g
       id="g288" /><g
       id="g290" /><g
       id="g292" /></g></svg>